G04 #@! TF.GenerationSoftware,KiCad,Pcbnew,(5.0.0)*
G04 #@! TF.CreationDate,2018-09-05T22:09:31+02:00*
G04 #@! TF.ProjectId,SN76849 Arduino nano shield,534E37363834392041726475696E6F20,20180905 0.7.06*
G04 #@! TF.SameCoordinates,Original*
G04 #@! TF.FileFunction,Legend,Top*
G04 #@! TF.FilePolarity,Positive*
%FSLAX46Y46*%
G04 Gerber Fmt 4.6, Leading zero omitted, Abs format (unit mm)*
G04 Created by KiCad (PCBNEW (5.0.0)) date 09/05/18 22:09:31*
%MOMM*%
%LPD*%
G01*
G04 APERTURE LIST*
%ADD10C,0.175000*%
%ADD11C,0.120000*%
%ADD12C,0.010000*%
%ADD13C,0.150000*%
%ADD14C,0.254000*%
%ADD15C,0.381000*%
%ADD16C,0.100000*%
%ADD17C,0.203200*%
%ADD18C,0.285750*%
%ADD19C,0.287020*%
%ADD20C,0.304800*%
G04 APERTURE END LIST*
D10*
X71866666Y-67050000D02*
X71866666Y-66616666D01*
X72133333Y-66850000D01*
X72133333Y-66750000D01*
X72166666Y-66683333D01*
X72200000Y-66650000D01*
X72266666Y-66616666D01*
X72433333Y-66616666D01*
X72500000Y-66650000D01*
X72533333Y-66683333D01*
X72566666Y-66750000D01*
X72566666Y-66950000D01*
X72533333Y-67016666D01*
X72500000Y-67050000D01*
X71866666Y-66383333D02*
X71866666Y-65950000D01*
X72133333Y-66183333D01*
X72133333Y-66083333D01*
X72166666Y-66016666D01*
X72200000Y-65983333D01*
X72266666Y-65950000D01*
X72433333Y-65950000D01*
X72500000Y-65983333D01*
X72533333Y-66016666D01*
X72566666Y-66083333D01*
X72566666Y-66283333D01*
X72533333Y-66350000D01*
X72500000Y-66383333D01*
X71866666Y-65516666D02*
X71866666Y-65450000D01*
X71900000Y-65383333D01*
X71933333Y-65350000D01*
X72000000Y-65316666D01*
X72133333Y-65283333D01*
X72300000Y-65283333D01*
X72433333Y-65316666D01*
X72500000Y-65350000D01*
X72533333Y-65383333D01*
X72566666Y-65450000D01*
X72566666Y-65516666D01*
X72533333Y-65583333D01*
X72500000Y-65616666D01*
X72433333Y-65650000D01*
X72300000Y-65683333D01*
X72133333Y-65683333D01*
X72000000Y-65650000D01*
X71933333Y-65616666D01*
X71900000Y-65583333D01*
X71866666Y-65516666D01*
X40700000Y-41033333D02*
X40800000Y-41066666D01*
X40966666Y-41066666D01*
X41033333Y-41033333D01*
X41066666Y-41000000D01*
X41100000Y-40933333D01*
X41100000Y-40866666D01*
X41066666Y-40800000D01*
X41033333Y-40766666D01*
X40966666Y-40733333D01*
X40833333Y-40700000D01*
X40766666Y-40666666D01*
X40733333Y-40633333D01*
X40700000Y-40566666D01*
X40700000Y-40500000D01*
X40733333Y-40433333D01*
X40766666Y-40400000D01*
X40833333Y-40366666D01*
X41000000Y-40366666D01*
X41100000Y-40400000D01*
X41400000Y-41066666D02*
X41400000Y-40366666D01*
X41566666Y-40366666D01*
X41666666Y-40400000D01*
X41733333Y-40466666D01*
X41766666Y-40533333D01*
X41800000Y-40666666D01*
X41800000Y-40766666D01*
X41766666Y-40900000D01*
X41733333Y-40966666D01*
X41666666Y-41033333D01*
X41566666Y-41066666D01*
X41400000Y-41066666D01*
X42066666Y-40866666D02*
X42400000Y-40866666D01*
X42000000Y-41066666D02*
X42233333Y-40366666D01*
X42466666Y-41066666D01*
X43216666Y-41033333D02*
X43316666Y-41066666D01*
X43483333Y-41066666D01*
X43550000Y-41033333D01*
X43583333Y-41000000D01*
X43616666Y-40933333D01*
X43616666Y-40866666D01*
X43583333Y-40800000D01*
X43550000Y-40766666D01*
X43483333Y-40733333D01*
X43350000Y-40700000D01*
X43283333Y-40666666D01*
X43250000Y-40633333D01*
X43216666Y-40566666D01*
X43216666Y-40500000D01*
X43250000Y-40433333D01*
X43283333Y-40400000D01*
X43350000Y-40366666D01*
X43516666Y-40366666D01*
X43616666Y-40400000D01*
X44316666Y-41000000D02*
X44283333Y-41033333D01*
X44183333Y-41066666D01*
X44116666Y-41066666D01*
X44016666Y-41033333D01*
X43950000Y-40966666D01*
X43916666Y-40900000D01*
X43883333Y-40766666D01*
X43883333Y-40666666D01*
X43916666Y-40533333D01*
X43950000Y-40466666D01*
X44016666Y-40400000D01*
X44116666Y-40366666D01*
X44183333Y-40366666D01*
X44283333Y-40400000D01*
X44316666Y-40433333D01*
X44950000Y-41066666D02*
X44616666Y-41066666D01*
X44616666Y-40366666D01*
X83333333Y-53266666D02*
X83266666Y-53233333D01*
X83233333Y-53200000D01*
X83200000Y-53133333D01*
X83200000Y-52933333D01*
X83233333Y-52866666D01*
X83266666Y-52833333D01*
X83333333Y-52800000D01*
X83433333Y-52800000D01*
X83500000Y-52833333D01*
X83533333Y-52866666D01*
X83566666Y-52933333D01*
X83566666Y-53133333D01*
X83533333Y-53200000D01*
X83500000Y-53233333D01*
X83433333Y-53266666D01*
X83333333Y-53266666D01*
X84166666Y-52800000D02*
X84166666Y-53266666D01*
X83866666Y-52800000D02*
X83866666Y-53166666D01*
X83900000Y-53233333D01*
X83966666Y-53266666D01*
X84066666Y-53266666D01*
X84133333Y-53233333D01*
X84166666Y-53200000D01*
X84400000Y-52800000D02*
X84666666Y-52800000D01*
X84500000Y-52566666D02*
X84500000Y-53166666D01*
X84533333Y-53233333D01*
X84600000Y-53266666D01*
X84666666Y-53266666D01*
X52047083Y-72870833D02*
X52147083Y-72904166D01*
X52313750Y-72904166D01*
X52380416Y-72870833D01*
X52413750Y-72837500D01*
X52447083Y-72770833D01*
X52447083Y-72704166D01*
X52413750Y-72637500D01*
X52380416Y-72604166D01*
X52313750Y-72570833D01*
X52180416Y-72537500D01*
X52113750Y-72504166D01*
X52080416Y-72470833D01*
X52047083Y-72404166D01*
X52047083Y-72337500D01*
X52080416Y-72270833D01*
X52113750Y-72237500D01*
X52180416Y-72204166D01*
X52347083Y-72204166D01*
X52447083Y-72237500D01*
X52747083Y-72904166D02*
X52747083Y-72204166D01*
X53147083Y-72904166D01*
X53147083Y-72204166D01*
X53413750Y-72204166D02*
X53880416Y-72204166D01*
X53580416Y-72904166D01*
X54447083Y-72204166D02*
X54313750Y-72204166D01*
X54247083Y-72237500D01*
X54213750Y-72270833D01*
X54147083Y-72370833D01*
X54113750Y-72504166D01*
X54113750Y-72770833D01*
X54147083Y-72837500D01*
X54180416Y-72870833D01*
X54247083Y-72904166D01*
X54380416Y-72904166D01*
X54447083Y-72870833D01*
X54480416Y-72837500D01*
X54513750Y-72770833D01*
X54513750Y-72604166D01*
X54480416Y-72537500D01*
X54447083Y-72504166D01*
X54380416Y-72470833D01*
X54247083Y-72470833D01*
X54180416Y-72504166D01*
X54147083Y-72537500D01*
X54113750Y-72604166D01*
X55113750Y-72437500D02*
X55113750Y-72904166D01*
X54947083Y-72170833D02*
X54780416Y-72670833D01*
X55213750Y-72670833D01*
X55580416Y-72504166D02*
X55513750Y-72470833D01*
X55480416Y-72437500D01*
X55447083Y-72370833D01*
X55447083Y-72337500D01*
X55480416Y-72270833D01*
X55513750Y-72237500D01*
X55580416Y-72204166D01*
X55713750Y-72204166D01*
X55780416Y-72237500D01*
X55813750Y-72270833D01*
X55847083Y-72337500D01*
X55847083Y-72370833D01*
X55813750Y-72437500D01*
X55780416Y-72470833D01*
X55713750Y-72504166D01*
X55580416Y-72504166D01*
X55513750Y-72537500D01*
X55480416Y-72570833D01*
X55447083Y-72637500D01*
X55447083Y-72770833D01*
X55480416Y-72837500D01*
X55513750Y-72870833D01*
X55580416Y-72904166D01*
X55713750Y-72904166D01*
X55780416Y-72870833D01*
X55813750Y-72837500D01*
X55847083Y-72770833D01*
X55847083Y-72637500D01*
X55813750Y-72570833D01*
X55780416Y-72537500D01*
X55713750Y-72504166D01*
X56180416Y-72904166D02*
X56313750Y-72904166D01*
X56380416Y-72870833D01*
X56413750Y-72837500D01*
X56480416Y-72737500D01*
X56513750Y-72604166D01*
X56513750Y-72337500D01*
X56480416Y-72270833D01*
X56447083Y-72237500D01*
X56380416Y-72204166D01*
X56247083Y-72204166D01*
X56180416Y-72237500D01*
X56147083Y-72270833D01*
X56113750Y-72337500D01*
X56113750Y-72504166D01*
X56147083Y-72570833D01*
X56180416Y-72604166D01*
X56247083Y-72637500D01*
X56380416Y-72637500D01*
X56447083Y-72604166D01*
X56480416Y-72570833D01*
X56513750Y-72504166D01*
X57313750Y-72704166D02*
X57647083Y-72704166D01*
X57247083Y-72904166D02*
X57480416Y-72204166D01*
X57713750Y-72904166D01*
X57947083Y-72904166D02*
X57947083Y-72437500D01*
X57947083Y-72570833D02*
X57980416Y-72504166D01*
X58013750Y-72470833D01*
X58080416Y-72437500D01*
X58147083Y-72437500D01*
X58680416Y-72904166D02*
X58680416Y-72204166D01*
X58680416Y-72870833D02*
X58613750Y-72904166D01*
X58480416Y-72904166D01*
X58413750Y-72870833D01*
X58380416Y-72837500D01*
X58347083Y-72770833D01*
X58347083Y-72570833D01*
X58380416Y-72504166D01*
X58413750Y-72470833D01*
X58480416Y-72437500D01*
X58613750Y-72437500D01*
X58680416Y-72470833D01*
X59313750Y-72437500D02*
X59313750Y-72904166D01*
X59013750Y-72437500D02*
X59013750Y-72804166D01*
X59047083Y-72870833D01*
X59113750Y-72904166D01*
X59213750Y-72904166D01*
X59280416Y-72870833D01*
X59313750Y-72837500D01*
X59647083Y-72904166D02*
X59647083Y-72437500D01*
X59647083Y-72204166D02*
X59613750Y-72237500D01*
X59647083Y-72270833D01*
X59680416Y-72237500D01*
X59647083Y-72204166D01*
X59647083Y-72270833D01*
X59980416Y-72437500D02*
X59980416Y-72904166D01*
X59980416Y-72504166D02*
X60013750Y-72470833D01*
X60080416Y-72437500D01*
X60180416Y-72437500D01*
X60247083Y-72470833D01*
X60280416Y-72537500D01*
X60280416Y-72904166D01*
X60713750Y-72904166D02*
X60647083Y-72870833D01*
X60613750Y-72837500D01*
X60580416Y-72770833D01*
X60580416Y-72570833D01*
X60613750Y-72504166D01*
X60647083Y-72470833D01*
X60713750Y-72437500D01*
X60813750Y-72437500D01*
X60880416Y-72470833D01*
X60913750Y-72504166D01*
X60947083Y-72570833D01*
X60947083Y-72770833D01*
X60913750Y-72837500D01*
X60880416Y-72870833D01*
X60813750Y-72904166D01*
X60713750Y-72904166D01*
X61780416Y-72904166D02*
X61780416Y-72437500D01*
X61780416Y-72570833D02*
X61813750Y-72504166D01*
X61847083Y-72470833D01*
X61913750Y-72437500D01*
X61980416Y-72437500D01*
X62480416Y-72870833D02*
X62413750Y-72904166D01*
X62280416Y-72904166D01*
X62213750Y-72870833D01*
X62180416Y-72804166D01*
X62180416Y-72537500D01*
X62213750Y-72470833D01*
X62280416Y-72437500D01*
X62413750Y-72437500D01*
X62480416Y-72470833D01*
X62513750Y-72537500D01*
X62513750Y-72604166D01*
X62180416Y-72670833D01*
X62713750Y-72437500D02*
X62980416Y-72437500D01*
X62813750Y-72204166D02*
X62813750Y-72804166D01*
X62847083Y-72870833D01*
X62913750Y-72904166D01*
X62980416Y-72904166D01*
X63213750Y-72904166D02*
X63213750Y-72437500D01*
X63213750Y-72570833D02*
X63247083Y-72504166D01*
X63280416Y-72470833D01*
X63347083Y-72437500D01*
X63413750Y-72437500D01*
X63747083Y-72904166D02*
X63680416Y-72870833D01*
X63647083Y-72837500D01*
X63613750Y-72770833D01*
X63613750Y-72570833D01*
X63647083Y-72504166D01*
X63680416Y-72470833D01*
X63747083Y-72437500D01*
X63847083Y-72437500D01*
X63913750Y-72470833D01*
X63947083Y-72504166D01*
X63980416Y-72570833D01*
X63980416Y-72770833D01*
X63947083Y-72837500D01*
X63913750Y-72870833D01*
X63847083Y-72904166D01*
X63747083Y-72904166D01*
X64780416Y-72870833D02*
X64847083Y-72904166D01*
X64980416Y-72904166D01*
X65047083Y-72870833D01*
X65080416Y-72804166D01*
X65080416Y-72770833D01*
X65047083Y-72704166D01*
X64980416Y-72670833D01*
X64880416Y-72670833D01*
X64813750Y-72637500D01*
X64780416Y-72570833D01*
X64780416Y-72537500D01*
X64813750Y-72470833D01*
X64880416Y-72437500D01*
X64980416Y-72437500D01*
X65047083Y-72470833D01*
X65313750Y-72437500D02*
X65480416Y-72904166D01*
X65647083Y-72437500D02*
X65480416Y-72904166D01*
X65413750Y-73070833D01*
X65380416Y-73104166D01*
X65313750Y-73137500D01*
X65913750Y-72437500D02*
X65913750Y-72904166D01*
X65913750Y-72504166D02*
X65947083Y-72470833D01*
X66013750Y-72437500D01*
X66113750Y-72437500D01*
X66180416Y-72470833D01*
X66213750Y-72537500D01*
X66213750Y-72904166D01*
X66447083Y-72437500D02*
X66713750Y-72437500D01*
X66547083Y-72204166D02*
X66547083Y-72804166D01*
X66580416Y-72870833D01*
X66647083Y-72904166D01*
X66713750Y-72904166D01*
X66947083Y-72904166D02*
X66947083Y-72204166D01*
X67247083Y-72904166D02*
X67247083Y-72537500D01*
X67213750Y-72470833D01*
X67147083Y-72437500D01*
X67047083Y-72437500D01*
X66980416Y-72470833D01*
X66947083Y-72504166D01*
X68047083Y-72437500D02*
X68213750Y-72904166D01*
X68380416Y-72437500D01*
X68613750Y-72270833D02*
X68647083Y-72237500D01*
X68713750Y-72204166D01*
X68880416Y-72204166D01*
X68947083Y-72237500D01*
X68980416Y-72270833D01*
X69013750Y-72337500D01*
X69013750Y-72404166D01*
X68980416Y-72504166D01*
X68580416Y-72904166D01*
X69013750Y-72904166D01*
X69447083Y-72204166D02*
X69513750Y-72204166D01*
X69580416Y-72237500D01*
X69613750Y-72270833D01*
X69647083Y-72337500D01*
X69680416Y-72470833D01*
X69680416Y-72637500D01*
X69647083Y-72770833D01*
X69613750Y-72837500D01*
X69580416Y-72870833D01*
X69513750Y-72904166D01*
X69447083Y-72904166D01*
X69380416Y-72870833D01*
X69347083Y-72837500D01*
X69313750Y-72770833D01*
X69280416Y-72637500D01*
X69280416Y-72470833D01*
X69313750Y-72337500D01*
X69347083Y-72270833D01*
X69380416Y-72237500D01*
X69447083Y-72204166D01*
X70347083Y-72904166D02*
X69947083Y-72904166D01*
X70147083Y-72904166D02*
X70147083Y-72204166D01*
X70080416Y-72304166D01*
X70013750Y-72370833D01*
X69947083Y-72404166D01*
X70747083Y-72504166D02*
X70680416Y-72470833D01*
X70647083Y-72437500D01*
X70613750Y-72370833D01*
X70613750Y-72337500D01*
X70647083Y-72270833D01*
X70680416Y-72237500D01*
X70747083Y-72204166D01*
X70880416Y-72204166D01*
X70947083Y-72237500D01*
X70980416Y-72270833D01*
X71013750Y-72337500D01*
X71013750Y-72370833D01*
X70980416Y-72437500D01*
X70947083Y-72470833D01*
X70880416Y-72504166D01*
X70747083Y-72504166D01*
X70680416Y-72537500D01*
X70647083Y-72570833D01*
X70613750Y-72637500D01*
X70613750Y-72770833D01*
X70647083Y-72837500D01*
X70680416Y-72870833D01*
X70747083Y-72904166D01*
X70880416Y-72904166D01*
X70947083Y-72870833D01*
X70980416Y-72837500D01*
X71013750Y-72770833D01*
X71013750Y-72637500D01*
X70980416Y-72570833D01*
X70947083Y-72537500D01*
X70880416Y-72504166D01*
X71447083Y-72204166D02*
X71513750Y-72204166D01*
X71580416Y-72237500D01*
X71613750Y-72270833D01*
X71647083Y-72337500D01*
X71680416Y-72470833D01*
X71680416Y-72637500D01*
X71647083Y-72770833D01*
X71613750Y-72837500D01*
X71580416Y-72870833D01*
X71513750Y-72904166D01*
X71447083Y-72904166D01*
X71380416Y-72870833D01*
X71347083Y-72837500D01*
X71313750Y-72770833D01*
X71280416Y-72637500D01*
X71280416Y-72470833D01*
X71313750Y-72337500D01*
X71347083Y-72270833D01*
X71380416Y-72237500D01*
X71447083Y-72204166D01*
X72013750Y-72904166D02*
X72147083Y-72904166D01*
X72213750Y-72870833D01*
X72247083Y-72837500D01*
X72313750Y-72737500D01*
X72347083Y-72604166D01*
X72347083Y-72337500D01*
X72313750Y-72270833D01*
X72280416Y-72237500D01*
X72213750Y-72204166D01*
X72080416Y-72204166D01*
X72013750Y-72237500D01*
X71980416Y-72270833D01*
X71947083Y-72337500D01*
X71947083Y-72504166D01*
X71980416Y-72570833D01*
X72013750Y-72604166D01*
X72080416Y-72637500D01*
X72213750Y-72637500D01*
X72280416Y-72604166D01*
X72313750Y-72570833D01*
X72347083Y-72504166D01*
X72780416Y-72204166D02*
X72847083Y-72204166D01*
X72913750Y-72237500D01*
X72947083Y-72270833D01*
X72980416Y-72337500D01*
X73013750Y-72470833D01*
X73013750Y-72637500D01*
X72980416Y-72770833D01*
X72947083Y-72837500D01*
X72913750Y-72870833D01*
X72847083Y-72904166D01*
X72780416Y-72904166D01*
X72713750Y-72870833D01*
X72680416Y-72837500D01*
X72647083Y-72770833D01*
X72613750Y-72637500D01*
X72613750Y-72470833D01*
X72647083Y-72337500D01*
X72680416Y-72270833D01*
X72713750Y-72237500D01*
X72780416Y-72204166D01*
X73647083Y-72204166D02*
X73313750Y-72204166D01*
X73280416Y-72537500D01*
X73313750Y-72504166D01*
X73380416Y-72470833D01*
X73547083Y-72470833D01*
X73613750Y-72504166D01*
X73647083Y-72537500D01*
X73680416Y-72604166D01*
X73680416Y-72770833D01*
X73647083Y-72837500D01*
X73613750Y-72870833D01*
X73547083Y-72904166D01*
X73380416Y-72904166D01*
X73313750Y-72870833D01*
X73280416Y-72837500D01*
X74647083Y-72204166D02*
X74713750Y-72204166D01*
X74780416Y-72237500D01*
X74813750Y-72270833D01*
X74847083Y-72337500D01*
X74880416Y-72470833D01*
X74880416Y-72637500D01*
X74847083Y-72770833D01*
X74813750Y-72837500D01*
X74780416Y-72870833D01*
X74713750Y-72904166D01*
X74647083Y-72904166D01*
X74580416Y-72870833D01*
X74547083Y-72837500D01*
X74513750Y-72770833D01*
X74480416Y-72637500D01*
X74480416Y-72470833D01*
X74513750Y-72337500D01*
X74547083Y-72270833D01*
X74580416Y-72237500D01*
X74647083Y-72204166D01*
X75180416Y-72837500D02*
X75213750Y-72870833D01*
X75180416Y-72904166D01*
X75147083Y-72870833D01*
X75180416Y-72837500D01*
X75180416Y-72904166D01*
X75447083Y-72204166D02*
X75913750Y-72204166D01*
X75613750Y-72904166D01*
X76180416Y-72837500D02*
X76213750Y-72870833D01*
X76180416Y-72904166D01*
X76147083Y-72870833D01*
X76180416Y-72837500D01*
X76180416Y-72904166D01*
X76647083Y-72204166D02*
X76713750Y-72204166D01*
X76780416Y-72237500D01*
X76813750Y-72270833D01*
X76847083Y-72337500D01*
X76880416Y-72470833D01*
X76880416Y-72637500D01*
X76847083Y-72770833D01*
X76813750Y-72837500D01*
X76780416Y-72870833D01*
X76713750Y-72904166D01*
X76647083Y-72904166D01*
X76580416Y-72870833D01*
X76547083Y-72837500D01*
X76513750Y-72770833D01*
X76480416Y-72637500D01*
X76480416Y-72470833D01*
X76513750Y-72337500D01*
X76547083Y-72270833D01*
X76580416Y-72237500D01*
X76647083Y-72204166D01*
X77480416Y-72204166D02*
X77347083Y-72204166D01*
X77280416Y-72237500D01*
X77247083Y-72270833D01*
X77180416Y-72370833D01*
X77147083Y-72504166D01*
X77147083Y-72770833D01*
X77180416Y-72837500D01*
X77213750Y-72870833D01*
X77280416Y-72904166D01*
X77413750Y-72904166D01*
X77480416Y-72870833D01*
X77513750Y-72837500D01*
X77547083Y-72770833D01*
X77547083Y-72604166D01*
X77513750Y-72537500D01*
X77480416Y-72504166D01*
X77413750Y-72470833D01*
X77280416Y-72470833D01*
X77213750Y-72504166D01*
X77180416Y-72537500D01*
X77147083Y-72604166D01*
X52213750Y-73429166D02*
X52347083Y-73429166D01*
X52413750Y-73462500D01*
X52480416Y-73529166D01*
X52513750Y-73662500D01*
X52513750Y-73895833D01*
X52480416Y-74029166D01*
X52413750Y-74095833D01*
X52347083Y-74129166D01*
X52213750Y-74129166D01*
X52147083Y-74095833D01*
X52080416Y-74029166D01*
X52047083Y-73895833D01*
X52047083Y-73662500D01*
X52080416Y-73529166D01*
X52147083Y-73462500D01*
X52213750Y-73429166D01*
X52813750Y-73662500D02*
X52813750Y-74129166D01*
X52813750Y-73729166D02*
X52847083Y-73695833D01*
X52913750Y-73662500D01*
X53013750Y-73662500D01*
X53080416Y-73695833D01*
X53113750Y-73762500D01*
X53113750Y-74129166D01*
X53347083Y-73662500D02*
X53613750Y-73662500D01*
X53447083Y-73429166D02*
X53447083Y-74029166D01*
X53480416Y-74095833D01*
X53547083Y-74129166D01*
X53613750Y-74129166D01*
X53780416Y-73662500D02*
X53913750Y-74129166D01*
X54047083Y-73795833D01*
X54180416Y-74129166D01*
X54313750Y-73662500D01*
X54847083Y-74095833D02*
X54780416Y-74129166D01*
X54647083Y-74129166D01*
X54580416Y-74095833D01*
X54547083Y-74029166D01*
X54547083Y-73762500D01*
X54580416Y-73695833D01*
X54647083Y-73662500D01*
X54780416Y-73662500D01*
X54847083Y-73695833D01*
X54880416Y-73762500D01*
X54880416Y-73829166D01*
X54547083Y-73895833D01*
X55180416Y-74129166D02*
X55180416Y-73662500D01*
X55180416Y-73795833D02*
X55213750Y-73729166D01*
X55247083Y-73695833D01*
X55313750Y-73662500D01*
X55380416Y-73662500D01*
X55613750Y-73662500D02*
X55613750Y-74362500D01*
X55613750Y-73695833D02*
X55680416Y-73662500D01*
X55813750Y-73662500D01*
X55880416Y-73695833D01*
X55913750Y-73729166D01*
X55947083Y-73795833D01*
X55947083Y-73995833D01*
X55913750Y-74062500D01*
X55880416Y-74095833D01*
X55813750Y-74129166D01*
X55680416Y-74129166D01*
X55613750Y-74095833D01*
X56247083Y-74062500D02*
X56280416Y-74095833D01*
X56247083Y-74129166D01*
X56213750Y-74095833D01*
X56247083Y-74062500D01*
X56247083Y-74129166D01*
X56247083Y-73695833D02*
X56280416Y-73729166D01*
X56247083Y-73762500D01*
X56213750Y-73729166D01*
X56247083Y-73695833D01*
X56247083Y-73762500D01*
X57080416Y-73495833D02*
X57113750Y-73462500D01*
X57180416Y-73429166D01*
X57347083Y-73429166D01*
X57413750Y-73462500D01*
X57447083Y-73495833D01*
X57480416Y-73562500D01*
X57480416Y-73629166D01*
X57447083Y-73729166D01*
X57047083Y-74129166D01*
X57480416Y-74129166D01*
X57913750Y-73429166D02*
X57980416Y-73429166D01*
X58047083Y-73462500D01*
X58080416Y-73495833D01*
X58113750Y-73562500D01*
X58147083Y-73695833D01*
X58147083Y-73862500D01*
X58113750Y-73995833D01*
X58080416Y-74062500D01*
X58047083Y-74095833D01*
X57980416Y-74129166D01*
X57913750Y-74129166D01*
X57847083Y-74095833D01*
X57813750Y-74062500D01*
X57780416Y-73995833D01*
X57747083Y-73862500D01*
X57747083Y-73695833D01*
X57780416Y-73562500D01*
X57813750Y-73495833D01*
X57847083Y-73462500D01*
X57913750Y-73429166D01*
X58813750Y-74129166D02*
X58413750Y-74129166D01*
X58613750Y-74129166D02*
X58613750Y-73429166D01*
X58547083Y-73529166D01*
X58480416Y-73595833D01*
X58413750Y-73629166D01*
X59213750Y-73729166D02*
X59147083Y-73695833D01*
X59113750Y-73662500D01*
X59080416Y-73595833D01*
X59080416Y-73562500D01*
X59113750Y-73495833D01*
X59147083Y-73462500D01*
X59213750Y-73429166D01*
X59347083Y-73429166D01*
X59413750Y-73462500D01*
X59447083Y-73495833D01*
X59480416Y-73562500D01*
X59480416Y-73595833D01*
X59447083Y-73662500D01*
X59413750Y-73695833D01*
X59347083Y-73729166D01*
X59213750Y-73729166D01*
X59147083Y-73762500D01*
X59113750Y-73795833D01*
X59080416Y-73862500D01*
X59080416Y-73995833D01*
X59113750Y-74062500D01*
X59147083Y-74095833D01*
X59213750Y-74129166D01*
X59347083Y-74129166D01*
X59413750Y-74095833D01*
X59447083Y-74062500D01*
X59480416Y-73995833D01*
X59480416Y-73862500D01*
X59447083Y-73795833D01*
X59413750Y-73762500D01*
X59347083Y-73729166D01*
X60313750Y-74129166D02*
X60313750Y-73429166D01*
X60547083Y-73929166D01*
X60780416Y-73429166D01*
X60780416Y-74129166D01*
X61113750Y-74129166D02*
X61113750Y-73662500D01*
X61113750Y-73429166D02*
X61080416Y-73462500D01*
X61113750Y-73495833D01*
X61147083Y-73462500D01*
X61113750Y-73429166D01*
X61113750Y-73495833D01*
X61747083Y-74095833D02*
X61680416Y-74129166D01*
X61547083Y-74129166D01*
X61480416Y-74095833D01*
X61447083Y-74062500D01*
X61413750Y-73995833D01*
X61413750Y-73795833D01*
X61447083Y-73729166D01*
X61480416Y-73695833D01*
X61547083Y-73662500D01*
X61680416Y-73662500D01*
X61747083Y-73695833D01*
X62047083Y-74129166D02*
X62047083Y-73429166D01*
X62347083Y-74129166D02*
X62347083Y-73762500D01*
X62313750Y-73695833D01*
X62247083Y-73662500D01*
X62147083Y-73662500D01*
X62080416Y-73695833D01*
X62047083Y-73729166D01*
X62680416Y-74129166D02*
X62680416Y-73662500D01*
X62680416Y-73429166D02*
X62647083Y-73462500D01*
X62680416Y-73495833D01*
X62713750Y-73462500D01*
X62680416Y-73429166D01*
X62680416Y-73495833D01*
X63280416Y-74095833D02*
X63213750Y-74129166D01*
X63080416Y-74129166D01*
X63013750Y-74095833D01*
X62980416Y-74029166D01*
X62980416Y-73762500D01*
X63013750Y-73695833D01*
X63080416Y-73662500D01*
X63213750Y-73662500D01*
X63280416Y-73695833D01*
X63313750Y-73762500D01*
X63313750Y-73829166D01*
X62980416Y-73895833D01*
X63713750Y-74129166D02*
X63647083Y-74095833D01*
X63613750Y-74029166D01*
X63613750Y-73429166D01*
X64513750Y-73762500D02*
X64747083Y-73762500D01*
X64847083Y-74129166D02*
X64513750Y-74129166D01*
X64513750Y-73429166D01*
X64847083Y-73429166D01*
X65147083Y-74129166D02*
X65147083Y-73662500D01*
X65147083Y-73795833D02*
X65180416Y-73729166D01*
X65213750Y-73695833D01*
X65280416Y-73662500D01*
X65347083Y-73662500D01*
X65880416Y-74129166D02*
X65880416Y-73762500D01*
X65847083Y-73695833D01*
X65780416Y-73662500D01*
X65647083Y-73662500D01*
X65580416Y-73695833D01*
X65880416Y-74095833D02*
X65813750Y-74129166D01*
X65647083Y-74129166D01*
X65580416Y-74095833D01*
X65547083Y-74029166D01*
X65547083Y-73962500D01*
X65580416Y-73895833D01*
X65647083Y-73862500D01*
X65813750Y-73862500D01*
X65880416Y-73829166D01*
X66180416Y-74095833D02*
X66247083Y-74129166D01*
X66380416Y-74129166D01*
X66447083Y-74095833D01*
X66480416Y-74029166D01*
X66480416Y-73995833D01*
X66447083Y-73929166D01*
X66380416Y-73895833D01*
X66280416Y-73895833D01*
X66213750Y-73862500D01*
X66180416Y-73795833D01*
X66180416Y-73762500D01*
X66213750Y-73695833D01*
X66280416Y-73662500D01*
X66380416Y-73662500D01*
X66447083Y-73695833D01*
X66780416Y-74129166D02*
X66780416Y-73662500D01*
X66780416Y-73729166D02*
X66813750Y-73695833D01*
X66880416Y-73662500D01*
X66980416Y-73662500D01*
X67047083Y-73695833D01*
X67080416Y-73762500D01*
X67080416Y-74129166D01*
X67080416Y-73762500D02*
X67113750Y-73695833D01*
X67180416Y-73662500D01*
X67280416Y-73662500D01*
X67347083Y-73695833D01*
X67380416Y-73762500D01*
X67380416Y-74129166D01*
X68013750Y-73662500D02*
X68013750Y-74129166D01*
X67713750Y-73662500D02*
X67713750Y-74029166D01*
X67747083Y-74095833D01*
X67813750Y-74129166D01*
X67913750Y-74129166D01*
X67980416Y-74095833D01*
X68013750Y-74062500D01*
X68313750Y-74095833D02*
X68380416Y-74129166D01*
X68513750Y-74129166D01*
X68580416Y-74095833D01*
X68613750Y-74029166D01*
X68613750Y-73995833D01*
X68580416Y-73929166D01*
X68513750Y-73895833D01*
X68413750Y-73895833D01*
X68347083Y-73862500D01*
X68313750Y-73795833D01*
X68313750Y-73762500D01*
X68347083Y-73695833D01*
X68413750Y-73662500D01*
X68513750Y-73662500D01*
X68580416Y-73695833D01*
X68947083Y-74095833D02*
X68947083Y-74129166D01*
X68913750Y-74195833D01*
X68880416Y-74229166D01*
X69780416Y-74129166D02*
X69780416Y-73429166D01*
X70080416Y-74129166D02*
X70080416Y-73762500D01*
X70047083Y-73695833D01*
X69980416Y-73662500D01*
X69880416Y-73662500D01*
X69813750Y-73695833D01*
X69780416Y-73729166D01*
X70713750Y-73662500D02*
X70713750Y-74129166D01*
X70413750Y-73662500D02*
X70413750Y-74029166D01*
X70447083Y-74095833D01*
X70513750Y-74129166D01*
X70613750Y-74129166D01*
X70680416Y-74095833D01*
X70713750Y-74062500D01*
X71147083Y-74129166D02*
X71080416Y-74095833D01*
X71047083Y-74029166D01*
X71047083Y-73429166D01*
X71713750Y-74129166D02*
X71713750Y-73429166D01*
X71713750Y-74095833D02*
X71647083Y-74129166D01*
X71513750Y-74129166D01*
X71447083Y-74095833D01*
X71413750Y-74062500D01*
X71380416Y-73995833D01*
X71380416Y-73795833D01*
X71413750Y-73729166D01*
X71447083Y-73695833D01*
X71513750Y-73662500D01*
X71647083Y-73662500D01*
X71713750Y-73695833D01*
X72313750Y-74095833D02*
X72247083Y-74129166D01*
X72113750Y-74129166D01*
X72047083Y-74095833D01*
X72013750Y-74029166D01*
X72013750Y-73762500D01*
X72047083Y-73695833D01*
X72113750Y-73662500D01*
X72247083Y-73662500D01*
X72313750Y-73695833D01*
X72347083Y-73762500D01*
X72347083Y-73829166D01*
X72013750Y-73895833D01*
X73480416Y-74129166D02*
X73480416Y-73762500D01*
X73447083Y-73695833D01*
X73380416Y-73662500D01*
X73247083Y-73662500D01*
X73180416Y-73695833D01*
X73480416Y-74095833D02*
X73413750Y-74129166D01*
X73247083Y-74129166D01*
X73180416Y-74095833D01*
X73147083Y-74029166D01*
X73147083Y-73962500D01*
X73180416Y-73895833D01*
X73247083Y-73862500D01*
X73413750Y-73862500D01*
X73480416Y-73829166D01*
X74113750Y-74129166D02*
X74113750Y-73762500D01*
X74080416Y-73695833D01*
X74013750Y-73662500D01*
X73880416Y-73662500D01*
X73813750Y-73695833D01*
X74113750Y-74095833D02*
X74047083Y-74129166D01*
X73880416Y-74129166D01*
X73813750Y-74095833D01*
X73780416Y-74029166D01*
X73780416Y-73962500D01*
X73813750Y-73895833D01*
X73880416Y-73862500D01*
X74047083Y-73862500D01*
X74113750Y-73829166D01*
X74447083Y-73662500D02*
X74447083Y-74129166D01*
X74447083Y-73729166D02*
X74480416Y-73695833D01*
X74547083Y-73662500D01*
X74647083Y-73662500D01*
X74713750Y-73695833D01*
X74747083Y-73762500D01*
X74747083Y-74129166D01*
X75613750Y-74129166D02*
X75613750Y-73429166D01*
X75913750Y-74129166D02*
X75913750Y-73762500D01*
X75880416Y-73695833D01*
X75813750Y-73662500D01*
X75713750Y-73662500D01*
X75647083Y-73695833D01*
X75613750Y-73729166D01*
X76147083Y-73662500D02*
X76413750Y-73662500D01*
X76247083Y-73429166D02*
X76247083Y-74029166D01*
X76280416Y-74095833D01*
X76347083Y-74129166D01*
X76413750Y-74129166D01*
X76547083Y-73662500D02*
X76813750Y-73662500D01*
X76647083Y-73429166D02*
X76647083Y-74029166D01*
X76680416Y-74095833D01*
X76747083Y-74129166D01*
X76813750Y-74129166D01*
X77047083Y-73662500D02*
X77047083Y-74362500D01*
X77047083Y-73695833D02*
X77113750Y-73662500D01*
X77247083Y-73662500D01*
X77313750Y-73695833D01*
X77347083Y-73729166D01*
X77380416Y-73795833D01*
X77380416Y-73995833D01*
X77347083Y-74062500D01*
X77313750Y-74095833D01*
X77247083Y-74129166D01*
X77113750Y-74129166D01*
X77047083Y-74095833D01*
X77680416Y-74062500D02*
X77713750Y-74095833D01*
X77680416Y-74129166D01*
X77647083Y-74095833D01*
X77680416Y-74062500D01*
X77680416Y-74129166D01*
X77680416Y-73695833D02*
X77713750Y-73729166D01*
X77680416Y-73762500D01*
X77647083Y-73729166D01*
X77680416Y-73695833D01*
X77680416Y-73762500D01*
X78513750Y-73395833D02*
X77913750Y-74295833D01*
X79247083Y-73395833D02*
X78647083Y-74295833D01*
X79780416Y-74129166D02*
X79780416Y-73762500D01*
X79747083Y-73695833D01*
X79680416Y-73662500D01*
X79547083Y-73662500D01*
X79480416Y-73695833D01*
X79780416Y-74095833D02*
X79713749Y-74129166D01*
X79547083Y-74129166D01*
X79480416Y-74095833D01*
X79447083Y-74029166D01*
X79447083Y-73962500D01*
X79480416Y-73895833D01*
X79547083Y-73862500D01*
X79713749Y-73862500D01*
X79780416Y-73829166D01*
X80013749Y-73662500D02*
X80280416Y-73662500D01*
X80113749Y-74129166D02*
X80113749Y-73529166D01*
X80147083Y-73462500D01*
X80213749Y-73429166D01*
X80280416Y-73429166D01*
X80513749Y-74129166D02*
X80513749Y-73662500D01*
X80513749Y-73795833D02*
X80547083Y-73729166D01*
X80580416Y-73695833D01*
X80647083Y-73662500D01*
X80713749Y-73662500D01*
X80947083Y-74129166D02*
X80947083Y-73662500D01*
X80947083Y-73429166D02*
X80913749Y-73462500D01*
X80947083Y-73495833D01*
X80980416Y-73462500D01*
X80947083Y-73429166D01*
X80947083Y-73495833D01*
X81180416Y-73662500D02*
X81447083Y-73662500D01*
X81280416Y-74129166D02*
X81280416Y-73529166D01*
X81313749Y-73462500D01*
X81380416Y-73429166D01*
X81447083Y-73429166D01*
X81780416Y-74129166D02*
X81713749Y-74095833D01*
X81680416Y-74062500D01*
X81647083Y-73995833D01*
X81647083Y-73795833D01*
X81680416Y-73729166D01*
X81713749Y-73695833D01*
X81780416Y-73662500D01*
X81880416Y-73662500D01*
X81947083Y-73695833D01*
X81980416Y-73729166D01*
X82013749Y-73795833D01*
X82013749Y-73995833D01*
X81980416Y-74062500D01*
X81947083Y-74095833D01*
X81880416Y-74129166D01*
X81780416Y-74129166D01*
X82313749Y-74129166D02*
X82313749Y-73662500D01*
X82313749Y-73795833D02*
X82347083Y-73729166D01*
X82380416Y-73695833D01*
X82447083Y-73662500D01*
X82513749Y-73662500D01*
X83047083Y-73662500D02*
X83047083Y-74129166D01*
X82747083Y-73662500D02*
X82747083Y-74029166D01*
X82780416Y-74095833D01*
X82847083Y-74129166D01*
X82947083Y-74129166D01*
X83013749Y-74095833D01*
X83047083Y-74062500D01*
X83380416Y-74129166D02*
X83380416Y-73662500D01*
X83380416Y-73729166D02*
X83413749Y-73695833D01*
X83480416Y-73662500D01*
X83580416Y-73662500D01*
X83647083Y-73695833D01*
X83680416Y-73762500D01*
X83680416Y-74129166D01*
X83680416Y-73762500D02*
X83713749Y-73695833D01*
X83780416Y-73662500D01*
X83880416Y-73662500D01*
X83947083Y-73695833D01*
X83980416Y-73762500D01*
X83980416Y-74129166D01*
X84313749Y-74062500D02*
X84347083Y-74095833D01*
X84313749Y-74129166D01*
X84280416Y-74095833D01*
X84313749Y-74062500D01*
X84313749Y-74129166D01*
X84947083Y-74095833D02*
X84880416Y-74129166D01*
X84747083Y-74129166D01*
X84680416Y-74095833D01*
X84647083Y-74062500D01*
X84613749Y-73995833D01*
X84613749Y-73795833D01*
X84647083Y-73729166D01*
X84680416Y-73695833D01*
X84747083Y-73662500D01*
X84880416Y-73662500D01*
X84947083Y-73695833D01*
X85347083Y-74129166D02*
X85280416Y-74095833D01*
X85247083Y-74062500D01*
X85213749Y-73995833D01*
X85213749Y-73795833D01*
X85247083Y-73729166D01*
X85280416Y-73695833D01*
X85347083Y-73662500D01*
X85447083Y-73662500D01*
X85513749Y-73695833D01*
X85547083Y-73729166D01*
X85580416Y-73795833D01*
X85580416Y-73995833D01*
X85547083Y-74062500D01*
X85513749Y-74095833D01*
X85447083Y-74129166D01*
X85347083Y-74129166D01*
X85880416Y-74062500D02*
X85913749Y-74095833D01*
X85880416Y-74129166D01*
X85847083Y-74095833D01*
X85880416Y-74062500D01*
X85880416Y-74129166D01*
X86147083Y-73662500D02*
X86513749Y-73662500D01*
X86147083Y-74129166D01*
X86513749Y-74129166D01*
X87080416Y-74129166D02*
X87080416Y-73762500D01*
X87047083Y-73695833D01*
X86980416Y-73662500D01*
X86847083Y-73662500D01*
X86780416Y-73695833D01*
X87080416Y-74095833D02*
X87013749Y-74129166D01*
X86847083Y-74129166D01*
X86780416Y-74095833D01*
X86747083Y-74029166D01*
X86747083Y-73962500D01*
X86780416Y-73895833D01*
X86847083Y-73862500D01*
X87013749Y-73862500D01*
X87080416Y-73829166D01*
X39749999Y-72416666D02*
X39749999Y-71716666D01*
X40016666Y-71716666D01*
X40083333Y-71750000D01*
X40116666Y-71783333D01*
X40149999Y-71850000D01*
X40149999Y-71950000D01*
X40116666Y-72016666D01*
X40083333Y-72050000D01*
X40016666Y-72083333D01*
X39749999Y-72083333D01*
X40649999Y-71716666D02*
X40649999Y-72216666D01*
X40616666Y-72316666D01*
X40549999Y-72383333D01*
X40449999Y-72416666D01*
X40383333Y-72416666D01*
X40916666Y-71716666D02*
X41349999Y-71716666D01*
X41116666Y-71983333D01*
X41216666Y-71983333D01*
X41283333Y-72016666D01*
X41316666Y-72050000D01*
X41349999Y-72116666D01*
X41349999Y-72283333D01*
X41316666Y-72350000D01*
X41283333Y-72383333D01*
X41216666Y-72416666D01*
X41016666Y-72416666D01*
X40949999Y-72383333D01*
X40916666Y-72350000D01*
X41783333Y-71716666D02*
X41849999Y-71716666D01*
X41916666Y-71750000D01*
X41949999Y-71783333D01*
X41983333Y-71850000D01*
X42016666Y-71983333D01*
X42016666Y-72150000D01*
X41983333Y-72283333D01*
X41949999Y-72350000D01*
X41916666Y-72383333D01*
X41849999Y-72416666D01*
X41783333Y-72416666D01*
X41716666Y-72383333D01*
X41683333Y-72350000D01*
X41649999Y-72283333D01*
X41616666Y-72150000D01*
X41616666Y-71983333D01*
X41649999Y-71850000D01*
X41683333Y-71783333D01*
X41716666Y-71750000D01*
X41783333Y-71716666D01*
X42249999Y-71716666D02*
X42716666Y-71716666D01*
X42416666Y-72416666D01*
X42816666Y-72483333D02*
X43349999Y-72483333D01*
X43816666Y-72416666D02*
X43816666Y-72050000D01*
X43783333Y-71983333D01*
X43716666Y-71950000D01*
X43583333Y-71950000D01*
X43516666Y-71983333D01*
X43816666Y-72383333D02*
X43749999Y-72416666D01*
X43583333Y-72416666D01*
X43516666Y-72383333D01*
X43483333Y-72316666D01*
X43483333Y-72250000D01*
X43516666Y-72183333D01*
X43583333Y-72150000D01*
X43749999Y-72150000D01*
X43816666Y-72116666D01*
X44449999Y-71950000D02*
X44449999Y-72416666D01*
X44149999Y-71950000D02*
X44149999Y-72316666D01*
X44183333Y-72383333D01*
X44249999Y-72416666D01*
X44349999Y-72416666D01*
X44416666Y-72383333D01*
X44449999Y-72350000D01*
X45083333Y-72416666D02*
X45083333Y-71716666D01*
X45083333Y-72383333D02*
X45016666Y-72416666D01*
X44883333Y-72416666D01*
X44816666Y-72383333D01*
X44783333Y-72350000D01*
X44749999Y-72283333D01*
X44749999Y-72083333D01*
X44783333Y-72016666D01*
X44816666Y-71983333D01*
X44883333Y-71950000D01*
X45016666Y-71950000D01*
X45083333Y-71983333D01*
X45416666Y-72416666D02*
X45416666Y-71950000D01*
X45416666Y-71716666D02*
X45383333Y-71750000D01*
X45416666Y-71783333D01*
X45449999Y-71750000D01*
X45416666Y-71716666D01*
X45416666Y-71783333D01*
X45849999Y-72416666D02*
X45783333Y-72383333D01*
X45749999Y-72350000D01*
X45716666Y-72283333D01*
X45716666Y-72083333D01*
X45749999Y-72016666D01*
X45783333Y-71983333D01*
X45849999Y-71950000D01*
X45949999Y-71950000D01*
X46016666Y-71983333D01*
X46049999Y-72016666D01*
X46083333Y-72083333D01*
X46083333Y-72283333D01*
X46049999Y-72350000D01*
X46016666Y-72383333D01*
X45949999Y-72416666D01*
X45849999Y-72416666D01*
X46216666Y-72483333D02*
X46749999Y-72483333D01*
X47216666Y-71950000D02*
X47216666Y-72416666D01*
X46916666Y-71950000D02*
X46916666Y-72316666D01*
X46949999Y-72383333D01*
X47016666Y-72416666D01*
X47116666Y-72416666D01*
X47183333Y-72383333D01*
X47216666Y-72350000D01*
X47549999Y-72416666D02*
X47549999Y-71950000D01*
X47549999Y-71716666D02*
X47516666Y-71750000D01*
X47549999Y-71783333D01*
X47583333Y-71750000D01*
X47549999Y-71716666D01*
X47549999Y-71783333D01*
X47783333Y-71950000D02*
X48049999Y-71950000D01*
X47883333Y-71716666D02*
X47883333Y-72316666D01*
X47916666Y-72383333D01*
X47983333Y-72416666D01*
X48049999Y-72416666D01*
X59783333Y-63916666D02*
X59783333Y-63450000D01*
X59783333Y-63216666D02*
X59750000Y-63250000D01*
X59783333Y-63283333D01*
X59816666Y-63250000D01*
X59783333Y-63216666D01*
X59783333Y-63283333D01*
X60116666Y-63450000D02*
X60116666Y-63916666D01*
X60116666Y-63516666D02*
X60150000Y-63483333D01*
X60216666Y-63450000D01*
X60316666Y-63450000D01*
X60383333Y-63483333D01*
X60416666Y-63550000D01*
X60416666Y-63916666D01*
X63233333Y-66266666D02*
X63166666Y-66233333D01*
X63133333Y-66200000D01*
X63100000Y-66133333D01*
X63100000Y-65933333D01*
X63133333Y-65866666D01*
X63166666Y-65833333D01*
X63233333Y-65800000D01*
X63333333Y-65800000D01*
X63400000Y-65833333D01*
X63433333Y-65866666D01*
X63466666Y-65933333D01*
X63466666Y-66133333D01*
X63433333Y-66200000D01*
X63400000Y-66233333D01*
X63333333Y-66266666D01*
X63233333Y-66266666D01*
X64066666Y-65800000D02*
X64066666Y-66266666D01*
X63766666Y-65800000D02*
X63766666Y-66166666D01*
X63800000Y-66233333D01*
X63866666Y-66266666D01*
X63966666Y-66266666D01*
X64033333Y-66233333D01*
X64066666Y-66200000D01*
X64300000Y-65800000D02*
X64566666Y-65800000D01*
X64400000Y-65566666D02*
X64400000Y-66166666D01*
X64433333Y-66233333D01*
X64500000Y-66266666D01*
X64566666Y-66266666D01*
X79250000Y-65733333D02*
X79216666Y-65800000D01*
X79216666Y-65900000D01*
X79250000Y-66000000D01*
X79316666Y-66066666D01*
X79383333Y-66100000D01*
X79516666Y-66133333D01*
X79616666Y-66133333D01*
X79750000Y-66100000D01*
X79816666Y-66066666D01*
X79883333Y-66000000D01*
X79916666Y-65900000D01*
X79916666Y-65833333D01*
X79883333Y-65733333D01*
X79850000Y-65700000D01*
X79616666Y-65700000D01*
X79616666Y-65833333D01*
X79916666Y-65400000D02*
X79216666Y-65400000D01*
X79916666Y-65000000D01*
X79216666Y-65000000D01*
X79916666Y-64666666D02*
X79216666Y-64666666D01*
X79216666Y-64500000D01*
X79250000Y-64400000D01*
X79316666Y-64333333D01*
X79383333Y-64300000D01*
X79516666Y-64266666D01*
X79616666Y-64266666D01*
X79750000Y-64300000D01*
X79816666Y-64333333D01*
X79883333Y-64400000D01*
X79916666Y-64500000D01*
X79916666Y-64666666D01*
X76600000Y-70266666D02*
X76266666Y-70266666D01*
X76266666Y-69566666D01*
X76833333Y-69900000D02*
X77066666Y-69900000D01*
X77166666Y-70266666D02*
X76833333Y-70266666D01*
X76833333Y-69566666D01*
X77166666Y-69566666D01*
X77466666Y-70266666D02*
X77466666Y-69566666D01*
X77633333Y-69566666D01*
X77733333Y-69600000D01*
X77800000Y-69666666D01*
X77833333Y-69733333D01*
X77866666Y-69866666D01*
X77866666Y-69966666D01*
X77833333Y-70100000D01*
X77800000Y-70166666D01*
X77733333Y-70233333D01*
X77633333Y-70266666D01*
X77466666Y-70266666D01*
X97083333Y-52500000D02*
X97050000Y-52533333D01*
X96950000Y-52566666D01*
X96883333Y-52566666D01*
X96783333Y-52533333D01*
X96716666Y-52466666D01*
X96683333Y-52400000D01*
X96650000Y-52266666D01*
X96650000Y-52166666D01*
X96683333Y-52033333D01*
X96716666Y-51966666D01*
X96783333Y-51900000D01*
X96883333Y-51866666D01*
X96950000Y-51866666D01*
X97050000Y-51900000D01*
X97083333Y-51933333D01*
X97383333Y-52566666D02*
X97383333Y-51866666D01*
X97650000Y-51866666D01*
X97716666Y-51900000D01*
X97750000Y-51933333D01*
X97783333Y-52000000D01*
X97783333Y-52100000D01*
X97750000Y-52166666D01*
X97716666Y-52200000D01*
X97650000Y-52233333D01*
X97383333Y-52233333D01*
X97916666Y-52633333D02*
X98450000Y-52633333D01*
X98583333Y-51933333D02*
X98616666Y-51900000D01*
X98683333Y-51866666D01*
X98850000Y-51866666D01*
X98916666Y-51900000D01*
X98950000Y-51933333D01*
X98983333Y-52000000D01*
X98983333Y-52066666D01*
X98950000Y-52166666D01*
X98550000Y-52566666D01*
X98983333Y-52566666D01*
X99250000Y-51933333D02*
X99283333Y-51900000D01*
X99350000Y-51866666D01*
X99516666Y-51866666D01*
X99583333Y-51900000D01*
X99616666Y-51933333D01*
X99650000Y-52000000D01*
X99650000Y-52066666D01*
X99616666Y-52166666D01*
X99216666Y-52566666D01*
X99650000Y-52566666D01*
X100083333Y-51866666D02*
X100150000Y-51866666D01*
X100216666Y-51900000D01*
X100250000Y-51933333D01*
X100283333Y-52000000D01*
X100316666Y-52133333D01*
X100316666Y-52300000D01*
X100283333Y-52433333D01*
X100250000Y-52500000D01*
X100216666Y-52533333D01*
X100150000Y-52566666D01*
X100083333Y-52566666D01*
X100016666Y-52533333D01*
X99983333Y-52500000D01*
X99950000Y-52433333D01*
X99916666Y-52300000D01*
X99916666Y-52133333D01*
X99950000Y-52000000D01*
X99983333Y-51933333D01*
X100016666Y-51900000D01*
X100083333Y-51866666D01*
X100916666Y-52100000D02*
X100916666Y-52566666D01*
X100616666Y-52100000D02*
X100616666Y-52466666D01*
X100650000Y-52533333D01*
X100716666Y-52566666D01*
X100816666Y-52566666D01*
X100883333Y-52533333D01*
X100916666Y-52500000D01*
X101483333Y-52200000D02*
X101250000Y-52200000D01*
X101250000Y-52566666D02*
X101250000Y-51866666D01*
X101583333Y-51866666D01*
X101200000Y-40583333D02*
X101233333Y-40616666D01*
X101266666Y-40716666D01*
X101266666Y-40783333D01*
X101233333Y-40883333D01*
X101166666Y-40950000D01*
X101100000Y-40983333D01*
X100966666Y-41016666D01*
X100866666Y-41016666D01*
X100733333Y-40983333D01*
X100666666Y-40950000D01*
X100600000Y-40883333D01*
X100566666Y-40783333D01*
X100566666Y-40716666D01*
X100600000Y-40616666D01*
X100633333Y-40583333D01*
X101266666Y-39950000D02*
X101266666Y-40283333D01*
X100566666Y-40283333D01*
X100566666Y-39583333D02*
X100566666Y-39450000D01*
X100600000Y-39383333D01*
X100666666Y-39316666D01*
X100800000Y-39283333D01*
X101033333Y-39283333D01*
X101166666Y-39316666D01*
X101233333Y-39383333D01*
X101266666Y-39450000D01*
X101266666Y-39583333D01*
X101233333Y-39650000D01*
X101166666Y-39716666D01*
X101033333Y-39750000D01*
X100800000Y-39750000D01*
X100666666Y-39716666D01*
X100600000Y-39650000D01*
X100566666Y-39583333D01*
X101200000Y-38583333D02*
X101233333Y-38616666D01*
X101266666Y-38716666D01*
X101266666Y-38783333D01*
X101233333Y-38883333D01*
X101166666Y-38950000D01*
X101100000Y-38983333D01*
X100966666Y-39016666D01*
X100866666Y-39016666D01*
X100733333Y-38983333D01*
X100666666Y-38950000D01*
X100600000Y-38883333D01*
X100566666Y-38783333D01*
X100566666Y-38716666D01*
X100600000Y-38616666D01*
X100633333Y-38583333D01*
X101266666Y-38283333D02*
X100566666Y-38283333D01*
X101266666Y-37883333D02*
X100866666Y-38183333D01*
X100566666Y-37883333D02*
X100966666Y-38283333D01*
X101333333Y-37750000D02*
X101333333Y-37216666D01*
X100566666Y-36916666D02*
X100566666Y-36783333D01*
X100600000Y-36716666D01*
X100666666Y-36650000D01*
X100800000Y-36616666D01*
X101033333Y-36616666D01*
X101166666Y-36650000D01*
X101233333Y-36716666D01*
X101266666Y-36783333D01*
X101266666Y-36916666D01*
X101233333Y-36983333D01*
X101166666Y-37050000D01*
X101033333Y-37083333D01*
X100800000Y-37083333D01*
X100666666Y-37050000D01*
X100600000Y-36983333D01*
X100566666Y-36916666D01*
X101233333Y-36350000D02*
X101266666Y-36283333D01*
X101266666Y-36150000D01*
X101233333Y-36083333D01*
X101166666Y-36050000D01*
X101133333Y-36050000D01*
X101066666Y-36083333D01*
X101033333Y-36150000D01*
X101033333Y-36250000D01*
X101000000Y-36316666D01*
X100933333Y-36350000D01*
X100900000Y-36350000D01*
X100833333Y-36316666D01*
X100800000Y-36250000D01*
X100800000Y-36150000D01*
X100833333Y-36083333D01*
X101233333Y-35450000D02*
X101266666Y-35516666D01*
X101266666Y-35650000D01*
X101233333Y-35716666D01*
X101200000Y-35750000D01*
X101133333Y-35783333D01*
X100933333Y-35783333D01*
X100866666Y-35750000D01*
X100833333Y-35716666D01*
X100800000Y-35650000D01*
X100800000Y-35516666D01*
X100833333Y-35450000D01*
X100800000Y-34850000D02*
X101266666Y-34850000D01*
X100533333Y-35016666D02*
X101033333Y-35183333D01*
X101033333Y-34750000D01*
X101266666Y-34483333D02*
X100566666Y-34483333D01*
X101066666Y-34250000D01*
X100566666Y-34016666D01*
X101266666Y-34016666D01*
X101266666Y-33683333D02*
X100566666Y-33683333D01*
X101266666Y-33383333D02*
X100900000Y-33383333D01*
X100833333Y-33416666D01*
X100800000Y-33483333D01*
X100800000Y-33583333D01*
X100833333Y-33650000D01*
X100866666Y-33683333D01*
X100800000Y-33116666D02*
X100800000Y-32750000D01*
X101266666Y-33116666D01*
X101266666Y-32750000D01*
X79100000Y-37033333D02*
X79066666Y-37100000D01*
X79066666Y-37200000D01*
X79100000Y-37300000D01*
X79166666Y-37366666D01*
X79233333Y-37400000D01*
X79366666Y-37433333D01*
X79466666Y-37433333D01*
X79600000Y-37400000D01*
X79666666Y-37366666D01*
X79733333Y-37300000D01*
X79766666Y-37200000D01*
X79766666Y-37133333D01*
X79733333Y-37033333D01*
X79700000Y-37000000D01*
X79466666Y-37000000D01*
X79466666Y-37133333D01*
X79733333Y-36433333D02*
X79766666Y-36500000D01*
X79766666Y-36633333D01*
X79733333Y-36700000D01*
X79666666Y-36733333D01*
X79400000Y-36733333D01*
X79333333Y-36700000D01*
X79300000Y-36633333D01*
X79300000Y-36500000D01*
X79333333Y-36433333D01*
X79400000Y-36400000D01*
X79466666Y-36400000D01*
X79533333Y-36733333D01*
X79766666Y-36000000D02*
X79733333Y-36066666D01*
X79666666Y-36100000D01*
X79066666Y-36100000D01*
X79300000Y-35433333D02*
X79766666Y-35433333D01*
X79300000Y-35733333D02*
X79666666Y-35733333D01*
X79733333Y-35700000D01*
X79766666Y-35633333D01*
X79766666Y-35533333D01*
X79733333Y-35466666D01*
X79700000Y-35433333D01*
X79766666Y-35100000D02*
X79300000Y-35100000D01*
X79066666Y-35100000D02*
X79100000Y-35133333D01*
X79133333Y-35100000D01*
X79100000Y-35066666D01*
X79066666Y-35100000D01*
X79133333Y-35100000D01*
X79766666Y-34466666D02*
X79066666Y-34466666D01*
X79733333Y-34466666D02*
X79766666Y-34533333D01*
X79766666Y-34666666D01*
X79733333Y-34733333D01*
X79700000Y-34766666D01*
X79633333Y-34800000D01*
X79433333Y-34800000D01*
X79366666Y-34766666D01*
X79333333Y-34733333D01*
X79300000Y-34666666D01*
X79300000Y-34533333D01*
X79333333Y-34466666D01*
X79833333Y-34300000D02*
X79833333Y-33766666D01*
X79766666Y-33300000D02*
X79066666Y-33300000D01*
X79733333Y-33300000D02*
X79766666Y-33366666D01*
X79766666Y-33500000D01*
X79733333Y-33566666D01*
X79700000Y-33600000D01*
X79633333Y-33633333D01*
X79433333Y-33633333D01*
X79366666Y-33600000D01*
X79333333Y-33566666D01*
X79300000Y-33500000D01*
X79300000Y-33366666D01*
X79333333Y-33300000D01*
X79733333Y-32700000D02*
X79766666Y-32766666D01*
X79766666Y-32900000D01*
X79733333Y-32966666D01*
X79666666Y-33000000D01*
X79400000Y-33000000D01*
X79333333Y-32966666D01*
X79300000Y-32900000D01*
X79300000Y-32766666D01*
X79333333Y-32700000D01*
X79400000Y-32666666D01*
X79466666Y-32666666D01*
X79533333Y-33000000D01*
X79766666Y-32366666D02*
X79066666Y-32366666D01*
X79333333Y-32366666D02*
X79300000Y-32300000D01*
X79300000Y-32166666D01*
X79333333Y-32100000D01*
X79366666Y-32066666D01*
X79433333Y-32033333D01*
X79633333Y-32033333D01*
X79700000Y-32066666D01*
X79733333Y-32100000D01*
X79766666Y-32166666D01*
X79766666Y-32300000D01*
X79733333Y-32366666D01*
X79300000Y-31433333D02*
X79766666Y-31433333D01*
X79300000Y-31733333D02*
X79666666Y-31733333D01*
X79733333Y-31700000D01*
X79766666Y-31633333D01*
X79766666Y-31533333D01*
X79733333Y-31466666D01*
X79700000Y-31433333D01*
X79300000Y-30800000D02*
X79866666Y-30800000D01*
X79933333Y-30833333D01*
X79966666Y-30866666D01*
X80000000Y-30933333D01*
X80000000Y-31033333D01*
X79966666Y-31100000D01*
X79733333Y-30800000D02*
X79766666Y-30866666D01*
X79766666Y-31000000D01*
X79733333Y-31066666D01*
X79700000Y-31100000D01*
X79633333Y-31133333D01*
X79433333Y-31133333D01*
X79366666Y-31100000D01*
X79333333Y-31066666D01*
X79300000Y-31000000D01*
X79300000Y-30866666D01*
X79333333Y-30800000D01*
X65616666Y-35766666D02*
X65616666Y-35433333D01*
X65816666Y-35833333D02*
X65116666Y-35600000D01*
X65816666Y-35366666D01*
X65816666Y-35133333D02*
X65350000Y-35133333D01*
X65483333Y-35133333D02*
X65416666Y-35100000D01*
X65383333Y-35066666D01*
X65350000Y-35000000D01*
X65350000Y-34933333D01*
X65816666Y-34400000D02*
X65116666Y-34400000D01*
X65783333Y-34400000D02*
X65816666Y-34466666D01*
X65816666Y-34600000D01*
X65783333Y-34666666D01*
X65750000Y-34700000D01*
X65683333Y-34733333D01*
X65483333Y-34733333D01*
X65416666Y-34700000D01*
X65383333Y-34666666D01*
X65350000Y-34600000D01*
X65350000Y-34466666D01*
X65383333Y-34400000D01*
X65350000Y-33766666D02*
X65816666Y-33766666D01*
X65350000Y-34066666D02*
X65716666Y-34066666D01*
X65783333Y-34033333D01*
X65816666Y-33966666D01*
X65816666Y-33866666D01*
X65783333Y-33800000D01*
X65750000Y-33766666D01*
X65816666Y-33433333D02*
X65350000Y-33433333D01*
X65116666Y-33433333D02*
X65150000Y-33466666D01*
X65183333Y-33433333D01*
X65150000Y-33400000D01*
X65116666Y-33433333D01*
X65183333Y-33433333D01*
X65350000Y-33100000D02*
X65816666Y-33100000D01*
X65416666Y-33100000D02*
X65383333Y-33066666D01*
X65350000Y-33000000D01*
X65350000Y-32900000D01*
X65383333Y-32833333D01*
X65450000Y-32800000D01*
X65816666Y-32800000D01*
X65816666Y-32366666D02*
X65783333Y-32433333D01*
X65750000Y-32466666D01*
X65683333Y-32500000D01*
X65483333Y-32500000D01*
X65416666Y-32466666D01*
X65383333Y-32433333D01*
X65350000Y-32366666D01*
X65350000Y-32266666D01*
X65383333Y-32200000D01*
X65416666Y-32166666D01*
X65483333Y-32133333D01*
X65683333Y-32133333D01*
X65750000Y-32166666D01*
X65783333Y-32200000D01*
X65816666Y-32266666D01*
X65816666Y-32366666D01*
X65883333Y-32000000D02*
X65883333Y-31466666D01*
X65816666Y-31300000D02*
X65350000Y-31300000D01*
X65116666Y-31300000D02*
X65150000Y-31333333D01*
X65183333Y-31300000D01*
X65150000Y-31266666D01*
X65116666Y-31300000D01*
X65183333Y-31300000D01*
X65350000Y-30966666D02*
X65816666Y-30966666D01*
X65416666Y-30966666D02*
X65383333Y-30933333D01*
X65350000Y-30866666D01*
X65350000Y-30766666D01*
X65383333Y-30700000D01*
X65450000Y-30666666D01*
X65816666Y-30666666D01*
X48066666Y-36866666D02*
X47366666Y-36866666D01*
X47433333Y-36566666D02*
X47400000Y-36533333D01*
X47366666Y-36466666D01*
X47366666Y-36300000D01*
X47400000Y-36233333D01*
X47433333Y-36200000D01*
X47500000Y-36166666D01*
X47566666Y-36166666D01*
X47666666Y-36200000D01*
X48066666Y-36600000D01*
X48066666Y-36166666D01*
X48000000Y-35466666D02*
X48033333Y-35500000D01*
X48066666Y-35600000D01*
X48066666Y-35666666D01*
X48033333Y-35766666D01*
X47966666Y-35833333D01*
X47900000Y-35866666D01*
X47766666Y-35900000D01*
X47666666Y-35900000D01*
X47533333Y-35866666D01*
X47466666Y-35833333D01*
X47400000Y-35766666D01*
X47366666Y-35666666D01*
X47366666Y-35600000D01*
X47400000Y-35500000D01*
X47433333Y-35466666D01*
X48133333Y-35333333D02*
X48133333Y-34800000D01*
X47366666Y-34500000D02*
X47366666Y-34366666D01*
X47400000Y-34300000D01*
X47466666Y-34233333D01*
X47600000Y-34200000D01*
X47833333Y-34200000D01*
X47966666Y-34233333D01*
X48033333Y-34300000D01*
X48066666Y-34366666D01*
X48066666Y-34500000D01*
X48033333Y-34566666D01*
X47966666Y-34633333D01*
X47833333Y-34666666D01*
X47600000Y-34666666D01*
X47466666Y-34633333D01*
X47400000Y-34566666D01*
X47366666Y-34500000D01*
X48066666Y-33566666D02*
X48066666Y-33900000D01*
X47366666Y-33900000D01*
X47700000Y-33333333D02*
X47700000Y-33100000D01*
X48066666Y-33000000D02*
X48066666Y-33333333D01*
X47366666Y-33333333D01*
X47366666Y-33000000D01*
X48066666Y-32700000D02*
X47366666Y-32700000D01*
X47366666Y-32533333D01*
X47400000Y-32433333D01*
X47466666Y-32366666D01*
X47533333Y-32333333D01*
X47666666Y-32300000D01*
X47766666Y-32300000D01*
X47900000Y-32333333D01*
X47966666Y-32366666D01*
X48033333Y-32433333D01*
X48066666Y-32533333D01*
X48066666Y-32700000D01*
X48133333Y-32166666D02*
X48133333Y-31633333D01*
X47600000Y-31533333D02*
X48066666Y-31400000D01*
X47733333Y-31266666D01*
X48066666Y-31133333D01*
X47600000Y-31000000D01*
X48066666Y-30733333D02*
X47600000Y-30733333D01*
X47366666Y-30733333D02*
X47400000Y-30766666D01*
X47433333Y-30733333D01*
X47400000Y-30700000D01*
X47366666Y-30733333D01*
X47433333Y-30733333D01*
X47600000Y-30500000D02*
X47600000Y-30233333D01*
X47366666Y-30400000D02*
X47966666Y-30400000D01*
X48033333Y-30366666D01*
X48066666Y-30300000D01*
X48066666Y-30233333D01*
X73683333Y-37616666D02*
X73350000Y-37616666D01*
X73350000Y-36916666D01*
X73916666Y-37350000D02*
X74450000Y-37350000D01*
X74750000Y-37416666D02*
X75083333Y-37416666D01*
X74683333Y-37616666D02*
X74916666Y-36916666D01*
X75150000Y-37616666D01*
X75683333Y-37150000D02*
X75683333Y-37616666D01*
X75383333Y-37150000D02*
X75383333Y-37516666D01*
X75416666Y-37583333D01*
X75483333Y-37616666D01*
X75583333Y-37616666D01*
X75650000Y-37583333D01*
X75683333Y-37550000D01*
X76316666Y-37616666D02*
X76316666Y-36916666D01*
X76316666Y-37583333D02*
X76250000Y-37616666D01*
X76116666Y-37616666D01*
X76050000Y-37583333D01*
X76016666Y-37550000D01*
X75983333Y-37483333D01*
X75983333Y-37283333D01*
X76016666Y-37216666D01*
X76050000Y-37183333D01*
X76116666Y-37150000D01*
X76250000Y-37150000D01*
X76316666Y-37183333D01*
X76650000Y-37616666D02*
X76650000Y-37150000D01*
X76650000Y-36916666D02*
X76616666Y-36950000D01*
X76650000Y-36983333D01*
X76683333Y-36950000D01*
X76650000Y-36916666D01*
X76650000Y-36983333D01*
X77083333Y-37616666D02*
X77016666Y-37583333D01*
X76983333Y-37550000D01*
X76950000Y-37483333D01*
X76950000Y-37283333D01*
X76983333Y-37216666D01*
X77016666Y-37183333D01*
X77083333Y-37150000D01*
X77183333Y-37150000D01*
X77250000Y-37183333D01*
X77283333Y-37216666D01*
X77316666Y-37283333D01*
X77316666Y-37483333D01*
X77283333Y-37550000D01*
X77250000Y-37583333D01*
X77183333Y-37616666D01*
X77083333Y-37616666D01*
X77616666Y-37350000D02*
X78150000Y-37350000D01*
X78883333Y-37616666D02*
X78650000Y-37283333D01*
X78483333Y-37616666D02*
X78483333Y-36916666D01*
X78750000Y-36916666D01*
X78816666Y-36950000D01*
X78850000Y-36983333D01*
X78883333Y-37050000D01*
X78883333Y-37150000D01*
X78850000Y-37216666D01*
X78816666Y-37250000D01*
X78750000Y-37283333D01*
X78483333Y-37283333D01*
X71166666Y-37050000D02*
X71100000Y-37016666D01*
X71000000Y-37016666D01*
X70900000Y-37050000D01*
X70833333Y-37116666D01*
X70800000Y-37183333D01*
X70766666Y-37316666D01*
X70766666Y-37416666D01*
X70800000Y-37550000D01*
X70833333Y-37616666D01*
X70900000Y-37683333D01*
X71000000Y-37716666D01*
X71066666Y-37716666D01*
X71166666Y-37683333D01*
X71200000Y-37650000D01*
X71200000Y-37416666D01*
X71066666Y-37416666D01*
X71500000Y-37716666D02*
X71500000Y-37016666D01*
X71900000Y-37716666D01*
X71900000Y-37016666D01*
X72233333Y-37716666D02*
X72233333Y-37016666D01*
X72400000Y-37016666D01*
X72500000Y-37050000D01*
X72566666Y-37116666D01*
X72600000Y-37183333D01*
X72633333Y-37316666D01*
X72633333Y-37416666D01*
X72600000Y-37550000D01*
X72566666Y-37616666D01*
X72500000Y-37683333D01*
X72400000Y-37716666D01*
X72233333Y-37716666D01*
X62366666Y-37050000D02*
X62300000Y-37016666D01*
X62200000Y-37016666D01*
X62100000Y-37050000D01*
X62033333Y-37116666D01*
X62000000Y-37183333D01*
X61966666Y-37316666D01*
X61966666Y-37416666D01*
X62000000Y-37550000D01*
X62033333Y-37616666D01*
X62100000Y-37683333D01*
X62200000Y-37716666D01*
X62266666Y-37716666D01*
X62366666Y-37683333D01*
X62400000Y-37650000D01*
X62400000Y-37416666D01*
X62266666Y-37416666D01*
X62700000Y-37716666D02*
X62700000Y-37016666D01*
X63100000Y-37716666D01*
X63100000Y-37016666D01*
X63433333Y-37716666D02*
X63433333Y-37016666D01*
X63600000Y-37016666D01*
X63700000Y-37050000D01*
X63766666Y-37116666D01*
X63800000Y-37183333D01*
X63833333Y-37316666D01*
X63833333Y-37416666D01*
X63800000Y-37550000D01*
X63766666Y-37616666D01*
X63700000Y-37683333D01*
X63600000Y-37716666D01*
X63433333Y-37716666D01*
X59366666Y-36916666D02*
X59600000Y-37616666D01*
X59833333Y-36916666D01*
X60466666Y-37550000D02*
X60433333Y-37583333D01*
X60333333Y-37616666D01*
X60266666Y-37616666D01*
X60166666Y-37583333D01*
X60100000Y-37516666D01*
X60066666Y-37450000D01*
X60033333Y-37316666D01*
X60033333Y-37216666D01*
X60066666Y-37083333D01*
X60100000Y-37016666D01*
X60166666Y-36950000D01*
X60266666Y-36916666D01*
X60333333Y-36916666D01*
X60433333Y-36950000D01*
X60466666Y-36983333D01*
X61166666Y-37550000D02*
X61133333Y-37583333D01*
X61033333Y-37616666D01*
X60966666Y-37616666D01*
X60866666Y-37583333D01*
X60800000Y-37516666D01*
X60766666Y-37450000D01*
X60733333Y-37316666D01*
X60733333Y-37216666D01*
X60766666Y-37083333D01*
X60800000Y-37016666D01*
X60866666Y-36950000D01*
X60966666Y-36916666D01*
X61033333Y-36916666D01*
X61133333Y-36950000D01*
X61166666Y-36983333D01*
X57066666Y-37583333D02*
X57166666Y-37616666D01*
X57333333Y-37616666D01*
X57400000Y-37583333D01*
X57433333Y-37550000D01*
X57466666Y-37483333D01*
X57466666Y-37416666D01*
X57433333Y-37350000D01*
X57400000Y-37316666D01*
X57333333Y-37283333D01*
X57200000Y-37250000D01*
X57133333Y-37216666D01*
X57100000Y-37183333D01*
X57066666Y-37116666D01*
X57066666Y-37050000D01*
X57100000Y-36983333D01*
X57133333Y-36950000D01*
X57200000Y-36916666D01*
X57366666Y-36916666D01*
X57466666Y-36950000D01*
X58166666Y-37550000D02*
X58133333Y-37583333D01*
X58033333Y-37616666D01*
X57966666Y-37616666D01*
X57866666Y-37583333D01*
X57800000Y-37516666D01*
X57766666Y-37450000D01*
X57733333Y-37316666D01*
X57733333Y-37216666D01*
X57766666Y-37083333D01*
X57800000Y-37016666D01*
X57866666Y-36950000D01*
X57966666Y-36916666D01*
X58033333Y-36916666D01*
X58133333Y-36950000D01*
X58166666Y-36983333D01*
X58800000Y-37616666D02*
X58466666Y-37616666D01*
X58466666Y-36916666D01*
X54350000Y-37583333D02*
X54450000Y-37616666D01*
X54616666Y-37616666D01*
X54683333Y-37583333D01*
X54716666Y-37550000D01*
X54750000Y-37483333D01*
X54750000Y-37416666D01*
X54716666Y-37350000D01*
X54683333Y-37316666D01*
X54616666Y-37283333D01*
X54483333Y-37250000D01*
X54416666Y-37216666D01*
X54383333Y-37183333D01*
X54350000Y-37116666D01*
X54350000Y-37050000D01*
X54383333Y-36983333D01*
X54416666Y-36950000D01*
X54483333Y-36916666D01*
X54650000Y-36916666D01*
X54750000Y-36950000D01*
X55050000Y-37616666D02*
X55050000Y-36916666D01*
X55216666Y-36916666D01*
X55316666Y-36950000D01*
X55383333Y-37016666D01*
X55416666Y-37083333D01*
X55450000Y-37216666D01*
X55450000Y-37316666D01*
X55416666Y-37450000D01*
X55383333Y-37516666D01*
X55316666Y-37583333D01*
X55216666Y-37616666D01*
X55050000Y-37616666D01*
X55716666Y-37416666D02*
X56050000Y-37416666D01*
X55650000Y-37616666D02*
X55883333Y-36916666D01*
X56116666Y-37616666D01*
X51883333Y-36768500D02*
X52683333Y-36768500D01*
X51983333Y-37116666D02*
X52150000Y-37816666D01*
X52283333Y-37316666D01*
X52416666Y-37816666D01*
X52583333Y-37116666D01*
X52683333Y-36768500D02*
X53316666Y-36768500D01*
X52850000Y-37450000D02*
X53083333Y-37450000D01*
X53183333Y-37816666D02*
X52850000Y-37816666D01*
X52850000Y-37116666D01*
X53183333Y-37116666D01*
X44450000Y-37783333D02*
X44550000Y-37816666D01*
X44716666Y-37816666D01*
X44783333Y-37783333D01*
X44816666Y-37750000D01*
X44850000Y-37683333D01*
X44850000Y-37616666D01*
X44816666Y-37550000D01*
X44783333Y-37516666D01*
X44716666Y-37483333D01*
X44583333Y-37450000D01*
X44516666Y-37416666D01*
X44483333Y-37383333D01*
X44450000Y-37316666D01*
X44450000Y-37250000D01*
X44483333Y-37183333D01*
X44516666Y-37150000D01*
X44583333Y-37116666D01*
X44750000Y-37116666D01*
X44850000Y-37150000D01*
X45150000Y-37816666D02*
X45150000Y-37116666D01*
X45316666Y-37116666D01*
X45416666Y-37150000D01*
X45483333Y-37216666D01*
X45516666Y-37283333D01*
X45550000Y-37416666D01*
X45550000Y-37516666D01*
X45516666Y-37650000D01*
X45483333Y-37716666D01*
X45416666Y-37783333D01*
X45316666Y-37816666D01*
X45150000Y-37816666D01*
X45816666Y-37616666D02*
X46150000Y-37616666D01*
X45750000Y-37816666D02*
X45983333Y-37116666D01*
X46216666Y-37816666D01*
X41666666Y-37783333D02*
X41766666Y-37816666D01*
X41933333Y-37816666D01*
X42000000Y-37783333D01*
X42033333Y-37750000D01*
X42066666Y-37683333D01*
X42066666Y-37616666D01*
X42033333Y-37550000D01*
X42000000Y-37516666D01*
X41933333Y-37483333D01*
X41800000Y-37450000D01*
X41733333Y-37416666D01*
X41700000Y-37383333D01*
X41666666Y-37316666D01*
X41666666Y-37250000D01*
X41700000Y-37183333D01*
X41733333Y-37150000D01*
X41800000Y-37116666D01*
X41966666Y-37116666D01*
X42066666Y-37150000D01*
X42766666Y-37750000D02*
X42733333Y-37783333D01*
X42633333Y-37816666D01*
X42566666Y-37816666D01*
X42466666Y-37783333D01*
X42400000Y-37716666D01*
X42366666Y-37650000D01*
X42333333Y-37516666D01*
X42333333Y-37416666D01*
X42366666Y-37283333D01*
X42400000Y-37216666D01*
X42466666Y-37150000D01*
X42566666Y-37116666D01*
X42633333Y-37116666D01*
X42733333Y-37150000D01*
X42766666Y-37183333D01*
X43400000Y-37816666D02*
X43066666Y-37816666D01*
X43066666Y-37116666D01*
X39066666Y-37116666D02*
X39300000Y-37816666D01*
X39533333Y-37116666D01*
X40166666Y-37750000D02*
X40133333Y-37783333D01*
X40033333Y-37816666D01*
X39966666Y-37816666D01*
X39866666Y-37783333D01*
X39800000Y-37716666D01*
X39766666Y-37650000D01*
X39733333Y-37516666D01*
X39733333Y-37416666D01*
X39766666Y-37283333D01*
X39800000Y-37216666D01*
X39866666Y-37150000D01*
X39966666Y-37116666D01*
X40033333Y-37116666D01*
X40133333Y-37150000D01*
X40166666Y-37183333D01*
X40866666Y-37750000D02*
X40833333Y-37783333D01*
X40733333Y-37816666D01*
X40666666Y-37816666D01*
X40566666Y-37783333D01*
X40500000Y-37716666D01*
X40466666Y-37650000D01*
X40433333Y-37516666D01*
X40433333Y-37416666D01*
X40466666Y-37283333D01*
X40500000Y-37216666D01*
X40566666Y-37150000D01*
X40666666Y-37116666D01*
X40733333Y-37116666D01*
X40833333Y-37150000D01*
X40866666Y-37183333D01*
X36966666Y-37150000D02*
X36900000Y-37116666D01*
X36800000Y-37116666D01*
X36700000Y-37150000D01*
X36633333Y-37216666D01*
X36600000Y-37283333D01*
X36566666Y-37416666D01*
X36566666Y-37516666D01*
X36600000Y-37650000D01*
X36633333Y-37716666D01*
X36700000Y-37783333D01*
X36800000Y-37816666D01*
X36866666Y-37816666D01*
X36966666Y-37783333D01*
X37000000Y-37750000D01*
X37000000Y-37516666D01*
X36866666Y-37516666D01*
X37300000Y-37816666D02*
X37300000Y-37116666D01*
X37700000Y-37816666D01*
X37700000Y-37116666D01*
X38033333Y-37816666D02*
X38033333Y-37116666D01*
X38200000Y-37116666D01*
X38300000Y-37150000D01*
X38366666Y-37216666D01*
X38400000Y-37283333D01*
X38433333Y-37416666D01*
X38433333Y-37516666D01*
X38400000Y-37650000D01*
X38366666Y-37716666D01*
X38300000Y-37783333D01*
X38200000Y-37816666D01*
X38033333Y-37816666D01*
D11*
G04 #@! TO.C,D1*
X78280000Y-68190000D02*
X78436000Y-68190000D01*
X75964000Y-68190000D02*
X76120000Y-68190000D01*
X78279837Y-65588870D02*
G75*
G02X78280000Y-67670961I-1079837J-1041130D01*
G01*
X76120163Y-65588870D02*
G75*
G03X76120000Y-67670961I1079837J-1041130D01*
G01*
X78278608Y-64957665D02*
G75*
G02X78435516Y-68190000I-1078608J-1672335D01*
G01*
X76121392Y-64957665D02*
G75*
G03X75964484Y-68190000I1078608J-1672335D01*
G01*
G04 #@! TO.C,J1*
X51530000Y-36070000D02*
X51530000Y-34800000D01*
X52800000Y-36070000D02*
X51530000Y-36070000D01*
X63340000Y-33757071D02*
X63340000Y-33360000D01*
X62580000Y-33757071D02*
X62580000Y-33360000D01*
X63340000Y-24700000D02*
X63340000Y-30700000D01*
X62580000Y-24700000D02*
X63340000Y-24700000D01*
X62580000Y-30700000D02*
X62580000Y-24700000D01*
X61690000Y-33360000D02*
X61690000Y-30700000D01*
X60800000Y-33757071D02*
X60800000Y-33360000D01*
X60040000Y-33757071D02*
X60040000Y-33360000D01*
X60800000Y-24700000D02*
X60800000Y-30700000D01*
X60040000Y-24700000D02*
X60800000Y-24700000D01*
X60040000Y-30700000D02*
X60040000Y-24700000D01*
X59150000Y-33360000D02*
X59150000Y-30700000D01*
X58260000Y-33757071D02*
X58260000Y-33360000D01*
X57500000Y-33757071D02*
X57500000Y-33360000D01*
X58260000Y-24700000D02*
X58260000Y-30700000D01*
X57500000Y-24700000D02*
X58260000Y-24700000D01*
X57500000Y-30700000D02*
X57500000Y-24700000D01*
X56610000Y-33360000D02*
X56610000Y-30700000D01*
X55720000Y-33757071D02*
X55720000Y-33360000D01*
X54960000Y-33757071D02*
X54960000Y-33360000D01*
X55720000Y-24700000D02*
X55720000Y-30700000D01*
X54960000Y-24700000D02*
X55720000Y-24700000D01*
X54960000Y-30700000D02*
X54960000Y-24700000D01*
X54070000Y-33360000D02*
X54070000Y-30700000D01*
X53180000Y-33690000D02*
X53180000Y-33360000D01*
X52420000Y-33690000D02*
X52420000Y-33360000D01*
X53080000Y-30700000D02*
X53080000Y-24700000D01*
X52960000Y-30700000D02*
X52960000Y-24700000D01*
X52840000Y-30700000D02*
X52840000Y-24700000D01*
X52720000Y-30700000D02*
X52720000Y-24700000D01*
X52600000Y-30700000D02*
X52600000Y-24700000D01*
X52480000Y-30700000D02*
X52480000Y-24700000D01*
X53180000Y-24700000D02*
X53180000Y-30700000D01*
X52420000Y-24700000D02*
X53180000Y-24700000D01*
X52420000Y-30700000D02*
X52420000Y-24700000D01*
X51470000Y-30700000D02*
X51470000Y-33360000D01*
X64290000Y-30700000D02*
X51470000Y-30700000D01*
X64290000Y-33360000D02*
X64290000Y-30700000D01*
X51470000Y-33360000D02*
X64290000Y-33360000D01*
G04 #@! TO.C,J2*
X70530000Y-36170000D02*
X70530000Y-34900000D01*
X71800000Y-36170000D02*
X70530000Y-36170000D01*
X77260000Y-33857071D02*
X77260000Y-33460000D01*
X76500000Y-33857071D02*
X76500000Y-33460000D01*
X77260000Y-24800000D02*
X77260000Y-30800000D01*
X76500000Y-24800000D02*
X77260000Y-24800000D01*
X76500000Y-30800000D02*
X76500000Y-24800000D01*
X75610000Y-33460000D02*
X75610000Y-30800000D01*
X74720000Y-33857071D02*
X74720000Y-33460000D01*
X73960000Y-33857071D02*
X73960000Y-33460000D01*
X74720000Y-24800000D02*
X74720000Y-30800000D01*
X73960000Y-24800000D02*
X74720000Y-24800000D01*
X73960000Y-30800000D02*
X73960000Y-24800000D01*
X73070000Y-33460000D02*
X73070000Y-30800000D01*
X72180000Y-33790000D02*
X72180000Y-33460000D01*
X71420000Y-33790000D02*
X71420000Y-33460000D01*
X72080000Y-30800000D02*
X72080000Y-24800000D01*
X71960000Y-30800000D02*
X71960000Y-24800000D01*
X71840000Y-30800000D02*
X71840000Y-24800000D01*
X71720000Y-30800000D02*
X71720000Y-24800000D01*
X71600000Y-30800000D02*
X71600000Y-24800000D01*
X71480000Y-30800000D02*
X71480000Y-24800000D01*
X72180000Y-24800000D02*
X72180000Y-30800000D01*
X71420000Y-24800000D02*
X72180000Y-24800000D01*
X71420000Y-30800000D02*
X71420000Y-24800000D01*
X70470000Y-30800000D02*
X70470000Y-33460000D01*
X78210000Y-30800000D02*
X70470000Y-30800000D01*
X78210000Y-33460000D02*
X78210000Y-30800000D01*
X70470000Y-33460000D02*
X78210000Y-33460000D01*
G04 #@! TO.C,J3*
X36430000Y-36370000D02*
X36430000Y-35100000D01*
X37700000Y-36370000D02*
X36430000Y-36370000D01*
X45700000Y-34057071D02*
X45700000Y-33660000D01*
X44940000Y-34057071D02*
X44940000Y-33660000D01*
X45700000Y-25000000D02*
X45700000Y-31000000D01*
X44940000Y-25000000D02*
X45700000Y-25000000D01*
X44940000Y-31000000D02*
X44940000Y-25000000D01*
X44050000Y-33660000D02*
X44050000Y-31000000D01*
X43160000Y-34057071D02*
X43160000Y-33660000D01*
X42400000Y-34057071D02*
X42400000Y-33660000D01*
X43160000Y-25000000D02*
X43160000Y-31000000D01*
X42400000Y-25000000D02*
X43160000Y-25000000D01*
X42400000Y-31000000D02*
X42400000Y-25000000D01*
X41510000Y-33660000D02*
X41510000Y-31000000D01*
X40620000Y-34057071D02*
X40620000Y-33660000D01*
X39860000Y-34057071D02*
X39860000Y-33660000D01*
X40620000Y-25000000D02*
X40620000Y-31000000D01*
X39860000Y-25000000D02*
X40620000Y-25000000D01*
X39860000Y-31000000D02*
X39860000Y-25000000D01*
X38970000Y-33660000D02*
X38970000Y-31000000D01*
X38080000Y-33990000D02*
X38080000Y-33660000D01*
X37320000Y-33990000D02*
X37320000Y-33660000D01*
X37980000Y-31000000D02*
X37980000Y-25000000D01*
X37860000Y-31000000D02*
X37860000Y-25000000D01*
X37740000Y-31000000D02*
X37740000Y-25000000D01*
X37620000Y-31000000D02*
X37620000Y-25000000D01*
X37500000Y-31000000D02*
X37500000Y-25000000D01*
X37380000Y-31000000D02*
X37380000Y-25000000D01*
X38080000Y-25000000D02*
X38080000Y-31000000D01*
X37320000Y-25000000D02*
X38080000Y-25000000D01*
X37320000Y-31000000D02*
X37320000Y-25000000D01*
X36370000Y-31000000D02*
X36370000Y-33660000D01*
X46650000Y-31000000D02*
X36370000Y-31000000D01*
X46650000Y-33660000D02*
X46650000Y-31000000D01*
X36370000Y-33660000D02*
X46650000Y-33660000D01*
D12*
G04 #@! TO.C,J5*
G36*
X64221527Y-42389904D02*
X64224622Y-42516783D01*
X63826492Y-42854283D01*
X63737110Y-42924669D01*
X63293574Y-43368449D01*
X63085239Y-43916076D01*
X63032642Y-44778658D01*
X63032632Y-44796248D01*
X63032632Y-46113685D01*
X67053346Y-46113685D01*
X66873250Y-45396125D01*
X66779806Y-44919159D01*
X66894492Y-44881620D01*
X67107462Y-45061915D01*
X67382976Y-45464680D01*
X67380478Y-45677974D01*
X67477733Y-45975735D01*
X67882445Y-46477382D01*
X68210646Y-46800658D01*
X68887323Y-47571049D01*
X69177027Y-48251993D01*
X69182106Y-48336323D01*
X69386626Y-48936449D01*
X70039124Y-49569785D01*
X70256422Y-49726514D01*
X71030227Y-50203924D01*
X71443528Y-50305351D01*
X71483735Y-50152287D01*
X72269351Y-50152287D01*
X72325197Y-50880896D01*
X72441103Y-51823488D01*
X72594179Y-52824977D01*
X72761536Y-53730275D01*
X72920284Y-54384295D01*
X73005601Y-54597545D01*
X73279606Y-54632028D01*
X73710743Y-54334362D01*
X74183145Y-53832196D01*
X74580947Y-53253180D01*
X74788280Y-52724965D01*
X74796842Y-52624138D01*
X74649836Y-52036372D01*
X74272055Y-51347756D01*
X73758356Y-50665703D01*
X73203595Y-50097626D01*
X72702628Y-49750940D01*
X72350313Y-49733057D01*
X72296455Y-49792749D01*
X72269351Y-50152287D01*
X71483735Y-50152287D01*
X71515499Y-50031365D01*
X71432425Y-49761426D01*
X71062348Y-49419668D01*
X70624026Y-49322106D01*
X70135412Y-49226868D01*
X69984211Y-49054737D01*
X70197784Y-48803505D01*
X70759048Y-48787774D01*
X71548824Y-48982328D01*
X72447929Y-49361952D01*
X73044118Y-49702135D01*
X73892151Y-50316895D01*
X74463206Y-50960973D01*
X74827462Y-51772165D01*
X75055094Y-52888269D01*
X75165376Y-53867369D01*
X75216243Y-54563049D01*
X75208808Y-54884822D01*
X75157925Y-54803158D01*
X74918513Y-54210805D01*
X74595334Y-54088847D01*
X74102653Y-54429008D01*
X73853587Y-54677267D01*
X73385872Y-55192553D01*
X73267657Y-55456557D01*
X73466440Y-55592190D01*
X73601349Y-55631137D01*
X73892760Y-55785618D01*
X74065118Y-56138376D01*
X74157263Y-56814272D01*
X74194522Y-57538130D01*
X74287015Y-58579301D01*
X74459859Y-59380245D01*
X74626245Y-59727602D01*
X74934814Y-60274320D01*
X75126033Y-60963395D01*
X75179022Y-61618443D01*
X75072898Y-62063087D01*
X74913717Y-62155790D01*
X74577765Y-62371465D01*
X74529474Y-62573649D01*
X74732177Y-62890575D01*
X75131053Y-62907859D01*
X75501728Y-62909113D01*
X75678019Y-63137049D01*
X75730473Y-63722953D01*
X75732632Y-64027369D01*
X75732632Y-65230527D01*
X74395790Y-65266314D01*
X73591113Y-65264144D01*
X73128937Y-65130846D01*
X72817587Y-64759746D01*
X72651863Y-64428421D01*
X73994737Y-64428421D01*
X74227161Y-64750979D01*
X74663158Y-64829474D01*
X75200754Y-64690020D01*
X75331579Y-64428421D01*
X75099155Y-64105864D01*
X74663158Y-64027369D01*
X74125563Y-64166823D01*
X73994737Y-64428421D01*
X72651863Y-64428421D01*
X72559906Y-64244577D01*
X72332001Y-63704725D01*
X72210411Y-63190053D01*
X72197543Y-62824211D01*
X73192632Y-62824211D01*
X73406651Y-63178680D01*
X73593685Y-63225263D01*
X73948153Y-63011244D01*
X73994737Y-62824211D01*
X73780718Y-62469742D01*
X73593685Y-62423158D01*
X73239216Y-62637178D01*
X73192632Y-62824211D01*
X72197543Y-62824211D01*
X72188115Y-62556198D01*
X72258090Y-61658800D01*
X72281330Y-61461026D01*
X73253868Y-61461026D01*
X73564571Y-61611152D01*
X73829869Y-61621053D01*
X74328426Y-61540505D01*
X74511342Y-61189014D01*
X74529474Y-60818948D01*
X74445441Y-60231832D01*
X74132773Y-60025117D01*
X73994737Y-60016842D01*
X73558127Y-60101137D01*
X73456349Y-60217369D01*
X73390365Y-60611630D01*
X73291482Y-61019474D01*
X73253868Y-61461026D01*
X72281330Y-61461026D01*
X72382591Y-60599316D01*
X72546091Y-59432972D01*
X72720025Y-58433335D01*
X72877877Y-57743407D01*
X72948475Y-57547312D01*
X72970215Y-57476842D01*
X73512123Y-57476842D01*
X73541023Y-57933461D01*
X73624722Y-57973662D01*
X73635377Y-57949826D01*
X73688268Y-57419050D01*
X73645284Y-57147720D01*
X73560176Y-57038687D01*
X73513887Y-57393814D01*
X73512123Y-57476842D01*
X72970215Y-57476842D01*
X73167577Y-56837122D01*
X73128462Y-56188651D01*
X72907475Y-55861638D01*
X72521755Y-55811869D01*
X72307922Y-56260098D01*
X72291903Y-56355897D01*
X72076374Y-56915355D01*
X71941787Y-57115659D01*
X71684806Y-57620137D01*
X71465030Y-58342535D01*
X71458590Y-58372094D01*
X71267011Y-59267345D01*
X70772059Y-58453463D01*
X69925638Y-57471483D01*
X68829762Y-56949330D01*
X68045790Y-56840166D01*
X67358949Y-56864363D01*
X67073082Y-57057745D01*
X67043158Y-57231445D01*
X67172867Y-57532253D01*
X67644249Y-57578261D01*
X67850338Y-57552750D01*
X68544945Y-57572768D01*
X68941119Y-57776000D01*
X69066253Y-58167384D01*
X69191864Y-58972154D01*
X69302594Y-60069192D01*
X69377275Y-61215280D01*
X69455893Y-62447497D01*
X69555121Y-63472692D01*
X69661879Y-64179341D01*
X69757020Y-64453253D01*
X70007642Y-64710449D01*
X69771688Y-64849705D01*
X69086272Y-64861221D01*
X68446842Y-64799282D01*
X67443853Y-64707074D01*
X66146119Y-64632829D01*
X64793609Y-64589430D01*
X64449602Y-64584667D01*
X63251734Y-64588709D01*
X62478588Y-64639244D01*
X62020917Y-64754075D01*
X61769478Y-64951008D01*
X61717206Y-65030000D01*
X61497076Y-65289125D01*
X61436552Y-65139700D01*
X61618085Y-64707676D01*
X61954792Y-64337594D01*
X62201580Y-64060809D01*
X62361877Y-63655569D01*
X62456313Y-63008355D01*
X62467431Y-62781795D01*
X63300000Y-62781795D01*
X63401356Y-63005116D01*
X63769846Y-63151202D01*
X64502100Y-63243933D01*
X65372106Y-63293895D01*
X66453423Y-63344905D01*
X67390497Y-63395237D01*
X68000189Y-63434963D01*
X68045790Y-63438826D01*
X68540995Y-63336779D01*
X68647369Y-63091579D01*
X68424465Y-62764964D01*
X68112632Y-62690527D01*
X67677145Y-62523349D01*
X67577895Y-62289474D01*
X67454194Y-62056071D01*
X67015931Y-61931057D01*
X66162365Y-61889115D01*
X65982076Y-61888421D01*
X65076135Y-61915599D01*
X64614990Y-62011904D01*
X64510768Y-62199499D01*
X64527066Y-62255364D01*
X64494978Y-62505129D01*
X64054007Y-62504328D01*
X63983937Y-62491563D01*
X63456139Y-62484980D01*
X63300011Y-62777683D01*
X63300000Y-62781795D01*
X62467431Y-62781795D01*
X62505521Y-62005649D01*
X62521416Y-61220000D01*
X63567369Y-61220000D01*
X63653436Y-61403143D01*
X63969186Y-61522282D01*
X64600942Y-61589750D01*
X65635024Y-61617879D01*
X66374737Y-61621053D01*
X67656736Y-61608758D01*
X68490712Y-61563650D01*
X68962987Y-61473400D01*
X69159885Y-61325674D01*
X69182106Y-61220000D01*
X69096038Y-61036858D01*
X68780288Y-60917718D01*
X68148532Y-60850250D01*
X67114450Y-60822122D01*
X66374737Y-60818948D01*
X65092739Y-60831243D01*
X64258763Y-60876350D01*
X63786487Y-60966601D01*
X63589589Y-61114327D01*
X63567369Y-61220000D01*
X62521416Y-61220000D01*
X62544751Y-59670004D01*
X63592656Y-59670004D01*
X63658992Y-59908906D01*
X63952681Y-60150527D01*
X64655545Y-60424516D01*
X65841210Y-60545748D01*
X66241053Y-60551579D01*
X67552012Y-60472633D01*
X68388628Y-60239446D01*
X68529425Y-60150527D01*
X68889449Y-59828944D01*
X68823114Y-59590042D01*
X68529425Y-59348421D01*
X67826561Y-59074431D01*
X66640896Y-58953200D01*
X66241053Y-58947369D01*
X64930094Y-59026315D01*
X64093478Y-59259502D01*
X63952681Y-59348421D01*
X63592656Y-59670004D01*
X62544751Y-59670004D01*
X62561669Y-58546316D01*
X61893351Y-58618263D01*
X61507224Y-58609619D01*
X61251339Y-58403065D01*
X61043393Y-57882265D01*
X60852997Y-57147737D01*
X60553790Y-56166233D01*
X60257738Y-55712470D01*
X60120298Y-55682868D01*
X59672683Y-55647634D01*
X58928763Y-55471921D01*
X58445137Y-55323868D01*
X57623676Y-55098939D01*
X56977359Y-55006609D01*
X56763631Y-55028097D01*
X56475446Y-55367100D01*
X56162931Y-56080714D01*
X55873045Y-57013587D01*
X55652746Y-58010368D01*
X55548991Y-58915704D01*
X55546316Y-59055361D01*
X55480409Y-59677909D01*
X55204834Y-59996398D01*
X54602808Y-60082911D01*
X53942106Y-60045564D01*
X53898750Y-60141096D01*
X54242257Y-60422921D01*
X54543061Y-60615464D01*
X55235890Y-61146011D01*
X55402076Y-61583914D01*
X55390335Y-61621053D01*
X55265388Y-62091172D01*
X55101788Y-62893717D01*
X54974393Y-63619549D01*
X54789743Y-64619861D01*
X54635764Y-65209433D01*
X54527042Y-65351103D01*
X54478162Y-65007705D01*
X54476842Y-64887321D01*
X54273354Y-64302498D01*
X54008948Y-64048785D01*
X53718802Y-63843101D01*
X53908406Y-63775038D01*
X54142632Y-63768131D01*
X54627942Y-63608943D01*
X54744211Y-63358948D01*
X54511787Y-63036390D01*
X54075790Y-62957895D01*
X53528352Y-63105070D01*
X53407369Y-63393720D01*
X53314103Y-63656599D01*
X52949625Y-63745452D01*
X52204211Y-63693931D01*
X51424739Y-63649088D01*
X51061707Y-63757864D01*
X51001053Y-63926527D01*
X51237617Y-64214102D01*
X51736316Y-64313529D01*
X52211897Y-64346024D01*
X52195100Y-64440826D01*
X51936842Y-64562106D01*
X51387583Y-64765845D01*
X51037003Y-64755392D01*
X50840755Y-64453431D01*
X50754490Y-63782649D01*
X50742254Y-63120185D01*
X51535790Y-63120185D01*
X51695244Y-63422158D01*
X51958710Y-63387553D01*
X52561009Y-63240521D01*
X52760815Y-63225263D01*
X53089774Y-63008642D01*
X53140000Y-62795605D01*
X52980546Y-62493632D01*
X52717080Y-62528237D01*
X52114781Y-62675269D01*
X51914975Y-62690527D01*
X51586016Y-62907148D01*
X51535790Y-63120185D01*
X50742254Y-63120185D01*
X50733860Y-62665732D01*
X50733685Y-62464597D01*
X50741427Y-61914981D01*
X52166491Y-61914981D01*
X52283576Y-62250857D01*
X52622274Y-62233638D01*
X52762751Y-62136035D01*
X53082501Y-61698526D01*
X54029602Y-61698526D01*
X54224613Y-62071212D01*
X54476842Y-62155790D01*
X54819753Y-61961029D01*
X54892293Y-61865125D01*
X54923527Y-61457368D01*
X54640645Y-61183800D01*
X54252639Y-61216833D01*
X54179297Y-61276914D01*
X54029602Y-61698526D01*
X53082501Y-61698526D01*
X53088589Y-61690197D01*
X53140000Y-61470410D01*
X52988287Y-61029575D01*
X52649634Y-61008505D01*
X52338946Y-61351722D01*
X52166491Y-61914981D01*
X50741427Y-61914981D01*
X50750306Y-61284745D01*
X50815909Y-60513253D01*
X50954103Y-60024347D01*
X51085205Y-59838597D01*
X52961755Y-59838597D01*
X52998456Y-59997547D01*
X53140000Y-60016842D01*
X53360075Y-59919016D01*
X53318246Y-59838597D01*
X53000942Y-59806598D01*
X52961755Y-59838597D01*
X51085205Y-59838597D01*
X51188495Y-59692253D01*
X51268421Y-59615790D01*
X51669676Y-59140589D01*
X51803158Y-58802996D01*
X51824892Y-58762896D01*
X52605263Y-58762896D01*
X52857106Y-59180595D01*
X53611124Y-59419629D01*
X53875263Y-59451090D01*
X54038828Y-59348421D01*
X54744211Y-59348421D01*
X54888582Y-59704227D01*
X55011579Y-59749474D01*
X55248783Y-59532917D01*
X55278948Y-59348421D01*
X55134576Y-58992616D01*
X55011579Y-58947369D01*
X54774376Y-59163926D01*
X54744211Y-59348421D01*
X54038828Y-59348421D01*
X54169873Y-59266165D01*
X54209474Y-59081053D01*
X54100547Y-58722589D01*
X54008948Y-58676349D01*
X53614687Y-58610365D01*
X53206842Y-58511482D01*
X52729949Y-58488225D01*
X52605263Y-58762896D01*
X51824892Y-58762896D01*
X52006370Y-58428068D01*
X52430529Y-58063063D01*
X52964091Y-57438739D01*
X53099810Y-57108777D01*
X53959244Y-57108777D01*
X54043140Y-57337245D01*
X54427738Y-57541355D01*
X54790765Y-57309555D01*
X55174133Y-56603711D01*
X55356712Y-56142159D01*
X55629257Y-55253085D01*
X55616584Y-54718443D01*
X55301210Y-54429782D01*
X55068518Y-54354361D01*
X54784983Y-54527492D01*
X54474030Y-55058976D01*
X54193917Y-55779335D01*
X54002903Y-56519094D01*
X53959244Y-57108777D01*
X53099810Y-57108777D01*
X53431927Y-56301335D01*
X53526632Y-55981444D01*
X53995365Y-54310895D01*
X53399368Y-53861333D01*
X53064422Y-53579813D01*
X52938181Y-53292901D01*
X53007933Y-52833393D01*
X53260541Y-52035360D01*
X53534985Y-51274815D01*
X53757227Y-50774938D01*
X53847926Y-50658948D01*
X53876253Y-50872921D01*
X53778364Y-51260527D01*
X53600987Y-52005349D01*
X53518830Y-52608651D01*
X53553115Y-53093665D01*
X53739055Y-53135952D01*
X54027426Y-52788355D01*
X54369006Y-52103718D01*
X54623114Y-51423155D01*
X54887617Y-50699852D01*
X55095267Y-50262490D01*
X55173196Y-50196705D01*
X55149318Y-50484754D01*
X54980167Y-51127860D01*
X54741929Y-51868736D01*
X54490371Y-52715209D01*
X54374399Y-53352416D01*
X54407027Y-53615967D01*
X54735169Y-53773936D01*
X55450489Y-54049236D01*
X56430867Y-54396219D01*
X57070382Y-54611523D01*
X58331478Y-55004729D01*
X59183918Y-55186087D01*
X59716136Y-55140835D01*
X60016567Y-54854212D01*
X60173647Y-54311457D01*
X60207188Y-54087939D01*
X60350647Y-53483457D01*
X60599753Y-52790071D01*
X60888982Y-52149686D01*
X61152809Y-51704207D01*
X61325710Y-51595538D01*
X61343634Y-51626769D01*
X61325523Y-52042760D01*
X61156660Y-52746189D01*
X61043984Y-53097295D01*
X60823994Y-53898928D01*
X60772849Y-54685992D01*
X60881549Y-55693323D01*
X60932514Y-56006316D01*
X61151928Y-57161677D01*
X61382824Y-57856412D01*
X61700106Y-58160859D01*
X62178681Y-58145354D01*
X62893452Y-57880234D01*
X62917279Y-57870037D01*
X63636917Y-57587454D01*
X63993624Y-57537160D01*
X64100600Y-57708040D01*
X64102106Y-57753712D01*
X64326262Y-58023152D01*
X64864565Y-58150936D01*
X65515761Y-58137920D01*
X66078601Y-57984960D01*
X66337740Y-57744211D01*
X66324987Y-57484459D01*
X65958148Y-57359933D01*
X65363714Y-57329381D01*
X64235790Y-57315604D01*
X65171579Y-56954632D01*
X65928347Y-56670326D01*
X66536061Y-56454498D01*
X66584869Y-56438378D01*
X66792656Y-56298862D01*
X66717700Y-56039461D01*
X66312532Y-55573688D01*
X65873357Y-55142074D01*
X65656142Y-54873823D01*
X67176117Y-54873823D01*
X67496227Y-55174498D01*
X68216730Y-55434717D01*
X68821915Y-55384060D01*
X69055660Y-55192499D01*
X69054698Y-54772515D01*
X68714334Y-54359920D01*
X68199528Y-54139745D01*
X68112632Y-54134737D01*
X67544431Y-54327562D01*
X67328439Y-54514207D01*
X67176117Y-54873823D01*
X65656142Y-54873823D01*
X64891498Y-53929525D01*
X64428569Y-52652082D01*
X64428779Y-52644860D01*
X65267379Y-52644860D01*
X65478322Y-53367713D01*
X65559883Y-53552497D01*
X65868146Y-54154062D01*
X66075661Y-54330178D01*
X66301104Y-54143037D01*
X66410010Y-53998030D01*
X66685726Y-53381424D01*
X66719038Y-52964160D01*
X66448443Y-52438486D01*
X66043812Y-52062842D01*
X65592000Y-51814525D01*
X65368162Y-51911916D01*
X65270618Y-52123346D01*
X65267379Y-52644860D01*
X64428779Y-52644860D01*
X64458637Y-51618420D01*
X66316439Y-51618420D01*
X66615484Y-51966373D01*
X66978856Y-52681834D01*
X66987293Y-53148870D01*
X66956791Y-53561245D01*
X67171548Y-53723339D01*
X67766183Y-53721563D01*
X67868472Y-53714512D01*
X68666902Y-53759257D01*
X69302447Y-53962805D01*
X69360224Y-54000482D01*
X69922106Y-54184244D01*
X70341545Y-53905775D01*
X70518252Y-53235917D01*
X70518948Y-53181989D01*
X70397936Y-52565510D01*
X70086969Y-52415613D01*
X69664150Y-52764789D01*
X69629985Y-52812177D01*
X69290756Y-53108129D01*
X69083927Y-52987401D01*
X69085522Y-52565068D01*
X69225619Y-52200096D01*
X69290777Y-51841860D01*
X68979118Y-51555364D01*
X68587911Y-51374593D01*
X67988662Y-51162600D01*
X67711292Y-51197922D01*
X67620712Y-51393768D01*
X67365239Y-51648067D01*
X66825867Y-51597644D01*
X66341862Y-51495877D01*
X66316439Y-51618420D01*
X64458637Y-51618420D01*
X64469021Y-51261463D01*
X64532687Y-50979065D01*
X64915536Y-50098879D01*
X65474848Y-49658455D01*
X66112068Y-49687965D01*
X66433659Y-49853979D01*
X66331256Y-50058709D01*
X66081567Y-50256749D01*
X65781278Y-50518587D01*
X65884539Y-50625748D01*
X66441579Y-50650444D01*
X67108989Y-50568991D01*
X67279336Y-50295755D01*
X66960699Y-49814392D01*
X66890376Y-49742256D01*
X66613300Y-49422006D01*
X66738425Y-49326777D01*
X66903654Y-49322106D01*
X67602776Y-49491526D01*
X68496754Y-49932126D01*
X69396962Y-50542408D01*
X69780355Y-50869988D01*
X70462886Y-51846103D01*
X70742640Y-53014289D01*
X70620381Y-54215763D01*
X70096872Y-55291741D01*
X69757271Y-55668274D01*
X69055982Y-56318207D01*
X69985828Y-57077110D01*
X70710194Y-57559876D01*
X71169184Y-57617933D01*
X71212907Y-57589332D01*
X71450789Y-57145905D01*
X71662901Y-56325439D01*
X71828388Y-55285607D01*
X71926393Y-54184085D01*
X71936060Y-53178547D01*
X71874219Y-52589700D01*
X71419366Y-51308382D01*
X70572640Y-50363301D01*
X69927825Y-49961368D01*
X69254530Y-49332851D01*
X68914737Y-48520000D01*
X68580825Y-47719255D01*
X68029468Y-47177666D01*
X67173255Y-46852707D01*
X65924774Y-46701853D01*
X65129453Y-46678459D01*
X63917419Y-46704819D01*
X63157299Y-46821828D01*
X62774686Y-47038120D01*
X62328888Y-47292094D01*
X62079548Y-47273209D01*
X61705153Y-47344782D01*
X61484931Y-47728961D01*
X61535491Y-48204936D01*
X61562216Y-48252811D01*
X61877913Y-48391991D01*
X62053803Y-48290360D01*
X62569129Y-48201089D01*
X63166316Y-48389346D01*
X63968421Y-48743938D01*
X62965790Y-48765653D01*
X62308920Y-48815938D01*
X62027871Y-49025528D01*
X61963881Y-49540856D01*
X61963158Y-49690420D01*
X61850813Y-50408897D01*
X61578768Y-50911712D01*
X61562106Y-50926316D01*
X61340184Y-51046162D01*
X61218552Y-50877905D01*
X61168633Y-50330953D01*
X61161053Y-49654950D01*
X61104514Y-48651132D01*
X60950227Y-47976591D01*
X60826842Y-47788255D01*
X60091019Y-47463499D01*
X59096487Y-47329655D01*
X58094078Y-47415421D01*
X57930525Y-47456867D01*
X57149356Y-47814155D01*
X56385478Y-48371948D01*
X55793337Y-48994390D01*
X55527380Y-49545625D01*
X55525208Y-49572654D01*
X55459414Y-49801802D01*
X55369243Y-49656316D01*
X55044624Y-49342748D01*
X54632017Y-49439648D01*
X54336763Y-49876991D01*
X54153240Y-50265340D01*
X54039918Y-50311146D01*
X54066250Y-50017902D01*
X54281337Y-49438319D01*
X54367276Y-49250761D01*
X54984370Y-48421290D01*
X55893235Y-47716079D01*
X56891372Y-47270171D01*
X57467667Y-47183158D01*
X58100808Y-47061050D01*
X58425314Y-46870898D01*
X58787427Y-46698077D01*
X59395254Y-46765678D01*
X59779807Y-46870898D01*
X60666308Y-47110334D01*
X61159711Y-47103698D01*
X61375043Y-46771501D01*
X61427331Y-46034258D01*
X61428421Y-45731669D01*
X61443868Y-45405929D01*
X61991099Y-45405929D01*
X62000320Y-46125766D01*
X62088740Y-46590034D01*
X62306744Y-46887556D01*
X62512501Y-46743970D01*
X62665685Y-46252164D01*
X62725972Y-45505029D01*
X62714594Y-45148354D01*
X62617613Y-44395226D01*
X62462208Y-43922750D01*
X62364211Y-43841053D01*
X62191732Y-44077089D01*
X62061132Y-44660876D01*
X61991099Y-45405929D01*
X61443868Y-45405929D01*
X61472072Y-44811178D01*
X61664733Y-44175088D01*
X62098972Y-43576049D01*
X62328939Y-43325353D01*
X63019496Y-42725992D01*
X63653741Y-42398848D01*
X63835522Y-42370527D01*
X64221527Y-42389904D01*
X64221527Y-42389904D01*
G37*
X64221527Y-42389904D02*
X64224622Y-42516783D01*
X63826492Y-42854283D01*
X63737110Y-42924669D01*
X63293574Y-43368449D01*
X63085239Y-43916076D01*
X63032642Y-44778658D01*
X63032632Y-44796248D01*
X63032632Y-46113685D01*
X67053346Y-46113685D01*
X66873250Y-45396125D01*
X66779806Y-44919159D01*
X66894492Y-44881620D01*
X67107462Y-45061915D01*
X67382976Y-45464680D01*
X67380478Y-45677974D01*
X67477733Y-45975735D01*
X67882445Y-46477382D01*
X68210646Y-46800658D01*
X68887323Y-47571049D01*
X69177027Y-48251993D01*
X69182106Y-48336323D01*
X69386626Y-48936449D01*
X70039124Y-49569785D01*
X70256422Y-49726514D01*
X71030227Y-50203924D01*
X71443528Y-50305351D01*
X71483735Y-50152287D01*
X72269351Y-50152287D01*
X72325197Y-50880896D01*
X72441103Y-51823488D01*
X72594179Y-52824977D01*
X72761536Y-53730275D01*
X72920284Y-54384295D01*
X73005601Y-54597545D01*
X73279606Y-54632028D01*
X73710743Y-54334362D01*
X74183145Y-53832196D01*
X74580947Y-53253180D01*
X74788280Y-52724965D01*
X74796842Y-52624138D01*
X74649836Y-52036372D01*
X74272055Y-51347756D01*
X73758356Y-50665703D01*
X73203595Y-50097626D01*
X72702628Y-49750940D01*
X72350313Y-49733057D01*
X72296455Y-49792749D01*
X72269351Y-50152287D01*
X71483735Y-50152287D01*
X71515499Y-50031365D01*
X71432425Y-49761426D01*
X71062348Y-49419668D01*
X70624026Y-49322106D01*
X70135412Y-49226868D01*
X69984211Y-49054737D01*
X70197784Y-48803505D01*
X70759048Y-48787774D01*
X71548824Y-48982328D01*
X72447929Y-49361952D01*
X73044118Y-49702135D01*
X73892151Y-50316895D01*
X74463206Y-50960973D01*
X74827462Y-51772165D01*
X75055094Y-52888269D01*
X75165376Y-53867369D01*
X75216243Y-54563049D01*
X75208808Y-54884822D01*
X75157925Y-54803158D01*
X74918513Y-54210805D01*
X74595334Y-54088847D01*
X74102653Y-54429008D01*
X73853587Y-54677267D01*
X73385872Y-55192553D01*
X73267657Y-55456557D01*
X73466440Y-55592190D01*
X73601349Y-55631137D01*
X73892760Y-55785618D01*
X74065118Y-56138376D01*
X74157263Y-56814272D01*
X74194522Y-57538130D01*
X74287015Y-58579301D01*
X74459859Y-59380245D01*
X74626245Y-59727602D01*
X74934814Y-60274320D01*
X75126033Y-60963395D01*
X75179022Y-61618443D01*
X75072898Y-62063087D01*
X74913717Y-62155790D01*
X74577765Y-62371465D01*
X74529474Y-62573649D01*
X74732177Y-62890575D01*
X75131053Y-62907859D01*
X75501728Y-62909113D01*
X75678019Y-63137049D01*
X75730473Y-63722953D01*
X75732632Y-64027369D01*
X75732632Y-65230527D01*
X74395790Y-65266314D01*
X73591113Y-65264144D01*
X73128937Y-65130846D01*
X72817587Y-64759746D01*
X72651863Y-64428421D01*
X73994737Y-64428421D01*
X74227161Y-64750979D01*
X74663158Y-64829474D01*
X75200754Y-64690020D01*
X75331579Y-64428421D01*
X75099155Y-64105864D01*
X74663158Y-64027369D01*
X74125563Y-64166823D01*
X73994737Y-64428421D01*
X72651863Y-64428421D01*
X72559906Y-64244577D01*
X72332001Y-63704725D01*
X72210411Y-63190053D01*
X72197543Y-62824211D01*
X73192632Y-62824211D01*
X73406651Y-63178680D01*
X73593685Y-63225263D01*
X73948153Y-63011244D01*
X73994737Y-62824211D01*
X73780718Y-62469742D01*
X73593685Y-62423158D01*
X73239216Y-62637178D01*
X73192632Y-62824211D01*
X72197543Y-62824211D01*
X72188115Y-62556198D01*
X72258090Y-61658800D01*
X72281330Y-61461026D01*
X73253868Y-61461026D01*
X73564571Y-61611152D01*
X73829869Y-61621053D01*
X74328426Y-61540505D01*
X74511342Y-61189014D01*
X74529474Y-60818948D01*
X74445441Y-60231832D01*
X74132773Y-60025117D01*
X73994737Y-60016842D01*
X73558127Y-60101137D01*
X73456349Y-60217369D01*
X73390365Y-60611630D01*
X73291482Y-61019474D01*
X73253868Y-61461026D01*
X72281330Y-61461026D01*
X72382591Y-60599316D01*
X72546091Y-59432972D01*
X72720025Y-58433335D01*
X72877877Y-57743407D01*
X72948475Y-57547312D01*
X72970215Y-57476842D01*
X73512123Y-57476842D01*
X73541023Y-57933461D01*
X73624722Y-57973662D01*
X73635377Y-57949826D01*
X73688268Y-57419050D01*
X73645284Y-57147720D01*
X73560176Y-57038687D01*
X73513887Y-57393814D01*
X73512123Y-57476842D01*
X72970215Y-57476842D01*
X73167577Y-56837122D01*
X73128462Y-56188651D01*
X72907475Y-55861638D01*
X72521755Y-55811869D01*
X72307922Y-56260098D01*
X72291903Y-56355897D01*
X72076374Y-56915355D01*
X71941787Y-57115659D01*
X71684806Y-57620137D01*
X71465030Y-58342535D01*
X71458590Y-58372094D01*
X71267011Y-59267345D01*
X70772059Y-58453463D01*
X69925638Y-57471483D01*
X68829762Y-56949330D01*
X68045790Y-56840166D01*
X67358949Y-56864363D01*
X67073082Y-57057745D01*
X67043158Y-57231445D01*
X67172867Y-57532253D01*
X67644249Y-57578261D01*
X67850338Y-57552750D01*
X68544945Y-57572768D01*
X68941119Y-57776000D01*
X69066253Y-58167384D01*
X69191864Y-58972154D01*
X69302594Y-60069192D01*
X69377275Y-61215280D01*
X69455893Y-62447497D01*
X69555121Y-63472692D01*
X69661879Y-64179341D01*
X69757020Y-64453253D01*
X70007642Y-64710449D01*
X69771688Y-64849705D01*
X69086272Y-64861221D01*
X68446842Y-64799282D01*
X67443853Y-64707074D01*
X66146119Y-64632829D01*
X64793609Y-64589430D01*
X64449602Y-64584667D01*
X63251734Y-64588709D01*
X62478588Y-64639244D01*
X62020917Y-64754075D01*
X61769478Y-64951008D01*
X61717206Y-65030000D01*
X61497076Y-65289125D01*
X61436552Y-65139700D01*
X61618085Y-64707676D01*
X61954792Y-64337594D01*
X62201580Y-64060809D01*
X62361877Y-63655569D01*
X62456313Y-63008355D01*
X62467431Y-62781795D01*
X63300000Y-62781795D01*
X63401356Y-63005116D01*
X63769846Y-63151202D01*
X64502100Y-63243933D01*
X65372106Y-63293895D01*
X66453423Y-63344905D01*
X67390497Y-63395237D01*
X68000189Y-63434963D01*
X68045790Y-63438826D01*
X68540995Y-63336779D01*
X68647369Y-63091579D01*
X68424465Y-62764964D01*
X68112632Y-62690527D01*
X67677145Y-62523349D01*
X67577895Y-62289474D01*
X67454194Y-62056071D01*
X67015931Y-61931057D01*
X66162365Y-61889115D01*
X65982076Y-61888421D01*
X65076135Y-61915599D01*
X64614990Y-62011904D01*
X64510768Y-62199499D01*
X64527066Y-62255364D01*
X64494978Y-62505129D01*
X64054007Y-62504328D01*
X63983937Y-62491563D01*
X63456139Y-62484980D01*
X63300011Y-62777683D01*
X63300000Y-62781795D01*
X62467431Y-62781795D01*
X62505521Y-62005649D01*
X62521416Y-61220000D01*
X63567369Y-61220000D01*
X63653436Y-61403143D01*
X63969186Y-61522282D01*
X64600942Y-61589750D01*
X65635024Y-61617879D01*
X66374737Y-61621053D01*
X67656736Y-61608758D01*
X68490712Y-61563650D01*
X68962987Y-61473400D01*
X69159885Y-61325674D01*
X69182106Y-61220000D01*
X69096038Y-61036858D01*
X68780288Y-60917718D01*
X68148532Y-60850250D01*
X67114450Y-60822122D01*
X66374737Y-60818948D01*
X65092739Y-60831243D01*
X64258763Y-60876350D01*
X63786487Y-60966601D01*
X63589589Y-61114327D01*
X63567369Y-61220000D01*
X62521416Y-61220000D01*
X62544751Y-59670004D01*
X63592656Y-59670004D01*
X63658992Y-59908906D01*
X63952681Y-60150527D01*
X64655545Y-60424516D01*
X65841210Y-60545748D01*
X66241053Y-60551579D01*
X67552012Y-60472633D01*
X68388628Y-60239446D01*
X68529425Y-60150527D01*
X68889449Y-59828944D01*
X68823114Y-59590042D01*
X68529425Y-59348421D01*
X67826561Y-59074431D01*
X66640896Y-58953200D01*
X66241053Y-58947369D01*
X64930094Y-59026315D01*
X64093478Y-59259502D01*
X63952681Y-59348421D01*
X63592656Y-59670004D01*
X62544751Y-59670004D01*
X62561669Y-58546316D01*
X61893351Y-58618263D01*
X61507224Y-58609619D01*
X61251339Y-58403065D01*
X61043393Y-57882265D01*
X60852997Y-57147737D01*
X60553790Y-56166233D01*
X60257738Y-55712470D01*
X60120298Y-55682868D01*
X59672683Y-55647634D01*
X58928763Y-55471921D01*
X58445137Y-55323868D01*
X57623676Y-55098939D01*
X56977359Y-55006609D01*
X56763631Y-55028097D01*
X56475446Y-55367100D01*
X56162931Y-56080714D01*
X55873045Y-57013587D01*
X55652746Y-58010368D01*
X55548991Y-58915704D01*
X55546316Y-59055361D01*
X55480409Y-59677909D01*
X55204834Y-59996398D01*
X54602808Y-60082911D01*
X53942106Y-60045564D01*
X53898750Y-60141096D01*
X54242257Y-60422921D01*
X54543061Y-60615464D01*
X55235890Y-61146011D01*
X55402076Y-61583914D01*
X55390335Y-61621053D01*
X55265388Y-62091172D01*
X55101788Y-62893717D01*
X54974393Y-63619549D01*
X54789743Y-64619861D01*
X54635764Y-65209433D01*
X54527042Y-65351103D01*
X54478162Y-65007705D01*
X54476842Y-64887321D01*
X54273354Y-64302498D01*
X54008948Y-64048785D01*
X53718802Y-63843101D01*
X53908406Y-63775038D01*
X54142632Y-63768131D01*
X54627942Y-63608943D01*
X54744211Y-63358948D01*
X54511787Y-63036390D01*
X54075790Y-62957895D01*
X53528352Y-63105070D01*
X53407369Y-63393720D01*
X53314103Y-63656599D01*
X52949625Y-63745452D01*
X52204211Y-63693931D01*
X51424739Y-63649088D01*
X51061707Y-63757864D01*
X51001053Y-63926527D01*
X51237617Y-64214102D01*
X51736316Y-64313529D01*
X52211897Y-64346024D01*
X52195100Y-64440826D01*
X51936842Y-64562106D01*
X51387583Y-64765845D01*
X51037003Y-64755392D01*
X50840755Y-64453431D01*
X50754490Y-63782649D01*
X50742254Y-63120185D01*
X51535790Y-63120185D01*
X51695244Y-63422158D01*
X51958710Y-63387553D01*
X52561009Y-63240521D01*
X52760815Y-63225263D01*
X53089774Y-63008642D01*
X53140000Y-62795605D01*
X52980546Y-62493632D01*
X52717080Y-62528237D01*
X52114781Y-62675269D01*
X51914975Y-62690527D01*
X51586016Y-62907148D01*
X51535790Y-63120185D01*
X50742254Y-63120185D01*
X50733860Y-62665732D01*
X50733685Y-62464597D01*
X50741427Y-61914981D01*
X52166491Y-61914981D01*
X52283576Y-62250857D01*
X52622274Y-62233638D01*
X52762751Y-62136035D01*
X53082501Y-61698526D01*
X54029602Y-61698526D01*
X54224613Y-62071212D01*
X54476842Y-62155790D01*
X54819753Y-61961029D01*
X54892293Y-61865125D01*
X54923527Y-61457368D01*
X54640645Y-61183800D01*
X54252639Y-61216833D01*
X54179297Y-61276914D01*
X54029602Y-61698526D01*
X53082501Y-61698526D01*
X53088589Y-61690197D01*
X53140000Y-61470410D01*
X52988287Y-61029575D01*
X52649634Y-61008505D01*
X52338946Y-61351722D01*
X52166491Y-61914981D01*
X50741427Y-61914981D01*
X50750306Y-61284745D01*
X50815909Y-60513253D01*
X50954103Y-60024347D01*
X51085205Y-59838597D01*
X52961755Y-59838597D01*
X52998456Y-59997547D01*
X53140000Y-60016842D01*
X53360075Y-59919016D01*
X53318246Y-59838597D01*
X53000942Y-59806598D01*
X52961755Y-59838597D01*
X51085205Y-59838597D01*
X51188495Y-59692253D01*
X51268421Y-59615790D01*
X51669676Y-59140589D01*
X51803158Y-58802996D01*
X51824892Y-58762896D01*
X52605263Y-58762896D01*
X52857106Y-59180595D01*
X53611124Y-59419629D01*
X53875263Y-59451090D01*
X54038828Y-59348421D01*
X54744211Y-59348421D01*
X54888582Y-59704227D01*
X55011579Y-59749474D01*
X55248783Y-59532917D01*
X55278948Y-59348421D01*
X55134576Y-58992616D01*
X55011579Y-58947369D01*
X54774376Y-59163926D01*
X54744211Y-59348421D01*
X54038828Y-59348421D01*
X54169873Y-59266165D01*
X54209474Y-59081053D01*
X54100547Y-58722589D01*
X54008948Y-58676349D01*
X53614687Y-58610365D01*
X53206842Y-58511482D01*
X52729949Y-58488225D01*
X52605263Y-58762896D01*
X51824892Y-58762896D01*
X52006370Y-58428068D01*
X52430529Y-58063063D01*
X52964091Y-57438739D01*
X53099810Y-57108777D01*
X53959244Y-57108777D01*
X54043140Y-57337245D01*
X54427738Y-57541355D01*
X54790765Y-57309555D01*
X55174133Y-56603711D01*
X55356712Y-56142159D01*
X55629257Y-55253085D01*
X55616584Y-54718443D01*
X55301210Y-54429782D01*
X55068518Y-54354361D01*
X54784983Y-54527492D01*
X54474030Y-55058976D01*
X54193917Y-55779335D01*
X54002903Y-56519094D01*
X53959244Y-57108777D01*
X53099810Y-57108777D01*
X53431927Y-56301335D01*
X53526632Y-55981444D01*
X53995365Y-54310895D01*
X53399368Y-53861333D01*
X53064422Y-53579813D01*
X52938181Y-53292901D01*
X53007933Y-52833393D01*
X53260541Y-52035360D01*
X53534985Y-51274815D01*
X53757227Y-50774938D01*
X53847926Y-50658948D01*
X53876253Y-50872921D01*
X53778364Y-51260527D01*
X53600987Y-52005349D01*
X53518830Y-52608651D01*
X53553115Y-53093665D01*
X53739055Y-53135952D01*
X54027426Y-52788355D01*
X54369006Y-52103718D01*
X54623114Y-51423155D01*
X54887617Y-50699852D01*
X55095267Y-50262490D01*
X55173196Y-50196705D01*
X55149318Y-50484754D01*
X54980167Y-51127860D01*
X54741929Y-51868736D01*
X54490371Y-52715209D01*
X54374399Y-53352416D01*
X54407027Y-53615967D01*
X54735169Y-53773936D01*
X55450489Y-54049236D01*
X56430867Y-54396219D01*
X57070382Y-54611523D01*
X58331478Y-55004729D01*
X59183918Y-55186087D01*
X59716136Y-55140835D01*
X60016567Y-54854212D01*
X60173647Y-54311457D01*
X60207188Y-54087939D01*
X60350647Y-53483457D01*
X60599753Y-52790071D01*
X60888982Y-52149686D01*
X61152809Y-51704207D01*
X61325710Y-51595538D01*
X61343634Y-51626769D01*
X61325523Y-52042760D01*
X61156660Y-52746189D01*
X61043984Y-53097295D01*
X60823994Y-53898928D01*
X60772849Y-54685992D01*
X60881549Y-55693323D01*
X60932514Y-56006316D01*
X61151928Y-57161677D01*
X61382824Y-57856412D01*
X61700106Y-58160859D01*
X62178681Y-58145354D01*
X62893452Y-57880234D01*
X62917279Y-57870037D01*
X63636917Y-57587454D01*
X63993624Y-57537160D01*
X64100600Y-57708040D01*
X64102106Y-57753712D01*
X64326262Y-58023152D01*
X64864565Y-58150936D01*
X65515761Y-58137920D01*
X66078601Y-57984960D01*
X66337740Y-57744211D01*
X66324987Y-57484459D01*
X65958148Y-57359933D01*
X65363714Y-57329381D01*
X64235790Y-57315604D01*
X65171579Y-56954632D01*
X65928347Y-56670326D01*
X66536061Y-56454498D01*
X66584869Y-56438378D01*
X66792656Y-56298862D01*
X66717700Y-56039461D01*
X66312532Y-55573688D01*
X65873357Y-55142074D01*
X65656142Y-54873823D01*
X67176117Y-54873823D01*
X67496227Y-55174498D01*
X68216730Y-55434717D01*
X68821915Y-55384060D01*
X69055660Y-55192499D01*
X69054698Y-54772515D01*
X68714334Y-54359920D01*
X68199528Y-54139745D01*
X68112632Y-54134737D01*
X67544431Y-54327562D01*
X67328439Y-54514207D01*
X67176117Y-54873823D01*
X65656142Y-54873823D01*
X64891498Y-53929525D01*
X64428569Y-52652082D01*
X64428779Y-52644860D01*
X65267379Y-52644860D01*
X65478322Y-53367713D01*
X65559883Y-53552497D01*
X65868146Y-54154062D01*
X66075661Y-54330178D01*
X66301104Y-54143037D01*
X66410010Y-53998030D01*
X66685726Y-53381424D01*
X66719038Y-52964160D01*
X66448443Y-52438486D01*
X66043812Y-52062842D01*
X65592000Y-51814525D01*
X65368162Y-51911916D01*
X65270618Y-52123346D01*
X65267379Y-52644860D01*
X64428779Y-52644860D01*
X64458637Y-51618420D01*
X66316439Y-51618420D01*
X66615484Y-51966373D01*
X66978856Y-52681834D01*
X66987293Y-53148870D01*
X66956791Y-53561245D01*
X67171548Y-53723339D01*
X67766183Y-53721563D01*
X67868472Y-53714512D01*
X68666902Y-53759257D01*
X69302447Y-53962805D01*
X69360224Y-54000482D01*
X69922106Y-54184244D01*
X70341545Y-53905775D01*
X70518252Y-53235917D01*
X70518948Y-53181989D01*
X70397936Y-52565510D01*
X70086969Y-52415613D01*
X69664150Y-52764789D01*
X69629985Y-52812177D01*
X69290756Y-53108129D01*
X69083927Y-52987401D01*
X69085522Y-52565068D01*
X69225619Y-52200096D01*
X69290777Y-51841860D01*
X68979118Y-51555364D01*
X68587911Y-51374593D01*
X67988662Y-51162600D01*
X67711292Y-51197922D01*
X67620712Y-51393768D01*
X67365239Y-51648067D01*
X66825867Y-51597644D01*
X66341862Y-51495877D01*
X66316439Y-51618420D01*
X64458637Y-51618420D01*
X64469021Y-51261463D01*
X64532687Y-50979065D01*
X64915536Y-50098879D01*
X65474848Y-49658455D01*
X66112068Y-49687965D01*
X66433659Y-49853979D01*
X66331256Y-50058709D01*
X66081567Y-50256749D01*
X65781278Y-50518587D01*
X65884539Y-50625748D01*
X66441579Y-50650444D01*
X67108989Y-50568991D01*
X67279336Y-50295755D01*
X66960699Y-49814392D01*
X66890376Y-49742256D01*
X66613300Y-49422006D01*
X66738425Y-49326777D01*
X66903654Y-49322106D01*
X67602776Y-49491526D01*
X68496754Y-49932126D01*
X69396962Y-50542408D01*
X69780355Y-50869988D01*
X70462886Y-51846103D01*
X70742640Y-53014289D01*
X70620381Y-54215763D01*
X70096872Y-55291741D01*
X69757271Y-55668274D01*
X69055982Y-56318207D01*
X69985828Y-57077110D01*
X70710194Y-57559876D01*
X71169184Y-57617933D01*
X71212907Y-57589332D01*
X71450789Y-57145905D01*
X71662901Y-56325439D01*
X71828388Y-55285607D01*
X71926393Y-54184085D01*
X71936060Y-53178547D01*
X71874219Y-52589700D01*
X71419366Y-51308382D01*
X70572640Y-50363301D01*
X69927825Y-49961368D01*
X69254530Y-49332851D01*
X68914737Y-48520000D01*
X68580825Y-47719255D01*
X68029468Y-47177666D01*
X67173255Y-46852707D01*
X65924774Y-46701853D01*
X65129453Y-46678459D01*
X63917419Y-46704819D01*
X63157299Y-46821828D01*
X62774686Y-47038120D01*
X62328888Y-47292094D01*
X62079548Y-47273209D01*
X61705153Y-47344782D01*
X61484931Y-47728961D01*
X61535491Y-48204936D01*
X61562216Y-48252811D01*
X61877913Y-48391991D01*
X62053803Y-48290360D01*
X62569129Y-48201089D01*
X63166316Y-48389346D01*
X63968421Y-48743938D01*
X62965790Y-48765653D01*
X62308920Y-48815938D01*
X62027871Y-49025528D01*
X61963881Y-49540856D01*
X61963158Y-49690420D01*
X61850813Y-50408897D01*
X61578768Y-50911712D01*
X61562106Y-50926316D01*
X61340184Y-51046162D01*
X61218552Y-50877905D01*
X61168633Y-50330953D01*
X61161053Y-49654950D01*
X61104514Y-48651132D01*
X60950227Y-47976591D01*
X60826842Y-47788255D01*
X60091019Y-47463499D01*
X59096487Y-47329655D01*
X58094078Y-47415421D01*
X57930525Y-47456867D01*
X57149356Y-47814155D01*
X56385478Y-48371948D01*
X55793337Y-48994390D01*
X55527380Y-49545625D01*
X55525208Y-49572654D01*
X55459414Y-49801802D01*
X55369243Y-49656316D01*
X55044624Y-49342748D01*
X54632017Y-49439648D01*
X54336763Y-49876991D01*
X54153240Y-50265340D01*
X54039918Y-50311146D01*
X54066250Y-50017902D01*
X54281337Y-49438319D01*
X54367276Y-49250761D01*
X54984370Y-48421290D01*
X55893235Y-47716079D01*
X56891372Y-47270171D01*
X57467667Y-47183158D01*
X58100808Y-47061050D01*
X58425314Y-46870898D01*
X58787427Y-46698077D01*
X59395254Y-46765678D01*
X59779807Y-46870898D01*
X60666308Y-47110334D01*
X61159711Y-47103698D01*
X61375043Y-46771501D01*
X61427331Y-46034258D01*
X61428421Y-45731669D01*
X61443868Y-45405929D01*
X61991099Y-45405929D01*
X62000320Y-46125766D01*
X62088740Y-46590034D01*
X62306744Y-46887556D01*
X62512501Y-46743970D01*
X62665685Y-46252164D01*
X62725972Y-45505029D01*
X62714594Y-45148354D01*
X62617613Y-44395226D01*
X62462208Y-43922750D01*
X62364211Y-43841053D01*
X62191732Y-44077089D01*
X62061132Y-44660876D01*
X61991099Y-45405929D01*
X61443868Y-45405929D01*
X61472072Y-44811178D01*
X61664733Y-44175088D01*
X62098972Y-43576049D01*
X62328939Y-43325353D01*
X63019496Y-42725992D01*
X63653741Y-42398848D01*
X63835522Y-42370527D01*
X64221527Y-42389904D01*
G36*
X75331579Y-55747339D02*
X75114894Y-55977141D01*
X74930527Y-56006316D01*
X74573801Y-55949112D01*
X74529474Y-55901237D01*
X74738544Y-55728837D01*
X74930527Y-55642260D01*
X75274805Y-55636703D01*
X75331579Y-55747339D01*
X75331579Y-55747339D01*
G37*
X75331579Y-55747339D02*
X75114894Y-55977141D01*
X74930527Y-56006316D01*
X74573801Y-55949112D01*
X74529474Y-55901237D01*
X74738544Y-55728837D01*
X74930527Y-55642260D01*
X75274805Y-55636703D01*
X75331579Y-55747339D01*
G36*
X63021751Y-53794086D02*
X63032632Y-53867369D01*
X62941410Y-54127786D01*
X62914727Y-54134737D01*
X62686456Y-53947382D01*
X62631579Y-53867369D01*
X62652778Y-53620993D01*
X62749484Y-53600000D01*
X63021751Y-53794086D01*
X63021751Y-53794086D01*
G37*
X63021751Y-53794086D02*
X63032632Y-53867369D01*
X62941410Y-54127786D01*
X62914727Y-54134737D01*
X62686456Y-53947382D01*
X62631579Y-53867369D01*
X62652778Y-53620993D01*
X62749484Y-53600000D01*
X63021751Y-53794086D01*
G36*
X59821145Y-52737387D02*
X59824211Y-52797895D01*
X59618671Y-53054989D01*
X59541063Y-53065263D01*
X59381381Y-52901463D01*
X59423158Y-52797895D01*
X59663417Y-52542830D01*
X59706306Y-52530527D01*
X59821145Y-52737387D01*
X59821145Y-52737387D01*
G37*
X59821145Y-52737387D02*
X59824211Y-52797895D01*
X59618671Y-53054989D01*
X59541063Y-53065263D01*
X59381381Y-52901463D01*
X59423158Y-52797895D01*
X59663417Y-52542830D01*
X59706306Y-52530527D01*
X59821145Y-52737387D01*
G36*
X58484303Y-48459493D02*
X58487369Y-48520000D01*
X58281829Y-48777094D01*
X58204221Y-48787369D01*
X58044539Y-48623569D01*
X58086316Y-48520000D01*
X58326575Y-48264935D01*
X58369464Y-48252632D01*
X58484303Y-48459493D01*
X58484303Y-48459493D01*
G37*
X58484303Y-48459493D02*
X58487369Y-48520000D01*
X58281829Y-48777094D01*
X58204221Y-48787369D01*
X58044539Y-48623569D01*
X58086316Y-48520000D01*
X58326575Y-48264935D01*
X58369464Y-48252632D01*
X58484303Y-48459493D01*
G36*
X65889801Y-47355864D02*
X65840000Y-47450527D01*
X65588082Y-47705864D01*
X65541073Y-47717895D01*
X65522831Y-47545189D01*
X65572632Y-47450527D01*
X65824550Y-47195189D01*
X65871559Y-47183158D01*
X65889801Y-47355864D01*
X65889801Y-47355864D01*
G37*
X65889801Y-47355864D02*
X65840000Y-47450527D01*
X65588082Y-47705864D01*
X65541073Y-47717895D01*
X65522831Y-47545189D01*
X65572632Y-47450527D01*
X65824550Y-47195189D01*
X65871559Y-47183158D01*
X65889801Y-47355864D01*
G36*
X65580818Y-42559786D02*
X66235774Y-43011770D01*
X66951045Y-43620277D01*
X67589776Y-44262157D01*
X68015114Y-44814260D01*
X68112632Y-45077684D01*
X68005243Y-45306426D01*
X67780767Y-45125846D01*
X67674583Y-44910527D01*
X67365970Y-44555706D01*
X67198518Y-44509474D01*
X66842756Y-44311639D01*
X66372808Y-43822745D01*
X66271548Y-43691434D01*
X65713898Y-43081098D01*
X65147455Y-42667088D01*
X65084952Y-42638908D01*
X64503158Y-42404422D01*
X65123032Y-42387474D01*
X65580818Y-42559786D01*
X65580818Y-42559786D01*
G37*
X65580818Y-42559786D02*
X66235774Y-43011770D01*
X66951045Y-43620277D01*
X67589776Y-44262157D01*
X68015114Y-44814260D01*
X68112632Y-45077684D01*
X68005243Y-45306426D01*
X67780767Y-45125846D01*
X67674583Y-44910527D01*
X67365970Y-44555706D01*
X67198518Y-44509474D01*
X66842756Y-44311639D01*
X66372808Y-43822745D01*
X66271548Y-43691434D01*
X65713898Y-43081098D01*
X65147455Y-42667088D01*
X65084952Y-42638908D01*
X64503158Y-42404422D01*
X65123032Y-42387474D01*
X65580818Y-42559786D01*
G36*
X65652842Y-44028211D02*
X65951158Y-44531135D01*
X65850395Y-44920705D01*
X65483509Y-45044211D01*
X64975128Y-44956921D01*
X64815088Y-44865965D01*
X64661964Y-44472795D01*
X64636842Y-44197544D01*
X64812221Y-43786178D01*
X65232506Y-43751965D01*
X65652842Y-44028211D01*
X65652842Y-44028211D01*
G37*
X65652842Y-44028211D02*
X65951158Y-44531135D01*
X65850395Y-44920705D01*
X65483509Y-45044211D01*
X64975128Y-44956921D01*
X64815088Y-44865965D01*
X64661964Y-44472795D01*
X64636842Y-44197544D01*
X64812221Y-43786178D01*
X65232506Y-43751965D01*
X65652842Y-44028211D01*
G36*
X66947680Y-59545169D02*
X67397727Y-59701515D01*
X67444211Y-59749474D01*
X67311008Y-59913767D01*
X66713607Y-60004079D01*
X66241053Y-60016842D01*
X65428544Y-59970977D01*
X65045201Y-59843346D01*
X65037895Y-59749474D01*
X65389001Y-59577486D01*
X66052195Y-59486444D01*
X66241053Y-59482106D01*
X66947680Y-59545169D01*
X66947680Y-59545169D01*
G37*
X66947680Y-59545169D02*
X67397727Y-59701515D01*
X67444211Y-59749474D01*
X67311008Y-59913767D01*
X66713607Y-60004079D01*
X66241053Y-60016842D01*
X65428544Y-59970977D01*
X65045201Y-59843346D01*
X65037895Y-59749474D01*
X65389001Y-59577486D01*
X66052195Y-59486444D01*
X66241053Y-59482106D01*
X66947680Y-59545169D01*
D13*
G04 #@! TO.C,J8*
X45578000Y-67724000D02*
X47610000Y-67724000D01*
X47610000Y-67724000D02*
X47610000Y-71280000D01*
X47610000Y-71280000D02*
X39990000Y-71280000D01*
X39990000Y-71280000D02*
X39990000Y-67724000D01*
X39990000Y-67724000D02*
X42022000Y-67724000D01*
X48880000Y-72296000D02*
X49896000Y-72296000D01*
X37704000Y-72296000D02*
X38720000Y-72296000D01*
X46340000Y-74328000D02*
X46340000Y-72804000D01*
X41260000Y-72804000D02*
X41260000Y-74328000D01*
X46340000Y-73566000D02*
X41260000Y-73566000D01*
X48880000Y-72296000D02*
X48880000Y-72550000D01*
X48880000Y-72550000D02*
X48880000Y-72804000D01*
X48880000Y-72804000D02*
X38720000Y-72804000D01*
X38720000Y-72804000D02*
X38720000Y-72296000D01*
X46340000Y-74328000D02*
X41260000Y-74328000D01*
X49896000Y-60104000D02*
X49896000Y-72296000D01*
X37704000Y-72296000D02*
X37704000Y-60104000D01*
X37704000Y-60104000D02*
X49896000Y-60104000D01*
D14*
G04 #@! TO.C,R3*
X70800000Y-63931000D02*
X70800000Y-62280000D01*
X70800000Y-68249000D02*
X70800000Y-69900000D01*
X69911000Y-68249000D02*
X71689000Y-68249000D01*
X71689000Y-68249000D02*
X71689000Y-63931000D01*
X71689000Y-63931000D02*
X69911000Y-63931000D01*
X69911000Y-63931000D02*
X69911000Y-68249000D01*
G04 #@! TO.C,U1*
X54812000Y-48170000D02*
X40588000Y-48170000D01*
X40588000Y-45630000D02*
X54812000Y-45630000D01*
D15*
X57860000Y-41820000D02*
X37540000Y-41820000D01*
X37540000Y-51980000D02*
X57860000Y-51980000D01*
X58876000Y-50202000D02*
X36524000Y-50202000D01*
X36524000Y-43598000D02*
X58876000Y-43598000D01*
D14*
X38810000Y-46900000D02*
G75*
G03X37540000Y-45630000I-1270000J0D01*
G01*
X37540000Y-48170000D02*
G75*
G03X38810000Y-46900000I0J1270000D01*
G01*
D15*
X37540000Y-48170000D02*
X36524000Y-48170000D01*
X37540000Y-45630000D02*
X36524000Y-45630000D01*
D14*
X40588000Y-45630000D02*
X40588000Y-48170000D01*
X54812000Y-48170000D02*
X54812000Y-45630000D01*
D15*
X57860000Y-41820000D02*
X57860000Y-51980000D01*
X37540000Y-51980000D02*
X37540000Y-41820000D01*
X58876000Y-43598000D02*
X58876000Y-50202000D01*
X36524000Y-50202000D02*
X36524000Y-43598000D01*
G04 #@! TO.C,U3*
X66324000Y-50102000D02*
X66324000Y-43498000D01*
X88676000Y-43498000D02*
X88676000Y-50102000D01*
X67340000Y-51880000D02*
X67340000Y-41720000D01*
X87660000Y-41720000D02*
X87660000Y-51880000D01*
D14*
X84612000Y-48070000D02*
X84612000Y-45530000D01*
X70388000Y-45530000D02*
X70388000Y-48070000D01*
D15*
X67340000Y-45530000D02*
X66324000Y-45530000D01*
X67340000Y-48070000D02*
X66324000Y-48070000D01*
D14*
X67340000Y-48070000D02*
G75*
G03X68610000Y-46800000I0J1270000D01*
G01*
X68610000Y-46800000D02*
G75*
G03X67340000Y-45530000I-1270000J0D01*
G01*
D15*
X66324000Y-43498000D02*
X88676000Y-43498000D01*
X88676000Y-50102000D02*
X66324000Y-50102000D01*
X67340000Y-51880000D02*
X87660000Y-51880000D01*
X87660000Y-41720000D02*
X67340000Y-41720000D01*
D14*
X70388000Y-45530000D02*
X84612000Y-45530000D01*
X84612000Y-48070000D02*
X70388000Y-48070000D01*
D11*
G04 #@! TO.C,X1*
X91740000Y-46680000D02*
G75*
G03X92490000Y-47430000I750000J0D01*
G01*
X92490000Y-26530000D02*
G75*
G03X91740000Y-27280000I0J-750000D01*
G01*
X104640000Y-27280000D02*
G75*
G03X103890000Y-26530000I-750000J0D01*
G01*
X104640000Y-47430000D02*
X104640000Y-27280000D01*
X103890000Y-26530000D02*
X92490000Y-26530000D01*
X91740000Y-27280000D02*
X91740000Y-46680000D01*
X92490000Y-47430000D02*
X104640000Y-47430000D01*
G04 #@! TO.C,C1*
X104090000Y-58550000D02*
G75*
G03X104090000Y-58550000I-5090000J0D01*
G01*
X104050000Y-58550000D02*
X93950000Y-58550000D01*
X104050000Y-58590000D02*
X93950000Y-58590000D01*
X104050000Y-58630000D02*
X93950000Y-58630000D01*
X104049000Y-58670000D02*
X93951000Y-58670000D01*
X104048000Y-58710000D02*
X93952000Y-58710000D01*
X104047000Y-58750000D02*
X93953000Y-58750000D01*
X104045000Y-58790000D02*
X93955000Y-58790000D01*
X104043000Y-58830000D02*
X93957000Y-58830000D01*
X104040000Y-58870000D02*
X93960000Y-58870000D01*
X104038000Y-58910000D02*
X93962000Y-58910000D01*
X104035000Y-58950000D02*
X93965000Y-58950000D01*
X104031000Y-58990000D02*
X93969000Y-58990000D01*
X104028000Y-59030000D02*
X93972000Y-59030000D01*
X104024000Y-59070000D02*
X93976000Y-59070000D01*
X104020000Y-59110000D02*
X93980000Y-59110000D01*
X104015000Y-59150000D02*
X100181000Y-59150000D01*
X97819000Y-59150000D02*
X93985000Y-59150000D01*
X104010000Y-59190000D02*
X100181000Y-59190000D01*
X97819000Y-59190000D02*
X93990000Y-59190000D01*
X104005000Y-59230000D02*
X100181000Y-59230000D01*
X97819000Y-59230000D02*
X93995000Y-59230000D01*
X103999000Y-59271000D02*
X100181000Y-59271000D01*
X97819000Y-59271000D02*
X94001000Y-59271000D01*
X103993000Y-59311000D02*
X100181000Y-59311000D01*
X97819000Y-59311000D02*
X94007000Y-59311000D01*
X103987000Y-59351000D02*
X100181000Y-59351000D01*
X97819000Y-59351000D02*
X94013000Y-59351000D01*
X103981000Y-59391000D02*
X100181000Y-59391000D01*
X97819000Y-59391000D02*
X94019000Y-59391000D01*
X103974000Y-59431000D02*
X100181000Y-59431000D01*
X97819000Y-59431000D02*
X94026000Y-59431000D01*
X103967000Y-59471000D02*
X100181000Y-59471000D01*
X97819000Y-59471000D02*
X94033000Y-59471000D01*
X103959000Y-59511000D02*
X100181000Y-59511000D01*
X97819000Y-59511000D02*
X94041000Y-59511000D01*
X103951000Y-59551000D02*
X100181000Y-59551000D01*
X97819000Y-59551000D02*
X94049000Y-59551000D01*
X103943000Y-59591000D02*
X100181000Y-59591000D01*
X97819000Y-59591000D02*
X94057000Y-59591000D01*
X103935000Y-59631000D02*
X100181000Y-59631000D01*
X97819000Y-59631000D02*
X94065000Y-59631000D01*
X103926000Y-59671000D02*
X100181000Y-59671000D01*
X97819000Y-59671000D02*
X94074000Y-59671000D01*
X103917000Y-59711000D02*
X100181000Y-59711000D01*
X97819000Y-59711000D02*
X94083000Y-59711000D01*
X103907000Y-59751000D02*
X100181000Y-59751000D01*
X97819000Y-59751000D02*
X94093000Y-59751000D01*
X103897000Y-59791000D02*
X100181000Y-59791000D01*
X97819000Y-59791000D02*
X94103000Y-59791000D01*
X103887000Y-59831000D02*
X100181000Y-59831000D01*
X97819000Y-59831000D02*
X94113000Y-59831000D01*
X103876000Y-59871000D02*
X100181000Y-59871000D01*
X97819000Y-59871000D02*
X94124000Y-59871000D01*
X103865000Y-59911000D02*
X100181000Y-59911000D01*
X97819000Y-59911000D02*
X94135000Y-59911000D01*
X103854000Y-59951000D02*
X100181000Y-59951000D01*
X97819000Y-59951000D02*
X94146000Y-59951000D01*
X103843000Y-59991000D02*
X100181000Y-59991000D01*
X97819000Y-59991000D02*
X94157000Y-59991000D01*
X103831000Y-60031000D02*
X100181000Y-60031000D01*
X97819000Y-60031000D02*
X94169000Y-60031000D01*
X103818000Y-60071000D02*
X100181000Y-60071000D01*
X97819000Y-60071000D02*
X94182000Y-60071000D01*
X103806000Y-60111000D02*
X100181000Y-60111000D01*
X97819000Y-60111000D02*
X94194000Y-60111000D01*
X103792000Y-60151000D02*
X100181000Y-60151000D01*
X97819000Y-60151000D02*
X94208000Y-60151000D01*
X103779000Y-60191000D02*
X100181000Y-60191000D01*
X97819000Y-60191000D02*
X94221000Y-60191000D01*
X103765000Y-60231000D02*
X100181000Y-60231000D01*
X97819000Y-60231000D02*
X94235000Y-60231000D01*
X103751000Y-60271000D02*
X100181000Y-60271000D01*
X97819000Y-60271000D02*
X94249000Y-60271000D01*
X103737000Y-60311000D02*
X100181000Y-60311000D01*
X97819000Y-60311000D02*
X94263000Y-60311000D01*
X103722000Y-60351000D02*
X100181000Y-60351000D01*
X97819000Y-60351000D02*
X94278000Y-60351000D01*
X103706000Y-60391000D02*
X100181000Y-60391000D01*
X97819000Y-60391000D02*
X94294000Y-60391000D01*
X103691000Y-60431000D02*
X100181000Y-60431000D01*
X97819000Y-60431000D02*
X94309000Y-60431000D01*
X103674000Y-60471000D02*
X100181000Y-60471000D01*
X97819000Y-60471000D02*
X94326000Y-60471000D01*
X103658000Y-60511000D02*
X100181000Y-60511000D01*
X97819000Y-60511000D02*
X94342000Y-60511000D01*
X103641000Y-60551000D02*
X100181000Y-60551000D01*
X97819000Y-60551000D02*
X94359000Y-60551000D01*
X103624000Y-60591000D02*
X100181000Y-60591000D01*
X97819000Y-60591000D02*
X94376000Y-60591000D01*
X103606000Y-60631000D02*
X100181000Y-60631000D01*
X97819000Y-60631000D02*
X94394000Y-60631000D01*
X103588000Y-60671000D02*
X100181000Y-60671000D01*
X97819000Y-60671000D02*
X94412000Y-60671000D01*
X103569000Y-60711000D02*
X100181000Y-60711000D01*
X97819000Y-60711000D02*
X94431000Y-60711000D01*
X103550000Y-60751000D02*
X100181000Y-60751000D01*
X97819000Y-60751000D02*
X94450000Y-60751000D01*
X103531000Y-60791000D02*
X100181000Y-60791000D01*
X97819000Y-60791000D02*
X94469000Y-60791000D01*
X103511000Y-60831000D02*
X100181000Y-60831000D01*
X97819000Y-60831000D02*
X94489000Y-60831000D01*
X103491000Y-60871000D02*
X100181000Y-60871000D01*
X97819000Y-60871000D02*
X94509000Y-60871000D01*
X103470000Y-60911000D02*
X100181000Y-60911000D01*
X97819000Y-60911000D02*
X94530000Y-60911000D01*
X103449000Y-60951000D02*
X100181000Y-60951000D01*
X97819000Y-60951000D02*
X94551000Y-60951000D01*
X103428000Y-60991000D02*
X100181000Y-60991000D01*
X97819000Y-60991000D02*
X94572000Y-60991000D01*
X103405000Y-61031000D02*
X100181000Y-61031000D01*
X97819000Y-61031000D02*
X94595000Y-61031000D01*
X103383000Y-61071000D02*
X100181000Y-61071000D01*
X97819000Y-61071000D02*
X94617000Y-61071000D01*
X103360000Y-61111000D02*
X100181000Y-61111000D01*
X97819000Y-61111000D02*
X94640000Y-61111000D01*
X103336000Y-61151000D02*
X100181000Y-61151000D01*
X97819000Y-61151000D02*
X94664000Y-61151000D01*
X103312000Y-61191000D02*
X100181000Y-61191000D01*
X97819000Y-61191000D02*
X94688000Y-61191000D01*
X103288000Y-61231000D02*
X100181000Y-61231000D01*
X97819000Y-61231000D02*
X94712000Y-61231000D01*
X103263000Y-61271000D02*
X100181000Y-61271000D01*
X97819000Y-61271000D02*
X94737000Y-61271000D01*
X103237000Y-61311000D02*
X100181000Y-61311000D01*
X97819000Y-61311000D02*
X94763000Y-61311000D01*
X103211000Y-61351000D02*
X100181000Y-61351000D01*
X97819000Y-61351000D02*
X94789000Y-61351000D01*
X103185000Y-61391000D02*
X100181000Y-61391000D01*
X97819000Y-61391000D02*
X94815000Y-61391000D01*
X103157000Y-61431000D02*
X100181000Y-61431000D01*
X97819000Y-61431000D02*
X94843000Y-61431000D01*
X103130000Y-61471000D02*
X100181000Y-61471000D01*
X97819000Y-61471000D02*
X94870000Y-61471000D01*
X103101000Y-61511000D02*
X94899000Y-61511000D01*
X103072000Y-61551000D02*
X94928000Y-61551000D01*
X103043000Y-61591000D02*
X94957000Y-61591000D01*
X103013000Y-61631000D02*
X94987000Y-61631000D01*
X102982000Y-61671000D02*
X95018000Y-61671000D01*
X102951000Y-61711000D02*
X95049000Y-61711000D01*
X102919000Y-61751000D02*
X95081000Y-61751000D01*
X102886000Y-61791000D02*
X95114000Y-61791000D01*
X102853000Y-61831000D02*
X95147000Y-61831000D01*
X102819000Y-61871000D02*
X95181000Y-61871000D01*
X102784000Y-61911000D02*
X95216000Y-61911000D01*
X102748000Y-61951000D02*
X95252000Y-61951000D01*
X102712000Y-61991000D02*
X95288000Y-61991000D01*
X102675000Y-62031000D02*
X95325000Y-62031000D01*
X102637000Y-62071000D02*
X95363000Y-62071000D01*
X102598000Y-62111000D02*
X95402000Y-62111000D01*
X102559000Y-62151000D02*
X95441000Y-62151000D01*
X102518000Y-62191000D02*
X95482000Y-62191000D01*
X102477000Y-62231000D02*
X95523000Y-62231000D01*
X102435000Y-62271000D02*
X95565000Y-62271000D01*
X102391000Y-62311000D02*
X95609000Y-62311000D01*
X102347000Y-62351000D02*
X95653000Y-62351000D01*
X102302000Y-62391000D02*
X95698000Y-62391000D01*
X102255000Y-62431000D02*
X95745000Y-62431000D01*
X102207000Y-62471000D02*
X95793000Y-62471000D01*
X102158000Y-62511000D02*
X95842000Y-62511000D01*
X102108000Y-62551000D02*
X95892000Y-62551000D01*
X102057000Y-62591000D02*
X95943000Y-62591000D01*
X102004000Y-62631000D02*
X95996000Y-62631000D01*
X101949000Y-62671000D02*
X96051000Y-62671000D01*
X101894000Y-62711000D02*
X96106000Y-62711000D01*
X101836000Y-62751000D02*
X96164000Y-62751000D01*
X101777000Y-62791000D02*
X96223000Y-62791000D01*
X101715000Y-62831000D02*
X96285000Y-62831000D01*
X101652000Y-62871000D02*
X96348000Y-62871000D01*
X101587000Y-62911000D02*
X96413000Y-62911000D01*
X101519000Y-62951000D02*
X96481000Y-62951000D01*
X101449000Y-62991000D02*
X96551000Y-62991000D01*
X101377000Y-63031000D02*
X96623000Y-63031000D01*
X101301000Y-63071000D02*
X96699000Y-63071000D01*
X101222000Y-63111000D02*
X96778000Y-63111000D01*
X101140000Y-63151000D02*
X96860000Y-63151000D01*
X101053000Y-63191000D02*
X96947000Y-63191000D01*
X100962000Y-63231000D02*
X97038000Y-63231000D01*
X100866000Y-63271000D02*
X97134000Y-63271000D01*
X100763000Y-63311000D02*
X97237000Y-63311000D01*
X100654000Y-63351000D02*
X97346000Y-63351000D01*
X100536000Y-63391000D02*
X97464000Y-63391000D01*
X100407000Y-63431000D02*
X97593000Y-63431000D01*
X100265000Y-63471000D02*
X97735000Y-63471000D01*
X100104000Y-63511000D02*
X97896000Y-63511000D01*
X99913000Y-63551000D02*
X98087000Y-63551000D01*
X99672000Y-63591000D02*
X98328000Y-63591000D01*
X99279000Y-63631000D02*
X98721000Y-63631000D01*
X99000000Y-54100000D02*
X99000000Y-55600000D01*
X99750000Y-54850000D02*
X98250000Y-54850000D01*
D14*
G04 #@! TO.C,RV1*
X58798860Y-68100960D02*
X58798860Y-62899040D01*
X61801140Y-68100960D02*
X61801140Y-62899040D01*
X55298740Y-68100960D02*
X55298740Y-62899040D01*
X55298740Y-62899040D02*
X65301260Y-62899040D01*
X65301260Y-62899040D02*
X65301260Y-68100960D01*
X65301260Y-68100960D02*
X55298740Y-68100960D01*
G04 #@! TO.C,D1*
D13*
X74692380Y-67368095D02*
X73692380Y-67368095D01*
X73692380Y-67130000D01*
X73740000Y-66987142D01*
X73835238Y-66891904D01*
X73930476Y-66844285D01*
X74120952Y-66796666D01*
X74263809Y-66796666D01*
X74454285Y-66844285D01*
X74549523Y-66891904D01*
X74644761Y-66987142D01*
X74692380Y-67130000D01*
X74692380Y-67368095D01*
X74692380Y-65844285D02*
X74692380Y-66415714D01*
X74692380Y-66130000D02*
X73692380Y-66130000D01*
X73835238Y-66225238D01*
X73930476Y-66320476D01*
X73978095Y-66415714D01*
G04 #@! TO.C,J1*
X49982380Y-30748333D02*
X50696666Y-30748333D01*
X50839523Y-30795952D01*
X50934761Y-30891190D01*
X50982380Y-31034047D01*
X50982380Y-31129285D01*
X50982380Y-29748333D02*
X50982380Y-30319761D01*
X50982380Y-30034047D02*
X49982380Y-30034047D01*
X50125238Y-30129285D01*
X50220476Y-30224523D01*
X50268095Y-30319761D01*
G04 #@! TO.C,J2*
X68982380Y-30848333D02*
X69696666Y-30848333D01*
X69839523Y-30895952D01*
X69934761Y-30991190D01*
X69982380Y-31134047D01*
X69982380Y-31229285D01*
X69077619Y-30419761D02*
X69030000Y-30372142D01*
X68982380Y-30276904D01*
X68982380Y-30038809D01*
X69030000Y-29943571D01*
X69077619Y-29895952D01*
X69172857Y-29848333D01*
X69268095Y-29848333D01*
X69410952Y-29895952D01*
X69982380Y-30467380D01*
X69982380Y-29848333D01*
G04 #@! TO.C,J3*
X34882380Y-31048333D02*
X35596666Y-31048333D01*
X35739523Y-31095952D01*
X35834761Y-31191190D01*
X35882380Y-31334047D01*
X35882380Y-31429285D01*
X34882380Y-30667380D02*
X34882380Y-30048333D01*
X35263333Y-30381666D01*
X35263333Y-30238809D01*
X35310952Y-30143571D01*
X35358571Y-30095952D01*
X35453809Y-30048333D01*
X35691904Y-30048333D01*
X35787142Y-30095952D01*
X35834761Y-30143571D01*
X35882380Y-30238809D01*
X35882380Y-30524523D01*
X35834761Y-30619761D01*
X35787142Y-30667380D01*
G04 #@! TO.C,J6*
X87616666Y-62752380D02*
X87616666Y-63466666D01*
X87569047Y-63609523D01*
X87473809Y-63704761D01*
X87330952Y-63752380D01*
X87235714Y-63752380D01*
X88521428Y-62752380D02*
X88330952Y-62752380D01*
X88235714Y-62800000D01*
X88188095Y-62847619D01*
X88092857Y-62990476D01*
X88045238Y-63180952D01*
X88045238Y-63561904D01*
X88092857Y-63657142D01*
X88140476Y-63704761D01*
X88235714Y-63752380D01*
X88426190Y-63752380D01*
X88521428Y-63704761D01*
X88569047Y-63657142D01*
X88616666Y-63561904D01*
X88616666Y-63323809D01*
X88569047Y-63228571D01*
X88521428Y-63180952D01*
X88426190Y-63133333D01*
X88235714Y-63133333D01*
X88140476Y-63180952D01*
X88092857Y-63228571D01*
X88045238Y-63323809D01*
G04 #@! TO.C,J7*
X85066666Y-28452380D02*
X85066666Y-29166666D01*
X85019047Y-29309523D01*
X84923809Y-29404761D01*
X84780952Y-29452380D01*
X84685714Y-29452380D01*
X85447619Y-28452380D02*
X86114285Y-28452380D01*
X85685714Y-29452380D01*
G04 #@! TO.C,J8*
X47851333Y-58649904D02*
X47851333Y-59221333D01*
X47813238Y-59335619D01*
X47737047Y-59411809D01*
X47622761Y-59449904D01*
X47546571Y-59449904D01*
X48346571Y-58992761D02*
X48270380Y-58954666D01*
X48232285Y-58916571D01*
X48194190Y-58840380D01*
X48194190Y-58802285D01*
X48232285Y-58726095D01*
X48270380Y-58688000D01*
X48346571Y-58649904D01*
X48498952Y-58649904D01*
X48575142Y-58688000D01*
X48613238Y-58726095D01*
X48651333Y-58802285D01*
X48651333Y-58840380D01*
X48613238Y-58916571D01*
X48575142Y-58954666D01*
X48498952Y-58992761D01*
X48346571Y-58992761D01*
X48270380Y-59030857D01*
X48232285Y-59068952D01*
X48194190Y-59145142D01*
X48194190Y-59297523D01*
X48232285Y-59373714D01*
X48270380Y-59411809D01*
X48346571Y-59449904D01*
X48498952Y-59449904D01*
X48575142Y-59411809D01*
X48613238Y-59373714D01*
X48651333Y-59297523D01*
X48651333Y-59145142D01*
X48613238Y-59068952D01*
X48575142Y-59030857D01*
X48498952Y-58992761D01*
D16*
X42014285Y-65563428D02*
X42014285Y-66049142D01*
X41985714Y-66106285D01*
X41957142Y-66134857D01*
X41900000Y-66163428D01*
X41814285Y-66163428D01*
X41757142Y-66134857D01*
X42014285Y-65934857D02*
X41957142Y-65963428D01*
X41842857Y-65963428D01*
X41785714Y-65934857D01*
X41757142Y-65906285D01*
X41728571Y-65849142D01*
X41728571Y-65677714D01*
X41757142Y-65620571D01*
X41785714Y-65592000D01*
X41842857Y-65563428D01*
X41957142Y-65563428D01*
X42014285Y-65592000D01*
X42528571Y-65934857D02*
X42471428Y-65963428D01*
X42357142Y-65963428D01*
X42300000Y-65934857D01*
X42271428Y-65877714D01*
X42271428Y-65649142D01*
X42300000Y-65592000D01*
X42357142Y-65563428D01*
X42471428Y-65563428D01*
X42528571Y-65592000D01*
X42557142Y-65649142D01*
X42557142Y-65706285D01*
X42271428Y-65763428D01*
X42900000Y-65963428D02*
X42842857Y-65934857D01*
X42814285Y-65877714D01*
X42814285Y-65363428D01*
X43385714Y-65563428D02*
X43385714Y-65963428D01*
X43128571Y-65563428D02*
X43128571Y-65877714D01*
X43157142Y-65934857D01*
X43214285Y-65963428D01*
X43300000Y-65963428D01*
X43357142Y-65934857D01*
X43385714Y-65906285D01*
X43671428Y-65963428D02*
X43671428Y-65563428D01*
X43671428Y-65363428D02*
X43642857Y-65392000D01*
X43671428Y-65420571D01*
X43700000Y-65392000D01*
X43671428Y-65363428D01*
X43671428Y-65420571D01*
X44214285Y-65963428D02*
X44214285Y-65363428D01*
X44214285Y-65934857D02*
X44157142Y-65963428D01*
X44042857Y-65963428D01*
X43985714Y-65934857D01*
X43957142Y-65906285D01*
X43928571Y-65849142D01*
X43928571Y-65677714D01*
X43957142Y-65620571D01*
X43985714Y-65592000D01*
X44042857Y-65563428D01*
X44157142Y-65563428D01*
X44214285Y-65592000D01*
X44357142Y-66020571D02*
X44814285Y-66020571D01*
X45214285Y-65563428D02*
X45214285Y-65963428D01*
X44957142Y-65563428D02*
X44957142Y-65877714D01*
X44985714Y-65934857D01*
X45042857Y-65963428D01*
X45128571Y-65963428D01*
X45185714Y-65934857D01*
X45214285Y-65906285D01*
X45500000Y-65963428D02*
X45500000Y-65563428D01*
X45500000Y-65363428D02*
X45471428Y-65392000D01*
X45500000Y-65420571D01*
X45528571Y-65392000D01*
X45500000Y-65363428D01*
X45500000Y-65420571D01*
X45700000Y-65563428D02*
X45928571Y-65563428D01*
X45785714Y-65363428D02*
X45785714Y-65877714D01*
X45814285Y-65934857D01*
X45871428Y-65963428D01*
X45928571Y-65963428D01*
G04 #@! TO.C,R3*
D17*
X71431976Y-66301666D02*
X70766738Y-66725000D01*
X71431976Y-67027380D02*
X70034976Y-67027380D01*
X70034976Y-66543571D01*
X70101500Y-66422619D01*
X70168023Y-66362142D01*
X70301071Y-66301666D01*
X70500642Y-66301666D01*
X70633690Y-66362142D01*
X70700214Y-66422619D01*
X70766738Y-66543571D01*
X70766738Y-67027380D01*
X70034976Y-65878333D02*
X70034976Y-65092142D01*
X70567166Y-65515476D01*
X70567166Y-65334047D01*
X70633690Y-65213095D01*
X70700214Y-65152619D01*
X70833261Y-65092142D01*
X71165880Y-65092142D01*
X71298928Y-65152619D01*
X71365452Y-65213095D01*
X71431976Y-65334047D01*
X71431976Y-65696904D01*
X71365452Y-65817857D01*
X71298928Y-65878333D01*
G04 #@! TO.C,U1*
D18*
X46829142Y-39715428D02*
X46829142Y-40949142D01*
X46883571Y-41094285D01*
X46938000Y-41166857D01*
X47046857Y-41239428D01*
X47264571Y-41239428D01*
X47373428Y-41166857D01*
X47427857Y-41094285D01*
X47482285Y-40949142D01*
X47482285Y-39715428D01*
X48625285Y-41239428D02*
X47972142Y-41239428D01*
X48298714Y-41239428D02*
X48298714Y-39715428D01*
X48189857Y-39933142D01*
X48081000Y-40078285D01*
X47972142Y-40150857D01*
D19*
D18*
X44162142Y-54193428D02*
X44162142Y-52669428D01*
X44597571Y-52669428D01*
X44706428Y-52742000D01*
X44760857Y-52814571D01*
X44815285Y-52959714D01*
X44815285Y-53177428D01*
X44760857Y-53322571D01*
X44706428Y-53395142D01*
X44597571Y-53467714D01*
X44162142Y-53467714D01*
X45958285Y-54048285D02*
X45903857Y-54120857D01*
X45740571Y-54193428D01*
X45631714Y-54193428D01*
X45468428Y-54120857D01*
X45359571Y-53975714D01*
X45305142Y-53830571D01*
X45250714Y-53540285D01*
X45250714Y-53322571D01*
X45305142Y-53032285D01*
X45359571Y-52887142D01*
X45468428Y-52742000D01*
X45631714Y-52669428D01*
X45740571Y-52669428D01*
X45903857Y-52742000D01*
X45958285Y-52814571D01*
X46829142Y-53395142D02*
X46448142Y-53395142D01*
X46448142Y-54193428D02*
X46448142Y-52669428D01*
X46992428Y-52669428D01*
X47591142Y-53322571D02*
X47482285Y-53250000D01*
X47427857Y-53177428D01*
X47373428Y-53032285D01*
X47373428Y-52959714D01*
X47427857Y-52814571D01*
X47482285Y-52742000D01*
X47591142Y-52669428D01*
X47808857Y-52669428D01*
X47917714Y-52742000D01*
X47972142Y-52814571D01*
X48026571Y-52959714D01*
X48026571Y-53032285D01*
X47972142Y-53177428D01*
X47917714Y-53250000D01*
X47808857Y-53322571D01*
X47591142Y-53322571D01*
X47482285Y-53395142D01*
X47427857Y-53467714D01*
X47373428Y-53612857D01*
X47373428Y-53903142D01*
X47427857Y-54048285D01*
X47482285Y-54120857D01*
X47591142Y-54193428D01*
X47808857Y-54193428D01*
X47917714Y-54120857D01*
X47972142Y-54048285D01*
X48026571Y-53903142D01*
X48026571Y-53612857D01*
X47972142Y-53467714D01*
X47917714Y-53395142D01*
X47808857Y-53322571D01*
X49060714Y-52669428D02*
X48516428Y-52669428D01*
X48462000Y-53395142D01*
X48516428Y-53322571D01*
X48625285Y-53250000D01*
X48897428Y-53250000D01*
X49006285Y-53322571D01*
X49060714Y-53395142D01*
X49115142Y-53540285D01*
X49115142Y-53903142D01*
X49060714Y-54048285D01*
X49006285Y-54120857D01*
X48897428Y-54193428D01*
X48625285Y-54193428D01*
X48516428Y-54120857D01*
X48462000Y-54048285D01*
X49496142Y-52669428D02*
X50258142Y-52669428D01*
X49768285Y-54193428D01*
X51183428Y-53177428D02*
X51183428Y-54193428D01*
X50911285Y-52596857D02*
X50639142Y-53685428D01*
X51346714Y-53685428D01*
D19*
G04 #@! TO.C,U3*
D18*
X76629142Y-39615428D02*
X76629142Y-40849142D01*
X76683571Y-40994285D01*
X76738000Y-41066857D01*
X76846857Y-41139428D01*
X77064571Y-41139428D01*
X77173428Y-41066857D01*
X77227857Y-40994285D01*
X77282285Y-40849142D01*
X77282285Y-39615428D01*
X77717714Y-39615428D02*
X78425285Y-39615428D01*
X78044285Y-40196000D01*
X78207571Y-40196000D01*
X78316428Y-40268571D01*
X78370857Y-40341142D01*
X78425285Y-40486285D01*
X78425285Y-40849142D01*
X78370857Y-40994285D01*
X78316428Y-41066857D01*
X78207571Y-41139428D01*
X77881000Y-41139428D01*
X77772142Y-41066857D01*
X77717714Y-40994285D01*
D19*
D18*
X73853285Y-54020857D02*
X74016571Y-54093428D01*
X74288714Y-54093428D01*
X74397571Y-54020857D01*
X74452000Y-53948285D01*
X74506428Y-53803142D01*
X74506428Y-53658000D01*
X74452000Y-53512857D01*
X74397571Y-53440285D01*
X74288714Y-53367714D01*
X74071000Y-53295142D01*
X73962142Y-53222571D01*
X73907714Y-53150000D01*
X73853285Y-53004857D01*
X73853285Y-52859714D01*
X73907714Y-52714571D01*
X73962142Y-52642000D01*
X74071000Y-52569428D01*
X74343142Y-52569428D01*
X74506428Y-52642000D01*
X74996285Y-54093428D02*
X74996285Y-52569428D01*
X75649428Y-54093428D01*
X75649428Y-52569428D01*
X76084857Y-52569428D02*
X76846857Y-52569428D01*
X76357000Y-54093428D01*
X77772142Y-52569428D02*
X77554428Y-52569428D01*
X77445571Y-52642000D01*
X77391142Y-52714571D01*
X77282285Y-52932285D01*
X77227857Y-53222571D01*
X77227857Y-53803142D01*
X77282285Y-53948285D01*
X77336714Y-54020857D01*
X77445571Y-54093428D01*
X77663285Y-54093428D01*
X77772142Y-54020857D01*
X77826571Y-53948285D01*
X77881000Y-53803142D01*
X77881000Y-53440285D01*
X77826571Y-53295142D01*
X77772142Y-53222571D01*
X77663285Y-53150000D01*
X77445571Y-53150000D01*
X77336714Y-53222571D01*
X77282285Y-53295142D01*
X77227857Y-53440285D01*
X78860714Y-53077428D02*
X78860714Y-54093428D01*
X78588571Y-52496857D02*
X78316428Y-53585428D01*
X79024000Y-53585428D01*
X79622714Y-53222571D02*
X79513857Y-53150000D01*
X79459428Y-53077428D01*
X79405000Y-52932285D01*
X79405000Y-52859714D01*
X79459428Y-52714571D01*
X79513857Y-52642000D01*
X79622714Y-52569428D01*
X79840428Y-52569428D01*
X79949285Y-52642000D01*
X80003714Y-52714571D01*
X80058142Y-52859714D01*
X80058142Y-52932285D01*
X80003714Y-53077428D01*
X79949285Y-53150000D01*
X79840428Y-53222571D01*
X79622714Y-53222571D01*
X79513857Y-53295142D01*
X79459428Y-53367714D01*
X79405000Y-53512857D01*
X79405000Y-53803142D01*
X79459428Y-53948285D01*
X79513857Y-54020857D01*
X79622714Y-54093428D01*
X79840428Y-54093428D01*
X79949285Y-54020857D01*
X80003714Y-53948285D01*
X80058142Y-53803142D01*
X80058142Y-53512857D01*
X80003714Y-53367714D01*
X79949285Y-53295142D01*
X79840428Y-53222571D01*
X80602428Y-54093428D02*
X80820142Y-54093428D01*
X80929000Y-54020857D01*
X80983428Y-53948285D01*
X81092285Y-53730571D01*
X81146714Y-53440285D01*
X81146714Y-52859714D01*
X81092285Y-52714571D01*
X81037857Y-52642000D01*
X80929000Y-52569428D01*
X80711285Y-52569428D01*
X80602428Y-52642000D01*
X80548000Y-52714571D01*
X80493571Y-52859714D01*
X80493571Y-53222571D01*
X80548000Y-53367714D01*
X80602428Y-53440285D01*
X80711285Y-53512857D01*
X80929000Y-53512857D01*
X81037857Y-53440285D01*
X81092285Y-53367714D01*
X81146714Y-53222571D01*
D19*
G04 #@! TO.C,X1*
D13*
X90192380Y-37789523D02*
X91192380Y-37122857D01*
X90192380Y-37122857D02*
X91192380Y-37789523D01*
X91192380Y-36218095D02*
X91192380Y-36789523D01*
X91192380Y-36503809D02*
X90192380Y-36503809D01*
X90335238Y-36599047D01*
X90430476Y-36694285D01*
X90478095Y-36789523D01*
G04 #@! TO.C,C1*
X105667142Y-58716666D02*
X105714761Y-58764285D01*
X105762380Y-58907142D01*
X105762380Y-59002380D01*
X105714761Y-59145238D01*
X105619523Y-59240476D01*
X105524285Y-59288095D01*
X105333809Y-59335714D01*
X105190952Y-59335714D01*
X105000476Y-59288095D01*
X104905238Y-59240476D01*
X104810000Y-59145238D01*
X104762380Y-59002380D01*
X104762380Y-58907142D01*
X104810000Y-58764285D01*
X104857619Y-58716666D01*
X105762380Y-57764285D02*
X105762380Y-58335714D01*
X105762380Y-58050000D02*
X104762380Y-58050000D01*
X104905238Y-58145238D01*
X105000476Y-58240476D01*
X105048095Y-58335714D01*
G04 #@! TO.C,RV1*
D20*
X59392857Y-61289768D02*
X58884857Y-60564054D01*
X58522000Y-61289768D02*
X58522000Y-59765768D01*
X59102571Y-59765768D01*
X59247714Y-59838340D01*
X59320285Y-59910911D01*
X59392857Y-60056054D01*
X59392857Y-60273768D01*
X59320285Y-60418911D01*
X59247714Y-60491482D01*
X59102571Y-60564054D01*
X58522000Y-60564054D01*
X59828285Y-59765768D02*
X60336285Y-61289768D01*
X60844285Y-59765768D01*
X62150571Y-61289768D02*
X61279714Y-61289768D01*
X61715142Y-61289768D02*
X61715142Y-59765768D01*
X61570000Y-59983482D01*
X61424857Y-60128625D01*
X61279714Y-60201197D01*
X55873142Y-70888428D02*
X55873142Y-69364428D01*
X56453714Y-69364428D01*
X56598857Y-69437000D01*
X56671428Y-69509571D01*
X56744000Y-69654714D01*
X56744000Y-69872428D01*
X56671428Y-70017571D01*
X56598857Y-70090142D01*
X56453714Y-70162714D01*
X55873142Y-70162714D01*
X57687428Y-69364428D02*
X57977714Y-69364428D01*
X58122857Y-69437000D01*
X58268000Y-69582142D01*
X58340571Y-69872428D01*
X58340571Y-70380428D01*
X58268000Y-70670714D01*
X58122857Y-70815857D01*
X57977714Y-70888428D01*
X57687428Y-70888428D01*
X57542285Y-70815857D01*
X57397142Y-70670714D01*
X57324571Y-70380428D01*
X57324571Y-69872428D01*
X57397142Y-69582142D01*
X57542285Y-69437000D01*
X57687428Y-69364428D01*
X58776000Y-69364428D02*
X59646857Y-69364428D01*
X59211428Y-70888428D02*
X59211428Y-69364428D01*
X59792000Y-71033571D02*
X60953142Y-71033571D01*
X62041714Y-69364428D02*
X61316000Y-69364428D01*
X61243428Y-70090142D01*
X61316000Y-70017571D01*
X61461142Y-69945000D01*
X61824000Y-69945000D01*
X61969142Y-70017571D01*
X62041714Y-70090142D01*
X62114285Y-70235285D01*
X62114285Y-70598142D01*
X62041714Y-70743285D01*
X61969142Y-70815857D01*
X61824000Y-70888428D01*
X61461142Y-70888428D01*
X61316000Y-70815857D01*
X61243428Y-70743285D01*
X63057714Y-69364428D02*
X63202857Y-69364428D01*
X63348000Y-69437000D01*
X63420571Y-69509571D01*
X63493142Y-69654714D01*
X63565714Y-69945000D01*
X63565714Y-70307857D01*
X63493142Y-70598142D01*
X63420571Y-70743285D01*
X63348000Y-70815857D01*
X63202857Y-70888428D01*
X63057714Y-70888428D01*
X62912571Y-70815857D01*
X62840000Y-70743285D01*
X62767428Y-70598142D01*
X62694857Y-70307857D01*
X62694857Y-69945000D01*
X62767428Y-69654714D01*
X62840000Y-69509571D01*
X62912571Y-69437000D01*
X63057714Y-69364428D01*
X64218857Y-70888428D02*
X64218857Y-69364428D01*
X64364000Y-70307857D02*
X64799428Y-70888428D01*
X64799428Y-69872428D02*
X64218857Y-70453000D01*
G04 #@! TD*
M02*
