G04 #@! TF.FileFunction,Copper,L2,Bot,Signal*
%FSLAX46Y46*%
G04 Gerber Fmt 4.6, Leading zero omitted, Abs format (unit mm)*
G04 Created by KiCad (PCBNEW 4.0.7) date 06/02/18 15:44:57*
%MOMM*%
%LPD*%
G01*
G04 APERTURE LIST*
%ADD10C,0.100000*%
%ADD11R,1.600000X1.600000*%
%ADD12C,1.600000*%
%ADD13R,1.700000X1.700000*%
%ADD14O,1.700000X1.700000*%
%ADD15C,1.998980*%
%ADD16O,2.199640X1.501140*%
%ADD17C,0.600000*%
%ADD18C,0.750000*%
%ADD19C,0.850000*%
G04 APERTURE END LIST*
D10*
D11*
X68000000Y-25000000D03*
D12*
X70500000Y-25000000D03*
D11*
X79500000Y-51500000D03*
D12*
X82000000Y-51500000D03*
D13*
X36068000Y-28448000D03*
D14*
X33528000Y-28448000D03*
X30988000Y-28448000D03*
D13*
X79000000Y-24000000D03*
D14*
X79000000Y-26540000D03*
D13*
X48260000Y-28956000D03*
D14*
X45720000Y-28956000D03*
X43180000Y-28956000D03*
D13*
X65000000Y-49000000D03*
D14*
X67540000Y-49000000D03*
X70080000Y-49000000D03*
D15*
X57404000Y-28194000D03*
X57404000Y-20574000D03*
X82498740Y-35000640D03*
X92501260Y-37500000D03*
X82498740Y-39999360D03*
D16*
X47190000Y-37110000D03*
X47190000Y-39650000D03*
X47190000Y-42190000D03*
X47190000Y-44730000D03*
X47190000Y-47270000D03*
X47190000Y-49810000D03*
X47190000Y-52350000D03*
X47190000Y-54890000D03*
X54810000Y-54890000D03*
X54810000Y-52350000D03*
X54810000Y-49810000D03*
X54810000Y-47270000D03*
X54810000Y-44730000D03*
X54810000Y-42190000D03*
X54810000Y-39650000D03*
X54810000Y-37110000D03*
X65190000Y-35190000D03*
X65190000Y-37730000D03*
X65190000Y-40270000D03*
X65190000Y-42810000D03*
X72810000Y-42810000D03*
X72810000Y-40270000D03*
X72810000Y-37730000D03*
X72810000Y-35190000D03*
X29190000Y-37110000D03*
X29190000Y-39650000D03*
X29190000Y-42190000D03*
X29190000Y-44730000D03*
X29190000Y-47270000D03*
X29190000Y-49810000D03*
X29190000Y-52350000D03*
X29190000Y-54890000D03*
X36810000Y-54890000D03*
X36810000Y-52350000D03*
X36810000Y-49810000D03*
X36810000Y-47270000D03*
X36810000Y-44730000D03*
X36810000Y-42190000D03*
X36810000Y-39650000D03*
X36810000Y-37110000D03*
D17*
X67750000Y-35250000D03*
X33000000Y-44750000D03*
X31500000Y-37750000D03*
X79000000Y-36500000D03*
X51000000Y-40250000D03*
X57500000Y-36250000D03*
X62500000Y-36250000D03*
X41000000Y-51250000D03*
X40500000Y-49750000D03*
X39000000Y-59500000D03*
X34250000Y-58500000D03*
X33000000Y-49500000D03*
X34500000Y-32000000D03*
X27750000Y-32500000D03*
X41750000Y-61000000D03*
X25750000Y-39500000D03*
X26250000Y-55500000D03*
X49750000Y-58500000D03*
X28250000Y-34500000D03*
X47250000Y-33500000D03*
X37500000Y-58000000D03*
X51000000Y-54750000D03*
X51000000Y-49750000D03*
D18*
X72810000Y-35190000D02*
X72500000Y-35000000D01*
X72500000Y-35000000D02*
X71000000Y-33500000D01*
X71000000Y-33500000D02*
X63250000Y-33500000D01*
X63250000Y-33500000D02*
X62000000Y-34750000D01*
X62000000Y-34750000D02*
X57250000Y-34750000D01*
X57250000Y-34750000D02*
X57000000Y-35000000D01*
X57000000Y-35000000D02*
X56750000Y-35000000D01*
X56750000Y-35000000D02*
X54750000Y-37000000D01*
X54750000Y-37000000D02*
X54810000Y-37110000D01*
X54810000Y-37110000D02*
X54750000Y-37000000D01*
X54750000Y-37000000D02*
X53250000Y-35500000D01*
X53250000Y-35500000D02*
X45250000Y-35500000D01*
X45250000Y-35500000D02*
X43750000Y-37000000D01*
X43750000Y-37000000D02*
X36750000Y-37000000D01*
X36750000Y-37000000D02*
X36810000Y-37110000D01*
X35814000Y-29083000D02*
X35774000Y-29068000D01*
X67540000Y-49000000D02*
X67500000Y-49000000D01*
X67500000Y-49000000D02*
X67500000Y-48000000D01*
X67500000Y-48000000D02*
X64000000Y-44500000D01*
X64000000Y-44500000D02*
X63250000Y-44500000D01*
X63250000Y-44500000D02*
X61000000Y-42250000D01*
X61000000Y-42250000D02*
X54750000Y-42250000D01*
X54750000Y-42250000D02*
X54810000Y-42190000D01*
X67540000Y-49000000D02*
X67500000Y-49000000D01*
X68000000Y-25000000D02*
X66750000Y-26250000D01*
X66750000Y-26250000D02*
X56500000Y-26250000D01*
X56500000Y-26250000D02*
X56000000Y-26750000D01*
X56000000Y-26750000D02*
X48250000Y-26750000D01*
X48250000Y-26750000D02*
X48000000Y-27000000D01*
X48000000Y-27000000D02*
X47500000Y-27000000D01*
X47500000Y-27000000D02*
X47250000Y-27250000D01*
X47250000Y-27250000D02*
X41500000Y-27250000D01*
X41500000Y-27250000D02*
X38250000Y-30500000D01*
X38250000Y-30500000D02*
X28750000Y-30500000D01*
X28750000Y-30500000D02*
X28500000Y-30750000D01*
X28500000Y-30750000D02*
X27750000Y-30750000D01*
X27750000Y-30750000D02*
X27500000Y-31000000D01*
X27500000Y-31000000D02*
X26750000Y-31000000D01*
X26750000Y-31000000D02*
X26750000Y-31500000D01*
X26750000Y-31500000D02*
X26500000Y-31750000D01*
X26500000Y-31750000D02*
X26500000Y-32000000D01*
X26500000Y-32000000D02*
X26250000Y-32250000D01*
X26250000Y-32250000D02*
X26250000Y-36500000D01*
X26250000Y-36500000D02*
X26000000Y-36750000D01*
X26000000Y-36750000D02*
X26000000Y-37250000D01*
X26000000Y-37250000D02*
X24500000Y-38750000D01*
X24500000Y-38750000D02*
X24500000Y-39000000D01*
X24500000Y-39000000D02*
X24250000Y-39250000D01*
X24250000Y-39250000D02*
X24250000Y-48500000D01*
X24250000Y-48500000D02*
X28000000Y-52250000D01*
X28000000Y-52250000D02*
X29250000Y-52250000D01*
X29250000Y-52250000D02*
X29190000Y-52350000D01*
X70500000Y-25000000D02*
X70500000Y-24000000D01*
X70500000Y-24000000D02*
X67000000Y-20500000D01*
X67000000Y-20500000D02*
X57500000Y-20500000D01*
X57500000Y-20500000D02*
X57404000Y-20574000D01*
X70500000Y-25000000D02*
X71500000Y-24000000D01*
X71500000Y-24000000D02*
X79000000Y-24000000D01*
X57500000Y-20500000D02*
X57404000Y-20574000D01*
X67750000Y-35250000D02*
X65250000Y-35250000D01*
X65250000Y-35250000D02*
X65190000Y-35190000D01*
X33000000Y-44750000D02*
X30500000Y-47250000D01*
X30500000Y-47250000D02*
X29250000Y-47250000D01*
X29250000Y-47250000D02*
X29190000Y-47270000D01*
X31500000Y-37750000D02*
X31500000Y-38000000D01*
X31500000Y-38000000D02*
X35750000Y-42250000D01*
X35750000Y-42250000D02*
X36750000Y-42250000D01*
X36750000Y-42250000D02*
X36810000Y-42190000D01*
X82498740Y-39999360D02*
X82500000Y-40000000D01*
X82500000Y-40000000D02*
X79000000Y-36500000D01*
X47190000Y-42190000D02*
X47500000Y-42000000D01*
X47500000Y-42000000D02*
X48250000Y-41250000D01*
X48250000Y-41250000D02*
X49250000Y-41250000D01*
X49250000Y-41250000D02*
X50250000Y-40250000D01*
X50250000Y-40250000D02*
X51000000Y-40250000D01*
X57500000Y-36250000D02*
X64000000Y-42750000D01*
X64000000Y-42750000D02*
X65250000Y-42750000D01*
X65250000Y-42750000D02*
X65190000Y-42810000D01*
X65190000Y-40270000D02*
X65250000Y-40250000D01*
X65250000Y-40250000D02*
X66000000Y-41000000D01*
X66000000Y-41000000D02*
X67250000Y-41000000D01*
X67250000Y-41000000D02*
X70750000Y-44500000D01*
X70750000Y-44500000D02*
X74750000Y-44500000D01*
X74750000Y-44500000D02*
X79250000Y-40000000D01*
X79250000Y-40000000D02*
X82500000Y-40000000D01*
X82500000Y-40000000D02*
X82498740Y-39999360D01*
X47190000Y-54890000D02*
X47250000Y-55000000D01*
X47250000Y-55000000D02*
X45750000Y-56500000D01*
X45750000Y-56500000D02*
X34750000Y-56500000D01*
X34750000Y-56500000D02*
X33250000Y-55000000D01*
X33250000Y-55000000D02*
X29250000Y-55000000D01*
X29250000Y-55000000D02*
X29190000Y-54890000D01*
X43000000Y-29000000D02*
X43180000Y-28956000D01*
X82500000Y-40000000D02*
X82498740Y-39999360D01*
X48260000Y-28956000D02*
X48250000Y-29000000D01*
X48250000Y-29000000D02*
X51250000Y-32000000D01*
X51250000Y-32000000D02*
X71250000Y-32000000D01*
X71250000Y-32000000D02*
X71500000Y-32250000D01*
X71500000Y-32250000D02*
X72250000Y-32250000D01*
X72250000Y-32250000D02*
X73000000Y-33000000D01*
X73000000Y-33000000D02*
X83250000Y-33000000D01*
X83250000Y-33000000D02*
X83500000Y-33250000D01*
X83500000Y-33250000D02*
X83750000Y-33250000D01*
X83750000Y-33250000D02*
X85000000Y-34500000D01*
X85000000Y-34500000D02*
X88250000Y-34500000D01*
X88250000Y-34500000D02*
X88500000Y-34750000D01*
X88500000Y-34750000D02*
X89000000Y-34750000D01*
X89000000Y-34750000D02*
X91750000Y-37500000D01*
X91750000Y-37500000D02*
X92501260Y-37500000D01*
X48260000Y-28956000D02*
X48500000Y-29000000D01*
X92000000Y-37500000D02*
X92501260Y-37500000D01*
X48260000Y-28956000D02*
X48500000Y-29000000D01*
X48500000Y-29000000D02*
X45500000Y-29000000D01*
X45500000Y-29000000D02*
X45720000Y-28956000D01*
D19*
X48514000Y-28702000D02*
X48260000Y-28448000D01*
D18*
X65190000Y-37730000D02*
X65250000Y-37750000D01*
X65250000Y-37750000D02*
X64500000Y-37000000D01*
X64500000Y-37000000D02*
X63250000Y-37000000D01*
X63250000Y-37000000D02*
X62500000Y-36250000D01*
X57500000Y-28000000D02*
X57404000Y-28194000D01*
X41000000Y-51250000D02*
X40000000Y-52250000D01*
X40000000Y-52250000D02*
X36750000Y-52250000D01*
X36750000Y-52250000D02*
X36810000Y-52350000D01*
X36810000Y-49810000D02*
X37000000Y-49500000D01*
X37000000Y-49500000D02*
X37500000Y-49000000D01*
X37500000Y-49000000D02*
X38750000Y-49000000D01*
X38750000Y-49000000D02*
X40500000Y-47250000D01*
X40500000Y-47250000D02*
X47250000Y-47250000D01*
X47250000Y-47250000D02*
X47190000Y-47270000D01*
X47190000Y-49810000D02*
X47250000Y-49750000D01*
X47250000Y-49750000D02*
X40500000Y-49750000D01*
X39000000Y-59500000D02*
X38750000Y-59250000D01*
X38750000Y-59250000D02*
X36250000Y-59250000D01*
X36250000Y-59250000D02*
X35500000Y-58500000D01*
X35500000Y-58500000D02*
X34250000Y-58500000D01*
X33000000Y-49500000D02*
X33000000Y-47250000D01*
X33000000Y-47250000D02*
X35500000Y-44750000D01*
X35500000Y-44750000D02*
X36750000Y-44750000D01*
X36750000Y-44750000D02*
X36810000Y-44730000D01*
X34500000Y-32000000D02*
X29000000Y-32000000D01*
X29000000Y-32000000D02*
X28750000Y-32250000D01*
X28750000Y-32250000D02*
X28000000Y-32250000D01*
X28000000Y-32250000D02*
X27750000Y-32500000D01*
X41750000Y-61000000D02*
X46500000Y-61000000D01*
X46500000Y-61000000D02*
X46750000Y-60750000D01*
X46750000Y-60750000D02*
X47500000Y-60750000D01*
X47500000Y-60750000D02*
X47750000Y-60500000D01*
X47750000Y-60500000D02*
X48500000Y-60500000D01*
X48500000Y-60500000D02*
X48750000Y-60250000D01*
X48750000Y-60250000D02*
X49500000Y-60250000D01*
X49500000Y-60250000D02*
X50000000Y-59750000D01*
X50000000Y-59750000D02*
X51000000Y-59750000D01*
X51000000Y-59750000D02*
X51000000Y-58750000D01*
X51000000Y-58750000D02*
X54750000Y-55000000D01*
X54750000Y-55000000D02*
X54810000Y-54890000D01*
X29190000Y-37110000D02*
X29250000Y-37000000D01*
X29250000Y-37000000D02*
X28250000Y-38000000D01*
X28250000Y-38000000D02*
X27250000Y-38000000D01*
X27250000Y-38000000D02*
X25750000Y-39500000D01*
X26250000Y-55500000D02*
X31750000Y-61000000D01*
X31750000Y-61000000D02*
X39250000Y-61000000D01*
X39250000Y-61000000D02*
X39500000Y-60750000D01*
X39500000Y-60750000D02*
X39750000Y-60750000D01*
X39750000Y-60750000D02*
X41000000Y-59500000D01*
X41000000Y-59500000D02*
X46250000Y-59500000D01*
X46250000Y-59500000D02*
X46500000Y-59250000D01*
X46500000Y-59250000D02*
X47250000Y-59250000D01*
X47250000Y-59250000D02*
X47500000Y-59000000D01*
X47500000Y-59000000D02*
X48250000Y-59000000D01*
X48250000Y-59000000D02*
X48750000Y-58500000D01*
X48750000Y-58500000D02*
X49750000Y-58500000D01*
X28250000Y-34500000D02*
X29250000Y-33500000D01*
X29250000Y-33500000D02*
X47250000Y-33500000D01*
X37500000Y-58000000D02*
X46000000Y-58000000D01*
X46000000Y-58000000D02*
X46250000Y-57750000D01*
X46250000Y-57750000D02*
X47000000Y-57750000D01*
X47000000Y-57750000D02*
X48250000Y-56500000D01*
X48250000Y-56500000D02*
X49250000Y-56500000D01*
X49250000Y-56500000D02*
X51000000Y-54750000D01*
X51000000Y-49750000D02*
X53500000Y-47250000D01*
X53500000Y-47250000D02*
X54750000Y-47250000D01*
X54750000Y-47250000D02*
X54810000Y-47270000D01*
M02*
