G04 #@! TF.GenerationSoftware,KiCad,Pcbnew,7.0.6*
G04 #@! TF.CreationDate,2024-01-05T11:00:05+01:00*
G04 #@! TF.ProjectId,SN76849 Arduino nano shield,534e3736-3834-4392-9041-726475696e6f,20180905 0.7.06*
G04 #@! TF.SameCoordinates,Original*
G04 #@! TF.FileFunction,Soldermask,Bot*
G04 #@! TF.FilePolarity,Negative*
%FSLAX46Y46*%
G04 Gerber Fmt 4.6, Leading zero omitted, Abs format (unit mm)*
G04 Created by KiCad (PCBNEW 7.0.6) date 2024-01-05 11:00:05*
%MOMM*%
%LPD*%
G01*
G04 APERTURE LIST*
G04 Aperture macros list*
%AMRoundRect*
0 Rectangle with rounded corners*
0 $1 Rounding radius*
0 $2 $3 $4 $5 $6 $7 $8 $9 X,Y pos of 4 corners*
0 Add a 4 corners polygon primitive as box body*
4,1,4,$2,$3,$4,$5,$6,$7,$8,$9,$2,$3,0*
0 Add four circle primitives for the rounded corners*
1,1,$1+$1,$2,$3*
1,1,$1+$1,$4,$5*
1,1,$1+$1,$6,$7*
1,1,$1+$1,$8,$9*
0 Add four rect primitives between the rounded corners*
20,1,$1+$1,$2,$3,$4,$5,0*
20,1,$1+$1,$4,$5,$6,$7,0*
20,1,$1+$1,$6,$7,$8,$9,0*
20,1,$1+$1,$8,$9,$2,$3,0*%
G04 Aperture macros list end*
%ADD10RoundRect,0.200000X-0.800000X-0.800000X0.800000X-0.800000X0.800000X0.800000X-0.800000X0.800000X0*%
%ADD11O,2.000000X2.000000*%
%ADD12RoundRect,0.200000X0.850000X0.850000X-0.850000X0.850000X-0.850000X-0.850000X0.850000X-0.850000X0*%
%ADD13O,2.100000X2.100000*%
%ADD14C,1.660000*%
%ADD15C,2.000000*%
%ADD16O,1.600000X2.600000*%
%ADD17O,2.600000X1.600000*%
%ADD18RoundRect,0.200000X-0.850000X0.850000X-0.850000X-0.850000X0.850000X-0.850000X0.850000X0.850000X0*%
G04 APERTURE END LIST*
D10*
X52300000Y-34000000D03*
D11*
X52300000Y-36540000D03*
X52300000Y-39080000D03*
X52300000Y-41620000D03*
X59920000Y-41620000D03*
X59920000Y-39080000D03*
X59920000Y-36540000D03*
X59920000Y-34000000D03*
D12*
X80600000Y-58600000D03*
D13*
X80600000Y-56060000D03*
X80600000Y-53520000D03*
D14*
X56840000Y-29140000D03*
X54300000Y-26600000D03*
X56840000Y-24060000D03*
D15*
X66900000Y-40450000D03*
X66900000Y-42950000D03*
D16*
X65700000Y-52400000D03*
D17*
X70700000Y-57400000D03*
D16*
X75700000Y-52400000D03*
D18*
X45020000Y-61100000D03*
D13*
X42480000Y-61100000D03*
X39940000Y-61100000D03*
X37400000Y-61100000D03*
X34860000Y-61100000D03*
X32320000Y-61100000D03*
D10*
X28850000Y-23550000D03*
D11*
X28850000Y-26090000D03*
X28850000Y-28630000D03*
X28850000Y-31170000D03*
X28850000Y-33710000D03*
X28850000Y-36250000D03*
X28850000Y-38790000D03*
X28850000Y-41330000D03*
X36470000Y-41330000D03*
X36470000Y-38790000D03*
X36470000Y-36250000D03*
X36470000Y-33710000D03*
X36470000Y-31170000D03*
X36470000Y-28630000D03*
X36470000Y-26090000D03*
X36470000Y-23550000D03*
D10*
X41000000Y-23720000D03*
D11*
X41000000Y-26260000D03*
X41000000Y-28800000D03*
X41000000Y-31340000D03*
X41000000Y-33880000D03*
X41000000Y-36420000D03*
X41000000Y-38960000D03*
X41000000Y-41500000D03*
X48620000Y-41500000D03*
X48620000Y-38960000D03*
X48620000Y-36420000D03*
X48620000Y-33880000D03*
X48620000Y-31340000D03*
X48620000Y-28800000D03*
X48620000Y-26260000D03*
X48620000Y-23720000D03*
D12*
X38175000Y-55200000D03*
D13*
X38175000Y-52660000D03*
X38175000Y-50120000D03*
X38175000Y-47580000D03*
M02*
