G04 #@! TF.FileFunction,Copper,L1,Top,Signal*
%FSLAX46Y46*%
G04 Gerber Fmt 4.6, Leading zero omitted, Abs format (unit mm)*
G04 Created by KiCad (PCBNEW 4.0.7) date 07/20/18 00:39:32*
%MOMM*%
%LPD*%
G01*
G04 APERTURE LIST*
%ADD10C,0.100000*%
%ADD11C,5.000000*%
%ADD12R,1.600000X1.600000*%
%ADD13C,1.600000*%
%ADD14R,1.800000X1.800000*%
%ADD15C,1.800000*%
%ADD16R,1.700000X1.700000*%
%ADD17O,1.700000X1.700000*%
%ADD18R,3.500000X2.500000*%
%ADD19O,1.750000X3.500000*%
%ADD20C,1.998980*%
%ADD21O,1.501140X2.199640*%
%ADD22C,0.600000*%
%ADD23C,0.750000*%
%ADD24C,0.254000*%
G04 APERTURE END LIST*
D10*
D11*
X103000000Y-98750000D03*
X51750000Y-79750000D03*
D12*
X74500000Y-83500000D03*
D13*
X77000000Y-83500000D03*
D14*
X102500000Y-79250000D03*
D15*
X102500000Y-76710000D03*
D16*
X73000000Y-55500000D03*
D17*
X75540000Y-55500000D03*
X78080000Y-55500000D03*
X80620000Y-55500000D03*
D16*
X42500000Y-55750000D03*
D17*
X45040000Y-55750000D03*
X47580000Y-55750000D03*
X50120000Y-55750000D03*
D16*
X56500000Y-55500000D03*
D17*
X59040000Y-55500000D03*
X61580000Y-55500000D03*
X64120000Y-55500000D03*
D18*
X61000000Y-101846000D03*
D19*
X56000000Y-96840000D03*
X66000000Y-96840000D03*
X58500000Y-96840000D03*
X63500000Y-96840000D03*
D20*
X95310000Y-77750000D03*
X87690000Y-77750000D03*
X92560000Y-102250000D03*
X84940000Y-102250000D03*
X57750640Y-88501260D03*
X60250000Y-78498740D03*
X62749360Y-88501260D03*
D21*
X73140000Y-63190000D03*
X70600000Y-63190000D03*
X68060000Y-63190000D03*
X65520000Y-63190000D03*
X62980000Y-63190000D03*
X60440000Y-63190000D03*
X57900000Y-63190000D03*
X55360000Y-63190000D03*
X55360000Y-70810000D03*
X57900000Y-70810000D03*
X60440000Y-70810000D03*
X62980000Y-70810000D03*
X65520000Y-70810000D03*
X68060000Y-70810000D03*
X70600000Y-70810000D03*
X73140000Y-70810000D03*
X87690000Y-91060000D03*
X90230000Y-91060000D03*
X92770000Y-91060000D03*
X95310000Y-91060000D03*
X95310000Y-83440000D03*
X92770000Y-83440000D03*
X90230000Y-83440000D03*
X87690000Y-83440000D03*
X80110000Y-71310000D03*
X82650000Y-71310000D03*
X85190000Y-71310000D03*
X87730000Y-71310000D03*
X90270000Y-71310000D03*
X92810000Y-71310000D03*
X95350000Y-71310000D03*
X97890000Y-71310000D03*
X97890000Y-63690000D03*
X95350000Y-63690000D03*
X92810000Y-63690000D03*
X90270000Y-63690000D03*
X87730000Y-63690000D03*
X85190000Y-63690000D03*
X82650000Y-63690000D03*
X80110000Y-63690000D03*
D12*
X74750000Y-96750000D03*
D13*
X77250000Y-96750000D03*
D20*
X84690000Y-96750000D03*
X92310000Y-96750000D03*
D16*
X87750000Y-55750000D03*
D17*
X90290000Y-55750000D03*
X92830000Y-55750000D03*
D22*
X93000000Y-74750000D03*
X51750000Y-66750000D03*
X70000000Y-57000000D03*
X44750000Y-59000000D03*
X102500000Y-73500000D03*
X96750000Y-53500000D03*
X94500000Y-75500000D03*
X101000000Y-72000000D03*
X95750000Y-55000000D03*
X71250000Y-77250000D03*
X75750000Y-61500000D03*
X70000000Y-54500000D03*
X55500000Y-67000000D03*
X65500000Y-67000000D03*
X51750000Y-70750000D03*
X65500000Y-77000000D03*
X95250000Y-87000000D03*
X68000000Y-67000000D03*
X91250000Y-61000000D03*
X63500000Y-59750000D03*
X83500000Y-58250000D03*
X60250000Y-59750000D03*
X71750000Y-75750000D03*
X57250000Y-73750000D03*
X65250000Y-74250000D03*
X79750000Y-91250000D03*
X82000000Y-89000000D03*
X84000000Y-89500000D03*
D23*
X95350000Y-71310000D02*
X95250000Y-71250000D01*
X95250000Y-71250000D02*
X94500000Y-72000000D01*
X94500000Y-72000000D02*
X94500000Y-73250000D01*
X94500000Y-73250000D02*
X93000000Y-74750000D01*
X87690000Y-77750000D02*
X87750000Y-77750000D01*
X87750000Y-77750000D02*
X86000000Y-79500000D01*
X86000000Y-79500000D02*
X86000000Y-85500000D01*
X86000000Y-85500000D02*
X88500000Y-85500000D01*
X88500000Y-85500000D02*
X92750000Y-89750000D01*
X92750000Y-89750000D02*
X92750000Y-91000000D01*
X92750000Y-91000000D02*
X92770000Y-91060000D01*
X92830000Y-55750000D02*
X93250000Y-55750000D01*
X93250000Y-55750000D02*
X99250000Y-61750000D01*
X99250000Y-61750000D02*
X99500000Y-61750000D01*
X99500000Y-61750000D02*
X99500000Y-65750000D01*
X99500000Y-65750000D02*
X95250000Y-70000000D01*
X95250000Y-70000000D02*
X95250000Y-71250000D01*
X95250000Y-71250000D02*
X95350000Y-71310000D01*
X77000000Y-83500000D02*
X77250000Y-83750000D01*
X77250000Y-83750000D02*
X77250000Y-96750000D01*
X102500000Y-79250000D02*
X100000000Y-81750000D01*
X100000000Y-81750000D02*
X100000000Y-82000000D01*
X100000000Y-82000000D02*
X99750000Y-82250000D01*
X99750000Y-82250000D02*
X99750000Y-87000000D01*
X99750000Y-87000000D02*
X99500000Y-87250000D01*
X99500000Y-87250000D02*
X99500000Y-88000000D01*
X99500000Y-88000000D02*
X97000000Y-90500000D01*
X97000000Y-90500000D02*
X97000000Y-93000000D01*
X97000000Y-93000000D02*
X94250000Y-95750000D01*
X94250000Y-95750000D02*
X94250000Y-97500000D01*
X94250000Y-97500000D02*
X94000000Y-97750000D01*
X94000000Y-97750000D02*
X94000000Y-98000000D01*
X94000000Y-98000000D02*
X92500000Y-99500000D01*
X92500000Y-99500000D02*
X92500000Y-102250000D01*
X92500000Y-102250000D02*
X92560000Y-102250000D01*
X51750000Y-66750000D02*
X53750000Y-68750000D01*
X53750000Y-68750000D02*
X53750000Y-72750000D01*
X53750000Y-72750000D02*
X57250000Y-76250000D01*
X57250000Y-76250000D02*
X57250000Y-84250000D01*
X57250000Y-84250000D02*
X57500000Y-84500000D01*
X57500000Y-84500000D02*
X57500000Y-85000000D01*
X57500000Y-85000000D02*
X60750000Y-88250000D01*
X60750000Y-88250000D02*
X60750000Y-89250000D01*
X60750000Y-89250000D02*
X61000000Y-89500000D01*
X61000000Y-89500000D02*
X61000000Y-101846000D01*
X73140000Y-63190000D02*
X73250000Y-63250000D01*
X73250000Y-63250000D02*
X72250000Y-62250000D01*
X72250000Y-62250000D02*
X72250000Y-61250000D01*
X72250000Y-61250000D02*
X70000000Y-59000000D01*
X70000000Y-59000000D02*
X70000000Y-57000000D01*
X44750000Y-59000000D02*
X42500000Y-56750000D01*
X42500000Y-56750000D02*
X42500000Y-55750000D01*
X102500000Y-76710000D02*
X102500000Y-76750000D01*
X102500000Y-76750000D02*
X101500000Y-76750000D01*
X101500000Y-76750000D02*
X98500000Y-79750000D01*
X98500000Y-79750000D02*
X98500000Y-81750000D01*
X98500000Y-81750000D02*
X98250000Y-82000000D01*
X98250000Y-82000000D02*
X98250000Y-86750000D01*
X98250000Y-86750000D02*
X95250000Y-89750000D01*
X95250000Y-89750000D02*
X95250000Y-91000000D01*
X95250000Y-91000000D02*
X95310000Y-91060000D01*
X97890000Y-71310000D02*
X98000000Y-71250000D01*
X98000000Y-71250000D02*
X102500000Y-75750000D01*
X102500000Y-75750000D02*
X102500000Y-76710000D01*
X68060000Y-63190000D02*
X67750000Y-63000000D01*
X67750000Y-63000000D02*
X67250000Y-62500000D01*
X67250000Y-62500000D02*
X67250000Y-61250000D01*
X67250000Y-61250000D02*
X64000000Y-58000000D01*
X64000000Y-58000000D02*
X64000000Y-55500000D01*
X64000000Y-55500000D02*
X64120000Y-55500000D01*
X102500000Y-73500000D02*
X102500000Y-65250000D01*
X102500000Y-65250000D02*
X102250000Y-65000000D01*
X102250000Y-65000000D02*
X102250000Y-60250000D01*
X102250000Y-60250000D02*
X102000000Y-60000000D01*
X102000000Y-60000000D02*
X102000000Y-59250000D01*
X102000000Y-59250000D02*
X97000000Y-54250000D01*
X97000000Y-54250000D02*
X97000000Y-53750000D01*
X97000000Y-53750000D02*
X96750000Y-53500000D01*
X90270000Y-71310000D02*
X90250000Y-71250000D01*
X90250000Y-71250000D02*
X91000000Y-72000000D01*
X91000000Y-72000000D02*
X91000000Y-73250000D01*
X91000000Y-73250000D02*
X91500000Y-73750000D01*
X91500000Y-73750000D02*
X91500000Y-75000000D01*
X91500000Y-75000000D02*
X91750000Y-75250000D01*
X91750000Y-75250000D02*
X91750000Y-75500000D01*
X91750000Y-75500000D02*
X92250000Y-76000000D01*
X92250000Y-76000000D02*
X92500000Y-76000000D01*
X92500000Y-76000000D02*
X92750000Y-76250000D01*
X92750000Y-76250000D02*
X93750000Y-76250000D01*
X93750000Y-76250000D02*
X94500000Y-75500000D01*
X101000000Y-72000000D02*
X101000000Y-65500000D01*
X101000000Y-65500000D02*
X100750000Y-65250000D01*
X100750000Y-65250000D02*
X100750000Y-60500000D01*
X100750000Y-60500000D02*
X95750000Y-55500000D01*
X95750000Y-55500000D02*
X95750000Y-55000000D01*
X78080000Y-55500000D02*
X78000000Y-55500000D01*
X78000000Y-55500000D02*
X78750000Y-56250000D01*
X78750000Y-56250000D02*
X78750000Y-57250000D01*
X78750000Y-57250000D02*
X79750000Y-57250000D01*
X79750000Y-57250000D02*
X85250000Y-62750000D01*
X85250000Y-62750000D02*
X85250000Y-63750000D01*
X85250000Y-63750000D02*
X85190000Y-63690000D01*
X71250000Y-77250000D02*
X70250000Y-76250000D01*
X70250000Y-76250000D02*
X70250000Y-75500000D01*
X70250000Y-75500000D02*
X70500000Y-75250000D01*
X70500000Y-75250000D02*
X70500000Y-75000000D01*
X70500000Y-75000000D02*
X73250000Y-72250000D01*
X73250000Y-72250000D02*
X73250000Y-70750000D01*
X73250000Y-70750000D02*
X73140000Y-70810000D01*
X75750000Y-61500000D02*
X71500000Y-57250000D01*
X71500000Y-57250000D02*
X71250000Y-57250000D01*
X71250000Y-57250000D02*
X71250000Y-55750000D01*
X71250000Y-55750000D02*
X70000000Y-54500000D01*
X73140000Y-70810000D02*
X73250000Y-70750000D01*
X73250000Y-70750000D02*
X80000000Y-64000000D01*
X80000000Y-64000000D02*
X80000000Y-63750000D01*
X80000000Y-63750000D02*
X80110000Y-63690000D01*
X59040000Y-55500000D02*
X59000000Y-55500000D01*
X59000000Y-55500000D02*
X58250000Y-56250000D01*
X58250000Y-56250000D02*
X58250000Y-57250000D01*
X58250000Y-57250000D02*
X58000000Y-57250000D01*
X58000000Y-57250000D02*
X54000000Y-61250000D01*
X54000000Y-61250000D02*
X53750000Y-61250000D01*
X53750000Y-61250000D02*
X53750000Y-65250000D01*
X53750000Y-65250000D02*
X55500000Y-67000000D01*
X65500000Y-67000000D02*
X68000000Y-69500000D01*
X68000000Y-69500000D02*
X68000000Y-70750000D01*
X68000000Y-70750000D02*
X68060000Y-70810000D01*
X56500000Y-55500000D02*
X50250000Y-61750000D01*
X50250000Y-61750000D02*
X50250000Y-67000000D01*
X50250000Y-67000000D02*
X50500000Y-67250000D01*
X50500000Y-67250000D02*
X50500000Y-67500000D01*
X50500000Y-67500000D02*
X51750000Y-68750000D01*
X51750000Y-68750000D02*
X51750000Y-70750000D01*
X65500000Y-77000000D02*
X70500000Y-72000000D01*
X70500000Y-72000000D02*
X70500000Y-70750000D01*
X70500000Y-70750000D02*
X70600000Y-70810000D01*
X63500000Y-96840000D02*
X63500000Y-96750000D01*
X63500000Y-96750000D02*
X62750000Y-96000000D01*
X62750000Y-96000000D02*
X62750000Y-88500000D01*
X62750000Y-88500000D02*
X62749360Y-88501260D01*
X95250000Y-87000000D02*
X96750000Y-85500000D01*
X96750000Y-85500000D02*
X97000000Y-85500000D01*
X97000000Y-85500000D02*
X97000000Y-81500000D01*
X97000000Y-81500000D02*
X95250000Y-79750000D01*
X95250000Y-79750000D02*
X95250000Y-77750000D01*
X95250000Y-77750000D02*
X95310000Y-77750000D01*
X68000000Y-67000000D02*
X65500000Y-64500000D01*
X65500000Y-64500000D02*
X65500000Y-63250000D01*
X65500000Y-63250000D02*
X65520000Y-63190000D01*
X92810000Y-63690000D02*
X92500000Y-63500000D01*
X92500000Y-63500000D02*
X92000000Y-63000000D01*
X92000000Y-63000000D02*
X92000000Y-61750000D01*
X92000000Y-61750000D02*
X91250000Y-61000000D01*
X63500000Y-59750000D02*
X63000000Y-60250000D01*
X63000000Y-60250000D02*
X63000000Y-63250000D01*
X63000000Y-63250000D02*
X62980000Y-63190000D01*
X87730000Y-63690000D02*
X87750000Y-63750000D01*
X87750000Y-63750000D02*
X87000000Y-63000000D01*
X87000000Y-63000000D02*
X87000000Y-61750000D01*
X87000000Y-61750000D02*
X83500000Y-58250000D01*
X60250000Y-59750000D02*
X58000000Y-62000000D01*
X58000000Y-62000000D02*
X58000000Y-63250000D01*
X58000000Y-63250000D02*
X57900000Y-63190000D01*
X82650000Y-63690000D02*
X82750000Y-63750000D01*
X82750000Y-63750000D02*
X81750000Y-64750000D01*
X81750000Y-64750000D02*
X81750000Y-65750000D01*
X81750000Y-65750000D02*
X71750000Y-75750000D01*
X57250000Y-73750000D02*
X55250000Y-71750000D01*
X55250000Y-71750000D02*
X55250000Y-70750000D01*
X55250000Y-70750000D02*
X55360000Y-70810000D01*
X62980000Y-70810000D02*
X63000000Y-70750000D01*
X63000000Y-70750000D02*
X63750000Y-71500000D01*
X63750000Y-71500000D02*
X63750000Y-72750000D01*
X63750000Y-72750000D02*
X65250000Y-74250000D01*
X79750000Y-91250000D02*
X82000000Y-89000000D01*
X84000000Y-89500000D02*
X84750000Y-90250000D01*
X84750000Y-90250000D02*
X84750000Y-96750000D01*
X84750000Y-96750000D02*
X84690000Y-96750000D01*
D24*
G36*
X99540000Y-47794092D02*
X99540000Y-54750000D01*
X99594046Y-55021705D01*
X99747954Y-55252046D01*
X103040000Y-58544091D01*
X103040000Y-59649298D01*
X103010000Y-59604400D01*
X103010000Y-59250000D01*
X102933118Y-58863490D01*
X102714178Y-58535822D01*
X98010000Y-53831644D01*
X98010000Y-53750000D01*
X97933118Y-53363490D01*
X97714178Y-53035822D01*
X97464178Y-52785822D01*
X97136510Y-52566882D01*
X96750000Y-52490000D01*
X96363490Y-52566882D01*
X96035822Y-52785822D01*
X95816882Y-53113490D01*
X95740000Y-53500000D01*
X95816882Y-53886510D01*
X95906883Y-54021206D01*
X95750000Y-53990000D01*
X95363490Y-54066882D01*
X95035822Y-54285822D01*
X94816882Y-54613490D01*
X94740000Y-55000000D01*
X94740000Y-55500000D01*
X94816882Y-55886510D01*
X94820942Y-55892586D01*
X94232001Y-55303645D01*
X94201961Y-55152622D01*
X93880054Y-54670853D01*
X93398285Y-54348946D01*
X92830000Y-54235907D01*
X92261715Y-54348946D01*
X91779946Y-54670853D01*
X91560000Y-55000026D01*
X91340054Y-54670853D01*
X90858285Y-54348946D01*
X90290000Y-54235907D01*
X89721715Y-54348946D01*
X89239946Y-54670853D01*
X89212150Y-54712452D01*
X89203162Y-54664683D01*
X89064090Y-54448559D01*
X88851890Y-54303569D01*
X88600000Y-54252560D01*
X86900000Y-54252560D01*
X86664683Y-54296838D01*
X86448559Y-54435910D01*
X86303569Y-54648110D01*
X86252560Y-54900000D01*
X86252560Y-56600000D01*
X86296838Y-56835317D01*
X86435910Y-57051441D01*
X86648110Y-57196431D01*
X86900000Y-57247440D01*
X88600000Y-57247440D01*
X88835317Y-57203162D01*
X89051441Y-57064090D01*
X89196431Y-56851890D01*
X89210086Y-56784459D01*
X89239946Y-56829147D01*
X89721715Y-57151054D01*
X90290000Y-57264093D01*
X90858285Y-57151054D01*
X91340054Y-56829147D01*
X91560000Y-56499974D01*
X91779946Y-56829147D01*
X92261715Y-57151054D01*
X92830000Y-57264093D01*
X93251830Y-57180186D01*
X98018372Y-61946728D01*
X97890000Y-61921193D01*
X97359765Y-62026663D01*
X96910254Y-62327017D01*
X96699126Y-62642992D01*
X96658501Y-62693183D01*
X96652865Y-62712227D01*
X96620000Y-62761412D01*
X96329746Y-62327017D01*
X95880235Y-62026663D01*
X95350000Y-61921193D01*
X94819765Y-62026663D01*
X94370254Y-62327017D01*
X94080000Y-62761412D01*
X93789746Y-62327017D01*
X93340235Y-62026663D01*
X93010000Y-61960975D01*
X93010000Y-61750000D01*
X92933118Y-61363490D01*
X92714178Y-61035822D01*
X91964178Y-60285822D01*
X91636510Y-60066882D01*
X91250000Y-59990000D01*
X90863490Y-60066882D01*
X90535822Y-60285822D01*
X90316882Y-60613490D01*
X90240000Y-61000000D01*
X90316882Y-61386510D01*
X90535822Y-61714178D01*
X90945108Y-62123464D01*
X90800235Y-62026663D01*
X90270000Y-61921193D01*
X89739765Y-62026663D01*
X89290254Y-62327017D01*
X89000000Y-62761412D01*
X88709746Y-62327017D01*
X88260235Y-62026663D01*
X88010000Y-61976888D01*
X88010000Y-61750000D01*
X88002043Y-61710000D01*
X87933118Y-61363489D01*
X87714178Y-61035822D01*
X84214178Y-57535822D01*
X83886510Y-57316882D01*
X83500000Y-57240000D01*
X83113490Y-57316882D01*
X82785822Y-57535822D01*
X82566882Y-57863490D01*
X82490000Y-58250000D01*
X82566882Y-58636510D01*
X82570942Y-58642586D01*
X80888951Y-56960595D01*
X81188285Y-56901054D01*
X81373864Y-56777054D01*
X81386924Y-56771645D01*
X81400565Y-56759213D01*
X81670054Y-56579147D01*
X81782015Y-56411585D01*
X81815183Y-56381358D01*
X81845863Y-56316030D01*
X81991961Y-56097378D01*
X82023860Y-55937011D01*
X82061486Y-55856892D01*
X82045757Y-55826926D01*
X82105000Y-55529093D01*
X82105000Y-55470907D01*
X82045757Y-55173074D01*
X82061486Y-55143108D01*
X82023860Y-55062989D01*
X81991961Y-54902622D01*
X81845863Y-54683970D01*
X81815183Y-54618642D01*
X81782015Y-54588415D01*
X81670054Y-54420853D01*
X81400565Y-54240787D01*
X81386924Y-54228355D01*
X81373864Y-54222946D01*
X81188285Y-54098946D01*
X80620000Y-53985907D01*
X80051715Y-54098946D01*
X79866136Y-54222946D01*
X79853076Y-54228355D01*
X79839435Y-54240787D01*
X79569946Y-54420853D01*
X79457985Y-54588415D01*
X79424817Y-54618642D01*
X79394137Y-54683970D01*
X79350000Y-54750026D01*
X79130054Y-54420853D01*
X78648285Y-54098946D01*
X78080000Y-53985907D01*
X77511715Y-54098946D01*
X77029946Y-54420853D01*
X76810000Y-54750026D01*
X76590054Y-54420853D01*
X76108285Y-54098946D01*
X75540000Y-53985907D01*
X74971715Y-54098946D01*
X74489946Y-54420853D01*
X74462150Y-54462452D01*
X74453162Y-54414683D01*
X74314090Y-54198559D01*
X74101890Y-54053569D01*
X73850000Y-54002560D01*
X72150000Y-54002560D01*
X71914683Y-54046838D01*
X71698559Y-54185910D01*
X71553569Y-54398110D01*
X71515324Y-54586968D01*
X70714178Y-53785822D01*
X70386510Y-53566882D01*
X70000000Y-53490000D01*
X69613490Y-53566882D01*
X69285822Y-53785822D01*
X69066882Y-54113490D01*
X68990000Y-54500000D01*
X69066882Y-54886510D01*
X69285822Y-55214178D01*
X70076950Y-56005306D01*
X70000000Y-55990000D01*
X69613490Y-56066882D01*
X69285822Y-56285822D01*
X69066882Y-56613490D01*
X68990000Y-57000000D01*
X68990000Y-59000000D01*
X69066882Y-59386510D01*
X69285822Y-59714178D01*
X71090379Y-61518735D01*
X70600000Y-61421193D01*
X70069765Y-61526663D01*
X69620254Y-61827017D01*
X69330000Y-62261412D01*
X69039746Y-61827017D01*
X68590235Y-61526663D01*
X68260000Y-61460975D01*
X68260000Y-61250000D01*
X68183118Y-60863490D01*
X67964178Y-60535822D01*
X65010000Y-57581644D01*
X65010000Y-56686091D01*
X65170054Y-56579147D01*
X65491961Y-56097378D01*
X65605000Y-55529093D01*
X65605000Y-55470907D01*
X65491961Y-54902622D01*
X65170054Y-54420853D01*
X64688285Y-54098946D01*
X64120000Y-53985907D01*
X63551715Y-54098946D01*
X63069946Y-54420853D01*
X62850000Y-54750026D01*
X62630054Y-54420853D01*
X62148285Y-54098946D01*
X61580000Y-53985907D01*
X61011715Y-54098946D01*
X60529946Y-54420853D01*
X60310000Y-54750026D01*
X60090054Y-54420853D01*
X59608285Y-54098946D01*
X59040000Y-53985907D01*
X58471715Y-54098946D01*
X57989946Y-54420853D01*
X57962150Y-54462452D01*
X57953162Y-54414683D01*
X57814090Y-54198559D01*
X57601890Y-54053569D01*
X57350000Y-54002560D01*
X55650000Y-54002560D01*
X55414683Y-54046838D01*
X55198559Y-54185910D01*
X55053569Y-54398110D01*
X55002560Y-54650000D01*
X55002560Y-55569084D01*
X49535822Y-61035822D01*
X49316882Y-61363490D01*
X49240000Y-61750000D01*
X49240000Y-67000000D01*
X49316882Y-67386510D01*
X49531238Y-67707318D01*
X49566882Y-67886510D01*
X49785822Y-68214178D01*
X50740000Y-69168356D01*
X50740000Y-70750000D01*
X50816882Y-71136510D01*
X51035822Y-71464178D01*
X51363490Y-71683118D01*
X51750000Y-71760000D01*
X52136510Y-71683118D01*
X52464178Y-71464178D01*
X52683118Y-71136510D01*
X52740000Y-70850546D01*
X52740000Y-72750000D01*
X52816882Y-73136510D01*
X53035822Y-73464178D01*
X56240000Y-76668356D01*
X56240000Y-84250000D01*
X56316882Y-84636510D01*
X56490000Y-84895600D01*
X56490000Y-85000000D01*
X56566882Y-85386510D01*
X56785822Y-85714178D01*
X57930629Y-86858985D01*
X57721112Y-86866743D01*
X57426946Y-86866486D01*
X57397307Y-86878732D01*
X57365263Y-86879919D01*
X56876682Y-87082295D01*
X56871642Y-87095933D01*
X56825985Y-87114798D01*
X56365794Y-87574187D01*
X56345926Y-87622036D01*
X56331675Y-87627302D01*
X56229239Y-87903049D01*
X56116434Y-88174713D01*
X56116406Y-88206782D01*
X56105239Y-88236842D01*
X56116123Y-88530788D01*
X56115866Y-88824954D01*
X56128112Y-88854593D01*
X56129299Y-88886637D01*
X56331675Y-89375218D01*
X56345313Y-89380258D01*
X56364178Y-89425915D01*
X56823567Y-89886106D01*
X56871416Y-89905974D01*
X56876682Y-89920225D01*
X57152429Y-90022661D01*
X57424093Y-90135466D01*
X57456162Y-90135494D01*
X57486222Y-90146661D01*
X57780168Y-90135777D01*
X58074334Y-90136034D01*
X58103973Y-90123788D01*
X58136017Y-90122601D01*
X58624598Y-89920225D01*
X58629638Y-89906587D01*
X58675295Y-89887722D01*
X59135486Y-89428333D01*
X59155354Y-89380484D01*
X59169605Y-89375218D01*
X59272041Y-89099471D01*
X59384846Y-88827807D01*
X59384874Y-88795738D01*
X59396041Y-88765678D01*
X59385157Y-88471732D01*
X59385295Y-88313651D01*
X59740000Y-88668356D01*
X59740000Y-89250000D01*
X59816882Y-89636510D01*
X59990000Y-89895600D01*
X59990000Y-95817728D01*
X59895058Y-95340423D01*
X59567731Y-94850544D01*
X59077852Y-94523217D01*
X58500000Y-94408275D01*
X57922148Y-94523217D01*
X57432269Y-94850544D01*
X57250000Y-95123329D01*
X57067731Y-94850544D01*
X56577852Y-94523217D01*
X56000000Y-94408275D01*
X55422148Y-94523217D01*
X54932269Y-94850544D01*
X54604942Y-95340423D01*
X54490000Y-95918275D01*
X54490000Y-97761725D01*
X54604942Y-98339577D01*
X54932269Y-98829456D01*
X55422148Y-99156783D01*
X56000000Y-99271725D01*
X56577852Y-99156783D01*
X57067731Y-98829456D01*
X57250000Y-98556671D01*
X57432269Y-98829456D01*
X57922148Y-99156783D01*
X58500000Y-99271725D01*
X59077852Y-99156783D01*
X59567731Y-98829456D01*
X59895058Y-98339577D01*
X59990000Y-97862272D01*
X59990000Y-99948560D01*
X59250000Y-99948560D01*
X59014683Y-99992838D01*
X58798559Y-100131910D01*
X58653569Y-100344110D01*
X58602560Y-100596000D01*
X58602560Y-103096000D01*
X58646838Y-103331317D01*
X58785910Y-103547441D01*
X58998110Y-103692431D01*
X59250000Y-103743440D01*
X62750000Y-103743440D01*
X62985317Y-103699162D01*
X63201441Y-103560090D01*
X63346431Y-103347890D01*
X63397440Y-103096000D01*
X63397440Y-102573694D01*
X83305226Y-102573694D01*
X83553538Y-103174655D01*
X84012927Y-103634846D01*
X84613453Y-103884206D01*
X85263694Y-103884774D01*
X85864655Y-103636462D01*
X86324846Y-103177073D01*
X86574206Y-102576547D01*
X86574774Y-101926306D01*
X86326462Y-101325345D01*
X85867073Y-100865154D01*
X85266547Y-100615794D01*
X84616306Y-100615226D01*
X84015345Y-100863538D01*
X83555154Y-101322927D01*
X83305794Y-101923453D01*
X83305226Y-102573694D01*
X63397440Y-102573694D01*
X63397440Y-100596000D01*
X63353162Y-100360683D01*
X63214090Y-100144559D01*
X63001890Y-99999569D01*
X62750000Y-99948560D01*
X62010000Y-99948560D01*
X62010000Y-97862272D01*
X62104942Y-98339577D01*
X62432269Y-98829456D01*
X62922148Y-99156783D01*
X63500000Y-99271725D01*
X64077852Y-99156783D01*
X64567731Y-98829456D01*
X64750000Y-98556671D01*
X64932269Y-98829456D01*
X65422148Y-99156783D01*
X66000000Y-99271725D01*
X66577852Y-99156783D01*
X67067731Y-98829456D01*
X67395058Y-98339577D01*
X67510000Y-97761725D01*
X67510000Y-95918275D01*
X67395058Y-95340423D01*
X67067731Y-94850544D01*
X66577852Y-94523217D01*
X66000000Y-94408275D01*
X65422148Y-94523217D01*
X64932269Y-94850544D01*
X64750000Y-95123329D01*
X64567731Y-94850544D01*
X64077852Y-94523217D01*
X63760000Y-94459992D01*
X63760000Y-89801887D01*
X64134206Y-89428333D01*
X64383566Y-88827807D01*
X64384134Y-88177566D01*
X64135822Y-87576605D01*
X63676433Y-87116414D01*
X63075907Y-86867054D01*
X62425666Y-86866486D01*
X61824705Y-87114798D01*
X61433589Y-87505233D01*
X60065173Y-86136817D01*
X60259425Y-86135260D01*
X60771884Y-86135707D01*
X60783125Y-86131062D01*
X60795287Y-86130965D01*
X61724797Y-85745949D01*
X61727939Y-85740672D01*
X61740799Y-85735359D01*
X62482754Y-84994698D01*
X62489397Y-84978699D01*
X62495949Y-84974797D01*
X62688269Y-84499764D01*
X62884792Y-84026483D01*
X62884803Y-84014321D01*
X62889367Y-84003047D01*
X62885260Y-83490575D01*
X62885707Y-82978116D01*
X62881062Y-82966875D01*
X62880965Y-82954713D01*
X62775460Y-82700000D01*
X73052560Y-82700000D01*
X73052560Y-84300000D01*
X73096838Y-84535317D01*
X73235910Y-84751441D01*
X73448110Y-84896431D01*
X73700000Y-84947440D01*
X75300000Y-84947440D01*
X75535317Y-84903162D01*
X75751441Y-84764090D01*
X75896431Y-84551890D01*
X75917680Y-84446959D01*
X76186077Y-84715824D01*
X76240000Y-84738215D01*
X76240000Y-95730612D01*
X76169417Y-95801072D01*
X76153162Y-95714683D01*
X76014090Y-95498559D01*
X75801890Y-95353569D01*
X75550000Y-95302560D01*
X73950000Y-95302560D01*
X73714683Y-95346838D01*
X73498559Y-95485910D01*
X73353569Y-95698110D01*
X73302560Y-95950000D01*
X73302560Y-97550000D01*
X73346838Y-97785317D01*
X73485910Y-98001441D01*
X73698110Y-98146431D01*
X73950000Y-98197440D01*
X75550000Y-98197440D01*
X75785317Y-98153162D01*
X76001441Y-98014090D01*
X76146431Y-97801890D01*
X76167680Y-97696959D01*
X76436077Y-97965824D01*
X76963309Y-98184750D01*
X77534187Y-98185248D01*
X78061800Y-97967243D01*
X78465824Y-97563923D01*
X78684750Y-97036691D01*
X78685248Y-96465813D01*
X78467243Y-95938200D01*
X78260000Y-95730595D01*
X78260000Y-91250000D01*
X78740000Y-91250000D01*
X78816882Y-91636510D01*
X79035822Y-91964178D01*
X79363490Y-92183118D01*
X79750000Y-92260000D01*
X80136510Y-92183118D01*
X80464178Y-91964178D01*
X82714178Y-89714178D01*
X82857286Y-89500000D01*
X82990000Y-89500000D01*
X83066882Y-89886510D01*
X83285822Y-90214178D01*
X83740000Y-90668356D01*
X83740000Y-95388839D01*
X83305154Y-95822927D01*
X83055794Y-96423453D01*
X83055226Y-97073694D01*
X83303538Y-97674655D01*
X83762927Y-98134846D01*
X84363453Y-98384206D01*
X85013694Y-98384774D01*
X85614655Y-98136462D01*
X86074846Y-97677073D01*
X86324206Y-97076547D01*
X86324774Y-96426306D01*
X86076462Y-95825345D01*
X85760000Y-95508331D01*
X85760000Y-90250000D01*
X85683118Y-89863490D01*
X85464178Y-89535822D01*
X84714178Y-88785822D01*
X84386510Y-88566882D01*
X84000000Y-88490000D01*
X83613490Y-88566882D01*
X83285822Y-88785822D01*
X83066882Y-89113490D01*
X82990000Y-89500000D01*
X82857286Y-89500000D01*
X82933118Y-89386510D01*
X83010001Y-89000000D01*
X82933118Y-88613489D01*
X82714178Y-88285822D01*
X82386511Y-88066882D01*
X82000000Y-87989999D01*
X81613490Y-88066882D01*
X81285822Y-88285822D01*
X79035822Y-90535822D01*
X78816882Y-90863490D01*
X78740000Y-91250000D01*
X78260000Y-91250000D01*
X78260000Y-84207535D01*
X78434750Y-83786691D01*
X78435248Y-83215813D01*
X78217243Y-82688200D01*
X77813923Y-82284176D01*
X77286691Y-82065250D01*
X76715813Y-82064752D01*
X76188200Y-82282757D01*
X75919417Y-82551072D01*
X75903162Y-82464683D01*
X75764090Y-82248559D01*
X75551890Y-82103569D01*
X75300000Y-82052560D01*
X73700000Y-82052560D01*
X73464683Y-82096838D01*
X73248559Y-82235910D01*
X73103569Y-82448110D01*
X73052560Y-82700000D01*
X62775460Y-82700000D01*
X62495949Y-82025203D01*
X62490672Y-82022061D01*
X62485359Y-82009201D01*
X61744698Y-81267246D01*
X61728699Y-81260603D01*
X61724797Y-81254051D01*
X61249764Y-81061731D01*
X60776483Y-80865208D01*
X60764321Y-80865197D01*
X60753047Y-80860633D01*
X60240575Y-80864740D01*
X59728116Y-80864293D01*
X59716875Y-80868938D01*
X59704713Y-80869035D01*
X58775203Y-81254051D01*
X58772061Y-81259328D01*
X58759201Y-81264641D01*
X58260000Y-81762971D01*
X58260000Y-78822434D01*
X58615226Y-78822434D01*
X58863538Y-79423395D01*
X59322927Y-79883586D01*
X59923453Y-80132946D01*
X60573694Y-80133514D01*
X61174655Y-79885202D01*
X61634846Y-79425813D01*
X61884206Y-78825287D01*
X61884774Y-78175046D01*
X61636462Y-77574085D01*
X61177073Y-77113894D01*
X60576547Y-76864534D01*
X59926306Y-76863966D01*
X59325345Y-77112278D01*
X58865154Y-77571667D01*
X58615794Y-78172193D01*
X58615226Y-78822434D01*
X58260000Y-78822434D01*
X58260000Y-76250000D01*
X58183118Y-75863490D01*
X58183118Y-75863489D01*
X57964178Y-75535822D01*
X57173050Y-74744694D01*
X57250000Y-74760000D01*
X57636510Y-74683118D01*
X57964178Y-74464178D01*
X58183118Y-74136510D01*
X58260000Y-73750000D01*
X58183118Y-73363490D01*
X57964178Y-73035822D01*
X57409621Y-72481265D01*
X57900000Y-72578807D01*
X58430235Y-72473337D01*
X58879746Y-72172983D01*
X59170000Y-71738588D01*
X59460254Y-72172983D01*
X59909765Y-72473337D01*
X60440000Y-72578807D01*
X60970235Y-72473337D01*
X61419746Y-72172983D01*
X61710000Y-71738588D01*
X62000254Y-72172983D01*
X62449765Y-72473337D01*
X62740000Y-72531068D01*
X62740000Y-72750000D01*
X62816882Y-73136510D01*
X63035822Y-73464178D01*
X64535822Y-74964178D01*
X64863490Y-75183118D01*
X65250000Y-75260000D01*
X65636510Y-75183118D01*
X65964178Y-74964178D01*
X66183118Y-74636510D01*
X66260000Y-74250000D01*
X66183118Y-73863490D01*
X65964178Y-73535822D01*
X64760000Y-72331644D01*
X64760000Y-72319813D01*
X64989765Y-72473337D01*
X65520000Y-72578807D01*
X66050235Y-72473337D01*
X66499746Y-72172983D01*
X66710874Y-71857008D01*
X66751499Y-71806817D01*
X66757135Y-71787773D01*
X66790000Y-71738588D01*
X67080254Y-72172983D01*
X67529765Y-72473337D01*
X68060000Y-72578807D01*
X68590235Y-72473337D01*
X68614561Y-72457083D01*
X64785822Y-76285822D01*
X64566882Y-76613490D01*
X64490000Y-77000000D01*
X64566882Y-77386510D01*
X64785822Y-77714178D01*
X65113490Y-77933118D01*
X65500000Y-78010000D01*
X65886510Y-77933118D01*
X66214178Y-77714178D01*
X71214178Y-72714178D01*
X71433118Y-72386510D01*
X71459626Y-72253245D01*
X71579746Y-72172983D01*
X71870000Y-71738588D01*
X72055474Y-72016170D01*
X69785822Y-74285822D01*
X69566882Y-74613490D01*
X69531238Y-74792682D01*
X69316882Y-75113490D01*
X69240000Y-75500000D01*
X69240000Y-76250000D01*
X69316882Y-76636510D01*
X69535822Y-76964178D01*
X70535822Y-77964178D01*
X70863490Y-78183118D01*
X71250000Y-78260001D01*
X71636511Y-78183118D01*
X71964178Y-77964178D01*
X72183118Y-77636511D01*
X72260001Y-77250000D01*
X72183118Y-76863490D01*
X72071269Y-76696095D01*
X72136510Y-76683118D01*
X72464178Y-76464178D01*
X82464178Y-66464178D01*
X82683118Y-66136510D01*
X82760000Y-65750000D01*
X82760000Y-65436927D01*
X83180235Y-65353337D01*
X83629746Y-65052983D01*
X83920000Y-64618588D01*
X84210254Y-65052983D01*
X84659765Y-65353337D01*
X85190000Y-65458807D01*
X85720235Y-65353337D01*
X86169746Y-65052983D01*
X86460000Y-64618588D01*
X86750254Y-65052983D01*
X87199765Y-65353337D01*
X87730000Y-65458807D01*
X88260235Y-65353337D01*
X88709746Y-65052983D01*
X89000000Y-64618588D01*
X89290254Y-65052983D01*
X89739765Y-65353337D01*
X90270000Y-65458807D01*
X90800235Y-65353337D01*
X91249746Y-65052983D01*
X91540000Y-64618588D01*
X91830254Y-65052983D01*
X92279765Y-65353337D01*
X92810000Y-65458807D01*
X93340235Y-65353337D01*
X93789746Y-65052983D01*
X94080000Y-64618588D01*
X94370254Y-65052983D01*
X94819765Y-65353337D01*
X95350000Y-65458807D01*
X95880235Y-65353337D01*
X96329746Y-65052983D01*
X96620000Y-64618588D01*
X96652865Y-64667773D01*
X96658501Y-64686817D01*
X96699126Y-64737008D01*
X96910254Y-65052983D01*
X97359765Y-65353337D01*
X97890000Y-65458807D01*
X98420235Y-65353337D01*
X98490000Y-65306721D01*
X98490000Y-65331644D01*
X94535822Y-69285822D01*
X94316882Y-69613490D01*
X94240000Y-70000000D01*
X94240000Y-70141956D01*
X94080000Y-70381412D01*
X93789746Y-69947017D01*
X93340235Y-69646663D01*
X92810000Y-69541193D01*
X92279765Y-69646663D01*
X91830254Y-69947017D01*
X91540000Y-70381412D01*
X91249746Y-69947017D01*
X90800235Y-69646663D01*
X90270000Y-69541193D01*
X89739765Y-69646663D01*
X89290254Y-69947017D01*
X89000000Y-70381412D01*
X88967135Y-70332227D01*
X88961499Y-70313183D01*
X88920874Y-70262992D01*
X88709746Y-69947017D01*
X88260235Y-69646663D01*
X87730000Y-69541193D01*
X87199765Y-69646663D01*
X86750254Y-69947017D01*
X86539126Y-70262992D01*
X86498501Y-70313183D01*
X86492865Y-70332227D01*
X86460000Y-70381412D01*
X86169746Y-69947017D01*
X85720235Y-69646663D01*
X85190000Y-69541193D01*
X84659765Y-69646663D01*
X84210254Y-69947017D01*
X83920000Y-70381412D01*
X83629746Y-69947017D01*
X83180235Y-69646663D01*
X82650000Y-69541193D01*
X82119765Y-69646663D01*
X81670254Y-69947017D01*
X81380000Y-70381412D01*
X81089746Y-69947017D01*
X80640235Y-69646663D01*
X80110000Y-69541193D01*
X79579765Y-69646663D01*
X79130254Y-69947017D01*
X78829900Y-70396528D01*
X78724430Y-70926763D01*
X78724430Y-71693237D01*
X78829900Y-72223472D01*
X79130254Y-72672983D01*
X79579765Y-72973337D01*
X80110000Y-73078807D01*
X80640235Y-72973337D01*
X81089746Y-72672983D01*
X81380000Y-72238588D01*
X81670254Y-72672983D01*
X82119765Y-72973337D01*
X82650000Y-73078807D01*
X83180235Y-72973337D01*
X83629746Y-72672983D01*
X83920000Y-72238588D01*
X84210254Y-72672983D01*
X84659765Y-72973337D01*
X85190000Y-73078807D01*
X85720235Y-72973337D01*
X86169746Y-72672983D01*
X86460000Y-72238588D01*
X86492865Y-72287773D01*
X86498501Y-72306817D01*
X86539126Y-72357008D01*
X86750254Y-72672983D01*
X87199765Y-72973337D01*
X87730000Y-73078807D01*
X88260235Y-72973337D01*
X88709746Y-72672983D01*
X88920874Y-72357008D01*
X88961499Y-72306817D01*
X88967135Y-72287773D01*
X89000000Y-72238588D01*
X89290254Y-72672983D01*
X89739765Y-72973337D01*
X89990000Y-73023112D01*
X89990000Y-73250000D01*
X90066882Y-73636510D01*
X90285822Y-73964178D01*
X90490000Y-74168356D01*
X90490000Y-75000000D01*
X90566882Y-75386510D01*
X90781238Y-75707318D01*
X90816882Y-75886510D01*
X91035822Y-76214178D01*
X91535822Y-76714178D01*
X91863490Y-76933118D01*
X92042682Y-76968762D01*
X92363490Y-77183118D01*
X92750000Y-77260000D01*
X93743666Y-77260000D01*
X93675794Y-77423453D01*
X93675226Y-78073694D01*
X93923538Y-78674655D01*
X94240000Y-78991669D01*
X94240000Y-79750000D01*
X94316882Y-80136510D01*
X94535822Y-80464178D01*
X95864561Y-81792917D01*
X95840235Y-81776663D01*
X95310000Y-81671193D01*
X94779765Y-81776663D01*
X94330254Y-82077017D01*
X94040000Y-82511412D01*
X93749746Y-82077017D01*
X93300235Y-81776663D01*
X92770000Y-81671193D01*
X92239765Y-81776663D01*
X91790254Y-82077017D01*
X91500000Y-82511412D01*
X91209746Y-82077017D01*
X90760235Y-81776663D01*
X90230000Y-81671193D01*
X89699765Y-81776663D01*
X89250254Y-82077017D01*
X88960000Y-82511412D01*
X88669746Y-82077017D01*
X88220235Y-81776663D01*
X87690000Y-81671193D01*
X87159765Y-81776663D01*
X87010000Y-81876733D01*
X87010000Y-79918356D01*
X87543992Y-79384364D01*
X88013694Y-79384774D01*
X88614655Y-79136462D01*
X89074846Y-78677073D01*
X89324206Y-78076547D01*
X89324774Y-77426306D01*
X89076462Y-76825345D01*
X88617073Y-76365154D01*
X88016547Y-76115794D01*
X87366306Y-76115226D01*
X86765345Y-76363538D01*
X86305154Y-76822927D01*
X86055794Y-77423453D01*
X86055276Y-78016368D01*
X85285822Y-78785822D01*
X85066882Y-79113490D01*
X84990000Y-79500000D01*
X84990000Y-85500000D01*
X85066882Y-85886510D01*
X85285822Y-86214178D01*
X85613490Y-86433118D01*
X86000000Y-86510000D01*
X88081644Y-86510000D01*
X91581333Y-90009689D01*
X91500000Y-90131412D01*
X91209746Y-89697017D01*
X90760235Y-89396663D01*
X90230000Y-89291193D01*
X89699765Y-89396663D01*
X89250254Y-89697017D01*
X88960000Y-90131412D01*
X88669746Y-89697017D01*
X88220235Y-89396663D01*
X87690000Y-89291193D01*
X87159765Y-89396663D01*
X86710254Y-89697017D01*
X86409900Y-90146528D01*
X86304430Y-90676763D01*
X86304430Y-91443237D01*
X86409900Y-91973472D01*
X86710254Y-92422983D01*
X87159765Y-92723337D01*
X87690000Y-92828807D01*
X88220235Y-92723337D01*
X88669746Y-92422983D01*
X88960000Y-91988588D01*
X89250254Y-92422983D01*
X89699765Y-92723337D01*
X90230000Y-92828807D01*
X90760235Y-92723337D01*
X91209746Y-92422983D01*
X91500000Y-91988588D01*
X91790254Y-92422983D01*
X92239765Y-92723337D01*
X92770000Y-92828807D01*
X93300235Y-92723337D01*
X93749746Y-92422983D01*
X94040000Y-91988588D01*
X94330254Y-92422983D01*
X94779765Y-92723337D01*
X95310000Y-92828807D01*
X95840235Y-92723337D01*
X95864561Y-92707083D01*
X93535822Y-95035822D01*
X93316882Y-95363490D01*
X93303346Y-95431542D01*
X93237073Y-95365154D01*
X93189224Y-95345286D01*
X93183958Y-95331035D01*
X92908211Y-95228599D01*
X92636547Y-95115794D01*
X92604478Y-95115766D01*
X92574418Y-95104599D01*
X92280472Y-95115483D01*
X91986306Y-95115226D01*
X91956667Y-95127472D01*
X91924623Y-95128659D01*
X91436042Y-95331035D01*
X91431002Y-95344673D01*
X91385345Y-95363538D01*
X90925154Y-95822927D01*
X90905286Y-95870776D01*
X90891035Y-95876042D01*
X90788599Y-96151789D01*
X90675794Y-96423453D01*
X90675766Y-96455522D01*
X90664599Y-96485582D01*
X90675483Y-96779528D01*
X90675226Y-97073694D01*
X90687472Y-97103333D01*
X90688659Y-97135377D01*
X90891035Y-97623958D01*
X90904673Y-97628998D01*
X90923538Y-97674655D01*
X91382927Y-98134846D01*
X91430776Y-98154714D01*
X91436042Y-98168965D01*
X91711789Y-98271401D01*
X91983453Y-98384206D01*
X92015522Y-98384234D01*
X92045582Y-98395401D01*
X92181267Y-98390377D01*
X91785822Y-98785822D01*
X91566882Y-99113490D01*
X91490000Y-99500000D01*
X91490000Y-101008630D01*
X91175154Y-101322927D01*
X90925794Y-101923453D01*
X90925226Y-102573694D01*
X91173538Y-103174655D01*
X91632927Y-103634846D01*
X92233453Y-103884206D01*
X92883694Y-103884774D01*
X93484655Y-103636462D01*
X93944846Y-103177073D01*
X94194206Y-102576547D01*
X94194774Y-101926306D01*
X93946462Y-101325345D01*
X93510000Y-100888121D01*
X93510000Y-99918356D01*
X94057502Y-99370854D01*
X99864457Y-99370854D01*
X99865294Y-99372880D01*
X99865295Y-99375072D01*
X100232209Y-100260881D01*
X100340727Y-100523515D01*
X100341186Y-100523974D01*
X100341436Y-100524579D01*
X100342491Y-100525282D01*
X101221847Y-101406174D01*
X101224586Y-101407311D01*
X101225421Y-101408564D01*
X101799907Y-101646205D01*
X102373674Y-101884454D01*
X102375866Y-101884456D01*
X102377892Y-101885294D01*
X102999488Y-101885000D01*
X103620854Y-101885543D01*
X103622880Y-101884706D01*
X103625072Y-101884705D01*
X104510881Y-101517791D01*
X104773515Y-101409273D01*
X104773974Y-101408814D01*
X104774579Y-101408564D01*
X104775282Y-101407509D01*
X105656174Y-100528153D01*
X105657311Y-100525414D01*
X105658564Y-100524579D01*
X105896205Y-99950093D01*
X106134454Y-99376326D01*
X106134456Y-99374134D01*
X106135294Y-99372108D01*
X106135000Y-98750512D01*
X106135543Y-98129146D01*
X106134706Y-98127120D01*
X106134705Y-98124928D01*
X105767791Y-97239119D01*
X105659273Y-96976485D01*
X105658814Y-96976026D01*
X105658564Y-96975421D01*
X105657509Y-96974718D01*
X104778153Y-96093826D01*
X104775414Y-96092689D01*
X104774579Y-96091436D01*
X104200093Y-95853795D01*
X103626326Y-95615546D01*
X103624134Y-95615544D01*
X103622108Y-95614706D01*
X103000512Y-95615000D01*
X102379146Y-95614457D01*
X102377120Y-95615294D01*
X102374928Y-95615295D01*
X101489119Y-95982209D01*
X101226485Y-96090727D01*
X101226026Y-96091186D01*
X101225421Y-96091436D01*
X101224718Y-96092491D01*
X100343826Y-96971847D01*
X100342689Y-96974586D01*
X100341436Y-96975421D01*
X100103795Y-97549907D01*
X99865546Y-98123674D01*
X99865544Y-98125866D01*
X99864706Y-98127892D01*
X99865000Y-98749488D01*
X99864457Y-99370854D01*
X94057502Y-99370854D01*
X94714178Y-98714178D01*
X94933118Y-98386510D01*
X94968762Y-98207318D01*
X95183118Y-97886510D01*
X95260000Y-97500000D01*
X95260000Y-96168356D01*
X97714178Y-93714178D01*
X97933118Y-93386510D01*
X98010000Y-93000000D01*
X98010000Y-90918356D01*
X100214178Y-88714178D01*
X100433118Y-88386510D01*
X100510000Y-88000000D01*
X100510000Y-87645600D01*
X100683118Y-87386510D01*
X100760000Y-87000000D01*
X100760000Y-82645600D01*
X100933118Y-82386510D01*
X100968196Y-82210160D01*
X102380916Y-80797440D01*
X103400000Y-80797440D01*
X103635317Y-80753162D01*
X103851441Y-80614090D01*
X103996431Y-80401890D01*
X104047440Y-80150000D01*
X104047440Y-78350000D01*
X104003162Y-78114683D01*
X103864090Y-77898559D01*
X103651890Y-77753569D01*
X103631466Y-77749433D01*
X103800551Y-77580643D01*
X104034733Y-77016670D01*
X104035265Y-76406009D01*
X103802068Y-75841629D01*
X103460082Y-75499044D01*
X103433118Y-75363490D01*
X103214178Y-75035822D01*
X102657106Y-74478750D01*
X102886510Y-74433118D01*
X103214178Y-74214178D01*
X103433118Y-73886510D01*
X103510000Y-73500000D01*
X103510000Y-70764092D01*
X106790000Y-74044092D01*
X106790000Y-101705908D01*
X102705908Y-105790000D01*
X74500005Y-105790000D01*
X74500000Y-105789999D01*
X74228295Y-105844046D01*
X73997954Y-105997954D01*
X73997952Y-105997957D01*
X71955908Y-108040000D01*
X52544092Y-108040000D01*
X48460000Y-103955908D01*
X48460000Y-86750000D01*
X48405954Y-86478295D01*
X48252046Y-86247954D01*
X42374946Y-80370854D01*
X48614457Y-80370854D01*
X48615294Y-80372880D01*
X48615295Y-80375072D01*
X48982209Y-81260881D01*
X49090727Y-81523515D01*
X49091186Y-81523974D01*
X49091436Y-81524579D01*
X49092491Y-81525282D01*
X49971847Y-82406174D01*
X49974586Y-82407311D01*
X49975421Y-82408564D01*
X50549907Y-82646205D01*
X51123674Y-82884454D01*
X51125866Y-82884456D01*
X51127892Y-82885294D01*
X51749488Y-82885000D01*
X52370854Y-82885543D01*
X52372880Y-82884706D01*
X52375072Y-82884705D01*
X53260881Y-82517791D01*
X53523515Y-82409273D01*
X53523974Y-82408814D01*
X53524579Y-82408564D01*
X53525282Y-82407509D01*
X54406174Y-81528153D01*
X54407311Y-81525414D01*
X54408564Y-81524579D01*
X54646205Y-80950093D01*
X54884454Y-80376326D01*
X54884456Y-80374134D01*
X54885294Y-80372108D01*
X54885000Y-79750512D01*
X54885543Y-79129146D01*
X54884706Y-79127120D01*
X54884705Y-79124928D01*
X54517791Y-78239119D01*
X54409273Y-77976485D01*
X54408814Y-77976026D01*
X54408564Y-77975421D01*
X54407509Y-77974718D01*
X53528153Y-77093826D01*
X53525414Y-77092689D01*
X53524579Y-77091436D01*
X52950093Y-76853795D01*
X52376326Y-76615546D01*
X52374134Y-76615544D01*
X52372108Y-76614706D01*
X51750512Y-76615000D01*
X51129146Y-76614457D01*
X51127120Y-76615294D01*
X51124928Y-76615295D01*
X50239119Y-76982209D01*
X49976485Y-77090727D01*
X49976026Y-77091186D01*
X49975421Y-77091436D01*
X49974718Y-77092491D01*
X49093826Y-77971847D01*
X49092689Y-77974586D01*
X49091436Y-77975421D01*
X48853795Y-78549907D01*
X48615546Y-79123674D01*
X48615544Y-79125866D01*
X48614706Y-79127892D01*
X48615000Y-79749488D01*
X48614457Y-80370854D01*
X42374946Y-80370854D01*
X39960000Y-77955908D01*
X39960000Y-54900000D01*
X41002560Y-54900000D01*
X41002560Y-56600000D01*
X41046838Y-56835317D01*
X41185910Y-57051441D01*
X41398110Y-57196431D01*
X41639595Y-57245333D01*
X41785822Y-57464178D01*
X44035822Y-59714178D01*
X44363490Y-59933118D01*
X44750000Y-60010001D01*
X45136511Y-59933118D01*
X45464178Y-59714178D01*
X45683118Y-59386511D01*
X45760001Y-59000000D01*
X45683118Y-58613490D01*
X45464178Y-58285822D01*
X44042857Y-56864501D01*
X44471715Y-57151054D01*
X45040000Y-57264093D01*
X45608285Y-57151054D01*
X46090054Y-56829147D01*
X46310000Y-56499974D01*
X46529946Y-56829147D01*
X47011715Y-57151054D01*
X47580000Y-57264093D01*
X48148285Y-57151054D01*
X48630054Y-56829147D01*
X48850000Y-56499974D01*
X49069946Y-56829147D01*
X49551715Y-57151054D01*
X50120000Y-57264093D01*
X50688285Y-57151054D01*
X51170054Y-56829147D01*
X51491961Y-56347378D01*
X51605000Y-55779093D01*
X51605000Y-55720907D01*
X51491961Y-55152622D01*
X51170054Y-54670853D01*
X50688285Y-54348946D01*
X50120000Y-54235907D01*
X49551715Y-54348946D01*
X49069946Y-54670853D01*
X48850000Y-55000026D01*
X48630054Y-54670853D01*
X48148285Y-54348946D01*
X47580000Y-54235907D01*
X47011715Y-54348946D01*
X46529946Y-54670853D01*
X46310000Y-55000026D01*
X46090054Y-54670853D01*
X45608285Y-54348946D01*
X45040000Y-54235907D01*
X44471715Y-54348946D01*
X43989946Y-54670853D01*
X43962150Y-54712452D01*
X43953162Y-54664683D01*
X43814090Y-54448559D01*
X43601890Y-54303569D01*
X43350000Y-54252560D01*
X41650000Y-54252560D01*
X41414683Y-54296838D01*
X41198559Y-54435910D01*
X41053569Y-54648110D01*
X41002560Y-54900000D01*
X39960000Y-54900000D01*
X39960000Y-43294092D01*
X40794092Y-42460000D01*
X94205908Y-42460000D01*
X99540000Y-47794092D01*
X99540000Y-47794092D01*
G37*
X99540000Y-47794092D02*
X99540000Y-54750000D01*
X99594046Y-55021705D01*
X99747954Y-55252046D01*
X103040000Y-58544091D01*
X103040000Y-59649298D01*
X103010000Y-59604400D01*
X103010000Y-59250000D01*
X102933118Y-58863490D01*
X102714178Y-58535822D01*
X98010000Y-53831644D01*
X98010000Y-53750000D01*
X97933118Y-53363490D01*
X97714178Y-53035822D01*
X97464178Y-52785822D01*
X97136510Y-52566882D01*
X96750000Y-52490000D01*
X96363490Y-52566882D01*
X96035822Y-52785822D01*
X95816882Y-53113490D01*
X95740000Y-53500000D01*
X95816882Y-53886510D01*
X95906883Y-54021206D01*
X95750000Y-53990000D01*
X95363490Y-54066882D01*
X95035822Y-54285822D01*
X94816882Y-54613490D01*
X94740000Y-55000000D01*
X94740000Y-55500000D01*
X94816882Y-55886510D01*
X94820942Y-55892586D01*
X94232001Y-55303645D01*
X94201961Y-55152622D01*
X93880054Y-54670853D01*
X93398285Y-54348946D01*
X92830000Y-54235907D01*
X92261715Y-54348946D01*
X91779946Y-54670853D01*
X91560000Y-55000026D01*
X91340054Y-54670853D01*
X90858285Y-54348946D01*
X90290000Y-54235907D01*
X89721715Y-54348946D01*
X89239946Y-54670853D01*
X89212150Y-54712452D01*
X89203162Y-54664683D01*
X89064090Y-54448559D01*
X88851890Y-54303569D01*
X88600000Y-54252560D01*
X86900000Y-54252560D01*
X86664683Y-54296838D01*
X86448559Y-54435910D01*
X86303569Y-54648110D01*
X86252560Y-54900000D01*
X86252560Y-56600000D01*
X86296838Y-56835317D01*
X86435910Y-57051441D01*
X86648110Y-57196431D01*
X86900000Y-57247440D01*
X88600000Y-57247440D01*
X88835317Y-57203162D01*
X89051441Y-57064090D01*
X89196431Y-56851890D01*
X89210086Y-56784459D01*
X89239946Y-56829147D01*
X89721715Y-57151054D01*
X90290000Y-57264093D01*
X90858285Y-57151054D01*
X91340054Y-56829147D01*
X91560000Y-56499974D01*
X91779946Y-56829147D01*
X92261715Y-57151054D01*
X92830000Y-57264093D01*
X93251830Y-57180186D01*
X98018372Y-61946728D01*
X97890000Y-61921193D01*
X97359765Y-62026663D01*
X96910254Y-62327017D01*
X96699126Y-62642992D01*
X96658501Y-62693183D01*
X96652865Y-62712227D01*
X96620000Y-62761412D01*
X96329746Y-62327017D01*
X95880235Y-62026663D01*
X95350000Y-61921193D01*
X94819765Y-62026663D01*
X94370254Y-62327017D01*
X94080000Y-62761412D01*
X93789746Y-62327017D01*
X93340235Y-62026663D01*
X93010000Y-61960975D01*
X93010000Y-61750000D01*
X92933118Y-61363490D01*
X92714178Y-61035822D01*
X91964178Y-60285822D01*
X91636510Y-60066882D01*
X91250000Y-59990000D01*
X90863490Y-60066882D01*
X90535822Y-60285822D01*
X90316882Y-60613490D01*
X90240000Y-61000000D01*
X90316882Y-61386510D01*
X90535822Y-61714178D01*
X90945108Y-62123464D01*
X90800235Y-62026663D01*
X90270000Y-61921193D01*
X89739765Y-62026663D01*
X89290254Y-62327017D01*
X89000000Y-62761412D01*
X88709746Y-62327017D01*
X88260235Y-62026663D01*
X88010000Y-61976888D01*
X88010000Y-61750000D01*
X88002043Y-61710000D01*
X87933118Y-61363489D01*
X87714178Y-61035822D01*
X84214178Y-57535822D01*
X83886510Y-57316882D01*
X83500000Y-57240000D01*
X83113490Y-57316882D01*
X82785822Y-57535822D01*
X82566882Y-57863490D01*
X82490000Y-58250000D01*
X82566882Y-58636510D01*
X82570942Y-58642586D01*
X80888951Y-56960595D01*
X81188285Y-56901054D01*
X81373864Y-56777054D01*
X81386924Y-56771645D01*
X81400565Y-56759213D01*
X81670054Y-56579147D01*
X81782015Y-56411585D01*
X81815183Y-56381358D01*
X81845863Y-56316030D01*
X81991961Y-56097378D01*
X82023860Y-55937011D01*
X82061486Y-55856892D01*
X82045757Y-55826926D01*
X82105000Y-55529093D01*
X82105000Y-55470907D01*
X82045757Y-55173074D01*
X82061486Y-55143108D01*
X82023860Y-55062989D01*
X81991961Y-54902622D01*
X81845863Y-54683970D01*
X81815183Y-54618642D01*
X81782015Y-54588415D01*
X81670054Y-54420853D01*
X81400565Y-54240787D01*
X81386924Y-54228355D01*
X81373864Y-54222946D01*
X81188285Y-54098946D01*
X80620000Y-53985907D01*
X80051715Y-54098946D01*
X79866136Y-54222946D01*
X79853076Y-54228355D01*
X79839435Y-54240787D01*
X79569946Y-54420853D01*
X79457985Y-54588415D01*
X79424817Y-54618642D01*
X79394137Y-54683970D01*
X79350000Y-54750026D01*
X79130054Y-54420853D01*
X78648285Y-54098946D01*
X78080000Y-53985907D01*
X77511715Y-54098946D01*
X77029946Y-54420853D01*
X76810000Y-54750026D01*
X76590054Y-54420853D01*
X76108285Y-54098946D01*
X75540000Y-53985907D01*
X74971715Y-54098946D01*
X74489946Y-54420853D01*
X74462150Y-54462452D01*
X74453162Y-54414683D01*
X74314090Y-54198559D01*
X74101890Y-54053569D01*
X73850000Y-54002560D01*
X72150000Y-54002560D01*
X71914683Y-54046838D01*
X71698559Y-54185910D01*
X71553569Y-54398110D01*
X71515324Y-54586968D01*
X70714178Y-53785822D01*
X70386510Y-53566882D01*
X70000000Y-53490000D01*
X69613490Y-53566882D01*
X69285822Y-53785822D01*
X69066882Y-54113490D01*
X68990000Y-54500000D01*
X69066882Y-54886510D01*
X69285822Y-55214178D01*
X70076950Y-56005306D01*
X70000000Y-55990000D01*
X69613490Y-56066882D01*
X69285822Y-56285822D01*
X69066882Y-56613490D01*
X68990000Y-57000000D01*
X68990000Y-59000000D01*
X69066882Y-59386510D01*
X69285822Y-59714178D01*
X71090379Y-61518735D01*
X70600000Y-61421193D01*
X70069765Y-61526663D01*
X69620254Y-61827017D01*
X69330000Y-62261412D01*
X69039746Y-61827017D01*
X68590235Y-61526663D01*
X68260000Y-61460975D01*
X68260000Y-61250000D01*
X68183118Y-60863490D01*
X67964178Y-60535822D01*
X65010000Y-57581644D01*
X65010000Y-56686091D01*
X65170054Y-56579147D01*
X65491961Y-56097378D01*
X65605000Y-55529093D01*
X65605000Y-55470907D01*
X65491961Y-54902622D01*
X65170054Y-54420853D01*
X64688285Y-54098946D01*
X64120000Y-53985907D01*
X63551715Y-54098946D01*
X63069946Y-54420853D01*
X62850000Y-54750026D01*
X62630054Y-54420853D01*
X62148285Y-54098946D01*
X61580000Y-53985907D01*
X61011715Y-54098946D01*
X60529946Y-54420853D01*
X60310000Y-54750026D01*
X60090054Y-54420853D01*
X59608285Y-54098946D01*
X59040000Y-53985907D01*
X58471715Y-54098946D01*
X57989946Y-54420853D01*
X57962150Y-54462452D01*
X57953162Y-54414683D01*
X57814090Y-54198559D01*
X57601890Y-54053569D01*
X57350000Y-54002560D01*
X55650000Y-54002560D01*
X55414683Y-54046838D01*
X55198559Y-54185910D01*
X55053569Y-54398110D01*
X55002560Y-54650000D01*
X55002560Y-55569084D01*
X49535822Y-61035822D01*
X49316882Y-61363490D01*
X49240000Y-61750000D01*
X49240000Y-67000000D01*
X49316882Y-67386510D01*
X49531238Y-67707318D01*
X49566882Y-67886510D01*
X49785822Y-68214178D01*
X50740000Y-69168356D01*
X50740000Y-70750000D01*
X50816882Y-71136510D01*
X51035822Y-71464178D01*
X51363490Y-71683118D01*
X51750000Y-71760000D01*
X52136510Y-71683118D01*
X52464178Y-71464178D01*
X52683118Y-71136510D01*
X52740000Y-70850546D01*
X52740000Y-72750000D01*
X52816882Y-73136510D01*
X53035822Y-73464178D01*
X56240000Y-76668356D01*
X56240000Y-84250000D01*
X56316882Y-84636510D01*
X56490000Y-84895600D01*
X56490000Y-85000000D01*
X56566882Y-85386510D01*
X56785822Y-85714178D01*
X57930629Y-86858985D01*
X57721112Y-86866743D01*
X57426946Y-86866486D01*
X57397307Y-86878732D01*
X57365263Y-86879919D01*
X56876682Y-87082295D01*
X56871642Y-87095933D01*
X56825985Y-87114798D01*
X56365794Y-87574187D01*
X56345926Y-87622036D01*
X56331675Y-87627302D01*
X56229239Y-87903049D01*
X56116434Y-88174713D01*
X56116406Y-88206782D01*
X56105239Y-88236842D01*
X56116123Y-88530788D01*
X56115866Y-88824954D01*
X56128112Y-88854593D01*
X56129299Y-88886637D01*
X56331675Y-89375218D01*
X56345313Y-89380258D01*
X56364178Y-89425915D01*
X56823567Y-89886106D01*
X56871416Y-89905974D01*
X56876682Y-89920225D01*
X57152429Y-90022661D01*
X57424093Y-90135466D01*
X57456162Y-90135494D01*
X57486222Y-90146661D01*
X57780168Y-90135777D01*
X58074334Y-90136034D01*
X58103973Y-90123788D01*
X58136017Y-90122601D01*
X58624598Y-89920225D01*
X58629638Y-89906587D01*
X58675295Y-89887722D01*
X59135486Y-89428333D01*
X59155354Y-89380484D01*
X59169605Y-89375218D01*
X59272041Y-89099471D01*
X59384846Y-88827807D01*
X59384874Y-88795738D01*
X59396041Y-88765678D01*
X59385157Y-88471732D01*
X59385295Y-88313651D01*
X59740000Y-88668356D01*
X59740000Y-89250000D01*
X59816882Y-89636510D01*
X59990000Y-89895600D01*
X59990000Y-95817728D01*
X59895058Y-95340423D01*
X59567731Y-94850544D01*
X59077852Y-94523217D01*
X58500000Y-94408275D01*
X57922148Y-94523217D01*
X57432269Y-94850544D01*
X57250000Y-95123329D01*
X57067731Y-94850544D01*
X56577852Y-94523217D01*
X56000000Y-94408275D01*
X55422148Y-94523217D01*
X54932269Y-94850544D01*
X54604942Y-95340423D01*
X54490000Y-95918275D01*
X54490000Y-97761725D01*
X54604942Y-98339577D01*
X54932269Y-98829456D01*
X55422148Y-99156783D01*
X56000000Y-99271725D01*
X56577852Y-99156783D01*
X57067731Y-98829456D01*
X57250000Y-98556671D01*
X57432269Y-98829456D01*
X57922148Y-99156783D01*
X58500000Y-99271725D01*
X59077852Y-99156783D01*
X59567731Y-98829456D01*
X59895058Y-98339577D01*
X59990000Y-97862272D01*
X59990000Y-99948560D01*
X59250000Y-99948560D01*
X59014683Y-99992838D01*
X58798559Y-100131910D01*
X58653569Y-100344110D01*
X58602560Y-100596000D01*
X58602560Y-103096000D01*
X58646838Y-103331317D01*
X58785910Y-103547441D01*
X58998110Y-103692431D01*
X59250000Y-103743440D01*
X62750000Y-103743440D01*
X62985317Y-103699162D01*
X63201441Y-103560090D01*
X63346431Y-103347890D01*
X63397440Y-103096000D01*
X63397440Y-102573694D01*
X83305226Y-102573694D01*
X83553538Y-103174655D01*
X84012927Y-103634846D01*
X84613453Y-103884206D01*
X85263694Y-103884774D01*
X85864655Y-103636462D01*
X86324846Y-103177073D01*
X86574206Y-102576547D01*
X86574774Y-101926306D01*
X86326462Y-101325345D01*
X85867073Y-100865154D01*
X85266547Y-100615794D01*
X84616306Y-100615226D01*
X84015345Y-100863538D01*
X83555154Y-101322927D01*
X83305794Y-101923453D01*
X83305226Y-102573694D01*
X63397440Y-102573694D01*
X63397440Y-100596000D01*
X63353162Y-100360683D01*
X63214090Y-100144559D01*
X63001890Y-99999569D01*
X62750000Y-99948560D01*
X62010000Y-99948560D01*
X62010000Y-97862272D01*
X62104942Y-98339577D01*
X62432269Y-98829456D01*
X62922148Y-99156783D01*
X63500000Y-99271725D01*
X64077852Y-99156783D01*
X64567731Y-98829456D01*
X64750000Y-98556671D01*
X64932269Y-98829456D01*
X65422148Y-99156783D01*
X66000000Y-99271725D01*
X66577852Y-99156783D01*
X67067731Y-98829456D01*
X67395058Y-98339577D01*
X67510000Y-97761725D01*
X67510000Y-95918275D01*
X67395058Y-95340423D01*
X67067731Y-94850544D01*
X66577852Y-94523217D01*
X66000000Y-94408275D01*
X65422148Y-94523217D01*
X64932269Y-94850544D01*
X64750000Y-95123329D01*
X64567731Y-94850544D01*
X64077852Y-94523217D01*
X63760000Y-94459992D01*
X63760000Y-89801887D01*
X64134206Y-89428333D01*
X64383566Y-88827807D01*
X64384134Y-88177566D01*
X64135822Y-87576605D01*
X63676433Y-87116414D01*
X63075907Y-86867054D01*
X62425666Y-86866486D01*
X61824705Y-87114798D01*
X61433589Y-87505233D01*
X60065173Y-86136817D01*
X60259425Y-86135260D01*
X60771884Y-86135707D01*
X60783125Y-86131062D01*
X60795287Y-86130965D01*
X61724797Y-85745949D01*
X61727939Y-85740672D01*
X61740799Y-85735359D01*
X62482754Y-84994698D01*
X62489397Y-84978699D01*
X62495949Y-84974797D01*
X62688269Y-84499764D01*
X62884792Y-84026483D01*
X62884803Y-84014321D01*
X62889367Y-84003047D01*
X62885260Y-83490575D01*
X62885707Y-82978116D01*
X62881062Y-82966875D01*
X62880965Y-82954713D01*
X62775460Y-82700000D01*
X73052560Y-82700000D01*
X73052560Y-84300000D01*
X73096838Y-84535317D01*
X73235910Y-84751441D01*
X73448110Y-84896431D01*
X73700000Y-84947440D01*
X75300000Y-84947440D01*
X75535317Y-84903162D01*
X75751441Y-84764090D01*
X75896431Y-84551890D01*
X75917680Y-84446959D01*
X76186077Y-84715824D01*
X76240000Y-84738215D01*
X76240000Y-95730612D01*
X76169417Y-95801072D01*
X76153162Y-95714683D01*
X76014090Y-95498559D01*
X75801890Y-95353569D01*
X75550000Y-95302560D01*
X73950000Y-95302560D01*
X73714683Y-95346838D01*
X73498559Y-95485910D01*
X73353569Y-95698110D01*
X73302560Y-95950000D01*
X73302560Y-97550000D01*
X73346838Y-97785317D01*
X73485910Y-98001441D01*
X73698110Y-98146431D01*
X73950000Y-98197440D01*
X75550000Y-98197440D01*
X75785317Y-98153162D01*
X76001441Y-98014090D01*
X76146431Y-97801890D01*
X76167680Y-97696959D01*
X76436077Y-97965824D01*
X76963309Y-98184750D01*
X77534187Y-98185248D01*
X78061800Y-97967243D01*
X78465824Y-97563923D01*
X78684750Y-97036691D01*
X78685248Y-96465813D01*
X78467243Y-95938200D01*
X78260000Y-95730595D01*
X78260000Y-91250000D01*
X78740000Y-91250000D01*
X78816882Y-91636510D01*
X79035822Y-91964178D01*
X79363490Y-92183118D01*
X79750000Y-92260000D01*
X80136510Y-92183118D01*
X80464178Y-91964178D01*
X82714178Y-89714178D01*
X82857286Y-89500000D01*
X82990000Y-89500000D01*
X83066882Y-89886510D01*
X83285822Y-90214178D01*
X83740000Y-90668356D01*
X83740000Y-95388839D01*
X83305154Y-95822927D01*
X83055794Y-96423453D01*
X83055226Y-97073694D01*
X83303538Y-97674655D01*
X83762927Y-98134846D01*
X84363453Y-98384206D01*
X85013694Y-98384774D01*
X85614655Y-98136462D01*
X86074846Y-97677073D01*
X86324206Y-97076547D01*
X86324774Y-96426306D01*
X86076462Y-95825345D01*
X85760000Y-95508331D01*
X85760000Y-90250000D01*
X85683118Y-89863490D01*
X85464178Y-89535822D01*
X84714178Y-88785822D01*
X84386510Y-88566882D01*
X84000000Y-88490000D01*
X83613490Y-88566882D01*
X83285822Y-88785822D01*
X83066882Y-89113490D01*
X82990000Y-89500000D01*
X82857286Y-89500000D01*
X82933118Y-89386510D01*
X83010001Y-89000000D01*
X82933118Y-88613489D01*
X82714178Y-88285822D01*
X82386511Y-88066882D01*
X82000000Y-87989999D01*
X81613490Y-88066882D01*
X81285822Y-88285822D01*
X79035822Y-90535822D01*
X78816882Y-90863490D01*
X78740000Y-91250000D01*
X78260000Y-91250000D01*
X78260000Y-84207535D01*
X78434750Y-83786691D01*
X78435248Y-83215813D01*
X78217243Y-82688200D01*
X77813923Y-82284176D01*
X77286691Y-82065250D01*
X76715813Y-82064752D01*
X76188200Y-82282757D01*
X75919417Y-82551072D01*
X75903162Y-82464683D01*
X75764090Y-82248559D01*
X75551890Y-82103569D01*
X75300000Y-82052560D01*
X73700000Y-82052560D01*
X73464683Y-82096838D01*
X73248559Y-82235910D01*
X73103569Y-82448110D01*
X73052560Y-82700000D01*
X62775460Y-82700000D01*
X62495949Y-82025203D01*
X62490672Y-82022061D01*
X62485359Y-82009201D01*
X61744698Y-81267246D01*
X61728699Y-81260603D01*
X61724797Y-81254051D01*
X61249764Y-81061731D01*
X60776483Y-80865208D01*
X60764321Y-80865197D01*
X60753047Y-80860633D01*
X60240575Y-80864740D01*
X59728116Y-80864293D01*
X59716875Y-80868938D01*
X59704713Y-80869035D01*
X58775203Y-81254051D01*
X58772061Y-81259328D01*
X58759201Y-81264641D01*
X58260000Y-81762971D01*
X58260000Y-78822434D01*
X58615226Y-78822434D01*
X58863538Y-79423395D01*
X59322927Y-79883586D01*
X59923453Y-80132946D01*
X60573694Y-80133514D01*
X61174655Y-79885202D01*
X61634846Y-79425813D01*
X61884206Y-78825287D01*
X61884774Y-78175046D01*
X61636462Y-77574085D01*
X61177073Y-77113894D01*
X60576547Y-76864534D01*
X59926306Y-76863966D01*
X59325345Y-77112278D01*
X58865154Y-77571667D01*
X58615794Y-78172193D01*
X58615226Y-78822434D01*
X58260000Y-78822434D01*
X58260000Y-76250000D01*
X58183118Y-75863490D01*
X58183118Y-75863489D01*
X57964178Y-75535822D01*
X57173050Y-74744694D01*
X57250000Y-74760000D01*
X57636510Y-74683118D01*
X57964178Y-74464178D01*
X58183118Y-74136510D01*
X58260000Y-73750000D01*
X58183118Y-73363490D01*
X57964178Y-73035822D01*
X57409621Y-72481265D01*
X57900000Y-72578807D01*
X58430235Y-72473337D01*
X58879746Y-72172983D01*
X59170000Y-71738588D01*
X59460254Y-72172983D01*
X59909765Y-72473337D01*
X60440000Y-72578807D01*
X60970235Y-72473337D01*
X61419746Y-72172983D01*
X61710000Y-71738588D01*
X62000254Y-72172983D01*
X62449765Y-72473337D01*
X62740000Y-72531068D01*
X62740000Y-72750000D01*
X62816882Y-73136510D01*
X63035822Y-73464178D01*
X64535822Y-74964178D01*
X64863490Y-75183118D01*
X65250000Y-75260000D01*
X65636510Y-75183118D01*
X65964178Y-74964178D01*
X66183118Y-74636510D01*
X66260000Y-74250000D01*
X66183118Y-73863490D01*
X65964178Y-73535822D01*
X64760000Y-72331644D01*
X64760000Y-72319813D01*
X64989765Y-72473337D01*
X65520000Y-72578807D01*
X66050235Y-72473337D01*
X66499746Y-72172983D01*
X66710874Y-71857008D01*
X66751499Y-71806817D01*
X66757135Y-71787773D01*
X66790000Y-71738588D01*
X67080254Y-72172983D01*
X67529765Y-72473337D01*
X68060000Y-72578807D01*
X68590235Y-72473337D01*
X68614561Y-72457083D01*
X64785822Y-76285822D01*
X64566882Y-76613490D01*
X64490000Y-77000000D01*
X64566882Y-77386510D01*
X64785822Y-77714178D01*
X65113490Y-77933118D01*
X65500000Y-78010000D01*
X65886510Y-77933118D01*
X66214178Y-77714178D01*
X71214178Y-72714178D01*
X71433118Y-72386510D01*
X71459626Y-72253245D01*
X71579746Y-72172983D01*
X71870000Y-71738588D01*
X72055474Y-72016170D01*
X69785822Y-74285822D01*
X69566882Y-74613490D01*
X69531238Y-74792682D01*
X69316882Y-75113490D01*
X69240000Y-75500000D01*
X69240000Y-76250000D01*
X69316882Y-76636510D01*
X69535822Y-76964178D01*
X70535822Y-77964178D01*
X70863490Y-78183118D01*
X71250000Y-78260001D01*
X71636511Y-78183118D01*
X71964178Y-77964178D01*
X72183118Y-77636511D01*
X72260001Y-77250000D01*
X72183118Y-76863490D01*
X72071269Y-76696095D01*
X72136510Y-76683118D01*
X72464178Y-76464178D01*
X82464178Y-66464178D01*
X82683118Y-66136510D01*
X82760000Y-65750000D01*
X82760000Y-65436927D01*
X83180235Y-65353337D01*
X83629746Y-65052983D01*
X83920000Y-64618588D01*
X84210254Y-65052983D01*
X84659765Y-65353337D01*
X85190000Y-65458807D01*
X85720235Y-65353337D01*
X86169746Y-65052983D01*
X86460000Y-64618588D01*
X86750254Y-65052983D01*
X87199765Y-65353337D01*
X87730000Y-65458807D01*
X88260235Y-65353337D01*
X88709746Y-65052983D01*
X89000000Y-64618588D01*
X89290254Y-65052983D01*
X89739765Y-65353337D01*
X90270000Y-65458807D01*
X90800235Y-65353337D01*
X91249746Y-65052983D01*
X91540000Y-64618588D01*
X91830254Y-65052983D01*
X92279765Y-65353337D01*
X92810000Y-65458807D01*
X93340235Y-65353337D01*
X93789746Y-65052983D01*
X94080000Y-64618588D01*
X94370254Y-65052983D01*
X94819765Y-65353337D01*
X95350000Y-65458807D01*
X95880235Y-65353337D01*
X96329746Y-65052983D01*
X96620000Y-64618588D01*
X96652865Y-64667773D01*
X96658501Y-64686817D01*
X96699126Y-64737008D01*
X96910254Y-65052983D01*
X97359765Y-65353337D01*
X97890000Y-65458807D01*
X98420235Y-65353337D01*
X98490000Y-65306721D01*
X98490000Y-65331644D01*
X94535822Y-69285822D01*
X94316882Y-69613490D01*
X94240000Y-70000000D01*
X94240000Y-70141956D01*
X94080000Y-70381412D01*
X93789746Y-69947017D01*
X93340235Y-69646663D01*
X92810000Y-69541193D01*
X92279765Y-69646663D01*
X91830254Y-69947017D01*
X91540000Y-70381412D01*
X91249746Y-69947017D01*
X90800235Y-69646663D01*
X90270000Y-69541193D01*
X89739765Y-69646663D01*
X89290254Y-69947017D01*
X89000000Y-70381412D01*
X88967135Y-70332227D01*
X88961499Y-70313183D01*
X88920874Y-70262992D01*
X88709746Y-69947017D01*
X88260235Y-69646663D01*
X87730000Y-69541193D01*
X87199765Y-69646663D01*
X86750254Y-69947017D01*
X86539126Y-70262992D01*
X86498501Y-70313183D01*
X86492865Y-70332227D01*
X86460000Y-70381412D01*
X86169746Y-69947017D01*
X85720235Y-69646663D01*
X85190000Y-69541193D01*
X84659765Y-69646663D01*
X84210254Y-69947017D01*
X83920000Y-70381412D01*
X83629746Y-69947017D01*
X83180235Y-69646663D01*
X82650000Y-69541193D01*
X82119765Y-69646663D01*
X81670254Y-69947017D01*
X81380000Y-70381412D01*
X81089746Y-69947017D01*
X80640235Y-69646663D01*
X80110000Y-69541193D01*
X79579765Y-69646663D01*
X79130254Y-69947017D01*
X78829900Y-70396528D01*
X78724430Y-70926763D01*
X78724430Y-71693237D01*
X78829900Y-72223472D01*
X79130254Y-72672983D01*
X79579765Y-72973337D01*
X80110000Y-73078807D01*
X80640235Y-72973337D01*
X81089746Y-72672983D01*
X81380000Y-72238588D01*
X81670254Y-72672983D01*
X82119765Y-72973337D01*
X82650000Y-73078807D01*
X83180235Y-72973337D01*
X83629746Y-72672983D01*
X83920000Y-72238588D01*
X84210254Y-72672983D01*
X84659765Y-72973337D01*
X85190000Y-73078807D01*
X85720235Y-72973337D01*
X86169746Y-72672983D01*
X86460000Y-72238588D01*
X86492865Y-72287773D01*
X86498501Y-72306817D01*
X86539126Y-72357008D01*
X86750254Y-72672983D01*
X87199765Y-72973337D01*
X87730000Y-73078807D01*
X88260235Y-72973337D01*
X88709746Y-72672983D01*
X88920874Y-72357008D01*
X88961499Y-72306817D01*
X88967135Y-72287773D01*
X89000000Y-72238588D01*
X89290254Y-72672983D01*
X89739765Y-72973337D01*
X89990000Y-73023112D01*
X89990000Y-73250000D01*
X90066882Y-73636510D01*
X90285822Y-73964178D01*
X90490000Y-74168356D01*
X90490000Y-75000000D01*
X90566882Y-75386510D01*
X90781238Y-75707318D01*
X90816882Y-75886510D01*
X91035822Y-76214178D01*
X91535822Y-76714178D01*
X91863490Y-76933118D01*
X92042682Y-76968762D01*
X92363490Y-77183118D01*
X92750000Y-77260000D01*
X93743666Y-77260000D01*
X93675794Y-77423453D01*
X93675226Y-78073694D01*
X93923538Y-78674655D01*
X94240000Y-78991669D01*
X94240000Y-79750000D01*
X94316882Y-80136510D01*
X94535822Y-80464178D01*
X95864561Y-81792917D01*
X95840235Y-81776663D01*
X95310000Y-81671193D01*
X94779765Y-81776663D01*
X94330254Y-82077017D01*
X94040000Y-82511412D01*
X93749746Y-82077017D01*
X93300235Y-81776663D01*
X92770000Y-81671193D01*
X92239765Y-81776663D01*
X91790254Y-82077017D01*
X91500000Y-82511412D01*
X91209746Y-82077017D01*
X90760235Y-81776663D01*
X90230000Y-81671193D01*
X89699765Y-81776663D01*
X89250254Y-82077017D01*
X88960000Y-82511412D01*
X88669746Y-82077017D01*
X88220235Y-81776663D01*
X87690000Y-81671193D01*
X87159765Y-81776663D01*
X87010000Y-81876733D01*
X87010000Y-79918356D01*
X87543992Y-79384364D01*
X88013694Y-79384774D01*
X88614655Y-79136462D01*
X89074846Y-78677073D01*
X89324206Y-78076547D01*
X89324774Y-77426306D01*
X89076462Y-76825345D01*
X88617073Y-76365154D01*
X88016547Y-76115794D01*
X87366306Y-76115226D01*
X86765345Y-76363538D01*
X86305154Y-76822927D01*
X86055794Y-77423453D01*
X86055276Y-78016368D01*
X85285822Y-78785822D01*
X85066882Y-79113490D01*
X84990000Y-79500000D01*
X84990000Y-85500000D01*
X85066882Y-85886510D01*
X85285822Y-86214178D01*
X85613490Y-86433118D01*
X86000000Y-86510000D01*
X88081644Y-86510000D01*
X91581333Y-90009689D01*
X91500000Y-90131412D01*
X91209746Y-89697017D01*
X90760235Y-89396663D01*
X90230000Y-89291193D01*
X89699765Y-89396663D01*
X89250254Y-89697017D01*
X88960000Y-90131412D01*
X88669746Y-89697017D01*
X88220235Y-89396663D01*
X87690000Y-89291193D01*
X87159765Y-89396663D01*
X86710254Y-89697017D01*
X86409900Y-90146528D01*
X86304430Y-90676763D01*
X86304430Y-91443237D01*
X86409900Y-91973472D01*
X86710254Y-92422983D01*
X87159765Y-92723337D01*
X87690000Y-92828807D01*
X88220235Y-92723337D01*
X88669746Y-92422983D01*
X88960000Y-91988588D01*
X89250254Y-92422983D01*
X89699765Y-92723337D01*
X90230000Y-92828807D01*
X90760235Y-92723337D01*
X91209746Y-92422983D01*
X91500000Y-91988588D01*
X91790254Y-92422983D01*
X92239765Y-92723337D01*
X92770000Y-92828807D01*
X93300235Y-92723337D01*
X93749746Y-92422983D01*
X94040000Y-91988588D01*
X94330254Y-92422983D01*
X94779765Y-92723337D01*
X95310000Y-92828807D01*
X95840235Y-92723337D01*
X95864561Y-92707083D01*
X93535822Y-95035822D01*
X93316882Y-95363490D01*
X93303346Y-95431542D01*
X93237073Y-95365154D01*
X93189224Y-95345286D01*
X93183958Y-95331035D01*
X92908211Y-95228599D01*
X92636547Y-95115794D01*
X92604478Y-95115766D01*
X92574418Y-95104599D01*
X92280472Y-95115483D01*
X91986306Y-95115226D01*
X91956667Y-95127472D01*
X91924623Y-95128659D01*
X91436042Y-95331035D01*
X91431002Y-95344673D01*
X91385345Y-95363538D01*
X90925154Y-95822927D01*
X90905286Y-95870776D01*
X90891035Y-95876042D01*
X90788599Y-96151789D01*
X90675794Y-96423453D01*
X90675766Y-96455522D01*
X90664599Y-96485582D01*
X90675483Y-96779528D01*
X90675226Y-97073694D01*
X90687472Y-97103333D01*
X90688659Y-97135377D01*
X90891035Y-97623958D01*
X90904673Y-97628998D01*
X90923538Y-97674655D01*
X91382927Y-98134846D01*
X91430776Y-98154714D01*
X91436042Y-98168965D01*
X91711789Y-98271401D01*
X91983453Y-98384206D01*
X92015522Y-98384234D01*
X92045582Y-98395401D01*
X92181267Y-98390377D01*
X91785822Y-98785822D01*
X91566882Y-99113490D01*
X91490000Y-99500000D01*
X91490000Y-101008630D01*
X91175154Y-101322927D01*
X90925794Y-101923453D01*
X90925226Y-102573694D01*
X91173538Y-103174655D01*
X91632927Y-103634846D01*
X92233453Y-103884206D01*
X92883694Y-103884774D01*
X93484655Y-103636462D01*
X93944846Y-103177073D01*
X94194206Y-102576547D01*
X94194774Y-101926306D01*
X93946462Y-101325345D01*
X93510000Y-100888121D01*
X93510000Y-99918356D01*
X94057502Y-99370854D01*
X99864457Y-99370854D01*
X99865294Y-99372880D01*
X99865295Y-99375072D01*
X100232209Y-100260881D01*
X100340727Y-100523515D01*
X100341186Y-100523974D01*
X100341436Y-100524579D01*
X100342491Y-100525282D01*
X101221847Y-101406174D01*
X101224586Y-101407311D01*
X101225421Y-101408564D01*
X101799907Y-101646205D01*
X102373674Y-101884454D01*
X102375866Y-101884456D01*
X102377892Y-101885294D01*
X102999488Y-101885000D01*
X103620854Y-101885543D01*
X103622880Y-101884706D01*
X103625072Y-101884705D01*
X104510881Y-101517791D01*
X104773515Y-101409273D01*
X104773974Y-101408814D01*
X104774579Y-101408564D01*
X104775282Y-101407509D01*
X105656174Y-100528153D01*
X105657311Y-100525414D01*
X105658564Y-100524579D01*
X105896205Y-99950093D01*
X106134454Y-99376326D01*
X106134456Y-99374134D01*
X106135294Y-99372108D01*
X106135000Y-98750512D01*
X106135543Y-98129146D01*
X106134706Y-98127120D01*
X106134705Y-98124928D01*
X105767791Y-97239119D01*
X105659273Y-96976485D01*
X105658814Y-96976026D01*
X105658564Y-96975421D01*
X105657509Y-96974718D01*
X104778153Y-96093826D01*
X104775414Y-96092689D01*
X104774579Y-96091436D01*
X104200093Y-95853795D01*
X103626326Y-95615546D01*
X103624134Y-95615544D01*
X103622108Y-95614706D01*
X103000512Y-95615000D01*
X102379146Y-95614457D01*
X102377120Y-95615294D01*
X102374928Y-95615295D01*
X101489119Y-95982209D01*
X101226485Y-96090727D01*
X101226026Y-96091186D01*
X101225421Y-96091436D01*
X101224718Y-96092491D01*
X100343826Y-96971847D01*
X100342689Y-96974586D01*
X100341436Y-96975421D01*
X100103795Y-97549907D01*
X99865546Y-98123674D01*
X99865544Y-98125866D01*
X99864706Y-98127892D01*
X99865000Y-98749488D01*
X99864457Y-99370854D01*
X94057502Y-99370854D01*
X94714178Y-98714178D01*
X94933118Y-98386510D01*
X94968762Y-98207318D01*
X95183118Y-97886510D01*
X95260000Y-97500000D01*
X95260000Y-96168356D01*
X97714178Y-93714178D01*
X97933118Y-93386510D01*
X98010000Y-93000000D01*
X98010000Y-90918356D01*
X100214178Y-88714178D01*
X100433118Y-88386510D01*
X100510000Y-88000000D01*
X100510000Y-87645600D01*
X100683118Y-87386510D01*
X100760000Y-87000000D01*
X100760000Y-82645600D01*
X100933118Y-82386510D01*
X100968196Y-82210160D01*
X102380916Y-80797440D01*
X103400000Y-80797440D01*
X103635317Y-80753162D01*
X103851441Y-80614090D01*
X103996431Y-80401890D01*
X104047440Y-80150000D01*
X104047440Y-78350000D01*
X104003162Y-78114683D01*
X103864090Y-77898559D01*
X103651890Y-77753569D01*
X103631466Y-77749433D01*
X103800551Y-77580643D01*
X104034733Y-77016670D01*
X104035265Y-76406009D01*
X103802068Y-75841629D01*
X103460082Y-75499044D01*
X103433118Y-75363490D01*
X103214178Y-75035822D01*
X102657106Y-74478750D01*
X102886510Y-74433118D01*
X103214178Y-74214178D01*
X103433118Y-73886510D01*
X103510000Y-73500000D01*
X103510000Y-70764092D01*
X106790000Y-74044092D01*
X106790000Y-101705908D01*
X102705908Y-105790000D01*
X74500005Y-105790000D01*
X74500000Y-105789999D01*
X74228295Y-105844046D01*
X73997954Y-105997954D01*
X73997952Y-105997957D01*
X71955908Y-108040000D01*
X52544092Y-108040000D01*
X48460000Y-103955908D01*
X48460000Y-86750000D01*
X48405954Y-86478295D01*
X48252046Y-86247954D01*
X42374946Y-80370854D01*
X48614457Y-80370854D01*
X48615294Y-80372880D01*
X48615295Y-80375072D01*
X48982209Y-81260881D01*
X49090727Y-81523515D01*
X49091186Y-81523974D01*
X49091436Y-81524579D01*
X49092491Y-81525282D01*
X49971847Y-82406174D01*
X49974586Y-82407311D01*
X49975421Y-82408564D01*
X50549907Y-82646205D01*
X51123674Y-82884454D01*
X51125866Y-82884456D01*
X51127892Y-82885294D01*
X51749488Y-82885000D01*
X52370854Y-82885543D01*
X52372880Y-82884706D01*
X52375072Y-82884705D01*
X53260881Y-82517791D01*
X53523515Y-82409273D01*
X53523974Y-82408814D01*
X53524579Y-82408564D01*
X53525282Y-82407509D01*
X54406174Y-81528153D01*
X54407311Y-81525414D01*
X54408564Y-81524579D01*
X54646205Y-80950093D01*
X54884454Y-80376326D01*
X54884456Y-80374134D01*
X54885294Y-80372108D01*
X54885000Y-79750512D01*
X54885543Y-79129146D01*
X54884706Y-79127120D01*
X54884705Y-79124928D01*
X54517791Y-78239119D01*
X54409273Y-77976485D01*
X54408814Y-77976026D01*
X54408564Y-77975421D01*
X54407509Y-77974718D01*
X53528153Y-77093826D01*
X53525414Y-77092689D01*
X53524579Y-77091436D01*
X52950093Y-76853795D01*
X52376326Y-76615546D01*
X52374134Y-76615544D01*
X52372108Y-76614706D01*
X51750512Y-76615000D01*
X51129146Y-76614457D01*
X51127120Y-76615294D01*
X51124928Y-76615295D01*
X50239119Y-76982209D01*
X49976485Y-77090727D01*
X49976026Y-77091186D01*
X49975421Y-77091436D01*
X49974718Y-77092491D01*
X49093826Y-77971847D01*
X49092689Y-77974586D01*
X49091436Y-77975421D01*
X48853795Y-78549907D01*
X48615546Y-79123674D01*
X48615544Y-79125866D01*
X48614706Y-79127892D01*
X48615000Y-79749488D01*
X48614457Y-80370854D01*
X42374946Y-80370854D01*
X39960000Y-77955908D01*
X39960000Y-54900000D01*
X41002560Y-54900000D01*
X41002560Y-56600000D01*
X41046838Y-56835317D01*
X41185910Y-57051441D01*
X41398110Y-57196431D01*
X41639595Y-57245333D01*
X41785822Y-57464178D01*
X44035822Y-59714178D01*
X44363490Y-59933118D01*
X44750000Y-60010001D01*
X45136511Y-59933118D01*
X45464178Y-59714178D01*
X45683118Y-59386511D01*
X45760001Y-59000000D01*
X45683118Y-58613490D01*
X45464178Y-58285822D01*
X44042857Y-56864501D01*
X44471715Y-57151054D01*
X45040000Y-57264093D01*
X45608285Y-57151054D01*
X46090054Y-56829147D01*
X46310000Y-56499974D01*
X46529946Y-56829147D01*
X47011715Y-57151054D01*
X47580000Y-57264093D01*
X48148285Y-57151054D01*
X48630054Y-56829147D01*
X48850000Y-56499974D01*
X49069946Y-56829147D01*
X49551715Y-57151054D01*
X50120000Y-57264093D01*
X50688285Y-57151054D01*
X51170054Y-56829147D01*
X51491961Y-56347378D01*
X51605000Y-55779093D01*
X51605000Y-55720907D01*
X51491961Y-55152622D01*
X51170054Y-54670853D01*
X50688285Y-54348946D01*
X50120000Y-54235907D01*
X49551715Y-54348946D01*
X49069946Y-54670853D01*
X48850000Y-55000026D01*
X48630054Y-54670853D01*
X48148285Y-54348946D01*
X47580000Y-54235907D01*
X47011715Y-54348946D01*
X46529946Y-54670853D01*
X46310000Y-55000026D01*
X46090054Y-54670853D01*
X45608285Y-54348946D01*
X45040000Y-54235907D01*
X44471715Y-54348946D01*
X43989946Y-54670853D01*
X43962150Y-54712452D01*
X43953162Y-54664683D01*
X43814090Y-54448559D01*
X43601890Y-54303569D01*
X43350000Y-54252560D01*
X41650000Y-54252560D01*
X41414683Y-54296838D01*
X41198559Y-54435910D01*
X41053569Y-54648110D01*
X41002560Y-54900000D01*
X39960000Y-54900000D01*
X39960000Y-43294092D01*
X40794092Y-42460000D01*
X94205908Y-42460000D01*
X99540000Y-47794092D01*
G36*
X94330254Y-84802983D02*
X94779765Y-85103337D01*
X95310000Y-85208807D01*
X95688032Y-85133612D01*
X94535822Y-86285822D01*
X94316882Y-86613490D01*
X94240000Y-87000000D01*
X94316882Y-87386510D01*
X94535822Y-87714178D01*
X94863490Y-87933118D01*
X95250000Y-88010000D01*
X95636510Y-87933118D01*
X95642586Y-87929058D01*
X94535822Y-89035822D01*
X94316882Y-89363490D01*
X94240000Y-89750000D01*
X94240000Y-89832091D01*
X94040000Y-90131412D01*
X93749746Y-89697017D01*
X93749417Y-89696797D01*
X93683118Y-89363490D01*
X93464178Y-89035822D01*
X89214178Y-84785822D01*
X88886510Y-84566882D01*
X88834426Y-84556522D01*
X88960000Y-84368588D01*
X89250254Y-84802983D01*
X89699765Y-85103337D01*
X90230000Y-85208807D01*
X90760235Y-85103337D01*
X91209746Y-84802983D01*
X91500000Y-84368588D01*
X91790254Y-84802983D01*
X92239765Y-85103337D01*
X92770000Y-85208807D01*
X93300235Y-85103337D01*
X93749746Y-84802983D01*
X94040000Y-84368588D01*
X94330254Y-84802983D01*
X94330254Y-84802983D01*
G37*
X94330254Y-84802983D02*
X94779765Y-85103337D01*
X95310000Y-85208807D01*
X95688032Y-85133612D01*
X94535822Y-86285822D01*
X94316882Y-86613490D01*
X94240000Y-87000000D01*
X94316882Y-87386510D01*
X94535822Y-87714178D01*
X94863490Y-87933118D01*
X95250000Y-88010000D01*
X95636510Y-87933118D01*
X95642586Y-87929058D01*
X94535822Y-89035822D01*
X94316882Y-89363490D01*
X94240000Y-89750000D01*
X94240000Y-89832091D01*
X94040000Y-90131412D01*
X93749746Y-89697017D01*
X93749417Y-89696797D01*
X93683118Y-89363490D01*
X93464178Y-89035822D01*
X89214178Y-84785822D01*
X88886510Y-84566882D01*
X88834426Y-84556522D01*
X88960000Y-84368588D01*
X89250254Y-84802983D01*
X89699765Y-85103337D01*
X90230000Y-85208807D01*
X90760235Y-85103337D01*
X91209746Y-84802983D01*
X91500000Y-84368588D01*
X91790254Y-84802983D01*
X92239765Y-85103337D01*
X92770000Y-85208807D01*
X93300235Y-85103337D01*
X93749746Y-84802983D01*
X94040000Y-84368588D01*
X94330254Y-84802983D01*
G36*
X100952560Y-79369084D02*
X99510000Y-80811644D01*
X99510000Y-80168356D01*
X100952560Y-78725796D01*
X100952560Y-79369084D01*
X100952560Y-79369084D01*
G37*
X100952560Y-79369084D02*
X99510000Y-80811644D01*
X99510000Y-80168356D01*
X100952560Y-78725796D01*
X100952560Y-79369084D01*
G36*
X96910254Y-72672983D02*
X97359765Y-72973337D01*
X97890000Y-73078807D01*
X98315762Y-72994118D01*
X101134372Y-75812728D01*
X101113490Y-75816882D01*
X100785822Y-76035822D01*
X97785822Y-79035822D01*
X97566882Y-79363490D01*
X97490000Y-79750000D01*
X97490000Y-80561644D01*
X96260000Y-79331644D01*
X96260000Y-79111161D01*
X96694846Y-78677073D01*
X96944206Y-78076547D01*
X96944774Y-77426306D01*
X96696462Y-76825345D01*
X96237073Y-76365154D01*
X95636547Y-76115794D01*
X95280124Y-76115483D01*
X95433118Y-75886510D01*
X95510000Y-75500000D01*
X95433118Y-75113490D01*
X95214178Y-74785822D01*
X94886510Y-74566882D01*
X94657106Y-74521250D01*
X95214178Y-73964178D01*
X95433118Y-73636510D01*
X95510000Y-73250000D01*
X95510000Y-73046981D01*
X95880235Y-72973337D01*
X96329746Y-72672983D01*
X96620000Y-72238588D01*
X96910254Y-72672983D01*
X96910254Y-72672983D01*
G37*
X96910254Y-72672983D02*
X97359765Y-72973337D01*
X97890000Y-73078807D01*
X98315762Y-72994118D01*
X101134372Y-75812728D01*
X101113490Y-75816882D01*
X100785822Y-76035822D01*
X97785822Y-79035822D01*
X97566882Y-79363490D01*
X97490000Y-79750000D01*
X97490000Y-80561644D01*
X96260000Y-79331644D01*
X96260000Y-79111161D01*
X96694846Y-78677073D01*
X96944206Y-78076547D01*
X96944774Y-77426306D01*
X96696462Y-76825345D01*
X96237073Y-76365154D01*
X95636547Y-76115794D01*
X95280124Y-76115483D01*
X95433118Y-75886510D01*
X95510000Y-75500000D01*
X95433118Y-75113490D01*
X95214178Y-74785822D01*
X94886510Y-74566882D01*
X94657106Y-74521250D01*
X95214178Y-73964178D01*
X95433118Y-73636510D01*
X95510000Y-73250000D01*
X95510000Y-73046981D01*
X95880235Y-72973337D01*
X96329746Y-72672983D01*
X96620000Y-72238588D01*
X96910254Y-72672983D01*
G36*
X92279765Y-72973337D02*
X92810000Y-73078807D01*
X93340235Y-72973337D01*
X93364561Y-72957083D01*
X92510000Y-73811644D01*
X92510000Y-73750000D01*
X92433118Y-73363490D01*
X92214178Y-73035822D01*
X92010000Y-72831644D01*
X92010000Y-72793086D01*
X92279765Y-72973337D01*
X92279765Y-72973337D01*
G37*
X92279765Y-72973337D02*
X92810000Y-73078807D01*
X93340235Y-72973337D01*
X93364561Y-72957083D01*
X92510000Y-73811644D01*
X92510000Y-73750000D01*
X92433118Y-73363490D01*
X92214178Y-73035822D01*
X92010000Y-72831644D01*
X92010000Y-72793086D01*
X92279765Y-72973337D01*
G36*
X101490000Y-73311644D02*
X101157106Y-72978750D01*
X101386510Y-72933118D01*
X101490000Y-72863968D01*
X101490000Y-73311644D01*
X101490000Y-73311644D01*
G37*
X101490000Y-73311644D02*
X101157106Y-72978750D01*
X101386510Y-72933118D01*
X101490000Y-72863968D01*
X101490000Y-73311644D01*
G36*
X99990000Y-71811644D02*
X99275570Y-71097214D01*
X99275570Y-70926763D01*
X99170100Y-70396528D01*
X98869746Y-69947017D01*
X98420235Y-69646663D01*
X97890000Y-69541193D01*
X97359765Y-69646663D01*
X96910254Y-69947017D01*
X96620000Y-70381412D01*
X96490602Y-70187754D01*
X99990000Y-66688356D01*
X99990000Y-71811644D01*
X99990000Y-71811644D01*
G37*
X99990000Y-71811644D02*
X99275570Y-71097214D01*
X99275570Y-70926763D01*
X99170100Y-70396528D01*
X98869746Y-69947017D01*
X98420235Y-69646663D01*
X97890000Y-69541193D01*
X97359765Y-69646663D01*
X96910254Y-69947017D01*
X96620000Y-70381412D01*
X96490602Y-70187754D01*
X99990000Y-66688356D01*
X99990000Y-71811644D01*
G36*
X69331224Y-71740420D02*
X69323846Y-71747798D01*
X69330000Y-71738588D01*
X69331224Y-71740420D01*
X69331224Y-71740420D01*
G37*
X69331224Y-71740420D02*
X69323846Y-71747798D01*
X69330000Y-71738588D01*
X69331224Y-71740420D01*
G36*
X80740000Y-65331644D02*
X74437960Y-71633684D01*
X74525570Y-71193237D01*
X74525570Y-70902786D01*
X79992851Y-65435505D01*
X80110000Y-65458807D01*
X80640235Y-65353337D01*
X80740000Y-65286676D01*
X80740000Y-65331644D01*
X80740000Y-65331644D01*
G37*
X80740000Y-65331644D02*
X74437960Y-71633684D01*
X74525570Y-71193237D01*
X74525570Y-70902786D01*
X79992851Y-65435505D01*
X80110000Y-65458807D01*
X80640235Y-65353337D01*
X80740000Y-65286676D01*
X80740000Y-65331644D01*
G36*
X77029946Y-56579147D02*
X77511715Y-56901054D01*
X77740000Y-56946463D01*
X77740000Y-57250000D01*
X77816882Y-57636510D01*
X78035822Y-57964178D01*
X78363490Y-58183118D01*
X78750000Y-58260000D01*
X79331644Y-58260000D01*
X83077964Y-62006320D01*
X82650000Y-61921193D01*
X82119765Y-62026663D01*
X81670254Y-62327017D01*
X81380000Y-62761412D01*
X81089746Y-62327017D01*
X80640235Y-62026663D01*
X80110000Y-61921193D01*
X79579765Y-62026663D01*
X79130254Y-62327017D01*
X78829900Y-62776528D01*
X78724430Y-63306763D01*
X78724430Y-63847214D01*
X73465671Y-69105973D01*
X73140000Y-69041193D01*
X72609765Y-69146663D01*
X72160254Y-69447017D01*
X71870000Y-69881412D01*
X71579746Y-69447017D01*
X71130235Y-69146663D01*
X70600000Y-69041193D01*
X70069765Y-69146663D01*
X69620254Y-69447017D01*
X69330000Y-69881412D01*
X69039746Y-69447017D01*
X68993286Y-69415973D01*
X68933118Y-69113490D01*
X68714178Y-68785822D01*
X67923050Y-67994694D01*
X68000000Y-68010000D01*
X68386510Y-67933118D01*
X68714178Y-67714178D01*
X68933118Y-67386510D01*
X69010000Y-67000000D01*
X68933118Y-66613490D01*
X68714178Y-66285822D01*
X66692645Y-64264289D01*
X66790000Y-64118588D01*
X67080254Y-64552983D01*
X67529765Y-64853337D01*
X68060000Y-64958807D01*
X68590235Y-64853337D01*
X69039746Y-64552983D01*
X69330000Y-64118588D01*
X69620254Y-64552983D01*
X70069765Y-64853337D01*
X70600000Y-64958807D01*
X71130235Y-64853337D01*
X71579746Y-64552983D01*
X71870000Y-64118588D01*
X72160254Y-64552983D01*
X72609765Y-64853337D01*
X73140000Y-64958807D01*
X73670235Y-64853337D01*
X74119746Y-64552983D01*
X74420100Y-64103472D01*
X74525570Y-63573237D01*
X74525570Y-62806763D01*
X74420100Y-62276528D01*
X74119746Y-61827017D01*
X73670235Y-61526663D01*
X73260000Y-61445062D01*
X73260000Y-61250005D01*
X73260001Y-61250000D01*
X73183118Y-60863490D01*
X72964178Y-60535822D01*
X71010000Y-58581644D01*
X71010000Y-58212261D01*
X71039840Y-58218196D01*
X75035822Y-62214178D01*
X75363490Y-62433118D01*
X75750000Y-62510000D01*
X76136510Y-62433118D01*
X76464178Y-62214178D01*
X76683118Y-61886510D01*
X76760000Y-61500000D01*
X76683118Y-61113490D01*
X76464178Y-60785822D01*
X72675796Y-56997440D01*
X73850000Y-56997440D01*
X74085317Y-56953162D01*
X74301441Y-56814090D01*
X74446431Y-56601890D01*
X74460086Y-56534459D01*
X74489946Y-56579147D01*
X74971715Y-56901054D01*
X75540000Y-57014093D01*
X76108285Y-56901054D01*
X76590054Y-56579147D01*
X76810000Y-56249974D01*
X77029946Y-56579147D01*
X77029946Y-56579147D01*
G37*
X77029946Y-56579147D02*
X77511715Y-56901054D01*
X77740000Y-56946463D01*
X77740000Y-57250000D01*
X77816882Y-57636510D01*
X78035822Y-57964178D01*
X78363490Y-58183118D01*
X78750000Y-58260000D01*
X79331644Y-58260000D01*
X83077964Y-62006320D01*
X82650000Y-61921193D01*
X82119765Y-62026663D01*
X81670254Y-62327017D01*
X81380000Y-62761412D01*
X81089746Y-62327017D01*
X80640235Y-62026663D01*
X80110000Y-61921193D01*
X79579765Y-62026663D01*
X79130254Y-62327017D01*
X78829900Y-62776528D01*
X78724430Y-63306763D01*
X78724430Y-63847214D01*
X73465671Y-69105973D01*
X73140000Y-69041193D01*
X72609765Y-69146663D01*
X72160254Y-69447017D01*
X71870000Y-69881412D01*
X71579746Y-69447017D01*
X71130235Y-69146663D01*
X70600000Y-69041193D01*
X70069765Y-69146663D01*
X69620254Y-69447017D01*
X69330000Y-69881412D01*
X69039746Y-69447017D01*
X68993286Y-69415973D01*
X68933118Y-69113490D01*
X68714178Y-68785822D01*
X67923050Y-67994694D01*
X68000000Y-68010000D01*
X68386510Y-67933118D01*
X68714178Y-67714178D01*
X68933118Y-67386510D01*
X69010000Y-67000000D01*
X68933118Y-66613490D01*
X68714178Y-66285822D01*
X66692645Y-64264289D01*
X66790000Y-64118588D01*
X67080254Y-64552983D01*
X67529765Y-64853337D01*
X68060000Y-64958807D01*
X68590235Y-64853337D01*
X69039746Y-64552983D01*
X69330000Y-64118588D01*
X69620254Y-64552983D01*
X70069765Y-64853337D01*
X70600000Y-64958807D01*
X71130235Y-64853337D01*
X71579746Y-64552983D01*
X71870000Y-64118588D01*
X72160254Y-64552983D01*
X72609765Y-64853337D01*
X73140000Y-64958807D01*
X73670235Y-64853337D01*
X74119746Y-64552983D01*
X74420100Y-64103472D01*
X74525570Y-63573237D01*
X74525570Y-62806763D01*
X74420100Y-62276528D01*
X74119746Y-61827017D01*
X73670235Y-61526663D01*
X73260000Y-61445062D01*
X73260000Y-61250005D01*
X73260001Y-61250000D01*
X73183118Y-60863490D01*
X72964178Y-60535822D01*
X71010000Y-58581644D01*
X71010000Y-58212261D01*
X71039840Y-58218196D01*
X75035822Y-62214178D01*
X75363490Y-62433118D01*
X75750000Y-62510000D01*
X76136510Y-62433118D01*
X76464178Y-62214178D01*
X76683118Y-61886510D01*
X76760000Y-61500000D01*
X76683118Y-61113490D01*
X76464178Y-60785822D01*
X72675796Y-56997440D01*
X73850000Y-56997440D01*
X74085317Y-56953162D01*
X74301441Y-56814090D01*
X74446431Y-56601890D01*
X74460086Y-56534459D01*
X74489946Y-56579147D01*
X74971715Y-56901054D01*
X75540000Y-57014093D01*
X76108285Y-56901054D01*
X76590054Y-56579147D01*
X76810000Y-56249974D01*
X77029946Y-56579147D01*
G36*
X53539840Y-60281804D02*
X53363490Y-60316882D01*
X53035822Y-60535822D01*
X52816882Y-60863490D01*
X52740000Y-61250000D01*
X52740000Y-65250000D01*
X52816882Y-65636510D01*
X53035822Y-65964178D01*
X54785822Y-67714178D01*
X55113490Y-67933118D01*
X55500000Y-68010000D01*
X55886510Y-67933118D01*
X56214178Y-67714178D01*
X56433118Y-67386510D01*
X56510000Y-67000000D01*
X56433118Y-66613490D01*
X56214178Y-66285822D01*
X54760000Y-64831644D01*
X54760000Y-64806721D01*
X54829765Y-64853337D01*
X55360000Y-64958807D01*
X55890235Y-64853337D01*
X56339746Y-64552983D01*
X56630000Y-64118588D01*
X56920254Y-64552983D01*
X57369765Y-64853337D01*
X57900000Y-64958807D01*
X58430235Y-64853337D01*
X58879746Y-64552983D01*
X59170000Y-64118588D01*
X59460254Y-64552983D01*
X59909765Y-64853337D01*
X60440000Y-64958807D01*
X60970235Y-64853337D01*
X61419746Y-64552983D01*
X61710000Y-64118588D01*
X62000254Y-64552983D01*
X62449765Y-64853337D01*
X62980000Y-64958807D01*
X63510235Y-64853337D01*
X63959746Y-64552983D01*
X64250000Y-64118588D01*
X64490000Y-64477773D01*
X64490000Y-64500000D01*
X64566882Y-64886510D01*
X64785822Y-65214178D01*
X65576950Y-66005306D01*
X65500000Y-65990000D01*
X65113490Y-66066882D01*
X64785822Y-66285822D01*
X64566882Y-66613490D01*
X64490000Y-67000000D01*
X64566882Y-67386510D01*
X64785822Y-67714178D01*
X66855311Y-69783667D01*
X66790000Y-69881412D01*
X66757135Y-69832227D01*
X66751499Y-69813183D01*
X66710874Y-69762992D01*
X66499746Y-69447017D01*
X66050235Y-69146663D01*
X65520000Y-69041193D01*
X64989765Y-69146663D01*
X64540254Y-69447017D01*
X64329126Y-69762992D01*
X64288501Y-69813183D01*
X64282865Y-69832227D01*
X64250000Y-69881412D01*
X63959746Y-69447017D01*
X63510235Y-69146663D01*
X62980000Y-69041193D01*
X62449765Y-69146663D01*
X62000254Y-69447017D01*
X61710000Y-69881412D01*
X61419746Y-69447017D01*
X60970235Y-69146663D01*
X60440000Y-69041193D01*
X59909765Y-69146663D01*
X59460254Y-69447017D01*
X59170000Y-69881412D01*
X58879746Y-69447017D01*
X58430235Y-69146663D01*
X57900000Y-69041193D01*
X57369765Y-69146663D01*
X56920254Y-69447017D01*
X56630000Y-69881412D01*
X56339746Y-69447017D01*
X55890235Y-69146663D01*
X55360000Y-69041193D01*
X54829765Y-69146663D01*
X54760000Y-69193279D01*
X54760000Y-68750000D01*
X54683118Y-68363490D01*
X54464178Y-68035822D01*
X52464178Y-66035822D01*
X52136510Y-65816882D01*
X51750000Y-65740000D01*
X51363490Y-65816882D01*
X51260000Y-65886032D01*
X51260000Y-62168356D01*
X56430916Y-56997440D01*
X56824204Y-56997440D01*
X53539840Y-60281804D01*
X53539840Y-60281804D01*
G37*
X53539840Y-60281804D02*
X53363490Y-60316882D01*
X53035822Y-60535822D01*
X52816882Y-60863490D01*
X52740000Y-61250000D01*
X52740000Y-65250000D01*
X52816882Y-65636510D01*
X53035822Y-65964178D01*
X54785822Y-67714178D01*
X55113490Y-67933118D01*
X55500000Y-68010000D01*
X55886510Y-67933118D01*
X56214178Y-67714178D01*
X56433118Y-67386510D01*
X56510000Y-67000000D01*
X56433118Y-66613490D01*
X56214178Y-66285822D01*
X54760000Y-64831644D01*
X54760000Y-64806721D01*
X54829765Y-64853337D01*
X55360000Y-64958807D01*
X55890235Y-64853337D01*
X56339746Y-64552983D01*
X56630000Y-64118588D01*
X56920254Y-64552983D01*
X57369765Y-64853337D01*
X57900000Y-64958807D01*
X58430235Y-64853337D01*
X58879746Y-64552983D01*
X59170000Y-64118588D01*
X59460254Y-64552983D01*
X59909765Y-64853337D01*
X60440000Y-64958807D01*
X60970235Y-64853337D01*
X61419746Y-64552983D01*
X61710000Y-64118588D01*
X62000254Y-64552983D01*
X62449765Y-64853337D01*
X62980000Y-64958807D01*
X63510235Y-64853337D01*
X63959746Y-64552983D01*
X64250000Y-64118588D01*
X64490000Y-64477773D01*
X64490000Y-64500000D01*
X64566882Y-64886510D01*
X64785822Y-65214178D01*
X65576950Y-66005306D01*
X65500000Y-65990000D01*
X65113490Y-66066882D01*
X64785822Y-66285822D01*
X64566882Y-66613490D01*
X64490000Y-67000000D01*
X64566882Y-67386510D01*
X64785822Y-67714178D01*
X66855311Y-69783667D01*
X66790000Y-69881412D01*
X66757135Y-69832227D01*
X66751499Y-69813183D01*
X66710874Y-69762992D01*
X66499746Y-69447017D01*
X66050235Y-69146663D01*
X65520000Y-69041193D01*
X64989765Y-69146663D01*
X64540254Y-69447017D01*
X64329126Y-69762992D01*
X64288501Y-69813183D01*
X64282865Y-69832227D01*
X64250000Y-69881412D01*
X63959746Y-69447017D01*
X63510235Y-69146663D01*
X62980000Y-69041193D01*
X62449765Y-69146663D01*
X62000254Y-69447017D01*
X61710000Y-69881412D01*
X61419746Y-69447017D01*
X60970235Y-69146663D01*
X60440000Y-69041193D01*
X59909765Y-69146663D01*
X59460254Y-69447017D01*
X59170000Y-69881412D01*
X58879746Y-69447017D01*
X58430235Y-69146663D01*
X57900000Y-69041193D01*
X57369765Y-69146663D01*
X56920254Y-69447017D01*
X56630000Y-69881412D01*
X56339746Y-69447017D01*
X55890235Y-69146663D01*
X55360000Y-69041193D01*
X54829765Y-69146663D01*
X54760000Y-69193279D01*
X54760000Y-68750000D01*
X54683118Y-68363490D01*
X54464178Y-68035822D01*
X52464178Y-66035822D01*
X52136510Y-65816882D01*
X51750000Y-65740000D01*
X51363490Y-65816882D01*
X51260000Y-65886032D01*
X51260000Y-62168356D01*
X56430916Y-56997440D01*
X56824204Y-56997440D01*
X53539840Y-60281804D01*
G36*
X59170000Y-62261412D02*
X59168776Y-62259580D01*
X59176154Y-62252202D01*
X59170000Y-62261412D01*
X59170000Y-62261412D01*
G37*
X59170000Y-62261412D02*
X59168776Y-62259580D01*
X59176154Y-62252202D01*
X59170000Y-62261412D01*
G36*
X62990000Y-56459499D02*
X62990000Y-58000000D01*
X63066882Y-58386510D01*
X63285822Y-58714178D01*
X63342894Y-58771250D01*
X63113490Y-58816882D01*
X62785822Y-59035822D01*
X62285822Y-59535822D01*
X62066882Y-59863490D01*
X61990000Y-60250000D01*
X61990000Y-61842363D01*
X61710000Y-62261412D01*
X61419746Y-61827017D01*
X60970235Y-61526663D01*
X60440000Y-61421193D01*
X59909765Y-61526663D01*
X59885439Y-61542917D01*
X60964178Y-60464178D01*
X61183118Y-60136510D01*
X61260001Y-59750000D01*
X61183118Y-59363489D01*
X60964178Y-59035822D01*
X60636511Y-58816882D01*
X60250000Y-58739999D01*
X59863490Y-58816882D01*
X59535822Y-59035822D01*
X57285822Y-61285822D01*
X57066882Y-61613490D01*
X57040374Y-61746755D01*
X56920254Y-61827017D01*
X56630000Y-62261412D01*
X56339746Y-61827017D01*
X55890235Y-61526663D01*
X55360000Y-61421193D01*
X55231628Y-61446728D01*
X58460160Y-58218196D01*
X58636510Y-58183118D01*
X58964178Y-57964178D01*
X59183118Y-57636510D01*
X59260000Y-57250000D01*
X59260000Y-56970332D01*
X59608285Y-56901054D01*
X60090054Y-56579147D01*
X60310000Y-56249974D01*
X60529946Y-56579147D01*
X61011715Y-56901054D01*
X61580000Y-57014093D01*
X62148285Y-56901054D01*
X62630054Y-56579147D01*
X62850000Y-56249974D01*
X62990000Y-56459499D01*
X62990000Y-56459499D01*
G37*
X62990000Y-56459499D02*
X62990000Y-58000000D01*
X63066882Y-58386510D01*
X63285822Y-58714178D01*
X63342894Y-58771250D01*
X63113490Y-58816882D01*
X62785822Y-59035822D01*
X62285822Y-59535822D01*
X62066882Y-59863490D01*
X61990000Y-60250000D01*
X61990000Y-61842363D01*
X61710000Y-62261412D01*
X61419746Y-61827017D01*
X60970235Y-61526663D01*
X60440000Y-61421193D01*
X59909765Y-61526663D01*
X59885439Y-61542917D01*
X60964178Y-60464178D01*
X61183118Y-60136510D01*
X61260001Y-59750000D01*
X61183118Y-59363489D01*
X60964178Y-59035822D01*
X60636511Y-58816882D01*
X60250000Y-58739999D01*
X59863490Y-58816882D01*
X59535822Y-59035822D01*
X57285822Y-61285822D01*
X57066882Y-61613490D01*
X57040374Y-61746755D01*
X56920254Y-61827017D01*
X56630000Y-62261412D01*
X56339746Y-61827017D01*
X55890235Y-61526663D01*
X55360000Y-61421193D01*
X55231628Y-61446728D01*
X58460160Y-58218196D01*
X58636510Y-58183118D01*
X58964178Y-57964178D01*
X59183118Y-57636510D01*
X59260000Y-57250000D01*
X59260000Y-56970332D01*
X59608285Y-56901054D01*
X60090054Y-56579147D01*
X60310000Y-56249974D01*
X60529946Y-56579147D01*
X61011715Y-56901054D01*
X61580000Y-57014093D01*
X62148285Y-56901054D01*
X62630054Y-56579147D01*
X62850000Y-56249974D01*
X62990000Y-56459499D01*
G36*
X66195108Y-61623464D02*
X66050235Y-61526663D01*
X65520000Y-61421193D01*
X64989765Y-61526663D01*
X64540254Y-61827017D01*
X64250000Y-62261412D01*
X64010000Y-61902227D01*
X64010000Y-60668356D01*
X64214178Y-60464178D01*
X64433118Y-60136510D01*
X64478750Y-59907106D01*
X66195108Y-61623464D01*
X66195108Y-61623464D01*
G37*
X66195108Y-61623464D02*
X66050235Y-61526663D01*
X65520000Y-61421193D01*
X64989765Y-61526663D01*
X64540254Y-61827017D01*
X64250000Y-62261412D01*
X64010000Y-61902227D01*
X64010000Y-60668356D01*
X64214178Y-60464178D01*
X64433118Y-60136510D01*
X64478750Y-59907106D01*
X66195108Y-61623464D01*
M02*
