G04 #@! TF.FileFunction,Profile,NP*
%FSLAX46Y46*%
G04 Gerber Fmt 4.6, Leading zero omitted, Abs format (unit mm)*
G04 Created by KiCad (PCBNEW 4.0.7) date 06/28/18 23:41:18*
%MOMM*%
%LPD*%
G01*
G04 APERTURE LIST*
%ADD10C,0.100000*%
%ADD11C,0.150000*%
G04 APERTURE END LIST*
D10*
D11*
X93522800Y-34747200D02*
X93522800Y-24079200D01*
X93522800Y-65735200D02*
X93522800Y-43510200D01*
X92252800Y-42240200D02*
X93522800Y-43510200D01*
X92252800Y-36017200D02*
X92252800Y-42240200D01*
X93522800Y-34747200D02*
X92252800Y-36017200D01*
X46278800Y-82118200D02*
X45643800Y-82118200D01*
X47421800Y-80975200D02*
X46278800Y-82118200D01*
X65836800Y-80975200D02*
X47421800Y-80975200D01*
X68503800Y-78308200D02*
X65836800Y-80975200D01*
X75869800Y-78308200D02*
X68503800Y-78308200D01*
X77012800Y-77165200D02*
X75869800Y-78308200D01*
X83235800Y-77165200D02*
X77012800Y-77165200D01*
X66471800Y-20142200D02*
X51739800Y-20142200D01*
X31038800Y-29032200D02*
X31038800Y-31191200D01*
X31165800Y-28905200D02*
X31038800Y-29032200D01*
X36372800Y-23698200D02*
X31165800Y-28905200D01*
X48183800Y-23698200D02*
X36372800Y-23698200D01*
X51739800Y-20142200D02*
X48183800Y-23698200D01*
X80060800Y-22809200D02*
X81203800Y-22809200D01*
X77393800Y-20142200D02*
X80060800Y-22809200D01*
X69900800Y-20142200D02*
X77393800Y-20142200D01*
X31673800Y-77419200D02*
X36372800Y-82118200D01*
X31673800Y-64338200D02*
X31673800Y-77419200D01*
X33451800Y-62560200D02*
X31673800Y-64338200D01*
X33451800Y-59512200D02*
X33451800Y-62560200D01*
X31038800Y-57099200D02*
X33451800Y-59512200D01*
X31038800Y-31191200D02*
X31038800Y-57099200D01*
X96697800Y-67005200D02*
X97205800Y-67513200D01*
X96570800Y-67005200D02*
X96697800Y-67005200D01*
X94792800Y-67005200D02*
X96570800Y-67005200D01*
X93522800Y-65735200D02*
X94792800Y-67005200D01*
X92252800Y-22809200D02*
X93522800Y-24079200D01*
X90855800Y-22809200D02*
X92252800Y-22809200D01*
X81203800Y-22809200D02*
X90855800Y-22809200D01*
X66471800Y-20142200D02*
X69900800Y-20142200D01*
X101523800Y-71831200D02*
X101523800Y-74117200D01*
X98475800Y-77165200D02*
X101523800Y-74117200D01*
X83235800Y-77165200D02*
X98475800Y-77165200D01*
X36372800Y-82118200D02*
X45643800Y-82118200D01*
X97205800Y-67513200D02*
X101523800Y-71831200D01*
M02*
