M48
;DRILL file {KiCad 4.0.7} date 07/20/18 00:39:27
;FORMAT={-:-/ absolute / metric / decimal}
FMAT,2
METRIC,TZ
T1C0.400
T2C0.800
T3C0.800
T4C0.900
T5C1.000
T6C1.200
T7C1.300
T8C2.500
%
G90
G05
M71
T1
X44.75Y-59.
X51.75Y-66.75
X51.75Y-70.75
X55.5Y-67.
X57.25Y-73.75
X60.25Y-59.75
X63.5Y-59.75
X65.25Y-74.25
X65.5Y-67.
X65.5Y-77.
X68.Y-67.
X70.Y-54.5
X70.Y-57.
X71.25Y-77.25
X71.75Y-75.75
X75.75Y-61.5
X79.75Y-91.25
X82.Y-89.
X83.5Y-58.25
X84.Y-89.5
X91.25Y-61.
X93.Y-74.75
X94.5Y-75.5
X95.25Y-87.
X95.75Y-55.
X96.75Y-53.5
X101.Y-72.
X102.5Y-73.5
T2
X74.5Y-83.5
X74.75Y-96.75
X77.Y-83.5
X77.25Y-96.75
T3
X55.36Y-63.19
X55.36Y-70.81
X57.9Y-63.19
X57.9Y-70.81
X60.44Y-63.19
X60.44Y-70.81
X62.98Y-63.19
X62.98Y-70.81
X65.52Y-63.19
X65.52Y-70.81
X68.06Y-63.19
X68.06Y-70.81
X70.6Y-63.19
X70.6Y-70.81
X73.14Y-63.19
X73.14Y-70.81
X80.11Y-63.69
X80.11Y-71.31
X82.65Y-63.69
X82.65Y-71.31
X84.69Y-96.75
X84.94Y-102.25
X85.19Y-63.69
X85.19Y-71.31
X87.69Y-77.75
X87.69Y-83.44
X87.69Y-91.06
X87.73Y-63.69
X87.73Y-71.31
X90.23Y-83.44
X90.23Y-91.06
X90.27Y-63.69
X90.27Y-71.31
X92.31Y-96.75
X92.56Y-102.25
X92.77Y-83.44
X92.77Y-91.06
X92.81Y-63.69
X92.81Y-71.31
X95.31Y-77.75
X95.31Y-83.44
X95.31Y-91.06
X95.35Y-63.69
X95.35Y-71.31
X97.89Y-63.69
X97.89Y-71.31
T4
X102.5Y-76.71
X102.5Y-79.25
T5
X42.5Y-55.75
X45.04Y-55.75
X47.58Y-55.75
X50.12Y-55.75
X56.5Y-55.5
X59.04Y-55.5
X61.58Y-55.5
X64.12Y-55.5
X73.Y-55.5
X75.54Y-55.5
X78.08Y-55.5
X80.62Y-55.5
X87.75Y-55.75
X90.29Y-55.75
X92.83Y-55.75
T6
X56.Y-96.84
X58.5Y-96.84
X61.Y-101.846
X63.5Y-96.84
X66.Y-96.84
T7
X57.751Y-88.501
X60.25Y-78.499
X62.749Y-88.501
T8
X51.75Y-79.75
X103.Y-98.75
T0
M30
