G04 #@! TF.FileFunction,Profile,NP*
%FSLAX46Y46*%
G04 Gerber Fmt 4.6, Leading zero omitted, Abs format (unit mm)*
G04 Created by KiCad (PCBNEW 4.0.7) date 06/02/18 16:37:52*
%MOMM*%
%LPD*%
G01*
G04 APERTURE LIST*
%ADD10C,0.100000*%
%ADD11C,0.150000*%
G04 APERTURE END LIST*
D10*
D11*
X51750000Y-60750000D02*
X81250000Y-60750000D01*
X83250000Y-58750000D02*
X81250000Y-60750000D01*
X86500000Y-55500000D02*
X83250000Y-58750000D01*
X88500000Y-55500000D02*
X86500000Y-55500000D01*
X50250000Y-62250000D02*
X51750000Y-60750000D01*
X31750000Y-62250000D02*
X50250000Y-62250000D01*
X30500000Y-61000000D02*
X31750000Y-62250000D01*
X23750000Y-57250000D02*
X24250000Y-57750000D01*
X23750000Y-30250000D02*
X23750000Y-57250000D01*
X24500000Y-29500000D02*
X23750000Y-30250000D01*
X26500000Y-27500000D02*
X24500000Y-29500000D01*
X26500000Y-17500000D02*
X26500000Y-27500000D01*
X27500000Y-16500000D02*
X26500000Y-17500000D01*
X26000000Y-59500000D02*
X24250000Y-57750000D01*
X29000000Y-59500000D02*
X26000000Y-59500000D01*
X30500000Y-61000000D02*
X29000000Y-59500000D01*
X88500000Y-50000000D02*
X88500000Y-55500000D01*
X89500000Y-49000000D02*
X88500000Y-50000000D01*
X95500000Y-49000000D02*
X89500000Y-49000000D01*
X98000000Y-46500000D02*
X95500000Y-49000000D01*
X98000000Y-33500000D02*
X98000000Y-46500000D01*
X90500000Y-26000000D02*
X98000000Y-33500000D01*
X88000000Y-26000000D02*
X90500000Y-26000000D01*
X78500000Y-16500000D02*
X88000000Y-26000000D01*
X27500000Y-16500000D02*
X78500000Y-16500000D01*
M02*
