M48
;DRILL file {KiCad 4.0.7} date 06/02/18 16:37:47
;FORMAT={-:-/ absolute / metric / decimal}
FMAT,2
METRIC,TZ
T1C0.400
T2C0.800
T3C0.800
T4C1.000
T5C1.300
%
G90
G05
M71
T1
X25.75Y-39.5
X26.25Y-55.5
X27.75Y-32.5
X28.25Y-34.5
X31.5Y-37.75
X33.Y-44.75
X33.Y-49.5
X34.25Y-58.5
X34.5Y-32.
X37.5Y-58.
X39.Y-59.5
X40.5Y-49.75
X41.Y-51.25
X41.75Y-61.
X47.25Y-33.5
X49.75Y-58.5
X51.Y-40.25
X51.Y-49.75
X51.Y-54.75
X57.5Y-36.25
X62.5Y-36.25
X67.75Y-35.25
X79.Y-36.5
T2
X68.Y-25.
X70.5Y-25.
X79.5Y-51.5
X82.Y-51.5
T3
X29.19Y-37.11
X29.19Y-39.65
X29.19Y-42.19
X29.19Y-44.73
X29.19Y-47.27
X29.19Y-49.81
X29.19Y-52.35
X29.19Y-54.89
X36.81Y-37.11
X36.81Y-39.65
X36.81Y-42.19
X36.81Y-44.73
X36.81Y-47.27
X36.81Y-49.81
X36.81Y-52.35
X36.81Y-54.89
X47.19Y-37.11
X47.19Y-39.65
X47.19Y-42.19
X47.19Y-44.73
X47.19Y-47.27
X47.19Y-49.81
X47.19Y-52.35
X47.19Y-54.89
X54.81Y-37.11
X54.81Y-39.65
X54.81Y-42.19
X54.81Y-44.73
X54.81Y-47.27
X54.81Y-49.81
X54.81Y-52.35
X54.81Y-54.89
X57.404Y-20.574
X57.404Y-28.194
X65.19Y-35.19
X65.19Y-37.73
X65.19Y-40.27
X65.19Y-42.81
X72.81Y-35.19
X72.81Y-37.73
X72.81Y-40.27
X72.81Y-42.81
T4
X30.988Y-28.448
X33.528Y-28.448
X36.068Y-28.448
X43.18Y-28.956
X45.72Y-28.956
X48.26Y-28.956
X65.Y-49.
X67.54Y-49.
X70.08Y-49.
X79.Y-24.
X79.Y-26.54
T5
X82.499Y-35.001
X82.499Y-39.999
X92.501Y-37.5
T0
M30
