G04 #@! TF.GenerationSoftware,KiCad,Pcbnew,7.0.6*
G04 #@! TF.CreationDate,2024-01-05T11:00:05+01:00*
G04 #@! TF.ProjectId,SN76849 Arduino nano shield,534e3736-3834-4392-9041-726475696e6f,20180905 0.7.06*
G04 #@! TF.SameCoordinates,Original*
G04 #@! TF.FileFunction,Copper,L2,Bot*
G04 #@! TF.FilePolarity,Positive*
%FSLAX46Y46*%
G04 Gerber Fmt 4.6, Leading zero omitted, Abs format (unit mm)*
G04 Created by KiCad (PCBNEW 7.0.6) date 2024-01-05 11:00:05*
%MOMM*%
%LPD*%
G01*
G04 APERTURE LIST*
G04 #@! TA.AperFunction,ComponentPad*
%ADD10R,1.600000X1.600000*%
G04 #@! TD*
G04 #@! TA.AperFunction,ComponentPad*
%ADD11O,1.600000X1.600000*%
G04 #@! TD*
G04 #@! TA.AperFunction,ComponentPad*
%ADD12R,1.700000X1.700000*%
G04 #@! TD*
G04 #@! TA.AperFunction,ComponentPad*
%ADD13O,1.700000X1.700000*%
G04 #@! TD*
G04 #@! TA.AperFunction,ComponentPad*
%ADD14C,1.260000*%
G04 #@! TD*
G04 #@! TA.AperFunction,ComponentPad*
%ADD15C,1.600000*%
G04 #@! TD*
G04 #@! TA.AperFunction,ComponentPad*
%ADD16O,1.200000X2.200000*%
G04 #@! TD*
G04 #@! TA.AperFunction,ComponentPad*
%ADD17O,2.200000X1.200000*%
G04 #@! TD*
G04 #@! TA.AperFunction,ViaPad*
%ADD18C,0.600000*%
G04 #@! TD*
G04 #@! TA.AperFunction,Conductor*
%ADD19C,0.750000*%
G04 #@! TD*
G04 APERTURE END LIST*
D10*
X52300000Y-34000000D03*
D11*
X52300000Y-36540000D03*
X52300000Y-39080000D03*
X52300000Y-41620000D03*
X59920000Y-41620000D03*
X59920000Y-39080000D03*
X59920000Y-36540000D03*
X59920000Y-34000000D03*
D12*
X80600000Y-58600000D03*
D13*
X80600000Y-56060000D03*
X80600000Y-53520000D03*
D14*
X56840000Y-29140000D03*
X54300000Y-26600000D03*
X56840000Y-24060000D03*
D15*
X66900000Y-40450000D03*
X66900000Y-42950000D03*
D16*
X65700000Y-52400000D03*
D17*
X70700000Y-57400000D03*
D16*
X75700000Y-52400000D03*
D12*
X45020000Y-61100000D03*
D13*
X42480000Y-61100000D03*
X39940000Y-61100000D03*
X37400000Y-61100000D03*
X34860000Y-61100000D03*
X32320000Y-61100000D03*
D10*
X28850000Y-23550000D03*
D11*
X28850000Y-26090000D03*
X28850000Y-28630000D03*
X28850000Y-31170000D03*
X28850000Y-33710000D03*
X28850000Y-36250000D03*
X28850000Y-38790000D03*
X28850000Y-41330000D03*
X36470000Y-41330000D03*
X36470000Y-38790000D03*
X36470000Y-36250000D03*
X36470000Y-33710000D03*
X36470000Y-31170000D03*
X36470000Y-28630000D03*
X36470000Y-26090000D03*
X36470000Y-23550000D03*
D10*
X41000000Y-23720000D03*
D11*
X41000000Y-26260000D03*
X41000000Y-28800000D03*
X41000000Y-31340000D03*
X41000000Y-33880000D03*
X41000000Y-36420000D03*
X41000000Y-38960000D03*
X41000000Y-41500000D03*
X48620000Y-41500000D03*
X48620000Y-38960000D03*
X48620000Y-36420000D03*
X48620000Y-33880000D03*
X48620000Y-31340000D03*
X48620000Y-28800000D03*
X48620000Y-26260000D03*
X48620000Y-23720000D03*
D12*
X38175000Y-55200000D03*
D13*
X38175000Y-52660000D03*
X38175000Y-50120000D03*
X38175000Y-47580000D03*
D18*
X45732600Y-23943000D03*
X33338800Y-44200800D03*
X39360700Y-57169900D03*
X37407200Y-43222900D03*
X31794500Y-35672800D03*
X46066300Y-56958300D03*
X36036700Y-59724300D03*
X45510000Y-32518000D03*
X30975000Y-27716200D03*
X54091800Y-49368500D03*
X33928800Y-63008500D03*
X47764900Y-61243100D03*
X56849800Y-46612400D03*
X55458600Y-50570400D03*
X39349900Y-36250000D03*
X45494600Y-34126900D03*
D19*
X47582500Y-22093100D02*
X45732600Y-23943000D01*
X56840000Y-29140000D02*
X56840000Y-27072700D01*
X77581350Y-50703396D02*
X76909746Y-51375000D01*
X56840000Y-29140000D02*
X57902700Y-29140000D01*
X80600000Y-51837300D02*
X80600000Y-53520000D01*
X77581350Y-48818650D02*
X80600000Y-51837300D01*
X80600000Y-56060000D02*
X80600000Y-53520000D01*
X76681350Y-47918650D02*
X77131350Y-48368650D01*
X77581350Y-48818650D02*
X77581350Y-50703396D01*
X56840000Y-27072700D02*
X51860400Y-22093100D01*
X76909746Y-51375000D02*
X65300000Y-51375000D01*
X77131350Y-48368650D02*
X77581350Y-48818650D01*
X51860400Y-22093100D02*
X47582500Y-22093100D01*
X57902700Y-29140000D02*
X76681350Y-47918650D01*
X33338800Y-33118800D02*
X28850000Y-28630000D01*
X33338800Y-44200800D02*
X33338800Y-33118800D01*
X42626900Y-39873100D02*
X42626900Y-38046900D01*
X41000000Y-41500000D02*
X42626900Y-39873100D01*
X42626900Y-38046900D02*
X41000000Y-36420000D01*
X28850000Y-26090000D02*
X28850000Y-23550000D01*
X39851900Y-56678700D02*
X39360700Y-57169900D01*
X38175000Y-52660000D02*
X39851900Y-52660000D01*
X58293100Y-33393100D02*
X58293100Y-39078500D01*
X58293100Y-39081500D02*
X58294600Y-39080000D01*
X48620000Y-23720000D02*
X58293100Y-33393100D01*
X34860000Y-61100000D02*
X36547400Y-62787400D01*
X39851900Y-52660000D02*
X39851900Y-56678700D01*
X59374900Y-39080000D02*
X58294600Y-39080000D01*
X63378200Y-47379000D02*
X58293100Y-42293900D01*
X58293100Y-42293900D02*
X58293100Y-39081500D01*
X60991500Y-62787400D02*
X63378200Y-60400700D01*
X59374900Y-39080000D02*
X59920000Y-39080000D01*
X58293100Y-39078500D02*
X58294600Y-39080000D01*
X36547400Y-62787400D02*
X60991500Y-62787400D01*
X63378200Y-60400700D02*
X63378200Y-47379000D01*
X34831600Y-48453500D02*
X34831600Y-30268400D01*
X37400000Y-58329500D02*
X37400000Y-61100000D01*
X36498100Y-50120000D02*
X36498100Y-57427600D01*
X34831600Y-30268400D02*
X36470000Y-28630000D01*
X36498100Y-50120000D02*
X34831600Y-48453500D01*
X36498100Y-57427600D02*
X37400000Y-58329500D01*
X38175000Y-50120000D02*
X36498100Y-50120000D01*
X37407200Y-45135300D02*
X37407200Y-43222900D01*
X38175000Y-47580000D02*
X38175000Y-45903100D01*
X38175000Y-45903100D02*
X37407200Y-45135300D01*
X41073100Y-58290000D02*
X41073100Y-50478100D01*
X39940000Y-59423100D02*
X41073100Y-58290000D01*
X39940000Y-61100000D02*
X39940000Y-59423100D01*
X41073100Y-50478100D02*
X38175000Y-47580000D01*
X31794500Y-34114500D02*
X28850000Y-31170000D01*
X46066300Y-49353200D02*
X46922500Y-48497000D01*
X31794500Y-35672800D02*
X31794500Y-34114500D01*
X31794500Y-55482100D02*
X31794500Y-35672800D01*
X46922500Y-40657500D02*
X48620000Y-38960000D01*
X46066300Y-56958300D02*
X46066300Y-49353200D01*
X46922500Y-48497000D02*
X46922500Y-40657500D01*
X36036700Y-59724300D02*
X31794500Y-55482100D01*
X30975000Y-27716200D02*
X30975000Y-26671700D01*
X35724600Y-21922100D02*
X42011900Y-21922100D01*
X42011900Y-21922100D02*
X45510000Y-25420200D01*
X30975000Y-26671700D02*
X35724600Y-21922100D01*
X45510000Y-25420200D02*
X45510000Y-32518000D01*
X50520000Y-35780000D02*
X48620000Y-33880000D01*
X50520000Y-45796700D02*
X50520000Y-35780000D01*
X54091800Y-49368500D02*
X50520000Y-45796700D01*
X31755600Y-63008500D02*
X33928800Y-63008500D01*
X55460300Y-34390900D02*
X52409400Y-31340000D01*
X52409400Y-31340000D02*
X48620000Y-31340000D01*
X57351200Y-53936000D02*
X58400100Y-52887100D01*
X51066500Y-50257700D02*
X52324900Y-50257700D01*
X47764900Y-53559300D02*
X51066500Y-50257700D01*
X28850000Y-38790000D02*
X30482000Y-40422000D01*
X58400100Y-46037100D02*
X55460300Y-43097300D01*
X55460300Y-43097300D02*
X55460300Y-34390900D01*
X30482000Y-61734900D02*
X31755600Y-63008500D01*
X30482000Y-40422000D02*
X30482000Y-61734900D01*
X58400100Y-52887100D02*
X58400100Y-46037100D01*
X47764900Y-61243100D02*
X47764900Y-53559300D01*
X52324900Y-50257700D02*
X56003200Y-53936000D01*
X56003200Y-53936000D02*
X57351200Y-53936000D01*
X55458600Y-48003600D02*
X56849800Y-46612400D01*
X55458600Y-50570400D02*
X55458600Y-48003600D01*
X38148000Y-26572000D02*
X38148000Y-37112000D01*
X41000000Y-23720000D02*
X38148000Y-26572000D01*
X38148000Y-37112000D02*
X36470000Y-38790000D01*
X41000000Y-26260000D02*
X39349900Y-27910100D01*
X39349900Y-27910100D02*
X39349900Y-36250000D01*
X45494600Y-34126900D02*
X44446800Y-35174700D01*
X42480000Y-48691400D02*
X42480000Y-61100000D01*
X44446800Y-35174700D02*
X44446800Y-46724600D01*
X44446800Y-46724600D02*
X42480000Y-48691400D01*
X48620000Y-28800000D02*
X46852100Y-30567900D01*
X44850900Y-59254000D02*
X45020000Y-59423100D01*
X45648800Y-47365600D02*
X44850900Y-48163500D01*
X45020000Y-61100000D02*
X45020000Y-59423100D01*
X46852100Y-30567900D02*
X46852100Y-39021300D01*
X45648800Y-40224600D02*
X45648800Y-47365600D01*
X44850900Y-48163500D02*
X44850900Y-59254000D01*
X46852100Y-39021300D02*
X45648800Y-40224600D01*
M02*
