G04 #@! TF.FileFunction,Legend,Top*
%FSLAX46Y46*%
G04 Gerber Fmt 4.6, Leading zero omitted, Abs format (unit mm)*
G04 Created by KiCad (PCBNEW 4.0.4-stable) date 03/06/18 13:41:20*
%MOMM*%
%LPD*%
G01*
G04 APERTURE LIST*
%ADD10C,0.100000*%
%ADD11C,0.275000*%
%ADD12C,0.175000*%
%ADD13C,0.200000*%
%ADD14C,0.250000*%
%ADD15C,0.254000*%
%ADD16C,0.381000*%
%ADD17C,0.150000*%
%ADD18C,0.120000*%
%ADD19C,0.285750*%
%ADD20C,0.287020*%
%ADD21C,0.200285*%
G04 APERTURE END LIST*
D10*
D11*
X79237619Y-40951809D02*
X78137619Y-40951809D01*
X78242381Y-40480380D02*
X78190000Y-40427999D01*
X78137619Y-40323237D01*
X78137619Y-40061333D01*
X78190000Y-39956571D01*
X78242381Y-39904190D01*
X78347143Y-39851809D01*
X78451905Y-39851809D01*
X78609048Y-39904190D01*
X79237619Y-40532761D01*
X79237619Y-39851809D01*
X79132857Y-38751809D02*
X79185238Y-38804190D01*
X79237619Y-38961333D01*
X79237619Y-39066095D01*
X79185238Y-39223237D01*
X79080476Y-39327999D01*
X78975714Y-39380380D01*
X78766190Y-39432761D01*
X78609048Y-39432761D01*
X78399524Y-39380380D01*
X78294762Y-39327999D01*
X78190000Y-39223237D01*
X78137619Y-39066095D01*
X78137619Y-38961333D01*
X78190000Y-38804190D01*
X78242381Y-38751809D01*
X51822429Y-44947619D02*
X51455763Y-44423810D01*
X51193858Y-44947619D02*
X51193858Y-43847619D01*
X51612905Y-43847619D01*
X51717667Y-43900000D01*
X51770048Y-43952381D01*
X51822429Y-44057143D01*
X51822429Y-44214286D01*
X51770048Y-44319048D01*
X51717667Y-44371429D01*
X51612905Y-44423810D01*
X51193858Y-44423810D01*
X52870048Y-44947619D02*
X52241477Y-44947619D01*
X52555763Y-44947619D02*
X52555763Y-43847619D01*
X52451001Y-44004762D01*
X52346239Y-44109524D01*
X52241477Y-44161905D01*
X53341477Y-44947619D02*
X53341477Y-43847619D01*
X53446239Y-44528571D02*
X53760524Y-44947619D01*
X53760524Y-44214286D02*
X53341477Y-44633333D01*
D12*
X46860667Y-48685333D02*
X47560667Y-48452000D01*
X46860667Y-48218667D01*
X47494000Y-47585333D02*
X47527333Y-47618667D01*
X47560667Y-47718667D01*
X47560667Y-47785333D01*
X47527333Y-47885333D01*
X47460667Y-47952000D01*
X47394000Y-47985333D01*
X47260667Y-48018667D01*
X47160667Y-48018667D01*
X47027333Y-47985333D01*
X46960667Y-47952000D01*
X46894000Y-47885333D01*
X46860667Y-47785333D01*
X46860667Y-47718667D01*
X46894000Y-47618667D01*
X46927333Y-47585333D01*
X47494000Y-46885333D02*
X47527333Y-46918667D01*
X47560667Y-47018667D01*
X47560667Y-47085333D01*
X47527333Y-47185333D01*
X47460667Y-47252000D01*
X47394000Y-47285333D01*
X47260667Y-47318667D01*
X47160667Y-47318667D01*
X47027333Y-47285333D01*
X46960667Y-47252000D01*
X46894000Y-47185333D01*
X46860667Y-47085333D01*
X46860667Y-47018667D01*
X46894000Y-46918667D01*
X46927333Y-46885333D01*
D13*
X22421810Y-48469428D02*
X22459905Y-48355142D01*
X22459905Y-48164666D01*
X22421810Y-48088476D01*
X22383714Y-48050380D01*
X22307524Y-48012285D01*
X22231333Y-48012285D01*
X22155143Y-48050380D01*
X22117048Y-48088476D01*
X22078952Y-48164666D01*
X22040857Y-48317047D01*
X22002762Y-48393238D01*
X21964667Y-48431333D01*
X21888476Y-48469428D01*
X21812286Y-48469428D01*
X21736095Y-48431333D01*
X21698000Y-48393238D01*
X21659905Y-48317047D01*
X21659905Y-48126571D01*
X21698000Y-48012285D01*
X22459905Y-47669428D02*
X21659905Y-47669428D01*
X21659905Y-47478952D01*
X21698000Y-47364666D01*
X21774190Y-47288475D01*
X21850381Y-47250380D01*
X22002762Y-47212285D01*
X22117048Y-47212285D01*
X22269429Y-47250380D01*
X22345619Y-47288475D01*
X22421810Y-47364666D01*
X22459905Y-47478952D01*
X22459905Y-47669428D01*
X22231333Y-46907523D02*
X22231333Y-46526571D01*
X22459905Y-46983714D02*
X21659905Y-46717047D01*
X22459905Y-46450380D01*
X24961810Y-48577381D02*
X24999905Y-48463095D01*
X24999905Y-48272619D01*
X24961810Y-48196429D01*
X24923714Y-48158333D01*
X24847524Y-48120238D01*
X24771333Y-48120238D01*
X24695143Y-48158333D01*
X24657048Y-48196429D01*
X24618952Y-48272619D01*
X24580857Y-48425000D01*
X24542762Y-48501191D01*
X24504667Y-48539286D01*
X24428476Y-48577381D01*
X24352286Y-48577381D01*
X24276095Y-48539286D01*
X24238000Y-48501191D01*
X24199905Y-48425000D01*
X24199905Y-48234524D01*
X24238000Y-48120238D01*
X24923714Y-47320238D02*
X24961810Y-47358333D01*
X24999905Y-47472619D01*
X24999905Y-47548809D01*
X24961810Y-47663095D01*
X24885619Y-47739286D01*
X24809429Y-47777381D01*
X24657048Y-47815476D01*
X24542762Y-47815476D01*
X24390381Y-47777381D01*
X24314190Y-47739286D01*
X24238000Y-47663095D01*
X24199905Y-47548809D01*
X24199905Y-47472619D01*
X24238000Y-47358333D01*
X24276095Y-47320238D01*
X24999905Y-46596428D02*
X24999905Y-46977381D01*
X24199905Y-46977381D01*
X19119905Y-48564667D02*
X19919905Y-48298000D01*
X19119905Y-48031333D01*
X19843714Y-47307524D02*
X19881810Y-47345619D01*
X19919905Y-47459905D01*
X19919905Y-47536095D01*
X19881810Y-47650381D01*
X19805619Y-47726572D01*
X19729429Y-47764667D01*
X19577048Y-47802762D01*
X19462762Y-47802762D01*
X19310381Y-47764667D01*
X19234190Y-47726572D01*
X19158000Y-47650381D01*
X19119905Y-47536095D01*
X19119905Y-47459905D01*
X19158000Y-47345619D01*
X19196095Y-47307524D01*
X19843714Y-46507524D02*
X19881810Y-46545619D01*
X19919905Y-46659905D01*
X19919905Y-46736095D01*
X19881810Y-46850381D01*
X19805619Y-46926572D01*
X19729429Y-46964667D01*
X19577048Y-47002762D01*
X19462762Y-47002762D01*
X19310381Y-46964667D01*
X19234190Y-46926572D01*
X19158000Y-46850381D01*
X19119905Y-46736095D01*
X19119905Y-46659905D01*
X19158000Y-46545619D01*
X19196095Y-46507524D01*
D11*
X68768286Y-43625238D02*
X68925429Y-43677619D01*
X69187333Y-43677619D01*
X69292095Y-43625238D01*
X69344476Y-43572857D01*
X69396857Y-43468095D01*
X69396857Y-43363333D01*
X69344476Y-43258571D01*
X69292095Y-43206190D01*
X69187333Y-43153810D01*
X68977810Y-43101429D01*
X68873048Y-43049048D01*
X68820667Y-42996667D01*
X68768286Y-42891905D01*
X68768286Y-42787143D01*
X68820667Y-42682381D01*
X68873048Y-42630000D01*
X68977810Y-42577619D01*
X69239714Y-42577619D01*
X69396857Y-42630000D01*
X69868286Y-43677619D02*
X69868286Y-42577619D01*
X70130191Y-42577619D01*
X70287333Y-42630000D01*
X70392095Y-42734762D01*
X70444476Y-42839524D01*
X70496857Y-43049048D01*
X70496857Y-43206190D01*
X70444476Y-43415714D01*
X70392095Y-43520476D01*
X70287333Y-43625238D01*
X70130191Y-43677619D01*
X69868286Y-43677619D01*
X70915905Y-43363333D02*
X71439714Y-43363333D01*
X70811143Y-43677619D02*
X71177810Y-42577619D01*
X71544476Y-43677619D01*
X69302477Y-41085238D02*
X69459620Y-41137619D01*
X69721524Y-41137619D01*
X69826286Y-41085238D01*
X69878667Y-41032857D01*
X69931048Y-40928095D01*
X69931048Y-40823333D01*
X69878667Y-40718571D01*
X69826286Y-40666190D01*
X69721524Y-40613810D01*
X69512001Y-40561429D01*
X69407239Y-40509048D01*
X69354858Y-40456667D01*
X69302477Y-40351905D01*
X69302477Y-40247143D01*
X69354858Y-40142381D01*
X69407239Y-40090000D01*
X69512001Y-40037619D01*
X69773905Y-40037619D01*
X69931048Y-40090000D01*
X71031048Y-41032857D02*
X70978667Y-41085238D01*
X70821524Y-41137619D01*
X70716762Y-41137619D01*
X70559620Y-41085238D01*
X70454858Y-40980476D01*
X70402477Y-40875714D01*
X70350096Y-40666190D01*
X70350096Y-40509048D01*
X70402477Y-40299524D01*
X70454858Y-40194762D01*
X70559620Y-40090000D01*
X70716762Y-40037619D01*
X70821524Y-40037619D01*
X70978667Y-40090000D01*
X71031048Y-40142381D01*
X72026286Y-41137619D02*
X71502477Y-41137619D01*
X71502477Y-40037619D01*
X68637334Y-37497619D02*
X69004001Y-38597619D01*
X69370667Y-37497619D01*
X70365905Y-38492857D02*
X70313524Y-38545238D01*
X70156381Y-38597619D01*
X70051619Y-38597619D01*
X69894477Y-38545238D01*
X69789715Y-38440476D01*
X69737334Y-38335714D01*
X69684953Y-38126190D01*
X69684953Y-37969048D01*
X69737334Y-37759524D01*
X69789715Y-37654762D01*
X69894477Y-37550000D01*
X70051619Y-37497619D01*
X70156381Y-37497619D01*
X70313524Y-37550000D01*
X70365905Y-37602381D01*
X71465905Y-38492857D02*
X71413524Y-38545238D01*
X71256381Y-38597619D01*
X71151619Y-38597619D01*
X70994477Y-38545238D01*
X70889715Y-38440476D01*
X70837334Y-38335714D01*
X70784953Y-38126190D01*
X70784953Y-37969048D01*
X70837334Y-37759524D01*
X70889715Y-37654762D01*
X70994477Y-37550000D01*
X71151619Y-37497619D01*
X71256381Y-37497619D01*
X71413524Y-37550000D01*
X71465905Y-37602381D01*
D13*
X64122428Y-61537905D02*
X64389095Y-62337905D01*
X64655762Y-61537905D01*
X64884333Y-62299810D02*
X64998619Y-62337905D01*
X65189095Y-62337905D01*
X65265285Y-62299810D01*
X65303381Y-62261714D01*
X65341476Y-62185524D01*
X65341476Y-62109333D01*
X65303381Y-62033143D01*
X65265285Y-61995048D01*
X65189095Y-61956952D01*
X65036714Y-61918857D01*
X64960523Y-61880762D01*
X64922428Y-61842667D01*
X64884333Y-61766476D01*
X64884333Y-61690286D01*
X64922428Y-61614095D01*
X64960523Y-61576000D01*
X65036714Y-61537905D01*
X65227190Y-61537905D01*
X65341476Y-61576000D01*
X65646238Y-62299810D02*
X65760524Y-62337905D01*
X65951000Y-62337905D01*
X66027190Y-62299810D01*
X66065286Y-62261714D01*
X66103381Y-62185524D01*
X66103381Y-62109333D01*
X66065286Y-62033143D01*
X66027190Y-61995048D01*
X65951000Y-61956952D01*
X65798619Y-61918857D01*
X65722428Y-61880762D01*
X65684333Y-61842667D01*
X65646238Y-61766476D01*
X65646238Y-61690286D01*
X65684333Y-61614095D01*
X65722428Y-61576000D01*
X65798619Y-61537905D01*
X65989095Y-61537905D01*
X66103381Y-61576000D01*
D11*
X61813429Y-43169619D02*
X61184858Y-43169619D01*
X61499144Y-43169619D02*
X61499144Y-42069619D01*
X61394382Y-42226762D01*
X61289620Y-42331524D01*
X61184858Y-42383905D01*
X62494382Y-42069619D02*
X62599143Y-42069619D01*
X62703905Y-42122000D01*
X62756286Y-42174381D01*
X62808667Y-42279143D01*
X62861048Y-42488667D01*
X62861048Y-42750571D01*
X62808667Y-42960095D01*
X62756286Y-43064857D01*
X62703905Y-43117238D01*
X62599143Y-43169619D01*
X62494382Y-43169619D01*
X62389620Y-43117238D01*
X62337239Y-43064857D01*
X62284858Y-42960095D01*
X62232477Y-42750571D01*
X62232477Y-42488667D01*
X62284858Y-42279143D01*
X62337239Y-42174381D01*
X62389620Y-42122000D01*
X62494382Y-42069619D01*
X63803905Y-42436286D02*
X63803905Y-43169619D01*
X63332477Y-42436286D02*
X63332477Y-43012476D01*
X63384858Y-43117238D01*
X63489620Y-43169619D01*
X63646762Y-43169619D01*
X63751524Y-43117238D01*
X63803905Y-43064857D01*
X64694381Y-42593429D02*
X64327715Y-42593429D01*
X64327715Y-43169619D02*
X64327715Y-42069619D01*
X64851524Y-42069619D01*
D12*
X41442666Y-22543333D02*
X41476000Y-22510000D01*
X41542666Y-22476667D01*
X41709333Y-22476667D01*
X41776000Y-22510000D01*
X41809333Y-22543333D01*
X41842666Y-22610000D01*
X41842666Y-22676667D01*
X41809333Y-22776667D01*
X41409333Y-23176667D01*
X41842666Y-23176667D01*
X42109333Y-22543333D02*
X42142667Y-22510000D01*
X42209333Y-22476667D01*
X42376000Y-22476667D01*
X42442667Y-22510000D01*
X42476000Y-22543333D01*
X42509333Y-22610000D01*
X42509333Y-22676667D01*
X42476000Y-22776667D01*
X42076000Y-23176667D01*
X42509333Y-23176667D01*
X42942667Y-22476667D02*
X43009334Y-22476667D01*
X43076000Y-22510000D01*
X43109334Y-22543333D01*
X43142667Y-22610000D01*
X43176000Y-22743333D01*
X43176000Y-22910000D01*
X43142667Y-23043333D01*
X43109334Y-23110000D01*
X43076000Y-23143333D01*
X43009334Y-23176667D01*
X42942667Y-23176667D01*
X42876000Y-23143333D01*
X42842667Y-23110000D01*
X42809334Y-23043333D01*
X42776000Y-22910000D01*
X42776000Y-22743333D01*
X42809334Y-22610000D01*
X42842667Y-22543333D01*
X42876000Y-22510000D01*
X42942667Y-22476667D01*
X43776001Y-22710000D02*
X43776001Y-23176667D01*
X43476001Y-22710000D02*
X43476001Y-23076667D01*
X43509334Y-23143333D01*
X43576001Y-23176667D01*
X43676001Y-23176667D01*
X43742667Y-23143333D01*
X43776001Y-23110000D01*
X44342667Y-22810000D02*
X44109334Y-22810000D01*
X44109334Y-23176667D02*
X44109334Y-22476667D01*
X44442667Y-22476667D01*
D11*
X69030191Y-30469619D02*
X68663525Y-29945810D01*
X68401620Y-30469619D02*
X68401620Y-29369619D01*
X68820667Y-29369619D01*
X68925429Y-29422000D01*
X68977810Y-29474381D01*
X69030191Y-29579143D01*
X69030191Y-29736286D01*
X68977810Y-29841048D01*
X68925429Y-29893429D01*
X68820667Y-29945810D01*
X68401620Y-29945810D01*
X69920667Y-30417238D02*
X69815905Y-30469619D01*
X69606382Y-30469619D01*
X69501620Y-30417238D01*
X69449239Y-30312476D01*
X69449239Y-29893429D01*
X69501620Y-29788667D01*
X69606382Y-29736286D01*
X69815905Y-29736286D01*
X69920667Y-29788667D01*
X69973048Y-29893429D01*
X69973048Y-29998190D01*
X69449239Y-30102952D01*
X70915905Y-29736286D02*
X70915905Y-30626762D01*
X70863524Y-30731524D01*
X70811143Y-30783905D01*
X70706382Y-30836286D01*
X70549239Y-30836286D01*
X70444477Y-30783905D01*
X70915905Y-30417238D02*
X70811143Y-30469619D01*
X70601620Y-30469619D01*
X70496858Y-30417238D01*
X70444477Y-30364857D01*
X70392096Y-30260095D01*
X70392096Y-29945810D01*
X70444477Y-29841048D01*
X70496858Y-29788667D01*
X70601620Y-29736286D01*
X70811143Y-29736286D01*
X70915905Y-29788667D01*
X71387334Y-30417238D02*
X71492096Y-30469619D01*
X71701620Y-30469619D01*
X71806381Y-30417238D01*
X71858762Y-30312476D01*
X71858762Y-30260095D01*
X71806381Y-30155333D01*
X71701620Y-30102952D01*
X71544477Y-30102952D01*
X71439715Y-30050571D01*
X71387334Y-29945810D01*
X71387334Y-29893429D01*
X71439715Y-29788667D01*
X71544477Y-29736286D01*
X71701620Y-29736286D01*
X71806381Y-29788667D01*
X68794476Y-27929619D02*
X68270667Y-27929619D01*
X68270667Y-26829619D01*
X69161143Y-27929619D02*
X69161143Y-27196286D01*
X69161143Y-26829619D02*
X69108762Y-26882000D01*
X69161143Y-26934381D01*
X69213524Y-26882000D01*
X69161143Y-26829619D01*
X69161143Y-26934381D01*
X69684953Y-27196286D02*
X69684953Y-27929619D01*
X69684953Y-27301048D02*
X69737334Y-27248667D01*
X69842096Y-27196286D01*
X69999238Y-27196286D01*
X70104000Y-27248667D01*
X70156381Y-27353429D01*
X70156381Y-27929619D01*
X70680191Y-27929619D02*
X70680191Y-26829619D01*
X70784953Y-27510571D02*
X71099238Y-27929619D01*
X71099238Y-27196286D02*
X70680191Y-27615333D01*
X71518286Y-27877238D02*
X71623048Y-27929619D01*
X71832572Y-27929619D01*
X71937333Y-27877238D01*
X71989714Y-27772476D01*
X71989714Y-27720095D01*
X71937333Y-27615333D01*
X71832572Y-27562952D01*
X71675429Y-27562952D01*
X71570667Y-27510571D01*
X71518286Y-27405810D01*
X71518286Y-27353429D01*
X71570667Y-27248667D01*
X71675429Y-27196286D01*
X71832572Y-27196286D01*
X71937333Y-27248667D01*
X69399334Y-53499619D02*
X69766001Y-54599619D01*
X70132667Y-53499619D01*
X71127905Y-54494857D02*
X71075524Y-54547238D01*
X70918381Y-54599619D01*
X70813619Y-54599619D01*
X70656477Y-54547238D01*
X70551715Y-54442476D01*
X70499334Y-54337714D01*
X70446953Y-54128190D01*
X70446953Y-53971048D01*
X70499334Y-53761524D01*
X70551715Y-53656762D01*
X70656477Y-53552000D01*
X70813619Y-53499619D01*
X70918381Y-53499619D01*
X71075524Y-53552000D01*
X71127905Y-53604381D01*
X72227905Y-54494857D02*
X72175524Y-54547238D01*
X72018381Y-54599619D01*
X71913619Y-54599619D01*
X71756477Y-54547238D01*
X71651715Y-54442476D01*
X71599334Y-54337714D01*
X71546953Y-54128190D01*
X71546953Y-53971048D01*
X71599334Y-53761524D01*
X71651715Y-53656762D01*
X71756477Y-53552000D01*
X71913619Y-53499619D01*
X72018381Y-53499619D01*
X72175524Y-53552000D01*
X72227905Y-53604381D01*
X69642953Y-50832619D02*
X69904858Y-51932619D01*
X70114381Y-51146905D01*
X70323905Y-51932619D01*
X70585810Y-50832619D01*
X71004858Y-51356429D02*
X71371524Y-51356429D01*
X71528667Y-51932619D02*
X71004858Y-51932619D01*
X71004858Y-50832619D01*
X71528667Y-50832619D01*
X69485810Y-50643000D02*
X71738191Y-50643000D01*
X69324715Y-49392619D02*
X69324715Y-48292619D01*
X69429477Y-48973571D02*
X69743762Y-49392619D01*
X69743762Y-48659286D02*
X69324715Y-49078333D01*
X70372334Y-49392619D02*
X70267572Y-49340238D01*
X70215191Y-49235476D01*
X70215191Y-48292619D01*
X70948524Y-49392619D02*
X70843762Y-49340238D01*
X70791381Y-49287857D01*
X70739000Y-49183095D01*
X70739000Y-48868810D01*
X70791381Y-48764048D01*
X70843762Y-48711667D01*
X70948524Y-48659286D01*
X71105666Y-48659286D01*
X71210428Y-48711667D01*
X71262809Y-48764048D01*
X71315190Y-48868810D01*
X71315190Y-49183095D01*
X71262809Y-49287857D01*
X71210428Y-49340238D01*
X71105666Y-49392619D01*
X70948524Y-49392619D01*
X71786619Y-49392619D02*
X71786619Y-48292619D01*
X71891381Y-48973571D02*
X72205666Y-49392619D01*
X72205666Y-48659286D02*
X71786619Y-49078333D01*
X68689715Y-24289619D02*
X69056382Y-25389619D01*
X69423048Y-24289619D01*
X69737334Y-25337238D02*
X69894477Y-25389619D01*
X70156381Y-25389619D01*
X70261143Y-25337238D01*
X70313524Y-25284857D01*
X70365905Y-25180095D01*
X70365905Y-25075333D01*
X70313524Y-24970571D01*
X70261143Y-24918190D01*
X70156381Y-24865810D01*
X69946858Y-24813429D01*
X69842096Y-24761048D01*
X69789715Y-24708667D01*
X69737334Y-24603905D01*
X69737334Y-24499143D01*
X69789715Y-24394381D01*
X69842096Y-24342000D01*
X69946858Y-24289619D01*
X70208762Y-24289619D01*
X70365905Y-24342000D01*
X70784953Y-25337238D02*
X70942096Y-25389619D01*
X71204000Y-25389619D01*
X71308762Y-25337238D01*
X71361143Y-25284857D01*
X71413524Y-25180095D01*
X71413524Y-25075333D01*
X71361143Y-24970571D01*
X71308762Y-24918190D01*
X71204000Y-24865810D01*
X70994477Y-24813429D01*
X70889715Y-24761048D01*
X70837334Y-24708667D01*
X70784953Y-24603905D01*
X70784953Y-24499143D01*
X70837334Y-24394381D01*
X70889715Y-24342000D01*
X70994477Y-24289619D01*
X71256381Y-24289619D01*
X71413524Y-24342000D01*
D14*
X20916428Y-63412714D02*
X21630714Y-63412714D01*
X21202142Y-62984143D02*
X20916428Y-64269857D01*
X21535476Y-63841286D02*
X20821190Y-63841286D01*
X21249762Y-64269857D02*
X21535476Y-62984143D01*
X21964047Y-63555571D02*
X22297381Y-63555571D01*
X22440238Y-64079381D02*
X21964047Y-64079381D01*
X21964047Y-63079381D01*
X22440238Y-63079381D01*
X23297381Y-64079381D02*
X23297381Y-63555571D01*
X23249762Y-63460333D01*
X23154524Y-63412714D01*
X22964047Y-63412714D01*
X22868809Y-63460333D01*
X23297381Y-64031762D02*
X23202143Y-64079381D01*
X22964047Y-64079381D01*
X22868809Y-64031762D01*
X22821190Y-63936524D01*
X22821190Y-63841286D01*
X22868809Y-63746048D01*
X22964047Y-63698429D01*
X23202143Y-63698429D01*
X23297381Y-63650810D01*
X23725952Y-64031762D02*
X23821190Y-64079381D01*
X24011666Y-64079381D01*
X24106905Y-64031762D01*
X24154524Y-63936524D01*
X24154524Y-63888905D01*
X24106905Y-63793667D01*
X24011666Y-63746048D01*
X23868809Y-63746048D01*
X23773571Y-63698429D01*
X23725952Y-63603190D01*
X23725952Y-63555571D01*
X23773571Y-63460333D01*
X23868809Y-63412714D01*
X24011666Y-63412714D01*
X24106905Y-63460333D01*
X24487857Y-63412714D02*
X24725952Y-64079381D01*
X24964048Y-63412714D02*
X24725952Y-64079381D01*
X24630714Y-64317476D01*
X24583095Y-64365095D01*
X24487857Y-64412714D01*
X25821191Y-64079381D02*
X25345000Y-64079381D01*
X25345000Y-63079381D01*
X26583096Y-64079381D02*
X26583096Y-63555571D01*
X26535477Y-63460333D01*
X26440239Y-63412714D01*
X26249762Y-63412714D01*
X26154524Y-63460333D01*
X26583096Y-64031762D02*
X26487858Y-64079381D01*
X26249762Y-64079381D01*
X26154524Y-64031762D01*
X26106905Y-63936524D01*
X26106905Y-63841286D01*
X26154524Y-63746048D01*
X26249762Y-63698429D01*
X26487858Y-63698429D01*
X26583096Y-63650810D01*
X27059286Y-64079381D02*
X27059286Y-63079381D01*
X27059286Y-63460333D02*
X27154524Y-63412714D01*
X27345001Y-63412714D01*
X27440239Y-63460333D01*
X27487858Y-63507952D01*
X27535477Y-63603190D01*
X27535477Y-63888905D01*
X27487858Y-63984143D01*
X27440239Y-64031762D01*
X27345001Y-64079381D01*
X27154524Y-64079381D01*
X27059286Y-64031762D01*
X29297382Y-63984143D02*
X29249763Y-64031762D01*
X29106906Y-64079381D01*
X29011668Y-64079381D01*
X28868810Y-64031762D01*
X28773572Y-63936524D01*
X28725953Y-63841286D01*
X28678334Y-63650810D01*
X28678334Y-63507952D01*
X28725953Y-63317476D01*
X28773572Y-63222238D01*
X28868810Y-63127000D01*
X29011668Y-63079381D01*
X29106906Y-63079381D01*
X29249763Y-63127000D01*
X29297382Y-63174619D01*
X29725953Y-64079381D02*
X29725953Y-63079381D01*
X30154525Y-64079381D02*
X30154525Y-63555571D01*
X30106906Y-63460333D01*
X30011668Y-63412714D01*
X29868810Y-63412714D01*
X29773572Y-63460333D01*
X29725953Y-63507952D01*
X30630715Y-64079381D02*
X30630715Y-63412714D01*
X30630715Y-63079381D02*
X30583096Y-63127000D01*
X30630715Y-63174619D01*
X30678334Y-63127000D01*
X30630715Y-63079381D01*
X30630715Y-63174619D01*
X31106905Y-63412714D02*
X31106905Y-64412714D01*
X31106905Y-63460333D02*
X31202143Y-63412714D01*
X31392620Y-63412714D01*
X31487858Y-63460333D01*
X31535477Y-63507952D01*
X31583096Y-63603190D01*
X31583096Y-63888905D01*
X31535477Y-63984143D01*
X31487858Y-64031762D01*
X31392620Y-64079381D01*
X31202143Y-64079381D01*
X31106905Y-64031762D01*
X31868810Y-63412714D02*
X32249762Y-63412714D01*
X32011667Y-63079381D02*
X32011667Y-63936524D01*
X32059286Y-64031762D01*
X32154524Y-64079381D01*
X32249762Y-64079381D01*
X33011668Y-63412714D02*
X33011668Y-64079381D01*
X32583096Y-63412714D02*
X32583096Y-63936524D01*
X32630715Y-64031762D01*
X32725953Y-64079381D01*
X32868811Y-64079381D01*
X32964049Y-64031762D01*
X33011668Y-63984143D01*
X33487858Y-63412714D02*
X33487858Y-64079381D01*
X33487858Y-63507952D02*
X33535477Y-63460333D01*
X33630715Y-63412714D01*
X33773573Y-63412714D01*
X33868811Y-63460333D01*
X33916430Y-63555571D01*
X33916430Y-64079381D01*
X34773573Y-64031762D02*
X34678335Y-64079381D01*
X34487858Y-64079381D01*
X34392620Y-64031762D01*
X34345001Y-63936524D01*
X34345001Y-63555571D01*
X34392620Y-63460333D01*
X34487858Y-63412714D01*
X34678335Y-63412714D01*
X34773573Y-63460333D01*
X34821192Y-63555571D01*
X34821192Y-63650810D01*
X34345001Y-63746048D01*
X35202144Y-64031762D02*
X35297382Y-64079381D01*
X35487858Y-64079381D01*
X35583097Y-64031762D01*
X35630716Y-63936524D01*
X35630716Y-63888905D01*
X35583097Y-63793667D01*
X35487858Y-63746048D01*
X35345001Y-63746048D01*
X35249763Y-63698429D01*
X35202144Y-63603190D01*
X35202144Y-63555571D01*
X35249763Y-63460333D01*
X35345001Y-63412714D01*
X35487858Y-63412714D01*
X35583097Y-63460333D01*
X37011668Y-63079381D02*
X37106907Y-63079381D01*
X37202145Y-63127000D01*
X37249764Y-63174619D01*
X37297383Y-63269857D01*
X37345002Y-63460333D01*
X37345002Y-63698429D01*
X37297383Y-63888905D01*
X37249764Y-63984143D01*
X37202145Y-64031762D01*
X37106907Y-64079381D01*
X37011668Y-64079381D01*
X36916430Y-64031762D01*
X36868811Y-63984143D01*
X36821192Y-63888905D01*
X36773573Y-63698429D01*
X36773573Y-63460333D01*
X36821192Y-63269857D01*
X36868811Y-63174619D01*
X36916430Y-63127000D01*
X37011668Y-63079381D01*
X37773573Y-63984143D02*
X37821192Y-64031762D01*
X37773573Y-64079381D01*
X37725954Y-64031762D01*
X37773573Y-63984143D01*
X37773573Y-64079381D01*
X38202144Y-63174619D02*
X38249763Y-63127000D01*
X38345001Y-63079381D01*
X38583097Y-63079381D01*
X38678335Y-63127000D01*
X38725954Y-63174619D01*
X38773573Y-63269857D01*
X38773573Y-63365095D01*
X38725954Y-63507952D01*
X38154525Y-64079381D01*
X38773573Y-64079381D01*
D11*
X24999335Y-42481881D02*
X25051716Y-42429500D01*
X25156478Y-42377119D01*
X25418382Y-42377119D01*
X25523144Y-42429500D01*
X25575525Y-42481881D01*
X25627906Y-42586643D01*
X25627906Y-42691405D01*
X25575525Y-42848548D01*
X24946954Y-43477119D01*
X25627906Y-43477119D01*
X26308859Y-42377119D02*
X26413620Y-42377119D01*
X26518382Y-42429500D01*
X26570763Y-42481881D01*
X26623144Y-42586643D01*
X26675525Y-42796167D01*
X26675525Y-43058071D01*
X26623144Y-43267595D01*
X26570763Y-43372357D01*
X26518382Y-43424738D01*
X26413620Y-43477119D01*
X26308859Y-43477119D01*
X26204097Y-43424738D01*
X26151716Y-43372357D01*
X26099335Y-43267595D01*
X26046954Y-43058071D01*
X26046954Y-42796167D01*
X26099335Y-42586643D01*
X26151716Y-42481881D01*
X26204097Y-42429500D01*
X26308859Y-42377119D01*
X27723144Y-43477119D02*
X27094573Y-43477119D01*
X27408859Y-43477119D02*
X27408859Y-42377119D01*
X27304097Y-42534262D01*
X27199335Y-42639024D01*
X27094573Y-42691405D01*
X28351716Y-42848548D02*
X28246954Y-42796167D01*
X28194573Y-42743786D01*
X28142192Y-42639024D01*
X28142192Y-42586643D01*
X28194573Y-42481881D01*
X28246954Y-42429500D01*
X28351716Y-42377119D01*
X28561239Y-42377119D01*
X28666001Y-42429500D01*
X28718382Y-42481881D01*
X28770763Y-42586643D01*
X28770763Y-42639024D01*
X28718382Y-42743786D01*
X28666001Y-42796167D01*
X28561239Y-42848548D01*
X28351716Y-42848548D01*
X28246954Y-42900929D01*
X28194573Y-42953310D01*
X28142192Y-43058071D01*
X28142192Y-43267595D01*
X28194573Y-43372357D01*
X28246954Y-43424738D01*
X28351716Y-43477119D01*
X28561239Y-43477119D01*
X28666001Y-43424738D01*
X28718382Y-43372357D01*
X28770763Y-43267595D01*
X28770763Y-43058071D01*
X28718382Y-42953310D01*
X28666001Y-42900929D01*
X28561239Y-42848548D01*
X30080287Y-42900929D02*
X30446953Y-42900929D01*
X30604096Y-43477119D02*
X30080287Y-43477119D01*
X30080287Y-42377119D01*
X30604096Y-42377119D01*
X31546953Y-43477119D02*
X31546953Y-42900929D01*
X31494572Y-42796167D01*
X31389810Y-42743786D01*
X31180287Y-42743786D01*
X31075525Y-42796167D01*
X31546953Y-43424738D02*
X31442191Y-43477119D01*
X31180287Y-43477119D01*
X31075525Y-43424738D01*
X31023144Y-43319976D01*
X31023144Y-43215214D01*
X31075525Y-43110452D01*
X31180287Y-43058071D01*
X31442191Y-43058071D01*
X31546953Y-43005690D01*
X32018382Y-43424738D02*
X32123144Y-43477119D01*
X32332668Y-43477119D01*
X32437429Y-43424738D01*
X32489810Y-43319976D01*
X32489810Y-43267595D01*
X32437429Y-43162833D01*
X32332668Y-43110452D01*
X32175525Y-43110452D01*
X32070763Y-43058071D01*
X32018382Y-42953310D01*
X32018382Y-42900929D01*
X32070763Y-42796167D01*
X32175525Y-42743786D01*
X32332668Y-42743786D01*
X32437429Y-42796167D01*
X32856477Y-42743786D02*
X33118382Y-43477119D01*
X33380286Y-42743786D02*
X33118382Y-43477119D01*
X33013620Y-43739024D01*
X32961239Y-43791405D01*
X32856477Y-43843786D01*
X34323143Y-43477119D02*
X33799334Y-43477119D01*
X33799334Y-42377119D01*
X35161238Y-43477119D02*
X35161238Y-42900929D01*
X35108857Y-42796167D01*
X35004095Y-42743786D01*
X34794572Y-42743786D01*
X34689810Y-42796167D01*
X35161238Y-43424738D02*
X35056476Y-43477119D01*
X34794572Y-43477119D01*
X34689810Y-43424738D01*
X34637429Y-43319976D01*
X34637429Y-43215214D01*
X34689810Y-43110452D01*
X34794572Y-43058071D01*
X35056476Y-43058071D01*
X35161238Y-43005690D01*
X35685048Y-43477119D02*
X35685048Y-42377119D01*
X35685048Y-42796167D02*
X35789810Y-42743786D01*
X35999333Y-42743786D01*
X36104095Y-42796167D01*
X36156476Y-42848548D01*
X36208857Y-42953310D01*
X36208857Y-43267595D01*
X36156476Y-43372357D01*
X36104095Y-43424738D01*
X35999333Y-43477119D01*
X35789810Y-43477119D01*
X35685048Y-43424738D01*
X37151714Y-42743786D02*
X37151714Y-43477119D01*
X36889810Y-42324738D02*
X36627905Y-43110452D01*
X37308857Y-43110452D01*
X37727905Y-43477119D02*
X37727905Y-42377119D01*
X38356476Y-43477119D02*
X37885048Y-42848548D01*
X38356476Y-42377119D02*
X37727905Y-43005690D01*
X38827905Y-43477119D02*
X38827905Y-42743786D01*
X38827905Y-42377119D02*
X38775524Y-42429500D01*
X38827905Y-42481881D01*
X38880286Y-42429500D01*
X38827905Y-42377119D01*
X38827905Y-42481881D01*
X39823143Y-43477119D02*
X39823143Y-42377119D01*
X39823143Y-43424738D02*
X39718381Y-43477119D01*
X39508858Y-43477119D01*
X39404096Y-43424738D01*
X39351715Y-43372357D01*
X39299334Y-43267595D01*
X39299334Y-42953310D01*
X39351715Y-42848548D01*
X39404096Y-42796167D01*
X39508858Y-42743786D01*
X39718381Y-42743786D01*
X39823143Y-42796167D01*
X40294572Y-43424738D02*
X40399334Y-43477119D01*
X40608858Y-43477119D01*
X40713619Y-43424738D01*
X40766000Y-43319976D01*
X40766000Y-43267595D01*
X40713619Y-43162833D01*
X40608858Y-43110452D01*
X40451715Y-43110452D01*
X40346953Y-43058071D01*
X40294572Y-42953310D01*
X40294572Y-42900929D01*
X40346953Y-42796167D01*
X40451715Y-42743786D01*
X40608858Y-42743786D01*
X40713619Y-42796167D01*
X42494571Y-43424738D02*
X42389809Y-43477119D01*
X42180286Y-43477119D01*
X42075524Y-43424738D01*
X42023143Y-43319976D01*
X42023143Y-42900929D01*
X42075524Y-42796167D01*
X42180286Y-42743786D01*
X42389809Y-42743786D01*
X42494571Y-42796167D01*
X42546952Y-42900929D01*
X42546952Y-43005690D01*
X42023143Y-43110452D01*
X43018381Y-42743786D02*
X43018381Y-43477119D01*
X43018381Y-42848548D02*
X43070762Y-42796167D01*
X43175524Y-42743786D01*
X43332666Y-42743786D01*
X43437428Y-42796167D01*
X43489809Y-42900929D01*
X43489809Y-43477119D01*
X44851714Y-43477119D02*
X44851714Y-42377119D01*
X45218380Y-43162833D01*
X45585047Y-42377119D01*
X45585047Y-43477119D01*
X46580285Y-43477119D02*
X46580285Y-42900929D01*
X46527904Y-42796167D01*
X46423142Y-42743786D01*
X46213619Y-42743786D01*
X46108857Y-42796167D01*
X46580285Y-43424738D02*
X46475523Y-43477119D01*
X46213619Y-43477119D01*
X46108857Y-43424738D01*
X46056476Y-43319976D01*
X46056476Y-43215214D01*
X46108857Y-43110452D01*
X46213619Y-43058071D01*
X46475523Y-43058071D01*
X46580285Y-43005690D01*
X46999333Y-43477119D02*
X47575523Y-42743786D01*
X46999333Y-42743786D02*
X47575523Y-43477119D01*
X47994571Y-43477119D02*
X47994571Y-42377119D01*
X48518381Y-42743786D02*
X48518381Y-43477119D01*
X48518381Y-42848548D02*
X48570762Y-42796167D01*
X48675524Y-42743786D01*
X48832666Y-42743786D01*
X48937428Y-42796167D01*
X48989809Y-42900929D01*
X48989809Y-43477119D01*
X49356476Y-42743786D02*
X49775524Y-42743786D01*
X49513619Y-42377119D02*
X49513619Y-43319976D01*
X49566000Y-43424738D01*
X49670762Y-43477119D01*
X49775524Y-43477119D01*
X50142190Y-43058071D02*
X50980285Y-43058071D01*
X52132666Y-43477119D02*
X51766000Y-42953310D01*
X51504095Y-43477119D02*
X51504095Y-42377119D01*
X51923142Y-42377119D01*
X52027904Y-42429500D01*
X52080285Y-42481881D01*
X52132666Y-42586643D01*
X52132666Y-42743786D01*
X52080285Y-42848548D01*
X52027904Y-42900929D01*
X51923142Y-42953310D01*
X51504095Y-42953310D01*
X52604095Y-43477119D02*
X52604095Y-42377119D01*
X52866000Y-42377119D01*
X53023142Y-42429500D01*
X53127904Y-42534262D01*
X53180285Y-42639024D01*
X53232666Y-42848548D01*
X53232666Y-43005690D01*
X53180285Y-43215214D01*
X53127904Y-43319976D01*
X53023142Y-43424738D01*
X52866000Y-43477119D01*
X52604095Y-43477119D01*
X28875525Y-44302119D02*
X29085048Y-44302119D01*
X29189810Y-44354500D01*
X29294572Y-44459262D01*
X29346953Y-44668786D01*
X29346953Y-45035452D01*
X29294572Y-45244976D01*
X29189810Y-45349738D01*
X29085048Y-45402119D01*
X28875525Y-45402119D01*
X28770763Y-45349738D01*
X28666001Y-45244976D01*
X28613620Y-45035452D01*
X28613620Y-44668786D01*
X28666001Y-44459262D01*
X28770763Y-44354500D01*
X28875525Y-44302119D01*
X29818382Y-44668786D02*
X29818382Y-45402119D01*
X29818382Y-44773548D02*
X29870763Y-44721167D01*
X29975525Y-44668786D01*
X30132667Y-44668786D01*
X30237429Y-44721167D01*
X30289810Y-44825929D01*
X30289810Y-45402119D01*
X30656477Y-44668786D02*
X31075525Y-44668786D01*
X30813620Y-44302119D02*
X30813620Y-45244976D01*
X30866001Y-45349738D01*
X30970763Y-45402119D01*
X31075525Y-45402119D01*
X31337429Y-44668786D02*
X31546953Y-45402119D01*
X31756476Y-44878310D01*
X31966000Y-45402119D01*
X32175524Y-44668786D01*
X33013619Y-45349738D02*
X32908857Y-45402119D01*
X32699334Y-45402119D01*
X32594572Y-45349738D01*
X32542191Y-45244976D01*
X32542191Y-44825929D01*
X32594572Y-44721167D01*
X32699334Y-44668786D01*
X32908857Y-44668786D01*
X33013619Y-44721167D01*
X33066000Y-44825929D01*
X33066000Y-44930690D01*
X32542191Y-45035452D01*
X33537429Y-45402119D02*
X33537429Y-44668786D01*
X33537429Y-44878310D02*
X33589810Y-44773548D01*
X33642191Y-44721167D01*
X33746953Y-44668786D01*
X33851714Y-44668786D01*
X34218381Y-44668786D02*
X34218381Y-45768786D01*
X34218381Y-44721167D02*
X34323143Y-44668786D01*
X34532666Y-44668786D01*
X34637428Y-44721167D01*
X34689809Y-44773548D01*
X34742190Y-44878310D01*
X34742190Y-45192595D01*
X34689809Y-45297357D01*
X34637428Y-45349738D01*
X34532666Y-45402119D01*
X34323143Y-45402119D01*
X34218381Y-45349738D01*
X35213619Y-45297357D02*
X35266000Y-45349738D01*
X35213619Y-45402119D01*
X35161238Y-45349738D01*
X35213619Y-45297357D01*
X35213619Y-45402119D01*
X35213619Y-44721167D02*
X35266000Y-44773548D01*
X35213619Y-44825929D01*
X35161238Y-44773548D01*
X35213619Y-44721167D01*
X35213619Y-44825929D01*
X36575524Y-45402119D02*
X36575524Y-44302119D01*
X36942190Y-45087833D01*
X37308857Y-44302119D01*
X37308857Y-45402119D01*
X37832667Y-45402119D02*
X37832667Y-44668786D01*
X37832667Y-44302119D02*
X37780286Y-44354500D01*
X37832667Y-44406881D01*
X37885048Y-44354500D01*
X37832667Y-44302119D01*
X37832667Y-44406881D01*
X38827905Y-45349738D02*
X38723143Y-45402119D01*
X38513620Y-45402119D01*
X38408858Y-45349738D01*
X38356477Y-45297357D01*
X38304096Y-45192595D01*
X38304096Y-44878310D01*
X38356477Y-44773548D01*
X38408858Y-44721167D01*
X38513620Y-44668786D01*
X38723143Y-44668786D01*
X38827905Y-44721167D01*
X39299334Y-45402119D02*
X39299334Y-44302119D01*
X39770762Y-45402119D02*
X39770762Y-44825929D01*
X39718381Y-44721167D01*
X39613619Y-44668786D01*
X39456477Y-44668786D01*
X39351715Y-44721167D01*
X39299334Y-44773548D01*
X40294572Y-45402119D02*
X40294572Y-44668786D01*
X40294572Y-44302119D02*
X40242191Y-44354500D01*
X40294572Y-44406881D01*
X40346953Y-44354500D01*
X40294572Y-44302119D01*
X40294572Y-44406881D01*
X41237429Y-45349738D02*
X41132667Y-45402119D01*
X40923144Y-45402119D01*
X40818382Y-45349738D01*
X40766001Y-45244976D01*
X40766001Y-44825929D01*
X40818382Y-44721167D01*
X40923144Y-44668786D01*
X41132667Y-44668786D01*
X41237429Y-44721167D01*
X41289810Y-44825929D01*
X41289810Y-44930690D01*
X40766001Y-45035452D01*
X41918382Y-45402119D02*
X41813620Y-45349738D01*
X41761239Y-45244976D01*
X41761239Y-44302119D01*
X43175524Y-44825929D02*
X43542190Y-44825929D01*
X43699333Y-45402119D02*
X43175524Y-45402119D01*
X43175524Y-44302119D01*
X43699333Y-44302119D01*
X44170762Y-45402119D02*
X44170762Y-44668786D01*
X44170762Y-44878310D02*
X44223143Y-44773548D01*
X44275524Y-44721167D01*
X44380286Y-44668786D01*
X44485047Y-44668786D01*
X45323142Y-45402119D02*
X45323142Y-44825929D01*
X45270761Y-44721167D01*
X45165999Y-44668786D01*
X44956476Y-44668786D01*
X44851714Y-44721167D01*
X45323142Y-45349738D02*
X45218380Y-45402119D01*
X44956476Y-45402119D01*
X44851714Y-45349738D01*
X44799333Y-45244976D01*
X44799333Y-45140214D01*
X44851714Y-45035452D01*
X44956476Y-44983071D01*
X45218380Y-44983071D01*
X45323142Y-44930690D01*
X45794571Y-45349738D02*
X45899333Y-45402119D01*
X46108857Y-45402119D01*
X46213618Y-45349738D01*
X46265999Y-45244976D01*
X46265999Y-45192595D01*
X46213618Y-45087833D01*
X46108857Y-45035452D01*
X45951714Y-45035452D01*
X45846952Y-44983071D01*
X45794571Y-44878310D01*
X45794571Y-44825929D01*
X45846952Y-44721167D01*
X45951714Y-44668786D01*
X46108857Y-44668786D01*
X46213618Y-44721167D01*
X46737428Y-45402119D02*
X46737428Y-44668786D01*
X46737428Y-44773548D02*
X46789809Y-44721167D01*
X46894571Y-44668786D01*
X47051713Y-44668786D01*
X47156475Y-44721167D01*
X47208856Y-44825929D01*
X47208856Y-45402119D01*
X47208856Y-44825929D02*
X47261237Y-44721167D01*
X47365999Y-44668786D01*
X47523142Y-44668786D01*
X47627904Y-44721167D01*
X47680285Y-44825929D01*
X47680285Y-45402119D01*
X48675523Y-44668786D02*
X48675523Y-45402119D01*
X48204095Y-44668786D02*
X48204095Y-45244976D01*
X48256476Y-45349738D01*
X48361238Y-45402119D01*
X48518380Y-45402119D01*
X48623142Y-45349738D01*
X48675523Y-45297357D01*
X49146952Y-45349738D02*
X49251714Y-45402119D01*
X49461238Y-45402119D01*
X49565999Y-45349738D01*
X49618380Y-45244976D01*
X49618380Y-45192595D01*
X49565999Y-45087833D01*
X49461238Y-45035452D01*
X49304095Y-45035452D01*
X49199333Y-44983071D01*
X49146952Y-44878310D01*
X49146952Y-44825929D01*
X49199333Y-44721167D01*
X49304095Y-44668786D01*
X49461238Y-44668786D01*
X49565999Y-44721167D01*
D15*
X35560000Y-55626000D02*
X21336000Y-55626000D01*
X21336000Y-53086000D02*
X35560000Y-53086000D01*
D16*
X38608000Y-49276000D02*
X18288000Y-49276000D01*
X18288000Y-59436000D02*
X38608000Y-59436000D01*
X39624000Y-57658000D02*
X17272000Y-57658000D01*
X17272000Y-51054000D02*
X39624000Y-51054000D01*
D15*
X19558000Y-54356000D02*
G75*
G03X18288000Y-53086000I-1270000J0D01*
G01*
X18288000Y-55626000D02*
G75*
G03X19558000Y-54356000I0J1270000D01*
G01*
D16*
X18288000Y-55626000D02*
X17272000Y-55626000D01*
X18288000Y-53086000D02*
X17272000Y-53086000D01*
D15*
X21336000Y-53086000D02*
X21336000Y-55626000D01*
X35560000Y-55626000D02*
X35560000Y-53086000D01*
D16*
X38608000Y-49276000D02*
X38608000Y-59436000D01*
X18288000Y-59436000D02*
X18288000Y-49276000D01*
X39624000Y-51054000D02*
X39624000Y-57658000D01*
X17272000Y-57658000D02*
X17272000Y-51054000D01*
X28374000Y-41568000D02*
X28374000Y-29568000D01*
X38174000Y-29568000D02*
X38174000Y-41568000D01*
X38174000Y-29568000D02*
X28374000Y-29568000D01*
X38174000Y-41568000D02*
X28374000Y-41568000D01*
X29874000Y-31668000D02*
G75*
G03X29874000Y-31668000I-400000J0D01*
G01*
X37474000Y-31668000D02*
G75*
G03X37474000Y-31668000I-400000J0D01*
G01*
X29874000Y-40468000D02*
G75*
G03X29874000Y-40468000I-400000J0D01*
G01*
X37474000Y-40468000D02*
G75*
G03X37474000Y-40468000I-400000J0D01*
G01*
X35874960Y-37569140D02*
X30673040Y-37569140D01*
X36273740Y-36068000D02*
G75*
G03X36273740Y-36068000I-2999740J0D01*
G01*
X36675060Y-36068000D02*
G75*
G03X36675060Y-36068000I-3401060J0D01*
G01*
D17*
X61357000Y-42877000D02*
X63357000Y-42877000D01*
X63357000Y-39927000D02*
X61357000Y-39927000D01*
X41672000Y-26494000D02*
X43672000Y-26494000D01*
X43672000Y-23544000D02*
X41672000Y-23544000D01*
D18*
X75501000Y-55432000D02*
X75501000Y-52832000D01*
X75501000Y-52832000D02*
X84131000Y-52832000D01*
X84131000Y-52832000D02*
X84131000Y-55432000D01*
X84131000Y-55432000D02*
X75501000Y-55432000D01*
X75071000Y-54482000D02*
X75501000Y-54482000D01*
X75071000Y-53722000D02*
X75501000Y-53722000D01*
X75501000Y-55252000D02*
X84131000Y-55252000D01*
X75501000Y-55132000D02*
X84131000Y-55132000D01*
X75501000Y-55012000D02*
X84131000Y-55012000D01*
X75501000Y-54892000D02*
X84131000Y-54892000D01*
X75501000Y-54772000D02*
X84131000Y-54772000D01*
X75501000Y-54652000D02*
X84131000Y-54652000D01*
X75501000Y-54532000D02*
X84131000Y-54532000D01*
X75501000Y-54412000D02*
X84131000Y-54412000D01*
X75501000Y-54292000D02*
X84131000Y-54292000D01*
X75501000Y-54172000D02*
X84131000Y-54172000D01*
X75501000Y-54052000D02*
X84131000Y-54052000D01*
X75501000Y-53932000D02*
X84131000Y-53932000D01*
X75501000Y-53812000D02*
X84131000Y-53812000D01*
X75501000Y-53692000D02*
X84131000Y-53692000D01*
X75501000Y-53572000D02*
X84131000Y-53572000D01*
X75501000Y-53452000D02*
X84131000Y-53452000D01*
X75501000Y-53332000D02*
X84131000Y-53332000D01*
X75501000Y-53212000D02*
X84131000Y-53212000D01*
X75501000Y-53092000D02*
X84131000Y-53092000D01*
X75501000Y-52972000D02*
X84131000Y-52972000D01*
X75501000Y-52852000D02*
X84131000Y-52852000D01*
X75501000Y-52732000D02*
X84131000Y-52732000D01*
X75501000Y-52832000D02*
X75501000Y-50292000D01*
X75501000Y-50292000D02*
X84131000Y-50292000D01*
X84131000Y-50292000D02*
X84131000Y-52832000D01*
X84131000Y-52832000D02*
X75501000Y-52832000D01*
X75071000Y-51942000D02*
X75501000Y-51942000D01*
X75071000Y-51182000D02*
X75501000Y-51182000D01*
X75501000Y-50292000D02*
X75501000Y-47692000D01*
X75501000Y-47692000D02*
X84131000Y-47692000D01*
X84131000Y-47692000D02*
X84131000Y-50292000D01*
X84131000Y-50292000D02*
X75501000Y-50292000D01*
X75071000Y-49402000D02*
X75501000Y-49402000D01*
X75071000Y-48642000D02*
X75501000Y-48642000D01*
X74041000Y-55372000D02*
X72771000Y-55372000D01*
X72771000Y-55372000D02*
X72771000Y-54102000D01*
X75628000Y-31302000D02*
X75628000Y-28702000D01*
X75628000Y-28702000D02*
X84258000Y-28702000D01*
X84258000Y-28702000D02*
X84258000Y-31302000D01*
X84258000Y-31302000D02*
X75628000Y-31302000D01*
X75198000Y-30352000D02*
X75628000Y-30352000D01*
X75198000Y-29592000D02*
X75628000Y-29592000D01*
X75628000Y-31122000D02*
X84258000Y-31122000D01*
X75628000Y-31002000D02*
X84258000Y-31002000D01*
X75628000Y-30882000D02*
X84258000Y-30882000D01*
X75628000Y-30762000D02*
X84258000Y-30762000D01*
X75628000Y-30642000D02*
X84258000Y-30642000D01*
X75628000Y-30522000D02*
X84258000Y-30522000D01*
X75628000Y-30402000D02*
X84258000Y-30402000D01*
X75628000Y-30282000D02*
X84258000Y-30282000D01*
X75628000Y-30162000D02*
X84258000Y-30162000D01*
X75628000Y-30042000D02*
X84258000Y-30042000D01*
X75628000Y-29922000D02*
X84258000Y-29922000D01*
X75628000Y-29802000D02*
X84258000Y-29802000D01*
X75628000Y-29682000D02*
X84258000Y-29682000D01*
X75628000Y-29562000D02*
X84258000Y-29562000D01*
X75628000Y-29442000D02*
X84258000Y-29442000D01*
X75628000Y-29322000D02*
X84258000Y-29322000D01*
X75628000Y-29202000D02*
X84258000Y-29202000D01*
X75628000Y-29082000D02*
X84258000Y-29082000D01*
X75628000Y-28962000D02*
X84258000Y-28962000D01*
X75628000Y-28842000D02*
X84258000Y-28842000D01*
X75628000Y-28722000D02*
X84258000Y-28722000D01*
X75628000Y-28602000D02*
X84258000Y-28602000D01*
X75628000Y-28702000D02*
X75628000Y-26162000D01*
X75628000Y-26162000D02*
X84258000Y-26162000D01*
X84258000Y-26162000D02*
X84258000Y-28702000D01*
X84258000Y-28702000D02*
X75628000Y-28702000D01*
X75198000Y-27812000D02*
X75628000Y-27812000D01*
X75198000Y-27052000D02*
X75628000Y-27052000D01*
X75628000Y-26162000D02*
X75628000Y-23562000D01*
X75628000Y-23562000D02*
X84258000Y-23562000D01*
X84258000Y-23562000D02*
X84258000Y-26162000D01*
X84258000Y-26162000D02*
X75628000Y-26162000D01*
X75198000Y-25272000D02*
X75628000Y-25272000D01*
X75198000Y-24512000D02*
X75628000Y-24512000D01*
X74168000Y-31242000D02*
X72898000Y-31242000D01*
X72898000Y-31242000D02*
X72898000Y-29972000D01*
D15*
X54356000Y-33782000D02*
X50292000Y-33782000D01*
X50292000Y-31242000D02*
X54356000Y-31242000D01*
D16*
X57404000Y-37592000D02*
X47244000Y-37592000D01*
X46228000Y-35814000D02*
X58420000Y-35814000D01*
X57404000Y-27432000D02*
X47244000Y-27432000D01*
X46228000Y-29210000D02*
X58420000Y-29210000D01*
D15*
X48514000Y-32512000D02*
G75*
G03X47244000Y-31242000I-1270000J0D01*
G01*
X47244000Y-33782000D02*
G75*
G03X48514000Y-32512000I0J1270000D01*
G01*
D16*
X47244000Y-33782000D02*
X46228000Y-33782000D01*
X47244000Y-31242000D02*
X46228000Y-31242000D01*
D15*
X50292000Y-31242000D02*
X50292000Y-33782000D01*
X54356000Y-33782000D02*
X54356000Y-31242000D01*
D16*
X57404000Y-27432000D02*
X57404000Y-37592000D01*
X47244000Y-37592000D02*
X47244000Y-27432000D01*
X58420000Y-29210000D02*
X58420000Y-35814000D01*
X46228000Y-35814000D02*
X46228000Y-29210000D01*
D15*
X63500000Y-57023000D02*
X49276000Y-57023000D01*
X49276000Y-54483000D02*
X63500000Y-54483000D01*
D16*
X66548000Y-50673000D02*
X46228000Y-50673000D01*
X46228000Y-60833000D02*
X66548000Y-60833000D01*
X67564000Y-59055000D02*
X45212000Y-59055000D01*
X45212000Y-52451000D02*
X67564000Y-52451000D01*
D15*
X47498000Y-55753000D02*
G75*
G03X46228000Y-54483000I-1270000J0D01*
G01*
X46228000Y-57023000D02*
G75*
G03X47498000Y-55753000I0J1270000D01*
G01*
D16*
X46228000Y-57023000D02*
X45212000Y-57023000D01*
X46228000Y-54483000D02*
X45212000Y-54483000D01*
D15*
X49276000Y-54483000D02*
X49276000Y-57023000D01*
X63500000Y-57023000D02*
X63500000Y-54483000D01*
D16*
X66548000Y-50673000D02*
X66548000Y-60833000D01*
X46228000Y-60833000D02*
X46228000Y-50673000D01*
X67564000Y-52451000D02*
X67564000Y-59055000D01*
X45212000Y-59055000D02*
X45212000Y-52451000D01*
D18*
X75628000Y-44510000D02*
X75628000Y-41910000D01*
X75628000Y-41910000D02*
X84258000Y-41910000D01*
X84258000Y-41910000D02*
X84258000Y-44510000D01*
X84258000Y-44510000D02*
X75628000Y-44510000D01*
X75198000Y-43560000D02*
X75628000Y-43560000D01*
X75198000Y-42800000D02*
X75628000Y-42800000D01*
X75628000Y-44330000D02*
X84258000Y-44330000D01*
X75628000Y-44210000D02*
X84258000Y-44210000D01*
X75628000Y-44090000D02*
X84258000Y-44090000D01*
X75628000Y-43970000D02*
X84258000Y-43970000D01*
X75628000Y-43850000D02*
X84258000Y-43850000D01*
X75628000Y-43730000D02*
X84258000Y-43730000D01*
X75628000Y-43610000D02*
X84258000Y-43610000D01*
X75628000Y-43490000D02*
X84258000Y-43490000D01*
X75628000Y-43370000D02*
X84258000Y-43370000D01*
X75628000Y-43250000D02*
X84258000Y-43250000D01*
X75628000Y-43130000D02*
X84258000Y-43130000D01*
X75628000Y-43010000D02*
X84258000Y-43010000D01*
X75628000Y-42890000D02*
X84258000Y-42890000D01*
X75628000Y-42770000D02*
X84258000Y-42770000D01*
X75628000Y-42650000D02*
X84258000Y-42650000D01*
X75628000Y-42530000D02*
X84258000Y-42530000D01*
X75628000Y-42410000D02*
X84258000Y-42410000D01*
X75628000Y-42290000D02*
X84258000Y-42290000D01*
X75628000Y-42170000D02*
X84258000Y-42170000D01*
X75628000Y-42050000D02*
X84258000Y-42050000D01*
X75628000Y-41930000D02*
X84258000Y-41930000D01*
X75628000Y-41810000D02*
X84258000Y-41810000D01*
X75628000Y-41910000D02*
X75628000Y-39370000D01*
X75628000Y-39370000D02*
X84258000Y-39370000D01*
X84258000Y-39370000D02*
X84258000Y-41910000D01*
X84258000Y-41910000D02*
X75628000Y-41910000D01*
X75198000Y-41020000D02*
X75628000Y-41020000D01*
X75198000Y-40260000D02*
X75628000Y-40260000D01*
X75628000Y-39370000D02*
X75628000Y-36770000D01*
X75628000Y-36770000D02*
X84258000Y-36770000D01*
X84258000Y-36770000D02*
X84258000Y-39370000D01*
X84258000Y-39370000D02*
X75628000Y-39370000D01*
X75198000Y-38480000D02*
X75628000Y-38480000D01*
X75198000Y-37720000D02*
X75628000Y-37720000D01*
X74168000Y-44450000D02*
X72898000Y-44450000D01*
X72898000Y-44450000D02*
X72898000Y-43180000D01*
D17*
X53451000Y-42477000D02*
X51451000Y-42477000D01*
X51451000Y-40327000D02*
X53451000Y-40327000D01*
D19*
X27577143Y-47171429D02*
X27577143Y-48405143D01*
X27631571Y-48550286D01*
X27686000Y-48622857D01*
X27794857Y-48695429D01*
X28012571Y-48695429D01*
X28121429Y-48622857D01*
X28175857Y-48550286D01*
X28230286Y-48405143D01*
X28230286Y-47171429D01*
X29373286Y-48695429D02*
X28720143Y-48695429D01*
X29046715Y-48695429D02*
X29046715Y-47171429D01*
X28937858Y-47389143D01*
X28829000Y-47534286D01*
X28720143Y-47606857D01*
D20*
D19*
X24910144Y-61649429D02*
X24910144Y-60125429D01*
X25345572Y-60125429D01*
X25454430Y-60198000D01*
X25508858Y-60270571D01*
X25563287Y-60415714D01*
X25563287Y-60633429D01*
X25508858Y-60778571D01*
X25454430Y-60851143D01*
X25345572Y-60923714D01*
X24910144Y-60923714D01*
X26706287Y-61504286D02*
X26651858Y-61576857D01*
X26488572Y-61649429D01*
X26379715Y-61649429D01*
X26216430Y-61576857D01*
X26107572Y-61431714D01*
X26053144Y-61286571D01*
X25998715Y-60996286D01*
X25998715Y-60778571D01*
X26053144Y-60488286D01*
X26107572Y-60343143D01*
X26216430Y-60198000D01*
X26379715Y-60125429D01*
X26488572Y-60125429D01*
X26651858Y-60198000D01*
X26706287Y-60270571D01*
X27577144Y-60851143D02*
X27196144Y-60851143D01*
X27196144Y-61649429D02*
X27196144Y-60125429D01*
X27740430Y-60125429D01*
X28339144Y-60778571D02*
X28230286Y-60706000D01*
X28175858Y-60633429D01*
X28121429Y-60488286D01*
X28121429Y-60415714D01*
X28175858Y-60270571D01*
X28230286Y-60198000D01*
X28339144Y-60125429D01*
X28556858Y-60125429D01*
X28665715Y-60198000D01*
X28720144Y-60270571D01*
X28774572Y-60415714D01*
X28774572Y-60488286D01*
X28720144Y-60633429D01*
X28665715Y-60706000D01*
X28556858Y-60778571D01*
X28339144Y-60778571D01*
X28230286Y-60851143D01*
X28175858Y-60923714D01*
X28121429Y-61068857D01*
X28121429Y-61359143D01*
X28175858Y-61504286D01*
X28230286Y-61576857D01*
X28339144Y-61649429D01*
X28556858Y-61649429D01*
X28665715Y-61576857D01*
X28720144Y-61504286D01*
X28774572Y-61359143D01*
X28774572Y-61068857D01*
X28720144Y-60923714D01*
X28665715Y-60851143D01*
X28556858Y-60778571D01*
X29808715Y-60125429D02*
X29264429Y-60125429D01*
X29210000Y-60851143D01*
X29264429Y-60778571D01*
X29373286Y-60706000D01*
X29645429Y-60706000D01*
X29754286Y-60778571D01*
X29808715Y-60851143D01*
X29863143Y-60996286D01*
X29863143Y-61359143D01*
X29808715Y-61504286D01*
X29754286Y-61576857D01*
X29645429Y-61649429D01*
X29373286Y-61649429D01*
X29264429Y-61576857D01*
X29210000Y-61504286D01*
X30244143Y-60125429D02*
X31006143Y-60125429D01*
X30516286Y-61649429D01*
X31931428Y-60633429D02*
X31931428Y-61649429D01*
X31659285Y-60052857D02*
X31387142Y-61141429D01*
X32094714Y-61141429D01*
D20*
D21*
X32797132Y-26430440D02*
X32530085Y-26048945D01*
X32339338Y-26430440D02*
X32339338Y-25629300D01*
X32644534Y-25629300D01*
X32720833Y-25667450D01*
X32758982Y-25705600D01*
X32797132Y-25781899D01*
X32797132Y-25896347D01*
X32758982Y-25972646D01*
X32720833Y-26010796D01*
X32644534Y-26048945D01*
X32339338Y-26048945D01*
X33026029Y-25629300D02*
X33293076Y-26430440D01*
X33560122Y-25629300D01*
X34246813Y-26430440D02*
X33789019Y-26430440D01*
X34017916Y-26430440D02*
X34017916Y-25629300D01*
X33941617Y-25743749D01*
X33865318Y-25820048D01*
X33789019Y-25858198D01*
X25571920Y-38204620D02*
X24770780Y-38204620D01*
X24770780Y-37899424D01*
X24808930Y-37823125D01*
X24847080Y-37784976D01*
X24923379Y-37746826D01*
X25037827Y-37746826D01*
X25114126Y-37784976D01*
X25152276Y-37823125D01*
X25190425Y-37899424D01*
X25190425Y-38204620D01*
X24770780Y-37250882D02*
X24770780Y-37098284D01*
X24808930Y-37021985D01*
X24885229Y-36945686D01*
X25037827Y-36907537D01*
X25304874Y-36907537D01*
X25457472Y-36945686D01*
X25533771Y-37021985D01*
X25571920Y-37098284D01*
X25571920Y-37250882D01*
X25533771Y-37327181D01*
X25457472Y-37403480D01*
X25304874Y-37441630D01*
X25037827Y-37441630D01*
X24885229Y-37403480D01*
X24808930Y-37327181D01*
X24770780Y-37250882D01*
X24770780Y-36678639D02*
X24770780Y-36220845D01*
X25571920Y-36449742D02*
X24770780Y-36449742D01*
X25648220Y-36144546D02*
X25648220Y-35534154D01*
X24770780Y-34961911D02*
X24770780Y-35343406D01*
X25152276Y-35381556D01*
X25114126Y-35343406D01*
X25075977Y-35267107D01*
X25075977Y-35076360D01*
X25114126Y-35000061D01*
X25152276Y-34961911D01*
X25228575Y-34923762D01*
X25419322Y-34923762D01*
X25495621Y-34961911D01*
X25533771Y-35000061D01*
X25571920Y-35076360D01*
X25571920Y-35267107D01*
X25533771Y-35343406D01*
X25495621Y-35381556D01*
X24770780Y-34427818D02*
X24770780Y-34351519D01*
X24808930Y-34275220D01*
X24847080Y-34237071D01*
X24923379Y-34198921D01*
X25075977Y-34160772D01*
X25266724Y-34160772D01*
X25419322Y-34198921D01*
X25495621Y-34237071D01*
X25533771Y-34275220D01*
X25571920Y-34351519D01*
X25571920Y-34427818D01*
X25533771Y-34504117D01*
X25495621Y-34542267D01*
X25419322Y-34580416D01*
X25266724Y-34618566D01*
X25075977Y-34618566D01*
X24923379Y-34580416D01*
X24847080Y-34542267D01*
X24808930Y-34504117D01*
X24770780Y-34427818D01*
X25571920Y-33817426D02*
X24770780Y-33817426D01*
X25266724Y-33741127D02*
X25571920Y-33512230D01*
X25037827Y-33512230D02*
X25343023Y-33817426D01*
D17*
X62190334Y-44459143D02*
X62142715Y-44506762D01*
X61999858Y-44554381D01*
X61904620Y-44554381D01*
X61761762Y-44506762D01*
X61666524Y-44411524D01*
X61618905Y-44316286D01*
X61571286Y-44125810D01*
X61571286Y-43982952D01*
X61618905Y-43792476D01*
X61666524Y-43697238D01*
X61761762Y-43602000D01*
X61904620Y-43554381D01*
X61999858Y-43554381D01*
X62142715Y-43602000D01*
X62190334Y-43649619D01*
X62571286Y-43649619D02*
X62618905Y-43602000D01*
X62714143Y-43554381D01*
X62952239Y-43554381D01*
X63047477Y-43602000D01*
X63095096Y-43649619D01*
X63142715Y-43744857D01*
X63142715Y-43840095D01*
X63095096Y-43982952D01*
X62523667Y-44554381D01*
X63142715Y-44554381D01*
X42505334Y-28076143D02*
X42457715Y-28123762D01*
X42314858Y-28171381D01*
X42219620Y-28171381D01*
X42076762Y-28123762D01*
X41981524Y-28028524D01*
X41933905Y-27933286D01*
X41886286Y-27742810D01*
X41886286Y-27599952D01*
X41933905Y-27409476D01*
X41981524Y-27314238D01*
X42076762Y-27219000D01*
X42219620Y-27171381D01*
X42314858Y-27171381D01*
X42457715Y-27219000D01*
X42505334Y-27266619D01*
X42838667Y-27171381D02*
X43457715Y-27171381D01*
X43124381Y-27552333D01*
X43267239Y-27552333D01*
X43362477Y-27599952D01*
X43410096Y-27647571D01*
X43457715Y-27742810D01*
X43457715Y-27980905D01*
X43410096Y-28076143D01*
X43362477Y-28123762D01*
X43267239Y-28171381D01*
X42981524Y-28171381D01*
X42886286Y-28123762D01*
X42838667Y-28076143D01*
X78087667Y-55824381D02*
X78087667Y-56538667D01*
X78040047Y-56681524D01*
X77944809Y-56776762D01*
X77801952Y-56824381D01*
X77706714Y-56824381D01*
X79087667Y-56824381D02*
X78516238Y-56824381D01*
X78801952Y-56824381D02*
X78801952Y-55824381D01*
X78706714Y-55967238D01*
X78611476Y-56062476D01*
X78516238Y-56110095D01*
X77809905Y-32694381D02*
X77809905Y-31694381D01*
X78190858Y-31694381D01*
X78286096Y-31742000D01*
X78333715Y-31789619D01*
X78381334Y-31884857D01*
X78381334Y-32027714D01*
X78333715Y-32122952D01*
X78286096Y-32170571D01*
X78190858Y-32218190D01*
X77809905Y-32218190D01*
X79333715Y-32694381D02*
X78762286Y-32694381D01*
X79048000Y-32694381D02*
X79048000Y-31694381D01*
X78952762Y-31837238D01*
X78857524Y-31932476D01*
X78762286Y-31980095D01*
D19*
X51453143Y-25327429D02*
X51453143Y-26561143D01*
X51507571Y-26706286D01*
X51562000Y-26778857D01*
X51670857Y-26851429D01*
X51888571Y-26851429D01*
X51997429Y-26778857D01*
X52051857Y-26706286D01*
X52106286Y-26561143D01*
X52106286Y-25327429D01*
X52596143Y-25472571D02*
X52650572Y-25400000D01*
X52759429Y-25327429D01*
X53031572Y-25327429D01*
X53140429Y-25400000D01*
X53194858Y-25472571D01*
X53249286Y-25617714D01*
X53249286Y-25762857D01*
X53194858Y-25980571D01*
X52541715Y-26851429D01*
X53249286Y-26851429D01*
D20*
D19*
X50391787Y-39805429D02*
X49847501Y-39805429D01*
X49847501Y-38281429D01*
X50772787Y-39805429D02*
X50772787Y-38281429D01*
X51153787Y-39370000D01*
X51534787Y-38281429D01*
X51534787Y-39805429D01*
X51970216Y-38281429D02*
X52677787Y-38281429D01*
X52296787Y-38862000D01*
X52460073Y-38862000D01*
X52568930Y-38934571D01*
X52623359Y-39007143D01*
X52677787Y-39152286D01*
X52677787Y-39515143D01*
X52623359Y-39660286D01*
X52568930Y-39732857D01*
X52460073Y-39805429D01*
X52133501Y-39805429D01*
X52024644Y-39732857D01*
X51970216Y-39660286D01*
X53711930Y-38281429D02*
X53167644Y-38281429D01*
X53113215Y-39007143D01*
X53167644Y-38934571D01*
X53276501Y-38862000D01*
X53548644Y-38862000D01*
X53657501Y-38934571D01*
X53711930Y-39007143D01*
X53766358Y-39152286D01*
X53766358Y-39515143D01*
X53711930Y-39660286D01*
X53657501Y-39732857D01*
X53548644Y-39805429D01*
X53276501Y-39805429D01*
X53167644Y-39732857D01*
X53113215Y-39660286D01*
X54419501Y-38934571D02*
X54310643Y-38862000D01*
X54256215Y-38789429D01*
X54201786Y-38644286D01*
X54201786Y-38571714D01*
X54256215Y-38426571D01*
X54310643Y-38354000D01*
X54419501Y-38281429D01*
X54637215Y-38281429D01*
X54746072Y-38354000D01*
X54800501Y-38426571D01*
X54854929Y-38571714D01*
X54854929Y-38644286D01*
X54800501Y-38789429D01*
X54746072Y-38862000D01*
X54637215Y-38934571D01*
X54419501Y-38934571D01*
X54310643Y-39007143D01*
X54256215Y-39079714D01*
X54201786Y-39224857D01*
X54201786Y-39515143D01*
X54256215Y-39660286D01*
X54310643Y-39732857D01*
X54419501Y-39805429D01*
X54637215Y-39805429D01*
X54746072Y-39732857D01*
X54800501Y-39660286D01*
X54854929Y-39515143D01*
X54854929Y-39224857D01*
X54800501Y-39079714D01*
X54746072Y-39007143D01*
X54637215Y-38934571D01*
D20*
D19*
X55517143Y-48568429D02*
X55517143Y-49802143D01*
X55571571Y-49947286D01*
X55626000Y-50019857D01*
X55734857Y-50092429D01*
X55952571Y-50092429D01*
X56061429Y-50019857D01*
X56115857Y-49947286D01*
X56170286Y-49802143D01*
X56170286Y-48568429D01*
X56605715Y-48568429D02*
X57313286Y-48568429D01*
X56932286Y-49149000D01*
X57095572Y-49149000D01*
X57204429Y-49221571D01*
X57258858Y-49294143D01*
X57313286Y-49439286D01*
X57313286Y-49802143D01*
X57258858Y-49947286D01*
X57204429Y-50019857D01*
X57095572Y-50092429D01*
X56769000Y-50092429D01*
X56660143Y-50019857D01*
X56605715Y-49947286D01*
D20*
D19*
X52741287Y-62973857D02*
X52904573Y-63046429D01*
X53176716Y-63046429D01*
X53285573Y-62973857D01*
X53340002Y-62901286D01*
X53394430Y-62756143D01*
X53394430Y-62611000D01*
X53340002Y-62465857D01*
X53285573Y-62393286D01*
X53176716Y-62320714D01*
X52959002Y-62248143D01*
X52850144Y-62175571D01*
X52795716Y-62103000D01*
X52741287Y-61957857D01*
X52741287Y-61812714D01*
X52795716Y-61667571D01*
X52850144Y-61595000D01*
X52959002Y-61522429D01*
X53231144Y-61522429D01*
X53394430Y-61595000D01*
X53884287Y-63046429D02*
X53884287Y-61522429D01*
X54537430Y-63046429D01*
X54537430Y-61522429D01*
X54972859Y-61522429D02*
X55734859Y-61522429D01*
X55245002Y-63046429D01*
X56660144Y-61522429D02*
X56442430Y-61522429D01*
X56333573Y-61595000D01*
X56279144Y-61667571D01*
X56170287Y-61885286D01*
X56115858Y-62175571D01*
X56115858Y-62756143D01*
X56170287Y-62901286D01*
X56224715Y-62973857D01*
X56333573Y-63046429D01*
X56551287Y-63046429D01*
X56660144Y-62973857D01*
X56714573Y-62901286D01*
X56769001Y-62756143D01*
X56769001Y-62393286D01*
X56714573Y-62248143D01*
X56660144Y-62175571D01*
X56551287Y-62103000D01*
X56333573Y-62103000D01*
X56224715Y-62175571D01*
X56170287Y-62248143D01*
X56115858Y-62393286D01*
X57748715Y-62030429D02*
X57748715Y-63046429D01*
X57476572Y-61449857D02*
X57204429Y-62538429D01*
X57912001Y-62538429D01*
X58510715Y-62175571D02*
X58401857Y-62103000D01*
X58347429Y-62030429D01*
X58293000Y-61885286D01*
X58293000Y-61812714D01*
X58347429Y-61667571D01*
X58401857Y-61595000D01*
X58510715Y-61522429D01*
X58728429Y-61522429D01*
X58837286Y-61595000D01*
X58891715Y-61667571D01*
X58946143Y-61812714D01*
X58946143Y-61885286D01*
X58891715Y-62030429D01*
X58837286Y-62103000D01*
X58728429Y-62175571D01*
X58510715Y-62175571D01*
X58401857Y-62248143D01*
X58347429Y-62320714D01*
X58293000Y-62465857D01*
X58293000Y-62756143D01*
X58347429Y-62901286D01*
X58401857Y-62973857D01*
X58510715Y-63046429D01*
X58728429Y-63046429D01*
X58837286Y-62973857D01*
X58891715Y-62901286D01*
X58946143Y-62756143D01*
X58946143Y-62465857D01*
X58891715Y-62320714D01*
X58837286Y-62248143D01*
X58728429Y-62175571D01*
X59490428Y-63046429D02*
X59708143Y-63046429D01*
X59817000Y-62973857D01*
X59871428Y-62901286D01*
X59980286Y-62683571D01*
X60034714Y-62393286D01*
X60034714Y-61812714D01*
X59980286Y-61667571D01*
X59925857Y-61595000D01*
X59817000Y-61522429D01*
X59599286Y-61522429D01*
X59490428Y-61595000D01*
X59436000Y-61667571D01*
X59381571Y-61812714D01*
X59381571Y-62175571D01*
X59436000Y-62320714D01*
X59490428Y-62393286D01*
X59599286Y-62465857D01*
X59817000Y-62465857D01*
X59925857Y-62393286D01*
X59980286Y-62320714D01*
X60034714Y-62175571D01*
D20*
D17*
X77809905Y-45902381D02*
X77809905Y-44902381D01*
X78190858Y-44902381D01*
X78286096Y-44950000D01*
X78333715Y-44997619D01*
X78381334Y-45092857D01*
X78381334Y-45235714D01*
X78333715Y-45330952D01*
X78286096Y-45378571D01*
X78190858Y-45426190D01*
X77809905Y-45426190D01*
X78714667Y-44902381D02*
X79333715Y-44902381D01*
X79000381Y-45283333D01*
X79143239Y-45283333D01*
X79238477Y-45330952D01*
X79286096Y-45378571D01*
X79333715Y-45473810D01*
X79333715Y-45711905D01*
X79286096Y-45807143D01*
X79238477Y-45854762D01*
X79143239Y-45902381D01*
X78857524Y-45902381D01*
X78762286Y-45854762D01*
X78714667Y-45807143D01*
X52284334Y-39554381D02*
X51951000Y-39078190D01*
X51712905Y-39554381D02*
X51712905Y-38554381D01*
X52093858Y-38554381D01*
X52189096Y-38602000D01*
X52236715Y-38649619D01*
X52284334Y-38744857D01*
X52284334Y-38887714D01*
X52236715Y-38982952D01*
X52189096Y-39030571D01*
X52093858Y-39078190D01*
X51712905Y-39078190D01*
X52665286Y-38649619D02*
X52712905Y-38602000D01*
X52808143Y-38554381D01*
X53046239Y-38554381D01*
X53141477Y-38602000D01*
X53189096Y-38649619D01*
X53236715Y-38744857D01*
X53236715Y-38840095D01*
X53189096Y-38982952D01*
X52617667Y-39554381D01*
X53236715Y-39554381D01*
M02*
