M48
;DRILL file {KiCad 4.0.7} date 06/24/18 20:58:55
;FORMAT={-:-/ absolute / metric / decimal}
FMAT,2
METRIC,TZ
T1C0.400
T2C0.800
T3C0.800
T4C0.900
T5C1.000
T6C1.200
T7C1.300
T8C2.500
%
G90
G05
M71
T1
X35.611Y-46.558
X40.437Y-44.145
X41.707Y-47.066
X41.834Y-42.748
X45.009Y-39.573
X45.263Y-72.847
X45.898Y-75.006
X46.279Y-44.78
X47.676Y-44.272
X48.057Y-37.795
X49.2Y-72.085
X49.708Y-38.557
X51.232Y-26.492
X51.74Y-31.572
X52.121Y-52.146
X52.756Y-22.936
X52.883Y-42.621
X54.026Y-76.784
X55.169Y-60.782
X55.169Y-70.561
X55.423Y-35.255
X56.693Y-77.038
X58.471Y-37.414
X59.868Y-75.768
X59.995Y-27.889
X61.011Y-49.86
X61.646Y-56.845
X61.646Y-67.005
X62.027Y-26.492
X62.662Y-35.255
X63.043Y-60.528
X64.694Y-43.383
X65.202Y-33.096
X65.456Y-78.435
X66.091Y-49.86
X66.599Y-34.112
X66.853Y-29.667
X68.631Y-49.86
X70.155Y-30.81
X71.171Y-49.86
X72.949Y-38.43
X73.33Y-44.399
X73.457Y-34.112
X73.838Y-43.002
X74.727Y-75.26
X77.267Y-48.844
X78.283Y-35.636
X79.426Y-32.715
X81.839Y-63.576
X86.538Y-60.909
X89.078Y-51.13
T2
X38.786Y-59.004
X41.286Y-59.004
X70.917Y-28.778
X73.417Y-28.778
T3
X46.66Y-26.238
X46.66Y-33.858
X51.613Y-55.575
X51.613Y-58.115
X51.613Y-60.655
X51.613Y-63.195
X51.613Y-65.735
X51.613Y-68.275
X51.613Y-70.815
X51.613Y-73.355
X52.121Y-39.827
X52.121Y-47.447
X54.661Y-39.827
X54.661Y-47.447
X55.169Y-24.206
X55.169Y-31.826
X57.201Y-39.827
X57.201Y-47.447
X57.709Y-24.206
X57.709Y-31.826
X59.233Y-55.575
X59.233Y-58.115
X59.233Y-60.655
X59.233Y-63.195
X59.233Y-65.735
X59.233Y-68.275
X59.233Y-70.815
X59.233Y-73.355
X59.741Y-39.827
X59.741Y-47.447
X60.249Y-24.206
X60.249Y-31.826
X62.281Y-39.827
X62.281Y-47.447
X62.789Y-24.206
X62.789Y-31.826
X64.821Y-39.827
X64.821Y-47.447
X67.361Y-39.827
X67.361Y-47.447
X69.901Y-39.827
X69.901Y-47.447
X75.362Y-55.067
X75.362Y-59.766
X82.982Y-55.067
X82.982Y-59.766
T4
X89.713Y-58.75
X89.713Y-61.29
T5
X77.521Y-66.37
X80.061Y-66.37
X82.601Y-28.778
X82.601Y-31.318
X82.601Y-66.37
X82.728Y-45.796
X82.728Y-48.336
X85.141Y-66.37
T6
X36.072Y-70.072
X38.572Y-70.072
X41.072Y-75.078
X43.572Y-70.072
X46.072Y-70.072
T7
X33.658Y-46.685
X43.66Y-44.186
X43.66Y-49.185
T8
X38.151Y-28.016
X92.888Y-71.577
T0
M30
