G04 #@! TF.FileFunction,Soldermask,Top*
%FSLAX46Y46*%
G04 Gerber Fmt 4.6, Leading zero omitted, Abs format (unit mm)*
G04 Created by KiCad (PCBNEW 4.0.4-stable) date 03/06/18 13:41:20*
%MOMM*%
%LPD*%
G01*
G04 APERTURE LIST*
%ADD10C,0.100000*%
%ADD11O,1.901140X2.599640*%
%ADD12O,1.900000X2.400000*%
%ADD13C,3.900000*%
%ADD14R,1.400000X2.900000*%
%ADD15R,2.100000X2.100000*%
%ADD16O,2.100000X2.100000*%
%ADD17R,1.300000X2.100000*%
G04 APERTURE END LIST*
D10*
D11*
X19558000Y-58166000D03*
X22098000Y-58166000D03*
X24638000Y-58166000D03*
X27178000Y-58166000D03*
X29718000Y-58166000D03*
X32258000Y-58166000D03*
X34798000Y-58166000D03*
X37338000Y-58166000D03*
X37338000Y-50546000D03*
X34798000Y-50546000D03*
X32258000Y-50546000D03*
X29718000Y-50546000D03*
X27178000Y-50546000D03*
X24638000Y-50546000D03*
X22098000Y-50546000D03*
X19558000Y-50546000D03*
D12*
X35774000Y-29068000D03*
X33274000Y-29068000D03*
X30774000Y-29068000D03*
D13*
X38074000Y-36068000D03*
X28474000Y-36068000D03*
D14*
X63857000Y-41402000D03*
X60857000Y-41402000D03*
X44172000Y-25019000D03*
X41172000Y-25019000D03*
D15*
X74041000Y-54102000D03*
D16*
X74041000Y-51562000D03*
X74041000Y-49022000D03*
D15*
X74168000Y-29972000D03*
D16*
X74168000Y-27432000D03*
X74168000Y-24892000D03*
D11*
X48514000Y-36322000D03*
X51054000Y-36322000D03*
X53594000Y-36322000D03*
X56134000Y-36322000D03*
X56134000Y-28702000D03*
X53594000Y-28702000D03*
X51054000Y-28702000D03*
X48514000Y-28702000D03*
X47498000Y-59563000D03*
X50038000Y-59563000D03*
X52578000Y-59563000D03*
X55118000Y-59563000D03*
X57658000Y-59563000D03*
X60198000Y-59563000D03*
X62738000Y-59563000D03*
X65278000Y-59563000D03*
X65278000Y-51943000D03*
X62738000Y-51943000D03*
X60198000Y-51943000D03*
X57658000Y-51943000D03*
X55118000Y-51943000D03*
X52578000Y-51943000D03*
X50038000Y-51943000D03*
X47498000Y-51943000D03*
D15*
X74168000Y-43180000D03*
D16*
X74168000Y-40640000D03*
X74168000Y-38100000D03*
D17*
X51001000Y-41402000D03*
X53901000Y-41402000D03*
M02*
