G04 #@! TF.FileFunction,Soldermask,Bot*
%FSLAX46Y46*%
G04 Gerber Fmt 4.6, Leading zero omitted, Abs format (unit mm)*
G04 Created by KiCad (PCBNEW 4.0.7) date 06/24/18 20:58:53*
%MOMM*%
%LPD*%
G01*
G04 APERTURE LIST*
%ADD10C,0.100000*%
%ADD11C,5.400000*%
%ADD12R,3.900000X2.900000*%
%ADD13O,2.150000X3.900000*%
%ADD14R,2.000000X2.000000*%
%ADD15C,2.000000*%
%ADD16R,2.200000X2.200000*%
%ADD17C,2.200000*%
%ADD18R,2.100000X2.100000*%
%ADD19O,2.100000X2.100000*%
%ADD20C,2.398980*%
%ADD21C,4.400500*%
%ADD22O,2.599640X1.901140*%
%ADD23O,1.901140X2.599640*%
G04 APERTURE END LIST*
D10*
D11*
X92887800Y-71577200D03*
X38150800Y-28016200D03*
D12*
X41071800Y-75078200D03*
D13*
X36071800Y-70072200D03*
X46071800Y-70072200D03*
X38571800Y-70072200D03*
X43571800Y-70072200D03*
D14*
X70916800Y-28778200D03*
D15*
X73416800Y-28778200D03*
D14*
X38785800Y-59004200D03*
D15*
X41285800Y-59004200D03*
D16*
X89712800Y-61290200D03*
D17*
X89712800Y-58750200D03*
D18*
X82600800Y-28778200D03*
D19*
X82600800Y-31318200D03*
D18*
X82727800Y-45796200D03*
D19*
X82727800Y-48336200D03*
D18*
X85140800Y-66370200D03*
D19*
X82600800Y-66370200D03*
X80060800Y-66370200D03*
X77520800Y-66370200D03*
D20*
X46659800Y-33858200D03*
X46659800Y-26238200D03*
X75361800Y-59766200D03*
X82981800Y-59766200D03*
X82981800Y-55067200D03*
X75361800Y-55067200D03*
X43660060Y-49184560D03*
X33657540Y-46685200D03*
X43660060Y-44185840D03*
D21*
X38658800Y-46685200D03*
D22*
X59232800Y-73355200D03*
X59232800Y-70815200D03*
X59232800Y-68275200D03*
X59232800Y-65735200D03*
X59232800Y-63195200D03*
X59232800Y-60655200D03*
X59232800Y-58115200D03*
X59232800Y-55575200D03*
X51612800Y-55575200D03*
X51612800Y-58115200D03*
X51612800Y-60655200D03*
X51612800Y-63195200D03*
X51612800Y-65735200D03*
X51612800Y-68275200D03*
X51612800Y-70815200D03*
X51612800Y-73355200D03*
D23*
X55168800Y-31826200D03*
X57708800Y-31826200D03*
X60248800Y-31826200D03*
X62788800Y-31826200D03*
X62788800Y-24206200D03*
X60248800Y-24206200D03*
X57708800Y-24206200D03*
X55168800Y-24206200D03*
X52120800Y-47447200D03*
X54660800Y-47447200D03*
X57200800Y-47447200D03*
X59740800Y-47447200D03*
X62280800Y-47447200D03*
X64820800Y-47447200D03*
X67360800Y-47447200D03*
X69900800Y-47447200D03*
X69900800Y-39827200D03*
X67360800Y-39827200D03*
X64820800Y-39827200D03*
X62280800Y-39827200D03*
X59740800Y-39827200D03*
X57200800Y-39827200D03*
X54660800Y-39827200D03*
X52120800Y-39827200D03*
M02*
