G04 #@! TF.FileFunction,Copper,L1,Top,Signal*
%FSLAX46Y46*%
G04 Gerber Fmt 4.6, Leading zero omitted, Abs format (unit mm)*
G04 Created by KiCad (PCBNEW 4.0.4-stable) date 03/06/18 13:41:20*
%MOMM*%
%LPD*%
G01*
G04 APERTURE LIST*
%ADD10C,0.100000*%
%ADD11O,1.501140X2.199640*%
%ADD12O,1.500000X2.000000*%
%ADD13C,3.500000*%
%ADD14R,1.000000X2.500000*%
%ADD15R,1.700000X1.700000*%
%ADD16O,1.700000X1.700000*%
%ADD17R,0.900000X1.700000*%
%ADD18C,0.600000*%
%ADD19C,0.750000*%
%ADD20C,0.254000*%
G04 APERTURE END LIST*
D10*
D11*
X19558000Y-58166000D03*
X22098000Y-58166000D03*
X24638000Y-58166000D03*
X27178000Y-58166000D03*
X29718000Y-58166000D03*
X32258000Y-58166000D03*
X34798000Y-58166000D03*
X37338000Y-58166000D03*
X37338000Y-50546000D03*
X34798000Y-50546000D03*
X32258000Y-50546000D03*
X29718000Y-50546000D03*
X27178000Y-50546000D03*
X24638000Y-50546000D03*
X22098000Y-50546000D03*
X19558000Y-50546000D03*
D12*
X35774000Y-29068000D03*
X33274000Y-29068000D03*
X30774000Y-29068000D03*
D13*
X38074000Y-36068000D03*
X28474000Y-36068000D03*
D14*
X63857000Y-41402000D03*
X60857000Y-41402000D03*
X44172000Y-25019000D03*
X41172000Y-25019000D03*
D15*
X74041000Y-54102000D03*
D16*
X74041000Y-51562000D03*
X74041000Y-49022000D03*
D15*
X74168000Y-29972000D03*
D16*
X74168000Y-27432000D03*
X74168000Y-24892000D03*
D11*
X48514000Y-36322000D03*
X51054000Y-36322000D03*
X53594000Y-36322000D03*
X56134000Y-36322000D03*
X56134000Y-28702000D03*
X53594000Y-28702000D03*
X51054000Y-28702000D03*
X48514000Y-28702000D03*
X47498000Y-59563000D03*
X50038000Y-59563000D03*
X52578000Y-59563000D03*
X55118000Y-59563000D03*
X57658000Y-59563000D03*
X60198000Y-59563000D03*
X62738000Y-59563000D03*
X65278000Y-59563000D03*
X65278000Y-51943000D03*
X62738000Y-51943000D03*
X60198000Y-51943000D03*
X57658000Y-51943000D03*
X55118000Y-51943000D03*
X52578000Y-51943000D03*
X50038000Y-51943000D03*
X47498000Y-51943000D03*
D15*
X74168000Y-43180000D03*
D16*
X74168000Y-40640000D03*
X74168000Y-38100000D03*
D17*
X51001000Y-41402000D03*
X53901000Y-41402000D03*
D18*
X60325000Y-56007000D03*
X69215000Y-56896000D03*
X62738000Y-29718000D03*
X31750000Y-31115000D03*
X62484000Y-56007000D03*
X68707000Y-55499000D03*
X65278000Y-45212000D03*
X42164000Y-57277000D03*
X39751000Y-58928000D03*
X36068000Y-60579000D03*
X25908000Y-60579000D03*
X61468000Y-61976000D03*
X64008000Y-61976000D03*
X55626000Y-49022000D03*
X50292000Y-55499000D03*
X39751000Y-49149000D03*
X42545000Y-51943000D03*
X55626000Y-41402000D03*
X59055000Y-41402000D03*
X45085000Y-32893000D03*
X39370000Y-26797000D03*
X24384000Y-47117000D03*
X60960000Y-38862000D03*
X58039000Y-40005000D03*
X31115000Y-42926000D03*
X51308000Y-61976000D03*
X29845000Y-61976000D03*
X32385000Y-61976000D03*
X48768000Y-61976000D03*
X44069000Y-55880000D03*
X40767000Y-55880000D03*
X36576000Y-53467000D03*
X34544000Y-47117000D03*
X57023000Y-47625000D03*
X59563000Y-47625000D03*
X32004000Y-47117000D03*
X34290000Y-31115000D03*
D19*
X57658000Y-59563000D02*
X58547000Y-58674000D01*
X58547000Y-58674000D02*
X58547000Y-57531000D01*
X58547000Y-57531000D02*
X58674000Y-57531000D01*
X58674000Y-57531000D02*
X59944000Y-56261000D01*
X59944000Y-56261000D02*
X60071000Y-56261000D01*
X60071000Y-56261000D02*
X60325000Y-56007000D01*
X69215000Y-56896000D02*
X72263000Y-53848000D01*
X72263000Y-53848000D02*
X72263000Y-52324000D01*
X72263000Y-52324000D02*
X73279000Y-52324000D01*
X73279000Y-52324000D02*
X74041000Y-51562000D01*
X56134000Y-36322000D02*
X62738000Y-29718000D01*
X31750000Y-31115000D02*
X30734000Y-30099000D01*
X30734000Y-30099000D02*
X30734000Y-29083000D01*
X30734000Y-29083000D02*
X30774000Y-29068000D01*
X60198000Y-59563000D02*
X61087000Y-58674000D01*
X61087000Y-58674000D02*
X61087000Y-57531000D01*
X61087000Y-57531000D02*
X62484000Y-56134000D01*
X62484000Y-56134000D02*
X62484000Y-56007000D01*
X68707000Y-55499000D02*
X68199000Y-54991000D01*
X68199000Y-54991000D02*
X68199000Y-48768000D01*
X68199000Y-48768000D02*
X65278000Y-45847000D01*
X65278000Y-45847000D02*
X65278000Y-45212000D01*
X42164000Y-57277000D02*
X41402000Y-57277000D01*
X41402000Y-57277000D02*
X39751000Y-58928000D01*
X37338000Y-58166000D02*
X36449000Y-59055000D01*
X36449000Y-59055000D02*
X36449000Y-60198000D01*
X36449000Y-60198000D02*
X36068000Y-60579000D01*
X25908000Y-60579000D02*
X24638000Y-59309000D01*
X24638000Y-59309000D02*
X24638000Y-58166000D01*
X60198000Y-59563000D02*
X61087000Y-60452000D01*
X61087000Y-60452000D02*
X61087000Y-61595000D01*
X61087000Y-61595000D02*
X61468000Y-61976000D01*
X64008000Y-61976000D02*
X65278000Y-60706000D01*
X65278000Y-60706000D02*
X65278000Y-59563000D01*
X52578000Y-51943000D02*
X53467000Y-51054000D01*
X53467000Y-51054000D02*
X53467000Y-49911000D01*
X53467000Y-49911000D02*
X54737000Y-49911000D01*
X54737000Y-49911000D02*
X55626000Y-49022000D01*
X47498000Y-51943000D02*
X48387000Y-52832000D01*
X48387000Y-52832000D02*
X48387000Y-53975000D01*
X48387000Y-53975000D02*
X48768000Y-53975000D01*
X48768000Y-53975000D02*
X50292000Y-55499000D01*
X39751000Y-49149000D02*
X42545000Y-51943000D01*
X47498000Y-51943000D02*
X46863000Y-51308000D01*
X46863000Y-51308000D02*
X46863000Y-34290000D01*
X46863000Y-34290000D02*
X48514000Y-32639000D01*
X48514000Y-32639000D02*
X48514000Y-28702000D01*
X74041000Y-54102000D02*
X75057000Y-54102000D01*
X75057000Y-54102000D02*
X75946000Y-53213000D01*
X75946000Y-53213000D02*
X75946000Y-38862000D01*
X75946000Y-38862000D02*
X74930000Y-38862000D01*
X74930000Y-38862000D02*
X74168000Y-38100000D01*
X53901000Y-41402000D02*
X55626000Y-41402000D01*
X59055000Y-41402000D02*
X60857000Y-41402000D01*
X45085000Y-32893000D02*
X44196000Y-32004000D01*
X44196000Y-32004000D02*
X44196000Y-25019000D01*
X44196000Y-25019000D02*
X44172000Y-25019000D01*
X41172000Y-25019000D02*
X41148000Y-25019000D01*
X41148000Y-25019000D02*
X39370000Y-26797000D01*
X22098000Y-50546000D02*
X22987000Y-49657000D01*
X22987000Y-49657000D02*
X22987000Y-48514000D01*
X22987000Y-48514000D02*
X24384000Y-47117000D01*
X60960000Y-38862000D02*
X59182000Y-38862000D01*
X59182000Y-38862000D02*
X58039000Y-40005000D01*
X31115000Y-42926000D02*
X24638000Y-49403000D01*
X24638000Y-49403000D02*
X24638000Y-50546000D01*
X52578000Y-59563000D02*
X51689000Y-60452000D01*
X51689000Y-60452000D02*
X51689000Y-61595000D01*
X51689000Y-61595000D02*
X51308000Y-61976000D01*
X29845000Y-61976000D02*
X27178000Y-59309000D01*
X27178000Y-59309000D02*
X27178000Y-58166000D01*
X29718000Y-58166000D02*
X30607000Y-59055000D01*
X30607000Y-59055000D02*
X30607000Y-60198000D01*
X30607000Y-60198000D02*
X32385000Y-61976000D01*
X48768000Y-61976000D02*
X50038000Y-60706000D01*
X50038000Y-60706000D02*
X50038000Y-59563000D01*
X50038000Y-51943000D02*
X50927000Y-52832000D01*
X50927000Y-52832000D02*
X50927000Y-53975000D01*
X50927000Y-53975000D02*
X51562000Y-54610000D01*
X51562000Y-54610000D02*
X51562000Y-56134000D01*
X51562000Y-56134000D02*
X50927000Y-56769000D01*
X50927000Y-56769000D02*
X44958000Y-56769000D01*
X44958000Y-56769000D02*
X44069000Y-55880000D01*
X40767000Y-55880000D02*
X35941000Y-55880000D01*
X35941000Y-55880000D02*
X34798000Y-57023000D01*
X34798000Y-57023000D02*
X34798000Y-58166000D01*
X36576000Y-53467000D02*
X34798000Y-51689000D01*
X34798000Y-51689000D02*
X34798000Y-50546000D01*
X32258000Y-50546000D02*
X33147000Y-49657000D01*
X33147000Y-49657000D02*
X33147000Y-48514000D01*
X33147000Y-48514000D02*
X34544000Y-47117000D01*
X57023000Y-47625000D02*
X60198000Y-50800000D01*
X60198000Y-50800000D02*
X60198000Y-51943000D01*
X62738000Y-51943000D02*
X61849000Y-51054000D01*
X61849000Y-51054000D02*
X61849000Y-49911000D01*
X61849000Y-49911000D02*
X59563000Y-47625000D01*
X32004000Y-47117000D02*
X29718000Y-49403000D01*
X29718000Y-49403000D02*
X29718000Y-50546000D01*
X34290000Y-31115000D02*
X33274000Y-30099000D01*
X33274000Y-30099000D02*
X33274000Y-29068000D01*
X74168000Y-27432000D02*
X74168000Y-29972000D01*
X51054000Y-36322000D02*
X51054000Y-41402000D01*
X51054000Y-41402000D02*
X51001000Y-41402000D01*
X62738000Y-59563000D02*
X63627000Y-58674000D01*
X63627000Y-58674000D02*
X63627000Y-57531000D01*
X63627000Y-57531000D02*
X66929000Y-54229000D01*
X66929000Y-54229000D02*
X66929000Y-49911000D01*
X66929000Y-49911000D02*
X63881000Y-46863000D01*
X63881000Y-46863000D02*
X63881000Y-41402000D01*
X63881000Y-41402000D02*
X63857000Y-41402000D01*
D20*
G36*
X85650000Y-23408092D02*
X85650000Y-56601908D01*
X83017908Y-59234000D01*
X74168005Y-59234000D01*
X74168000Y-59233999D01*
X73896295Y-59288046D01*
X73665954Y-59441954D01*
X73665952Y-59441957D01*
X68158908Y-64949000D01*
X18328092Y-64949000D01*
X15569000Y-62189908D01*
X15569000Y-57782763D01*
X18172430Y-57782763D01*
X18172430Y-58549237D01*
X18277900Y-59079472D01*
X18578254Y-59528983D01*
X19027765Y-59829337D01*
X19558000Y-59934807D01*
X20088235Y-59829337D01*
X20537746Y-59528983D01*
X20828000Y-59094588D01*
X21118254Y-59528983D01*
X21567765Y-59829337D01*
X22098000Y-59934807D01*
X22628235Y-59829337D01*
X23077746Y-59528983D01*
X23368000Y-59094588D01*
X23658254Y-59528983D01*
X23673827Y-59539389D01*
X23704882Y-59695510D01*
X23923822Y-60023178D01*
X25193822Y-61293178D01*
X25521490Y-61512118D01*
X25908000Y-61589000D01*
X26294510Y-61512118D01*
X26622178Y-61293178D01*
X26841118Y-60965510D01*
X26918000Y-60579000D01*
X26892761Y-60452117D01*
X29130822Y-62690178D01*
X29458490Y-62909118D01*
X29845000Y-62986001D01*
X30231511Y-62909118D01*
X30559178Y-62690178D01*
X30778118Y-62362511D01*
X30855001Y-61976000D01*
X30829762Y-61849118D01*
X31670822Y-62690178D01*
X31998490Y-62909118D01*
X32385000Y-62986000D01*
X32771510Y-62909118D01*
X33099178Y-62690178D01*
X33318118Y-62362510D01*
X33395000Y-61976000D01*
X33318118Y-61589490D01*
X33099178Y-61261822D01*
X31617000Y-59779644D01*
X31617000Y-59755326D01*
X31727765Y-59829337D01*
X32258000Y-59934807D01*
X32788235Y-59829337D01*
X33237746Y-59528983D01*
X33528000Y-59094588D01*
X33818254Y-59528983D01*
X34267765Y-59829337D01*
X34798000Y-59934807D01*
X35328235Y-59829337D01*
X35439000Y-59755326D01*
X35439000Y-59779644D01*
X35353822Y-59864822D01*
X35134882Y-60192490D01*
X35058000Y-60579000D01*
X35134882Y-60965510D01*
X35353822Y-61293178D01*
X35681490Y-61512118D01*
X36068000Y-61589000D01*
X36454510Y-61512118D01*
X36782178Y-61293178D01*
X37163178Y-60912178D01*
X37382118Y-60584510D01*
X37459000Y-60198000D01*
X37459000Y-59910739D01*
X37868235Y-59829337D01*
X38317746Y-59528983D01*
X38618100Y-59079472D01*
X38723570Y-58549237D01*
X38723570Y-57782763D01*
X38618100Y-57252528D01*
X38375866Y-56890000D01*
X40360644Y-56890000D01*
X39036822Y-58213822D01*
X38817882Y-58541490D01*
X38741000Y-58928000D01*
X38817882Y-59314510D01*
X39036822Y-59642178D01*
X39364490Y-59861118D01*
X39751000Y-59938000D01*
X40137510Y-59861118D01*
X40465178Y-59642178D01*
X41820356Y-58287000D01*
X42164000Y-58287000D01*
X42550510Y-58210118D01*
X42878178Y-57991178D01*
X43097118Y-57663510D01*
X43174000Y-57277000D01*
X43097118Y-56890490D01*
X42878178Y-56562822D01*
X42550510Y-56343882D01*
X42164000Y-56267000D01*
X41699791Y-56267000D01*
X41700118Y-56266510D01*
X41777000Y-55880000D01*
X43059000Y-55880000D01*
X43135882Y-56266510D01*
X43354822Y-56594178D01*
X44243822Y-57483178D01*
X44571490Y-57702118D01*
X44958000Y-57779000D01*
X50927000Y-57779000D01*
X51313510Y-57702118D01*
X51641178Y-57483178D01*
X52276178Y-56848178D01*
X52495118Y-56520510D01*
X52572000Y-56134000D01*
X52572000Y-54610000D01*
X52495118Y-54223490D01*
X52276178Y-53895822D01*
X51937000Y-53556644D01*
X51937000Y-53532326D01*
X52047765Y-53606337D01*
X52578000Y-53711807D01*
X53108235Y-53606337D01*
X53557746Y-53305983D01*
X53848000Y-52871588D01*
X54138254Y-53305983D01*
X54587765Y-53606337D01*
X55118000Y-53711807D01*
X55648235Y-53606337D01*
X56097746Y-53305983D01*
X56388000Y-52871588D01*
X56678254Y-53305983D01*
X57127765Y-53606337D01*
X57658000Y-53711807D01*
X58188235Y-53606337D01*
X58637746Y-53305983D01*
X58928000Y-52871588D01*
X59218254Y-53305983D01*
X59667765Y-53606337D01*
X60198000Y-53711807D01*
X60728235Y-53606337D01*
X61177746Y-53305983D01*
X61468000Y-52871588D01*
X61758254Y-53305983D01*
X62207765Y-53606337D01*
X62738000Y-53711807D01*
X63268235Y-53606337D01*
X63717746Y-53305983D01*
X64008000Y-52871588D01*
X64040865Y-52920773D01*
X64046501Y-52939817D01*
X64087126Y-52990008D01*
X64298254Y-53305983D01*
X64747765Y-53606337D01*
X65278000Y-53711807D01*
X65808235Y-53606337D01*
X65919000Y-53532326D01*
X65919000Y-53810644D01*
X63468761Y-56260883D01*
X63494000Y-56134000D01*
X63494000Y-56007000D01*
X63417118Y-55620490D01*
X63198178Y-55292822D01*
X62870510Y-55073882D01*
X62484000Y-54997000D01*
X62097490Y-55073882D01*
X61769822Y-55292822D01*
X61550882Y-55620490D01*
X61546345Y-55643299D01*
X61309722Y-55879922D01*
X61258118Y-55620490D01*
X61039178Y-55292822D01*
X60711510Y-55073882D01*
X60325000Y-54997000D01*
X59938490Y-55073882D01*
X59610822Y-55292822D01*
X59580299Y-55323345D01*
X59557490Y-55327882D01*
X59229822Y-55546822D01*
X58183299Y-56593345D01*
X58160490Y-56597882D01*
X57832822Y-56816822D01*
X57613882Y-57144490D01*
X57537000Y-57531000D01*
X57537000Y-57818261D01*
X57127765Y-57899663D01*
X56678254Y-58200017D01*
X56388000Y-58634412D01*
X56355135Y-58585227D01*
X56349499Y-58566183D01*
X56308874Y-58515992D01*
X56097746Y-58200017D01*
X55648235Y-57899663D01*
X55118000Y-57794193D01*
X54587765Y-57899663D01*
X54138254Y-58200017D01*
X53927126Y-58515992D01*
X53886501Y-58566183D01*
X53880865Y-58585227D01*
X53848000Y-58634412D01*
X53557746Y-58200017D01*
X53108235Y-57899663D01*
X52578000Y-57794193D01*
X52047765Y-57899663D01*
X51598254Y-58200017D01*
X51308000Y-58634412D01*
X51017746Y-58200017D01*
X50568235Y-57899663D01*
X50038000Y-57794193D01*
X49507765Y-57899663D01*
X49058254Y-58200017D01*
X48768000Y-58634412D01*
X48477746Y-58200017D01*
X48028235Y-57899663D01*
X47498000Y-57794193D01*
X46967765Y-57899663D01*
X46518254Y-58200017D01*
X46217900Y-58649528D01*
X46112430Y-59179763D01*
X46112430Y-59946237D01*
X46217900Y-60476472D01*
X46518254Y-60925983D01*
X46967765Y-61226337D01*
X47498000Y-61331807D01*
X48028235Y-61226337D01*
X48212286Y-61103358D01*
X48053822Y-61261822D01*
X47834882Y-61589490D01*
X47758000Y-61976000D01*
X47834882Y-62362510D01*
X48053822Y-62690178D01*
X48381490Y-62909118D01*
X48768000Y-62986000D01*
X49154510Y-62909118D01*
X49482178Y-62690178D01*
X50323239Y-61849117D01*
X50298000Y-61976000D01*
X50374882Y-62362510D01*
X50593822Y-62690178D01*
X50921490Y-62909118D01*
X51308000Y-62986000D01*
X51694510Y-62909118D01*
X52022178Y-62690178D01*
X52403178Y-62309178D01*
X52622118Y-61981510D01*
X52699000Y-61595000D01*
X52699000Y-61307739D01*
X53108235Y-61226337D01*
X53557746Y-60925983D01*
X53848000Y-60491588D01*
X53880865Y-60540773D01*
X53886501Y-60559817D01*
X53927126Y-60610008D01*
X54138254Y-60925983D01*
X54587765Y-61226337D01*
X55118000Y-61331807D01*
X55648235Y-61226337D01*
X56097746Y-60925983D01*
X56308874Y-60610008D01*
X56349499Y-60559817D01*
X56355135Y-60540773D01*
X56388000Y-60491588D01*
X56678254Y-60925983D01*
X57127765Y-61226337D01*
X57658000Y-61331807D01*
X58188235Y-61226337D01*
X58637746Y-60925983D01*
X58928000Y-60491588D01*
X59218254Y-60925983D01*
X59667765Y-61226337D01*
X60077000Y-61307739D01*
X60077000Y-61595000D01*
X60153882Y-61981510D01*
X60372822Y-62309178D01*
X60753822Y-62690178D01*
X61081490Y-62909118D01*
X61468000Y-62986000D01*
X61854510Y-62909118D01*
X62182178Y-62690178D01*
X62401118Y-62362510D01*
X62478000Y-61976000D01*
X62401118Y-61589490D01*
X62182178Y-61261822D01*
X62097000Y-61176644D01*
X62097000Y-61152326D01*
X62207765Y-61226337D01*
X62738000Y-61331807D01*
X63268235Y-61226337D01*
X63452286Y-61103358D01*
X63293822Y-61261822D01*
X63074882Y-61589490D01*
X62998000Y-61976000D01*
X63074882Y-62362510D01*
X63293822Y-62690178D01*
X63621490Y-62909118D01*
X64008000Y-62986000D01*
X64394510Y-62909118D01*
X64722178Y-62690178D01*
X65992178Y-61420178D01*
X66211118Y-61092510D01*
X66242173Y-60936389D01*
X66257746Y-60925983D01*
X66558100Y-60476472D01*
X66663570Y-59946237D01*
X66663570Y-59179763D01*
X66558100Y-58649528D01*
X66257746Y-58200017D01*
X65808235Y-57899663D01*
X65278000Y-57794193D01*
X64747765Y-57899663D01*
X64637000Y-57973674D01*
X64637000Y-57949356D01*
X67256419Y-55329937D01*
X67265882Y-55377510D01*
X67484822Y-55705178D01*
X67992822Y-56213178D01*
X68320489Y-56432118D01*
X68332044Y-56434417D01*
X68281882Y-56509490D01*
X68205000Y-56896000D01*
X68281882Y-57282510D01*
X68500822Y-57610178D01*
X68828490Y-57829118D01*
X69215000Y-57906000D01*
X69601510Y-57829118D01*
X69929178Y-57610178D01*
X72550496Y-54988860D01*
X72587838Y-55187317D01*
X72726910Y-55403441D01*
X72939110Y-55548431D01*
X73191000Y-55599440D01*
X74891000Y-55599440D01*
X75126317Y-55555162D01*
X75342441Y-55416090D01*
X75487431Y-55203890D01*
X75533829Y-54974769D01*
X75771178Y-54816178D01*
X76660178Y-53927178D01*
X76879118Y-53599510D01*
X76956000Y-53213000D01*
X76956000Y-38862000D01*
X76879118Y-38475490D01*
X76660178Y-38147822D01*
X76332510Y-37928882D01*
X75946000Y-37852000D01*
X75632763Y-37852000D01*
X75569054Y-37531715D01*
X75247147Y-37049946D01*
X74765378Y-36728039D01*
X74197093Y-36615000D01*
X74138907Y-36615000D01*
X73570622Y-36728039D01*
X73088853Y-37049946D01*
X72766946Y-37531715D01*
X72653907Y-38100000D01*
X72766946Y-38668285D01*
X73088853Y-39150054D01*
X73418026Y-39370000D01*
X73088853Y-39589946D01*
X72766946Y-40071715D01*
X72653907Y-40640000D01*
X72766946Y-41208285D01*
X73088853Y-41690054D01*
X73130452Y-41717850D01*
X73082683Y-41726838D01*
X72866559Y-41865910D01*
X72721569Y-42078110D01*
X72670560Y-42330000D01*
X72670560Y-44030000D01*
X72714838Y-44265317D01*
X72853910Y-44481441D01*
X73066110Y-44626431D01*
X73318000Y-44677440D01*
X74936000Y-44677440D01*
X74936000Y-47848903D01*
X74638378Y-47650039D01*
X74070093Y-47537000D01*
X74011907Y-47537000D01*
X73443622Y-47650039D01*
X72961853Y-47971946D01*
X72639946Y-48453715D01*
X72526907Y-49022000D01*
X72639946Y-49590285D01*
X72961853Y-50072054D01*
X73291026Y-50292000D01*
X72961853Y-50511946D01*
X72639946Y-50993715D01*
X72576237Y-51314000D01*
X72263000Y-51314000D01*
X71876490Y-51390882D01*
X71548822Y-51609822D01*
X71329882Y-51937490D01*
X71253000Y-52324000D01*
X71253000Y-53429644D01*
X69612095Y-55070549D01*
X69421178Y-54784822D01*
X69209000Y-54572644D01*
X69209000Y-48768000D01*
X69132118Y-48381490D01*
X68913178Y-48053822D01*
X66288000Y-45428644D01*
X66288000Y-45212000D01*
X66211118Y-44825490D01*
X65992178Y-44497822D01*
X65664510Y-44278882D01*
X65278000Y-44202000D01*
X64891490Y-44278882D01*
X64891000Y-44279209D01*
X64891000Y-42995261D01*
X64953431Y-42903890D01*
X65004440Y-42652000D01*
X65004440Y-40152000D01*
X64960162Y-39916683D01*
X64821090Y-39700559D01*
X64608890Y-39555569D01*
X64357000Y-39504560D01*
X63357000Y-39504560D01*
X63121683Y-39548838D01*
X62905559Y-39687910D01*
X62760569Y-39900110D01*
X62709560Y-40152000D01*
X62709560Y-42652000D01*
X62753838Y-42887317D01*
X62871000Y-43069392D01*
X62871000Y-46863000D01*
X62947882Y-47249510D01*
X63166822Y-47577178D01*
X65919000Y-50329356D01*
X65919000Y-50353674D01*
X65808235Y-50279663D01*
X65278000Y-50174193D01*
X64747765Y-50279663D01*
X64298254Y-50580017D01*
X64087126Y-50895992D01*
X64046501Y-50946183D01*
X64040865Y-50965227D01*
X64008000Y-51014412D01*
X63717746Y-50580017D01*
X63268235Y-50279663D01*
X62859000Y-50198261D01*
X62859000Y-49911000D01*
X62782118Y-49524490D01*
X62563178Y-49196822D01*
X60277178Y-46910822D01*
X59949510Y-46691882D01*
X59563000Y-46615000D01*
X59176490Y-46691882D01*
X58848822Y-46910822D01*
X58629882Y-47238490D01*
X58553000Y-47625000D01*
X58578239Y-47751883D01*
X57737178Y-46910822D01*
X57409510Y-46691882D01*
X57023000Y-46615000D01*
X56636490Y-46691882D01*
X56308822Y-46910822D01*
X56089882Y-47238490D01*
X56013000Y-47625000D01*
X56089882Y-48011510D01*
X56245682Y-48244682D01*
X56012510Y-48088882D01*
X55626000Y-48012000D01*
X55239490Y-48088882D01*
X54911822Y-48307822D01*
X54318644Y-48901000D01*
X53467000Y-48901000D01*
X53080490Y-48977882D01*
X52752822Y-49196822D01*
X52533882Y-49524490D01*
X52457000Y-49911000D01*
X52457000Y-50198261D01*
X52047765Y-50279663D01*
X51598254Y-50580017D01*
X51308000Y-51014412D01*
X51017746Y-50580017D01*
X50568235Y-50279663D01*
X50038000Y-50174193D01*
X49507765Y-50279663D01*
X49058254Y-50580017D01*
X48768000Y-51014412D01*
X48477746Y-50580017D01*
X48028235Y-50279663D01*
X47873000Y-50248785D01*
X47873000Y-37911326D01*
X47983765Y-37985337D01*
X48514000Y-38090807D01*
X49044235Y-37985337D01*
X49493746Y-37684983D01*
X49784000Y-37250588D01*
X50044000Y-37639705D01*
X50044000Y-40169223D01*
X49954569Y-40300110D01*
X49903560Y-40552000D01*
X49903560Y-42252000D01*
X49947838Y-42487317D01*
X50086910Y-42703441D01*
X50299110Y-42848431D01*
X50551000Y-42899440D01*
X51451000Y-42899440D01*
X51686317Y-42855162D01*
X51902441Y-42716090D01*
X52047431Y-42503890D01*
X52098440Y-42252000D01*
X52098440Y-40552000D01*
X52803560Y-40552000D01*
X52803560Y-42252000D01*
X52847838Y-42487317D01*
X52986910Y-42703441D01*
X53199110Y-42848431D01*
X53451000Y-42899440D01*
X54351000Y-42899440D01*
X54586317Y-42855162D01*
X54802441Y-42716090D01*
X54947431Y-42503890D01*
X54966039Y-42412000D01*
X55626000Y-42412000D01*
X56012510Y-42335118D01*
X56340178Y-42116178D01*
X56559118Y-41788510D01*
X56636000Y-41402000D01*
X56559118Y-41015490D01*
X56340178Y-40687822D01*
X56012510Y-40468882D01*
X55626000Y-40392000D01*
X54968334Y-40392000D01*
X54954162Y-40316683D01*
X54815090Y-40100559D01*
X54675235Y-40005000D01*
X57029000Y-40005000D01*
X57105882Y-40391510D01*
X57324822Y-40719178D01*
X57652490Y-40938118D01*
X58039000Y-41015000D01*
X58134964Y-40995912D01*
X58121882Y-41015490D01*
X58045000Y-41402000D01*
X58121882Y-41788510D01*
X58340822Y-42116178D01*
X58668490Y-42335118D01*
X59055000Y-42412000D01*
X59709560Y-42412000D01*
X59709560Y-42652000D01*
X59753838Y-42887317D01*
X59892910Y-43103441D01*
X60105110Y-43248431D01*
X60357000Y-43299440D01*
X61357000Y-43299440D01*
X61592317Y-43255162D01*
X61808441Y-43116090D01*
X61953431Y-42903890D01*
X62004440Y-42652000D01*
X62004440Y-40152000D01*
X61960162Y-39916683D01*
X61821090Y-39700559D01*
X61656419Y-39588044D01*
X61674178Y-39576178D01*
X61893118Y-39248510D01*
X61970000Y-38862000D01*
X61893118Y-38475490D01*
X61674178Y-38147822D01*
X61346510Y-37928882D01*
X60960000Y-37852000D01*
X59182000Y-37852000D01*
X58795490Y-37928882D01*
X58467822Y-38147822D01*
X57324822Y-39290822D01*
X57105882Y-39618490D01*
X57029000Y-40005000D01*
X54675235Y-40005000D01*
X54602890Y-39955569D01*
X54351000Y-39904560D01*
X53451000Y-39904560D01*
X53215683Y-39948838D01*
X52999559Y-40087910D01*
X52854569Y-40300110D01*
X52803560Y-40552000D01*
X52098440Y-40552000D01*
X52064000Y-40368967D01*
X52064000Y-37639705D01*
X52324000Y-37250588D01*
X52614254Y-37684983D01*
X53063765Y-37985337D01*
X53594000Y-38090807D01*
X54124235Y-37985337D01*
X54573746Y-37684983D01*
X54864000Y-37250588D01*
X55154254Y-37684983D01*
X55603765Y-37985337D01*
X56134000Y-38090807D01*
X56664235Y-37985337D01*
X57113746Y-37684983D01*
X57414100Y-37235472D01*
X57519570Y-36705237D01*
X57519570Y-36364786D01*
X63452178Y-30432178D01*
X63671118Y-30104510D01*
X63748000Y-29718000D01*
X63671118Y-29331490D01*
X63452178Y-29003822D01*
X63124510Y-28784882D01*
X62738000Y-28708000D01*
X62351490Y-28784882D01*
X62023822Y-29003822D01*
X56417967Y-34609677D01*
X56134000Y-34553193D01*
X55603765Y-34658663D01*
X55154254Y-34959017D01*
X54864000Y-35393412D01*
X54573746Y-34959017D01*
X54124235Y-34658663D01*
X53594000Y-34553193D01*
X53063765Y-34658663D01*
X52614254Y-34959017D01*
X52324000Y-35393412D01*
X52033746Y-34959017D01*
X51584235Y-34658663D01*
X51054000Y-34553193D01*
X50523765Y-34658663D01*
X50074254Y-34959017D01*
X49784000Y-35393412D01*
X49493746Y-34959017D01*
X49044235Y-34658663D01*
X48514000Y-34553193D01*
X47983765Y-34658663D01*
X47873000Y-34732674D01*
X47873000Y-34708356D01*
X49228178Y-33353178D01*
X49447118Y-33025510D01*
X49524001Y-32639000D01*
X49524000Y-32638995D01*
X49524000Y-30019705D01*
X49784000Y-29630588D01*
X49816865Y-29679773D01*
X49822501Y-29698817D01*
X49863126Y-29749008D01*
X50074254Y-30064983D01*
X50523765Y-30365337D01*
X51054000Y-30470807D01*
X51584235Y-30365337D01*
X52033746Y-30064983D01*
X52244874Y-29749008D01*
X52285499Y-29698817D01*
X52291135Y-29679773D01*
X52324000Y-29630588D01*
X52356865Y-29679773D01*
X52362501Y-29698817D01*
X52403126Y-29749008D01*
X52614254Y-30064983D01*
X53063765Y-30365337D01*
X53594000Y-30470807D01*
X54124235Y-30365337D01*
X54573746Y-30064983D01*
X54784874Y-29749008D01*
X54825499Y-29698817D01*
X54831135Y-29679773D01*
X54864000Y-29630588D01*
X54896865Y-29679773D01*
X54902501Y-29698817D01*
X54943126Y-29749008D01*
X55154254Y-30064983D01*
X55603765Y-30365337D01*
X56134000Y-30470807D01*
X56664235Y-30365337D01*
X57113746Y-30064983D01*
X57324874Y-29749008D01*
X57365499Y-29698817D01*
X57371135Y-29679773D01*
X57414100Y-29615472D01*
X57463151Y-29368876D01*
X57519570Y-29178250D01*
X57519570Y-28225750D01*
X57463151Y-28035124D01*
X57414100Y-27788528D01*
X57371135Y-27724227D01*
X57365499Y-27705183D01*
X57324874Y-27654992D01*
X57113746Y-27339017D01*
X56664235Y-27038663D01*
X56134000Y-26933193D01*
X55603765Y-27038663D01*
X55154254Y-27339017D01*
X54943126Y-27654992D01*
X54902501Y-27705183D01*
X54896865Y-27724227D01*
X54864000Y-27773412D01*
X54831135Y-27724227D01*
X54825499Y-27705183D01*
X54784874Y-27654992D01*
X54573746Y-27339017D01*
X54124235Y-27038663D01*
X53594000Y-26933193D01*
X53063765Y-27038663D01*
X52614254Y-27339017D01*
X52403126Y-27654992D01*
X52362501Y-27705183D01*
X52356865Y-27724227D01*
X52324000Y-27773412D01*
X52291135Y-27724227D01*
X52285499Y-27705183D01*
X52244874Y-27654992D01*
X52033746Y-27339017D01*
X51584235Y-27038663D01*
X51054000Y-26933193D01*
X50523765Y-27038663D01*
X50074254Y-27339017D01*
X49863126Y-27654992D01*
X49822501Y-27705183D01*
X49816865Y-27724227D01*
X49784000Y-27773412D01*
X49493746Y-27339017D01*
X49044235Y-27038663D01*
X48514000Y-26933193D01*
X47983765Y-27038663D01*
X47534254Y-27339017D01*
X47233900Y-27788528D01*
X47128430Y-28318763D01*
X47128430Y-29085237D01*
X47233900Y-29615472D01*
X47504000Y-30019705D01*
X47504000Y-32220644D01*
X46148822Y-33575822D01*
X45929882Y-33903490D01*
X45853000Y-34290000D01*
X45853000Y-51308000D01*
X45929882Y-51694510D01*
X46112430Y-51967713D01*
X46112430Y-52326237D01*
X46217900Y-52856472D01*
X46518254Y-53305983D01*
X46967765Y-53606337D01*
X47377000Y-53687739D01*
X47377000Y-53975000D01*
X47453882Y-54361510D01*
X47672822Y-54689178D01*
X48000490Y-54908118D01*
X48340368Y-54975724D01*
X49123644Y-55759000D01*
X45376356Y-55759000D01*
X44783178Y-55165822D01*
X44455510Y-54946882D01*
X44069000Y-54870000D01*
X43682490Y-54946882D01*
X43354822Y-55165822D01*
X43135882Y-55493490D01*
X43059000Y-55880000D01*
X41777000Y-55880000D01*
X41700118Y-55493490D01*
X41481178Y-55165822D01*
X41153510Y-54946882D01*
X40767000Y-54870000D01*
X35941000Y-54870000D01*
X35554490Y-54946882D01*
X35226822Y-55165822D01*
X34083822Y-56308822D01*
X33864882Y-56636490D01*
X33833827Y-56792611D01*
X33818254Y-56803017D01*
X33528000Y-57237412D01*
X33237746Y-56803017D01*
X32788235Y-56502663D01*
X32258000Y-56397193D01*
X31727765Y-56502663D01*
X31278254Y-56803017D01*
X30988000Y-57237412D01*
X30697746Y-56803017D01*
X30248235Y-56502663D01*
X29718000Y-56397193D01*
X29187765Y-56502663D01*
X28738254Y-56803017D01*
X28448000Y-57237412D01*
X28157746Y-56803017D01*
X27708235Y-56502663D01*
X27178000Y-56397193D01*
X26647765Y-56502663D01*
X26198254Y-56803017D01*
X25908000Y-57237412D01*
X25617746Y-56803017D01*
X25168235Y-56502663D01*
X24638000Y-56397193D01*
X24107765Y-56502663D01*
X23658254Y-56803017D01*
X23368000Y-57237412D01*
X23077746Y-56803017D01*
X22628235Y-56502663D01*
X22098000Y-56397193D01*
X21567765Y-56502663D01*
X21118254Y-56803017D01*
X20828000Y-57237412D01*
X20537746Y-56803017D01*
X20088235Y-56502663D01*
X19558000Y-56397193D01*
X19027765Y-56502663D01*
X18578254Y-56803017D01*
X18277900Y-57252528D01*
X18172430Y-57782763D01*
X15569000Y-57782763D01*
X15569000Y-50162763D01*
X18172430Y-50162763D01*
X18172430Y-50929237D01*
X18277900Y-51459472D01*
X18578254Y-51908983D01*
X19027765Y-52209337D01*
X19558000Y-52314807D01*
X20088235Y-52209337D01*
X20537746Y-51908983D01*
X20828000Y-51474588D01*
X21118254Y-51908983D01*
X21567765Y-52209337D01*
X22098000Y-52314807D01*
X22628235Y-52209337D01*
X23077746Y-51908983D01*
X23368000Y-51474588D01*
X23658254Y-51908983D01*
X24107765Y-52209337D01*
X24638000Y-52314807D01*
X25168235Y-52209337D01*
X25617746Y-51908983D01*
X25908000Y-51474588D01*
X25940865Y-51523773D01*
X25946501Y-51542817D01*
X25987126Y-51593008D01*
X26198254Y-51908983D01*
X26647765Y-52209337D01*
X27178000Y-52314807D01*
X27708235Y-52209337D01*
X28157746Y-51908983D01*
X28368874Y-51593008D01*
X28409499Y-51542817D01*
X28415135Y-51523773D01*
X28448000Y-51474588D01*
X28738254Y-51908983D01*
X29187765Y-52209337D01*
X29718000Y-52314807D01*
X30248235Y-52209337D01*
X30697746Y-51908983D01*
X30988000Y-51474588D01*
X31278254Y-51908983D01*
X31727765Y-52209337D01*
X32258000Y-52314807D01*
X32788235Y-52209337D01*
X33237746Y-51908983D01*
X33528000Y-51474588D01*
X33818254Y-51908983D01*
X33833827Y-51919389D01*
X33864882Y-52075510D01*
X34083822Y-52403178D01*
X35861822Y-54181178D01*
X36189490Y-54400118D01*
X36576000Y-54477000D01*
X36962510Y-54400118D01*
X37290178Y-54181178D01*
X37509118Y-53853510D01*
X37586000Y-53467000D01*
X37509118Y-53080490D01*
X37290178Y-52752822D01*
X36623714Y-52086358D01*
X36807765Y-52209337D01*
X37338000Y-52314807D01*
X37868235Y-52209337D01*
X38317746Y-51908983D01*
X38618100Y-51459472D01*
X38723570Y-50929237D01*
X38723570Y-50162763D01*
X38618100Y-49632528D01*
X38317746Y-49183017D01*
X38266837Y-49149000D01*
X38741000Y-49149000D01*
X38817882Y-49535510D01*
X39036822Y-49863178D01*
X41830822Y-52657178D01*
X42158490Y-52876118D01*
X42545000Y-52953000D01*
X42931510Y-52876118D01*
X43259178Y-52657178D01*
X43478118Y-52329510D01*
X43555000Y-51943000D01*
X43478118Y-51556490D01*
X43259178Y-51228822D01*
X40465178Y-48434822D01*
X40137510Y-48215882D01*
X39751000Y-48139000D01*
X39364490Y-48215882D01*
X39036822Y-48434822D01*
X38817882Y-48762490D01*
X38741000Y-49149000D01*
X38266837Y-49149000D01*
X37868235Y-48882663D01*
X37338000Y-48777193D01*
X36807765Y-48882663D01*
X36358254Y-49183017D01*
X36068000Y-49617412D01*
X35777746Y-49183017D01*
X35328235Y-48882663D01*
X34798000Y-48777193D01*
X34267765Y-48882663D01*
X34157000Y-48956674D01*
X34157000Y-48932356D01*
X35258178Y-47831178D01*
X35477118Y-47503510D01*
X35554000Y-47117000D01*
X35477118Y-46730490D01*
X35258178Y-46402822D01*
X34930510Y-46183882D01*
X34544000Y-46107000D01*
X34157490Y-46183882D01*
X33829822Y-46402822D01*
X32988761Y-47243883D01*
X33014000Y-47117000D01*
X32937118Y-46730490D01*
X32718178Y-46402822D01*
X32390510Y-46183882D01*
X32004000Y-46107000D01*
X31617490Y-46183882D01*
X31289822Y-46402822D01*
X29003822Y-48688822D01*
X28784882Y-49016490D01*
X28753827Y-49172611D01*
X28738254Y-49183017D01*
X28448000Y-49617412D01*
X28415135Y-49568227D01*
X28409499Y-49549183D01*
X28368874Y-49498992D01*
X28157746Y-49183017D01*
X27708235Y-48882663D01*
X27178000Y-48777193D01*
X26647765Y-48882663D01*
X26463714Y-49005642D01*
X31829178Y-43640178D01*
X32048118Y-43312510D01*
X32125000Y-42926000D01*
X32048118Y-42539490D01*
X31829178Y-42211822D01*
X31501510Y-41992882D01*
X31115000Y-41916000D01*
X30728490Y-41992882D01*
X30400822Y-42211822D01*
X25368761Y-47243883D01*
X25394000Y-47117000D01*
X25317118Y-46730490D01*
X25098178Y-46402822D01*
X24770510Y-46183882D01*
X24384000Y-46107000D01*
X23997490Y-46183882D01*
X23669822Y-46402822D01*
X22272822Y-47799822D01*
X22053882Y-48127490D01*
X21977000Y-48514000D01*
X21977000Y-48801261D01*
X21567765Y-48882663D01*
X21118254Y-49183017D01*
X20828000Y-49617412D01*
X20537746Y-49183017D01*
X20088235Y-48882663D01*
X19558000Y-48777193D01*
X19027765Y-48882663D01*
X18578254Y-49183017D01*
X18277900Y-49632528D01*
X18172430Y-50162763D01*
X15569000Y-50162763D01*
X15569000Y-46141092D01*
X19806046Y-41904046D01*
X19959954Y-41673705D01*
X20014000Y-41402000D01*
X20014000Y-35624591D01*
X26083044Y-35624591D01*
X26088987Y-36082403D01*
X26088587Y-36540325D01*
X26095136Y-36556176D01*
X26095359Y-36573323D01*
X26434729Y-37392636D01*
X26442535Y-37396944D01*
X26450916Y-37417229D01*
X27121242Y-38088726D01*
X27144446Y-38098361D01*
X27149364Y-38107271D01*
X27574608Y-38276980D01*
X27997513Y-38452585D01*
X28014665Y-38452600D01*
X28030591Y-38458956D01*
X28488403Y-38453013D01*
X28946325Y-38453413D01*
X28962176Y-38446864D01*
X28979323Y-38446641D01*
X29798636Y-38107271D01*
X29802944Y-38099465D01*
X29823229Y-38091084D01*
X30494726Y-37420758D01*
X30504361Y-37397554D01*
X30513271Y-37392636D01*
X30682980Y-36967392D01*
X30858585Y-36544487D01*
X30858600Y-36527335D01*
X30864956Y-36511409D01*
X30859013Y-36053597D01*
X30859387Y-35624591D01*
X35683044Y-35624591D01*
X35688987Y-36082403D01*
X35688587Y-36540325D01*
X35695136Y-36556176D01*
X35695359Y-36573323D01*
X36034729Y-37392636D01*
X36042535Y-37396944D01*
X36050916Y-37417229D01*
X36721242Y-38088726D01*
X36744446Y-38098361D01*
X36749364Y-38107271D01*
X37174608Y-38276980D01*
X37597513Y-38452585D01*
X37614665Y-38452600D01*
X37630591Y-38458956D01*
X38088403Y-38453013D01*
X38546325Y-38453413D01*
X38562176Y-38446864D01*
X38579323Y-38446641D01*
X39398636Y-38107271D01*
X39402944Y-38099465D01*
X39423229Y-38091084D01*
X40094726Y-37420758D01*
X40104361Y-37397554D01*
X40113271Y-37392636D01*
X40282980Y-36967392D01*
X40458585Y-36544487D01*
X40458600Y-36527335D01*
X40464956Y-36511409D01*
X40459013Y-36053597D01*
X40459413Y-35595675D01*
X40452864Y-35579824D01*
X40452641Y-35562677D01*
X40113271Y-34743364D01*
X40105465Y-34739056D01*
X40097084Y-34718771D01*
X39426758Y-34047274D01*
X39403554Y-34037639D01*
X39398636Y-34028729D01*
X38973392Y-33859020D01*
X38550487Y-33683415D01*
X38533335Y-33683400D01*
X38517409Y-33677044D01*
X38059597Y-33682987D01*
X37601675Y-33682587D01*
X37585824Y-33689136D01*
X37568677Y-33689359D01*
X36749364Y-34028729D01*
X36745056Y-34036535D01*
X36724771Y-34044916D01*
X36053274Y-34715242D01*
X36043639Y-34738446D01*
X36034729Y-34743364D01*
X35865020Y-35168608D01*
X35689415Y-35591513D01*
X35689400Y-35608665D01*
X35683044Y-35624591D01*
X30859387Y-35624591D01*
X30859413Y-35595675D01*
X30852864Y-35579824D01*
X30852641Y-35562677D01*
X30513271Y-34743364D01*
X30505465Y-34739056D01*
X30497084Y-34718771D01*
X29826758Y-34047274D01*
X29803554Y-34037639D01*
X29798636Y-34028729D01*
X29373392Y-33859020D01*
X28950487Y-33683415D01*
X28933335Y-33683400D01*
X28917409Y-33677044D01*
X28459597Y-33682987D01*
X28001675Y-33682587D01*
X27985824Y-33689136D01*
X27968677Y-33689359D01*
X27149364Y-34028729D01*
X27145056Y-34036535D01*
X27124771Y-34044916D01*
X26453274Y-34715242D01*
X26443639Y-34738446D01*
X26434729Y-34743364D01*
X26265020Y-35168608D01*
X26089415Y-35591513D01*
X26089400Y-35608665D01*
X26083044Y-35624591D01*
X20014000Y-35624591D01*
X20014000Y-28785968D01*
X29389000Y-28785968D01*
X29389000Y-29350032D01*
X29494427Y-29880049D01*
X29759299Y-30276458D01*
X29800882Y-30485510D01*
X30019822Y-30813178D01*
X31035822Y-31829178D01*
X31363490Y-32048118D01*
X31750000Y-32125000D01*
X32136510Y-32048118D01*
X32464178Y-31829178D01*
X32683118Y-31501510D01*
X32760000Y-31115000D01*
X32734761Y-30988117D01*
X33575822Y-31829178D01*
X33903490Y-32048118D01*
X34290000Y-32125000D01*
X34676510Y-32048118D01*
X35004178Y-31829178D01*
X35223118Y-31501510D01*
X35300000Y-31115000D01*
X35223118Y-30728490D01*
X35086925Y-30524662D01*
X35243983Y-30629605D01*
X35774000Y-30735032D01*
X36304017Y-30629605D01*
X36753343Y-30329375D01*
X37053573Y-29880049D01*
X37159000Y-29350032D01*
X37159000Y-28785968D01*
X37053573Y-28255951D01*
X36753343Y-27806625D01*
X36304017Y-27506395D01*
X35774000Y-27400968D01*
X35243983Y-27506395D01*
X34794657Y-27806625D01*
X34524000Y-28211692D01*
X34253343Y-27806625D01*
X33804017Y-27506395D01*
X33274000Y-27400968D01*
X32743983Y-27506395D01*
X32294657Y-27806625D01*
X32024000Y-28211692D01*
X31753343Y-27806625D01*
X31304017Y-27506395D01*
X30774000Y-27400968D01*
X30243983Y-27506395D01*
X29794657Y-27806625D01*
X29494427Y-28255951D01*
X29389000Y-28785968D01*
X20014000Y-28785968D01*
X20014000Y-26797000D01*
X38360000Y-26797000D01*
X38436882Y-27183510D01*
X38655822Y-27511178D01*
X38983490Y-27730118D01*
X39370000Y-27807000D01*
X39756510Y-27730118D01*
X40084178Y-27511178D01*
X40678916Y-26916440D01*
X41672000Y-26916440D01*
X41907317Y-26872162D01*
X42123441Y-26733090D01*
X42268431Y-26520890D01*
X42319440Y-26269000D01*
X42319440Y-23769000D01*
X43024560Y-23769000D01*
X43024560Y-26269000D01*
X43068838Y-26504317D01*
X43186000Y-26686392D01*
X43186000Y-32004000D01*
X43262882Y-32390510D01*
X43481822Y-32718178D01*
X44370822Y-33607178D01*
X44698490Y-33826118D01*
X45085000Y-33903000D01*
X45471510Y-33826118D01*
X45799178Y-33607178D01*
X46018118Y-33279510D01*
X46095000Y-32893000D01*
X46018118Y-32506490D01*
X45799178Y-32178822D01*
X45206000Y-31585644D01*
X45206000Y-26612261D01*
X45268431Y-26520890D01*
X45319440Y-26269000D01*
X45319440Y-24892000D01*
X72653907Y-24892000D01*
X72766946Y-25460285D01*
X73088853Y-25942054D01*
X73418026Y-26162000D01*
X73088853Y-26381946D01*
X72766946Y-26863715D01*
X72653907Y-27432000D01*
X72766946Y-28000285D01*
X73088853Y-28482054D01*
X73130452Y-28509850D01*
X73082683Y-28518838D01*
X72866559Y-28657910D01*
X72721569Y-28870110D01*
X72670560Y-29122000D01*
X72670560Y-30822000D01*
X72714838Y-31057317D01*
X72853910Y-31273441D01*
X73066110Y-31418431D01*
X73318000Y-31469440D01*
X75018000Y-31469440D01*
X75253317Y-31425162D01*
X75469441Y-31286090D01*
X75614431Y-31073890D01*
X75665440Y-30822000D01*
X75665440Y-29122000D01*
X75621162Y-28886683D01*
X75482090Y-28670559D01*
X75269890Y-28525569D01*
X75202459Y-28511914D01*
X75247147Y-28482054D01*
X75569054Y-28000285D01*
X75682093Y-27432000D01*
X75569054Y-26863715D01*
X75247147Y-26381946D01*
X74917974Y-26162000D01*
X75247147Y-25942054D01*
X75569054Y-25460285D01*
X75682093Y-24892000D01*
X75569054Y-24323715D01*
X75247147Y-23841946D01*
X74765378Y-23520039D01*
X74197093Y-23407000D01*
X74138907Y-23407000D01*
X73570622Y-23520039D01*
X73088853Y-23841946D01*
X72766946Y-24323715D01*
X72653907Y-24892000D01*
X45319440Y-24892000D01*
X45319440Y-23769000D01*
X45275162Y-23533683D01*
X45136090Y-23317559D01*
X44923890Y-23172569D01*
X44672000Y-23121560D01*
X43672000Y-23121560D01*
X43436683Y-23165838D01*
X43220559Y-23304910D01*
X43075569Y-23517110D01*
X43024560Y-23769000D01*
X42319440Y-23769000D01*
X42275162Y-23533683D01*
X42136090Y-23317559D01*
X41923890Y-23172569D01*
X41672000Y-23121560D01*
X40672000Y-23121560D01*
X40436683Y-23165838D01*
X40220559Y-23304910D01*
X40075569Y-23517110D01*
X40024560Y-23769000D01*
X40024560Y-24714084D01*
X38655822Y-26082822D01*
X38436882Y-26410490D01*
X38360000Y-26797000D01*
X20014000Y-26797000D01*
X20014000Y-26456092D01*
X22900092Y-23570000D01*
X34163000Y-23570000D01*
X34434705Y-23515954D01*
X34665046Y-23362046D01*
X37251092Y-20776000D01*
X83017908Y-20776000D01*
X85650000Y-23408092D01*
X85650000Y-23408092D01*
G37*
X85650000Y-23408092D02*
X85650000Y-56601908D01*
X83017908Y-59234000D01*
X74168005Y-59234000D01*
X74168000Y-59233999D01*
X73896295Y-59288046D01*
X73665954Y-59441954D01*
X73665952Y-59441957D01*
X68158908Y-64949000D01*
X18328092Y-64949000D01*
X15569000Y-62189908D01*
X15569000Y-57782763D01*
X18172430Y-57782763D01*
X18172430Y-58549237D01*
X18277900Y-59079472D01*
X18578254Y-59528983D01*
X19027765Y-59829337D01*
X19558000Y-59934807D01*
X20088235Y-59829337D01*
X20537746Y-59528983D01*
X20828000Y-59094588D01*
X21118254Y-59528983D01*
X21567765Y-59829337D01*
X22098000Y-59934807D01*
X22628235Y-59829337D01*
X23077746Y-59528983D01*
X23368000Y-59094588D01*
X23658254Y-59528983D01*
X23673827Y-59539389D01*
X23704882Y-59695510D01*
X23923822Y-60023178D01*
X25193822Y-61293178D01*
X25521490Y-61512118D01*
X25908000Y-61589000D01*
X26294510Y-61512118D01*
X26622178Y-61293178D01*
X26841118Y-60965510D01*
X26918000Y-60579000D01*
X26892761Y-60452117D01*
X29130822Y-62690178D01*
X29458490Y-62909118D01*
X29845000Y-62986001D01*
X30231511Y-62909118D01*
X30559178Y-62690178D01*
X30778118Y-62362511D01*
X30855001Y-61976000D01*
X30829762Y-61849118D01*
X31670822Y-62690178D01*
X31998490Y-62909118D01*
X32385000Y-62986000D01*
X32771510Y-62909118D01*
X33099178Y-62690178D01*
X33318118Y-62362510D01*
X33395000Y-61976000D01*
X33318118Y-61589490D01*
X33099178Y-61261822D01*
X31617000Y-59779644D01*
X31617000Y-59755326D01*
X31727765Y-59829337D01*
X32258000Y-59934807D01*
X32788235Y-59829337D01*
X33237746Y-59528983D01*
X33528000Y-59094588D01*
X33818254Y-59528983D01*
X34267765Y-59829337D01*
X34798000Y-59934807D01*
X35328235Y-59829337D01*
X35439000Y-59755326D01*
X35439000Y-59779644D01*
X35353822Y-59864822D01*
X35134882Y-60192490D01*
X35058000Y-60579000D01*
X35134882Y-60965510D01*
X35353822Y-61293178D01*
X35681490Y-61512118D01*
X36068000Y-61589000D01*
X36454510Y-61512118D01*
X36782178Y-61293178D01*
X37163178Y-60912178D01*
X37382118Y-60584510D01*
X37459000Y-60198000D01*
X37459000Y-59910739D01*
X37868235Y-59829337D01*
X38317746Y-59528983D01*
X38618100Y-59079472D01*
X38723570Y-58549237D01*
X38723570Y-57782763D01*
X38618100Y-57252528D01*
X38375866Y-56890000D01*
X40360644Y-56890000D01*
X39036822Y-58213822D01*
X38817882Y-58541490D01*
X38741000Y-58928000D01*
X38817882Y-59314510D01*
X39036822Y-59642178D01*
X39364490Y-59861118D01*
X39751000Y-59938000D01*
X40137510Y-59861118D01*
X40465178Y-59642178D01*
X41820356Y-58287000D01*
X42164000Y-58287000D01*
X42550510Y-58210118D01*
X42878178Y-57991178D01*
X43097118Y-57663510D01*
X43174000Y-57277000D01*
X43097118Y-56890490D01*
X42878178Y-56562822D01*
X42550510Y-56343882D01*
X42164000Y-56267000D01*
X41699791Y-56267000D01*
X41700118Y-56266510D01*
X41777000Y-55880000D01*
X43059000Y-55880000D01*
X43135882Y-56266510D01*
X43354822Y-56594178D01*
X44243822Y-57483178D01*
X44571490Y-57702118D01*
X44958000Y-57779000D01*
X50927000Y-57779000D01*
X51313510Y-57702118D01*
X51641178Y-57483178D01*
X52276178Y-56848178D01*
X52495118Y-56520510D01*
X52572000Y-56134000D01*
X52572000Y-54610000D01*
X52495118Y-54223490D01*
X52276178Y-53895822D01*
X51937000Y-53556644D01*
X51937000Y-53532326D01*
X52047765Y-53606337D01*
X52578000Y-53711807D01*
X53108235Y-53606337D01*
X53557746Y-53305983D01*
X53848000Y-52871588D01*
X54138254Y-53305983D01*
X54587765Y-53606337D01*
X55118000Y-53711807D01*
X55648235Y-53606337D01*
X56097746Y-53305983D01*
X56388000Y-52871588D01*
X56678254Y-53305983D01*
X57127765Y-53606337D01*
X57658000Y-53711807D01*
X58188235Y-53606337D01*
X58637746Y-53305983D01*
X58928000Y-52871588D01*
X59218254Y-53305983D01*
X59667765Y-53606337D01*
X60198000Y-53711807D01*
X60728235Y-53606337D01*
X61177746Y-53305983D01*
X61468000Y-52871588D01*
X61758254Y-53305983D01*
X62207765Y-53606337D01*
X62738000Y-53711807D01*
X63268235Y-53606337D01*
X63717746Y-53305983D01*
X64008000Y-52871588D01*
X64040865Y-52920773D01*
X64046501Y-52939817D01*
X64087126Y-52990008D01*
X64298254Y-53305983D01*
X64747765Y-53606337D01*
X65278000Y-53711807D01*
X65808235Y-53606337D01*
X65919000Y-53532326D01*
X65919000Y-53810644D01*
X63468761Y-56260883D01*
X63494000Y-56134000D01*
X63494000Y-56007000D01*
X63417118Y-55620490D01*
X63198178Y-55292822D01*
X62870510Y-55073882D01*
X62484000Y-54997000D01*
X62097490Y-55073882D01*
X61769822Y-55292822D01*
X61550882Y-55620490D01*
X61546345Y-55643299D01*
X61309722Y-55879922D01*
X61258118Y-55620490D01*
X61039178Y-55292822D01*
X60711510Y-55073882D01*
X60325000Y-54997000D01*
X59938490Y-55073882D01*
X59610822Y-55292822D01*
X59580299Y-55323345D01*
X59557490Y-55327882D01*
X59229822Y-55546822D01*
X58183299Y-56593345D01*
X58160490Y-56597882D01*
X57832822Y-56816822D01*
X57613882Y-57144490D01*
X57537000Y-57531000D01*
X57537000Y-57818261D01*
X57127765Y-57899663D01*
X56678254Y-58200017D01*
X56388000Y-58634412D01*
X56355135Y-58585227D01*
X56349499Y-58566183D01*
X56308874Y-58515992D01*
X56097746Y-58200017D01*
X55648235Y-57899663D01*
X55118000Y-57794193D01*
X54587765Y-57899663D01*
X54138254Y-58200017D01*
X53927126Y-58515992D01*
X53886501Y-58566183D01*
X53880865Y-58585227D01*
X53848000Y-58634412D01*
X53557746Y-58200017D01*
X53108235Y-57899663D01*
X52578000Y-57794193D01*
X52047765Y-57899663D01*
X51598254Y-58200017D01*
X51308000Y-58634412D01*
X51017746Y-58200017D01*
X50568235Y-57899663D01*
X50038000Y-57794193D01*
X49507765Y-57899663D01*
X49058254Y-58200017D01*
X48768000Y-58634412D01*
X48477746Y-58200017D01*
X48028235Y-57899663D01*
X47498000Y-57794193D01*
X46967765Y-57899663D01*
X46518254Y-58200017D01*
X46217900Y-58649528D01*
X46112430Y-59179763D01*
X46112430Y-59946237D01*
X46217900Y-60476472D01*
X46518254Y-60925983D01*
X46967765Y-61226337D01*
X47498000Y-61331807D01*
X48028235Y-61226337D01*
X48212286Y-61103358D01*
X48053822Y-61261822D01*
X47834882Y-61589490D01*
X47758000Y-61976000D01*
X47834882Y-62362510D01*
X48053822Y-62690178D01*
X48381490Y-62909118D01*
X48768000Y-62986000D01*
X49154510Y-62909118D01*
X49482178Y-62690178D01*
X50323239Y-61849117D01*
X50298000Y-61976000D01*
X50374882Y-62362510D01*
X50593822Y-62690178D01*
X50921490Y-62909118D01*
X51308000Y-62986000D01*
X51694510Y-62909118D01*
X52022178Y-62690178D01*
X52403178Y-62309178D01*
X52622118Y-61981510D01*
X52699000Y-61595000D01*
X52699000Y-61307739D01*
X53108235Y-61226337D01*
X53557746Y-60925983D01*
X53848000Y-60491588D01*
X53880865Y-60540773D01*
X53886501Y-60559817D01*
X53927126Y-60610008D01*
X54138254Y-60925983D01*
X54587765Y-61226337D01*
X55118000Y-61331807D01*
X55648235Y-61226337D01*
X56097746Y-60925983D01*
X56308874Y-60610008D01*
X56349499Y-60559817D01*
X56355135Y-60540773D01*
X56388000Y-60491588D01*
X56678254Y-60925983D01*
X57127765Y-61226337D01*
X57658000Y-61331807D01*
X58188235Y-61226337D01*
X58637746Y-60925983D01*
X58928000Y-60491588D01*
X59218254Y-60925983D01*
X59667765Y-61226337D01*
X60077000Y-61307739D01*
X60077000Y-61595000D01*
X60153882Y-61981510D01*
X60372822Y-62309178D01*
X60753822Y-62690178D01*
X61081490Y-62909118D01*
X61468000Y-62986000D01*
X61854510Y-62909118D01*
X62182178Y-62690178D01*
X62401118Y-62362510D01*
X62478000Y-61976000D01*
X62401118Y-61589490D01*
X62182178Y-61261822D01*
X62097000Y-61176644D01*
X62097000Y-61152326D01*
X62207765Y-61226337D01*
X62738000Y-61331807D01*
X63268235Y-61226337D01*
X63452286Y-61103358D01*
X63293822Y-61261822D01*
X63074882Y-61589490D01*
X62998000Y-61976000D01*
X63074882Y-62362510D01*
X63293822Y-62690178D01*
X63621490Y-62909118D01*
X64008000Y-62986000D01*
X64394510Y-62909118D01*
X64722178Y-62690178D01*
X65992178Y-61420178D01*
X66211118Y-61092510D01*
X66242173Y-60936389D01*
X66257746Y-60925983D01*
X66558100Y-60476472D01*
X66663570Y-59946237D01*
X66663570Y-59179763D01*
X66558100Y-58649528D01*
X66257746Y-58200017D01*
X65808235Y-57899663D01*
X65278000Y-57794193D01*
X64747765Y-57899663D01*
X64637000Y-57973674D01*
X64637000Y-57949356D01*
X67256419Y-55329937D01*
X67265882Y-55377510D01*
X67484822Y-55705178D01*
X67992822Y-56213178D01*
X68320489Y-56432118D01*
X68332044Y-56434417D01*
X68281882Y-56509490D01*
X68205000Y-56896000D01*
X68281882Y-57282510D01*
X68500822Y-57610178D01*
X68828490Y-57829118D01*
X69215000Y-57906000D01*
X69601510Y-57829118D01*
X69929178Y-57610178D01*
X72550496Y-54988860D01*
X72587838Y-55187317D01*
X72726910Y-55403441D01*
X72939110Y-55548431D01*
X73191000Y-55599440D01*
X74891000Y-55599440D01*
X75126317Y-55555162D01*
X75342441Y-55416090D01*
X75487431Y-55203890D01*
X75533829Y-54974769D01*
X75771178Y-54816178D01*
X76660178Y-53927178D01*
X76879118Y-53599510D01*
X76956000Y-53213000D01*
X76956000Y-38862000D01*
X76879118Y-38475490D01*
X76660178Y-38147822D01*
X76332510Y-37928882D01*
X75946000Y-37852000D01*
X75632763Y-37852000D01*
X75569054Y-37531715D01*
X75247147Y-37049946D01*
X74765378Y-36728039D01*
X74197093Y-36615000D01*
X74138907Y-36615000D01*
X73570622Y-36728039D01*
X73088853Y-37049946D01*
X72766946Y-37531715D01*
X72653907Y-38100000D01*
X72766946Y-38668285D01*
X73088853Y-39150054D01*
X73418026Y-39370000D01*
X73088853Y-39589946D01*
X72766946Y-40071715D01*
X72653907Y-40640000D01*
X72766946Y-41208285D01*
X73088853Y-41690054D01*
X73130452Y-41717850D01*
X73082683Y-41726838D01*
X72866559Y-41865910D01*
X72721569Y-42078110D01*
X72670560Y-42330000D01*
X72670560Y-44030000D01*
X72714838Y-44265317D01*
X72853910Y-44481441D01*
X73066110Y-44626431D01*
X73318000Y-44677440D01*
X74936000Y-44677440D01*
X74936000Y-47848903D01*
X74638378Y-47650039D01*
X74070093Y-47537000D01*
X74011907Y-47537000D01*
X73443622Y-47650039D01*
X72961853Y-47971946D01*
X72639946Y-48453715D01*
X72526907Y-49022000D01*
X72639946Y-49590285D01*
X72961853Y-50072054D01*
X73291026Y-50292000D01*
X72961853Y-50511946D01*
X72639946Y-50993715D01*
X72576237Y-51314000D01*
X72263000Y-51314000D01*
X71876490Y-51390882D01*
X71548822Y-51609822D01*
X71329882Y-51937490D01*
X71253000Y-52324000D01*
X71253000Y-53429644D01*
X69612095Y-55070549D01*
X69421178Y-54784822D01*
X69209000Y-54572644D01*
X69209000Y-48768000D01*
X69132118Y-48381490D01*
X68913178Y-48053822D01*
X66288000Y-45428644D01*
X66288000Y-45212000D01*
X66211118Y-44825490D01*
X65992178Y-44497822D01*
X65664510Y-44278882D01*
X65278000Y-44202000D01*
X64891490Y-44278882D01*
X64891000Y-44279209D01*
X64891000Y-42995261D01*
X64953431Y-42903890D01*
X65004440Y-42652000D01*
X65004440Y-40152000D01*
X64960162Y-39916683D01*
X64821090Y-39700559D01*
X64608890Y-39555569D01*
X64357000Y-39504560D01*
X63357000Y-39504560D01*
X63121683Y-39548838D01*
X62905559Y-39687910D01*
X62760569Y-39900110D01*
X62709560Y-40152000D01*
X62709560Y-42652000D01*
X62753838Y-42887317D01*
X62871000Y-43069392D01*
X62871000Y-46863000D01*
X62947882Y-47249510D01*
X63166822Y-47577178D01*
X65919000Y-50329356D01*
X65919000Y-50353674D01*
X65808235Y-50279663D01*
X65278000Y-50174193D01*
X64747765Y-50279663D01*
X64298254Y-50580017D01*
X64087126Y-50895992D01*
X64046501Y-50946183D01*
X64040865Y-50965227D01*
X64008000Y-51014412D01*
X63717746Y-50580017D01*
X63268235Y-50279663D01*
X62859000Y-50198261D01*
X62859000Y-49911000D01*
X62782118Y-49524490D01*
X62563178Y-49196822D01*
X60277178Y-46910822D01*
X59949510Y-46691882D01*
X59563000Y-46615000D01*
X59176490Y-46691882D01*
X58848822Y-46910822D01*
X58629882Y-47238490D01*
X58553000Y-47625000D01*
X58578239Y-47751883D01*
X57737178Y-46910822D01*
X57409510Y-46691882D01*
X57023000Y-46615000D01*
X56636490Y-46691882D01*
X56308822Y-46910822D01*
X56089882Y-47238490D01*
X56013000Y-47625000D01*
X56089882Y-48011510D01*
X56245682Y-48244682D01*
X56012510Y-48088882D01*
X55626000Y-48012000D01*
X55239490Y-48088882D01*
X54911822Y-48307822D01*
X54318644Y-48901000D01*
X53467000Y-48901000D01*
X53080490Y-48977882D01*
X52752822Y-49196822D01*
X52533882Y-49524490D01*
X52457000Y-49911000D01*
X52457000Y-50198261D01*
X52047765Y-50279663D01*
X51598254Y-50580017D01*
X51308000Y-51014412D01*
X51017746Y-50580017D01*
X50568235Y-50279663D01*
X50038000Y-50174193D01*
X49507765Y-50279663D01*
X49058254Y-50580017D01*
X48768000Y-51014412D01*
X48477746Y-50580017D01*
X48028235Y-50279663D01*
X47873000Y-50248785D01*
X47873000Y-37911326D01*
X47983765Y-37985337D01*
X48514000Y-38090807D01*
X49044235Y-37985337D01*
X49493746Y-37684983D01*
X49784000Y-37250588D01*
X50044000Y-37639705D01*
X50044000Y-40169223D01*
X49954569Y-40300110D01*
X49903560Y-40552000D01*
X49903560Y-42252000D01*
X49947838Y-42487317D01*
X50086910Y-42703441D01*
X50299110Y-42848431D01*
X50551000Y-42899440D01*
X51451000Y-42899440D01*
X51686317Y-42855162D01*
X51902441Y-42716090D01*
X52047431Y-42503890D01*
X52098440Y-42252000D01*
X52098440Y-40552000D01*
X52803560Y-40552000D01*
X52803560Y-42252000D01*
X52847838Y-42487317D01*
X52986910Y-42703441D01*
X53199110Y-42848431D01*
X53451000Y-42899440D01*
X54351000Y-42899440D01*
X54586317Y-42855162D01*
X54802441Y-42716090D01*
X54947431Y-42503890D01*
X54966039Y-42412000D01*
X55626000Y-42412000D01*
X56012510Y-42335118D01*
X56340178Y-42116178D01*
X56559118Y-41788510D01*
X56636000Y-41402000D01*
X56559118Y-41015490D01*
X56340178Y-40687822D01*
X56012510Y-40468882D01*
X55626000Y-40392000D01*
X54968334Y-40392000D01*
X54954162Y-40316683D01*
X54815090Y-40100559D01*
X54675235Y-40005000D01*
X57029000Y-40005000D01*
X57105882Y-40391510D01*
X57324822Y-40719178D01*
X57652490Y-40938118D01*
X58039000Y-41015000D01*
X58134964Y-40995912D01*
X58121882Y-41015490D01*
X58045000Y-41402000D01*
X58121882Y-41788510D01*
X58340822Y-42116178D01*
X58668490Y-42335118D01*
X59055000Y-42412000D01*
X59709560Y-42412000D01*
X59709560Y-42652000D01*
X59753838Y-42887317D01*
X59892910Y-43103441D01*
X60105110Y-43248431D01*
X60357000Y-43299440D01*
X61357000Y-43299440D01*
X61592317Y-43255162D01*
X61808441Y-43116090D01*
X61953431Y-42903890D01*
X62004440Y-42652000D01*
X62004440Y-40152000D01*
X61960162Y-39916683D01*
X61821090Y-39700559D01*
X61656419Y-39588044D01*
X61674178Y-39576178D01*
X61893118Y-39248510D01*
X61970000Y-38862000D01*
X61893118Y-38475490D01*
X61674178Y-38147822D01*
X61346510Y-37928882D01*
X60960000Y-37852000D01*
X59182000Y-37852000D01*
X58795490Y-37928882D01*
X58467822Y-38147822D01*
X57324822Y-39290822D01*
X57105882Y-39618490D01*
X57029000Y-40005000D01*
X54675235Y-40005000D01*
X54602890Y-39955569D01*
X54351000Y-39904560D01*
X53451000Y-39904560D01*
X53215683Y-39948838D01*
X52999559Y-40087910D01*
X52854569Y-40300110D01*
X52803560Y-40552000D01*
X52098440Y-40552000D01*
X52064000Y-40368967D01*
X52064000Y-37639705D01*
X52324000Y-37250588D01*
X52614254Y-37684983D01*
X53063765Y-37985337D01*
X53594000Y-38090807D01*
X54124235Y-37985337D01*
X54573746Y-37684983D01*
X54864000Y-37250588D01*
X55154254Y-37684983D01*
X55603765Y-37985337D01*
X56134000Y-38090807D01*
X56664235Y-37985337D01*
X57113746Y-37684983D01*
X57414100Y-37235472D01*
X57519570Y-36705237D01*
X57519570Y-36364786D01*
X63452178Y-30432178D01*
X63671118Y-30104510D01*
X63748000Y-29718000D01*
X63671118Y-29331490D01*
X63452178Y-29003822D01*
X63124510Y-28784882D01*
X62738000Y-28708000D01*
X62351490Y-28784882D01*
X62023822Y-29003822D01*
X56417967Y-34609677D01*
X56134000Y-34553193D01*
X55603765Y-34658663D01*
X55154254Y-34959017D01*
X54864000Y-35393412D01*
X54573746Y-34959017D01*
X54124235Y-34658663D01*
X53594000Y-34553193D01*
X53063765Y-34658663D01*
X52614254Y-34959017D01*
X52324000Y-35393412D01*
X52033746Y-34959017D01*
X51584235Y-34658663D01*
X51054000Y-34553193D01*
X50523765Y-34658663D01*
X50074254Y-34959017D01*
X49784000Y-35393412D01*
X49493746Y-34959017D01*
X49044235Y-34658663D01*
X48514000Y-34553193D01*
X47983765Y-34658663D01*
X47873000Y-34732674D01*
X47873000Y-34708356D01*
X49228178Y-33353178D01*
X49447118Y-33025510D01*
X49524001Y-32639000D01*
X49524000Y-32638995D01*
X49524000Y-30019705D01*
X49784000Y-29630588D01*
X49816865Y-29679773D01*
X49822501Y-29698817D01*
X49863126Y-29749008D01*
X50074254Y-30064983D01*
X50523765Y-30365337D01*
X51054000Y-30470807D01*
X51584235Y-30365337D01*
X52033746Y-30064983D01*
X52244874Y-29749008D01*
X52285499Y-29698817D01*
X52291135Y-29679773D01*
X52324000Y-29630588D01*
X52356865Y-29679773D01*
X52362501Y-29698817D01*
X52403126Y-29749008D01*
X52614254Y-30064983D01*
X53063765Y-30365337D01*
X53594000Y-30470807D01*
X54124235Y-30365337D01*
X54573746Y-30064983D01*
X54784874Y-29749008D01*
X54825499Y-29698817D01*
X54831135Y-29679773D01*
X54864000Y-29630588D01*
X54896865Y-29679773D01*
X54902501Y-29698817D01*
X54943126Y-29749008D01*
X55154254Y-30064983D01*
X55603765Y-30365337D01*
X56134000Y-30470807D01*
X56664235Y-30365337D01*
X57113746Y-30064983D01*
X57324874Y-29749008D01*
X57365499Y-29698817D01*
X57371135Y-29679773D01*
X57414100Y-29615472D01*
X57463151Y-29368876D01*
X57519570Y-29178250D01*
X57519570Y-28225750D01*
X57463151Y-28035124D01*
X57414100Y-27788528D01*
X57371135Y-27724227D01*
X57365499Y-27705183D01*
X57324874Y-27654992D01*
X57113746Y-27339017D01*
X56664235Y-27038663D01*
X56134000Y-26933193D01*
X55603765Y-27038663D01*
X55154254Y-27339017D01*
X54943126Y-27654992D01*
X54902501Y-27705183D01*
X54896865Y-27724227D01*
X54864000Y-27773412D01*
X54831135Y-27724227D01*
X54825499Y-27705183D01*
X54784874Y-27654992D01*
X54573746Y-27339017D01*
X54124235Y-27038663D01*
X53594000Y-26933193D01*
X53063765Y-27038663D01*
X52614254Y-27339017D01*
X52403126Y-27654992D01*
X52362501Y-27705183D01*
X52356865Y-27724227D01*
X52324000Y-27773412D01*
X52291135Y-27724227D01*
X52285499Y-27705183D01*
X52244874Y-27654992D01*
X52033746Y-27339017D01*
X51584235Y-27038663D01*
X51054000Y-26933193D01*
X50523765Y-27038663D01*
X50074254Y-27339017D01*
X49863126Y-27654992D01*
X49822501Y-27705183D01*
X49816865Y-27724227D01*
X49784000Y-27773412D01*
X49493746Y-27339017D01*
X49044235Y-27038663D01*
X48514000Y-26933193D01*
X47983765Y-27038663D01*
X47534254Y-27339017D01*
X47233900Y-27788528D01*
X47128430Y-28318763D01*
X47128430Y-29085237D01*
X47233900Y-29615472D01*
X47504000Y-30019705D01*
X47504000Y-32220644D01*
X46148822Y-33575822D01*
X45929882Y-33903490D01*
X45853000Y-34290000D01*
X45853000Y-51308000D01*
X45929882Y-51694510D01*
X46112430Y-51967713D01*
X46112430Y-52326237D01*
X46217900Y-52856472D01*
X46518254Y-53305983D01*
X46967765Y-53606337D01*
X47377000Y-53687739D01*
X47377000Y-53975000D01*
X47453882Y-54361510D01*
X47672822Y-54689178D01*
X48000490Y-54908118D01*
X48340368Y-54975724D01*
X49123644Y-55759000D01*
X45376356Y-55759000D01*
X44783178Y-55165822D01*
X44455510Y-54946882D01*
X44069000Y-54870000D01*
X43682490Y-54946882D01*
X43354822Y-55165822D01*
X43135882Y-55493490D01*
X43059000Y-55880000D01*
X41777000Y-55880000D01*
X41700118Y-55493490D01*
X41481178Y-55165822D01*
X41153510Y-54946882D01*
X40767000Y-54870000D01*
X35941000Y-54870000D01*
X35554490Y-54946882D01*
X35226822Y-55165822D01*
X34083822Y-56308822D01*
X33864882Y-56636490D01*
X33833827Y-56792611D01*
X33818254Y-56803017D01*
X33528000Y-57237412D01*
X33237746Y-56803017D01*
X32788235Y-56502663D01*
X32258000Y-56397193D01*
X31727765Y-56502663D01*
X31278254Y-56803017D01*
X30988000Y-57237412D01*
X30697746Y-56803017D01*
X30248235Y-56502663D01*
X29718000Y-56397193D01*
X29187765Y-56502663D01*
X28738254Y-56803017D01*
X28448000Y-57237412D01*
X28157746Y-56803017D01*
X27708235Y-56502663D01*
X27178000Y-56397193D01*
X26647765Y-56502663D01*
X26198254Y-56803017D01*
X25908000Y-57237412D01*
X25617746Y-56803017D01*
X25168235Y-56502663D01*
X24638000Y-56397193D01*
X24107765Y-56502663D01*
X23658254Y-56803017D01*
X23368000Y-57237412D01*
X23077746Y-56803017D01*
X22628235Y-56502663D01*
X22098000Y-56397193D01*
X21567765Y-56502663D01*
X21118254Y-56803017D01*
X20828000Y-57237412D01*
X20537746Y-56803017D01*
X20088235Y-56502663D01*
X19558000Y-56397193D01*
X19027765Y-56502663D01*
X18578254Y-56803017D01*
X18277900Y-57252528D01*
X18172430Y-57782763D01*
X15569000Y-57782763D01*
X15569000Y-50162763D01*
X18172430Y-50162763D01*
X18172430Y-50929237D01*
X18277900Y-51459472D01*
X18578254Y-51908983D01*
X19027765Y-52209337D01*
X19558000Y-52314807D01*
X20088235Y-52209337D01*
X20537746Y-51908983D01*
X20828000Y-51474588D01*
X21118254Y-51908983D01*
X21567765Y-52209337D01*
X22098000Y-52314807D01*
X22628235Y-52209337D01*
X23077746Y-51908983D01*
X23368000Y-51474588D01*
X23658254Y-51908983D01*
X24107765Y-52209337D01*
X24638000Y-52314807D01*
X25168235Y-52209337D01*
X25617746Y-51908983D01*
X25908000Y-51474588D01*
X25940865Y-51523773D01*
X25946501Y-51542817D01*
X25987126Y-51593008D01*
X26198254Y-51908983D01*
X26647765Y-52209337D01*
X27178000Y-52314807D01*
X27708235Y-52209337D01*
X28157746Y-51908983D01*
X28368874Y-51593008D01*
X28409499Y-51542817D01*
X28415135Y-51523773D01*
X28448000Y-51474588D01*
X28738254Y-51908983D01*
X29187765Y-52209337D01*
X29718000Y-52314807D01*
X30248235Y-52209337D01*
X30697746Y-51908983D01*
X30988000Y-51474588D01*
X31278254Y-51908983D01*
X31727765Y-52209337D01*
X32258000Y-52314807D01*
X32788235Y-52209337D01*
X33237746Y-51908983D01*
X33528000Y-51474588D01*
X33818254Y-51908983D01*
X33833827Y-51919389D01*
X33864882Y-52075510D01*
X34083822Y-52403178D01*
X35861822Y-54181178D01*
X36189490Y-54400118D01*
X36576000Y-54477000D01*
X36962510Y-54400118D01*
X37290178Y-54181178D01*
X37509118Y-53853510D01*
X37586000Y-53467000D01*
X37509118Y-53080490D01*
X37290178Y-52752822D01*
X36623714Y-52086358D01*
X36807765Y-52209337D01*
X37338000Y-52314807D01*
X37868235Y-52209337D01*
X38317746Y-51908983D01*
X38618100Y-51459472D01*
X38723570Y-50929237D01*
X38723570Y-50162763D01*
X38618100Y-49632528D01*
X38317746Y-49183017D01*
X38266837Y-49149000D01*
X38741000Y-49149000D01*
X38817882Y-49535510D01*
X39036822Y-49863178D01*
X41830822Y-52657178D01*
X42158490Y-52876118D01*
X42545000Y-52953000D01*
X42931510Y-52876118D01*
X43259178Y-52657178D01*
X43478118Y-52329510D01*
X43555000Y-51943000D01*
X43478118Y-51556490D01*
X43259178Y-51228822D01*
X40465178Y-48434822D01*
X40137510Y-48215882D01*
X39751000Y-48139000D01*
X39364490Y-48215882D01*
X39036822Y-48434822D01*
X38817882Y-48762490D01*
X38741000Y-49149000D01*
X38266837Y-49149000D01*
X37868235Y-48882663D01*
X37338000Y-48777193D01*
X36807765Y-48882663D01*
X36358254Y-49183017D01*
X36068000Y-49617412D01*
X35777746Y-49183017D01*
X35328235Y-48882663D01*
X34798000Y-48777193D01*
X34267765Y-48882663D01*
X34157000Y-48956674D01*
X34157000Y-48932356D01*
X35258178Y-47831178D01*
X35477118Y-47503510D01*
X35554000Y-47117000D01*
X35477118Y-46730490D01*
X35258178Y-46402822D01*
X34930510Y-46183882D01*
X34544000Y-46107000D01*
X34157490Y-46183882D01*
X33829822Y-46402822D01*
X32988761Y-47243883D01*
X33014000Y-47117000D01*
X32937118Y-46730490D01*
X32718178Y-46402822D01*
X32390510Y-46183882D01*
X32004000Y-46107000D01*
X31617490Y-46183882D01*
X31289822Y-46402822D01*
X29003822Y-48688822D01*
X28784882Y-49016490D01*
X28753827Y-49172611D01*
X28738254Y-49183017D01*
X28448000Y-49617412D01*
X28415135Y-49568227D01*
X28409499Y-49549183D01*
X28368874Y-49498992D01*
X28157746Y-49183017D01*
X27708235Y-48882663D01*
X27178000Y-48777193D01*
X26647765Y-48882663D01*
X26463714Y-49005642D01*
X31829178Y-43640178D01*
X32048118Y-43312510D01*
X32125000Y-42926000D01*
X32048118Y-42539490D01*
X31829178Y-42211822D01*
X31501510Y-41992882D01*
X31115000Y-41916000D01*
X30728490Y-41992882D01*
X30400822Y-42211822D01*
X25368761Y-47243883D01*
X25394000Y-47117000D01*
X25317118Y-46730490D01*
X25098178Y-46402822D01*
X24770510Y-46183882D01*
X24384000Y-46107000D01*
X23997490Y-46183882D01*
X23669822Y-46402822D01*
X22272822Y-47799822D01*
X22053882Y-48127490D01*
X21977000Y-48514000D01*
X21977000Y-48801261D01*
X21567765Y-48882663D01*
X21118254Y-49183017D01*
X20828000Y-49617412D01*
X20537746Y-49183017D01*
X20088235Y-48882663D01*
X19558000Y-48777193D01*
X19027765Y-48882663D01*
X18578254Y-49183017D01*
X18277900Y-49632528D01*
X18172430Y-50162763D01*
X15569000Y-50162763D01*
X15569000Y-46141092D01*
X19806046Y-41904046D01*
X19959954Y-41673705D01*
X20014000Y-41402000D01*
X20014000Y-35624591D01*
X26083044Y-35624591D01*
X26088987Y-36082403D01*
X26088587Y-36540325D01*
X26095136Y-36556176D01*
X26095359Y-36573323D01*
X26434729Y-37392636D01*
X26442535Y-37396944D01*
X26450916Y-37417229D01*
X27121242Y-38088726D01*
X27144446Y-38098361D01*
X27149364Y-38107271D01*
X27574608Y-38276980D01*
X27997513Y-38452585D01*
X28014665Y-38452600D01*
X28030591Y-38458956D01*
X28488403Y-38453013D01*
X28946325Y-38453413D01*
X28962176Y-38446864D01*
X28979323Y-38446641D01*
X29798636Y-38107271D01*
X29802944Y-38099465D01*
X29823229Y-38091084D01*
X30494726Y-37420758D01*
X30504361Y-37397554D01*
X30513271Y-37392636D01*
X30682980Y-36967392D01*
X30858585Y-36544487D01*
X30858600Y-36527335D01*
X30864956Y-36511409D01*
X30859013Y-36053597D01*
X30859387Y-35624591D01*
X35683044Y-35624591D01*
X35688987Y-36082403D01*
X35688587Y-36540325D01*
X35695136Y-36556176D01*
X35695359Y-36573323D01*
X36034729Y-37392636D01*
X36042535Y-37396944D01*
X36050916Y-37417229D01*
X36721242Y-38088726D01*
X36744446Y-38098361D01*
X36749364Y-38107271D01*
X37174608Y-38276980D01*
X37597513Y-38452585D01*
X37614665Y-38452600D01*
X37630591Y-38458956D01*
X38088403Y-38453013D01*
X38546325Y-38453413D01*
X38562176Y-38446864D01*
X38579323Y-38446641D01*
X39398636Y-38107271D01*
X39402944Y-38099465D01*
X39423229Y-38091084D01*
X40094726Y-37420758D01*
X40104361Y-37397554D01*
X40113271Y-37392636D01*
X40282980Y-36967392D01*
X40458585Y-36544487D01*
X40458600Y-36527335D01*
X40464956Y-36511409D01*
X40459013Y-36053597D01*
X40459413Y-35595675D01*
X40452864Y-35579824D01*
X40452641Y-35562677D01*
X40113271Y-34743364D01*
X40105465Y-34739056D01*
X40097084Y-34718771D01*
X39426758Y-34047274D01*
X39403554Y-34037639D01*
X39398636Y-34028729D01*
X38973392Y-33859020D01*
X38550487Y-33683415D01*
X38533335Y-33683400D01*
X38517409Y-33677044D01*
X38059597Y-33682987D01*
X37601675Y-33682587D01*
X37585824Y-33689136D01*
X37568677Y-33689359D01*
X36749364Y-34028729D01*
X36745056Y-34036535D01*
X36724771Y-34044916D01*
X36053274Y-34715242D01*
X36043639Y-34738446D01*
X36034729Y-34743364D01*
X35865020Y-35168608D01*
X35689415Y-35591513D01*
X35689400Y-35608665D01*
X35683044Y-35624591D01*
X30859387Y-35624591D01*
X30859413Y-35595675D01*
X30852864Y-35579824D01*
X30852641Y-35562677D01*
X30513271Y-34743364D01*
X30505465Y-34739056D01*
X30497084Y-34718771D01*
X29826758Y-34047274D01*
X29803554Y-34037639D01*
X29798636Y-34028729D01*
X29373392Y-33859020D01*
X28950487Y-33683415D01*
X28933335Y-33683400D01*
X28917409Y-33677044D01*
X28459597Y-33682987D01*
X28001675Y-33682587D01*
X27985824Y-33689136D01*
X27968677Y-33689359D01*
X27149364Y-34028729D01*
X27145056Y-34036535D01*
X27124771Y-34044916D01*
X26453274Y-34715242D01*
X26443639Y-34738446D01*
X26434729Y-34743364D01*
X26265020Y-35168608D01*
X26089415Y-35591513D01*
X26089400Y-35608665D01*
X26083044Y-35624591D01*
X20014000Y-35624591D01*
X20014000Y-28785968D01*
X29389000Y-28785968D01*
X29389000Y-29350032D01*
X29494427Y-29880049D01*
X29759299Y-30276458D01*
X29800882Y-30485510D01*
X30019822Y-30813178D01*
X31035822Y-31829178D01*
X31363490Y-32048118D01*
X31750000Y-32125000D01*
X32136510Y-32048118D01*
X32464178Y-31829178D01*
X32683118Y-31501510D01*
X32760000Y-31115000D01*
X32734761Y-30988117D01*
X33575822Y-31829178D01*
X33903490Y-32048118D01*
X34290000Y-32125000D01*
X34676510Y-32048118D01*
X35004178Y-31829178D01*
X35223118Y-31501510D01*
X35300000Y-31115000D01*
X35223118Y-30728490D01*
X35086925Y-30524662D01*
X35243983Y-30629605D01*
X35774000Y-30735032D01*
X36304017Y-30629605D01*
X36753343Y-30329375D01*
X37053573Y-29880049D01*
X37159000Y-29350032D01*
X37159000Y-28785968D01*
X37053573Y-28255951D01*
X36753343Y-27806625D01*
X36304017Y-27506395D01*
X35774000Y-27400968D01*
X35243983Y-27506395D01*
X34794657Y-27806625D01*
X34524000Y-28211692D01*
X34253343Y-27806625D01*
X33804017Y-27506395D01*
X33274000Y-27400968D01*
X32743983Y-27506395D01*
X32294657Y-27806625D01*
X32024000Y-28211692D01*
X31753343Y-27806625D01*
X31304017Y-27506395D01*
X30774000Y-27400968D01*
X30243983Y-27506395D01*
X29794657Y-27806625D01*
X29494427Y-28255951D01*
X29389000Y-28785968D01*
X20014000Y-28785968D01*
X20014000Y-26797000D01*
X38360000Y-26797000D01*
X38436882Y-27183510D01*
X38655822Y-27511178D01*
X38983490Y-27730118D01*
X39370000Y-27807000D01*
X39756510Y-27730118D01*
X40084178Y-27511178D01*
X40678916Y-26916440D01*
X41672000Y-26916440D01*
X41907317Y-26872162D01*
X42123441Y-26733090D01*
X42268431Y-26520890D01*
X42319440Y-26269000D01*
X42319440Y-23769000D01*
X43024560Y-23769000D01*
X43024560Y-26269000D01*
X43068838Y-26504317D01*
X43186000Y-26686392D01*
X43186000Y-32004000D01*
X43262882Y-32390510D01*
X43481822Y-32718178D01*
X44370822Y-33607178D01*
X44698490Y-33826118D01*
X45085000Y-33903000D01*
X45471510Y-33826118D01*
X45799178Y-33607178D01*
X46018118Y-33279510D01*
X46095000Y-32893000D01*
X46018118Y-32506490D01*
X45799178Y-32178822D01*
X45206000Y-31585644D01*
X45206000Y-26612261D01*
X45268431Y-26520890D01*
X45319440Y-26269000D01*
X45319440Y-24892000D01*
X72653907Y-24892000D01*
X72766946Y-25460285D01*
X73088853Y-25942054D01*
X73418026Y-26162000D01*
X73088853Y-26381946D01*
X72766946Y-26863715D01*
X72653907Y-27432000D01*
X72766946Y-28000285D01*
X73088853Y-28482054D01*
X73130452Y-28509850D01*
X73082683Y-28518838D01*
X72866559Y-28657910D01*
X72721569Y-28870110D01*
X72670560Y-29122000D01*
X72670560Y-30822000D01*
X72714838Y-31057317D01*
X72853910Y-31273441D01*
X73066110Y-31418431D01*
X73318000Y-31469440D01*
X75018000Y-31469440D01*
X75253317Y-31425162D01*
X75469441Y-31286090D01*
X75614431Y-31073890D01*
X75665440Y-30822000D01*
X75665440Y-29122000D01*
X75621162Y-28886683D01*
X75482090Y-28670559D01*
X75269890Y-28525569D01*
X75202459Y-28511914D01*
X75247147Y-28482054D01*
X75569054Y-28000285D01*
X75682093Y-27432000D01*
X75569054Y-26863715D01*
X75247147Y-26381946D01*
X74917974Y-26162000D01*
X75247147Y-25942054D01*
X75569054Y-25460285D01*
X75682093Y-24892000D01*
X75569054Y-24323715D01*
X75247147Y-23841946D01*
X74765378Y-23520039D01*
X74197093Y-23407000D01*
X74138907Y-23407000D01*
X73570622Y-23520039D01*
X73088853Y-23841946D01*
X72766946Y-24323715D01*
X72653907Y-24892000D01*
X45319440Y-24892000D01*
X45319440Y-23769000D01*
X45275162Y-23533683D01*
X45136090Y-23317559D01*
X44923890Y-23172569D01*
X44672000Y-23121560D01*
X43672000Y-23121560D01*
X43436683Y-23165838D01*
X43220559Y-23304910D01*
X43075569Y-23517110D01*
X43024560Y-23769000D01*
X42319440Y-23769000D01*
X42275162Y-23533683D01*
X42136090Y-23317559D01*
X41923890Y-23172569D01*
X41672000Y-23121560D01*
X40672000Y-23121560D01*
X40436683Y-23165838D01*
X40220559Y-23304910D01*
X40075569Y-23517110D01*
X40024560Y-23769000D01*
X40024560Y-24714084D01*
X38655822Y-26082822D01*
X38436882Y-26410490D01*
X38360000Y-26797000D01*
X20014000Y-26797000D01*
X20014000Y-26456092D01*
X22900092Y-23570000D01*
X34163000Y-23570000D01*
X34434705Y-23515954D01*
X34665046Y-23362046D01*
X37251092Y-20776000D01*
X83017908Y-20776000D01*
X85650000Y-23408092D01*
G36*
X29187765Y-59829337D02*
X29597000Y-59910739D01*
X29597000Y-60198000D01*
X29622239Y-60324883D01*
X29003714Y-59706358D01*
X29187765Y-59829337D01*
X29187765Y-59829337D01*
G37*
X29187765Y-59829337D02*
X29597000Y-59910739D01*
X29597000Y-60198000D01*
X29622239Y-60324883D01*
X29003714Y-59706358D01*
X29187765Y-59829337D01*
G36*
X26020879Y-59263523D02*
X25885547Y-59128191D01*
X25908000Y-59094588D01*
X26020879Y-59263523D01*
X26020879Y-59263523D01*
G37*
X26020879Y-59263523D02*
X25885547Y-59128191D01*
X25908000Y-59094588D01*
X26020879Y-59263523D01*
G36*
X28560879Y-59263523D02*
X28425547Y-59128191D01*
X28448000Y-59094588D01*
X28560879Y-59263523D01*
X28560879Y-59263523D01*
G37*
X28560879Y-59263523D02*
X28425547Y-59128191D01*
X28448000Y-59094588D01*
X28560879Y-59263523D01*
G36*
X36068000Y-57237412D02*
X36045547Y-57203809D01*
X36180879Y-57068477D01*
X36068000Y-57237412D01*
X36068000Y-57237412D01*
G37*
X36068000Y-57237412D02*
X36045547Y-57203809D01*
X36180879Y-57068477D01*
X36068000Y-57237412D01*
G36*
X64030453Y-60525191D02*
X63895121Y-60660523D01*
X64008000Y-60491588D01*
X64030453Y-60525191D01*
X64030453Y-60525191D01*
G37*
X64030453Y-60525191D02*
X63895121Y-60660523D01*
X64008000Y-60491588D01*
X64030453Y-60525191D01*
G36*
X48790453Y-60525191D02*
X48655121Y-60660523D01*
X48768000Y-60491588D01*
X48790453Y-60525191D01*
X48790453Y-60525191D01*
G37*
X48790453Y-60525191D02*
X48655121Y-60660523D01*
X48768000Y-60491588D01*
X48790453Y-60525191D01*
G36*
X62617000Y-57531000D02*
X62617000Y-57818261D01*
X62207765Y-57899663D01*
X62097000Y-57973674D01*
X62097000Y-57949356D01*
X62642239Y-57404117D01*
X62617000Y-57531000D01*
X62617000Y-57531000D01*
G37*
X62617000Y-57531000D02*
X62617000Y-57818261D01*
X62207765Y-57899663D01*
X62097000Y-57973674D01*
X62097000Y-57949356D01*
X62642239Y-57404117D01*
X62617000Y-57531000D01*
G36*
X60077000Y-57818261D02*
X59750063Y-57883293D01*
X60077000Y-57556356D01*
X60077000Y-57818261D01*
X60077000Y-57818261D01*
G37*
X60077000Y-57818261D02*
X59750063Y-57883293D01*
X60077000Y-57556356D01*
X60077000Y-57818261D01*
G36*
X49917000Y-53687739D02*
X49917000Y-53695644D01*
X49907132Y-53685776D01*
X49917000Y-53687739D01*
X49917000Y-53687739D01*
G37*
X49917000Y-53687739D02*
X49917000Y-53695644D01*
X49907132Y-53685776D01*
X49917000Y-53687739D01*
G36*
X58950453Y-50980809D02*
X58928000Y-51014412D01*
X58815121Y-50845477D01*
X58950453Y-50980809D01*
X58950453Y-50980809D01*
G37*
X58950453Y-50980809D02*
X58928000Y-51014412D01*
X58815121Y-50845477D01*
X58950453Y-50980809D01*
G36*
X58372286Y-50402642D02*
X58188235Y-50279663D01*
X57658000Y-50174193D01*
X57127765Y-50279663D01*
X56678254Y-50580017D01*
X56388000Y-51014412D01*
X56097746Y-50580017D01*
X55737229Y-50339127D01*
X56340178Y-49736178D01*
X56559118Y-49408510D01*
X56636000Y-49022000D01*
X56559118Y-48635490D01*
X56466458Y-48496814D01*
X58372286Y-50402642D01*
X58372286Y-50402642D01*
G37*
X58372286Y-50402642D02*
X58188235Y-50279663D01*
X57658000Y-50174193D01*
X57127765Y-50279663D01*
X56678254Y-50580017D01*
X56388000Y-51014412D01*
X56097746Y-50580017D01*
X55737229Y-50339127D01*
X56340178Y-49736178D01*
X56559118Y-49408510D01*
X56636000Y-49022000D01*
X56559118Y-48635490D01*
X56466458Y-48496814D01*
X58372286Y-50402642D01*
G36*
X74936000Y-50388903D02*
X74790974Y-50292000D01*
X74936000Y-50195097D01*
X74936000Y-50388903D01*
X74936000Y-50388903D01*
G37*
X74936000Y-50388903D02*
X74790974Y-50292000D01*
X74936000Y-50195097D01*
X74936000Y-50388903D01*
G36*
X36180879Y-51643523D02*
X36045547Y-51508191D01*
X36068000Y-51474588D01*
X36180879Y-51643523D01*
X36180879Y-51643523D01*
G37*
X36180879Y-51643523D02*
X36045547Y-51508191D01*
X36068000Y-51474588D01*
X36180879Y-51643523D01*
G36*
X25987126Y-49498992D02*
X25946501Y-49549183D01*
X25940865Y-49568227D01*
X25908000Y-49617412D01*
X25885547Y-49583809D01*
X26020879Y-49448477D01*
X25987126Y-49498992D01*
X25987126Y-49498992D01*
G37*
X25987126Y-49498992D02*
X25946501Y-49549183D01*
X25940865Y-49568227D01*
X25908000Y-49617412D01*
X25885547Y-49583809D01*
X26020879Y-49448477D01*
X25987126Y-49498992D01*
G36*
X30988000Y-49617412D02*
X30965547Y-49583809D01*
X31100879Y-49448477D01*
X30988000Y-49617412D01*
X30988000Y-49617412D01*
G37*
X30988000Y-49617412D02*
X30965547Y-49583809D01*
X31100879Y-49448477D01*
X30988000Y-49617412D01*
G36*
X32137000Y-48514000D02*
X32137000Y-48801261D01*
X31727765Y-48882663D01*
X31543714Y-49005642D01*
X32162239Y-48387117D01*
X32137000Y-48514000D01*
X32137000Y-48514000D01*
G37*
X32137000Y-48514000D02*
X32137000Y-48801261D01*
X31727765Y-48882663D01*
X31543714Y-49005642D01*
X32162239Y-48387117D01*
X32137000Y-48514000D01*
G36*
X59760569Y-39900110D02*
X59709560Y-40152000D01*
X59709560Y-40392000D01*
X59080356Y-40392000D01*
X59600356Y-39872000D01*
X59779776Y-39872000D01*
X59760569Y-39900110D01*
X59760569Y-39900110D01*
G37*
X59760569Y-39900110D02*
X59709560Y-40152000D01*
X59709560Y-40392000D01*
X59080356Y-40392000D01*
X59600356Y-39872000D01*
X59779776Y-39872000D01*
X59760569Y-39900110D01*
G36*
X32097168Y-30033812D02*
X32009446Y-29946090D01*
X32024000Y-29924308D01*
X32097168Y-30033812D01*
X32097168Y-30033812D01*
G37*
X32097168Y-30033812D02*
X32009446Y-29946090D01*
X32024000Y-29924308D01*
X32097168Y-30033812D01*
M02*
