G04 #@! TF.FileFunction,Copper,L2,Bot,Signal*
%FSLAX46Y46*%
G04 Gerber Fmt 4.6, Leading zero omitted, Abs format (unit mm)*
G04 Created by KiCad (PCBNEW 4.0.7) date 06/28/18 23:41:18*
%MOMM*%
%LPD*%
G01*
G04 APERTURE LIST*
%ADD10C,0.100000*%
%ADD11C,5.000000*%
%ADD12R,3.500000X2.500000*%
%ADD13O,1.750000X3.500000*%
%ADD14R,1.600000X1.600000*%
%ADD15C,1.600000*%
%ADD16R,1.800000X1.800000*%
%ADD17C,1.800000*%
%ADD18R,1.700000X1.700000*%
%ADD19O,1.700000X1.700000*%
%ADD20C,1.998980*%
%ADD21O,2.199640X1.501140*%
%ADD22O,1.501140X2.199640*%
%ADD23C,0.600000*%
%ADD24C,0.750000*%
%ADD25C,0.254000*%
G04 APERTURE END LIST*
D10*
D11*
X92887800Y-71577200D03*
X38150800Y-28016200D03*
D12*
X41071800Y-75078200D03*
D13*
X36071800Y-70072200D03*
X46071800Y-70072200D03*
X38571800Y-70072200D03*
X43571800Y-70072200D03*
D14*
X70916800Y-28778200D03*
D15*
X73416800Y-28778200D03*
D14*
X38785800Y-59004200D03*
D15*
X41285800Y-59004200D03*
D16*
X89712800Y-61290200D03*
D17*
X89712800Y-58750200D03*
D18*
X82600800Y-28778200D03*
D19*
X82600800Y-31318200D03*
D18*
X82727800Y-45796200D03*
D19*
X82727800Y-48336200D03*
D18*
X85140800Y-66370200D03*
D19*
X82600800Y-66370200D03*
X80060800Y-66370200D03*
X77520800Y-66370200D03*
D20*
X46659800Y-33858200D03*
X46659800Y-26238200D03*
X75361800Y-59766200D03*
X82981800Y-59766200D03*
X82981800Y-55067200D03*
X75361800Y-55067200D03*
X43660060Y-49184560D03*
X33657540Y-46685200D03*
X43660060Y-44185840D03*
D21*
X59232800Y-73355200D03*
X59232800Y-70815200D03*
X59232800Y-68275200D03*
X59232800Y-65735200D03*
X59232800Y-63195200D03*
X59232800Y-60655200D03*
X59232800Y-58115200D03*
X59232800Y-55575200D03*
X51612800Y-55575200D03*
X51612800Y-58115200D03*
X51612800Y-60655200D03*
X51612800Y-63195200D03*
X51612800Y-65735200D03*
X51612800Y-68275200D03*
X51612800Y-70815200D03*
X51612800Y-73355200D03*
D22*
X55168800Y-31826200D03*
X57708800Y-31826200D03*
X60248800Y-31826200D03*
X62788800Y-31826200D03*
X62788800Y-24206200D03*
X60248800Y-24206200D03*
X57708800Y-24206200D03*
X55168800Y-24206200D03*
X52120800Y-47447200D03*
X54660800Y-47447200D03*
X57200800Y-47447200D03*
X59740800Y-47447200D03*
X62280800Y-47447200D03*
X64820800Y-47447200D03*
X67360800Y-47447200D03*
X69900800Y-47447200D03*
X69900800Y-39827200D03*
X67360800Y-39827200D03*
X64820800Y-39827200D03*
X62280800Y-39827200D03*
X59740800Y-39827200D03*
X57200800Y-39827200D03*
X54660800Y-39827200D03*
X52120800Y-39827200D03*
D23*
X41706800Y-47066200D03*
X40436800Y-44145200D03*
X51231800Y-26492200D03*
X62026800Y-26492200D03*
X72948800Y-38430200D03*
X51739800Y-31572200D03*
X45008800Y-39573200D03*
X41833800Y-42748200D03*
X86537800Y-60909200D03*
X81838800Y-63576200D03*
X46278800Y-44780200D03*
X48056800Y-37795200D03*
X55422800Y-35255200D03*
X89077800Y-51130200D03*
X45897800Y-75006200D03*
X61645800Y-67005200D03*
X61645800Y-56845200D03*
X66090800Y-49860200D03*
X68630800Y-49860200D03*
X52755800Y-22936200D03*
X35610800Y-46558200D03*
X61010800Y-49860200D03*
X58470800Y-37414200D03*
X65201800Y-33096200D03*
X66852800Y-29667200D03*
X56692800Y-77038200D03*
X74726800Y-75260200D03*
X59867800Y-75768200D03*
X55168800Y-70561200D03*
X54025800Y-76784200D03*
X65455800Y-78435200D03*
X47675800Y-44272200D03*
X49199800Y-72085200D03*
X45262800Y-72847200D03*
X59994800Y-27889200D03*
X78282800Y-35636200D03*
X79425800Y-32715200D03*
X66598800Y-34112200D03*
X62661800Y-35255200D03*
X70154800Y-30810200D03*
X73456800Y-34112200D03*
X77266800Y-48844200D03*
X63042800Y-60528200D03*
X73837800Y-43002200D03*
X64693800Y-43383200D03*
X73329800Y-44399200D03*
X71170800Y-49860200D03*
X52882800Y-42621200D03*
X52120800Y-52146200D03*
X49707800Y-38557200D03*
X55168800Y-60782200D03*
D24*
X41706800Y-47066200D02*
X41706800Y-45415200D01*
X41706800Y-45415200D02*
X40436800Y-44145200D01*
X51231800Y-26492200D02*
X62026800Y-26492200D01*
X72948800Y-38430200D02*
X64439800Y-29921200D01*
X64439800Y-29921200D02*
X64439800Y-29794200D01*
X64439800Y-29794200D02*
X53517800Y-29794200D01*
X53517800Y-29794200D02*
X51739800Y-31572200D01*
X45008800Y-39573200D02*
X41833800Y-42748200D01*
X82981800Y-55067200D02*
X89204800Y-61290200D01*
X89204800Y-61290200D02*
X89712800Y-61290200D01*
X86537800Y-60909200D02*
X83870800Y-63576200D01*
X83870800Y-63576200D02*
X81838800Y-63576200D01*
X64820800Y-47447200D02*
X64820800Y-46431200D01*
X64820800Y-46431200D02*
X63931800Y-45542200D01*
X63931800Y-45542200D02*
X63931800Y-45415200D01*
X63931800Y-45415200D02*
X50469800Y-45415200D01*
X50469800Y-45415200D02*
X50342800Y-45542200D01*
X50342800Y-45542200D02*
X47040800Y-45542200D01*
X47040800Y-45542200D02*
X46278800Y-44780200D01*
X48056800Y-37795200D02*
X50596800Y-35255200D01*
X50596800Y-35255200D02*
X55422800Y-35255200D01*
X82727800Y-45796200D02*
X83489800Y-46558200D01*
X83489800Y-46558200D02*
X84505800Y-46558200D01*
X84505800Y-46558200D02*
X89077800Y-51130200D01*
X69900800Y-47447200D02*
X71551800Y-45796200D01*
X71551800Y-45796200D02*
X82727800Y-45796200D01*
X59232800Y-70815200D02*
X58343800Y-71704200D01*
X58343800Y-71704200D02*
X57200800Y-71704200D01*
X57200800Y-71704200D02*
X53898800Y-75006200D01*
X53898800Y-75006200D02*
X45897800Y-75006200D01*
X57708800Y-31826200D02*
X57708800Y-32842200D01*
X57708800Y-32842200D02*
X56819800Y-33731200D01*
X56819800Y-33731200D02*
X56819800Y-33858200D01*
X56819800Y-33858200D02*
X46659800Y-33858200D01*
X59232800Y-68275200D02*
X60121800Y-67386200D01*
X60121800Y-67386200D02*
X61264800Y-67386200D01*
X61264800Y-67386200D02*
X61645800Y-67005200D01*
X61645800Y-56845200D02*
X60375800Y-55575200D01*
X60375800Y-55575200D02*
X59232800Y-55575200D01*
X66090800Y-49860200D02*
X68630800Y-49860200D01*
X82600800Y-28778200D02*
X75996800Y-22174200D01*
X75996800Y-22174200D02*
X53517800Y-22174200D01*
X53517800Y-22174200D02*
X52755800Y-22936200D01*
X35610800Y-46558200D02*
X35610800Y-47828200D01*
X35610800Y-47828200D02*
X38912800Y-51130200D01*
X38912800Y-51130200D02*
X43865800Y-51130200D01*
X43865800Y-51130200D02*
X43992800Y-51003200D01*
X43992800Y-51003200D02*
X44373800Y-51003200D01*
X44373800Y-51003200D02*
X44500800Y-50876200D01*
X44500800Y-50876200D02*
X44627800Y-50876200D01*
X44627800Y-50876200D02*
X44754800Y-50749200D01*
X44754800Y-50749200D02*
X44881800Y-50749200D01*
X44881800Y-50749200D02*
X45770800Y-49860200D01*
X45770800Y-49860200D02*
X61010800Y-49860200D01*
X58470800Y-37414200D02*
X62026800Y-33858200D01*
X62026800Y-33858200D02*
X64439800Y-33858200D01*
X64439800Y-33858200D02*
X65201800Y-33096200D01*
X66852800Y-29667200D02*
X69265800Y-27254200D01*
X69265800Y-27254200D02*
X69265800Y-27127200D01*
X69265800Y-27127200D02*
X74091800Y-27127200D01*
X74091800Y-27127200D02*
X74218800Y-27254200D01*
X74218800Y-27254200D02*
X74345800Y-27254200D01*
X74345800Y-27254200D02*
X78409800Y-31318200D01*
X78409800Y-31318200D02*
X82600800Y-31318200D01*
X85140800Y-66370200D02*
X85140800Y-67386200D01*
X85140800Y-67386200D02*
X75488800Y-77038200D01*
X75488800Y-77038200D02*
X56692800Y-77038200D01*
X74726800Y-75260200D02*
X74218800Y-75768200D01*
X74218800Y-75768200D02*
X59867800Y-75768200D01*
X55168800Y-70561200D02*
X52882800Y-68275200D01*
X52882800Y-68275200D02*
X51612800Y-68275200D01*
X54025800Y-76784200D02*
X55676800Y-78435200D01*
X55676800Y-78435200D02*
X65455800Y-78435200D01*
X52120800Y-39827200D02*
X47675800Y-44272200D01*
X49199800Y-72085200D02*
X50469800Y-73355200D01*
X50469800Y-73355200D02*
X51612800Y-73355200D01*
X38571800Y-70072200D02*
X38531800Y-70053200D01*
X38531800Y-70053200D02*
X41325800Y-72847200D01*
X41325800Y-72847200D02*
X45262800Y-72847200D01*
X36071800Y-70072200D02*
X36118800Y-70053200D01*
X36118800Y-70053200D02*
X38531800Y-70053200D01*
X38531800Y-70053200D02*
X38571800Y-70072200D01*
X36118800Y-70053200D02*
X36071800Y-70072200D01*
X46659800Y-26238200D02*
X48310800Y-27889200D01*
X48310800Y-27889200D02*
X59994800Y-27889200D01*
X78282800Y-35636200D02*
X78282800Y-33858200D01*
X78282800Y-33858200D02*
X79425800Y-32715200D01*
X66598800Y-34112200D02*
X65455800Y-35255200D01*
X65455800Y-35255200D02*
X62661800Y-35255200D01*
X70154800Y-30810200D02*
X73456800Y-34112200D01*
X77266800Y-48844200D02*
X60375800Y-65735200D01*
X60375800Y-65735200D02*
X59232800Y-65735200D01*
X59232800Y-63195200D02*
X60121800Y-62306200D01*
X60121800Y-62306200D02*
X61264800Y-62306200D01*
X61264800Y-62306200D02*
X63042800Y-60528200D01*
X73837800Y-43002200D02*
X72694800Y-41859200D01*
X72694800Y-41859200D02*
X65709800Y-41859200D01*
X65709800Y-41859200D02*
X65709800Y-40716200D01*
X65709800Y-40716200D02*
X64820800Y-39827200D01*
X64693800Y-43383200D02*
X65709800Y-44399200D01*
X65709800Y-44399200D02*
X73329800Y-44399200D01*
X71170800Y-49860200D02*
X60375800Y-60655200D01*
X60375800Y-60655200D02*
X59232800Y-60655200D01*
X59740800Y-39827200D02*
X59740800Y-40970200D01*
X59740800Y-40970200D02*
X58089800Y-42621200D01*
X58089800Y-42621200D02*
X52882800Y-42621200D01*
X52120800Y-52146200D02*
X58089800Y-58115200D01*
X58089800Y-58115200D02*
X59232800Y-58115200D01*
X54660800Y-39827200D02*
X54660800Y-38811200D01*
X54660800Y-38811200D02*
X53771800Y-37922200D01*
X53771800Y-37922200D02*
X53771800Y-37795200D01*
X53771800Y-37795200D02*
X50469800Y-37795200D01*
X50469800Y-37795200D02*
X49707800Y-38557200D01*
X55168800Y-60782200D02*
X52755800Y-63195200D01*
X52755800Y-63195200D02*
X51612800Y-63195200D01*
D25*
G36*
X79558754Y-23311246D02*
X79789095Y-23465154D01*
X80060800Y-23519201D01*
X80060805Y-23519200D01*
X91958708Y-23519200D01*
X92812800Y-24373292D01*
X92812800Y-34453108D01*
X91750754Y-35515154D01*
X91596846Y-35745495D01*
X91542800Y-36017200D01*
X91542800Y-42240200D01*
X91596846Y-42511905D01*
X91750754Y-42742246D01*
X92812800Y-43804292D01*
X92812800Y-63697788D01*
X88794215Y-63830269D01*
X88745162Y-63841897D01*
X88704497Y-63871694D01*
X88678629Y-63914964D01*
X88671979Y-63945091D01*
X87473693Y-76455200D01*
X77500156Y-76455200D01*
X85854978Y-68100378D01*
X86013319Y-67863403D01*
X86226117Y-67823362D01*
X86442241Y-67684290D01*
X86587231Y-67472090D01*
X86638240Y-67220200D01*
X86638240Y-65520200D01*
X86593962Y-65284883D01*
X86454890Y-65068759D01*
X86242690Y-64923769D01*
X85990800Y-64872760D01*
X84290800Y-64872760D01*
X84055483Y-64917038D01*
X83839359Y-65056110D01*
X83694369Y-65268310D01*
X83680714Y-65335741D01*
X83650854Y-65291053D01*
X83169085Y-64969146D01*
X82600800Y-64856107D01*
X82032515Y-64969146D01*
X81550746Y-65291053D01*
X81330800Y-65620226D01*
X81110854Y-65291053D01*
X80629085Y-64969146D01*
X80060800Y-64856107D01*
X79492515Y-64969146D01*
X79010746Y-65291053D01*
X78790800Y-65620226D01*
X78570854Y-65291053D01*
X78089085Y-64969146D01*
X77520800Y-64856107D01*
X76952515Y-64969146D01*
X76470746Y-65291053D01*
X76148839Y-65772822D01*
X76035800Y-66341107D01*
X76035800Y-66399293D01*
X76148839Y-66967578D01*
X76470746Y-67449347D01*
X76952515Y-67771254D01*
X77520800Y-67884293D01*
X78089085Y-67771254D01*
X78570854Y-67449347D01*
X78790800Y-67120174D01*
X79010746Y-67449347D01*
X79492515Y-67771254D01*
X80060800Y-67884293D01*
X80629085Y-67771254D01*
X81110854Y-67449347D01*
X81330800Y-67120174D01*
X81550746Y-67449347D01*
X82032515Y-67771254D01*
X82600800Y-67884293D01*
X83169085Y-67771254D01*
X83646162Y-67452482D01*
X75711561Y-75387083D01*
X75736800Y-75260200D01*
X75659918Y-74873690D01*
X75440978Y-74546022D01*
X75113310Y-74327082D01*
X74726800Y-74250200D01*
X74340289Y-74327082D01*
X74012622Y-74546022D01*
X73800444Y-74758200D01*
X59867800Y-74758200D01*
X59481290Y-74835082D01*
X59153622Y-75054022D01*
X58934682Y-75381690D01*
X58857800Y-75768200D01*
X58909517Y-76028200D01*
X56692800Y-76028200D01*
X56306290Y-76105082D01*
X55978622Y-76324022D01*
X55759682Y-76651690D01*
X55687007Y-77017051D01*
X54739978Y-76070022D01*
X54414837Y-75852771D01*
X54612978Y-75720378D01*
X57619156Y-72714200D01*
X57643474Y-72714200D01*
X57569463Y-72824965D01*
X57463993Y-73355200D01*
X57569463Y-73885435D01*
X57869817Y-74334946D01*
X58319328Y-74635300D01*
X58849563Y-74740770D01*
X59616037Y-74740770D01*
X60146272Y-74635300D01*
X60595783Y-74334946D01*
X60896137Y-73885435D01*
X61001607Y-73355200D01*
X60896137Y-72824965D01*
X60595783Y-72375454D01*
X60161388Y-72085200D01*
X60595783Y-71794946D01*
X60896137Y-71345435D01*
X61001607Y-70815200D01*
X60896137Y-70284965D01*
X60595783Y-69835454D01*
X60161388Y-69545200D01*
X60595783Y-69254946D01*
X60896137Y-68805435D01*
X60977539Y-68396200D01*
X61264800Y-68396200D01*
X61651310Y-68319318D01*
X61978978Y-68100378D01*
X62359978Y-67719378D01*
X62578918Y-67391710D01*
X62655800Y-67005200D01*
X62578918Y-66618690D01*
X62359978Y-66291022D01*
X62032310Y-66072082D01*
X61645800Y-65995200D01*
X61518917Y-66020439D01*
X63963156Y-63576200D01*
X80828800Y-63576200D01*
X80905682Y-63962710D01*
X81124622Y-64290378D01*
X81452290Y-64509318D01*
X81838800Y-64586200D01*
X83870800Y-64586200D01*
X84257310Y-64509318D01*
X84584978Y-64290378D01*
X87251978Y-61623378D01*
X87470918Y-61295710D01*
X87522523Y-61036279D01*
X88165360Y-61679116D01*
X88165360Y-62190200D01*
X88209638Y-62425517D01*
X88348710Y-62641641D01*
X88560910Y-62786631D01*
X88812800Y-62837640D01*
X90612800Y-62837640D01*
X90848117Y-62793362D01*
X91064241Y-62654290D01*
X91209231Y-62442090D01*
X91260240Y-62190200D01*
X91260240Y-60390200D01*
X91215962Y-60154883D01*
X91076890Y-59938759D01*
X90864690Y-59793769D01*
X90844266Y-59789633D01*
X91013351Y-59620843D01*
X91247533Y-59056870D01*
X91248065Y-58446209D01*
X91014868Y-57881829D01*
X90583443Y-57449649D01*
X90019470Y-57215467D01*
X89408809Y-57214935D01*
X88844429Y-57448132D01*
X88412249Y-57879557D01*
X88178067Y-58443530D01*
X88177726Y-58834770D01*
X84616111Y-55273155D01*
X84616574Y-54743506D01*
X84368262Y-54142545D01*
X83908873Y-53682354D01*
X83308347Y-53432994D01*
X82658106Y-53432426D01*
X82057145Y-53680738D01*
X81596954Y-54140127D01*
X81347594Y-54740653D01*
X81347026Y-55390894D01*
X81595338Y-55991855D01*
X82054727Y-56452046D01*
X82655253Y-56701406D01*
X83188115Y-56701871D01*
X86410721Y-59924477D01*
X86151290Y-59976082D01*
X85823622Y-60195022D01*
X83452444Y-62566200D01*
X81838800Y-62566200D01*
X81452290Y-62643082D01*
X81124622Y-62862022D01*
X80905682Y-63189690D01*
X80828800Y-63576200D01*
X63963156Y-63576200D01*
X67449462Y-60089894D01*
X73727026Y-60089894D01*
X73975338Y-60690855D01*
X74434727Y-61151046D01*
X75035253Y-61400406D01*
X75685494Y-61400974D01*
X76286455Y-61152662D01*
X76746646Y-60693273D01*
X76996006Y-60092747D01*
X76996008Y-60089894D01*
X81347026Y-60089894D01*
X81595338Y-60690855D01*
X82054727Y-61151046D01*
X82655253Y-61400406D01*
X83305494Y-61400974D01*
X83906455Y-61152662D01*
X84366646Y-60693273D01*
X84616006Y-60092747D01*
X84616574Y-59442506D01*
X84368262Y-58841545D01*
X83908873Y-58381354D01*
X83308347Y-58131994D01*
X82658106Y-58131426D01*
X82057145Y-58379738D01*
X81596954Y-58839127D01*
X81347594Y-59439653D01*
X81347026Y-60089894D01*
X76996008Y-60089894D01*
X76996574Y-59442506D01*
X76748262Y-58841545D01*
X76288873Y-58381354D01*
X75688347Y-58131994D01*
X75038106Y-58131426D01*
X74437145Y-58379738D01*
X73976954Y-58839127D01*
X73727594Y-59439653D01*
X73727026Y-60089894D01*
X67449462Y-60089894D01*
X72148462Y-55390894D01*
X73727026Y-55390894D01*
X73975338Y-55991855D01*
X74434727Y-56452046D01*
X75035253Y-56701406D01*
X75685494Y-56701974D01*
X76286455Y-56453662D01*
X76746646Y-55994273D01*
X76996006Y-55393747D01*
X76996574Y-54743506D01*
X76748262Y-54142545D01*
X76288873Y-53682354D01*
X75688347Y-53432994D01*
X75038106Y-53432426D01*
X74437145Y-53680738D01*
X73976954Y-54140127D01*
X73727594Y-54740653D01*
X73727026Y-55390894D01*
X72148462Y-55390894D01*
X77980978Y-49558378D01*
X78199918Y-49230710D01*
X78276800Y-48844200D01*
X78199918Y-48457690D01*
X77980978Y-48130022D01*
X77653310Y-47911082D01*
X77266800Y-47834200D01*
X76880290Y-47911082D01*
X76552622Y-48130022D01*
X64027561Y-60655083D01*
X64052800Y-60528200D01*
X63975918Y-60141690D01*
X63756978Y-59814022D01*
X63429310Y-59595082D01*
X63042800Y-59518200D01*
X62915917Y-59543439D01*
X71884978Y-50574378D01*
X72103918Y-50246711D01*
X72180800Y-49860200D01*
X72103918Y-49473690D01*
X71884978Y-49146022D01*
X71557310Y-48927082D01*
X71170800Y-48850200D01*
X70784289Y-48927082D01*
X70456622Y-49146022D01*
X69615561Y-49987083D01*
X69640800Y-49860200D01*
X69563918Y-49473690D01*
X69344978Y-49146022D01*
X69017310Y-48927082D01*
X68630800Y-48850200D01*
X68280656Y-48850200D01*
X68340546Y-48810183D01*
X68630800Y-48375788D01*
X68921054Y-48810183D01*
X69370565Y-49110537D01*
X69900800Y-49216007D01*
X70431035Y-49110537D01*
X70880546Y-48810183D01*
X71180900Y-48360672D01*
X71286370Y-47830437D01*
X71286370Y-47489986D01*
X71970156Y-46806200D01*
X81260466Y-46806200D01*
X81274638Y-46881517D01*
X81413710Y-47097641D01*
X81625910Y-47242631D01*
X81693341Y-47256286D01*
X81648653Y-47286146D01*
X81326746Y-47767915D01*
X81213707Y-48336200D01*
X81326746Y-48904485D01*
X81648653Y-49386254D01*
X82130422Y-49708161D01*
X82698707Y-49821200D01*
X82756893Y-49821200D01*
X83325178Y-49708161D01*
X83806947Y-49386254D01*
X84128854Y-48904485D01*
X84241893Y-48336200D01*
X84128854Y-47767915D01*
X83995409Y-47568200D01*
X84087444Y-47568200D01*
X88363622Y-51844378D01*
X88691289Y-52063318D01*
X89077800Y-52140200D01*
X89464310Y-52063318D01*
X89791978Y-51844378D01*
X90010918Y-51516710D01*
X90087800Y-51130200D01*
X90010918Y-50743689D01*
X89791978Y-50416022D01*
X85219978Y-45844022D01*
X84892310Y-45625082D01*
X84505800Y-45548200D01*
X84225240Y-45548200D01*
X84225240Y-44946200D01*
X84180962Y-44710883D01*
X84041890Y-44494759D01*
X83829690Y-44349769D01*
X83577800Y-44298760D01*
X81877800Y-44298760D01*
X81642483Y-44343038D01*
X81426359Y-44482110D01*
X81281369Y-44694310D01*
X81262761Y-44786200D01*
X74262591Y-44786200D01*
X74262918Y-44785710D01*
X74339800Y-44399200D01*
X74262918Y-44012690D01*
X74212756Y-43937616D01*
X74224310Y-43935318D01*
X74551978Y-43716378D01*
X74770918Y-43388710D01*
X74847800Y-43002200D01*
X74770918Y-42615690D01*
X74551978Y-42288022D01*
X73408978Y-41145022D01*
X73081310Y-40926082D01*
X72694800Y-40849200D01*
X71111916Y-40849200D01*
X71132299Y-40824017D01*
X71137935Y-40804973D01*
X71180900Y-40740672D01*
X71229951Y-40494076D01*
X71286370Y-40303450D01*
X71286370Y-39350950D01*
X71229951Y-39160324D01*
X71180900Y-38913728D01*
X71137935Y-38849427D01*
X71132299Y-38830383D01*
X71091674Y-38780192D01*
X70880546Y-38464217D01*
X70431035Y-38163863D01*
X69900800Y-38058393D01*
X69370565Y-38163863D01*
X68921054Y-38464217D01*
X68709926Y-38780192D01*
X68669301Y-38830383D01*
X68663665Y-38849427D01*
X68630800Y-38898612D01*
X68340546Y-38464217D01*
X67891035Y-38163863D01*
X67360800Y-38058393D01*
X66830565Y-38163863D01*
X66381054Y-38464217D01*
X66090800Y-38898612D01*
X65800546Y-38464217D01*
X65351035Y-38163863D01*
X64820800Y-38058393D01*
X64290565Y-38163863D01*
X63841054Y-38464217D01*
X63550800Y-38898612D01*
X63260546Y-38464217D01*
X62811035Y-38163863D01*
X62280800Y-38058393D01*
X61750565Y-38163863D01*
X61301054Y-38464217D01*
X61010800Y-38898612D01*
X60720546Y-38464217D01*
X60271035Y-38163863D01*
X59740800Y-38058393D01*
X59210565Y-38163863D01*
X58761054Y-38464217D01*
X58470800Y-38898612D01*
X58180546Y-38464217D01*
X57731035Y-38163863D01*
X57200800Y-38058393D01*
X56670565Y-38163863D01*
X56221054Y-38464217D01*
X55930800Y-38898612D01*
X55640546Y-38464217D01*
X55595838Y-38434344D01*
X55593918Y-38424690D01*
X55374978Y-38097022D01*
X54709455Y-37431499D01*
X54704918Y-37408690D01*
X54485978Y-37081022D01*
X54158310Y-36862082D01*
X53771800Y-36785200D01*
X50495156Y-36785200D01*
X51015156Y-36265200D01*
X55422800Y-36265200D01*
X55809310Y-36188318D01*
X56136978Y-35969378D01*
X56355918Y-35641710D01*
X56432800Y-35255200D01*
X56355918Y-34868690D01*
X56355591Y-34868200D01*
X56819800Y-34868200D01*
X57206310Y-34791318D01*
X57533978Y-34572378D01*
X57752918Y-34244710D01*
X57757455Y-34221901D01*
X58422978Y-33556378D01*
X58641918Y-33228710D01*
X58643838Y-33219056D01*
X58688546Y-33189183D01*
X58978800Y-32754788D01*
X59269054Y-33189183D01*
X59718565Y-33489537D01*
X60248800Y-33595007D01*
X60779035Y-33489537D01*
X61228546Y-33189183D01*
X61518800Y-32754788D01*
X61634964Y-32928640D01*
X61312622Y-33144022D01*
X57756622Y-36700022D01*
X57537682Y-37027690D01*
X57460800Y-37414200D01*
X57537682Y-37800710D01*
X57756622Y-38128378D01*
X58084290Y-38347318D01*
X58470800Y-38424200D01*
X58857310Y-38347318D01*
X59184978Y-38128378D01*
X61719219Y-35594137D01*
X61728682Y-35641710D01*
X61947622Y-35969378D01*
X62275290Y-36188318D01*
X62661800Y-36265200D01*
X65455800Y-36265200D01*
X65842310Y-36188318D01*
X66169978Y-35969378D01*
X67312978Y-34826378D01*
X67531918Y-34498710D01*
X67541381Y-34451137D01*
X72234622Y-39144378D01*
X72562290Y-39363318D01*
X72948800Y-39440200D01*
X73335310Y-39363318D01*
X73662978Y-39144378D01*
X73881918Y-38816710D01*
X73958800Y-38430200D01*
X73881918Y-38043690D01*
X73662978Y-37716022D01*
X66567383Y-30620427D01*
X66852800Y-30677200D01*
X67239310Y-30600318D01*
X67566978Y-30381378D01*
X69469360Y-28478996D01*
X69469360Y-29578200D01*
X69513638Y-29813517D01*
X69618811Y-29976960D01*
X69440622Y-30096022D01*
X69221682Y-30423690D01*
X69144800Y-30810200D01*
X69221682Y-31196710D01*
X69440622Y-31524378D01*
X72742622Y-34826378D01*
X73070290Y-35045318D01*
X73456800Y-35122200D01*
X73843310Y-35045318D01*
X74170978Y-34826378D01*
X74389918Y-34498710D01*
X74466800Y-34112200D01*
X74389918Y-33725690D01*
X74170978Y-33398022D01*
X70998596Y-30225640D01*
X71716800Y-30225640D01*
X71952117Y-30181362D01*
X72168241Y-30042290D01*
X72313231Y-29830090D01*
X72334480Y-29725159D01*
X72602877Y-29994024D01*
X73130109Y-30212950D01*
X73700987Y-30213448D01*
X74228600Y-29995443D01*
X74632624Y-29592123D01*
X74815340Y-29152096D01*
X77695622Y-32032378D01*
X78023290Y-32251318D01*
X78388651Y-32323993D01*
X77568622Y-33144022D01*
X77349682Y-33471690D01*
X77272800Y-33858200D01*
X77272800Y-35636200D01*
X77349682Y-36022710D01*
X77568622Y-36350378D01*
X77896290Y-36569318D01*
X78282800Y-36646200D01*
X78669310Y-36569318D01*
X78996978Y-36350378D01*
X79215918Y-36022710D01*
X79292800Y-35636200D01*
X79292800Y-34276556D01*
X80139978Y-33429378D01*
X80358918Y-33101710D01*
X80435800Y-32715200D01*
X80358918Y-32328690D01*
X80358591Y-32328200D01*
X81494890Y-32328200D01*
X81521653Y-32368254D01*
X82003422Y-32690161D01*
X82571707Y-32803200D01*
X82629893Y-32803200D01*
X83198178Y-32690161D01*
X83679947Y-32368254D01*
X84001854Y-31886485D01*
X84114893Y-31318200D01*
X84001854Y-30749915D01*
X83679947Y-30268146D01*
X83638348Y-30240350D01*
X83686117Y-30231362D01*
X83902241Y-30092290D01*
X84047231Y-29880090D01*
X84098240Y-29628200D01*
X84098240Y-27928200D01*
X84053962Y-27692883D01*
X83914890Y-27476759D01*
X83702690Y-27331769D01*
X83450800Y-27280760D01*
X82531716Y-27280760D01*
X76710978Y-21460022D01*
X76383310Y-21241082D01*
X75996800Y-21164200D01*
X53517800Y-21164200D01*
X53131290Y-21241082D01*
X52803622Y-21460022D01*
X52041622Y-22222022D01*
X51822682Y-22549690D01*
X51745800Y-22936200D01*
X51822682Y-23322710D01*
X52041622Y-23650378D01*
X52369290Y-23869318D01*
X52755800Y-23946200D01*
X53142310Y-23869318D01*
X53469978Y-23650378D01*
X53936156Y-23184200D01*
X53961216Y-23184200D01*
X53888700Y-23292728D01*
X53783230Y-23822963D01*
X53783230Y-24589437D01*
X53888700Y-25119672D01*
X54130934Y-25482200D01*
X51231800Y-25482200D01*
X50845290Y-25559082D01*
X50517622Y-25778022D01*
X50298682Y-26105690D01*
X50221800Y-26492200D01*
X50298682Y-26878710D01*
X50299009Y-26879200D01*
X48729156Y-26879200D01*
X48294111Y-26444155D01*
X48294574Y-25914506D01*
X48046262Y-25313545D01*
X47586873Y-24853354D01*
X46986347Y-24603994D01*
X46336106Y-24603426D01*
X45735145Y-24851738D01*
X45274954Y-25311127D01*
X45025594Y-25911653D01*
X45025026Y-26561894D01*
X45273338Y-27162855D01*
X45732727Y-27623046D01*
X46333253Y-27872406D01*
X46866115Y-27872871D01*
X47596622Y-28603378D01*
X47924290Y-28822318D01*
X48310800Y-28899201D01*
X48310805Y-28899200D01*
X53074242Y-28899200D01*
X52803622Y-29080022D01*
X51025622Y-30858022D01*
X50806682Y-31185690D01*
X50729800Y-31572200D01*
X50806682Y-31958710D01*
X51025622Y-32286378D01*
X51353290Y-32505318D01*
X51739800Y-32582200D01*
X52126310Y-32505318D01*
X52453978Y-32286378D01*
X53936156Y-30804200D01*
X53961216Y-30804200D01*
X53888700Y-30912728D01*
X53783230Y-31442963D01*
X53783230Y-32209437D01*
X53888700Y-32739672D01*
X53961216Y-32848200D01*
X47961066Y-32848200D01*
X47586873Y-32473354D01*
X46986347Y-32223994D01*
X46336106Y-32223426D01*
X45735145Y-32471738D01*
X45274954Y-32931127D01*
X45025594Y-33531653D01*
X45025026Y-34181894D01*
X45273338Y-34782855D01*
X45732727Y-35243046D01*
X46333253Y-35492406D01*
X46983494Y-35492974D01*
X47584455Y-35244662D01*
X47961574Y-34868200D01*
X49555444Y-34868200D01*
X47342622Y-37081022D01*
X47123682Y-37408690D01*
X47046800Y-37795200D01*
X47123682Y-38181710D01*
X47342622Y-38509378D01*
X47670290Y-38728318D01*
X48056800Y-38805200D01*
X48443310Y-38728318D01*
X48697989Y-38558148D01*
X48774682Y-38943710D01*
X48993622Y-39271378D01*
X49321290Y-39490318D01*
X49707800Y-39567200D01*
X50094310Y-39490318D01*
X50421978Y-39271378D01*
X50888156Y-38805200D01*
X50913216Y-38805200D01*
X50840700Y-38913728D01*
X50735230Y-39443963D01*
X50735230Y-39784414D01*
X46961622Y-43558022D01*
X46742682Y-43885690D01*
X46740384Y-43897244D01*
X46665310Y-43847082D01*
X46278800Y-43770200D01*
X45892290Y-43847082D01*
X45564622Y-44066022D01*
X45345682Y-44393690D01*
X45268800Y-44780200D01*
X45345682Y-45166710D01*
X45564622Y-45494378D01*
X46326622Y-46256378D01*
X46654290Y-46475318D01*
X47040800Y-46552200D01*
X50342800Y-46552200D01*
X50729310Y-46475318D01*
X50804317Y-46425200D01*
X50913216Y-46425200D01*
X50840700Y-46533728D01*
X50735230Y-47063963D01*
X50735230Y-47830437D01*
X50840700Y-48360672D01*
X51141054Y-48810183D01*
X51200944Y-48850200D01*
X45770800Y-48850200D01*
X45384290Y-48927082D01*
X45294724Y-48986928D01*
X45294834Y-48860866D01*
X45046522Y-48259905D01*
X44587133Y-47799714D01*
X43986607Y-47550354D01*
X43336366Y-47549786D01*
X42735405Y-47798098D01*
X42275214Y-48257487D01*
X42025854Y-48858013D01*
X42025286Y-49508254D01*
X42273598Y-50109215D01*
X42284564Y-50120200D01*
X39331156Y-50120200D01*
X38532503Y-49321547D01*
X38668225Y-49320460D01*
X39180684Y-49320907D01*
X39191925Y-49316262D01*
X39204087Y-49316165D01*
X40133597Y-48931149D01*
X40136739Y-48925872D01*
X40149599Y-48920559D01*
X40891554Y-48179898D01*
X40898197Y-48163899D01*
X40904749Y-48159997D01*
X41044426Y-47814992D01*
X41320290Y-47999318D01*
X41706800Y-48076200D01*
X42093310Y-47999318D01*
X42420978Y-47780378D01*
X42639918Y-47452710D01*
X42716800Y-47066200D01*
X42716800Y-45554471D01*
X42732987Y-45570686D01*
X43333513Y-45820046D01*
X43983754Y-45820614D01*
X44584715Y-45572302D01*
X45044906Y-45112913D01*
X45294266Y-44512387D01*
X45294834Y-43862146D01*
X45046522Y-43261185D01*
X44587133Y-42800994D01*
X43986607Y-42551634D01*
X43459183Y-42551173D01*
X45722978Y-40287378D01*
X45941918Y-39959710D01*
X46018800Y-39573200D01*
X45941918Y-39186690D01*
X45722978Y-38859022D01*
X45395310Y-38640082D01*
X45008800Y-38563200D01*
X44622290Y-38640082D01*
X44294622Y-38859022D01*
X41119622Y-42034022D01*
X40900682Y-42361690D01*
X40823800Y-42748200D01*
X40900682Y-43134710D01*
X41056482Y-43367882D01*
X40823310Y-43212082D01*
X40436800Y-43135200D01*
X40050290Y-43212082D01*
X39722622Y-43431022D01*
X39503682Y-43758690D01*
X39426800Y-44145200D01*
X39427991Y-44151189D01*
X39185283Y-44050408D01*
X39173121Y-44050397D01*
X39161847Y-44045833D01*
X38649375Y-44049940D01*
X38136916Y-44049493D01*
X38125675Y-44054138D01*
X38113513Y-44054235D01*
X37184003Y-44439251D01*
X37180861Y-44444528D01*
X37168001Y-44449841D01*
X36426046Y-45190502D01*
X36419403Y-45206501D01*
X36412851Y-45210403D01*
X36220531Y-45685436D01*
X36191668Y-45754947D01*
X35997310Y-45625082D01*
X35610800Y-45548200D01*
X35224290Y-45625082D01*
X35035020Y-45751548D01*
X34584613Y-45300354D01*
X33984087Y-45050994D01*
X33333846Y-45050426D01*
X32732885Y-45298738D01*
X32272694Y-45758127D01*
X32023334Y-46358653D01*
X32022766Y-47008894D01*
X32271078Y-47609855D01*
X32730467Y-48070046D01*
X33330993Y-48319406D01*
X33981234Y-48319974D01*
X34582195Y-48071662D01*
X34638123Y-48015832D01*
X34677682Y-48214710D01*
X34896622Y-48542378D01*
X38198622Y-51844378D01*
X38526290Y-52063318D01*
X38912800Y-52140200D01*
X43865800Y-52140200D01*
X44252310Y-52063318D01*
X44327317Y-52013200D01*
X44373800Y-52013200D01*
X44760310Y-51936318D01*
X44923280Y-51827425D01*
X45014310Y-51809318D01*
X45177280Y-51700425D01*
X45268310Y-51682318D01*
X45595978Y-51463378D01*
X46189156Y-50870200D01*
X61010800Y-50870200D01*
X61397310Y-50793318D01*
X61724978Y-50574378D01*
X61943918Y-50246710D01*
X62020800Y-49860200D01*
X61943918Y-49473690D01*
X61724978Y-49146022D01*
X61397310Y-48927082D01*
X61010800Y-48850200D01*
X60660656Y-48850200D01*
X60720546Y-48810183D01*
X60931674Y-48494208D01*
X60972299Y-48444017D01*
X60977935Y-48424973D01*
X61010800Y-48375788D01*
X61301054Y-48810183D01*
X61750565Y-49110537D01*
X62280800Y-49216007D01*
X62811035Y-49110537D01*
X63260546Y-48810183D01*
X63550800Y-48375788D01*
X63841054Y-48810183D01*
X64290565Y-49110537D01*
X64820800Y-49216007D01*
X65351035Y-49110537D01*
X65800546Y-48810183D01*
X66090800Y-48375788D01*
X66381054Y-48810183D01*
X66440944Y-48850200D01*
X66090800Y-48850200D01*
X65704290Y-48927082D01*
X65376622Y-49146022D01*
X65157682Y-49473690D01*
X65080800Y-49860200D01*
X65157682Y-50246710D01*
X65376622Y-50574378D01*
X65704290Y-50793318D01*
X66090800Y-50870200D01*
X68630800Y-50870200D01*
X68757683Y-50844961D01*
X62630561Y-56972083D01*
X62655800Y-56845200D01*
X62578918Y-56458690D01*
X62359978Y-56131022D01*
X61089978Y-54861022D01*
X60762310Y-54642082D01*
X60606189Y-54611027D01*
X60595783Y-54595454D01*
X60146272Y-54295100D01*
X59616037Y-54189630D01*
X58849563Y-54189630D01*
X58319328Y-54295100D01*
X57869817Y-54595454D01*
X57569463Y-55044965D01*
X57463993Y-55575200D01*
X57569463Y-56105435D01*
X57692442Y-56289486D01*
X52834978Y-51432022D01*
X52507310Y-51213082D01*
X52120800Y-51136200D01*
X51734290Y-51213082D01*
X51406622Y-51432022D01*
X51187682Y-51759690D01*
X51110800Y-52146200D01*
X51187682Y-52532710D01*
X51406622Y-52860378D01*
X57375622Y-58829378D01*
X57703290Y-59048318D01*
X57859411Y-59079373D01*
X57869817Y-59094946D01*
X58304212Y-59385200D01*
X57869817Y-59675454D01*
X57569463Y-60124965D01*
X57463993Y-60655200D01*
X57569463Y-61185435D01*
X57869817Y-61634946D01*
X58304212Y-61925200D01*
X57869817Y-62215454D01*
X57569463Y-62664965D01*
X57463993Y-63195200D01*
X57569463Y-63725435D01*
X57869817Y-64174946D01*
X58304212Y-64465200D01*
X57869817Y-64755454D01*
X57569463Y-65204965D01*
X57463993Y-65735200D01*
X57569463Y-66265435D01*
X57869817Y-66714946D01*
X58304212Y-67005200D01*
X57869817Y-67295454D01*
X57569463Y-67744965D01*
X57463993Y-68275200D01*
X57569463Y-68805435D01*
X57869817Y-69254946D01*
X58304212Y-69545200D01*
X57869817Y-69835454D01*
X57569463Y-70284965D01*
X57488061Y-70694200D01*
X57200800Y-70694200D01*
X56814290Y-70771082D01*
X56486622Y-70990022D01*
X53480444Y-73996200D01*
X53202126Y-73996200D01*
X53276137Y-73885435D01*
X53381607Y-73355200D01*
X53276137Y-72824965D01*
X52975783Y-72375454D01*
X52541388Y-72085200D01*
X52975783Y-71794946D01*
X53276137Y-71345435D01*
X53381607Y-70815200D01*
X53276137Y-70284965D01*
X52975783Y-69835454D01*
X52541388Y-69545200D01*
X52651122Y-69471878D01*
X54454622Y-71275378D01*
X54782290Y-71494318D01*
X55168800Y-71571200D01*
X55555310Y-71494318D01*
X55882978Y-71275378D01*
X56101918Y-70947710D01*
X56178800Y-70561200D01*
X56101918Y-70174690D01*
X55882978Y-69847022D01*
X53596978Y-67561022D01*
X53269310Y-67342082D01*
X52950726Y-67278711D01*
X52541388Y-67005200D01*
X52590573Y-66972335D01*
X52609617Y-66966699D01*
X52659808Y-66926074D01*
X52975783Y-66714946D01*
X53276137Y-66265435D01*
X53381607Y-65735200D01*
X53276137Y-65204965D01*
X52975783Y-64755454D01*
X52659808Y-64544326D01*
X52609617Y-64503701D01*
X52590573Y-64498065D01*
X52541388Y-64465200D01*
X52975783Y-64174946D01*
X52986189Y-64159373D01*
X53142310Y-64128318D01*
X53469978Y-63909378D01*
X55882978Y-61496378D01*
X56101918Y-61168710D01*
X56178800Y-60782200D01*
X56101918Y-60395690D01*
X55882978Y-60068022D01*
X55555310Y-59849082D01*
X55168800Y-59772200D01*
X54782290Y-59849082D01*
X54454622Y-60068022D01*
X53153158Y-61369486D01*
X53276137Y-61185435D01*
X53381607Y-60655200D01*
X53276137Y-60124965D01*
X52975783Y-59675454D01*
X52541388Y-59385200D01*
X52975783Y-59094946D01*
X53276137Y-58645435D01*
X53381607Y-58115200D01*
X53276137Y-57584965D01*
X52975783Y-57135454D01*
X52541388Y-56845200D01*
X52975783Y-56554946D01*
X53276137Y-56105435D01*
X53381607Y-55575200D01*
X53276137Y-55044965D01*
X52975783Y-54595454D01*
X52526272Y-54295100D01*
X51996037Y-54189630D01*
X51229563Y-54189630D01*
X50699328Y-54295100D01*
X50249817Y-54595454D01*
X49949463Y-55044965D01*
X49843993Y-55575200D01*
X49949463Y-56105435D01*
X50249817Y-56554946D01*
X50684212Y-56845200D01*
X50249817Y-57135454D01*
X49949463Y-57584965D01*
X49843993Y-58115200D01*
X49949463Y-58645435D01*
X50249817Y-59094946D01*
X50684212Y-59385200D01*
X50249817Y-59675454D01*
X49949463Y-60124965D01*
X49843993Y-60655200D01*
X49949463Y-61185435D01*
X50249817Y-61634946D01*
X50684212Y-61925200D01*
X50249817Y-62215454D01*
X49949463Y-62664965D01*
X49843993Y-63195200D01*
X49949463Y-63725435D01*
X50249817Y-64174946D01*
X50684212Y-64465200D01*
X50635027Y-64498065D01*
X50615983Y-64503701D01*
X50565792Y-64544326D01*
X50249817Y-64755454D01*
X49949463Y-65204965D01*
X49843993Y-65735200D01*
X49949463Y-66265435D01*
X50249817Y-66714946D01*
X50565792Y-66926074D01*
X50615983Y-66966699D01*
X50635027Y-66972335D01*
X50684212Y-67005200D01*
X50249817Y-67295454D01*
X49949463Y-67744965D01*
X49843993Y-68275200D01*
X49949463Y-68805435D01*
X50249817Y-69254946D01*
X50684212Y-69545200D01*
X50249817Y-69835454D01*
X49949463Y-70284965D01*
X49843993Y-70815200D01*
X49949463Y-71345435D01*
X50072442Y-71529486D01*
X49913978Y-71371022D01*
X49586310Y-71152082D01*
X49199800Y-71075200D01*
X48813290Y-71152082D01*
X48485622Y-71371022D01*
X48266682Y-71698690D01*
X48189800Y-72085200D01*
X48266682Y-72471710D01*
X48485622Y-72799378D01*
X49682444Y-73996200D01*
X45897800Y-73996200D01*
X45511290Y-74073082D01*
X45183622Y-74292022D01*
X44964682Y-74619690D01*
X44887800Y-75006200D01*
X44964682Y-75392710D01*
X45183622Y-75720378D01*
X45511290Y-75939318D01*
X45897800Y-76016200D01*
X53392173Y-76016200D01*
X53311622Y-76070022D01*
X53092682Y-76397690D01*
X53015800Y-76784200D01*
X53092682Y-77170710D01*
X53311622Y-77498378D01*
X54962622Y-79149378D01*
X55290290Y-79368318D01*
X55676800Y-79445201D01*
X55676805Y-79445200D01*
X65455800Y-79445200D01*
X65842310Y-79368318D01*
X66169978Y-79149378D01*
X66388918Y-78821710D01*
X66465800Y-78435200D01*
X66388918Y-78048690D01*
X66388591Y-78048200D01*
X67759708Y-78048200D01*
X65542708Y-80265200D01*
X47421800Y-80265200D01*
X47150095Y-80319246D01*
X46919754Y-80473154D01*
X45984708Y-81408200D01*
X36666891Y-81408200D01*
X32383800Y-77125108D01*
X32383800Y-69150475D01*
X34561800Y-69150475D01*
X34561800Y-70993925D01*
X34676742Y-71571777D01*
X35004069Y-72061656D01*
X35493948Y-72388983D01*
X36071800Y-72503925D01*
X36649652Y-72388983D01*
X37139531Y-72061656D01*
X37321800Y-71788871D01*
X37504069Y-72061656D01*
X37993948Y-72388983D01*
X38571800Y-72503925D01*
X39149652Y-72388983D01*
X39323239Y-72272995D01*
X40231004Y-73180760D01*
X39321800Y-73180760D01*
X39086483Y-73225038D01*
X38870359Y-73364110D01*
X38725369Y-73576310D01*
X38674360Y-73828200D01*
X38674360Y-76328200D01*
X38718638Y-76563517D01*
X38857710Y-76779641D01*
X39069910Y-76924631D01*
X39321800Y-76975640D01*
X42821800Y-76975640D01*
X43057117Y-76931362D01*
X43273241Y-76792290D01*
X43418231Y-76580090D01*
X43469240Y-76328200D01*
X43469240Y-73857200D01*
X45262800Y-73857200D01*
X45649310Y-73780318D01*
X45976978Y-73561378D01*
X46195918Y-73233710D01*
X46272800Y-72847200D01*
X46199467Y-72478530D01*
X46649652Y-72388983D01*
X47139531Y-72061656D01*
X47466858Y-71571777D01*
X47581800Y-70993925D01*
X47581800Y-69150475D01*
X47466858Y-68572623D01*
X47139531Y-68082744D01*
X46649652Y-67755417D01*
X46071800Y-67640475D01*
X45493948Y-67755417D01*
X45004069Y-68082744D01*
X44821800Y-68355529D01*
X44639531Y-68082744D01*
X44149652Y-67755417D01*
X43571800Y-67640475D01*
X42993948Y-67755417D01*
X42504069Y-68082744D01*
X42176742Y-68572623D01*
X42061800Y-69150475D01*
X42061800Y-70993925D01*
X42176742Y-71571777D01*
X42354092Y-71837200D01*
X41744156Y-71837200D01*
X40081800Y-70174844D01*
X40081800Y-69150475D01*
X39966858Y-68572623D01*
X39639531Y-68082744D01*
X39149652Y-67755417D01*
X38571800Y-67640475D01*
X37993948Y-67755417D01*
X37504069Y-68082744D01*
X37321800Y-68355529D01*
X37139531Y-68082744D01*
X36649652Y-67755417D01*
X36071800Y-67640475D01*
X35493948Y-67755417D01*
X35004069Y-68082744D01*
X34676742Y-68572623D01*
X34561800Y-69150475D01*
X32383800Y-69150475D01*
X32383800Y-64632292D01*
X33953846Y-63062246D01*
X34107754Y-62831905D01*
X34161800Y-62560200D01*
X34161800Y-59512200D01*
X34107754Y-59240495D01*
X33953846Y-59010154D01*
X33147892Y-58204200D01*
X37338360Y-58204200D01*
X37338360Y-59804200D01*
X37382638Y-60039517D01*
X37521710Y-60255641D01*
X37733910Y-60400631D01*
X37985800Y-60451640D01*
X39585800Y-60451640D01*
X39821117Y-60407362D01*
X40037241Y-60268290D01*
X40182231Y-60056090D01*
X40203480Y-59951159D01*
X40471877Y-60220024D01*
X40999109Y-60438950D01*
X41569987Y-60439448D01*
X42097600Y-60221443D01*
X42501624Y-59818123D01*
X42720550Y-59290891D01*
X42721048Y-58720013D01*
X42503043Y-58192400D01*
X42099723Y-57788376D01*
X41572491Y-57569450D01*
X41001613Y-57568952D01*
X40474000Y-57786957D01*
X40205217Y-58055272D01*
X40188962Y-57968883D01*
X40049890Y-57752759D01*
X39837690Y-57607769D01*
X39585800Y-57556760D01*
X37985800Y-57556760D01*
X37750483Y-57601038D01*
X37534359Y-57740110D01*
X37389369Y-57952310D01*
X37338360Y-58204200D01*
X33147892Y-58204200D01*
X31748800Y-56805108D01*
X31748800Y-29326292D01*
X32438038Y-28637054D01*
X35015257Y-28637054D01*
X35016094Y-28639080D01*
X35016095Y-28641272D01*
X35383009Y-29527081D01*
X35491527Y-29789715D01*
X35491986Y-29790174D01*
X35492236Y-29790779D01*
X35493291Y-29791482D01*
X36372647Y-30672374D01*
X36375386Y-30673511D01*
X36376221Y-30674764D01*
X36950707Y-30912405D01*
X37524474Y-31150654D01*
X37526666Y-31150656D01*
X37528692Y-31151494D01*
X38150288Y-31151200D01*
X38771654Y-31151743D01*
X38773680Y-31150906D01*
X38775872Y-31150905D01*
X39661681Y-30783991D01*
X39924315Y-30675473D01*
X39924774Y-30675014D01*
X39925379Y-30674764D01*
X39926082Y-30673709D01*
X40806974Y-29794353D01*
X40808111Y-29791614D01*
X40809364Y-29790779D01*
X41047005Y-29216293D01*
X41285254Y-28642526D01*
X41285256Y-28640334D01*
X41286094Y-28638308D01*
X41285800Y-28016712D01*
X41286343Y-27395346D01*
X41285506Y-27393320D01*
X41285505Y-27391128D01*
X40918591Y-26505319D01*
X40810073Y-26242685D01*
X40809614Y-26242226D01*
X40809364Y-26241621D01*
X40808309Y-26240918D01*
X39928953Y-25360026D01*
X39926214Y-25358889D01*
X39925379Y-25357636D01*
X39350893Y-25119995D01*
X38777126Y-24881746D01*
X38774934Y-24881744D01*
X38772908Y-24880906D01*
X38151312Y-24881200D01*
X37529946Y-24880657D01*
X37527920Y-24881494D01*
X37525728Y-24881495D01*
X36639919Y-25248409D01*
X36377285Y-25356927D01*
X36376826Y-25357386D01*
X36376221Y-25357636D01*
X36375518Y-25358691D01*
X35494626Y-26238047D01*
X35493489Y-26240786D01*
X35492236Y-26241621D01*
X35254595Y-26816107D01*
X35016346Y-27389874D01*
X35016344Y-27392066D01*
X35015506Y-27394092D01*
X35015800Y-28015688D01*
X35015257Y-28637054D01*
X32438038Y-28637054D01*
X36666892Y-24408200D01*
X48183800Y-24408200D01*
X48455505Y-24354154D01*
X48685846Y-24200246D01*
X52033892Y-20852200D01*
X77099708Y-20852200D01*
X79558754Y-23311246D01*
X79558754Y-23311246D01*
G37*
X79558754Y-23311246D02*
X79789095Y-23465154D01*
X80060800Y-23519201D01*
X80060805Y-23519200D01*
X91958708Y-23519200D01*
X92812800Y-24373292D01*
X92812800Y-34453108D01*
X91750754Y-35515154D01*
X91596846Y-35745495D01*
X91542800Y-36017200D01*
X91542800Y-42240200D01*
X91596846Y-42511905D01*
X91750754Y-42742246D01*
X92812800Y-43804292D01*
X92812800Y-63697788D01*
X88794215Y-63830269D01*
X88745162Y-63841897D01*
X88704497Y-63871694D01*
X88678629Y-63914964D01*
X88671979Y-63945091D01*
X87473693Y-76455200D01*
X77500156Y-76455200D01*
X85854978Y-68100378D01*
X86013319Y-67863403D01*
X86226117Y-67823362D01*
X86442241Y-67684290D01*
X86587231Y-67472090D01*
X86638240Y-67220200D01*
X86638240Y-65520200D01*
X86593962Y-65284883D01*
X86454890Y-65068759D01*
X86242690Y-64923769D01*
X85990800Y-64872760D01*
X84290800Y-64872760D01*
X84055483Y-64917038D01*
X83839359Y-65056110D01*
X83694369Y-65268310D01*
X83680714Y-65335741D01*
X83650854Y-65291053D01*
X83169085Y-64969146D01*
X82600800Y-64856107D01*
X82032515Y-64969146D01*
X81550746Y-65291053D01*
X81330800Y-65620226D01*
X81110854Y-65291053D01*
X80629085Y-64969146D01*
X80060800Y-64856107D01*
X79492515Y-64969146D01*
X79010746Y-65291053D01*
X78790800Y-65620226D01*
X78570854Y-65291053D01*
X78089085Y-64969146D01*
X77520800Y-64856107D01*
X76952515Y-64969146D01*
X76470746Y-65291053D01*
X76148839Y-65772822D01*
X76035800Y-66341107D01*
X76035800Y-66399293D01*
X76148839Y-66967578D01*
X76470746Y-67449347D01*
X76952515Y-67771254D01*
X77520800Y-67884293D01*
X78089085Y-67771254D01*
X78570854Y-67449347D01*
X78790800Y-67120174D01*
X79010746Y-67449347D01*
X79492515Y-67771254D01*
X80060800Y-67884293D01*
X80629085Y-67771254D01*
X81110854Y-67449347D01*
X81330800Y-67120174D01*
X81550746Y-67449347D01*
X82032515Y-67771254D01*
X82600800Y-67884293D01*
X83169085Y-67771254D01*
X83646162Y-67452482D01*
X75711561Y-75387083D01*
X75736800Y-75260200D01*
X75659918Y-74873690D01*
X75440978Y-74546022D01*
X75113310Y-74327082D01*
X74726800Y-74250200D01*
X74340289Y-74327082D01*
X74012622Y-74546022D01*
X73800444Y-74758200D01*
X59867800Y-74758200D01*
X59481290Y-74835082D01*
X59153622Y-75054022D01*
X58934682Y-75381690D01*
X58857800Y-75768200D01*
X58909517Y-76028200D01*
X56692800Y-76028200D01*
X56306290Y-76105082D01*
X55978622Y-76324022D01*
X55759682Y-76651690D01*
X55687007Y-77017051D01*
X54739978Y-76070022D01*
X54414837Y-75852771D01*
X54612978Y-75720378D01*
X57619156Y-72714200D01*
X57643474Y-72714200D01*
X57569463Y-72824965D01*
X57463993Y-73355200D01*
X57569463Y-73885435D01*
X57869817Y-74334946D01*
X58319328Y-74635300D01*
X58849563Y-74740770D01*
X59616037Y-74740770D01*
X60146272Y-74635300D01*
X60595783Y-74334946D01*
X60896137Y-73885435D01*
X61001607Y-73355200D01*
X60896137Y-72824965D01*
X60595783Y-72375454D01*
X60161388Y-72085200D01*
X60595783Y-71794946D01*
X60896137Y-71345435D01*
X61001607Y-70815200D01*
X60896137Y-70284965D01*
X60595783Y-69835454D01*
X60161388Y-69545200D01*
X60595783Y-69254946D01*
X60896137Y-68805435D01*
X60977539Y-68396200D01*
X61264800Y-68396200D01*
X61651310Y-68319318D01*
X61978978Y-68100378D01*
X62359978Y-67719378D01*
X62578918Y-67391710D01*
X62655800Y-67005200D01*
X62578918Y-66618690D01*
X62359978Y-66291022D01*
X62032310Y-66072082D01*
X61645800Y-65995200D01*
X61518917Y-66020439D01*
X63963156Y-63576200D01*
X80828800Y-63576200D01*
X80905682Y-63962710D01*
X81124622Y-64290378D01*
X81452290Y-64509318D01*
X81838800Y-64586200D01*
X83870800Y-64586200D01*
X84257310Y-64509318D01*
X84584978Y-64290378D01*
X87251978Y-61623378D01*
X87470918Y-61295710D01*
X87522523Y-61036279D01*
X88165360Y-61679116D01*
X88165360Y-62190200D01*
X88209638Y-62425517D01*
X88348710Y-62641641D01*
X88560910Y-62786631D01*
X88812800Y-62837640D01*
X90612800Y-62837640D01*
X90848117Y-62793362D01*
X91064241Y-62654290D01*
X91209231Y-62442090D01*
X91260240Y-62190200D01*
X91260240Y-60390200D01*
X91215962Y-60154883D01*
X91076890Y-59938759D01*
X90864690Y-59793769D01*
X90844266Y-59789633D01*
X91013351Y-59620843D01*
X91247533Y-59056870D01*
X91248065Y-58446209D01*
X91014868Y-57881829D01*
X90583443Y-57449649D01*
X90019470Y-57215467D01*
X89408809Y-57214935D01*
X88844429Y-57448132D01*
X88412249Y-57879557D01*
X88178067Y-58443530D01*
X88177726Y-58834770D01*
X84616111Y-55273155D01*
X84616574Y-54743506D01*
X84368262Y-54142545D01*
X83908873Y-53682354D01*
X83308347Y-53432994D01*
X82658106Y-53432426D01*
X82057145Y-53680738D01*
X81596954Y-54140127D01*
X81347594Y-54740653D01*
X81347026Y-55390894D01*
X81595338Y-55991855D01*
X82054727Y-56452046D01*
X82655253Y-56701406D01*
X83188115Y-56701871D01*
X86410721Y-59924477D01*
X86151290Y-59976082D01*
X85823622Y-60195022D01*
X83452444Y-62566200D01*
X81838800Y-62566200D01*
X81452290Y-62643082D01*
X81124622Y-62862022D01*
X80905682Y-63189690D01*
X80828800Y-63576200D01*
X63963156Y-63576200D01*
X67449462Y-60089894D01*
X73727026Y-60089894D01*
X73975338Y-60690855D01*
X74434727Y-61151046D01*
X75035253Y-61400406D01*
X75685494Y-61400974D01*
X76286455Y-61152662D01*
X76746646Y-60693273D01*
X76996006Y-60092747D01*
X76996008Y-60089894D01*
X81347026Y-60089894D01*
X81595338Y-60690855D01*
X82054727Y-61151046D01*
X82655253Y-61400406D01*
X83305494Y-61400974D01*
X83906455Y-61152662D01*
X84366646Y-60693273D01*
X84616006Y-60092747D01*
X84616574Y-59442506D01*
X84368262Y-58841545D01*
X83908873Y-58381354D01*
X83308347Y-58131994D01*
X82658106Y-58131426D01*
X82057145Y-58379738D01*
X81596954Y-58839127D01*
X81347594Y-59439653D01*
X81347026Y-60089894D01*
X76996008Y-60089894D01*
X76996574Y-59442506D01*
X76748262Y-58841545D01*
X76288873Y-58381354D01*
X75688347Y-58131994D01*
X75038106Y-58131426D01*
X74437145Y-58379738D01*
X73976954Y-58839127D01*
X73727594Y-59439653D01*
X73727026Y-60089894D01*
X67449462Y-60089894D01*
X72148462Y-55390894D01*
X73727026Y-55390894D01*
X73975338Y-55991855D01*
X74434727Y-56452046D01*
X75035253Y-56701406D01*
X75685494Y-56701974D01*
X76286455Y-56453662D01*
X76746646Y-55994273D01*
X76996006Y-55393747D01*
X76996574Y-54743506D01*
X76748262Y-54142545D01*
X76288873Y-53682354D01*
X75688347Y-53432994D01*
X75038106Y-53432426D01*
X74437145Y-53680738D01*
X73976954Y-54140127D01*
X73727594Y-54740653D01*
X73727026Y-55390894D01*
X72148462Y-55390894D01*
X77980978Y-49558378D01*
X78199918Y-49230710D01*
X78276800Y-48844200D01*
X78199918Y-48457690D01*
X77980978Y-48130022D01*
X77653310Y-47911082D01*
X77266800Y-47834200D01*
X76880290Y-47911082D01*
X76552622Y-48130022D01*
X64027561Y-60655083D01*
X64052800Y-60528200D01*
X63975918Y-60141690D01*
X63756978Y-59814022D01*
X63429310Y-59595082D01*
X63042800Y-59518200D01*
X62915917Y-59543439D01*
X71884978Y-50574378D01*
X72103918Y-50246711D01*
X72180800Y-49860200D01*
X72103918Y-49473690D01*
X71884978Y-49146022D01*
X71557310Y-48927082D01*
X71170800Y-48850200D01*
X70784289Y-48927082D01*
X70456622Y-49146022D01*
X69615561Y-49987083D01*
X69640800Y-49860200D01*
X69563918Y-49473690D01*
X69344978Y-49146022D01*
X69017310Y-48927082D01*
X68630800Y-48850200D01*
X68280656Y-48850200D01*
X68340546Y-48810183D01*
X68630800Y-48375788D01*
X68921054Y-48810183D01*
X69370565Y-49110537D01*
X69900800Y-49216007D01*
X70431035Y-49110537D01*
X70880546Y-48810183D01*
X71180900Y-48360672D01*
X71286370Y-47830437D01*
X71286370Y-47489986D01*
X71970156Y-46806200D01*
X81260466Y-46806200D01*
X81274638Y-46881517D01*
X81413710Y-47097641D01*
X81625910Y-47242631D01*
X81693341Y-47256286D01*
X81648653Y-47286146D01*
X81326746Y-47767915D01*
X81213707Y-48336200D01*
X81326746Y-48904485D01*
X81648653Y-49386254D01*
X82130422Y-49708161D01*
X82698707Y-49821200D01*
X82756893Y-49821200D01*
X83325178Y-49708161D01*
X83806947Y-49386254D01*
X84128854Y-48904485D01*
X84241893Y-48336200D01*
X84128854Y-47767915D01*
X83995409Y-47568200D01*
X84087444Y-47568200D01*
X88363622Y-51844378D01*
X88691289Y-52063318D01*
X89077800Y-52140200D01*
X89464310Y-52063318D01*
X89791978Y-51844378D01*
X90010918Y-51516710D01*
X90087800Y-51130200D01*
X90010918Y-50743689D01*
X89791978Y-50416022D01*
X85219978Y-45844022D01*
X84892310Y-45625082D01*
X84505800Y-45548200D01*
X84225240Y-45548200D01*
X84225240Y-44946200D01*
X84180962Y-44710883D01*
X84041890Y-44494759D01*
X83829690Y-44349769D01*
X83577800Y-44298760D01*
X81877800Y-44298760D01*
X81642483Y-44343038D01*
X81426359Y-44482110D01*
X81281369Y-44694310D01*
X81262761Y-44786200D01*
X74262591Y-44786200D01*
X74262918Y-44785710D01*
X74339800Y-44399200D01*
X74262918Y-44012690D01*
X74212756Y-43937616D01*
X74224310Y-43935318D01*
X74551978Y-43716378D01*
X74770918Y-43388710D01*
X74847800Y-43002200D01*
X74770918Y-42615690D01*
X74551978Y-42288022D01*
X73408978Y-41145022D01*
X73081310Y-40926082D01*
X72694800Y-40849200D01*
X71111916Y-40849200D01*
X71132299Y-40824017D01*
X71137935Y-40804973D01*
X71180900Y-40740672D01*
X71229951Y-40494076D01*
X71286370Y-40303450D01*
X71286370Y-39350950D01*
X71229951Y-39160324D01*
X71180900Y-38913728D01*
X71137935Y-38849427D01*
X71132299Y-38830383D01*
X71091674Y-38780192D01*
X70880546Y-38464217D01*
X70431035Y-38163863D01*
X69900800Y-38058393D01*
X69370565Y-38163863D01*
X68921054Y-38464217D01*
X68709926Y-38780192D01*
X68669301Y-38830383D01*
X68663665Y-38849427D01*
X68630800Y-38898612D01*
X68340546Y-38464217D01*
X67891035Y-38163863D01*
X67360800Y-38058393D01*
X66830565Y-38163863D01*
X66381054Y-38464217D01*
X66090800Y-38898612D01*
X65800546Y-38464217D01*
X65351035Y-38163863D01*
X64820800Y-38058393D01*
X64290565Y-38163863D01*
X63841054Y-38464217D01*
X63550800Y-38898612D01*
X63260546Y-38464217D01*
X62811035Y-38163863D01*
X62280800Y-38058393D01*
X61750565Y-38163863D01*
X61301054Y-38464217D01*
X61010800Y-38898612D01*
X60720546Y-38464217D01*
X60271035Y-38163863D01*
X59740800Y-38058393D01*
X59210565Y-38163863D01*
X58761054Y-38464217D01*
X58470800Y-38898612D01*
X58180546Y-38464217D01*
X57731035Y-38163863D01*
X57200800Y-38058393D01*
X56670565Y-38163863D01*
X56221054Y-38464217D01*
X55930800Y-38898612D01*
X55640546Y-38464217D01*
X55595838Y-38434344D01*
X55593918Y-38424690D01*
X55374978Y-38097022D01*
X54709455Y-37431499D01*
X54704918Y-37408690D01*
X54485978Y-37081022D01*
X54158310Y-36862082D01*
X53771800Y-36785200D01*
X50495156Y-36785200D01*
X51015156Y-36265200D01*
X55422800Y-36265200D01*
X55809310Y-36188318D01*
X56136978Y-35969378D01*
X56355918Y-35641710D01*
X56432800Y-35255200D01*
X56355918Y-34868690D01*
X56355591Y-34868200D01*
X56819800Y-34868200D01*
X57206310Y-34791318D01*
X57533978Y-34572378D01*
X57752918Y-34244710D01*
X57757455Y-34221901D01*
X58422978Y-33556378D01*
X58641918Y-33228710D01*
X58643838Y-33219056D01*
X58688546Y-33189183D01*
X58978800Y-32754788D01*
X59269054Y-33189183D01*
X59718565Y-33489537D01*
X60248800Y-33595007D01*
X60779035Y-33489537D01*
X61228546Y-33189183D01*
X61518800Y-32754788D01*
X61634964Y-32928640D01*
X61312622Y-33144022D01*
X57756622Y-36700022D01*
X57537682Y-37027690D01*
X57460800Y-37414200D01*
X57537682Y-37800710D01*
X57756622Y-38128378D01*
X58084290Y-38347318D01*
X58470800Y-38424200D01*
X58857310Y-38347318D01*
X59184978Y-38128378D01*
X61719219Y-35594137D01*
X61728682Y-35641710D01*
X61947622Y-35969378D01*
X62275290Y-36188318D01*
X62661800Y-36265200D01*
X65455800Y-36265200D01*
X65842310Y-36188318D01*
X66169978Y-35969378D01*
X67312978Y-34826378D01*
X67531918Y-34498710D01*
X67541381Y-34451137D01*
X72234622Y-39144378D01*
X72562290Y-39363318D01*
X72948800Y-39440200D01*
X73335310Y-39363318D01*
X73662978Y-39144378D01*
X73881918Y-38816710D01*
X73958800Y-38430200D01*
X73881918Y-38043690D01*
X73662978Y-37716022D01*
X66567383Y-30620427D01*
X66852800Y-30677200D01*
X67239310Y-30600318D01*
X67566978Y-30381378D01*
X69469360Y-28478996D01*
X69469360Y-29578200D01*
X69513638Y-29813517D01*
X69618811Y-29976960D01*
X69440622Y-30096022D01*
X69221682Y-30423690D01*
X69144800Y-30810200D01*
X69221682Y-31196710D01*
X69440622Y-31524378D01*
X72742622Y-34826378D01*
X73070290Y-35045318D01*
X73456800Y-35122200D01*
X73843310Y-35045318D01*
X74170978Y-34826378D01*
X74389918Y-34498710D01*
X74466800Y-34112200D01*
X74389918Y-33725690D01*
X74170978Y-33398022D01*
X70998596Y-30225640D01*
X71716800Y-30225640D01*
X71952117Y-30181362D01*
X72168241Y-30042290D01*
X72313231Y-29830090D01*
X72334480Y-29725159D01*
X72602877Y-29994024D01*
X73130109Y-30212950D01*
X73700987Y-30213448D01*
X74228600Y-29995443D01*
X74632624Y-29592123D01*
X74815340Y-29152096D01*
X77695622Y-32032378D01*
X78023290Y-32251318D01*
X78388651Y-32323993D01*
X77568622Y-33144022D01*
X77349682Y-33471690D01*
X77272800Y-33858200D01*
X77272800Y-35636200D01*
X77349682Y-36022710D01*
X77568622Y-36350378D01*
X77896290Y-36569318D01*
X78282800Y-36646200D01*
X78669310Y-36569318D01*
X78996978Y-36350378D01*
X79215918Y-36022710D01*
X79292800Y-35636200D01*
X79292800Y-34276556D01*
X80139978Y-33429378D01*
X80358918Y-33101710D01*
X80435800Y-32715200D01*
X80358918Y-32328690D01*
X80358591Y-32328200D01*
X81494890Y-32328200D01*
X81521653Y-32368254D01*
X82003422Y-32690161D01*
X82571707Y-32803200D01*
X82629893Y-32803200D01*
X83198178Y-32690161D01*
X83679947Y-32368254D01*
X84001854Y-31886485D01*
X84114893Y-31318200D01*
X84001854Y-30749915D01*
X83679947Y-30268146D01*
X83638348Y-30240350D01*
X83686117Y-30231362D01*
X83902241Y-30092290D01*
X84047231Y-29880090D01*
X84098240Y-29628200D01*
X84098240Y-27928200D01*
X84053962Y-27692883D01*
X83914890Y-27476759D01*
X83702690Y-27331769D01*
X83450800Y-27280760D01*
X82531716Y-27280760D01*
X76710978Y-21460022D01*
X76383310Y-21241082D01*
X75996800Y-21164200D01*
X53517800Y-21164200D01*
X53131290Y-21241082D01*
X52803622Y-21460022D01*
X52041622Y-22222022D01*
X51822682Y-22549690D01*
X51745800Y-22936200D01*
X51822682Y-23322710D01*
X52041622Y-23650378D01*
X52369290Y-23869318D01*
X52755800Y-23946200D01*
X53142310Y-23869318D01*
X53469978Y-23650378D01*
X53936156Y-23184200D01*
X53961216Y-23184200D01*
X53888700Y-23292728D01*
X53783230Y-23822963D01*
X53783230Y-24589437D01*
X53888700Y-25119672D01*
X54130934Y-25482200D01*
X51231800Y-25482200D01*
X50845290Y-25559082D01*
X50517622Y-25778022D01*
X50298682Y-26105690D01*
X50221800Y-26492200D01*
X50298682Y-26878710D01*
X50299009Y-26879200D01*
X48729156Y-26879200D01*
X48294111Y-26444155D01*
X48294574Y-25914506D01*
X48046262Y-25313545D01*
X47586873Y-24853354D01*
X46986347Y-24603994D01*
X46336106Y-24603426D01*
X45735145Y-24851738D01*
X45274954Y-25311127D01*
X45025594Y-25911653D01*
X45025026Y-26561894D01*
X45273338Y-27162855D01*
X45732727Y-27623046D01*
X46333253Y-27872406D01*
X46866115Y-27872871D01*
X47596622Y-28603378D01*
X47924290Y-28822318D01*
X48310800Y-28899201D01*
X48310805Y-28899200D01*
X53074242Y-28899200D01*
X52803622Y-29080022D01*
X51025622Y-30858022D01*
X50806682Y-31185690D01*
X50729800Y-31572200D01*
X50806682Y-31958710D01*
X51025622Y-32286378D01*
X51353290Y-32505318D01*
X51739800Y-32582200D01*
X52126310Y-32505318D01*
X52453978Y-32286378D01*
X53936156Y-30804200D01*
X53961216Y-30804200D01*
X53888700Y-30912728D01*
X53783230Y-31442963D01*
X53783230Y-32209437D01*
X53888700Y-32739672D01*
X53961216Y-32848200D01*
X47961066Y-32848200D01*
X47586873Y-32473354D01*
X46986347Y-32223994D01*
X46336106Y-32223426D01*
X45735145Y-32471738D01*
X45274954Y-32931127D01*
X45025594Y-33531653D01*
X45025026Y-34181894D01*
X45273338Y-34782855D01*
X45732727Y-35243046D01*
X46333253Y-35492406D01*
X46983494Y-35492974D01*
X47584455Y-35244662D01*
X47961574Y-34868200D01*
X49555444Y-34868200D01*
X47342622Y-37081022D01*
X47123682Y-37408690D01*
X47046800Y-37795200D01*
X47123682Y-38181710D01*
X47342622Y-38509378D01*
X47670290Y-38728318D01*
X48056800Y-38805200D01*
X48443310Y-38728318D01*
X48697989Y-38558148D01*
X48774682Y-38943710D01*
X48993622Y-39271378D01*
X49321290Y-39490318D01*
X49707800Y-39567200D01*
X50094310Y-39490318D01*
X50421978Y-39271378D01*
X50888156Y-38805200D01*
X50913216Y-38805200D01*
X50840700Y-38913728D01*
X50735230Y-39443963D01*
X50735230Y-39784414D01*
X46961622Y-43558022D01*
X46742682Y-43885690D01*
X46740384Y-43897244D01*
X46665310Y-43847082D01*
X46278800Y-43770200D01*
X45892290Y-43847082D01*
X45564622Y-44066022D01*
X45345682Y-44393690D01*
X45268800Y-44780200D01*
X45345682Y-45166710D01*
X45564622Y-45494378D01*
X46326622Y-46256378D01*
X46654290Y-46475318D01*
X47040800Y-46552200D01*
X50342800Y-46552200D01*
X50729310Y-46475318D01*
X50804317Y-46425200D01*
X50913216Y-46425200D01*
X50840700Y-46533728D01*
X50735230Y-47063963D01*
X50735230Y-47830437D01*
X50840700Y-48360672D01*
X51141054Y-48810183D01*
X51200944Y-48850200D01*
X45770800Y-48850200D01*
X45384290Y-48927082D01*
X45294724Y-48986928D01*
X45294834Y-48860866D01*
X45046522Y-48259905D01*
X44587133Y-47799714D01*
X43986607Y-47550354D01*
X43336366Y-47549786D01*
X42735405Y-47798098D01*
X42275214Y-48257487D01*
X42025854Y-48858013D01*
X42025286Y-49508254D01*
X42273598Y-50109215D01*
X42284564Y-50120200D01*
X39331156Y-50120200D01*
X38532503Y-49321547D01*
X38668225Y-49320460D01*
X39180684Y-49320907D01*
X39191925Y-49316262D01*
X39204087Y-49316165D01*
X40133597Y-48931149D01*
X40136739Y-48925872D01*
X40149599Y-48920559D01*
X40891554Y-48179898D01*
X40898197Y-48163899D01*
X40904749Y-48159997D01*
X41044426Y-47814992D01*
X41320290Y-47999318D01*
X41706800Y-48076200D01*
X42093310Y-47999318D01*
X42420978Y-47780378D01*
X42639918Y-47452710D01*
X42716800Y-47066200D01*
X42716800Y-45554471D01*
X42732987Y-45570686D01*
X43333513Y-45820046D01*
X43983754Y-45820614D01*
X44584715Y-45572302D01*
X45044906Y-45112913D01*
X45294266Y-44512387D01*
X45294834Y-43862146D01*
X45046522Y-43261185D01*
X44587133Y-42800994D01*
X43986607Y-42551634D01*
X43459183Y-42551173D01*
X45722978Y-40287378D01*
X45941918Y-39959710D01*
X46018800Y-39573200D01*
X45941918Y-39186690D01*
X45722978Y-38859022D01*
X45395310Y-38640082D01*
X45008800Y-38563200D01*
X44622290Y-38640082D01*
X44294622Y-38859022D01*
X41119622Y-42034022D01*
X40900682Y-42361690D01*
X40823800Y-42748200D01*
X40900682Y-43134710D01*
X41056482Y-43367882D01*
X40823310Y-43212082D01*
X40436800Y-43135200D01*
X40050290Y-43212082D01*
X39722622Y-43431022D01*
X39503682Y-43758690D01*
X39426800Y-44145200D01*
X39427991Y-44151189D01*
X39185283Y-44050408D01*
X39173121Y-44050397D01*
X39161847Y-44045833D01*
X38649375Y-44049940D01*
X38136916Y-44049493D01*
X38125675Y-44054138D01*
X38113513Y-44054235D01*
X37184003Y-44439251D01*
X37180861Y-44444528D01*
X37168001Y-44449841D01*
X36426046Y-45190502D01*
X36419403Y-45206501D01*
X36412851Y-45210403D01*
X36220531Y-45685436D01*
X36191668Y-45754947D01*
X35997310Y-45625082D01*
X35610800Y-45548200D01*
X35224290Y-45625082D01*
X35035020Y-45751548D01*
X34584613Y-45300354D01*
X33984087Y-45050994D01*
X33333846Y-45050426D01*
X32732885Y-45298738D01*
X32272694Y-45758127D01*
X32023334Y-46358653D01*
X32022766Y-47008894D01*
X32271078Y-47609855D01*
X32730467Y-48070046D01*
X33330993Y-48319406D01*
X33981234Y-48319974D01*
X34582195Y-48071662D01*
X34638123Y-48015832D01*
X34677682Y-48214710D01*
X34896622Y-48542378D01*
X38198622Y-51844378D01*
X38526290Y-52063318D01*
X38912800Y-52140200D01*
X43865800Y-52140200D01*
X44252310Y-52063318D01*
X44327317Y-52013200D01*
X44373800Y-52013200D01*
X44760310Y-51936318D01*
X44923280Y-51827425D01*
X45014310Y-51809318D01*
X45177280Y-51700425D01*
X45268310Y-51682318D01*
X45595978Y-51463378D01*
X46189156Y-50870200D01*
X61010800Y-50870200D01*
X61397310Y-50793318D01*
X61724978Y-50574378D01*
X61943918Y-50246710D01*
X62020800Y-49860200D01*
X61943918Y-49473690D01*
X61724978Y-49146022D01*
X61397310Y-48927082D01*
X61010800Y-48850200D01*
X60660656Y-48850200D01*
X60720546Y-48810183D01*
X60931674Y-48494208D01*
X60972299Y-48444017D01*
X60977935Y-48424973D01*
X61010800Y-48375788D01*
X61301054Y-48810183D01*
X61750565Y-49110537D01*
X62280800Y-49216007D01*
X62811035Y-49110537D01*
X63260546Y-48810183D01*
X63550800Y-48375788D01*
X63841054Y-48810183D01*
X64290565Y-49110537D01*
X64820800Y-49216007D01*
X65351035Y-49110537D01*
X65800546Y-48810183D01*
X66090800Y-48375788D01*
X66381054Y-48810183D01*
X66440944Y-48850200D01*
X66090800Y-48850200D01*
X65704290Y-48927082D01*
X65376622Y-49146022D01*
X65157682Y-49473690D01*
X65080800Y-49860200D01*
X65157682Y-50246710D01*
X65376622Y-50574378D01*
X65704290Y-50793318D01*
X66090800Y-50870200D01*
X68630800Y-50870200D01*
X68757683Y-50844961D01*
X62630561Y-56972083D01*
X62655800Y-56845200D01*
X62578918Y-56458690D01*
X62359978Y-56131022D01*
X61089978Y-54861022D01*
X60762310Y-54642082D01*
X60606189Y-54611027D01*
X60595783Y-54595454D01*
X60146272Y-54295100D01*
X59616037Y-54189630D01*
X58849563Y-54189630D01*
X58319328Y-54295100D01*
X57869817Y-54595454D01*
X57569463Y-55044965D01*
X57463993Y-55575200D01*
X57569463Y-56105435D01*
X57692442Y-56289486D01*
X52834978Y-51432022D01*
X52507310Y-51213082D01*
X52120800Y-51136200D01*
X51734290Y-51213082D01*
X51406622Y-51432022D01*
X51187682Y-51759690D01*
X51110800Y-52146200D01*
X51187682Y-52532710D01*
X51406622Y-52860378D01*
X57375622Y-58829378D01*
X57703290Y-59048318D01*
X57859411Y-59079373D01*
X57869817Y-59094946D01*
X58304212Y-59385200D01*
X57869817Y-59675454D01*
X57569463Y-60124965D01*
X57463993Y-60655200D01*
X57569463Y-61185435D01*
X57869817Y-61634946D01*
X58304212Y-61925200D01*
X57869817Y-62215454D01*
X57569463Y-62664965D01*
X57463993Y-63195200D01*
X57569463Y-63725435D01*
X57869817Y-64174946D01*
X58304212Y-64465200D01*
X57869817Y-64755454D01*
X57569463Y-65204965D01*
X57463993Y-65735200D01*
X57569463Y-66265435D01*
X57869817Y-66714946D01*
X58304212Y-67005200D01*
X57869817Y-67295454D01*
X57569463Y-67744965D01*
X57463993Y-68275200D01*
X57569463Y-68805435D01*
X57869817Y-69254946D01*
X58304212Y-69545200D01*
X57869817Y-69835454D01*
X57569463Y-70284965D01*
X57488061Y-70694200D01*
X57200800Y-70694200D01*
X56814290Y-70771082D01*
X56486622Y-70990022D01*
X53480444Y-73996200D01*
X53202126Y-73996200D01*
X53276137Y-73885435D01*
X53381607Y-73355200D01*
X53276137Y-72824965D01*
X52975783Y-72375454D01*
X52541388Y-72085200D01*
X52975783Y-71794946D01*
X53276137Y-71345435D01*
X53381607Y-70815200D01*
X53276137Y-70284965D01*
X52975783Y-69835454D01*
X52541388Y-69545200D01*
X52651122Y-69471878D01*
X54454622Y-71275378D01*
X54782290Y-71494318D01*
X55168800Y-71571200D01*
X55555310Y-71494318D01*
X55882978Y-71275378D01*
X56101918Y-70947710D01*
X56178800Y-70561200D01*
X56101918Y-70174690D01*
X55882978Y-69847022D01*
X53596978Y-67561022D01*
X53269310Y-67342082D01*
X52950726Y-67278711D01*
X52541388Y-67005200D01*
X52590573Y-66972335D01*
X52609617Y-66966699D01*
X52659808Y-66926074D01*
X52975783Y-66714946D01*
X53276137Y-66265435D01*
X53381607Y-65735200D01*
X53276137Y-65204965D01*
X52975783Y-64755454D01*
X52659808Y-64544326D01*
X52609617Y-64503701D01*
X52590573Y-64498065D01*
X52541388Y-64465200D01*
X52975783Y-64174946D01*
X52986189Y-64159373D01*
X53142310Y-64128318D01*
X53469978Y-63909378D01*
X55882978Y-61496378D01*
X56101918Y-61168710D01*
X56178800Y-60782200D01*
X56101918Y-60395690D01*
X55882978Y-60068022D01*
X55555310Y-59849082D01*
X55168800Y-59772200D01*
X54782290Y-59849082D01*
X54454622Y-60068022D01*
X53153158Y-61369486D01*
X53276137Y-61185435D01*
X53381607Y-60655200D01*
X53276137Y-60124965D01*
X52975783Y-59675454D01*
X52541388Y-59385200D01*
X52975783Y-59094946D01*
X53276137Y-58645435D01*
X53381607Y-58115200D01*
X53276137Y-57584965D01*
X52975783Y-57135454D01*
X52541388Y-56845200D01*
X52975783Y-56554946D01*
X53276137Y-56105435D01*
X53381607Y-55575200D01*
X53276137Y-55044965D01*
X52975783Y-54595454D01*
X52526272Y-54295100D01*
X51996037Y-54189630D01*
X51229563Y-54189630D01*
X50699328Y-54295100D01*
X50249817Y-54595454D01*
X49949463Y-55044965D01*
X49843993Y-55575200D01*
X49949463Y-56105435D01*
X50249817Y-56554946D01*
X50684212Y-56845200D01*
X50249817Y-57135454D01*
X49949463Y-57584965D01*
X49843993Y-58115200D01*
X49949463Y-58645435D01*
X50249817Y-59094946D01*
X50684212Y-59385200D01*
X50249817Y-59675454D01*
X49949463Y-60124965D01*
X49843993Y-60655200D01*
X49949463Y-61185435D01*
X50249817Y-61634946D01*
X50684212Y-61925200D01*
X50249817Y-62215454D01*
X49949463Y-62664965D01*
X49843993Y-63195200D01*
X49949463Y-63725435D01*
X50249817Y-64174946D01*
X50684212Y-64465200D01*
X50635027Y-64498065D01*
X50615983Y-64503701D01*
X50565792Y-64544326D01*
X50249817Y-64755454D01*
X49949463Y-65204965D01*
X49843993Y-65735200D01*
X49949463Y-66265435D01*
X50249817Y-66714946D01*
X50565792Y-66926074D01*
X50615983Y-66966699D01*
X50635027Y-66972335D01*
X50684212Y-67005200D01*
X50249817Y-67295454D01*
X49949463Y-67744965D01*
X49843993Y-68275200D01*
X49949463Y-68805435D01*
X50249817Y-69254946D01*
X50684212Y-69545200D01*
X50249817Y-69835454D01*
X49949463Y-70284965D01*
X49843993Y-70815200D01*
X49949463Y-71345435D01*
X50072442Y-71529486D01*
X49913978Y-71371022D01*
X49586310Y-71152082D01*
X49199800Y-71075200D01*
X48813290Y-71152082D01*
X48485622Y-71371022D01*
X48266682Y-71698690D01*
X48189800Y-72085200D01*
X48266682Y-72471710D01*
X48485622Y-72799378D01*
X49682444Y-73996200D01*
X45897800Y-73996200D01*
X45511290Y-74073082D01*
X45183622Y-74292022D01*
X44964682Y-74619690D01*
X44887800Y-75006200D01*
X44964682Y-75392710D01*
X45183622Y-75720378D01*
X45511290Y-75939318D01*
X45897800Y-76016200D01*
X53392173Y-76016200D01*
X53311622Y-76070022D01*
X53092682Y-76397690D01*
X53015800Y-76784200D01*
X53092682Y-77170710D01*
X53311622Y-77498378D01*
X54962622Y-79149378D01*
X55290290Y-79368318D01*
X55676800Y-79445201D01*
X55676805Y-79445200D01*
X65455800Y-79445200D01*
X65842310Y-79368318D01*
X66169978Y-79149378D01*
X66388918Y-78821710D01*
X66465800Y-78435200D01*
X66388918Y-78048690D01*
X66388591Y-78048200D01*
X67759708Y-78048200D01*
X65542708Y-80265200D01*
X47421800Y-80265200D01*
X47150095Y-80319246D01*
X46919754Y-80473154D01*
X45984708Y-81408200D01*
X36666891Y-81408200D01*
X32383800Y-77125108D01*
X32383800Y-69150475D01*
X34561800Y-69150475D01*
X34561800Y-70993925D01*
X34676742Y-71571777D01*
X35004069Y-72061656D01*
X35493948Y-72388983D01*
X36071800Y-72503925D01*
X36649652Y-72388983D01*
X37139531Y-72061656D01*
X37321800Y-71788871D01*
X37504069Y-72061656D01*
X37993948Y-72388983D01*
X38571800Y-72503925D01*
X39149652Y-72388983D01*
X39323239Y-72272995D01*
X40231004Y-73180760D01*
X39321800Y-73180760D01*
X39086483Y-73225038D01*
X38870359Y-73364110D01*
X38725369Y-73576310D01*
X38674360Y-73828200D01*
X38674360Y-76328200D01*
X38718638Y-76563517D01*
X38857710Y-76779641D01*
X39069910Y-76924631D01*
X39321800Y-76975640D01*
X42821800Y-76975640D01*
X43057117Y-76931362D01*
X43273241Y-76792290D01*
X43418231Y-76580090D01*
X43469240Y-76328200D01*
X43469240Y-73857200D01*
X45262800Y-73857200D01*
X45649310Y-73780318D01*
X45976978Y-73561378D01*
X46195918Y-73233710D01*
X46272800Y-72847200D01*
X46199467Y-72478530D01*
X46649652Y-72388983D01*
X47139531Y-72061656D01*
X47466858Y-71571777D01*
X47581800Y-70993925D01*
X47581800Y-69150475D01*
X47466858Y-68572623D01*
X47139531Y-68082744D01*
X46649652Y-67755417D01*
X46071800Y-67640475D01*
X45493948Y-67755417D01*
X45004069Y-68082744D01*
X44821800Y-68355529D01*
X44639531Y-68082744D01*
X44149652Y-67755417D01*
X43571800Y-67640475D01*
X42993948Y-67755417D01*
X42504069Y-68082744D01*
X42176742Y-68572623D01*
X42061800Y-69150475D01*
X42061800Y-70993925D01*
X42176742Y-71571777D01*
X42354092Y-71837200D01*
X41744156Y-71837200D01*
X40081800Y-70174844D01*
X40081800Y-69150475D01*
X39966858Y-68572623D01*
X39639531Y-68082744D01*
X39149652Y-67755417D01*
X38571800Y-67640475D01*
X37993948Y-67755417D01*
X37504069Y-68082744D01*
X37321800Y-68355529D01*
X37139531Y-68082744D01*
X36649652Y-67755417D01*
X36071800Y-67640475D01*
X35493948Y-67755417D01*
X35004069Y-68082744D01*
X34676742Y-68572623D01*
X34561800Y-69150475D01*
X32383800Y-69150475D01*
X32383800Y-64632292D01*
X33953846Y-63062246D01*
X34107754Y-62831905D01*
X34161800Y-62560200D01*
X34161800Y-59512200D01*
X34107754Y-59240495D01*
X33953846Y-59010154D01*
X33147892Y-58204200D01*
X37338360Y-58204200D01*
X37338360Y-59804200D01*
X37382638Y-60039517D01*
X37521710Y-60255641D01*
X37733910Y-60400631D01*
X37985800Y-60451640D01*
X39585800Y-60451640D01*
X39821117Y-60407362D01*
X40037241Y-60268290D01*
X40182231Y-60056090D01*
X40203480Y-59951159D01*
X40471877Y-60220024D01*
X40999109Y-60438950D01*
X41569987Y-60439448D01*
X42097600Y-60221443D01*
X42501624Y-59818123D01*
X42720550Y-59290891D01*
X42721048Y-58720013D01*
X42503043Y-58192400D01*
X42099723Y-57788376D01*
X41572491Y-57569450D01*
X41001613Y-57568952D01*
X40474000Y-57786957D01*
X40205217Y-58055272D01*
X40188962Y-57968883D01*
X40049890Y-57752759D01*
X39837690Y-57607769D01*
X39585800Y-57556760D01*
X37985800Y-57556760D01*
X37750483Y-57601038D01*
X37534359Y-57740110D01*
X37389369Y-57952310D01*
X37338360Y-58204200D01*
X33147892Y-58204200D01*
X31748800Y-56805108D01*
X31748800Y-29326292D01*
X32438038Y-28637054D01*
X35015257Y-28637054D01*
X35016094Y-28639080D01*
X35016095Y-28641272D01*
X35383009Y-29527081D01*
X35491527Y-29789715D01*
X35491986Y-29790174D01*
X35492236Y-29790779D01*
X35493291Y-29791482D01*
X36372647Y-30672374D01*
X36375386Y-30673511D01*
X36376221Y-30674764D01*
X36950707Y-30912405D01*
X37524474Y-31150654D01*
X37526666Y-31150656D01*
X37528692Y-31151494D01*
X38150288Y-31151200D01*
X38771654Y-31151743D01*
X38773680Y-31150906D01*
X38775872Y-31150905D01*
X39661681Y-30783991D01*
X39924315Y-30675473D01*
X39924774Y-30675014D01*
X39925379Y-30674764D01*
X39926082Y-30673709D01*
X40806974Y-29794353D01*
X40808111Y-29791614D01*
X40809364Y-29790779D01*
X41047005Y-29216293D01*
X41285254Y-28642526D01*
X41285256Y-28640334D01*
X41286094Y-28638308D01*
X41285800Y-28016712D01*
X41286343Y-27395346D01*
X41285506Y-27393320D01*
X41285505Y-27391128D01*
X40918591Y-26505319D01*
X40810073Y-26242685D01*
X40809614Y-26242226D01*
X40809364Y-26241621D01*
X40808309Y-26240918D01*
X39928953Y-25360026D01*
X39926214Y-25358889D01*
X39925379Y-25357636D01*
X39350893Y-25119995D01*
X38777126Y-24881746D01*
X38774934Y-24881744D01*
X38772908Y-24880906D01*
X38151312Y-24881200D01*
X37529946Y-24880657D01*
X37527920Y-24881494D01*
X37525728Y-24881495D01*
X36639919Y-25248409D01*
X36377285Y-25356927D01*
X36376826Y-25357386D01*
X36376221Y-25357636D01*
X36375518Y-25358691D01*
X35494626Y-26238047D01*
X35493489Y-26240786D01*
X35492236Y-26241621D01*
X35254595Y-26816107D01*
X35016346Y-27389874D01*
X35016344Y-27392066D01*
X35015506Y-27394092D01*
X35015800Y-28015688D01*
X35015257Y-28637054D01*
X32438038Y-28637054D01*
X36666892Y-24408200D01*
X48183800Y-24408200D01*
X48455505Y-24354154D01*
X48685846Y-24200246D01*
X52033892Y-20852200D01*
X77099708Y-20852200D01*
X79558754Y-23311246D01*
G36*
X44854092Y-71837200D02*
X44789508Y-71837200D01*
X44821800Y-71788871D01*
X44854092Y-71837200D01*
X44854092Y-71837200D01*
G37*
X44854092Y-71837200D02*
X44789508Y-71837200D01*
X44821800Y-71788871D01*
X44854092Y-71837200D01*
G36*
X50684212Y-72085200D02*
X50650609Y-72107653D01*
X50515277Y-71972321D01*
X50684212Y-72085200D01*
X50684212Y-72085200D01*
G37*
X50684212Y-72085200D02*
X50650609Y-72107653D01*
X50515277Y-71972321D01*
X50684212Y-72085200D01*
G36*
X83680589Y-67418055D02*
X83653989Y-67444655D01*
X83678650Y-67407748D01*
X83680589Y-67418055D01*
X83680589Y-67418055D01*
G37*
X83680589Y-67418055D02*
X83653989Y-67444655D01*
X83678650Y-67407748D01*
X83680589Y-67418055D01*
G36*
X60194991Y-64487653D02*
X60161388Y-64465200D01*
X60330323Y-64352321D01*
X60194991Y-64487653D01*
X60194991Y-64487653D01*
G37*
X60194991Y-64487653D02*
X60161388Y-64465200D01*
X60330323Y-64352321D01*
X60194991Y-64487653D01*
G36*
X60773158Y-63909486D02*
X60896137Y-63725435D01*
X60977539Y-63316200D01*
X61264800Y-63316200D01*
X61391683Y-63290961D01*
X60773158Y-63909486D01*
X60773158Y-63909486D01*
G37*
X60773158Y-63909486D02*
X60896137Y-63725435D01*
X60977539Y-63316200D01*
X61264800Y-63316200D01*
X61391683Y-63290961D01*
X60773158Y-63909486D01*
G36*
X52574991Y-61947653D02*
X52541388Y-61925200D01*
X52710323Y-61812321D01*
X52574991Y-61947653D01*
X52574991Y-61947653D01*
G37*
X52574991Y-61947653D02*
X52541388Y-61925200D01*
X52710323Y-61812321D01*
X52574991Y-61947653D01*
G36*
X60194991Y-59407653D02*
X60161388Y-59385200D01*
X60330323Y-59272321D01*
X60194991Y-59407653D01*
X60194991Y-59407653D01*
G37*
X60194991Y-59407653D02*
X60161388Y-59385200D01*
X60330323Y-59272321D01*
X60194991Y-59407653D01*
G36*
X60931622Y-57559378D02*
X61259290Y-57778318D01*
X61645800Y-57855200D01*
X61772683Y-57829961D01*
X60773158Y-58829486D01*
X60896137Y-58645435D01*
X61001607Y-58115200D01*
X60896137Y-57584965D01*
X60773158Y-57400914D01*
X60931622Y-57559378D01*
X60931622Y-57559378D01*
G37*
X60931622Y-57559378D02*
X61259290Y-57778318D01*
X61645800Y-57855200D01*
X61772683Y-57829961D01*
X60773158Y-58829486D01*
X60896137Y-58645435D01*
X61001607Y-58115200D01*
X60896137Y-57584965D01*
X60773158Y-57400914D01*
X60931622Y-57559378D01*
G36*
X60330323Y-56958079D02*
X60161388Y-56845200D01*
X60194991Y-56822747D01*
X60330323Y-56958079D01*
X60330323Y-56958079D01*
G37*
X60330323Y-56958079D02*
X60161388Y-56845200D01*
X60194991Y-56822747D01*
X60330323Y-56958079D01*
G36*
X58304212Y-56845200D02*
X58270609Y-56867653D01*
X58135277Y-56732321D01*
X58304212Y-56845200D01*
X58304212Y-56845200D01*
G37*
X58304212Y-56845200D02*
X58270609Y-56867653D01*
X58135277Y-56732321D01*
X58304212Y-56845200D01*
G36*
X58503665Y-48424973D02*
X58509301Y-48444017D01*
X58549926Y-48494208D01*
X58761054Y-48810183D01*
X58820944Y-48850200D01*
X58120656Y-48850200D01*
X58180546Y-48810183D01*
X58470800Y-48375788D01*
X58503665Y-48424973D01*
X58503665Y-48424973D01*
G37*
X58503665Y-48424973D02*
X58509301Y-48444017D01*
X58549926Y-48494208D01*
X58761054Y-48810183D01*
X58820944Y-48850200D01*
X58120656Y-48850200D01*
X58180546Y-48810183D01*
X58470800Y-48375788D01*
X58503665Y-48424973D01*
G36*
X53681054Y-48810183D02*
X53740944Y-48850200D01*
X53040656Y-48850200D01*
X53100546Y-48810183D01*
X53390800Y-48375788D01*
X53681054Y-48810183D01*
X53681054Y-48810183D01*
G37*
X53681054Y-48810183D02*
X53740944Y-48850200D01*
X53040656Y-48850200D01*
X53100546Y-48810183D01*
X53390800Y-48375788D01*
X53681054Y-48810183D01*
G36*
X56221054Y-48810183D02*
X56280944Y-48850200D01*
X55580656Y-48850200D01*
X55640546Y-48810183D01*
X55930800Y-48375788D01*
X56221054Y-48810183D01*
X56221054Y-48810183D01*
G37*
X56221054Y-48810183D02*
X56280944Y-48850200D01*
X55580656Y-48850200D01*
X55640546Y-48810183D01*
X55930800Y-48375788D01*
X56221054Y-48810183D01*
G36*
X58509301Y-46450383D02*
X58503665Y-46469427D01*
X58470800Y-46518612D01*
X58408384Y-46425200D01*
X58529684Y-46425200D01*
X58509301Y-46450383D01*
X58509301Y-46450383D01*
G37*
X58509301Y-46450383D02*
X58503665Y-46469427D01*
X58470800Y-46518612D01*
X58408384Y-46425200D01*
X58529684Y-46425200D01*
X58509301Y-46450383D01*
G36*
X55930800Y-46518612D02*
X55868384Y-46425200D01*
X55993216Y-46425200D01*
X55930800Y-46518612D01*
X55930800Y-46518612D01*
G37*
X55930800Y-46518612D02*
X55868384Y-46425200D01*
X55993216Y-46425200D01*
X55930800Y-46518612D01*
G36*
X61010800Y-46518612D02*
X60977935Y-46469427D01*
X60972299Y-46450383D01*
X60951916Y-46425200D01*
X61073216Y-46425200D01*
X61010800Y-46518612D01*
X61010800Y-46518612D01*
G37*
X61010800Y-46518612D02*
X60977935Y-46469427D01*
X60972299Y-46450383D01*
X60951916Y-46425200D01*
X61073216Y-46425200D01*
X61010800Y-46518612D01*
G36*
X53390800Y-46518612D02*
X53328384Y-46425200D01*
X53453216Y-46425200D01*
X53390800Y-46518612D01*
X53390800Y-46518612D01*
G37*
X53390800Y-46518612D02*
X53328384Y-46425200D01*
X53453216Y-46425200D01*
X53390800Y-46518612D01*
G36*
X64995622Y-45113378D02*
X65323290Y-45332318D01*
X65709800Y-45409200D01*
X70510444Y-45409200D01*
X70184767Y-45734877D01*
X69900800Y-45678393D01*
X69370565Y-45783863D01*
X68921054Y-46084217D01*
X68630800Y-46518612D01*
X68340546Y-46084217D01*
X67891035Y-45783863D01*
X67360800Y-45678393D01*
X66830565Y-45783863D01*
X66381054Y-46084217D01*
X66090800Y-46518612D01*
X65800546Y-46084217D01*
X65755838Y-46054344D01*
X65753918Y-46044690D01*
X65534978Y-45717022D01*
X64869455Y-45051499D01*
X64864918Y-45028690D01*
X64772258Y-44890014D01*
X64995622Y-45113378D01*
X64995622Y-45113378D01*
G37*
X64995622Y-45113378D02*
X65323290Y-45332318D01*
X65709800Y-45409200D01*
X70510444Y-45409200D01*
X70184767Y-45734877D01*
X69900800Y-45678393D01*
X69370565Y-45783863D01*
X68921054Y-46084217D01*
X68630800Y-46518612D01*
X68340546Y-46084217D01*
X67891035Y-45783863D01*
X67360800Y-45678393D01*
X66830565Y-45783863D01*
X66381054Y-46084217D01*
X66090800Y-46518612D01*
X65800546Y-46084217D01*
X65755838Y-46054344D01*
X65753918Y-46044690D01*
X65534978Y-45717022D01*
X64869455Y-45051499D01*
X64864918Y-45028690D01*
X64772258Y-44890014D01*
X64995622Y-45113378D01*
G36*
X63841054Y-41190183D02*
X64290565Y-41490537D01*
X64699800Y-41571939D01*
X64699800Y-41859200D01*
X64776682Y-42245710D01*
X64887630Y-42411755D01*
X64693800Y-42373200D01*
X64307290Y-42450082D01*
X63979622Y-42669022D01*
X63760682Y-42996690D01*
X63683800Y-43383200D01*
X63760682Y-43769710D01*
X63979622Y-44097378D01*
X64456986Y-44574742D01*
X64318310Y-44482082D01*
X63931800Y-44405200D01*
X50469800Y-44405200D01*
X50083290Y-44482082D01*
X50008283Y-44532200D01*
X48844156Y-44532200D01*
X51836833Y-41539523D01*
X52120800Y-41596007D01*
X52651035Y-41490537D01*
X53100546Y-41190183D01*
X53390800Y-40755788D01*
X53681054Y-41190183D01*
X54130565Y-41490537D01*
X54660800Y-41596007D01*
X55191035Y-41490537D01*
X55640546Y-41190183D01*
X55930800Y-40755788D01*
X56221054Y-41190183D01*
X56670565Y-41490537D01*
X57200800Y-41596007D01*
X57731035Y-41490537D01*
X57915086Y-41367558D01*
X57671444Y-41611200D01*
X52882800Y-41611200D01*
X52496290Y-41688082D01*
X52168622Y-41907022D01*
X51949682Y-42234690D01*
X51872800Y-42621200D01*
X51949682Y-43007710D01*
X52168622Y-43335378D01*
X52496290Y-43554318D01*
X52882800Y-43631200D01*
X58089800Y-43631200D01*
X58476310Y-43554318D01*
X58803978Y-43335378D01*
X60454978Y-41684378D01*
X60673918Y-41356710D01*
X60704973Y-41200589D01*
X60720546Y-41190183D01*
X61010800Y-40755788D01*
X61301054Y-41190183D01*
X61750565Y-41490537D01*
X62280800Y-41596007D01*
X62811035Y-41490537D01*
X63260546Y-41190183D01*
X63550800Y-40755788D01*
X63841054Y-41190183D01*
X63841054Y-41190183D01*
G37*
X63841054Y-41190183D02*
X64290565Y-41490537D01*
X64699800Y-41571939D01*
X64699800Y-41859200D01*
X64776682Y-42245710D01*
X64887630Y-42411755D01*
X64693800Y-42373200D01*
X64307290Y-42450082D01*
X63979622Y-42669022D01*
X63760682Y-42996690D01*
X63683800Y-43383200D01*
X63760682Y-43769710D01*
X63979622Y-44097378D01*
X64456986Y-44574742D01*
X64318310Y-44482082D01*
X63931800Y-44405200D01*
X50469800Y-44405200D01*
X50083290Y-44482082D01*
X50008283Y-44532200D01*
X48844156Y-44532200D01*
X51836833Y-41539523D01*
X52120800Y-41596007D01*
X52651035Y-41490537D01*
X53100546Y-41190183D01*
X53390800Y-40755788D01*
X53681054Y-41190183D01*
X54130565Y-41490537D01*
X54660800Y-41596007D01*
X55191035Y-41490537D01*
X55640546Y-41190183D01*
X55930800Y-40755788D01*
X56221054Y-41190183D01*
X56670565Y-41490537D01*
X57200800Y-41596007D01*
X57731035Y-41490537D01*
X57915086Y-41367558D01*
X57671444Y-41611200D01*
X52882800Y-41611200D01*
X52496290Y-41688082D01*
X52168622Y-41907022D01*
X51949682Y-42234690D01*
X51872800Y-42621200D01*
X51949682Y-43007710D01*
X52168622Y-43335378D01*
X52496290Y-43554318D01*
X52882800Y-43631200D01*
X58089800Y-43631200D01*
X58476310Y-43554318D01*
X58803978Y-43335378D01*
X60454978Y-41684378D01*
X60673918Y-41356710D01*
X60704973Y-41200589D01*
X60720546Y-41190183D01*
X61010800Y-40755788D01*
X61301054Y-41190183D01*
X61750565Y-41490537D01*
X62280800Y-41596007D01*
X62811035Y-41490537D01*
X63260546Y-41190183D01*
X63550800Y-40755788D01*
X63841054Y-41190183D01*
G36*
X41447290Y-43681318D02*
X41833800Y-43758200D01*
X42088902Y-43707457D01*
X42025854Y-43859293D01*
X42025464Y-44305508D01*
X41308614Y-43588658D01*
X41447290Y-43681318D01*
X41447290Y-43681318D01*
G37*
X41447290Y-43681318D02*
X41833800Y-43758200D01*
X42088902Y-43707457D01*
X42025854Y-43859293D01*
X42025464Y-44305508D01*
X41308614Y-43588658D01*
X41447290Y-43681318D01*
G36*
X65709800Y-42869200D02*
X72276444Y-42869200D01*
X72796444Y-43389200D01*
X66128156Y-43389200D01*
X65582917Y-42843961D01*
X65709800Y-42869200D01*
X65709800Y-42869200D01*
G37*
X65709800Y-42869200D02*
X72276444Y-42869200D01*
X72796444Y-43389200D01*
X66128156Y-43389200D01*
X65582917Y-42843961D01*
X65709800Y-42869200D01*
G36*
X58493253Y-40789391D02*
X58357921Y-40924723D01*
X58470800Y-40755788D01*
X58493253Y-40789391D01*
X58493253Y-40789391D01*
G37*
X58493253Y-40789391D02*
X58357921Y-40924723D01*
X58470800Y-40755788D01*
X58493253Y-40789391D01*
G36*
X68663665Y-40804973D02*
X68669301Y-40824017D01*
X68689684Y-40849200D01*
X68568384Y-40849200D01*
X68630800Y-40755788D01*
X68663665Y-40804973D01*
X68663665Y-40804973D01*
G37*
X68663665Y-40804973D02*
X68669301Y-40824017D01*
X68689684Y-40849200D01*
X68568384Y-40849200D01*
X68630800Y-40755788D01*
X68663665Y-40804973D01*
G36*
X66259863Y-33169619D02*
X66212290Y-33179082D01*
X66192712Y-33192164D01*
X66207593Y-33117349D01*
X66259863Y-33169619D01*
X66259863Y-33169619D01*
G37*
X66259863Y-33169619D02*
X66212290Y-33179082D01*
X66192712Y-33192164D01*
X66207593Y-33117349D01*
X66259863Y-33169619D01*
G36*
X65180651Y-32090407D02*
X64815290Y-32163082D01*
X64487622Y-32382022D01*
X64021444Y-32848200D01*
X63996384Y-32848200D01*
X64068900Y-32739672D01*
X64174370Y-32209437D01*
X64174370Y-31442963D01*
X64085270Y-30995026D01*
X65180651Y-32090407D01*
X65180651Y-32090407D01*
G37*
X65180651Y-32090407D02*
X64815290Y-32163082D01*
X64487622Y-32382022D01*
X64021444Y-32848200D01*
X63996384Y-32848200D01*
X64068900Y-32739672D01*
X64174370Y-32209437D01*
X64174370Y-31442963D01*
X64085270Y-30995026D01*
X65180651Y-32090407D01*
G36*
X61518800Y-30897612D02*
X61456384Y-30804200D01*
X61581216Y-30804200D01*
X61518800Y-30897612D01*
X61518800Y-30897612D01*
G37*
X61518800Y-30897612D02*
X61456384Y-30804200D01*
X61581216Y-30804200D01*
X61518800Y-30897612D01*
G36*
X58978800Y-30897612D02*
X58916384Y-30804200D01*
X59041216Y-30804200D01*
X58978800Y-30897612D01*
X58978800Y-30897612D01*
G37*
X58978800Y-30897612D02*
X58916384Y-30804200D01*
X59041216Y-30804200D01*
X58978800Y-30897612D01*
G36*
X56438800Y-30897612D02*
X56376384Y-30804200D01*
X56501216Y-30804200D01*
X56438800Y-30897612D01*
X56438800Y-30897612D01*
G37*
X56438800Y-30897612D02*
X56376384Y-30804200D01*
X56501216Y-30804200D01*
X56438800Y-30897612D01*
G36*
X81103360Y-28709116D02*
X81103360Y-29628200D01*
X81147638Y-29863517D01*
X81286710Y-30079641D01*
X81498910Y-30224631D01*
X81566341Y-30238286D01*
X81521653Y-30268146D01*
X81494890Y-30308200D01*
X78828156Y-30308200D01*
X75059978Y-26540022D01*
X74732310Y-26321082D01*
X74641280Y-26302975D01*
X74478310Y-26194082D01*
X74091800Y-26117200D01*
X69265800Y-26117200D01*
X68879290Y-26194082D01*
X68551622Y-26413022D01*
X68332682Y-26740690D01*
X68328145Y-26763499D01*
X66138622Y-28953022D01*
X65919682Y-29280690D01*
X65842800Y-29667200D01*
X65899573Y-29952617D01*
X65377455Y-29430499D01*
X65372918Y-29407690D01*
X65153978Y-29080022D01*
X64826310Y-28861082D01*
X64439800Y-28784200D01*
X60438358Y-28784200D01*
X60708978Y-28603378D01*
X60927918Y-28275710D01*
X61004800Y-27889200D01*
X60927918Y-27502690D01*
X60927591Y-27502200D01*
X62026800Y-27502200D01*
X62413310Y-27425318D01*
X62740978Y-27206378D01*
X62959918Y-26878710D01*
X63036800Y-26492200D01*
X62959918Y-26105690D01*
X62862768Y-25960294D01*
X63319035Y-25869537D01*
X63768546Y-25569183D01*
X63979674Y-25253208D01*
X64020299Y-25203017D01*
X64025935Y-25183973D01*
X64068900Y-25119672D01*
X64117951Y-24873076D01*
X64174370Y-24682450D01*
X64174370Y-23729950D01*
X64117951Y-23539324D01*
X64068900Y-23292728D01*
X64025935Y-23228427D01*
X64020299Y-23209383D01*
X63999916Y-23184200D01*
X75578444Y-23184200D01*
X81103360Y-28709116D01*
X81103360Y-28709116D01*
G37*
X81103360Y-28709116D02*
X81103360Y-29628200D01*
X81147638Y-29863517D01*
X81286710Y-30079641D01*
X81498910Y-30224631D01*
X81566341Y-30238286D01*
X81521653Y-30268146D01*
X81494890Y-30308200D01*
X78828156Y-30308200D01*
X75059978Y-26540022D01*
X74732310Y-26321082D01*
X74641280Y-26302975D01*
X74478310Y-26194082D01*
X74091800Y-26117200D01*
X69265800Y-26117200D01*
X68879290Y-26194082D01*
X68551622Y-26413022D01*
X68332682Y-26740690D01*
X68328145Y-26763499D01*
X66138622Y-28953022D01*
X65919682Y-29280690D01*
X65842800Y-29667200D01*
X65899573Y-29952617D01*
X65377455Y-29430499D01*
X65372918Y-29407690D01*
X65153978Y-29080022D01*
X64826310Y-28861082D01*
X64439800Y-28784200D01*
X60438358Y-28784200D01*
X60708978Y-28603378D01*
X60927918Y-28275710D01*
X61004800Y-27889200D01*
X60927918Y-27502690D01*
X60927591Y-27502200D01*
X62026800Y-27502200D01*
X62413310Y-27425318D01*
X62740978Y-27206378D01*
X62959918Y-26878710D01*
X63036800Y-26492200D01*
X62959918Y-26105690D01*
X62862768Y-25960294D01*
X63319035Y-25869537D01*
X63768546Y-25569183D01*
X63979674Y-25253208D01*
X64020299Y-25203017D01*
X64025935Y-25183973D01*
X64068900Y-25119672D01*
X64117951Y-24873076D01*
X64174370Y-24682450D01*
X64174370Y-23729950D01*
X64117951Y-23539324D01*
X64068900Y-23292728D01*
X64025935Y-23228427D01*
X64020299Y-23209383D01*
X63999916Y-23184200D01*
X75578444Y-23184200D01*
X81103360Y-28709116D01*
G36*
X56471665Y-25183973D02*
X56477301Y-25203017D01*
X56517926Y-25253208D01*
X56670934Y-25482200D01*
X56206666Y-25482200D01*
X56438800Y-25134788D01*
X56471665Y-25183973D01*
X56471665Y-25183973D01*
G37*
X56471665Y-25183973D02*
X56477301Y-25203017D01*
X56517926Y-25253208D01*
X56670934Y-25482200D01*
X56206666Y-25482200D01*
X56438800Y-25134788D01*
X56471665Y-25183973D01*
G36*
X59011665Y-25183973D02*
X59017301Y-25203017D01*
X59057926Y-25253208D01*
X59210934Y-25482200D01*
X58746666Y-25482200D01*
X58899674Y-25253208D01*
X58940299Y-25203017D01*
X58945935Y-25183973D01*
X58978800Y-25134788D01*
X59011665Y-25183973D01*
X59011665Y-25183973D01*
G37*
X59011665Y-25183973D02*
X59017301Y-25203017D01*
X59057926Y-25253208D01*
X59210934Y-25482200D01*
X58746666Y-25482200D01*
X58899674Y-25253208D01*
X58940299Y-25203017D01*
X58945935Y-25183973D01*
X58978800Y-25134788D01*
X59011665Y-25183973D01*
G36*
X61551665Y-25183973D02*
X61557301Y-25203017D01*
X61597926Y-25253208D01*
X61750934Y-25482200D01*
X61286666Y-25482200D01*
X61439674Y-25253208D01*
X61480299Y-25203017D01*
X61485935Y-25183973D01*
X61518800Y-25134788D01*
X61551665Y-25183973D01*
X61551665Y-25183973D01*
G37*
X61551665Y-25183973D02*
X61557301Y-25203017D01*
X61597926Y-25253208D01*
X61750934Y-25482200D01*
X61286666Y-25482200D01*
X61439674Y-25253208D01*
X61480299Y-25203017D01*
X61485935Y-25183973D01*
X61518800Y-25134788D01*
X61551665Y-25183973D01*
G36*
X56477301Y-23209383D02*
X56471665Y-23228427D01*
X56438800Y-23277612D01*
X56376384Y-23184200D01*
X56497684Y-23184200D01*
X56477301Y-23209383D01*
X56477301Y-23209383D01*
G37*
X56477301Y-23209383D02*
X56471665Y-23228427D01*
X56438800Y-23277612D01*
X56376384Y-23184200D01*
X56497684Y-23184200D01*
X56477301Y-23209383D01*
G36*
X59017301Y-23209383D02*
X59011665Y-23228427D01*
X58978800Y-23277612D01*
X58945935Y-23228427D01*
X58940299Y-23209383D01*
X58919916Y-23184200D01*
X59037684Y-23184200D01*
X59017301Y-23209383D01*
X59017301Y-23209383D01*
G37*
X59017301Y-23209383D02*
X59011665Y-23228427D01*
X58978800Y-23277612D01*
X58945935Y-23228427D01*
X58940299Y-23209383D01*
X58919916Y-23184200D01*
X59037684Y-23184200D01*
X59017301Y-23209383D01*
G36*
X61557301Y-23209383D02*
X61551665Y-23228427D01*
X61518800Y-23277612D01*
X61485935Y-23228427D01*
X61480299Y-23209383D01*
X61459916Y-23184200D01*
X61577684Y-23184200D01*
X61557301Y-23209383D01*
X61557301Y-23209383D01*
G37*
X61557301Y-23209383D02*
X61551665Y-23228427D01*
X61518800Y-23277612D01*
X61485935Y-23228427D01*
X61480299Y-23209383D01*
X61459916Y-23184200D01*
X61577684Y-23184200D01*
X61557301Y-23209383D01*
M02*
