M48
; DRILL file {KiCad 7.0.6} date Fri Jan  5 11:00:15 2024
; FORMAT={-:-/ absolute / inch / decimal}
; #@! TF.CreationDate,2024-01-05T11:00:15+01:00
; #@! TF.GenerationSoftware,Kicad,Pcbnew,7.0.6
; #@! TF.FileFunction,Plated,1,2,PTH
FMAT,2
INCH
; #@! TA.AperFunction,Plated,PTH,ViaDrill
T1C0.0157
; #@! TA.AperFunction,Plated,PTH,ComponentDrill
T2C0.0157
; #@! TA.AperFunction,Plated,PTH,ComponentDrill
T3C0.0276
; #@! TA.AperFunction,Plated,PTH,ComponentDrill
T4C0.0315
; #@! TA.AperFunction,Plated,PTH,ComponentDrill
T5C0.0394
%
G90
G05
T1
X1.2195Y-1.0912
X1.2518Y-1.4044
X1.3126Y-1.7402
X1.3358Y-2.4806
X1.4188Y-2.3514
X1.4727Y-1.7017
X1.5492Y-1.4272
X1.5496Y-2.2508
X1.7911Y-1.3436
X1.7917Y-1.2802
X1.8005Y-0.9426
X1.8136Y-2.2425
X1.8805Y-2.4111
X2.1296Y-1.9436
X2.1834Y-1.991
X2.2382Y-1.8351
T3
X2.1378Y-1.0472
X2.2378Y-0.9472
X2.2378Y-1.1472
T4
X1.1358Y-0.9272
X1.1358Y-1.0272
X1.1358Y-1.1272
X1.1358Y-1.2272
X1.1358Y-1.3272
X1.1358Y-1.4272
X1.1358Y-1.5272
X1.1358Y-1.6272
X1.4358Y-0.9272
X1.4358Y-1.0272
X1.4358Y-1.1272
X1.4358Y-1.2272
X1.4358Y-1.3272
X1.4358Y-1.4272
X1.4358Y-1.5272
X1.4358Y-1.6272
X1.6142Y-0.9339
X1.6142Y-1.0339
X1.6142Y-1.1339
X1.6142Y-1.2339
X1.6142Y-1.3339
X1.6142Y-1.4339
X1.6142Y-1.5339
X1.6142Y-1.6339
X1.9142Y-0.9339
X1.9142Y-1.0339
X1.9142Y-1.1339
X1.9142Y-1.2339
X1.9142Y-1.3339
X1.9142Y-1.4339
X1.9142Y-1.5339
X1.9142Y-1.6339
X2.0591Y-1.3386
X2.0591Y-1.4386
X2.0591Y-1.5386
X2.0591Y-1.6386
X2.3591Y-1.3386
X2.3591Y-1.4386
X2.3591Y-1.5386
X2.3591Y-1.6386
X2.6339Y-1.5925
X2.6339Y-1.6909
T5
X1.2724Y-2.4055
X1.3724Y-2.4055
X1.4724Y-2.4055
X1.503Y-1.8732
X1.503Y-1.9732
X1.503Y-2.0732
X1.503Y-2.1732
X1.5724Y-2.4055
X1.6724Y-2.4055
X1.7724Y-2.4055
X3.1732Y-2.1071
X3.1732Y-2.2071
X3.1732Y-2.3071
T2
G00X2.5866Y-2.0433
M15
G01X2.5866Y-2.0827
M16
G05
G00X2.7638Y-2.2598
M15
G01X2.8031Y-2.2598
M16
G05
G00X2.9803Y-2.0827
M15
G01X2.9803Y-2.0433
M16
G05
T0
M30
