M48
;DRILL file {KiCad (5.0.0)} date 09/08/18 22:36:22
;FORMAT={-:-/ absolute / metric / decimal}
FMAT,2
METRIC,TZ
T1C0.800
T2C0.900
T3C1.000
T4C1.200
T5C1.300
T6C2.500
%
G90
G05
M71
T1
X68.61Y-42.99
X68.61Y-50.61
X71.15Y-42.99
X71.15Y-50.61
X73.69Y-42.99
X73.69Y-50.61
X76.23Y-42.99
X76.23Y-50.61
X78.77Y-42.99
X78.77Y-50.61
X81.31Y-42.99
X81.31Y-50.61
X83.85Y-42.99
X83.85Y-50.61
X86.39Y-42.99
X86.39Y-50.61
X70.8Y-62.28
X70.8Y-69.9
X38.81Y-43.09
X38.81Y-50.71
X41.35Y-43.09
X41.35Y-50.71
X43.89Y-43.09
X43.89Y-50.71
X46.43Y-43.09
X46.43Y-50.71
X48.97Y-43.09
X48.97Y-50.71
X51.51Y-43.09
X51.51Y-50.71
X54.05Y-43.09
X54.05Y-50.71
X56.59Y-43.09
X56.59Y-50.71
T2
X77.2Y-65.36
X77.2Y-67.9
T3
X52.8Y-34.8
X55.34Y-34.8
X57.88Y-34.8
X60.42Y-34.8
X62.96Y-34.8
X37.7Y-35.1
X40.24Y-35.1
X42.78Y-35.1
X45.32Y-35.1
X99.Y-56.8
X99.Y-60.3
X71.8Y-34.9
X74.34Y-34.9
X76.88Y-34.9
X94.38Y-29.36
X94.38Y-44.6
X102.Y-29.36
X102.Y-44.6
T4
X38.8Y-62.79
X41.3Y-62.79
X43.8Y-67.796
X46.3Y-62.79
X48.8Y-62.79
T5
X57.801Y-67.999
X60.3Y-65.5
X62.799Y-67.999
T6
X87.95Y-66.8
X85.4Y-32.5
T0
M30
