G04 #@! TF.FileFunction,Legend,Top*
%FSLAX46Y46*%
G04 Gerber Fmt 4.6, Leading zero omitted, Abs format (unit mm)*
G04 Created by KiCad (PCBNEW 4.0.7) date 07/20/18 00:39:32*
%MOMM*%
%LPD*%
G01*
G04 APERTURE LIST*
%ADD10C,0.100000*%
%ADD11C,0.200000*%
%ADD12C,0.225000*%
%ADD13C,0.175000*%
%ADD14C,0.120000*%
%ADD15C,0.010000*%
%ADD16C,0.150000*%
%ADD17C,0.254000*%
%ADD18C,0.381000*%
%ADD19C,0.203200*%
%ADD20C,0.304800*%
%ADD21C,0.285750*%
%ADD22C,0.287020*%
%ADD23C,0.210750*%
%ADD24C,0.056000*%
G04 APERTURE END LIST*
D10*
D11*
X49188095Y-59092857D02*
X49188095Y-59245238D01*
X49150000Y-59321429D01*
X49073810Y-59397619D01*
X48921429Y-59435714D01*
X48654762Y-59435714D01*
X48502381Y-59397619D01*
X48426190Y-59321429D01*
X48388095Y-59245238D01*
X48388095Y-59092857D01*
X48426190Y-59016667D01*
X48502381Y-58940476D01*
X48654762Y-58902381D01*
X48921429Y-58902381D01*
X49073810Y-58940476D01*
X49150000Y-59016667D01*
X49188095Y-59092857D01*
X48921429Y-59778571D02*
X48388095Y-59778571D01*
X48845238Y-59778571D02*
X48883333Y-59816666D01*
X48921429Y-59892857D01*
X48921429Y-60007143D01*
X48883333Y-60083333D01*
X48807143Y-60121428D01*
X48388095Y-60121428D01*
X48921429Y-60388095D02*
X48921429Y-60692857D01*
X49188095Y-60502381D02*
X48502381Y-60502381D01*
X48426190Y-60540476D01*
X48388095Y-60616667D01*
X48388095Y-60692857D01*
X48921429Y-60883334D02*
X48388095Y-61035715D01*
X48769048Y-61188096D01*
X48388095Y-61340477D01*
X48921429Y-61492858D01*
X48388095Y-61797619D02*
X48921429Y-61797619D01*
X49188095Y-61797619D02*
X49150000Y-61759524D01*
X49111905Y-61797619D01*
X49150000Y-61835714D01*
X49188095Y-61797619D01*
X49111905Y-61797619D01*
X48388095Y-62178571D02*
X49188095Y-62178571D01*
X48692857Y-62254762D02*
X48388095Y-62483333D01*
X48921429Y-62483333D02*
X48616667Y-62178571D01*
X48388095Y-62826190D02*
X49188095Y-62826190D01*
X48692857Y-62902381D02*
X48388095Y-63130952D01*
X48921429Y-63130952D02*
X48616667Y-62826190D01*
X48426190Y-63778571D02*
X48388095Y-63702381D01*
X48388095Y-63550000D01*
X48426190Y-63473809D01*
X48502381Y-63435714D01*
X48807143Y-63435714D01*
X48883333Y-63473809D01*
X48921429Y-63550000D01*
X48921429Y-63702381D01*
X48883333Y-63778571D01*
X48807143Y-63816666D01*
X48730952Y-63816666D01*
X48654762Y-63435714D01*
X48388095Y-64273809D02*
X48426190Y-64197618D01*
X48502381Y-64159523D01*
X49188095Y-64159523D01*
X48388095Y-64921428D02*
X48807143Y-64921428D01*
X48883333Y-64883333D01*
X48921429Y-64807143D01*
X48921429Y-64654762D01*
X48883333Y-64578571D01*
X48426190Y-64921428D02*
X48388095Y-64845238D01*
X48388095Y-64654762D01*
X48426190Y-64578571D01*
X48502381Y-64540476D01*
X48578571Y-64540476D01*
X48654762Y-64578571D01*
X48692857Y-64654762D01*
X48692857Y-64845238D01*
X48730952Y-64921428D01*
X48388095Y-65645238D02*
X48807143Y-65645238D01*
X48883333Y-65607143D01*
X48921429Y-65530953D01*
X48921429Y-65378572D01*
X48883333Y-65302381D01*
X48426190Y-65645238D02*
X48388095Y-65569048D01*
X48388095Y-65378572D01*
X48426190Y-65302381D01*
X48502381Y-65264286D01*
X48578571Y-65264286D01*
X48654762Y-65302381D01*
X48692857Y-65378572D01*
X48692857Y-65569048D01*
X48730952Y-65645238D01*
X48388095Y-66026191D02*
X48921429Y-66026191D01*
X48769048Y-66026191D02*
X48845238Y-66064286D01*
X48883333Y-66102382D01*
X48921429Y-66178572D01*
X48921429Y-66254763D01*
X48464286Y-66521429D02*
X48426190Y-66559524D01*
X48388095Y-66521429D01*
X48426190Y-66483334D01*
X48464286Y-66521429D01*
X48388095Y-66521429D01*
X48883333Y-66521429D02*
X48845238Y-66559524D01*
X48807143Y-66521429D01*
X48845238Y-66483334D01*
X48883333Y-66521429D01*
X48807143Y-66521429D01*
X48388095Y-67511905D02*
X49188095Y-67511905D01*
X48616667Y-67778572D01*
X49188095Y-68045239D01*
X48388095Y-68045239D01*
X48388095Y-68426191D02*
X48921429Y-68426191D01*
X49188095Y-68426191D02*
X49150000Y-68388096D01*
X49111905Y-68426191D01*
X49150000Y-68464286D01*
X49188095Y-68426191D01*
X49111905Y-68426191D01*
X48426190Y-69150000D02*
X48388095Y-69073810D01*
X48388095Y-68921429D01*
X48426190Y-68845238D01*
X48464286Y-68807143D01*
X48540476Y-68769048D01*
X48769048Y-68769048D01*
X48845238Y-68807143D01*
X48883333Y-68845238D01*
X48921429Y-68921429D01*
X48921429Y-69073810D01*
X48883333Y-69150000D01*
X48388095Y-69492857D02*
X49188095Y-69492857D01*
X48388095Y-69835714D02*
X48807143Y-69835714D01*
X48883333Y-69797619D01*
X48921429Y-69721429D01*
X48921429Y-69607143D01*
X48883333Y-69530952D01*
X48845238Y-69492857D01*
X48388095Y-70216667D02*
X48921429Y-70216667D01*
X49188095Y-70216667D02*
X49150000Y-70178572D01*
X49111905Y-70216667D01*
X49150000Y-70254762D01*
X49188095Y-70216667D01*
X49111905Y-70216667D01*
X48426190Y-70902381D02*
X48388095Y-70826191D01*
X48388095Y-70673810D01*
X48426190Y-70597619D01*
X48502381Y-70559524D01*
X48807143Y-70559524D01*
X48883333Y-70597619D01*
X48921429Y-70673810D01*
X48921429Y-70826191D01*
X48883333Y-70902381D01*
X48807143Y-70940476D01*
X48730952Y-70940476D01*
X48654762Y-70559524D01*
X48388095Y-71397619D02*
X48426190Y-71321428D01*
X48502381Y-71283333D01*
X49188095Y-71283333D01*
X48807143Y-72311905D02*
X48807143Y-72578572D01*
X48388095Y-72692858D02*
X48388095Y-72311905D01*
X49188095Y-72311905D01*
X49188095Y-72692858D01*
X48388095Y-73035715D02*
X48921429Y-73035715D01*
X48769048Y-73035715D02*
X48845238Y-73073810D01*
X48883333Y-73111906D01*
X48921429Y-73188096D01*
X48921429Y-73264287D01*
X48388095Y-73873810D02*
X48807143Y-73873810D01*
X48883333Y-73835715D01*
X48921429Y-73759525D01*
X48921429Y-73607144D01*
X48883333Y-73530953D01*
X48426190Y-73873810D02*
X48388095Y-73797620D01*
X48388095Y-73607144D01*
X48426190Y-73530953D01*
X48502381Y-73492858D01*
X48578571Y-73492858D01*
X48654762Y-73530953D01*
X48692857Y-73607144D01*
X48692857Y-73797620D01*
X48730952Y-73873810D01*
X48426190Y-74216668D02*
X48388095Y-74292858D01*
X48388095Y-74445239D01*
X48426190Y-74521430D01*
X48502381Y-74559525D01*
X48540476Y-74559525D01*
X48616667Y-74521430D01*
X48654762Y-74445239D01*
X48654762Y-74330954D01*
X48692857Y-74254763D01*
X48769048Y-74216668D01*
X48807143Y-74216668D01*
X48883333Y-74254763D01*
X48921429Y-74330954D01*
X48921429Y-74445239D01*
X48883333Y-74521430D01*
X48388095Y-74902382D02*
X48921429Y-74902382D01*
X48845238Y-74902382D02*
X48883333Y-74940477D01*
X48921429Y-75016668D01*
X48921429Y-75130954D01*
X48883333Y-75207144D01*
X48807143Y-75245239D01*
X48388095Y-75245239D01*
X48807143Y-75245239D02*
X48883333Y-75283335D01*
X48921429Y-75359525D01*
X48921429Y-75473811D01*
X48883333Y-75550001D01*
X48807143Y-75588096D01*
X48388095Y-75588096D01*
X48921429Y-76311906D02*
X48388095Y-76311906D01*
X48921429Y-75969049D02*
X48502381Y-75969049D01*
X48426190Y-76007144D01*
X48388095Y-76083335D01*
X48388095Y-76197621D01*
X48426190Y-76273811D01*
X48464286Y-76311906D01*
X48426190Y-76654764D02*
X48388095Y-76730954D01*
X48388095Y-76883335D01*
X48426190Y-76959526D01*
X48502381Y-76997621D01*
X48540476Y-76997621D01*
X48616667Y-76959526D01*
X48654762Y-76883335D01*
X48654762Y-76769050D01*
X48692857Y-76692859D01*
X48769048Y-76654764D01*
X48807143Y-76654764D01*
X48883333Y-76692859D01*
X48921429Y-76769050D01*
X48921429Y-76883335D01*
X48883333Y-76959526D01*
X47597619Y-59588095D02*
X47635714Y-59511905D01*
X47635714Y-59359524D01*
X47597619Y-59283333D01*
X47521429Y-59207143D01*
X47445238Y-59169048D01*
X47292857Y-59169048D01*
X47216667Y-59207143D01*
X47140476Y-59283333D01*
X47102381Y-59359524D01*
X47102381Y-59511905D01*
X47140476Y-59588095D01*
X47902381Y-59435714D02*
X47864286Y-59245238D01*
X47750000Y-59054762D01*
X47559524Y-58940476D01*
X47369048Y-58902381D01*
X47178571Y-58940476D01*
X46988095Y-59054762D01*
X46873810Y-59245238D01*
X46835714Y-59435714D01*
X46873810Y-59626190D01*
X46988095Y-59816667D01*
X47178571Y-59930952D01*
X47369048Y-59969048D01*
X47559524Y-59930952D01*
X47750000Y-59816667D01*
X47864286Y-59626190D01*
X47902381Y-59435714D01*
X47711905Y-60273810D02*
X47750000Y-60311905D01*
X47788095Y-60388096D01*
X47788095Y-60578572D01*
X47750000Y-60654762D01*
X47711905Y-60692858D01*
X47635714Y-60730953D01*
X47559524Y-60730953D01*
X47445238Y-60692858D01*
X46988095Y-60235715D01*
X46988095Y-60730953D01*
X47788095Y-61226191D02*
X47788095Y-61302382D01*
X47750000Y-61378572D01*
X47711905Y-61416667D01*
X47635714Y-61454763D01*
X47483333Y-61492858D01*
X47292857Y-61492858D01*
X47140476Y-61454763D01*
X47064286Y-61416667D01*
X47026190Y-61378572D01*
X46988095Y-61302382D01*
X46988095Y-61226191D01*
X47026190Y-61150001D01*
X47064286Y-61111905D01*
X47140476Y-61073810D01*
X47292857Y-61035715D01*
X47483333Y-61035715D01*
X47635714Y-61073810D01*
X47711905Y-61111905D01*
X47750000Y-61150001D01*
X47788095Y-61226191D01*
X46988095Y-62254763D02*
X46988095Y-61797620D01*
X46988095Y-62026191D02*
X47788095Y-62026191D01*
X47673810Y-61950001D01*
X47597619Y-61873810D01*
X47559524Y-61797620D01*
X47445238Y-62711906D02*
X47483333Y-62635715D01*
X47521429Y-62597620D01*
X47597619Y-62559525D01*
X47635714Y-62559525D01*
X47711905Y-62597620D01*
X47750000Y-62635715D01*
X47788095Y-62711906D01*
X47788095Y-62864287D01*
X47750000Y-62940477D01*
X47711905Y-62978573D01*
X47635714Y-63016668D01*
X47597619Y-63016668D01*
X47521429Y-62978573D01*
X47483333Y-62940477D01*
X47445238Y-62864287D01*
X47445238Y-62711906D01*
X47407143Y-62635715D01*
X47369048Y-62597620D01*
X47292857Y-62559525D01*
X47140476Y-62559525D01*
X47064286Y-62597620D01*
X47026190Y-62635715D01*
X46988095Y-62711906D01*
X46988095Y-62864287D01*
X47026190Y-62940477D01*
X47064286Y-62978573D01*
X47140476Y-63016668D01*
X47292857Y-63016668D01*
X47369048Y-62978573D01*
X47407143Y-62940477D01*
X47445238Y-62864287D01*
X47026190Y-63930954D02*
X46988095Y-64045240D01*
X46988095Y-64235716D01*
X47026190Y-64311906D01*
X47064286Y-64350002D01*
X47140476Y-64388097D01*
X47216667Y-64388097D01*
X47292857Y-64350002D01*
X47330952Y-64311906D01*
X47369048Y-64235716D01*
X47407143Y-64083335D01*
X47445238Y-64007144D01*
X47483333Y-63969049D01*
X47559524Y-63930954D01*
X47635714Y-63930954D01*
X47711905Y-63969049D01*
X47750000Y-64007144D01*
X47788095Y-64083335D01*
X47788095Y-64273811D01*
X47750000Y-64388097D01*
X47026190Y-65073811D02*
X46988095Y-64997621D01*
X46988095Y-64845240D01*
X47026190Y-64769049D01*
X47064286Y-64730954D01*
X47140476Y-64692859D01*
X47369048Y-64692859D01*
X47445238Y-64730954D01*
X47483333Y-64769049D01*
X47521429Y-64845240D01*
X47521429Y-64997621D01*
X47483333Y-65073811D01*
X46988095Y-65416668D02*
X47521429Y-65416668D01*
X47788095Y-65416668D02*
X47750000Y-65378573D01*
X47711905Y-65416668D01*
X47750000Y-65454763D01*
X47788095Y-65416668D01*
X47711905Y-65416668D01*
X47026190Y-66102382D02*
X46988095Y-66026192D01*
X46988095Y-65873811D01*
X47026190Y-65797620D01*
X47102381Y-65759525D01*
X47407143Y-65759525D01*
X47483333Y-65797620D01*
X47521429Y-65873811D01*
X47521429Y-66026192D01*
X47483333Y-66102382D01*
X47407143Y-66140477D01*
X47330952Y-66140477D01*
X47254762Y-65759525D01*
X47521429Y-66483334D02*
X46988095Y-66483334D01*
X47445238Y-66483334D02*
X47483333Y-66521429D01*
X47521429Y-66597620D01*
X47521429Y-66711906D01*
X47483333Y-66788096D01*
X47407143Y-66826191D01*
X46988095Y-66826191D01*
X47026190Y-67550001D02*
X46988095Y-67473811D01*
X46988095Y-67321430D01*
X47026190Y-67245239D01*
X47064286Y-67207144D01*
X47140476Y-67169049D01*
X47369048Y-67169049D01*
X47445238Y-67207144D01*
X47483333Y-67245239D01*
X47521429Y-67321430D01*
X47521429Y-67473811D01*
X47483333Y-67550001D01*
X47026190Y-68197620D02*
X46988095Y-68121430D01*
X46988095Y-67969049D01*
X47026190Y-67892858D01*
X47102381Y-67854763D01*
X47407143Y-67854763D01*
X47483333Y-67892858D01*
X47521429Y-67969049D01*
X47521429Y-68121430D01*
X47483333Y-68197620D01*
X47407143Y-68235715D01*
X47330952Y-68235715D01*
X47254762Y-67854763D01*
X47521429Y-68921429D02*
X46988095Y-68921429D01*
X47826190Y-68730953D02*
X47254762Y-68540477D01*
X47254762Y-69035715D01*
X46988095Y-69340477D02*
X47788095Y-69340477D01*
X46988095Y-69797620D02*
X47445238Y-69454763D01*
X47788095Y-69797620D02*
X47330952Y-69340477D01*
X46988095Y-70140477D02*
X47521429Y-70140477D01*
X47788095Y-70140477D02*
X47750000Y-70102382D01*
X47711905Y-70140477D01*
X47750000Y-70178572D01*
X47788095Y-70140477D01*
X47711905Y-70140477D01*
X46988095Y-70864286D02*
X47788095Y-70864286D01*
X47026190Y-70864286D02*
X46988095Y-70788096D01*
X46988095Y-70635715D01*
X47026190Y-70559524D01*
X47064286Y-70521429D01*
X47140476Y-70483334D01*
X47369048Y-70483334D01*
X47445238Y-70521429D01*
X47483333Y-70559524D01*
X47521429Y-70635715D01*
X47521429Y-70788096D01*
X47483333Y-70864286D01*
X47026190Y-71207144D02*
X46988095Y-71283334D01*
X46988095Y-71435715D01*
X47026190Y-71511906D01*
X47102381Y-71550001D01*
X47140476Y-71550001D01*
X47216667Y-71511906D01*
X47254762Y-71435715D01*
X47254762Y-71321430D01*
X47292857Y-71245239D01*
X47369048Y-71207144D01*
X47407143Y-71207144D01*
X47483333Y-71245239D01*
X47521429Y-71321430D01*
X47521429Y-71435715D01*
X47483333Y-71511906D01*
X47026190Y-72807144D02*
X46988095Y-72730954D01*
X46988095Y-72578573D01*
X47026190Y-72502382D01*
X47102381Y-72464287D01*
X47407143Y-72464287D01*
X47483333Y-72502382D01*
X47521429Y-72578573D01*
X47521429Y-72730954D01*
X47483333Y-72807144D01*
X47407143Y-72845239D01*
X47330952Y-72845239D01*
X47254762Y-72464287D01*
X47521429Y-73188096D02*
X46988095Y-73188096D01*
X47445238Y-73188096D02*
X47483333Y-73226191D01*
X47521429Y-73302382D01*
X47521429Y-73416668D01*
X47483333Y-73492858D01*
X47407143Y-73530953D01*
X46988095Y-73530953D01*
X47407143Y-74521430D02*
X47407143Y-74788097D01*
X46988095Y-74902383D02*
X46988095Y-74521430D01*
X47788095Y-74521430D01*
X47788095Y-74902383D01*
X46988095Y-75588097D02*
X47407143Y-75588097D01*
X47483333Y-75550002D01*
X47521429Y-75473812D01*
X47521429Y-75321431D01*
X47483333Y-75245240D01*
X47026190Y-75588097D02*
X46988095Y-75511907D01*
X46988095Y-75321431D01*
X47026190Y-75245240D01*
X47102381Y-75207145D01*
X47178571Y-75207145D01*
X47254762Y-75245240D01*
X47292857Y-75321431D01*
X47292857Y-75511907D01*
X47330952Y-75588097D01*
X47026190Y-75930955D02*
X46988095Y-76007145D01*
X46988095Y-76159526D01*
X47026190Y-76235717D01*
X47102381Y-76273812D01*
X47140476Y-76273812D01*
X47216667Y-76235717D01*
X47254762Y-76159526D01*
X47254762Y-76045241D01*
X47292857Y-75969050D01*
X47369048Y-75930955D01*
X47407143Y-75930955D01*
X47483333Y-75969050D01*
X47521429Y-76045241D01*
X47521429Y-76159526D01*
X47483333Y-76235717D01*
X47521429Y-76540479D02*
X46988095Y-76730955D01*
X47521429Y-76921431D02*
X46988095Y-76730955D01*
X46797619Y-76654764D01*
X46759524Y-76616669D01*
X46721429Y-76540479D01*
X46988095Y-77607146D02*
X46988095Y-77226193D01*
X47788095Y-77226193D01*
X46988095Y-78216669D02*
X47407143Y-78216669D01*
X47483333Y-78178574D01*
X47521429Y-78102384D01*
X47521429Y-77950003D01*
X47483333Y-77873812D01*
X47026190Y-78216669D02*
X46988095Y-78140479D01*
X46988095Y-77950003D01*
X47026190Y-77873812D01*
X47102381Y-77835717D01*
X47178571Y-77835717D01*
X47254762Y-77873812D01*
X47292857Y-77950003D01*
X47292857Y-78140479D01*
X47330952Y-78216669D01*
X46988095Y-78597622D02*
X47788095Y-78597622D01*
X47483333Y-78597622D02*
X47521429Y-78673813D01*
X47521429Y-78826194D01*
X47483333Y-78902384D01*
X47445238Y-78940479D01*
X47369048Y-78978575D01*
X47140476Y-78978575D01*
X47064286Y-78940479D01*
X47026190Y-78902384D01*
X46988095Y-78826194D01*
X46988095Y-78673813D01*
X47026190Y-78597622D01*
X47521429Y-79664289D02*
X46988095Y-79664289D01*
X47826190Y-79473813D02*
X47254762Y-79283337D01*
X47254762Y-79778575D01*
X46988095Y-80083337D02*
X47788095Y-80083337D01*
X46988095Y-80540480D02*
X47445238Y-80197623D01*
X47788095Y-80540480D02*
X47330952Y-80083337D01*
X46988095Y-80883337D02*
X47521429Y-80883337D01*
X47788095Y-80883337D02*
X47750000Y-80845242D01*
X47711905Y-80883337D01*
X47750000Y-80921432D01*
X47788095Y-80883337D01*
X47711905Y-80883337D01*
X46988095Y-81607146D02*
X47788095Y-81607146D01*
X47026190Y-81607146D02*
X46988095Y-81530956D01*
X46988095Y-81378575D01*
X47026190Y-81302384D01*
X47064286Y-81264289D01*
X47140476Y-81226194D01*
X47369048Y-81226194D01*
X47445238Y-81264289D01*
X47483333Y-81302384D01*
X47521429Y-81378575D01*
X47521429Y-81530956D01*
X47483333Y-81607146D01*
X47026190Y-81950004D02*
X46988095Y-82026194D01*
X46988095Y-82178575D01*
X47026190Y-82254766D01*
X47102381Y-82292861D01*
X47140476Y-82292861D01*
X47216667Y-82254766D01*
X47254762Y-82178575D01*
X47254762Y-82064290D01*
X47292857Y-81988099D01*
X47369048Y-81950004D01*
X47407143Y-81950004D01*
X47483333Y-81988099D01*
X47521429Y-82064290D01*
X47521429Y-82178575D01*
X47483333Y-82254766D01*
X44988095Y-58864286D02*
X44188095Y-59054762D01*
X44759524Y-59207143D01*
X44188095Y-59359524D01*
X44988095Y-59550000D01*
X44264286Y-59854762D02*
X44226190Y-59892857D01*
X44188095Y-59854762D01*
X44226190Y-59816667D01*
X44264286Y-59854762D01*
X44188095Y-59854762D01*
X44683333Y-59854762D02*
X44645238Y-59892857D01*
X44607143Y-59854762D01*
X44645238Y-59816667D01*
X44683333Y-59854762D01*
X44607143Y-59854762D01*
X44188095Y-60845238D02*
X44988095Y-60845238D01*
X44188095Y-61188095D02*
X44607143Y-61188095D01*
X44683333Y-61150000D01*
X44721429Y-61073810D01*
X44721429Y-60959524D01*
X44683333Y-60883333D01*
X44645238Y-60845238D01*
X44721429Y-61454762D02*
X44721429Y-61759524D01*
X44988095Y-61569048D02*
X44302381Y-61569048D01*
X44226190Y-61607143D01*
X44188095Y-61683334D01*
X44188095Y-61759524D01*
X44721429Y-61911905D02*
X44721429Y-62216667D01*
X44988095Y-62026191D02*
X44302381Y-62026191D01*
X44226190Y-62064286D01*
X44188095Y-62140477D01*
X44188095Y-62216667D01*
X44721429Y-62483334D02*
X43921429Y-62483334D01*
X44683333Y-62483334D02*
X44721429Y-62559525D01*
X44721429Y-62711906D01*
X44683333Y-62788096D01*
X44645238Y-62826191D01*
X44569048Y-62864287D01*
X44340476Y-62864287D01*
X44264286Y-62826191D01*
X44226190Y-62788096D01*
X44188095Y-62711906D01*
X44188095Y-62559525D01*
X44226190Y-62483334D01*
X44264286Y-63207144D02*
X44226190Y-63245239D01*
X44188095Y-63207144D01*
X44226190Y-63169049D01*
X44264286Y-63207144D01*
X44188095Y-63207144D01*
X44683333Y-63207144D02*
X44645238Y-63245239D01*
X44607143Y-63207144D01*
X44645238Y-63169049D01*
X44683333Y-63207144D01*
X44607143Y-63207144D01*
X45026190Y-64159525D02*
X43997619Y-63473810D01*
X45026190Y-64997620D02*
X43997619Y-64311905D01*
X44226190Y-65226191D02*
X44188095Y-65302381D01*
X44188095Y-65454762D01*
X44226190Y-65530953D01*
X44302381Y-65569048D01*
X44340476Y-65569048D01*
X44416667Y-65530953D01*
X44454762Y-65454762D01*
X44454762Y-65340477D01*
X44492857Y-65264286D01*
X44569048Y-65226191D01*
X44607143Y-65226191D01*
X44683333Y-65264286D01*
X44721429Y-65340477D01*
X44721429Y-65454762D01*
X44683333Y-65530953D01*
X44226190Y-66254762D02*
X44188095Y-66178572D01*
X44188095Y-66026191D01*
X44226190Y-65950000D01*
X44264286Y-65911905D01*
X44340476Y-65873810D01*
X44569048Y-65873810D01*
X44645238Y-65911905D01*
X44683333Y-65950000D01*
X44721429Y-66026191D01*
X44721429Y-66178572D01*
X44683333Y-66254762D01*
X44188095Y-66597619D02*
X44721429Y-66597619D01*
X44988095Y-66597619D02*
X44950000Y-66559524D01*
X44911905Y-66597619D01*
X44950000Y-66635714D01*
X44988095Y-66597619D01*
X44911905Y-66597619D01*
X44226190Y-67283333D02*
X44188095Y-67207143D01*
X44188095Y-67054762D01*
X44226190Y-66978571D01*
X44302381Y-66940476D01*
X44607143Y-66940476D01*
X44683333Y-66978571D01*
X44721429Y-67054762D01*
X44721429Y-67207143D01*
X44683333Y-67283333D01*
X44607143Y-67321428D01*
X44530952Y-67321428D01*
X44454762Y-66940476D01*
X44721429Y-67664285D02*
X44188095Y-67664285D01*
X44645238Y-67664285D02*
X44683333Y-67702380D01*
X44721429Y-67778571D01*
X44721429Y-67892857D01*
X44683333Y-67969047D01*
X44607143Y-68007142D01*
X44188095Y-68007142D01*
X44226190Y-68730952D02*
X44188095Y-68654762D01*
X44188095Y-68502381D01*
X44226190Y-68426190D01*
X44264286Y-68388095D01*
X44340476Y-68350000D01*
X44569048Y-68350000D01*
X44645238Y-68388095D01*
X44683333Y-68426190D01*
X44721429Y-68502381D01*
X44721429Y-68654762D01*
X44683333Y-68730952D01*
X44226190Y-69378571D02*
X44188095Y-69302381D01*
X44188095Y-69150000D01*
X44226190Y-69073809D01*
X44302381Y-69035714D01*
X44607143Y-69035714D01*
X44683333Y-69073809D01*
X44721429Y-69150000D01*
X44721429Y-69302381D01*
X44683333Y-69378571D01*
X44607143Y-69416666D01*
X44530952Y-69416666D01*
X44454762Y-69035714D01*
X44721429Y-70102380D02*
X44188095Y-70102380D01*
X45026190Y-69911904D02*
X44454762Y-69721428D01*
X44454762Y-70216666D01*
X44188095Y-70521428D02*
X44988095Y-70521428D01*
X44492857Y-70597619D02*
X44188095Y-70826190D01*
X44721429Y-70826190D02*
X44416667Y-70521428D01*
X44188095Y-71169047D02*
X44721429Y-71169047D01*
X44988095Y-71169047D02*
X44950000Y-71130952D01*
X44911905Y-71169047D01*
X44950000Y-71207142D01*
X44988095Y-71169047D01*
X44911905Y-71169047D01*
X44188095Y-71892856D02*
X44988095Y-71892856D01*
X44226190Y-71892856D02*
X44188095Y-71816666D01*
X44188095Y-71664285D01*
X44226190Y-71588094D01*
X44264286Y-71549999D01*
X44340476Y-71511904D01*
X44569048Y-71511904D01*
X44645238Y-71549999D01*
X44683333Y-71588094D01*
X44721429Y-71664285D01*
X44721429Y-71816666D01*
X44683333Y-71892856D01*
X44226190Y-72235714D02*
X44188095Y-72311904D01*
X44188095Y-72464285D01*
X44226190Y-72540476D01*
X44302381Y-72578571D01*
X44340476Y-72578571D01*
X44416667Y-72540476D01*
X44454762Y-72464285D01*
X44454762Y-72350000D01*
X44492857Y-72273809D01*
X44569048Y-72235714D01*
X44607143Y-72235714D01*
X44683333Y-72273809D01*
X44721429Y-72350000D01*
X44721429Y-72464285D01*
X44683333Y-72540476D01*
X44264286Y-72921428D02*
X44226190Y-72959523D01*
X44188095Y-72921428D01*
X44226190Y-72883333D01*
X44264286Y-72921428D01*
X44188095Y-72921428D01*
X44721429Y-73302380D02*
X44188095Y-73302380D01*
X44645238Y-73302380D02*
X44683333Y-73340475D01*
X44721429Y-73416666D01*
X44721429Y-73530952D01*
X44683333Y-73607142D01*
X44607143Y-73645237D01*
X44188095Y-73645237D01*
X44188095Y-74140476D02*
X44226190Y-74064285D01*
X44302381Y-74026190D01*
X44988095Y-74026190D01*
X43207143Y-58940476D02*
X43207143Y-59207143D01*
X42788095Y-59321429D02*
X42788095Y-58940476D01*
X43588095Y-58940476D01*
X43588095Y-59321429D01*
X42864286Y-59664286D02*
X42826190Y-59702381D01*
X42788095Y-59664286D01*
X42826190Y-59626191D01*
X42864286Y-59664286D01*
X42788095Y-59664286D01*
X43283333Y-59664286D02*
X43245238Y-59702381D01*
X43207143Y-59664286D01*
X43245238Y-59626191D01*
X43283333Y-59664286D01*
X43207143Y-59664286D01*
X42788095Y-60654762D02*
X43321429Y-60654762D01*
X43245238Y-60654762D02*
X43283333Y-60692857D01*
X43321429Y-60769048D01*
X43321429Y-60883334D01*
X43283333Y-60959524D01*
X43207143Y-60997619D01*
X42788095Y-60997619D01*
X43207143Y-60997619D02*
X43283333Y-61035715D01*
X43321429Y-61111905D01*
X43321429Y-61226191D01*
X43283333Y-61302381D01*
X43207143Y-61340476D01*
X42788095Y-61340476D01*
X42788095Y-61721429D02*
X43321429Y-61721429D01*
X43588095Y-61721429D02*
X43550000Y-61683334D01*
X43511905Y-61721429D01*
X43550000Y-61759524D01*
X43588095Y-61721429D01*
X43511905Y-61721429D01*
X42826190Y-62445238D02*
X42788095Y-62369048D01*
X42788095Y-62216667D01*
X42826190Y-62140476D01*
X42864286Y-62102381D01*
X42940476Y-62064286D01*
X43169048Y-62064286D01*
X43245238Y-62102381D01*
X43283333Y-62140476D01*
X43321429Y-62216667D01*
X43321429Y-62369048D01*
X43283333Y-62445238D01*
X42788095Y-62788095D02*
X43588095Y-62788095D01*
X42788095Y-63130952D02*
X43207143Y-63130952D01*
X43283333Y-63092857D01*
X43321429Y-63016667D01*
X43321429Y-62902381D01*
X43283333Y-62826190D01*
X43245238Y-62788095D01*
X42788095Y-63511905D02*
X43321429Y-63511905D01*
X43588095Y-63511905D02*
X43550000Y-63473810D01*
X43511905Y-63511905D01*
X43550000Y-63550000D01*
X43588095Y-63511905D01*
X43511905Y-63511905D01*
X42826190Y-64197619D02*
X42788095Y-64121429D01*
X42788095Y-63969048D01*
X42826190Y-63892857D01*
X42902381Y-63854762D01*
X43207143Y-63854762D01*
X43283333Y-63892857D01*
X43321429Y-63969048D01*
X43321429Y-64121429D01*
X43283333Y-64197619D01*
X43207143Y-64235714D01*
X43130952Y-64235714D01*
X43054762Y-63854762D01*
X42788095Y-64692857D02*
X42826190Y-64616666D01*
X42902381Y-64578571D01*
X43588095Y-64578571D01*
X42864286Y-64997619D02*
X42826190Y-65035714D01*
X42788095Y-64997619D01*
X42826190Y-64959524D01*
X42864286Y-64997619D01*
X42788095Y-64997619D01*
X42826190Y-65683333D02*
X42788095Y-65607143D01*
X42788095Y-65454762D01*
X42826190Y-65378571D01*
X42902381Y-65340476D01*
X43207143Y-65340476D01*
X43283333Y-65378571D01*
X43321429Y-65454762D01*
X43321429Y-65607143D01*
X43283333Y-65683333D01*
X43207143Y-65721428D01*
X43130952Y-65721428D01*
X43054762Y-65340476D01*
X42788095Y-66064285D02*
X43321429Y-66064285D01*
X43169048Y-66064285D02*
X43245238Y-66102380D01*
X43283333Y-66140476D01*
X43321429Y-66216666D01*
X43321429Y-66292857D01*
X42788095Y-66902380D02*
X43207143Y-66902380D01*
X43283333Y-66864285D01*
X43321429Y-66788095D01*
X43321429Y-66635714D01*
X43283333Y-66559523D01*
X42826190Y-66902380D02*
X42788095Y-66826190D01*
X42788095Y-66635714D01*
X42826190Y-66559523D01*
X42902381Y-66521428D01*
X42978571Y-66521428D01*
X43054762Y-66559523D01*
X43092857Y-66635714D01*
X43092857Y-66826190D01*
X43130952Y-66902380D01*
X42826190Y-67245238D02*
X42788095Y-67321428D01*
X42788095Y-67473809D01*
X42826190Y-67550000D01*
X42902381Y-67588095D01*
X42940476Y-67588095D01*
X43016667Y-67550000D01*
X43054762Y-67473809D01*
X43054762Y-67359524D01*
X43092857Y-67283333D01*
X43169048Y-67245238D01*
X43207143Y-67245238D01*
X43283333Y-67283333D01*
X43321429Y-67359524D01*
X43321429Y-67473809D01*
X43283333Y-67550000D01*
X42788095Y-67930952D02*
X43321429Y-67930952D01*
X43245238Y-67930952D02*
X43283333Y-67969047D01*
X43321429Y-68045238D01*
X43321429Y-68159524D01*
X43283333Y-68235714D01*
X43207143Y-68273809D01*
X42788095Y-68273809D01*
X43207143Y-68273809D02*
X43283333Y-68311905D01*
X43321429Y-68388095D01*
X43321429Y-68502381D01*
X43283333Y-68578571D01*
X43207143Y-68616666D01*
X42788095Y-68616666D01*
X43321429Y-69340476D02*
X42788095Y-69340476D01*
X43321429Y-68997619D02*
X42902381Y-68997619D01*
X42826190Y-69035714D01*
X42788095Y-69111905D01*
X42788095Y-69226191D01*
X42826190Y-69302381D01*
X42864286Y-69340476D01*
X42826190Y-69683334D02*
X42788095Y-69759524D01*
X42788095Y-69911905D01*
X42826190Y-69988096D01*
X42902381Y-70026191D01*
X42940476Y-70026191D01*
X43016667Y-69988096D01*
X43054762Y-69911905D01*
X43054762Y-69797620D01*
X43092857Y-69721429D01*
X43169048Y-69683334D01*
X43207143Y-69683334D01*
X43283333Y-69721429D01*
X43321429Y-69797620D01*
X43321429Y-69911905D01*
X43283333Y-69988096D01*
X43169048Y-70864286D02*
X43207143Y-70826191D01*
X43245238Y-70750001D01*
X43245238Y-70673810D01*
X43207143Y-70597620D01*
X43169048Y-70559524D01*
X43092857Y-70521429D01*
X43016667Y-70521429D01*
X42940476Y-70559524D01*
X42902381Y-70597620D01*
X42864286Y-70673810D01*
X42864286Y-70750001D01*
X42902381Y-70826191D01*
X42940476Y-70864286D01*
X43245238Y-70864286D02*
X42940476Y-70864286D01*
X42902381Y-70902382D01*
X42902381Y-70940477D01*
X42940476Y-71016667D01*
X43016667Y-71054762D01*
X43207143Y-71054762D01*
X43321429Y-70978572D01*
X43397619Y-70864286D01*
X43435714Y-70711905D01*
X43397619Y-70559524D01*
X43321429Y-70445239D01*
X43207143Y-70369048D01*
X43054762Y-70330953D01*
X42902381Y-70369048D01*
X42788095Y-70445239D01*
X42711905Y-70559524D01*
X42673810Y-70711905D01*
X42711905Y-70864286D01*
X42788095Y-70978572D01*
X42826190Y-71359524D02*
X42788095Y-71435714D01*
X42788095Y-71588095D01*
X42826190Y-71664286D01*
X42902381Y-71702381D01*
X42940476Y-71702381D01*
X43016667Y-71664286D01*
X43054762Y-71588095D01*
X43054762Y-71473810D01*
X43092857Y-71397619D01*
X43169048Y-71359524D01*
X43207143Y-71359524D01*
X43283333Y-71397619D01*
X43321429Y-71473810D01*
X43321429Y-71588095D01*
X43283333Y-71664286D01*
X42826190Y-72388095D02*
X42788095Y-72311905D01*
X42788095Y-72159524D01*
X42826190Y-72083333D01*
X42864286Y-72045238D01*
X42940476Y-72007143D01*
X43169048Y-72007143D01*
X43245238Y-72045238D01*
X43283333Y-72083333D01*
X43321429Y-72159524D01*
X43321429Y-72311905D01*
X43283333Y-72388095D01*
X42788095Y-72730952D02*
X43321429Y-72730952D01*
X43588095Y-72730952D02*
X43550000Y-72692857D01*
X43511905Y-72730952D01*
X43550000Y-72769047D01*
X43588095Y-72730952D01*
X43511905Y-72730952D01*
X42826190Y-73416666D02*
X42788095Y-73340476D01*
X42788095Y-73188095D01*
X42826190Y-73111904D01*
X42902381Y-73073809D01*
X43207143Y-73073809D01*
X43283333Y-73111904D01*
X43321429Y-73188095D01*
X43321429Y-73340476D01*
X43283333Y-73416666D01*
X43207143Y-73454761D01*
X43130952Y-73454761D01*
X43054762Y-73073809D01*
X43321429Y-73797618D02*
X42788095Y-73797618D01*
X43245238Y-73797618D02*
X43283333Y-73835713D01*
X43321429Y-73911904D01*
X43321429Y-74026190D01*
X43283333Y-74102380D01*
X43207143Y-74140475D01*
X42788095Y-74140475D01*
X42826190Y-74864285D02*
X42788095Y-74788095D01*
X42788095Y-74635714D01*
X42826190Y-74559523D01*
X42864286Y-74521428D01*
X42940476Y-74483333D01*
X43169048Y-74483333D01*
X43245238Y-74521428D01*
X43283333Y-74559523D01*
X43321429Y-74635714D01*
X43321429Y-74788095D01*
X43283333Y-74864285D01*
X42826190Y-75511904D02*
X42788095Y-75435714D01*
X42788095Y-75283333D01*
X42826190Y-75207142D01*
X42902381Y-75169047D01*
X43207143Y-75169047D01*
X43283333Y-75207142D01*
X43321429Y-75283333D01*
X43321429Y-75435714D01*
X43283333Y-75511904D01*
X43207143Y-75549999D01*
X43130952Y-75549999D01*
X43054762Y-75169047D01*
X43321429Y-76235713D02*
X42788095Y-76235713D01*
X43626190Y-76045237D02*
X43054762Y-75854761D01*
X43054762Y-76349999D01*
X42788095Y-76654761D02*
X43588095Y-76654761D01*
X43092857Y-76730952D02*
X42788095Y-76959523D01*
X43321429Y-76959523D02*
X43016667Y-76654761D01*
X42788095Y-77302380D02*
X43321429Y-77302380D01*
X43588095Y-77302380D02*
X43550000Y-77264285D01*
X43511905Y-77302380D01*
X43550000Y-77340475D01*
X43588095Y-77302380D01*
X43511905Y-77302380D01*
X42788095Y-78026189D02*
X43588095Y-78026189D01*
X42826190Y-78026189D02*
X42788095Y-77949999D01*
X42788095Y-77797618D01*
X42826190Y-77721427D01*
X42864286Y-77683332D01*
X42940476Y-77645237D01*
X43169048Y-77645237D01*
X43245238Y-77683332D01*
X43283333Y-77721427D01*
X43321429Y-77797618D01*
X43321429Y-77949999D01*
X43283333Y-78026189D01*
X42826190Y-78369047D02*
X42788095Y-78445237D01*
X42788095Y-78597618D01*
X42826190Y-78673809D01*
X42902381Y-78711904D01*
X42940476Y-78711904D01*
X43016667Y-78673809D01*
X43054762Y-78597618D01*
X43054762Y-78483333D01*
X43092857Y-78407142D01*
X43169048Y-78369047D01*
X43207143Y-78369047D01*
X43283333Y-78407142D01*
X43321429Y-78483333D01*
X43321429Y-78597618D01*
X43283333Y-78673809D01*
X42864286Y-79054761D02*
X42826190Y-79092856D01*
X42788095Y-79054761D01*
X42826190Y-79016666D01*
X42864286Y-79054761D01*
X42788095Y-79054761D01*
X43321429Y-79435713D02*
X42788095Y-79435713D01*
X43245238Y-79435713D02*
X43283333Y-79473808D01*
X43321429Y-79549999D01*
X43321429Y-79664285D01*
X43283333Y-79740475D01*
X43207143Y-79778570D01*
X42788095Y-79778570D01*
X42788095Y-80273809D02*
X42826190Y-80197618D01*
X42902381Y-80159523D01*
X43588095Y-80159523D01*
X42188095Y-58826190D02*
X42188095Y-59283333D01*
X41388095Y-59054762D02*
X42188095Y-59054762D01*
X41464286Y-59550000D02*
X41426190Y-59588095D01*
X41388095Y-59550000D01*
X41426190Y-59511905D01*
X41464286Y-59550000D01*
X41388095Y-59550000D01*
X41883333Y-59550000D02*
X41845238Y-59588095D01*
X41807143Y-59550000D01*
X41845238Y-59511905D01*
X41883333Y-59550000D01*
X41807143Y-59550000D01*
X41692857Y-60540476D02*
X41692857Y-61150000D01*
X41388095Y-60845238D02*
X41997619Y-60845238D01*
X42188095Y-61454762D02*
X42188095Y-61950000D01*
X41883333Y-61683333D01*
X41883333Y-61797619D01*
X41845238Y-61873809D01*
X41807143Y-61911905D01*
X41730952Y-61950000D01*
X41540476Y-61950000D01*
X41464286Y-61911905D01*
X41426190Y-61873809D01*
X41388095Y-61797619D01*
X41388095Y-61569047D01*
X41426190Y-61492857D01*
X41464286Y-61454762D01*
X41388095Y-62711905D02*
X41388095Y-62254762D01*
X41388095Y-62483333D02*
X42188095Y-62483333D01*
X42073810Y-62407143D01*
X41997619Y-62330952D01*
X41959524Y-62254762D01*
X42188095Y-63397619D02*
X42188095Y-63245238D01*
X42150000Y-63169048D01*
X42111905Y-63130953D01*
X41997619Y-63054762D01*
X41845238Y-63016667D01*
X41540476Y-63016667D01*
X41464286Y-63054762D01*
X41426190Y-63092857D01*
X41388095Y-63169048D01*
X41388095Y-63321429D01*
X41426190Y-63397619D01*
X41464286Y-63435715D01*
X41540476Y-63473810D01*
X41730952Y-63473810D01*
X41807143Y-63435715D01*
X41845238Y-63397619D01*
X41883333Y-63321429D01*
X41883333Y-63169048D01*
X41845238Y-63092857D01*
X41807143Y-63054762D01*
X41730952Y-63016667D01*
X42188095Y-63740477D02*
X42188095Y-64235715D01*
X41883333Y-63969048D01*
X41883333Y-64083334D01*
X41845238Y-64159524D01*
X41807143Y-64197620D01*
X41730952Y-64235715D01*
X41540476Y-64235715D01*
X41464286Y-64197620D01*
X41426190Y-64159524D01*
X41388095Y-64083334D01*
X41388095Y-63854762D01*
X41426190Y-63778572D01*
X41464286Y-63740477D01*
X41845238Y-64692858D02*
X41883333Y-64616667D01*
X41921429Y-64578572D01*
X41997619Y-64540477D01*
X42035714Y-64540477D01*
X42111905Y-64578572D01*
X42150000Y-64616667D01*
X42188095Y-64692858D01*
X42188095Y-64845239D01*
X42150000Y-64921429D01*
X42111905Y-64959525D01*
X42035714Y-64997620D01*
X41997619Y-64997620D01*
X41921429Y-64959525D01*
X41883333Y-64921429D01*
X41845238Y-64845239D01*
X41845238Y-64692858D01*
X41807143Y-64616667D01*
X41769048Y-64578572D01*
X41692857Y-64540477D01*
X41540476Y-64540477D01*
X41464286Y-64578572D01*
X41426190Y-64616667D01*
X41388095Y-64692858D01*
X41388095Y-64845239D01*
X41426190Y-64921429D01*
X41464286Y-64959525D01*
X41540476Y-64997620D01*
X41692857Y-64997620D01*
X41769048Y-64959525D01*
X41807143Y-64921429D01*
X41845238Y-64845239D01*
X42188095Y-65264287D02*
X42188095Y-65759525D01*
X41883333Y-65492858D01*
X41883333Y-65607144D01*
X41845238Y-65683334D01*
X41807143Y-65721430D01*
X41730952Y-65759525D01*
X41540476Y-65759525D01*
X41464286Y-65721430D01*
X41426190Y-65683334D01*
X41388095Y-65607144D01*
X41388095Y-65378572D01*
X41426190Y-65302382D01*
X41464286Y-65264287D01*
X42188095Y-66445239D02*
X42188095Y-66292858D01*
X42150000Y-66216668D01*
X42111905Y-66178573D01*
X41997619Y-66102382D01*
X41845238Y-66064287D01*
X41540476Y-66064287D01*
X41464286Y-66102382D01*
X41426190Y-66140477D01*
X41388095Y-66216668D01*
X41388095Y-66369049D01*
X41426190Y-66445239D01*
X41464286Y-66483335D01*
X41540476Y-66521430D01*
X41730952Y-66521430D01*
X41807143Y-66483335D01*
X41845238Y-66445239D01*
X41883333Y-66369049D01*
X41883333Y-66216668D01*
X41845238Y-66140477D01*
X41807143Y-66102382D01*
X41730952Y-66064287D01*
X41388095Y-66902382D02*
X41388095Y-67054763D01*
X41426190Y-67130954D01*
X41464286Y-67169049D01*
X41578571Y-67245240D01*
X41730952Y-67283335D01*
X42035714Y-67283335D01*
X42111905Y-67245240D01*
X42150000Y-67207144D01*
X42188095Y-67130954D01*
X42188095Y-66978573D01*
X42150000Y-66902382D01*
X42111905Y-66864287D01*
X42035714Y-66826192D01*
X41845238Y-66826192D01*
X41769048Y-66864287D01*
X41730952Y-66902382D01*
X41692857Y-66978573D01*
X41692857Y-67130954D01*
X41730952Y-67207144D01*
X41769048Y-67245240D01*
X41845238Y-67283335D01*
X42111905Y-67588097D02*
X42150000Y-67626192D01*
X42188095Y-67702383D01*
X42188095Y-67892859D01*
X42150000Y-67969049D01*
X42111905Y-68007145D01*
X42035714Y-68045240D01*
X41959524Y-68045240D01*
X41845238Y-68007145D01*
X41388095Y-67550002D01*
X41388095Y-68045240D01*
X42188095Y-68730954D02*
X42188095Y-68578573D01*
X42150000Y-68502383D01*
X42111905Y-68464288D01*
X41997619Y-68388097D01*
X41845238Y-68350002D01*
X41540476Y-68350002D01*
X41464286Y-68388097D01*
X41426190Y-68426192D01*
X41388095Y-68502383D01*
X41388095Y-68654764D01*
X41426190Y-68730954D01*
X41464286Y-68769050D01*
X41540476Y-68807145D01*
X41730952Y-68807145D01*
X41807143Y-68769050D01*
X41845238Y-68730954D01*
X41883333Y-68654764D01*
X41883333Y-68502383D01*
X41845238Y-68426192D01*
X41807143Y-68388097D01*
X41730952Y-68350002D01*
X42188095Y-69302383D02*
X42188095Y-69378574D01*
X42150000Y-69454764D01*
X42111905Y-69492859D01*
X42035714Y-69530955D01*
X41883333Y-69569050D01*
X41692857Y-69569050D01*
X41540476Y-69530955D01*
X41464286Y-69492859D01*
X41426190Y-69454764D01*
X41388095Y-69378574D01*
X41388095Y-69302383D01*
X41426190Y-69226193D01*
X41464286Y-69188097D01*
X41540476Y-69150002D01*
X41692857Y-69111907D01*
X41883333Y-69111907D01*
X42035714Y-69150002D01*
X42111905Y-69188097D01*
X42150000Y-69226193D01*
X42188095Y-69302383D01*
D12*
X75300000Y-105657143D02*
X75300000Y-104757143D01*
X75600000Y-105400000D01*
X75900000Y-104757143D01*
X75900000Y-105657143D01*
X76328571Y-105657143D02*
X76328571Y-105057143D01*
X76328571Y-104757143D02*
X76285714Y-104800000D01*
X76328571Y-104842857D01*
X76371428Y-104800000D01*
X76328571Y-104757143D01*
X76328571Y-104842857D01*
X77142856Y-105614286D02*
X77057142Y-105657143D01*
X76885713Y-105657143D01*
X76799999Y-105614286D01*
X76757142Y-105571429D01*
X76714285Y-105485714D01*
X76714285Y-105228571D01*
X76757142Y-105142857D01*
X76799999Y-105100000D01*
X76885713Y-105057143D01*
X77057142Y-105057143D01*
X77142856Y-105100000D01*
X77528571Y-105657143D02*
X77528571Y-105057143D01*
X77528571Y-105228571D02*
X77571428Y-105142857D01*
X77614285Y-105100000D01*
X77699999Y-105057143D01*
X77785714Y-105057143D01*
X78214285Y-105657143D02*
X78128571Y-105614286D01*
X78085714Y-105571429D01*
X78042857Y-105485714D01*
X78042857Y-105228571D01*
X78085714Y-105142857D01*
X78128571Y-105100000D01*
X78214285Y-105057143D01*
X78342857Y-105057143D01*
X78428571Y-105100000D01*
X78471428Y-105142857D01*
X78514285Y-105228571D01*
X78514285Y-105485714D01*
X78471428Y-105571429D01*
X78428571Y-105614286D01*
X78342857Y-105657143D01*
X78214285Y-105657143D01*
X78900000Y-105657143D02*
X78900000Y-104757143D01*
X78900000Y-105100000D02*
X78985714Y-105057143D01*
X79157143Y-105057143D01*
X79242857Y-105100000D01*
X79285714Y-105142857D01*
X79328571Y-105228571D01*
X79328571Y-105485714D01*
X79285714Y-105571429D01*
X79242857Y-105614286D01*
X79157143Y-105657143D01*
X78985714Y-105657143D01*
X78900000Y-105614286D01*
X79714286Y-105657143D02*
X79714286Y-105057143D01*
X79714286Y-104757143D02*
X79671429Y-104800000D01*
X79714286Y-104842857D01*
X79757143Y-104800000D01*
X79714286Y-104757143D01*
X79714286Y-104842857D01*
X80014285Y-105057143D02*
X80357142Y-105057143D01*
X80142857Y-104757143D02*
X80142857Y-105528571D01*
X80185714Y-105614286D01*
X80271428Y-105657143D01*
X80357142Y-105657143D01*
X81728571Y-105057143D02*
X81728571Y-105785714D01*
X81685714Y-105871429D01*
X81642857Y-105914286D01*
X81557142Y-105957143D01*
X81428571Y-105957143D01*
X81342857Y-105914286D01*
X81728571Y-105614286D02*
X81642857Y-105657143D01*
X81471428Y-105657143D01*
X81385714Y-105614286D01*
X81342857Y-105571429D01*
X81300000Y-105485714D01*
X81300000Y-105228571D01*
X81342857Y-105142857D01*
X81385714Y-105100000D01*
X81471428Y-105057143D01*
X81642857Y-105057143D01*
X81728571Y-105100000D01*
X82500000Y-105614286D02*
X82414286Y-105657143D01*
X82242857Y-105657143D01*
X82157143Y-105614286D01*
X82114286Y-105528571D01*
X82114286Y-105185714D01*
X82157143Y-105100000D01*
X82242857Y-105057143D01*
X82414286Y-105057143D01*
X82500000Y-105100000D01*
X82542857Y-105185714D01*
X82542857Y-105271429D01*
X82114286Y-105357143D01*
X83057143Y-105657143D02*
X82971429Y-105614286D01*
X82928572Y-105528571D01*
X82928572Y-104757143D01*
X83785715Y-105057143D02*
X83785715Y-105657143D01*
X83400001Y-105057143D02*
X83400001Y-105528571D01*
X83442858Y-105614286D01*
X83528572Y-105657143D01*
X83657144Y-105657143D01*
X83742858Y-105614286D01*
X83785715Y-105571429D01*
X84214287Y-105657143D02*
X84214287Y-105057143D01*
X84214287Y-104757143D02*
X84171430Y-104800000D01*
X84214287Y-104842857D01*
X84257144Y-104800000D01*
X84214287Y-104757143D01*
X84214287Y-104842857D01*
X85028572Y-105657143D02*
X85028572Y-104757143D01*
X85028572Y-105614286D02*
X84942858Y-105657143D01*
X84771429Y-105657143D01*
X84685715Y-105614286D01*
X84642858Y-105571429D01*
X84600001Y-105485714D01*
X84600001Y-105228571D01*
X84642858Y-105142857D01*
X84685715Y-105100000D01*
X84771429Y-105057143D01*
X84942858Y-105057143D01*
X85028572Y-105100000D01*
X85414287Y-105614286D02*
X85500001Y-105657143D01*
X85671429Y-105657143D01*
X85757144Y-105614286D01*
X85800001Y-105528571D01*
X85800001Y-105485714D01*
X85757144Y-105400000D01*
X85671429Y-105357143D01*
X85542858Y-105357143D01*
X85457144Y-105314286D01*
X85414287Y-105228571D01*
X85414287Y-105185714D01*
X85457144Y-105100000D01*
X85542858Y-105057143D01*
X85671429Y-105057143D01*
X85757144Y-105100000D01*
X86185715Y-105657143D02*
X86185715Y-104757143D01*
X86271429Y-105314286D02*
X86528572Y-105657143D01*
X86528572Y-105057143D02*
X86185715Y-105400000D01*
X87300000Y-105657143D02*
X87300000Y-105185714D01*
X87257143Y-105100000D01*
X87171429Y-105057143D01*
X87000000Y-105057143D01*
X86914286Y-105100000D01*
X87300000Y-105614286D02*
X87214286Y-105657143D01*
X87000000Y-105657143D01*
X86914286Y-105614286D01*
X86871429Y-105528571D01*
X86871429Y-105442857D01*
X86914286Y-105357143D01*
X87000000Y-105314286D01*
X87214286Y-105314286D01*
X87300000Y-105271429D01*
X88114286Y-105657143D02*
X88114286Y-105185714D01*
X88071429Y-105100000D01*
X87985715Y-105057143D01*
X87814286Y-105057143D01*
X87728572Y-105100000D01*
X88114286Y-105614286D02*
X88028572Y-105657143D01*
X87814286Y-105657143D01*
X87728572Y-105614286D01*
X87685715Y-105528571D01*
X87685715Y-105442857D01*
X87728572Y-105357143D01*
X87814286Y-105314286D01*
X88028572Y-105314286D01*
X88114286Y-105271429D01*
X88542858Y-105657143D02*
X88542858Y-105057143D01*
X88542858Y-105228571D02*
X88585715Y-105142857D01*
X88628572Y-105100000D01*
X88714286Y-105057143D01*
X88800001Y-105057143D01*
X88971429Y-105057143D02*
X89314286Y-105057143D01*
X89100001Y-104757143D02*
X89100001Y-105528571D01*
X89142858Y-105614286D01*
X89228572Y-105657143D01*
X89314286Y-105657143D01*
X90257144Y-104842857D02*
X90300001Y-104800000D01*
X90385715Y-104757143D01*
X90600001Y-104757143D01*
X90685715Y-104800000D01*
X90728572Y-104842857D01*
X90771429Y-104928571D01*
X90771429Y-105014286D01*
X90728572Y-105142857D01*
X90214286Y-105657143D01*
X90771429Y-105657143D01*
X91328572Y-104757143D02*
X91414287Y-104757143D01*
X91500001Y-104800000D01*
X91542858Y-104842857D01*
X91585715Y-104928571D01*
X91628572Y-105100000D01*
X91628572Y-105314286D01*
X91585715Y-105485714D01*
X91542858Y-105571429D01*
X91500001Y-105614286D01*
X91414287Y-105657143D01*
X91328572Y-105657143D01*
X91242858Y-105614286D01*
X91200001Y-105571429D01*
X91157144Y-105485714D01*
X91114287Y-105314286D01*
X91114287Y-105100000D01*
X91157144Y-104928571D01*
X91200001Y-104842857D01*
X91242858Y-104800000D01*
X91328572Y-104757143D01*
X92485715Y-105657143D02*
X91971430Y-105657143D01*
X92228572Y-105657143D02*
X92228572Y-104757143D01*
X92142858Y-104885714D01*
X92057144Y-104971429D01*
X91971430Y-105014286D01*
X93000001Y-105142857D02*
X92914287Y-105100000D01*
X92871430Y-105057143D01*
X92828573Y-104971429D01*
X92828573Y-104928571D01*
X92871430Y-104842857D01*
X92914287Y-104800000D01*
X93000001Y-104757143D01*
X93171430Y-104757143D01*
X93257144Y-104800000D01*
X93300001Y-104842857D01*
X93342858Y-104928571D01*
X93342858Y-104971429D01*
X93300001Y-105057143D01*
X93257144Y-105100000D01*
X93171430Y-105142857D01*
X93000001Y-105142857D01*
X92914287Y-105185714D01*
X92871430Y-105228571D01*
X92828573Y-105314286D01*
X92828573Y-105485714D01*
X92871430Y-105571429D01*
X92914287Y-105614286D01*
X93000001Y-105657143D01*
X93171430Y-105657143D01*
X93257144Y-105614286D01*
X93300001Y-105571429D01*
X93342858Y-105485714D01*
X93342858Y-105314286D01*
X93300001Y-105228571D01*
X93257144Y-105185714D01*
X93171430Y-105142857D01*
X93900001Y-104757143D02*
X93985716Y-104757143D01*
X94071430Y-104800000D01*
X94114287Y-104842857D01*
X94157144Y-104928571D01*
X94200001Y-105100000D01*
X94200001Y-105314286D01*
X94157144Y-105485714D01*
X94114287Y-105571429D01*
X94071430Y-105614286D01*
X93985716Y-105657143D01*
X93900001Y-105657143D01*
X93814287Y-105614286D01*
X93771430Y-105571429D01*
X93728573Y-105485714D01*
X93685716Y-105314286D01*
X93685716Y-105100000D01*
X93728573Y-104928571D01*
X93771430Y-104842857D01*
X93814287Y-104800000D01*
X93900001Y-104757143D01*
X94500001Y-104757143D02*
X95100001Y-104757143D01*
X94714287Y-105657143D01*
X95914287Y-105657143D02*
X95400002Y-105657143D01*
X95657144Y-105657143D02*
X95657144Y-104757143D01*
X95571430Y-104885714D01*
X95485716Y-104971429D01*
X95400002Y-105014286D01*
X96342859Y-105657143D02*
X96514287Y-105657143D01*
X96600002Y-105614286D01*
X96642859Y-105571429D01*
X96728573Y-105442857D01*
X96771430Y-105271429D01*
X96771430Y-104928571D01*
X96728573Y-104842857D01*
X96685716Y-104800000D01*
X96600002Y-104757143D01*
X96428573Y-104757143D01*
X96342859Y-104800000D01*
X96300002Y-104842857D01*
X96257145Y-104928571D01*
X96257145Y-105142857D01*
X96300002Y-105228571D01*
X96342859Y-105271429D01*
X96428573Y-105314286D01*
X96600002Y-105314286D01*
X96685716Y-105271429D01*
X96728573Y-105228571D01*
X96771430Y-105142857D01*
X98014287Y-104757143D02*
X98100002Y-104757143D01*
X98185716Y-104800000D01*
X98228573Y-104842857D01*
X98271430Y-104928571D01*
X98314287Y-105100000D01*
X98314287Y-105314286D01*
X98271430Y-105485714D01*
X98228573Y-105571429D01*
X98185716Y-105614286D01*
X98100002Y-105657143D01*
X98014287Y-105657143D01*
X97928573Y-105614286D01*
X97885716Y-105571429D01*
X97842859Y-105485714D01*
X97800002Y-105314286D01*
X97800002Y-105100000D01*
X97842859Y-104928571D01*
X97885716Y-104842857D01*
X97928573Y-104800000D01*
X98014287Y-104757143D01*
X98700002Y-105571429D02*
X98742859Y-105614286D01*
X98700002Y-105657143D01*
X98657145Y-105614286D01*
X98700002Y-105571429D01*
X98700002Y-105657143D01*
X99042858Y-104757143D02*
X99642858Y-104757143D01*
X99257144Y-105657143D01*
X99985716Y-105571429D02*
X100028573Y-105614286D01*
X99985716Y-105657143D01*
X99942859Y-105614286D01*
X99985716Y-105571429D01*
X99985716Y-105657143D01*
X100585715Y-104757143D02*
X100671430Y-104757143D01*
X100757144Y-104800000D01*
X100800001Y-104842857D01*
X100842858Y-104928571D01*
X100885715Y-105100000D01*
X100885715Y-105314286D01*
X100842858Y-105485714D01*
X100800001Y-105571429D01*
X100757144Y-105614286D01*
X100671430Y-105657143D01*
X100585715Y-105657143D01*
X100500001Y-105614286D01*
X100457144Y-105571429D01*
X100414287Y-105485714D01*
X100371430Y-105314286D01*
X100371430Y-105100000D01*
X100414287Y-104928571D01*
X100457144Y-104842857D01*
X100500001Y-104800000D01*
X100585715Y-104757143D01*
X101185715Y-104757143D02*
X101742858Y-104757143D01*
X101442858Y-105100000D01*
X101571430Y-105100000D01*
X101657144Y-105142857D01*
X101700001Y-105185714D01*
X101742858Y-105271429D01*
X101742858Y-105485714D01*
X101700001Y-105571429D01*
X101657144Y-105614286D01*
X101571430Y-105657143D01*
X101314287Y-105657143D01*
X101228573Y-105614286D01*
X101185715Y-105571429D01*
D13*
X103866667Y-77650000D02*
X104566667Y-77416667D01*
X103866667Y-77183334D01*
X104533333Y-76983334D02*
X104566667Y-76883334D01*
X104566667Y-76716667D01*
X104533333Y-76650000D01*
X104500000Y-76616667D01*
X104433333Y-76583334D01*
X104366667Y-76583334D01*
X104300000Y-76616667D01*
X104266667Y-76650000D01*
X104233333Y-76716667D01*
X104200000Y-76850000D01*
X104166667Y-76916667D01*
X104133333Y-76950000D01*
X104066667Y-76983334D01*
X104000000Y-76983334D01*
X103933333Y-76950000D01*
X103900000Y-76916667D01*
X103866667Y-76850000D01*
X103866667Y-76683334D01*
X103900000Y-76583334D01*
X104533333Y-76316667D02*
X104566667Y-76216667D01*
X104566667Y-76050000D01*
X104533333Y-75983333D01*
X104500000Y-75950000D01*
X104433333Y-75916667D01*
X104366667Y-75916667D01*
X104300000Y-75950000D01*
X104266667Y-75983333D01*
X104233333Y-76050000D01*
X104200000Y-76183333D01*
X104166667Y-76250000D01*
X104133333Y-76283333D01*
X104066667Y-76316667D01*
X104000000Y-76316667D01*
X103933333Y-76283333D01*
X103900000Y-76250000D01*
X103866667Y-76183333D01*
X103866667Y-76016667D01*
X103900000Y-75916667D01*
X101950001Y-81816667D02*
X101616668Y-81816667D01*
X101616668Y-81116667D01*
X102183335Y-81816667D02*
X102183335Y-81350000D01*
X102183335Y-81116667D02*
X102150001Y-81150000D01*
X102183335Y-81183333D01*
X102216668Y-81150000D01*
X102183335Y-81116667D01*
X102183335Y-81183333D01*
X102816668Y-81350000D02*
X102816668Y-81916667D01*
X102783334Y-81983333D01*
X102750001Y-82016667D01*
X102683334Y-82050000D01*
X102583334Y-82050000D01*
X102516668Y-82016667D01*
X102816668Y-81783333D02*
X102750001Y-81816667D01*
X102616668Y-81816667D01*
X102550001Y-81783333D01*
X102516668Y-81750000D01*
X102483334Y-81683333D01*
X102483334Y-81483333D01*
X102516668Y-81416667D01*
X102550001Y-81383333D01*
X102616668Y-81350000D01*
X102750001Y-81350000D01*
X102816668Y-81383333D01*
X103450001Y-81350000D02*
X103450001Y-81916667D01*
X103416667Y-81983333D01*
X103383334Y-82016667D01*
X103316667Y-82050000D01*
X103216667Y-82050000D01*
X103150001Y-82016667D01*
X103450001Y-81783333D02*
X103383334Y-81816667D01*
X103250001Y-81816667D01*
X103183334Y-81783333D01*
X103150001Y-81750000D01*
X103116667Y-81683333D01*
X103116667Y-81483333D01*
X103150001Y-81416667D01*
X103183334Y-81383333D01*
X103250001Y-81350000D01*
X103383334Y-81350000D01*
X103450001Y-81383333D01*
X103783334Y-81816667D02*
X103783334Y-81350000D01*
X103783334Y-81116667D02*
X103750000Y-81150000D01*
X103783334Y-81183333D01*
X103816667Y-81150000D01*
X103783334Y-81116667D01*
X103783334Y-81183333D01*
X104383333Y-81783333D02*
X104316667Y-81816667D01*
X104183333Y-81816667D01*
X104116667Y-81783333D01*
X104083333Y-81716667D01*
X104083333Y-81450000D01*
X104116667Y-81383333D01*
X104183333Y-81350000D01*
X104316667Y-81350000D01*
X104383333Y-81383333D01*
X104416667Y-81450000D01*
X104416667Y-81516667D01*
X104083333Y-81583333D01*
X53795833Y-100800000D02*
X54495833Y-100800000D01*
X54495833Y-101066666D01*
X54462500Y-101133333D01*
X54429167Y-101166666D01*
X54362500Y-101200000D01*
X54262500Y-101200000D01*
X54195833Y-101166666D01*
X54162500Y-101133333D01*
X54129167Y-101066666D01*
X54129167Y-100800000D01*
X54495833Y-101700000D02*
X53995833Y-101700000D01*
X53895833Y-101666666D01*
X53829167Y-101600000D01*
X53795833Y-101500000D01*
X53795833Y-101433333D01*
X54495833Y-101966666D02*
X54495833Y-102399999D01*
X54229167Y-102166666D01*
X54229167Y-102266666D01*
X54195833Y-102333333D01*
X54162500Y-102366666D01*
X54095833Y-102399999D01*
X53929167Y-102399999D01*
X53862500Y-102366666D01*
X53829167Y-102333333D01*
X53795833Y-102266666D01*
X53795833Y-102066666D01*
X53829167Y-101999999D01*
X53862500Y-101966666D01*
X54495833Y-102833333D02*
X54495833Y-102900000D01*
X54462500Y-102966666D01*
X54429167Y-103000000D01*
X54362500Y-103033333D01*
X54229167Y-103066666D01*
X54062500Y-103066666D01*
X53929167Y-103033333D01*
X53862500Y-103000000D01*
X53829167Y-102966666D01*
X53795833Y-102900000D01*
X53795833Y-102833333D01*
X53829167Y-102766666D01*
X53862500Y-102733333D01*
X53929167Y-102700000D01*
X54062500Y-102666666D01*
X54229167Y-102666666D01*
X54362500Y-102700000D01*
X54429167Y-102733333D01*
X54462500Y-102766666D01*
X54495833Y-102833333D01*
X54495833Y-103300000D02*
X54495833Y-103766667D01*
X53795833Y-103466667D01*
X53037500Y-98900002D02*
X52470833Y-98900002D01*
X52404167Y-98866668D01*
X52370833Y-98833335D01*
X52337500Y-98766668D01*
X52337500Y-98666668D01*
X52370833Y-98600002D01*
X52604167Y-98900002D02*
X52570833Y-98833335D01*
X52570833Y-98700002D01*
X52604167Y-98633335D01*
X52637500Y-98600002D01*
X52704167Y-98566668D01*
X52904167Y-98566668D01*
X52970833Y-98600002D01*
X53004167Y-98633335D01*
X53037500Y-98700002D01*
X53037500Y-98833335D01*
X53004167Y-98900002D01*
X52604167Y-99500001D02*
X52570833Y-99433335D01*
X52570833Y-99300001D01*
X52604167Y-99233335D01*
X52670833Y-99200001D01*
X52937500Y-99200001D01*
X53004167Y-99233335D01*
X53037500Y-99300001D01*
X53037500Y-99433335D01*
X53004167Y-99500001D01*
X52937500Y-99533335D01*
X52870833Y-99533335D01*
X52804167Y-99200001D01*
X52570833Y-99933335D02*
X52604167Y-99866668D01*
X52670833Y-99833335D01*
X53270833Y-99833335D01*
X53037500Y-100500002D02*
X52570833Y-100500002D01*
X53037500Y-100200002D02*
X52670833Y-100200002D01*
X52604167Y-100233335D01*
X52570833Y-100300002D01*
X52570833Y-100400002D01*
X52604167Y-100466668D01*
X52637500Y-100500002D01*
X52570833Y-100833335D02*
X53037500Y-100833335D01*
X53270833Y-100833335D02*
X53237500Y-100800001D01*
X53204167Y-100833335D01*
X53237500Y-100866668D01*
X53270833Y-100833335D01*
X53204167Y-100833335D01*
X52570833Y-101466668D02*
X53270833Y-101466668D01*
X52604167Y-101466668D02*
X52570833Y-101400001D01*
X52570833Y-101266668D01*
X52604167Y-101200001D01*
X52637500Y-101166668D01*
X52704167Y-101133334D01*
X52904167Y-101133334D01*
X52970833Y-101166668D01*
X53004167Y-101200001D01*
X53037500Y-101266668D01*
X53037500Y-101400001D01*
X53004167Y-101466668D01*
X53037500Y-102633334D02*
X52570833Y-102633334D01*
X53037500Y-102333334D02*
X52670833Y-102333334D01*
X52604167Y-102366667D01*
X52570833Y-102433334D01*
X52570833Y-102533334D01*
X52604167Y-102600000D01*
X52637500Y-102633334D01*
X52570833Y-102966667D02*
X53037500Y-102966667D01*
X53270833Y-102966667D02*
X53237500Y-102933333D01*
X53204167Y-102966667D01*
X53237500Y-103000000D01*
X53270833Y-102966667D01*
X53204167Y-102966667D01*
X53037500Y-103200000D02*
X53037500Y-103466666D01*
X53270833Y-103300000D02*
X52670833Y-103300000D01*
X52604167Y-103333333D01*
X52570833Y-103400000D01*
X52570833Y-103466666D01*
X53037500Y-104000000D02*
X52470833Y-104000000D01*
X52404167Y-103966666D01*
X52370833Y-103933333D01*
X52337500Y-103866666D01*
X52337500Y-103766666D01*
X52370833Y-103700000D01*
X52604167Y-104000000D02*
X52570833Y-103933333D01*
X52570833Y-103800000D01*
X52604167Y-103733333D01*
X52637500Y-103700000D01*
X52704167Y-103666666D01*
X52904167Y-103666666D01*
X52970833Y-103700000D01*
X53004167Y-103733333D01*
X53037500Y-103800000D01*
X53037500Y-103933333D01*
X53004167Y-104000000D01*
X52570833Y-104633333D02*
X52937500Y-104633333D01*
X53004167Y-104599999D01*
X53037500Y-104533333D01*
X53037500Y-104399999D01*
X53004167Y-104333333D01*
X52604167Y-104633333D02*
X52570833Y-104566666D01*
X52570833Y-104399999D01*
X52604167Y-104333333D01*
X52670833Y-104299999D01*
X52737500Y-104299999D01*
X52804167Y-104333333D01*
X52837500Y-104399999D01*
X52837500Y-104566666D01*
X52870833Y-104633333D01*
X53037500Y-104966666D02*
X52570833Y-104966666D01*
X52970833Y-104966666D02*
X53004167Y-104999999D01*
X53037500Y-105066666D01*
X53037500Y-105166666D01*
X53004167Y-105233332D01*
X52937500Y-105266666D01*
X52570833Y-105266666D01*
X53037500Y-105899999D02*
X52470833Y-105899999D01*
X52404167Y-105866665D01*
X52370833Y-105833332D01*
X52337500Y-105766665D01*
X52337500Y-105666665D01*
X52370833Y-105599999D01*
X52604167Y-105899999D02*
X52570833Y-105833332D01*
X52570833Y-105699999D01*
X52604167Y-105633332D01*
X52637500Y-105599999D01*
X52704167Y-105566665D01*
X52904167Y-105566665D01*
X52970833Y-105599999D01*
X53004167Y-105633332D01*
X53037500Y-105699999D01*
X53037500Y-105833332D01*
X53004167Y-105899999D01*
X88533334Y-104566667D02*
X88300000Y-104233333D01*
X88133334Y-104566667D02*
X88133334Y-103866667D01*
X88400000Y-103866667D01*
X88466667Y-103900000D01*
X88500000Y-103933333D01*
X88533334Y-104000000D01*
X88533334Y-104100000D01*
X88500000Y-104166667D01*
X88466667Y-104200000D01*
X88400000Y-104233333D01*
X88133334Y-104233333D01*
X89200000Y-104566667D02*
X88800000Y-104566667D01*
X89000000Y-104566667D02*
X89000000Y-103866667D01*
X88933334Y-103966667D01*
X88866667Y-104033333D01*
X88800000Y-104066667D01*
X89500001Y-104566667D02*
X89500001Y-103866667D01*
X89900001Y-104566667D02*
X89600001Y-104166667D01*
X89900001Y-103866667D02*
X89500001Y-104266667D01*
X87350000Y-98366667D02*
X87783333Y-98366667D01*
X87550000Y-98633333D01*
X87650000Y-98633333D01*
X87716667Y-98666667D01*
X87750000Y-98700000D01*
X87783333Y-98766667D01*
X87783333Y-98933333D01*
X87750000Y-99000000D01*
X87716667Y-99033333D01*
X87650000Y-99066667D01*
X87450000Y-99066667D01*
X87383333Y-99033333D01*
X87350000Y-99000000D01*
X88016667Y-98366667D02*
X88450000Y-98366667D01*
X88216667Y-98633333D01*
X88316667Y-98633333D01*
X88383334Y-98666667D01*
X88416667Y-98700000D01*
X88450000Y-98766667D01*
X88450000Y-98933333D01*
X88416667Y-99000000D01*
X88383334Y-99033333D01*
X88316667Y-99066667D01*
X88116667Y-99066667D01*
X88050000Y-99033333D01*
X88016667Y-99000000D01*
X88883334Y-98366667D02*
X88950001Y-98366667D01*
X89016667Y-98400000D01*
X89050001Y-98433333D01*
X89083334Y-98500000D01*
X89116667Y-98633333D01*
X89116667Y-98800000D01*
X89083334Y-98933333D01*
X89050001Y-99000000D01*
X89016667Y-99033333D01*
X88950001Y-99066667D01*
X88883334Y-99066667D01*
X88816667Y-99033333D01*
X88783334Y-99000000D01*
X88750001Y-98933333D01*
X88716667Y-98800000D01*
X88716667Y-98633333D01*
X88750001Y-98500000D01*
X88783334Y-98433333D01*
X88816667Y-98400000D01*
X88883334Y-98366667D01*
X90350000Y-75866667D02*
X90783333Y-75866667D01*
X90550000Y-76133333D01*
X90650000Y-76133333D01*
X90716667Y-76166667D01*
X90750000Y-76200000D01*
X90783333Y-76266667D01*
X90783333Y-76433333D01*
X90750000Y-76500000D01*
X90716667Y-76533333D01*
X90650000Y-76566667D01*
X90450000Y-76566667D01*
X90383333Y-76533333D01*
X90350000Y-76500000D01*
X91016667Y-75866667D02*
X91450000Y-75866667D01*
X91216667Y-76133333D01*
X91316667Y-76133333D01*
X91383334Y-76166667D01*
X91416667Y-76200000D01*
X91450000Y-76266667D01*
X91450000Y-76433333D01*
X91416667Y-76500000D01*
X91383334Y-76533333D01*
X91316667Y-76566667D01*
X91116667Y-76566667D01*
X91050000Y-76533333D01*
X91016667Y-76500000D01*
X91883334Y-75866667D02*
X91950001Y-75866667D01*
X92016667Y-75900000D01*
X92050001Y-75933333D01*
X92083334Y-76000000D01*
X92116667Y-76133333D01*
X92116667Y-76300000D01*
X92083334Y-76433333D01*
X92050001Y-76500000D01*
X92016667Y-76533333D01*
X91950001Y-76566667D01*
X91883334Y-76566667D01*
X91816667Y-76533333D01*
X91783334Y-76500000D01*
X91750001Y-76433333D01*
X91716667Y-76300000D01*
X91716667Y-76133333D01*
X91750001Y-76000000D01*
X91783334Y-75933333D01*
X91816667Y-75900000D01*
X91883334Y-75866667D01*
X72983334Y-94800000D02*
X73516667Y-94800000D01*
X73250000Y-95066667D02*
X73250000Y-94533333D01*
X80433333Y-98233334D02*
X80400000Y-98200000D01*
X80366667Y-98133334D01*
X80366667Y-97966667D01*
X80400000Y-97900000D01*
X80433333Y-97866667D01*
X80500000Y-97833334D01*
X80566667Y-97833334D01*
X80666667Y-97866667D01*
X81066667Y-98266667D01*
X81066667Y-97833334D01*
X80433333Y-97566667D02*
X80400000Y-97533333D01*
X80366667Y-97466667D01*
X80366667Y-97300000D01*
X80400000Y-97233333D01*
X80433333Y-97200000D01*
X80500000Y-97166667D01*
X80566667Y-97166667D01*
X80666667Y-97200000D01*
X81066667Y-97600000D01*
X81066667Y-97166667D01*
X80366667Y-96733333D02*
X80366667Y-96666666D01*
X80400000Y-96600000D01*
X80433333Y-96566666D01*
X80500000Y-96533333D01*
X80633333Y-96500000D01*
X80800000Y-96500000D01*
X80933333Y-96533333D01*
X81000000Y-96566666D01*
X81033333Y-96600000D01*
X81066667Y-96666666D01*
X81066667Y-96733333D01*
X81033333Y-96800000D01*
X81000000Y-96833333D01*
X80933333Y-96866666D01*
X80800000Y-96900000D01*
X80633333Y-96900000D01*
X80500000Y-96866666D01*
X80433333Y-96833333D01*
X80400000Y-96800000D01*
X80366667Y-96733333D01*
X80600000Y-95899999D02*
X81066667Y-95899999D01*
X80600000Y-96199999D02*
X80966667Y-96199999D01*
X81033333Y-96166666D01*
X81066667Y-96099999D01*
X81066667Y-95999999D01*
X81033333Y-95933333D01*
X81000000Y-95899999D01*
X80700000Y-95333333D02*
X80700000Y-95566666D01*
X81066667Y-95566666D02*
X80366667Y-95566666D01*
X80366667Y-95233333D01*
X73983334Y-80800000D02*
X74516667Y-80800000D01*
X74250000Y-81066667D02*
X74250000Y-80533333D01*
X80433333Y-84983334D02*
X80400000Y-84950000D01*
X80366667Y-84883334D01*
X80366667Y-84716667D01*
X80400000Y-84650000D01*
X80433333Y-84616667D01*
X80500000Y-84583334D01*
X80566667Y-84583334D01*
X80666667Y-84616667D01*
X81066667Y-85016667D01*
X81066667Y-84583334D01*
X80433333Y-84316667D02*
X80400000Y-84283333D01*
X80366667Y-84216667D01*
X80366667Y-84050000D01*
X80400000Y-83983333D01*
X80433333Y-83950000D01*
X80500000Y-83916667D01*
X80566667Y-83916667D01*
X80666667Y-83950000D01*
X81066667Y-84350000D01*
X81066667Y-83916667D01*
X80366667Y-83483333D02*
X80366667Y-83416666D01*
X80400000Y-83350000D01*
X80433333Y-83316666D01*
X80500000Y-83283333D01*
X80633333Y-83250000D01*
X80800000Y-83250000D01*
X80933333Y-83283333D01*
X81000000Y-83316666D01*
X81033333Y-83350000D01*
X81066667Y-83416666D01*
X81066667Y-83483333D01*
X81033333Y-83550000D01*
X81000000Y-83583333D01*
X80933333Y-83616666D01*
X80800000Y-83650000D01*
X80633333Y-83650000D01*
X80500000Y-83616666D01*
X80433333Y-83583333D01*
X80400000Y-83550000D01*
X80366667Y-83483333D01*
X80600000Y-82649999D02*
X81066667Y-82649999D01*
X80600000Y-82949999D02*
X80966667Y-82949999D01*
X81033333Y-82916666D01*
X81066667Y-82849999D01*
X81066667Y-82749999D01*
X81033333Y-82683333D01*
X81000000Y-82649999D01*
X80700000Y-82083333D02*
X80700000Y-82316666D01*
X81066667Y-82316666D02*
X80366667Y-82316666D01*
X80366667Y-81983333D01*
X41666668Y-44316667D02*
X41666668Y-43616667D01*
X41966667Y-43683333D02*
X42000001Y-43650000D01*
X42066667Y-43616667D01*
X42233334Y-43616667D01*
X42300001Y-43650000D01*
X42333334Y-43683333D01*
X42366667Y-43750000D01*
X42366667Y-43816667D01*
X42333334Y-43916667D01*
X41933334Y-44316667D01*
X42366667Y-44316667D01*
X43066668Y-44250000D02*
X43033334Y-44283333D01*
X42933334Y-44316667D01*
X42866668Y-44316667D01*
X42766668Y-44283333D01*
X42700001Y-44216667D01*
X42666668Y-44150000D01*
X42633334Y-44016667D01*
X42633334Y-43916667D01*
X42666668Y-43783333D01*
X42700001Y-43716667D01*
X42766668Y-43650000D01*
X42866668Y-43616667D01*
X42933334Y-43616667D01*
X43033334Y-43650000D01*
X43066668Y-43683333D01*
X44033334Y-43616667D02*
X44166667Y-43616667D01*
X44233334Y-43650000D01*
X44300001Y-43716667D01*
X44333334Y-43850000D01*
X44333334Y-44083333D01*
X44300001Y-44216667D01*
X44233334Y-44283333D01*
X44166667Y-44316667D01*
X44033334Y-44316667D01*
X43966667Y-44283333D01*
X43900001Y-44216667D01*
X43866667Y-44083333D01*
X43866667Y-43850000D01*
X43900001Y-43716667D01*
X43966667Y-43650000D01*
X44033334Y-43616667D01*
X44966667Y-44316667D02*
X44633334Y-44316667D01*
X44633334Y-43616667D01*
X45200001Y-43950000D02*
X45433334Y-43950000D01*
X45533334Y-44316667D02*
X45200001Y-44316667D01*
X45200001Y-43616667D01*
X45533334Y-43616667D01*
X45833334Y-44316667D02*
X45833334Y-43616667D01*
X46000000Y-43616667D01*
X46100000Y-43650000D01*
X46166667Y-43716667D01*
X46200000Y-43783333D01*
X46233334Y-43916667D01*
X46233334Y-44016667D01*
X46200000Y-44150000D01*
X46166667Y-44216667D01*
X46100000Y-44283333D01*
X46000000Y-44316667D01*
X45833334Y-44316667D01*
X47033333Y-44283333D02*
X47100000Y-44316667D01*
X47233333Y-44316667D01*
X47300000Y-44283333D01*
X47333333Y-44216667D01*
X47333333Y-44183333D01*
X47300000Y-44116667D01*
X47233333Y-44083333D01*
X47133333Y-44083333D01*
X47066667Y-44050000D01*
X47033333Y-43983333D01*
X47033333Y-43950000D01*
X47066667Y-43883333D01*
X47133333Y-43850000D01*
X47233333Y-43850000D01*
X47300000Y-43883333D01*
X47633334Y-44316667D02*
X47633334Y-43616667D01*
X47700000Y-44050000D02*
X47900000Y-44316667D01*
X47900000Y-43850000D02*
X47633334Y-44116667D01*
X48466667Y-44283333D02*
X48400001Y-44316667D01*
X48266667Y-44316667D01*
X48200001Y-44283333D01*
X48166667Y-44216667D01*
X48166667Y-43950000D01*
X48200001Y-43883333D01*
X48266667Y-43850000D01*
X48400001Y-43850000D01*
X48466667Y-43883333D01*
X48500001Y-43950000D01*
X48500001Y-44016667D01*
X48166667Y-44083333D01*
X48800001Y-44316667D02*
X48800001Y-43850000D01*
X48800001Y-43983333D02*
X48833334Y-43916667D01*
X48866667Y-43883333D01*
X48933334Y-43850000D01*
X49000001Y-43850000D01*
X49233334Y-44316667D02*
X49233334Y-43850000D01*
X49233334Y-43916667D02*
X49266667Y-43883333D01*
X49333334Y-43850000D01*
X49433334Y-43850000D01*
X49500000Y-43883333D01*
X49533334Y-43950000D01*
X49533334Y-44316667D01*
X49533334Y-43950000D02*
X49566667Y-43883333D01*
X49633334Y-43850000D01*
X49733334Y-43850000D01*
X49800000Y-43883333D01*
X49833334Y-43950000D01*
X49833334Y-44316667D01*
X57050002Y-44316667D02*
X57050002Y-43616667D01*
X57350001Y-43683333D02*
X57383335Y-43650000D01*
X57450001Y-43616667D01*
X57616668Y-43616667D01*
X57683335Y-43650000D01*
X57716668Y-43683333D01*
X57750001Y-43750000D01*
X57750001Y-43816667D01*
X57716668Y-43916667D01*
X57316668Y-44316667D01*
X57750001Y-44316667D01*
X58450002Y-44250000D02*
X58416668Y-44283333D01*
X58316668Y-44316667D01*
X58250002Y-44316667D01*
X58150002Y-44283333D01*
X58083335Y-44216667D01*
X58050002Y-44150000D01*
X58016668Y-44016667D01*
X58016668Y-43916667D01*
X58050002Y-43783333D01*
X58083335Y-43716667D01*
X58150002Y-43650000D01*
X58250002Y-43616667D01*
X58316668Y-43616667D01*
X58416668Y-43650000D01*
X58450002Y-43683333D01*
X59283335Y-44316667D02*
X59283335Y-43850000D01*
X59283335Y-43616667D02*
X59250001Y-43650000D01*
X59283335Y-43683333D01*
X59316668Y-43650000D01*
X59283335Y-43616667D01*
X59283335Y-43683333D01*
X59616668Y-43850000D02*
X59616668Y-44316667D01*
X59616668Y-43916667D02*
X59650001Y-43883333D01*
X59716668Y-43850000D01*
X59816668Y-43850000D01*
X59883334Y-43883333D01*
X59916668Y-43950000D01*
X59916668Y-44316667D01*
X60550001Y-43850000D02*
X60550001Y-44416667D01*
X60516667Y-44483333D01*
X60483334Y-44516667D01*
X60416667Y-44550000D01*
X60316667Y-44550000D01*
X60250001Y-44516667D01*
X60550001Y-44283333D02*
X60483334Y-44316667D01*
X60350001Y-44316667D01*
X60283334Y-44283333D01*
X60250001Y-44250000D01*
X60216667Y-44183333D01*
X60216667Y-43983333D01*
X60250001Y-43916667D01*
X60283334Y-43883333D01*
X60350001Y-43850000D01*
X60483334Y-43850000D01*
X60550001Y-43883333D01*
X61183334Y-44316667D02*
X61183334Y-43950000D01*
X61150000Y-43883333D01*
X61083334Y-43850000D01*
X60950000Y-43850000D01*
X60883334Y-43883333D01*
X61183334Y-44283333D02*
X61116667Y-44316667D01*
X60950000Y-44316667D01*
X60883334Y-44283333D01*
X60850000Y-44216667D01*
X60850000Y-44150000D01*
X60883334Y-44083333D01*
X60950000Y-44050000D01*
X61116667Y-44050000D01*
X61183334Y-44016667D01*
X61516667Y-43850000D02*
X61516667Y-44316667D01*
X61516667Y-43916667D02*
X61550000Y-43883333D01*
X61616667Y-43850000D01*
X61716667Y-43850000D01*
X61783333Y-43883333D01*
X61816667Y-43950000D01*
X61816667Y-44316667D01*
X62450000Y-43850000D02*
X62450000Y-44416667D01*
X62416666Y-44483333D01*
X62383333Y-44516667D01*
X62316666Y-44550000D01*
X62216666Y-44550000D01*
X62150000Y-44516667D01*
X62450000Y-44283333D02*
X62383333Y-44316667D01*
X62250000Y-44316667D01*
X62183333Y-44283333D01*
X62150000Y-44250000D01*
X62116666Y-44183333D01*
X62116666Y-43983333D01*
X62150000Y-43916667D01*
X62183333Y-43883333D01*
X62250000Y-43850000D01*
X62383333Y-43850000D01*
X62450000Y-43883333D01*
X71900002Y-44316667D02*
X71900002Y-43616667D01*
X71966668Y-44050000D02*
X72166668Y-44316667D01*
X72166668Y-43850000D02*
X71900002Y-44116667D01*
X72566669Y-44316667D02*
X72500002Y-44283333D01*
X72466669Y-44216667D01*
X72466669Y-43616667D01*
X72933336Y-44316667D02*
X72866669Y-44283333D01*
X72833336Y-44250000D01*
X72800002Y-44183333D01*
X72800002Y-43983333D01*
X72833336Y-43916667D01*
X72866669Y-43883333D01*
X72933336Y-43850000D01*
X73033336Y-43850000D01*
X73100002Y-43883333D01*
X73133336Y-43916667D01*
X73166669Y-43983333D01*
X73166669Y-44183333D01*
X73133336Y-44250000D01*
X73100002Y-44283333D01*
X73033336Y-44316667D01*
X72933336Y-44316667D01*
X73466669Y-44316667D02*
X73466669Y-43616667D01*
X73533335Y-44050000D02*
X73733335Y-44316667D01*
X73733335Y-43850000D02*
X73466669Y-44116667D01*
X74833335Y-44283333D02*
X74766669Y-44316667D01*
X74633335Y-44316667D01*
X74566669Y-44283333D01*
X74533335Y-44216667D01*
X74533335Y-43950000D01*
X74566669Y-43883333D01*
X74633335Y-43850000D01*
X74766669Y-43850000D01*
X74833335Y-43883333D01*
X74866669Y-43950000D01*
X74866669Y-44016667D01*
X74533335Y-44083333D01*
X75166669Y-43850000D02*
X75166669Y-44316667D01*
X75166669Y-43916667D02*
X75200002Y-43883333D01*
X75266669Y-43850000D01*
X75366669Y-43850000D01*
X75433335Y-43883333D01*
X75466669Y-43950000D01*
X75466669Y-44316667D01*
X76233335Y-43850000D02*
X76500001Y-43850000D01*
X76333335Y-43616667D02*
X76333335Y-44216667D01*
X76366668Y-44283333D01*
X76433335Y-44316667D01*
X76500001Y-44316667D01*
X76666668Y-43850000D02*
X76833335Y-44316667D01*
X77000001Y-43850000D02*
X76833335Y-44316667D01*
X76766668Y-44483333D01*
X76733335Y-44516667D01*
X76666668Y-44550000D01*
X77566668Y-44316667D02*
X77566668Y-43616667D01*
X77566668Y-44283333D02*
X77500001Y-44316667D01*
X77366668Y-44316667D01*
X77300001Y-44283333D01*
X77266668Y-44250000D01*
X77233334Y-44183333D01*
X77233334Y-43983333D01*
X77266668Y-43916667D01*
X77300001Y-43883333D01*
X77366668Y-43850000D01*
X77500001Y-43850000D01*
X77566668Y-43883333D01*
X78433334Y-44316667D02*
X78433334Y-43850000D01*
X78433334Y-43616667D02*
X78400000Y-43650000D01*
X78433334Y-43683333D01*
X78466667Y-43650000D01*
X78433334Y-43616667D01*
X78433334Y-43683333D01*
X78766667Y-43850000D02*
X78766667Y-44316667D01*
X78766667Y-43916667D02*
X78800000Y-43883333D01*
X78866667Y-43850000D01*
X78966667Y-43850000D01*
X79033333Y-43883333D01*
X79066667Y-43950000D01*
X79066667Y-44316667D01*
X79700000Y-43850000D02*
X79700000Y-44416667D01*
X79666666Y-44483333D01*
X79633333Y-44516667D01*
X79566666Y-44550000D01*
X79466666Y-44550000D01*
X79400000Y-44516667D01*
X79700000Y-44283333D02*
X79633333Y-44316667D01*
X79500000Y-44316667D01*
X79433333Y-44283333D01*
X79400000Y-44250000D01*
X79366666Y-44183333D01*
X79366666Y-43983333D01*
X79400000Y-43916667D01*
X79433333Y-43883333D01*
X79500000Y-43850000D01*
X79633333Y-43850000D01*
X79700000Y-43883333D01*
X80333333Y-44316667D02*
X80333333Y-43950000D01*
X80299999Y-43883333D01*
X80233333Y-43850000D01*
X80099999Y-43850000D01*
X80033333Y-43883333D01*
X80333333Y-44283333D02*
X80266666Y-44316667D01*
X80099999Y-44316667D01*
X80033333Y-44283333D01*
X79999999Y-44216667D01*
X79999999Y-44150000D01*
X80033333Y-44083333D01*
X80099999Y-44050000D01*
X80266666Y-44050000D01*
X80333333Y-44016667D01*
X80666666Y-43850000D02*
X80666666Y-44316667D01*
X80666666Y-43916667D02*
X80699999Y-43883333D01*
X80766666Y-43850000D01*
X80866666Y-43850000D01*
X80933332Y-43883333D01*
X80966666Y-43950000D01*
X80966666Y-44316667D01*
X81599999Y-43850000D02*
X81599999Y-44416667D01*
X81566665Y-44483333D01*
X81533332Y-44516667D01*
X81466665Y-44550000D01*
X81366665Y-44550000D01*
X81299999Y-44516667D01*
X81599999Y-44283333D02*
X81533332Y-44316667D01*
X81399999Y-44316667D01*
X81333332Y-44283333D01*
X81299999Y-44250000D01*
X81266665Y-44183333D01*
X81266665Y-43983333D01*
X81299999Y-43916667D01*
X81333332Y-43883333D01*
X81399999Y-43850000D01*
X81533332Y-43850000D01*
X81599999Y-43883333D01*
X87150002Y-44100000D02*
X87150002Y-44666667D01*
X87116668Y-44733333D01*
X87083335Y-44766667D01*
X87016668Y-44800000D01*
X86916668Y-44800000D01*
X86850002Y-44766667D01*
X87150002Y-44533333D02*
X87083335Y-44566667D01*
X86950002Y-44566667D01*
X86883335Y-44533333D01*
X86850002Y-44500000D01*
X86816668Y-44433333D01*
X86816668Y-44233333D01*
X86850002Y-44166667D01*
X86883335Y-44133333D01*
X86950002Y-44100000D01*
X87083335Y-44100000D01*
X87150002Y-44133333D01*
X87750001Y-44533333D02*
X87683335Y-44566667D01*
X87550001Y-44566667D01*
X87483335Y-44533333D01*
X87450001Y-44466667D01*
X87450001Y-44200000D01*
X87483335Y-44133333D01*
X87550001Y-44100000D01*
X87683335Y-44100000D01*
X87750001Y-44133333D01*
X87783335Y-44200000D01*
X87783335Y-44266667D01*
X87450001Y-44333333D01*
X88183335Y-44566667D02*
X88116668Y-44533333D01*
X88083335Y-44466667D01*
X88083335Y-43866667D01*
X88750002Y-44100000D02*
X88750002Y-44566667D01*
X88450002Y-44100000D02*
X88450002Y-44466667D01*
X88483335Y-44533333D01*
X88550002Y-44566667D01*
X88650002Y-44566667D01*
X88716668Y-44533333D01*
X88750002Y-44500000D01*
X89083335Y-44566667D02*
X89083335Y-44100000D01*
X89083335Y-43866667D02*
X89050001Y-43900000D01*
X89083335Y-43933333D01*
X89116668Y-43900000D01*
X89083335Y-43866667D01*
X89083335Y-43933333D01*
X89716668Y-44566667D02*
X89716668Y-43866667D01*
X89716668Y-44533333D02*
X89650001Y-44566667D01*
X89516668Y-44566667D01*
X89450001Y-44533333D01*
X89416668Y-44500000D01*
X89383334Y-44433333D01*
X89383334Y-44233333D01*
X89416668Y-44166667D01*
X89450001Y-44133333D01*
X89516668Y-44100000D01*
X89650001Y-44100000D01*
X89716668Y-44133333D01*
X90883334Y-44100000D02*
X90883334Y-44566667D01*
X90583334Y-44100000D02*
X90583334Y-44466667D01*
X90616667Y-44533333D01*
X90683334Y-44566667D01*
X90783334Y-44566667D01*
X90850000Y-44533333D01*
X90883334Y-44500000D01*
X91216667Y-44566667D02*
X91216667Y-44100000D01*
X91216667Y-43866667D02*
X91183333Y-43900000D01*
X91216667Y-43933333D01*
X91250000Y-43900000D01*
X91216667Y-43866667D01*
X91216667Y-43933333D01*
X91450000Y-44100000D02*
X91716666Y-44100000D01*
X91550000Y-43866667D02*
X91550000Y-44466667D01*
X91583333Y-44533333D01*
X91650000Y-44566667D01*
X91716666Y-44566667D01*
X92250000Y-44100000D02*
X92250000Y-44666667D01*
X92216666Y-44733333D01*
X92183333Y-44766667D01*
X92116666Y-44800000D01*
X92016666Y-44800000D01*
X91950000Y-44766667D01*
X92250000Y-44533333D02*
X92183333Y-44566667D01*
X92050000Y-44566667D01*
X91983333Y-44533333D01*
X91950000Y-44500000D01*
X91916666Y-44433333D01*
X91916666Y-44233333D01*
X91950000Y-44166667D01*
X91983333Y-44133333D01*
X92050000Y-44100000D01*
X92183333Y-44100000D01*
X92250000Y-44133333D01*
X92883333Y-44566667D02*
X92883333Y-44200000D01*
X92849999Y-44133333D01*
X92783333Y-44100000D01*
X92649999Y-44100000D01*
X92583333Y-44133333D01*
X92883333Y-44533333D02*
X92816666Y-44566667D01*
X92649999Y-44566667D01*
X92583333Y-44533333D01*
X92549999Y-44466667D01*
X92549999Y-44400000D01*
X92583333Y-44333333D01*
X92649999Y-44300000D01*
X92816666Y-44300000D01*
X92883333Y-44266667D01*
X93216666Y-44100000D02*
X93216666Y-44566667D01*
X93216666Y-44166667D02*
X93249999Y-44133333D01*
X93316666Y-44100000D01*
X93416666Y-44100000D01*
X93483332Y-44133333D01*
X93516666Y-44200000D01*
X93516666Y-44566667D01*
X94149999Y-44100000D02*
X94149999Y-44666667D01*
X94116665Y-44733333D01*
X94083332Y-44766667D01*
X94016665Y-44800000D01*
X93916665Y-44800000D01*
X93849999Y-44766667D01*
X94149999Y-44533333D02*
X94083332Y-44566667D01*
X93949999Y-44566667D01*
X93883332Y-44533333D01*
X93849999Y-44500000D01*
X93816665Y-44433333D01*
X93816665Y-44233333D01*
X93849999Y-44166667D01*
X93883332Y-44133333D01*
X93949999Y-44100000D01*
X94083332Y-44100000D01*
X94149999Y-44133333D01*
X92300001Y-58566667D02*
X92300001Y-58100000D01*
X92300001Y-58233333D02*
X92333334Y-58166667D01*
X92366667Y-58133333D01*
X92433334Y-58100000D01*
X92500001Y-58100000D01*
X93000000Y-58533333D02*
X92933334Y-58566667D01*
X92800000Y-58566667D01*
X92733334Y-58533333D01*
X92700000Y-58466667D01*
X92700000Y-58200000D01*
X92733334Y-58133333D01*
X92800000Y-58100000D01*
X92933334Y-58100000D01*
X93000000Y-58133333D01*
X93033334Y-58200000D01*
X93033334Y-58266667D01*
X92700000Y-58333333D01*
X93633334Y-58100000D02*
X93633334Y-58666667D01*
X93600000Y-58733333D01*
X93566667Y-58766667D01*
X93500000Y-58800000D01*
X93400000Y-58800000D01*
X93333334Y-58766667D01*
X93633334Y-58533333D02*
X93566667Y-58566667D01*
X93433334Y-58566667D01*
X93366667Y-58533333D01*
X93333334Y-58500000D01*
X93300000Y-58433333D01*
X93300000Y-58233333D01*
X93333334Y-58166667D01*
X93366667Y-58133333D01*
X93433334Y-58100000D01*
X93566667Y-58100000D01*
X93633334Y-58133333D01*
X93933333Y-58533333D02*
X94000000Y-58566667D01*
X94133333Y-58566667D01*
X94200000Y-58533333D01*
X94233333Y-58466667D01*
X94233333Y-58433333D01*
X94200000Y-58366667D01*
X94133333Y-58333333D01*
X94033333Y-58333333D01*
X93966667Y-58300000D01*
X93933333Y-58233333D01*
X93933333Y-58200000D01*
X93966667Y-58133333D01*
X94033333Y-58100000D01*
X94133333Y-58100000D01*
X94200000Y-58133333D01*
X89283334Y-58566667D02*
X89216667Y-58533333D01*
X89183334Y-58466667D01*
X89183334Y-57866667D01*
X89550001Y-58566667D02*
X89550001Y-58100000D01*
X89550001Y-57866667D02*
X89516667Y-57900000D01*
X89550001Y-57933333D01*
X89583334Y-57900000D01*
X89550001Y-57866667D01*
X89550001Y-57933333D01*
X89883334Y-58100000D02*
X89883334Y-58566667D01*
X89883334Y-58166667D02*
X89916667Y-58133333D01*
X89983334Y-58100000D01*
X90083334Y-58100000D01*
X90150000Y-58133333D01*
X90183334Y-58200000D01*
X90183334Y-58566667D01*
X90516667Y-58566667D02*
X90516667Y-57866667D01*
X90583333Y-58300000D02*
X90783333Y-58566667D01*
X90783333Y-58100000D02*
X90516667Y-58366667D01*
X91050000Y-58533333D02*
X91116667Y-58566667D01*
X91250000Y-58566667D01*
X91316667Y-58533333D01*
X91350000Y-58466667D01*
X91350000Y-58433333D01*
X91316667Y-58366667D01*
X91250000Y-58333333D01*
X91150000Y-58333333D01*
X91083334Y-58300000D01*
X91050000Y-58233333D01*
X91050000Y-58200000D01*
X91083334Y-58133333D01*
X91150000Y-58100000D01*
X91250000Y-58100000D01*
X91316667Y-58133333D01*
X86600000Y-57616667D02*
X86833333Y-58316667D01*
X87066666Y-57616667D01*
X87266666Y-58283333D02*
X87366666Y-58316667D01*
X87533333Y-58316667D01*
X87600000Y-58283333D01*
X87633333Y-58250000D01*
X87666666Y-58183333D01*
X87666666Y-58116667D01*
X87633333Y-58050000D01*
X87600000Y-58016667D01*
X87533333Y-57983333D01*
X87400000Y-57950000D01*
X87333333Y-57916667D01*
X87300000Y-57883333D01*
X87266666Y-57816667D01*
X87266666Y-57750000D01*
X87300000Y-57683333D01*
X87333333Y-57650000D01*
X87400000Y-57616667D01*
X87566666Y-57616667D01*
X87666666Y-57650000D01*
X87933333Y-58283333D02*
X88033333Y-58316667D01*
X88200000Y-58316667D01*
X88266667Y-58283333D01*
X88300000Y-58250000D01*
X88333333Y-58183333D01*
X88333333Y-58116667D01*
X88300000Y-58050000D01*
X88266667Y-58016667D01*
X88200000Y-57983333D01*
X88066667Y-57950000D01*
X88000000Y-57916667D01*
X87966667Y-57883333D01*
X87933333Y-57816667D01*
X87933333Y-57750000D01*
X87966667Y-57683333D01*
X88000000Y-57650000D01*
X88066667Y-57616667D01*
X88233333Y-57616667D01*
X88333333Y-57650000D01*
X80516667Y-57366667D02*
X80983334Y-58066667D01*
X80983334Y-57366667D02*
X80516667Y-58066667D01*
X77583334Y-58000000D02*
X77550000Y-58033333D01*
X77450000Y-58066667D01*
X77383334Y-58066667D01*
X77283334Y-58033333D01*
X77216667Y-57966667D01*
X77183334Y-57900000D01*
X77150000Y-57766667D01*
X77150000Y-57666667D01*
X77183334Y-57533333D01*
X77216667Y-57466667D01*
X77283334Y-57400000D01*
X77383334Y-57366667D01*
X77450000Y-57366667D01*
X77550000Y-57400000D01*
X77583334Y-57433333D01*
X78216667Y-58066667D02*
X77883334Y-58066667D01*
X77883334Y-57366667D01*
X78450001Y-58066667D02*
X78450001Y-57366667D01*
X78850001Y-58066667D02*
X78550001Y-57666667D01*
X78850001Y-57366667D02*
X78450001Y-57766667D01*
X75133334Y-57366667D02*
X75300001Y-58066667D01*
X75433334Y-57566667D01*
X75566667Y-58066667D01*
X75733334Y-57366667D01*
X76000001Y-57700000D02*
X76233334Y-57700000D01*
X76333334Y-58066667D02*
X76000001Y-58066667D01*
X76000001Y-57366667D01*
X76333334Y-57366667D01*
X72016667Y-58066667D02*
X72016667Y-57366667D01*
X72283333Y-57366667D01*
X72350000Y-57400000D01*
X72383333Y-57433333D01*
X72416667Y-57500000D01*
X72416667Y-57600000D01*
X72383333Y-57666667D01*
X72350000Y-57700000D01*
X72283333Y-57733333D01*
X72016667Y-57733333D01*
X72650000Y-57366667D02*
X72816667Y-58066667D01*
X72950000Y-57566667D01*
X73083333Y-58066667D01*
X73250000Y-57366667D01*
X73516667Y-58066667D02*
X73516667Y-57366667D01*
X73750000Y-57866667D01*
X73983333Y-57366667D01*
X73983333Y-58066667D01*
X60566667Y-57366667D02*
X60800000Y-58066667D01*
X61033333Y-57366667D01*
X61666667Y-58000000D02*
X61633333Y-58033333D01*
X61533333Y-58066667D01*
X61466667Y-58066667D01*
X61366667Y-58033333D01*
X61300000Y-57966667D01*
X61266667Y-57900000D01*
X61233333Y-57766667D01*
X61233333Y-57666667D01*
X61266667Y-57533333D01*
X61300000Y-57466667D01*
X61366667Y-57400000D01*
X61466667Y-57366667D01*
X61533333Y-57366667D01*
X61633333Y-57400000D01*
X61666667Y-57433333D01*
X62366667Y-58000000D02*
X62333333Y-58033333D01*
X62233333Y-58066667D01*
X62166667Y-58066667D01*
X62066667Y-58033333D01*
X62000000Y-57966667D01*
X61966667Y-57900000D01*
X61933333Y-57766667D01*
X61933333Y-57666667D01*
X61966667Y-57533333D01*
X62000000Y-57466667D01*
X62066667Y-57400000D01*
X62166667Y-57366667D01*
X62233333Y-57366667D01*
X62333333Y-57400000D01*
X62366667Y-57433333D01*
X63350000Y-57366667D02*
X63583333Y-58066667D01*
X63816666Y-57366667D01*
X64016666Y-58033333D02*
X64116666Y-58066667D01*
X64283333Y-58066667D01*
X64350000Y-58033333D01*
X64383333Y-58000000D01*
X64416666Y-57933333D01*
X64416666Y-57866667D01*
X64383333Y-57800000D01*
X64350000Y-57766667D01*
X64283333Y-57733333D01*
X64150000Y-57700000D01*
X64083333Y-57666667D01*
X64050000Y-57633333D01*
X64016666Y-57566667D01*
X64016666Y-57500000D01*
X64050000Y-57433333D01*
X64083333Y-57400000D01*
X64150000Y-57366667D01*
X64316666Y-57366667D01*
X64416666Y-57400000D01*
X64683333Y-58033333D02*
X64783333Y-58066667D01*
X64950000Y-58066667D01*
X65016667Y-58033333D01*
X65050000Y-58000000D01*
X65083333Y-57933333D01*
X65083333Y-57866667D01*
X65050000Y-57800000D01*
X65016667Y-57766667D01*
X64950000Y-57733333D01*
X64816667Y-57700000D01*
X64750000Y-57666667D01*
X64716667Y-57633333D01*
X64683333Y-57566667D01*
X64683333Y-57500000D01*
X64716667Y-57433333D01*
X64750000Y-57400000D01*
X64816667Y-57366667D01*
X64983333Y-57366667D01*
X65083333Y-57400000D01*
X58416666Y-58033333D02*
X58516666Y-58066667D01*
X58683333Y-58066667D01*
X58750000Y-58033333D01*
X58783333Y-58000000D01*
X58816666Y-57933333D01*
X58816666Y-57866667D01*
X58783333Y-57800000D01*
X58750000Y-57766667D01*
X58683333Y-57733333D01*
X58550000Y-57700000D01*
X58483333Y-57666667D01*
X58450000Y-57633333D01*
X58416666Y-57566667D01*
X58416666Y-57500000D01*
X58450000Y-57433333D01*
X58483333Y-57400000D01*
X58550000Y-57366667D01*
X58716666Y-57366667D01*
X58816666Y-57400000D01*
X59516667Y-58000000D02*
X59483333Y-58033333D01*
X59383333Y-58066667D01*
X59316667Y-58066667D01*
X59216667Y-58033333D01*
X59150000Y-57966667D01*
X59116667Y-57900000D01*
X59083333Y-57766667D01*
X59083333Y-57666667D01*
X59116667Y-57533333D01*
X59150000Y-57466667D01*
X59216667Y-57400000D01*
X59316667Y-57366667D01*
X59383333Y-57366667D01*
X59483333Y-57400000D01*
X59516667Y-57433333D01*
X60150000Y-58066667D02*
X59816667Y-58066667D01*
X59816667Y-57366667D01*
X55400000Y-58033333D02*
X55500000Y-58066667D01*
X55666667Y-58066667D01*
X55733334Y-58033333D01*
X55766667Y-58000000D01*
X55800000Y-57933333D01*
X55800000Y-57866667D01*
X55766667Y-57800000D01*
X55733334Y-57766667D01*
X55666667Y-57733333D01*
X55533334Y-57700000D01*
X55466667Y-57666667D01*
X55433334Y-57633333D01*
X55400000Y-57566667D01*
X55400000Y-57500000D01*
X55433334Y-57433333D01*
X55466667Y-57400000D01*
X55533334Y-57366667D01*
X55700000Y-57366667D01*
X55800000Y-57400000D01*
X56100001Y-58066667D02*
X56100001Y-57366667D01*
X56266667Y-57366667D01*
X56366667Y-57400000D01*
X56433334Y-57466667D01*
X56466667Y-57533333D01*
X56500001Y-57666667D01*
X56500001Y-57766667D01*
X56466667Y-57900000D01*
X56433334Y-57966667D01*
X56366667Y-58033333D01*
X56266667Y-58066667D01*
X56100001Y-58066667D01*
X56766667Y-57866667D02*
X57100001Y-57866667D01*
X56700001Y-58066667D02*
X56933334Y-57366667D01*
X57166667Y-58066667D01*
X49400000Y-58033333D02*
X49500000Y-58066667D01*
X49666667Y-58066667D01*
X49733334Y-58033333D01*
X49766667Y-58000000D01*
X49800000Y-57933333D01*
X49800000Y-57866667D01*
X49766667Y-57800000D01*
X49733334Y-57766667D01*
X49666667Y-57733333D01*
X49533334Y-57700000D01*
X49466667Y-57666667D01*
X49433334Y-57633333D01*
X49400000Y-57566667D01*
X49400000Y-57500000D01*
X49433334Y-57433333D01*
X49466667Y-57400000D01*
X49533334Y-57366667D01*
X49700000Y-57366667D01*
X49800000Y-57400000D01*
X50100001Y-58066667D02*
X50100001Y-57366667D01*
X50266667Y-57366667D01*
X50366667Y-57400000D01*
X50433334Y-57466667D01*
X50466667Y-57533333D01*
X50500001Y-57666667D01*
X50500001Y-57766667D01*
X50466667Y-57900000D01*
X50433334Y-57966667D01*
X50366667Y-58033333D01*
X50266667Y-58066667D01*
X50100001Y-58066667D01*
X50766667Y-57866667D02*
X51100001Y-57866667D01*
X50700001Y-58066667D02*
X50933334Y-57366667D01*
X51166667Y-58066667D01*
X46916666Y-58033333D02*
X47016666Y-58066667D01*
X47183333Y-58066667D01*
X47250000Y-58033333D01*
X47283333Y-58000000D01*
X47316666Y-57933333D01*
X47316666Y-57866667D01*
X47283333Y-57800000D01*
X47250000Y-57766667D01*
X47183333Y-57733333D01*
X47050000Y-57700000D01*
X46983333Y-57666667D01*
X46950000Y-57633333D01*
X46916666Y-57566667D01*
X46916666Y-57500000D01*
X46950000Y-57433333D01*
X46983333Y-57400000D01*
X47050000Y-57366667D01*
X47216666Y-57366667D01*
X47316666Y-57400000D01*
X48016667Y-58000000D02*
X47983333Y-58033333D01*
X47883333Y-58066667D01*
X47816667Y-58066667D01*
X47716667Y-58033333D01*
X47650000Y-57966667D01*
X47616667Y-57900000D01*
X47583333Y-57766667D01*
X47583333Y-57666667D01*
X47616667Y-57533333D01*
X47650000Y-57466667D01*
X47716667Y-57400000D01*
X47816667Y-57366667D01*
X47883333Y-57366667D01*
X47983333Y-57400000D01*
X48016667Y-57433333D01*
X48650000Y-58066667D02*
X48316667Y-58066667D01*
X48316667Y-57366667D01*
X44066667Y-57366667D02*
X44300000Y-58066667D01*
X44533333Y-57366667D01*
X45166667Y-58000000D02*
X45133333Y-58033333D01*
X45033333Y-58066667D01*
X44966667Y-58066667D01*
X44866667Y-58033333D01*
X44800000Y-57966667D01*
X44766667Y-57900000D01*
X44733333Y-57766667D01*
X44733333Y-57666667D01*
X44766667Y-57533333D01*
X44800000Y-57466667D01*
X44866667Y-57400000D01*
X44966667Y-57366667D01*
X45033333Y-57366667D01*
X45133333Y-57400000D01*
X45166667Y-57433333D01*
X45866667Y-58000000D02*
X45833333Y-58033333D01*
X45733333Y-58066667D01*
X45666667Y-58066667D01*
X45566667Y-58033333D01*
X45500000Y-57966667D01*
X45466667Y-57900000D01*
X45433333Y-57766667D01*
X45433333Y-57666667D01*
X45466667Y-57533333D01*
X45500000Y-57466667D01*
X45566667Y-57400000D01*
X45666667Y-57366667D01*
X45733333Y-57366667D01*
X45833333Y-57400000D01*
X45866667Y-57433333D01*
X41600000Y-57366667D02*
X41833333Y-58066667D01*
X42066666Y-57366667D01*
X42266666Y-58033333D02*
X42366666Y-58066667D01*
X42533333Y-58066667D01*
X42600000Y-58033333D01*
X42633333Y-58000000D01*
X42666666Y-57933333D01*
X42666666Y-57866667D01*
X42633333Y-57800000D01*
X42600000Y-57766667D01*
X42533333Y-57733333D01*
X42400000Y-57700000D01*
X42333333Y-57666667D01*
X42300000Y-57633333D01*
X42266666Y-57566667D01*
X42266666Y-57500000D01*
X42300000Y-57433333D01*
X42333333Y-57400000D01*
X42400000Y-57366667D01*
X42566666Y-57366667D01*
X42666666Y-57400000D01*
X42933333Y-58033333D02*
X43033333Y-58066667D01*
X43200000Y-58066667D01*
X43266667Y-58033333D01*
X43300000Y-58000000D01*
X43333333Y-57933333D01*
X43333333Y-57866667D01*
X43300000Y-57800000D01*
X43266667Y-57766667D01*
X43200000Y-57733333D01*
X43066667Y-57700000D01*
X43000000Y-57666667D01*
X42966667Y-57633333D01*
X42933333Y-57566667D01*
X42933333Y-57500000D01*
X42966667Y-57433333D01*
X43000000Y-57400000D01*
X43066667Y-57366667D01*
X43233333Y-57366667D01*
X43333333Y-57400000D01*
D14*
X79840000Y-83500000D02*
G75*
G03X79840000Y-83500000I-4090000J0D01*
G01*
X75750000Y-79450000D02*
X75750000Y-87550000D01*
X75790000Y-79450000D02*
X75790000Y-87550000D01*
X75830000Y-79450000D02*
X75830000Y-87550000D01*
X75870000Y-79451000D02*
X75870000Y-87549000D01*
X75910000Y-79453000D02*
X75910000Y-87547000D01*
X75950000Y-79454000D02*
X75950000Y-87546000D01*
X75990000Y-79457000D02*
X75990000Y-87543000D01*
X76030000Y-79459000D02*
X76030000Y-82520000D01*
X76030000Y-84480000D02*
X76030000Y-87541000D01*
X76070000Y-79462000D02*
X76070000Y-82520000D01*
X76070000Y-84480000D02*
X76070000Y-87538000D01*
X76110000Y-79465000D02*
X76110000Y-82520000D01*
X76110000Y-84480000D02*
X76110000Y-87535000D01*
X76150000Y-79469000D02*
X76150000Y-82520000D01*
X76150000Y-84480000D02*
X76150000Y-87531000D01*
X76190000Y-79473000D02*
X76190000Y-82520000D01*
X76190000Y-84480000D02*
X76190000Y-87527000D01*
X76230000Y-79478000D02*
X76230000Y-82520000D01*
X76230000Y-84480000D02*
X76230000Y-87522000D01*
X76270000Y-79483000D02*
X76270000Y-82520000D01*
X76270000Y-84480000D02*
X76270000Y-87517000D01*
X76310000Y-79488000D02*
X76310000Y-82520000D01*
X76310000Y-84480000D02*
X76310000Y-87512000D01*
X76350000Y-79494000D02*
X76350000Y-82520000D01*
X76350000Y-84480000D02*
X76350000Y-87506000D01*
X76390000Y-79500000D02*
X76390000Y-82520000D01*
X76390000Y-84480000D02*
X76390000Y-87500000D01*
X76430000Y-79506000D02*
X76430000Y-82520000D01*
X76430000Y-84480000D02*
X76430000Y-87494000D01*
X76471000Y-79513000D02*
X76471000Y-82520000D01*
X76471000Y-84480000D02*
X76471000Y-87487000D01*
X76511000Y-79521000D02*
X76511000Y-82520000D01*
X76511000Y-84480000D02*
X76511000Y-87479000D01*
X76551000Y-79529000D02*
X76551000Y-82520000D01*
X76551000Y-84480000D02*
X76551000Y-87471000D01*
X76591000Y-79537000D02*
X76591000Y-82520000D01*
X76591000Y-84480000D02*
X76591000Y-87463000D01*
X76631000Y-79545000D02*
X76631000Y-82520000D01*
X76631000Y-84480000D02*
X76631000Y-87455000D01*
X76671000Y-79554000D02*
X76671000Y-82520000D01*
X76671000Y-84480000D02*
X76671000Y-87446000D01*
X76711000Y-79564000D02*
X76711000Y-82520000D01*
X76711000Y-84480000D02*
X76711000Y-87436000D01*
X76751000Y-79574000D02*
X76751000Y-82520000D01*
X76751000Y-84480000D02*
X76751000Y-87426000D01*
X76791000Y-79584000D02*
X76791000Y-82520000D01*
X76791000Y-84480000D02*
X76791000Y-87416000D01*
X76831000Y-79595000D02*
X76831000Y-82520000D01*
X76831000Y-84480000D02*
X76831000Y-87405000D01*
X76871000Y-79606000D02*
X76871000Y-82520000D01*
X76871000Y-84480000D02*
X76871000Y-87394000D01*
X76911000Y-79617000D02*
X76911000Y-82520000D01*
X76911000Y-84480000D02*
X76911000Y-87383000D01*
X76951000Y-79630000D02*
X76951000Y-82520000D01*
X76951000Y-84480000D02*
X76951000Y-87370000D01*
X76991000Y-79642000D02*
X76991000Y-82520000D01*
X76991000Y-84480000D02*
X76991000Y-87358000D01*
X77031000Y-79655000D02*
X77031000Y-82520000D01*
X77031000Y-84480000D02*
X77031000Y-87345000D01*
X77071000Y-79668000D02*
X77071000Y-82520000D01*
X77071000Y-84480000D02*
X77071000Y-87332000D01*
X77111000Y-79682000D02*
X77111000Y-82520000D01*
X77111000Y-84480000D02*
X77111000Y-87318000D01*
X77151000Y-79697000D02*
X77151000Y-82520000D01*
X77151000Y-84480000D02*
X77151000Y-87303000D01*
X77191000Y-79711000D02*
X77191000Y-82520000D01*
X77191000Y-84480000D02*
X77191000Y-87289000D01*
X77231000Y-79727000D02*
X77231000Y-82520000D01*
X77231000Y-84480000D02*
X77231000Y-87273000D01*
X77271000Y-79742000D02*
X77271000Y-82520000D01*
X77271000Y-84480000D02*
X77271000Y-87258000D01*
X77311000Y-79759000D02*
X77311000Y-82520000D01*
X77311000Y-84480000D02*
X77311000Y-87241000D01*
X77351000Y-79775000D02*
X77351000Y-82520000D01*
X77351000Y-84480000D02*
X77351000Y-87225000D01*
X77391000Y-79793000D02*
X77391000Y-82520000D01*
X77391000Y-84480000D02*
X77391000Y-87207000D01*
X77431000Y-79810000D02*
X77431000Y-82520000D01*
X77431000Y-84480000D02*
X77431000Y-87190000D01*
X77471000Y-79829000D02*
X77471000Y-82520000D01*
X77471000Y-84480000D02*
X77471000Y-87171000D01*
X77511000Y-79848000D02*
X77511000Y-82520000D01*
X77511000Y-84480000D02*
X77511000Y-87152000D01*
X77551000Y-79867000D02*
X77551000Y-82520000D01*
X77551000Y-84480000D02*
X77551000Y-87133000D01*
X77591000Y-79887000D02*
X77591000Y-82520000D01*
X77591000Y-84480000D02*
X77591000Y-87113000D01*
X77631000Y-79907000D02*
X77631000Y-82520000D01*
X77631000Y-84480000D02*
X77631000Y-87093000D01*
X77671000Y-79928000D02*
X77671000Y-82520000D01*
X77671000Y-84480000D02*
X77671000Y-87072000D01*
X77711000Y-79950000D02*
X77711000Y-82520000D01*
X77711000Y-84480000D02*
X77711000Y-87050000D01*
X77751000Y-79972000D02*
X77751000Y-82520000D01*
X77751000Y-84480000D02*
X77751000Y-87028000D01*
X77791000Y-79995000D02*
X77791000Y-82520000D01*
X77791000Y-84480000D02*
X77791000Y-87005000D01*
X77831000Y-80018000D02*
X77831000Y-82520000D01*
X77831000Y-84480000D02*
X77831000Y-86982000D01*
X77871000Y-80042000D02*
X77871000Y-82520000D01*
X77871000Y-84480000D02*
X77871000Y-86958000D01*
X77911000Y-80066000D02*
X77911000Y-82520000D01*
X77911000Y-84480000D02*
X77911000Y-86934000D01*
X77951000Y-80092000D02*
X77951000Y-82520000D01*
X77951000Y-84480000D02*
X77951000Y-86908000D01*
X77991000Y-80117000D02*
X77991000Y-86883000D01*
X78031000Y-80144000D02*
X78031000Y-86856000D01*
X78071000Y-80171000D02*
X78071000Y-86829000D01*
X78111000Y-80199000D02*
X78111000Y-86801000D01*
X78151000Y-80228000D02*
X78151000Y-86772000D01*
X78191000Y-80257000D02*
X78191000Y-86743000D01*
X78231000Y-80287000D02*
X78231000Y-86713000D01*
X78271000Y-80318000D02*
X78271000Y-86682000D01*
X78311000Y-80350000D02*
X78311000Y-86650000D01*
X78351000Y-80382000D02*
X78351000Y-86618000D01*
X78391000Y-80416000D02*
X78391000Y-86584000D01*
X78431000Y-80450000D02*
X78431000Y-86550000D01*
X78471000Y-80485000D02*
X78471000Y-86515000D01*
X78511000Y-80521000D02*
X78511000Y-86479000D01*
X78551000Y-80558000D02*
X78551000Y-86442000D01*
X78591000Y-80596000D02*
X78591000Y-86404000D01*
X78631000Y-80635000D02*
X78631000Y-86365000D01*
X78671000Y-80676000D02*
X78671000Y-86324000D01*
X78711000Y-80717000D02*
X78711000Y-86283000D01*
X78751000Y-80760000D02*
X78751000Y-86240000D01*
X78791000Y-80803000D02*
X78791000Y-86197000D01*
X78831000Y-80848000D02*
X78831000Y-86152000D01*
X78871000Y-80895000D02*
X78871000Y-86105000D01*
X78911000Y-80943000D02*
X78911000Y-86057000D01*
X78951000Y-80992000D02*
X78951000Y-86008000D01*
X78991000Y-81043000D02*
X78991000Y-85957000D01*
X79031000Y-81096000D02*
X79031000Y-85904000D01*
X79071000Y-81151000D02*
X79071000Y-85849000D01*
X79111000Y-81207000D02*
X79111000Y-85793000D01*
X79151000Y-81266000D02*
X79151000Y-85734000D01*
X79191000Y-81327000D02*
X79191000Y-85673000D01*
X79231000Y-81391000D02*
X79231000Y-85609000D01*
X79271000Y-81457000D02*
X79271000Y-85543000D01*
X79311000Y-81526000D02*
X79311000Y-85474000D01*
X79351000Y-81598000D02*
X79351000Y-85402000D01*
X79391000Y-81674000D02*
X79391000Y-85326000D01*
X79431000Y-81755000D02*
X79431000Y-85245000D01*
X79471000Y-81840000D02*
X79471000Y-85160000D01*
X79511000Y-81930000D02*
X79511000Y-85070000D01*
X79551000Y-82027000D02*
X79551000Y-84973000D01*
X79591000Y-82131000D02*
X79591000Y-84869000D01*
X79631000Y-82246000D02*
X79631000Y-84754000D01*
X79671000Y-82373000D02*
X79671000Y-84627000D01*
X79711000Y-82517000D02*
X79711000Y-84483000D01*
X79751000Y-82686000D02*
X79751000Y-84314000D01*
X79791000Y-82902000D02*
X79791000Y-84098000D01*
X79831000Y-83254000D02*
X79831000Y-83746000D01*
X72300000Y-83500000D02*
X73500000Y-83500000D01*
X72900000Y-82850000D02*
X72900000Y-84150000D01*
X101421392Y-76307665D02*
G75*
G03X101264484Y-79540000I1078608J-1672335D01*
G01*
X103578608Y-76307665D02*
G75*
G02X103735516Y-79540000I-1078608J-1672335D01*
G01*
X101420163Y-76938870D02*
G75*
G03X101420000Y-79020961I1079837J-1041130D01*
G01*
X103579837Y-76938870D02*
G75*
G02X103580000Y-79020961I-1079837J-1041130D01*
G01*
X101264000Y-79540000D02*
X101420000Y-79540000D01*
X103580000Y-79540000D02*
X103736000Y-79540000D01*
X71670000Y-54060000D02*
X81950000Y-54060000D01*
X81950000Y-54060000D02*
X81950000Y-51400000D01*
X81950000Y-51400000D02*
X71670000Y-51400000D01*
X71670000Y-51400000D02*
X71670000Y-54060000D01*
X72620000Y-51400000D02*
X72620000Y-45400000D01*
X72620000Y-45400000D02*
X73380000Y-45400000D01*
X73380000Y-45400000D02*
X73380000Y-51400000D01*
X72680000Y-51400000D02*
X72680000Y-45400000D01*
X72800000Y-51400000D02*
X72800000Y-45400000D01*
X72920000Y-51400000D02*
X72920000Y-45400000D01*
X73040000Y-51400000D02*
X73040000Y-45400000D01*
X73160000Y-51400000D02*
X73160000Y-45400000D01*
X73280000Y-51400000D02*
X73280000Y-45400000D01*
X72620000Y-54390000D02*
X72620000Y-54060000D01*
X73380000Y-54390000D02*
X73380000Y-54060000D01*
X74270000Y-54060000D02*
X74270000Y-51400000D01*
X75160000Y-51400000D02*
X75160000Y-45400000D01*
X75160000Y-45400000D02*
X75920000Y-45400000D01*
X75920000Y-45400000D02*
X75920000Y-51400000D01*
X75160000Y-54457071D02*
X75160000Y-54060000D01*
X75920000Y-54457071D02*
X75920000Y-54060000D01*
X76810000Y-54060000D02*
X76810000Y-51400000D01*
X77700000Y-51400000D02*
X77700000Y-45400000D01*
X77700000Y-45400000D02*
X78460000Y-45400000D01*
X78460000Y-45400000D02*
X78460000Y-51400000D01*
X77700000Y-54457071D02*
X77700000Y-54060000D01*
X78460000Y-54457071D02*
X78460000Y-54060000D01*
X79350000Y-54060000D02*
X79350000Y-51400000D01*
X80240000Y-51400000D02*
X80240000Y-45400000D01*
X80240000Y-45400000D02*
X81000000Y-45400000D01*
X81000000Y-45400000D02*
X81000000Y-51400000D01*
X80240000Y-54457071D02*
X80240000Y-54060000D01*
X81000000Y-54457071D02*
X81000000Y-54060000D01*
X73000000Y-56770000D02*
X71730000Y-56770000D01*
X71730000Y-56770000D02*
X71730000Y-55500000D01*
X41170000Y-54310000D02*
X51450000Y-54310000D01*
X51450000Y-54310000D02*
X51450000Y-51650000D01*
X51450000Y-51650000D02*
X41170000Y-51650000D01*
X41170000Y-51650000D02*
X41170000Y-54310000D01*
X42120000Y-51650000D02*
X42120000Y-45650000D01*
X42120000Y-45650000D02*
X42880000Y-45650000D01*
X42880000Y-45650000D02*
X42880000Y-51650000D01*
X42180000Y-51650000D02*
X42180000Y-45650000D01*
X42300000Y-51650000D02*
X42300000Y-45650000D01*
X42420000Y-51650000D02*
X42420000Y-45650000D01*
X42540000Y-51650000D02*
X42540000Y-45650000D01*
X42660000Y-51650000D02*
X42660000Y-45650000D01*
X42780000Y-51650000D02*
X42780000Y-45650000D01*
X42120000Y-54640000D02*
X42120000Y-54310000D01*
X42880000Y-54640000D02*
X42880000Y-54310000D01*
X43770000Y-54310000D02*
X43770000Y-51650000D01*
X44660000Y-51650000D02*
X44660000Y-45650000D01*
X44660000Y-45650000D02*
X45420000Y-45650000D01*
X45420000Y-45650000D02*
X45420000Y-51650000D01*
X44660000Y-54707071D02*
X44660000Y-54310000D01*
X45420000Y-54707071D02*
X45420000Y-54310000D01*
X46310000Y-54310000D02*
X46310000Y-51650000D01*
X47200000Y-51650000D02*
X47200000Y-45650000D01*
X47200000Y-45650000D02*
X47960000Y-45650000D01*
X47960000Y-45650000D02*
X47960000Y-51650000D01*
X47200000Y-54707071D02*
X47200000Y-54310000D01*
X47960000Y-54707071D02*
X47960000Y-54310000D01*
X48850000Y-54310000D02*
X48850000Y-51650000D01*
X49740000Y-51650000D02*
X49740000Y-45650000D01*
X49740000Y-45650000D02*
X50500000Y-45650000D01*
X50500000Y-45650000D02*
X50500000Y-51650000D01*
X49740000Y-54707071D02*
X49740000Y-54310000D01*
X50500000Y-54707071D02*
X50500000Y-54310000D01*
X42500000Y-57020000D02*
X41230000Y-57020000D01*
X41230000Y-57020000D02*
X41230000Y-55750000D01*
X55170000Y-54060000D02*
X65450000Y-54060000D01*
X65450000Y-54060000D02*
X65450000Y-51400000D01*
X65450000Y-51400000D02*
X55170000Y-51400000D01*
X55170000Y-51400000D02*
X55170000Y-54060000D01*
X56120000Y-51400000D02*
X56120000Y-45400000D01*
X56120000Y-45400000D02*
X56880000Y-45400000D01*
X56880000Y-45400000D02*
X56880000Y-51400000D01*
X56180000Y-51400000D02*
X56180000Y-45400000D01*
X56300000Y-51400000D02*
X56300000Y-45400000D01*
X56420000Y-51400000D02*
X56420000Y-45400000D01*
X56540000Y-51400000D02*
X56540000Y-45400000D01*
X56660000Y-51400000D02*
X56660000Y-45400000D01*
X56780000Y-51400000D02*
X56780000Y-45400000D01*
X56120000Y-54390000D02*
X56120000Y-54060000D01*
X56880000Y-54390000D02*
X56880000Y-54060000D01*
X57770000Y-54060000D02*
X57770000Y-51400000D01*
X58660000Y-51400000D02*
X58660000Y-45400000D01*
X58660000Y-45400000D02*
X59420000Y-45400000D01*
X59420000Y-45400000D02*
X59420000Y-51400000D01*
X58660000Y-54457071D02*
X58660000Y-54060000D01*
X59420000Y-54457071D02*
X59420000Y-54060000D01*
X60310000Y-54060000D02*
X60310000Y-51400000D01*
X61200000Y-51400000D02*
X61200000Y-45400000D01*
X61200000Y-45400000D02*
X61960000Y-45400000D01*
X61960000Y-45400000D02*
X61960000Y-51400000D01*
X61200000Y-54457071D02*
X61200000Y-54060000D01*
X61960000Y-54457071D02*
X61960000Y-54060000D01*
X62850000Y-54060000D02*
X62850000Y-51400000D01*
X63740000Y-51400000D02*
X63740000Y-45400000D01*
X63740000Y-45400000D02*
X64500000Y-45400000D01*
X64500000Y-45400000D02*
X64500000Y-51400000D01*
X63740000Y-54457071D02*
X63740000Y-54060000D01*
X64500000Y-54457071D02*
X64500000Y-54060000D01*
X56500000Y-56770000D02*
X55230000Y-56770000D01*
X55230000Y-56770000D02*
X55230000Y-55500000D01*
D15*
G36*
X77521527Y-81789904D02*
X77524622Y-81916783D01*
X77126492Y-82254283D01*
X77037110Y-82324669D01*
X76593574Y-82768449D01*
X76385239Y-83316076D01*
X76332642Y-84178658D01*
X76332632Y-84196248D01*
X76332632Y-85513685D01*
X80353346Y-85513685D01*
X80173250Y-84796125D01*
X80079806Y-84319159D01*
X80194492Y-84281620D01*
X80407462Y-84461915D01*
X80682976Y-84864680D01*
X80680478Y-85077974D01*
X80777733Y-85375735D01*
X81182445Y-85877382D01*
X81510646Y-86200658D01*
X82187323Y-86971049D01*
X82477027Y-87651993D01*
X82482106Y-87736323D01*
X82686626Y-88336449D01*
X83339124Y-88969785D01*
X83556422Y-89126514D01*
X84330227Y-89603924D01*
X84743528Y-89705351D01*
X84783735Y-89552287D01*
X85569351Y-89552287D01*
X85625197Y-90280896D01*
X85741103Y-91223488D01*
X85894179Y-92224977D01*
X86061536Y-93130275D01*
X86220284Y-93784295D01*
X86305601Y-93997545D01*
X86579606Y-94032028D01*
X87010743Y-93734362D01*
X87483145Y-93232196D01*
X87880947Y-92653180D01*
X88088280Y-92124965D01*
X88096842Y-92024138D01*
X87949836Y-91436372D01*
X87572055Y-90747756D01*
X87058356Y-90065703D01*
X86503595Y-89497626D01*
X86002628Y-89150940D01*
X85650313Y-89133057D01*
X85596455Y-89192749D01*
X85569351Y-89552287D01*
X84783735Y-89552287D01*
X84815499Y-89431365D01*
X84732425Y-89161426D01*
X84362348Y-88819668D01*
X83924026Y-88722106D01*
X83435412Y-88626868D01*
X83284211Y-88454737D01*
X83497784Y-88203505D01*
X84059048Y-88187774D01*
X84848824Y-88382328D01*
X85747929Y-88761952D01*
X86344118Y-89102135D01*
X87192151Y-89716895D01*
X87763206Y-90360973D01*
X88127462Y-91172165D01*
X88355094Y-92288269D01*
X88465376Y-93267369D01*
X88516243Y-93963049D01*
X88508808Y-94284822D01*
X88457925Y-94203158D01*
X88218513Y-93610805D01*
X87895334Y-93488847D01*
X87402653Y-93829008D01*
X87153587Y-94077267D01*
X86685872Y-94592553D01*
X86567657Y-94856557D01*
X86766440Y-94992190D01*
X86901349Y-95031137D01*
X87192760Y-95185618D01*
X87365118Y-95538376D01*
X87457263Y-96214272D01*
X87494522Y-96938130D01*
X87587015Y-97979301D01*
X87759859Y-98780245D01*
X87926245Y-99127602D01*
X88234814Y-99674320D01*
X88426033Y-100363395D01*
X88479022Y-101018443D01*
X88372898Y-101463087D01*
X88213717Y-101555790D01*
X87877765Y-101771465D01*
X87829474Y-101973649D01*
X88032177Y-102290575D01*
X88431053Y-102307859D01*
X88801728Y-102309113D01*
X88978019Y-102537049D01*
X89030473Y-103122953D01*
X89032632Y-103427369D01*
X89032632Y-104630527D01*
X87695790Y-104666314D01*
X86891113Y-104664144D01*
X86428937Y-104530846D01*
X86117587Y-104159746D01*
X85951863Y-103828421D01*
X87294737Y-103828421D01*
X87527161Y-104150979D01*
X87963158Y-104229474D01*
X88500754Y-104090020D01*
X88631579Y-103828421D01*
X88399155Y-103505864D01*
X87963158Y-103427369D01*
X87425563Y-103566823D01*
X87294737Y-103828421D01*
X85951863Y-103828421D01*
X85859906Y-103644577D01*
X85632001Y-103104725D01*
X85510411Y-102590053D01*
X85497543Y-102224211D01*
X86492632Y-102224211D01*
X86706651Y-102578680D01*
X86893685Y-102625263D01*
X87248153Y-102411244D01*
X87294737Y-102224211D01*
X87080718Y-101869742D01*
X86893685Y-101823158D01*
X86539216Y-102037178D01*
X86492632Y-102224211D01*
X85497543Y-102224211D01*
X85488115Y-101956198D01*
X85558090Y-101058800D01*
X85581330Y-100861026D01*
X86553868Y-100861026D01*
X86864571Y-101011152D01*
X87129869Y-101021053D01*
X87628426Y-100940505D01*
X87811342Y-100589014D01*
X87829474Y-100218948D01*
X87745441Y-99631832D01*
X87432773Y-99425117D01*
X87294737Y-99416842D01*
X86858127Y-99501137D01*
X86756349Y-99617369D01*
X86690365Y-100011630D01*
X86591482Y-100419474D01*
X86553868Y-100861026D01*
X85581330Y-100861026D01*
X85682591Y-99999316D01*
X85846091Y-98832972D01*
X86020025Y-97833335D01*
X86177877Y-97143407D01*
X86248475Y-96947312D01*
X86270215Y-96876842D01*
X86812123Y-96876842D01*
X86841023Y-97333461D01*
X86924722Y-97373662D01*
X86935377Y-97349826D01*
X86988268Y-96819050D01*
X86945284Y-96547720D01*
X86860176Y-96438687D01*
X86813887Y-96793814D01*
X86812123Y-96876842D01*
X86270215Y-96876842D01*
X86467577Y-96237122D01*
X86428462Y-95588651D01*
X86207475Y-95261638D01*
X85821755Y-95211869D01*
X85607922Y-95660098D01*
X85591903Y-95755897D01*
X85376374Y-96315355D01*
X85241787Y-96515659D01*
X84984806Y-97020137D01*
X84765030Y-97742535D01*
X84758590Y-97772094D01*
X84567011Y-98667345D01*
X84072059Y-97853463D01*
X83225638Y-96871483D01*
X82129762Y-96349330D01*
X81345790Y-96240166D01*
X80658949Y-96264363D01*
X80373082Y-96457745D01*
X80343158Y-96631445D01*
X80472867Y-96932253D01*
X80944249Y-96978261D01*
X81150338Y-96952750D01*
X81844945Y-96972768D01*
X82241119Y-97176000D01*
X82366253Y-97567384D01*
X82491864Y-98372154D01*
X82602594Y-99469192D01*
X82677275Y-100615280D01*
X82755893Y-101847497D01*
X82855121Y-102872692D01*
X82961879Y-103579341D01*
X83057020Y-103853253D01*
X83307642Y-104110449D01*
X83071688Y-104249705D01*
X82386272Y-104261221D01*
X81746842Y-104199282D01*
X80743853Y-104107074D01*
X79446119Y-104032829D01*
X78093609Y-103989430D01*
X77749602Y-103984667D01*
X76551734Y-103988709D01*
X75778588Y-104039244D01*
X75320917Y-104154075D01*
X75069478Y-104351008D01*
X75017206Y-104430000D01*
X74797076Y-104689125D01*
X74736552Y-104539700D01*
X74918085Y-104107676D01*
X75254792Y-103737594D01*
X75501580Y-103460809D01*
X75661877Y-103055569D01*
X75756313Y-102408355D01*
X75767431Y-102181795D01*
X76600000Y-102181795D01*
X76701356Y-102405116D01*
X77069846Y-102551202D01*
X77802100Y-102643933D01*
X78672106Y-102693895D01*
X79753423Y-102744905D01*
X80690497Y-102795237D01*
X81300189Y-102834963D01*
X81345790Y-102838826D01*
X81840995Y-102736779D01*
X81947369Y-102491579D01*
X81724465Y-102164964D01*
X81412632Y-102090527D01*
X80977145Y-101923349D01*
X80877895Y-101689474D01*
X80754194Y-101456071D01*
X80315931Y-101331057D01*
X79462365Y-101289115D01*
X79282076Y-101288421D01*
X78376135Y-101315599D01*
X77914990Y-101411904D01*
X77810768Y-101599499D01*
X77827066Y-101655364D01*
X77794978Y-101905129D01*
X77354007Y-101904328D01*
X77283937Y-101891563D01*
X76756139Y-101884980D01*
X76600011Y-102177683D01*
X76600000Y-102181795D01*
X75767431Y-102181795D01*
X75805521Y-101405649D01*
X75821416Y-100620000D01*
X76867369Y-100620000D01*
X76953436Y-100803143D01*
X77269186Y-100922282D01*
X77900942Y-100989750D01*
X78935024Y-101017879D01*
X79674737Y-101021053D01*
X80956736Y-101008758D01*
X81790712Y-100963650D01*
X82262987Y-100873400D01*
X82459885Y-100725674D01*
X82482106Y-100620000D01*
X82396038Y-100436858D01*
X82080288Y-100317718D01*
X81448532Y-100250250D01*
X80414450Y-100222122D01*
X79674737Y-100218948D01*
X78392739Y-100231243D01*
X77558763Y-100276350D01*
X77086487Y-100366601D01*
X76889589Y-100514327D01*
X76867369Y-100620000D01*
X75821416Y-100620000D01*
X75844751Y-99070004D01*
X76892656Y-99070004D01*
X76958992Y-99308906D01*
X77252681Y-99550527D01*
X77955545Y-99824516D01*
X79141210Y-99945748D01*
X79541053Y-99951579D01*
X80852012Y-99872633D01*
X81688628Y-99639446D01*
X81829425Y-99550527D01*
X82189449Y-99228944D01*
X82123114Y-98990042D01*
X81829425Y-98748421D01*
X81126561Y-98474431D01*
X79940896Y-98353200D01*
X79541053Y-98347369D01*
X78230094Y-98426315D01*
X77393478Y-98659502D01*
X77252681Y-98748421D01*
X76892656Y-99070004D01*
X75844751Y-99070004D01*
X75861669Y-97946316D01*
X75193351Y-98018263D01*
X74807224Y-98009619D01*
X74551339Y-97803065D01*
X74343393Y-97282265D01*
X74152997Y-96547737D01*
X73853790Y-95566233D01*
X73557738Y-95112470D01*
X73420298Y-95082868D01*
X72972683Y-95047634D01*
X72228763Y-94871921D01*
X71745137Y-94723868D01*
X70923676Y-94498939D01*
X70277359Y-94406609D01*
X70063631Y-94428097D01*
X69775446Y-94767100D01*
X69462931Y-95480714D01*
X69173045Y-96413587D01*
X68952746Y-97410368D01*
X68848991Y-98315704D01*
X68846316Y-98455361D01*
X68780409Y-99077909D01*
X68504834Y-99396398D01*
X67902808Y-99482911D01*
X67242106Y-99445564D01*
X67198750Y-99541096D01*
X67542257Y-99822921D01*
X67843061Y-100015464D01*
X68535890Y-100546011D01*
X68702076Y-100983914D01*
X68690335Y-101021053D01*
X68565388Y-101491172D01*
X68401788Y-102293717D01*
X68274393Y-103019549D01*
X68089743Y-104019861D01*
X67935764Y-104609433D01*
X67827042Y-104751103D01*
X67778162Y-104407705D01*
X67776842Y-104287321D01*
X67573354Y-103702498D01*
X67308948Y-103448785D01*
X67018802Y-103243101D01*
X67208406Y-103175038D01*
X67442632Y-103168131D01*
X67927942Y-103008943D01*
X68044211Y-102758948D01*
X67811787Y-102436390D01*
X67375790Y-102357895D01*
X66828352Y-102505070D01*
X66707369Y-102793720D01*
X66614103Y-103056599D01*
X66249625Y-103145452D01*
X65504211Y-103093931D01*
X64724739Y-103049088D01*
X64361707Y-103157864D01*
X64301053Y-103326527D01*
X64537617Y-103614102D01*
X65036316Y-103713529D01*
X65511897Y-103746024D01*
X65495100Y-103840826D01*
X65236842Y-103962106D01*
X64687583Y-104165845D01*
X64337003Y-104155392D01*
X64140755Y-103853431D01*
X64054490Y-103182649D01*
X64042254Y-102520185D01*
X64835790Y-102520185D01*
X64995244Y-102822158D01*
X65258710Y-102787553D01*
X65861009Y-102640521D01*
X66060815Y-102625263D01*
X66389774Y-102408642D01*
X66440000Y-102195605D01*
X66280546Y-101893632D01*
X66017080Y-101928237D01*
X65414781Y-102075269D01*
X65214975Y-102090527D01*
X64886016Y-102307148D01*
X64835790Y-102520185D01*
X64042254Y-102520185D01*
X64033860Y-102065732D01*
X64033685Y-101864597D01*
X64041427Y-101314981D01*
X65466491Y-101314981D01*
X65583576Y-101650857D01*
X65922274Y-101633638D01*
X66062751Y-101536035D01*
X66382501Y-101098526D01*
X67329602Y-101098526D01*
X67524613Y-101471212D01*
X67776842Y-101555790D01*
X68119753Y-101361029D01*
X68192293Y-101265125D01*
X68223527Y-100857368D01*
X67940645Y-100583800D01*
X67552639Y-100616833D01*
X67479297Y-100676914D01*
X67329602Y-101098526D01*
X66382501Y-101098526D01*
X66388589Y-101090197D01*
X66440000Y-100870410D01*
X66288287Y-100429575D01*
X65949634Y-100408505D01*
X65638946Y-100751722D01*
X65466491Y-101314981D01*
X64041427Y-101314981D01*
X64050306Y-100684745D01*
X64115909Y-99913253D01*
X64254103Y-99424347D01*
X64385205Y-99238597D01*
X66261755Y-99238597D01*
X66298456Y-99397547D01*
X66440000Y-99416842D01*
X66660075Y-99319016D01*
X66618246Y-99238597D01*
X66300942Y-99206598D01*
X66261755Y-99238597D01*
X64385205Y-99238597D01*
X64488495Y-99092253D01*
X64568421Y-99015790D01*
X64969676Y-98540589D01*
X65103158Y-98202996D01*
X65124892Y-98162896D01*
X65905263Y-98162896D01*
X66157106Y-98580595D01*
X66911124Y-98819629D01*
X67175263Y-98851090D01*
X67338828Y-98748421D01*
X68044211Y-98748421D01*
X68188582Y-99104227D01*
X68311579Y-99149474D01*
X68548783Y-98932917D01*
X68578948Y-98748421D01*
X68434576Y-98392616D01*
X68311579Y-98347369D01*
X68074376Y-98563926D01*
X68044211Y-98748421D01*
X67338828Y-98748421D01*
X67469873Y-98666165D01*
X67509474Y-98481053D01*
X67400547Y-98122589D01*
X67308948Y-98076349D01*
X66914687Y-98010365D01*
X66506842Y-97911482D01*
X66029949Y-97888225D01*
X65905263Y-98162896D01*
X65124892Y-98162896D01*
X65306370Y-97828068D01*
X65730529Y-97463063D01*
X66264091Y-96838739D01*
X66399810Y-96508777D01*
X67259244Y-96508777D01*
X67343140Y-96737245D01*
X67727738Y-96941355D01*
X68090765Y-96709555D01*
X68474133Y-96003711D01*
X68656712Y-95542159D01*
X68929257Y-94653085D01*
X68916584Y-94118443D01*
X68601210Y-93829782D01*
X68368518Y-93754361D01*
X68084983Y-93927492D01*
X67774030Y-94458976D01*
X67493917Y-95179335D01*
X67302903Y-95919094D01*
X67259244Y-96508777D01*
X66399810Y-96508777D01*
X66731927Y-95701335D01*
X66826632Y-95381444D01*
X67295365Y-93710895D01*
X66699368Y-93261333D01*
X66364422Y-92979813D01*
X66238181Y-92692901D01*
X66307933Y-92233393D01*
X66560541Y-91435360D01*
X66834985Y-90674815D01*
X67057227Y-90174938D01*
X67147926Y-90058948D01*
X67176253Y-90272921D01*
X67078364Y-90660527D01*
X66900987Y-91405349D01*
X66818830Y-92008651D01*
X66853115Y-92493665D01*
X67039055Y-92535952D01*
X67327426Y-92188355D01*
X67669006Y-91503718D01*
X67923114Y-90823155D01*
X68187617Y-90099852D01*
X68395267Y-89662490D01*
X68473196Y-89596705D01*
X68449318Y-89884754D01*
X68280167Y-90527860D01*
X68041929Y-91268736D01*
X67790371Y-92115209D01*
X67674399Y-92752416D01*
X67707027Y-93015967D01*
X68035169Y-93173936D01*
X68750489Y-93449236D01*
X69730867Y-93796219D01*
X70370382Y-94011523D01*
X71631478Y-94404729D01*
X72483918Y-94586087D01*
X73016136Y-94540835D01*
X73316567Y-94254212D01*
X73473647Y-93711457D01*
X73507188Y-93487939D01*
X73650647Y-92883457D01*
X73899753Y-92190071D01*
X74188982Y-91549686D01*
X74452809Y-91104207D01*
X74625710Y-90995538D01*
X74643634Y-91026769D01*
X74625523Y-91442760D01*
X74456660Y-92146189D01*
X74343984Y-92497295D01*
X74123994Y-93298928D01*
X74072849Y-94085992D01*
X74181549Y-95093323D01*
X74232514Y-95406316D01*
X74451928Y-96561677D01*
X74682824Y-97256412D01*
X75000106Y-97560859D01*
X75478681Y-97545354D01*
X76193452Y-97280234D01*
X76217279Y-97270037D01*
X76936917Y-96987454D01*
X77293624Y-96937160D01*
X77400600Y-97108040D01*
X77402106Y-97153712D01*
X77626262Y-97423152D01*
X78164565Y-97550936D01*
X78815761Y-97537920D01*
X79378601Y-97384960D01*
X79637740Y-97144211D01*
X79624987Y-96884459D01*
X79258148Y-96759933D01*
X78663714Y-96729381D01*
X77535790Y-96715604D01*
X78471579Y-96354632D01*
X79228347Y-96070326D01*
X79836061Y-95854498D01*
X79884869Y-95838378D01*
X80092656Y-95698862D01*
X80017700Y-95439461D01*
X79612532Y-94973688D01*
X79173357Y-94542074D01*
X78956142Y-94273823D01*
X80476117Y-94273823D01*
X80796227Y-94574498D01*
X81516730Y-94834717D01*
X82121915Y-94784060D01*
X82355660Y-94592499D01*
X82354698Y-94172515D01*
X82014334Y-93759920D01*
X81499528Y-93539745D01*
X81412632Y-93534737D01*
X80844431Y-93727562D01*
X80628439Y-93914207D01*
X80476117Y-94273823D01*
X78956142Y-94273823D01*
X78191498Y-93329525D01*
X77728569Y-92052082D01*
X77728779Y-92044860D01*
X78567379Y-92044860D01*
X78778322Y-92767713D01*
X78859883Y-92952497D01*
X79168146Y-93554062D01*
X79375661Y-93730178D01*
X79601104Y-93543037D01*
X79710010Y-93398030D01*
X79985726Y-92781424D01*
X80019038Y-92364160D01*
X79748443Y-91838486D01*
X79343812Y-91462842D01*
X78892000Y-91214525D01*
X78668162Y-91311916D01*
X78570618Y-91523346D01*
X78567379Y-92044860D01*
X77728779Y-92044860D01*
X77758637Y-91018420D01*
X79616439Y-91018420D01*
X79915484Y-91366373D01*
X80278856Y-92081834D01*
X80287293Y-92548870D01*
X80256791Y-92961245D01*
X80471548Y-93123339D01*
X81066183Y-93121563D01*
X81168472Y-93114512D01*
X81966902Y-93159257D01*
X82602447Y-93362805D01*
X82660224Y-93400482D01*
X83222106Y-93584244D01*
X83641545Y-93305775D01*
X83818252Y-92635917D01*
X83818948Y-92581989D01*
X83697936Y-91965510D01*
X83386969Y-91815613D01*
X82964150Y-92164789D01*
X82929985Y-92212177D01*
X82590756Y-92508129D01*
X82383927Y-92387401D01*
X82385522Y-91965068D01*
X82525619Y-91600096D01*
X82590777Y-91241860D01*
X82279118Y-90955364D01*
X81887911Y-90774593D01*
X81288662Y-90562600D01*
X81011292Y-90597922D01*
X80920712Y-90793768D01*
X80665239Y-91048067D01*
X80125867Y-90997644D01*
X79641862Y-90895877D01*
X79616439Y-91018420D01*
X77758637Y-91018420D01*
X77769021Y-90661463D01*
X77832687Y-90379065D01*
X78215536Y-89498879D01*
X78774848Y-89058455D01*
X79412068Y-89087965D01*
X79733659Y-89253979D01*
X79631256Y-89458709D01*
X79381567Y-89656749D01*
X79081278Y-89918587D01*
X79184539Y-90025748D01*
X79741579Y-90050444D01*
X80408989Y-89968991D01*
X80579336Y-89695755D01*
X80260699Y-89214392D01*
X80190376Y-89142256D01*
X79913300Y-88822006D01*
X80038425Y-88726777D01*
X80203654Y-88722106D01*
X80902776Y-88891526D01*
X81796754Y-89332126D01*
X82696962Y-89942408D01*
X83080355Y-90269988D01*
X83762886Y-91246103D01*
X84042640Y-92414289D01*
X83920381Y-93615763D01*
X83396872Y-94691741D01*
X83057271Y-95068274D01*
X82355982Y-95718207D01*
X83285828Y-96477110D01*
X84010194Y-96959876D01*
X84469184Y-97017933D01*
X84512907Y-96989332D01*
X84750789Y-96545905D01*
X84962901Y-95725439D01*
X85128388Y-94685607D01*
X85226393Y-93584085D01*
X85236060Y-92578547D01*
X85174219Y-91989700D01*
X84719366Y-90708382D01*
X83872640Y-89763301D01*
X83227825Y-89361368D01*
X82554530Y-88732851D01*
X82214737Y-87920000D01*
X81880825Y-87119255D01*
X81329468Y-86577666D01*
X80473255Y-86252707D01*
X79224774Y-86101853D01*
X78429453Y-86078459D01*
X77217419Y-86104819D01*
X76457299Y-86221828D01*
X76074686Y-86438120D01*
X75628888Y-86692094D01*
X75379548Y-86673209D01*
X75005153Y-86744782D01*
X74784931Y-87128961D01*
X74835491Y-87604936D01*
X74862216Y-87652811D01*
X75177913Y-87791991D01*
X75353803Y-87690360D01*
X75869129Y-87601089D01*
X76466316Y-87789346D01*
X77268421Y-88143938D01*
X76265790Y-88165653D01*
X75608920Y-88215938D01*
X75327871Y-88425528D01*
X75263881Y-88940856D01*
X75263158Y-89090420D01*
X75150813Y-89808897D01*
X74878768Y-90311712D01*
X74862106Y-90326316D01*
X74640184Y-90446162D01*
X74518552Y-90277905D01*
X74468633Y-89730953D01*
X74461053Y-89054950D01*
X74404514Y-88051132D01*
X74250227Y-87376591D01*
X74126842Y-87188255D01*
X73391019Y-86863499D01*
X72396487Y-86729655D01*
X71394078Y-86815421D01*
X71230525Y-86856867D01*
X70449356Y-87214155D01*
X69685478Y-87771948D01*
X69093337Y-88394390D01*
X68827380Y-88945625D01*
X68825208Y-88972654D01*
X68759414Y-89201802D01*
X68669243Y-89056316D01*
X68344624Y-88742748D01*
X67932017Y-88839648D01*
X67636763Y-89276991D01*
X67453240Y-89665340D01*
X67339918Y-89711146D01*
X67366250Y-89417902D01*
X67581337Y-88838319D01*
X67667276Y-88650761D01*
X68284370Y-87821290D01*
X69193235Y-87116079D01*
X70191372Y-86670171D01*
X70767667Y-86583158D01*
X71400808Y-86461050D01*
X71725314Y-86270898D01*
X72087427Y-86098077D01*
X72695254Y-86165678D01*
X73079807Y-86270898D01*
X73966308Y-86510334D01*
X74459711Y-86503698D01*
X74675043Y-86171501D01*
X74727331Y-85434258D01*
X74728421Y-85131669D01*
X74743868Y-84805929D01*
X75291099Y-84805929D01*
X75300320Y-85525766D01*
X75388740Y-85990034D01*
X75606744Y-86287556D01*
X75812501Y-86143970D01*
X75965685Y-85652164D01*
X76025972Y-84905029D01*
X76014594Y-84548354D01*
X75917613Y-83795226D01*
X75762208Y-83322750D01*
X75664211Y-83241053D01*
X75491732Y-83477089D01*
X75361132Y-84060876D01*
X75291099Y-84805929D01*
X74743868Y-84805929D01*
X74772072Y-84211178D01*
X74964733Y-83575088D01*
X75398972Y-82976049D01*
X75628939Y-82725353D01*
X76319496Y-82125992D01*
X76953741Y-81798848D01*
X77135522Y-81770527D01*
X77521527Y-81789904D01*
X77521527Y-81789904D01*
G37*
X77521527Y-81789904D02*
X77524622Y-81916783D01*
X77126492Y-82254283D01*
X77037110Y-82324669D01*
X76593574Y-82768449D01*
X76385239Y-83316076D01*
X76332642Y-84178658D01*
X76332632Y-84196248D01*
X76332632Y-85513685D01*
X80353346Y-85513685D01*
X80173250Y-84796125D01*
X80079806Y-84319159D01*
X80194492Y-84281620D01*
X80407462Y-84461915D01*
X80682976Y-84864680D01*
X80680478Y-85077974D01*
X80777733Y-85375735D01*
X81182445Y-85877382D01*
X81510646Y-86200658D01*
X82187323Y-86971049D01*
X82477027Y-87651993D01*
X82482106Y-87736323D01*
X82686626Y-88336449D01*
X83339124Y-88969785D01*
X83556422Y-89126514D01*
X84330227Y-89603924D01*
X84743528Y-89705351D01*
X84783735Y-89552287D01*
X85569351Y-89552287D01*
X85625197Y-90280896D01*
X85741103Y-91223488D01*
X85894179Y-92224977D01*
X86061536Y-93130275D01*
X86220284Y-93784295D01*
X86305601Y-93997545D01*
X86579606Y-94032028D01*
X87010743Y-93734362D01*
X87483145Y-93232196D01*
X87880947Y-92653180D01*
X88088280Y-92124965D01*
X88096842Y-92024138D01*
X87949836Y-91436372D01*
X87572055Y-90747756D01*
X87058356Y-90065703D01*
X86503595Y-89497626D01*
X86002628Y-89150940D01*
X85650313Y-89133057D01*
X85596455Y-89192749D01*
X85569351Y-89552287D01*
X84783735Y-89552287D01*
X84815499Y-89431365D01*
X84732425Y-89161426D01*
X84362348Y-88819668D01*
X83924026Y-88722106D01*
X83435412Y-88626868D01*
X83284211Y-88454737D01*
X83497784Y-88203505D01*
X84059048Y-88187774D01*
X84848824Y-88382328D01*
X85747929Y-88761952D01*
X86344118Y-89102135D01*
X87192151Y-89716895D01*
X87763206Y-90360973D01*
X88127462Y-91172165D01*
X88355094Y-92288269D01*
X88465376Y-93267369D01*
X88516243Y-93963049D01*
X88508808Y-94284822D01*
X88457925Y-94203158D01*
X88218513Y-93610805D01*
X87895334Y-93488847D01*
X87402653Y-93829008D01*
X87153587Y-94077267D01*
X86685872Y-94592553D01*
X86567657Y-94856557D01*
X86766440Y-94992190D01*
X86901349Y-95031137D01*
X87192760Y-95185618D01*
X87365118Y-95538376D01*
X87457263Y-96214272D01*
X87494522Y-96938130D01*
X87587015Y-97979301D01*
X87759859Y-98780245D01*
X87926245Y-99127602D01*
X88234814Y-99674320D01*
X88426033Y-100363395D01*
X88479022Y-101018443D01*
X88372898Y-101463087D01*
X88213717Y-101555790D01*
X87877765Y-101771465D01*
X87829474Y-101973649D01*
X88032177Y-102290575D01*
X88431053Y-102307859D01*
X88801728Y-102309113D01*
X88978019Y-102537049D01*
X89030473Y-103122953D01*
X89032632Y-103427369D01*
X89032632Y-104630527D01*
X87695790Y-104666314D01*
X86891113Y-104664144D01*
X86428937Y-104530846D01*
X86117587Y-104159746D01*
X85951863Y-103828421D01*
X87294737Y-103828421D01*
X87527161Y-104150979D01*
X87963158Y-104229474D01*
X88500754Y-104090020D01*
X88631579Y-103828421D01*
X88399155Y-103505864D01*
X87963158Y-103427369D01*
X87425563Y-103566823D01*
X87294737Y-103828421D01*
X85951863Y-103828421D01*
X85859906Y-103644577D01*
X85632001Y-103104725D01*
X85510411Y-102590053D01*
X85497543Y-102224211D01*
X86492632Y-102224211D01*
X86706651Y-102578680D01*
X86893685Y-102625263D01*
X87248153Y-102411244D01*
X87294737Y-102224211D01*
X87080718Y-101869742D01*
X86893685Y-101823158D01*
X86539216Y-102037178D01*
X86492632Y-102224211D01*
X85497543Y-102224211D01*
X85488115Y-101956198D01*
X85558090Y-101058800D01*
X85581330Y-100861026D01*
X86553868Y-100861026D01*
X86864571Y-101011152D01*
X87129869Y-101021053D01*
X87628426Y-100940505D01*
X87811342Y-100589014D01*
X87829474Y-100218948D01*
X87745441Y-99631832D01*
X87432773Y-99425117D01*
X87294737Y-99416842D01*
X86858127Y-99501137D01*
X86756349Y-99617369D01*
X86690365Y-100011630D01*
X86591482Y-100419474D01*
X86553868Y-100861026D01*
X85581330Y-100861026D01*
X85682591Y-99999316D01*
X85846091Y-98832972D01*
X86020025Y-97833335D01*
X86177877Y-97143407D01*
X86248475Y-96947312D01*
X86270215Y-96876842D01*
X86812123Y-96876842D01*
X86841023Y-97333461D01*
X86924722Y-97373662D01*
X86935377Y-97349826D01*
X86988268Y-96819050D01*
X86945284Y-96547720D01*
X86860176Y-96438687D01*
X86813887Y-96793814D01*
X86812123Y-96876842D01*
X86270215Y-96876842D01*
X86467577Y-96237122D01*
X86428462Y-95588651D01*
X86207475Y-95261638D01*
X85821755Y-95211869D01*
X85607922Y-95660098D01*
X85591903Y-95755897D01*
X85376374Y-96315355D01*
X85241787Y-96515659D01*
X84984806Y-97020137D01*
X84765030Y-97742535D01*
X84758590Y-97772094D01*
X84567011Y-98667345D01*
X84072059Y-97853463D01*
X83225638Y-96871483D01*
X82129762Y-96349330D01*
X81345790Y-96240166D01*
X80658949Y-96264363D01*
X80373082Y-96457745D01*
X80343158Y-96631445D01*
X80472867Y-96932253D01*
X80944249Y-96978261D01*
X81150338Y-96952750D01*
X81844945Y-96972768D01*
X82241119Y-97176000D01*
X82366253Y-97567384D01*
X82491864Y-98372154D01*
X82602594Y-99469192D01*
X82677275Y-100615280D01*
X82755893Y-101847497D01*
X82855121Y-102872692D01*
X82961879Y-103579341D01*
X83057020Y-103853253D01*
X83307642Y-104110449D01*
X83071688Y-104249705D01*
X82386272Y-104261221D01*
X81746842Y-104199282D01*
X80743853Y-104107074D01*
X79446119Y-104032829D01*
X78093609Y-103989430D01*
X77749602Y-103984667D01*
X76551734Y-103988709D01*
X75778588Y-104039244D01*
X75320917Y-104154075D01*
X75069478Y-104351008D01*
X75017206Y-104430000D01*
X74797076Y-104689125D01*
X74736552Y-104539700D01*
X74918085Y-104107676D01*
X75254792Y-103737594D01*
X75501580Y-103460809D01*
X75661877Y-103055569D01*
X75756313Y-102408355D01*
X75767431Y-102181795D01*
X76600000Y-102181795D01*
X76701356Y-102405116D01*
X77069846Y-102551202D01*
X77802100Y-102643933D01*
X78672106Y-102693895D01*
X79753423Y-102744905D01*
X80690497Y-102795237D01*
X81300189Y-102834963D01*
X81345790Y-102838826D01*
X81840995Y-102736779D01*
X81947369Y-102491579D01*
X81724465Y-102164964D01*
X81412632Y-102090527D01*
X80977145Y-101923349D01*
X80877895Y-101689474D01*
X80754194Y-101456071D01*
X80315931Y-101331057D01*
X79462365Y-101289115D01*
X79282076Y-101288421D01*
X78376135Y-101315599D01*
X77914990Y-101411904D01*
X77810768Y-101599499D01*
X77827066Y-101655364D01*
X77794978Y-101905129D01*
X77354007Y-101904328D01*
X77283937Y-101891563D01*
X76756139Y-101884980D01*
X76600011Y-102177683D01*
X76600000Y-102181795D01*
X75767431Y-102181795D01*
X75805521Y-101405649D01*
X75821416Y-100620000D01*
X76867369Y-100620000D01*
X76953436Y-100803143D01*
X77269186Y-100922282D01*
X77900942Y-100989750D01*
X78935024Y-101017879D01*
X79674737Y-101021053D01*
X80956736Y-101008758D01*
X81790712Y-100963650D01*
X82262987Y-100873400D01*
X82459885Y-100725674D01*
X82482106Y-100620000D01*
X82396038Y-100436858D01*
X82080288Y-100317718D01*
X81448532Y-100250250D01*
X80414450Y-100222122D01*
X79674737Y-100218948D01*
X78392739Y-100231243D01*
X77558763Y-100276350D01*
X77086487Y-100366601D01*
X76889589Y-100514327D01*
X76867369Y-100620000D01*
X75821416Y-100620000D01*
X75844751Y-99070004D01*
X76892656Y-99070004D01*
X76958992Y-99308906D01*
X77252681Y-99550527D01*
X77955545Y-99824516D01*
X79141210Y-99945748D01*
X79541053Y-99951579D01*
X80852012Y-99872633D01*
X81688628Y-99639446D01*
X81829425Y-99550527D01*
X82189449Y-99228944D01*
X82123114Y-98990042D01*
X81829425Y-98748421D01*
X81126561Y-98474431D01*
X79940896Y-98353200D01*
X79541053Y-98347369D01*
X78230094Y-98426315D01*
X77393478Y-98659502D01*
X77252681Y-98748421D01*
X76892656Y-99070004D01*
X75844751Y-99070004D01*
X75861669Y-97946316D01*
X75193351Y-98018263D01*
X74807224Y-98009619D01*
X74551339Y-97803065D01*
X74343393Y-97282265D01*
X74152997Y-96547737D01*
X73853790Y-95566233D01*
X73557738Y-95112470D01*
X73420298Y-95082868D01*
X72972683Y-95047634D01*
X72228763Y-94871921D01*
X71745137Y-94723868D01*
X70923676Y-94498939D01*
X70277359Y-94406609D01*
X70063631Y-94428097D01*
X69775446Y-94767100D01*
X69462931Y-95480714D01*
X69173045Y-96413587D01*
X68952746Y-97410368D01*
X68848991Y-98315704D01*
X68846316Y-98455361D01*
X68780409Y-99077909D01*
X68504834Y-99396398D01*
X67902808Y-99482911D01*
X67242106Y-99445564D01*
X67198750Y-99541096D01*
X67542257Y-99822921D01*
X67843061Y-100015464D01*
X68535890Y-100546011D01*
X68702076Y-100983914D01*
X68690335Y-101021053D01*
X68565388Y-101491172D01*
X68401788Y-102293717D01*
X68274393Y-103019549D01*
X68089743Y-104019861D01*
X67935764Y-104609433D01*
X67827042Y-104751103D01*
X67778162Y-104407705D01*
X67776842Y-104287321D01*
X67573354Y-103702498D01*
X67308948Y-103448785D01*
X67018802Y-103243101D01*
X67208406Y-103175038D01*
X67442632Y-103168131D01*
X67927942Y-103008943D01*
X68044211Y-102758948D01*
X67811787Y-102436390D01*
X67375790Y-102357895D01*
X66828352Y-102505070D01*
X66707369Y-102793720D01*
X66614103Y-103056599D01*
X66249625Y-103145452D01*
X65504211Y-103093931D01*
X64724739Y-103049088D01*
X64361707Y-103157864D01*
X64301053Y-103326527D01*
X64537617Y-103614102D01*
X65036316Y-103713529D01*
X65511897Y-103746024D01*
X65495100Y-103840826D01*
X65236842Y-103962106D01*
X64687583Y-104165845D01*
X64337003Y-104155392D01*
X64140755Y-103853431D01*
X64054490Y-103182649D01*
X64042254Y-102520185D01*
X64835790Y-102520185D01*
X64995244Y-102822158D01*
X65258710Y-102787553D01*
X65861009Y-102640521D01*
X66060815Y-102625263D01*
X66389774Y-102408642D01*
X66440000Y-102195605D01*
X66280546Y-101893632D01*
X66017080Y-101928237D01*
X65414781Y-102075269D01*
X65214975Y-102090527D01*
X64886016Y-102307148D01*
X64835790Y-102520185D01*
X64042254Y-102520185D01*
X64033860Y-102065732D01*
X64033685Y-101864597D01*
X64041427Y-101314981D01*
X65466491Y-101314981D01*
X65583576Y-101650857D01*
X65922274Y-101633638D01*
X66062751Y-101536035D01*
X66382501Y-101098526D01*
X67329602Y-101098526D01*
X67524613Y-101471212D01*
X67776842Y-101555790D01*
X68119753Y-101361029D01*
X68192293Y-101265125D01*
X68223527Y-100857368D01*
X67940645Y-100583800D01*
X67552639Y-100616833D01*
X67479297Y-100676914D01*
X67329602Y-101098526D01*
X66382501Y-101098526D01*
X66388589Y-101090197D01*
X66440000Y-100870410D01*
X66288287Y-100429575D01*
X65949634Y-100408505D01*
X65638946Y-100751722D01*
X65466491Y-101314981D01*
X64041427Y-101314981D01*
X64050306Y-100684745D01*
X64115909Y-99913253D01*
X64254103Y-99424347D01*
X64385205Y-99238597D01*
X66261755Y-99238597D01*
X66298456Y-99397547D01*
X66440000Y-99416842D01*
X66660075Y-99319016D01*
X66618246Y-99238597D01*
X66300942Y-99206598D01*
X66261755Y-99238597D01*
X64385205Y-99238597D01*
X64488495Y-99092253D01*
X64568421Y-99015790D01*
X64969676Y-98540589D01*
X65103158Y-98202996D01*
X65124892Y-98162896D01*
X65905263Y-98162896D01*
X66157106Y-98580595D01*
X66911124Y-98819629D01*
X67175263Y-98851090D01*
X67338828Y-98748421D01*
X68044211Y-98748421D01*
X68188582Y-99104227D01*
X68311579Y-99149474D01*
X68548783Y-98932917D01*
X68578948Y-98748421D01*
X68434576Y-98392616D01*
X68311579Y-98347369D01*
X68074376Y-98563926D01*
X68044211Y-98748421D01*
X67338828Y-98748421D01*
X67469873Y-98666165D01*
X67509474Y-98481053D01*
X67400547Y-98122589D01*
X67308948Y-98076349D01*
X66914687Y-98010365D01*
X66506842Y-97911482D01*
X66029949Y-97888225D01*
X65905263Y-98162896D01*
X65124892Y-98162896D01*
X65306370Y-97828068D01*
X65730529Y-97463063D01*
X66264091Y-96838739D01*
X66399810Y-96508777D01*
X67259244Y-96508777D01*
X67343140Y-96737245D01*
X67727738Y-96941355D01*
X68090765Y-96709555D01*
X68474133Y-96003711D01*
X68656712Y-95542159D01*
X68929257Y-94653085D01*
X68916584Y-94118443D01*
X68601210Y-93829782D01*
X68368518Y-93754361D01*
X68084983Y-93927492D01*
X67774030Y-94458976D01*
X67493917Y-95179335D01*
X67302903Y-95919094D01*
X67259244Y-96508777D01*
X66399810Y-96508777D01*
X66731927Y-95701335D01*
X66826632Y-95381444D01*
X67295365Y-93710895D01*
X66699368Y-93261333D01*
X66364422Y-92979813D01*
X66238181Y-92692901D01*
X66307933Y-92233393D01*
X66560541Y-91435360D01*
X66834985Y-90674815D01*
X67057227Y-90174938D01*
X67147926Y-90058948D01*
X67176253Y-90272921D01*
X67078364Y-90660527D01*
X66900987Y-91405349D01*
X66818830Y-92008651D01*
X66853115Y-92493665D01*
X67039055Y-92535952D01*
X67327426Y-92188355D01*
X67669006Y-91503718D01*
X67923114Y-90823155D01*
X68187617Y-90099852D01*
X68395267Y-89662490D01*
X68473196Y-89596705D01*
X68449318Y-89884754D01*
X68280167Y-90527860D01*
X68041929Y-91268736D01*
X67790371Y-92115209D01*
X67674399Y-92752416D01*
X67707027Y-93015967D01*
X68035169Y-93173936D01*
X68750489Y-93449236D01*
X69730867Y-93796219D01*
X70370382Y-94011523D01*
X71631478Y-94404729D01*
X72483918Y-94586087D01*
X73016136Y-94540835D01*
X73316567Y-94254212D01*
X73473647Y-93711457D01*
X73507188Y-93487939D01*
X73650647Y-92883457D01*
X73899753Y-92190071D01*
X74188982Y-91549686D01*
X74452809Y-91104207D01*
X74625710Y-90995538D01*
X74643634Y-91026769D01*
X74625523Y-91442760D01*
X74456660Y-92146189D01*
X74343984Y-92497295D01*
X74123994Y-93298928D01*
X74072849Y-94085992D01*
X74181549Y-95093323D01*
X74232514Y-95406316D01*
X74451928Y-96561677D01*
X74682824Y-97256412D01*
X75000106Y-97560859D01*
X75478681Y-97545354D01*
X76193452Y-97280234D01*
X76217279Y-97270037D01*
X76936917Y-96987454D01*
X77293624Y-96937160D01*
X77400600Y-97108040D01*
X77402106Y-97153712D01*
X77626262Y-97423152D01*
X78164565Y-97550936D01*
X78815761Y-97537920D01*
X79378601Y-97384960D01*
X79637740Y-97144211D01*
X79624987Y-96884459D01*
X79258148Y-96759933D01*
X78663714Y-96729381D01*
X77535790Y-96715604D01*
X78471579Y-96354632D01*
X79228347Y-96070326D01*
X79836061Y-95854498D01*
X79884869Y-95838378D01*
X80092656Y-95698862D01*
X80017700Y-95439461D01*
X79612532Y-94973688D01*
X79173357Y-94542074D01*
X78956142Y-94273823D01*
X80476117Y-94273823D01*
X80796227Y-94574498D01*
X81516730Y-94834717D01*
X82121915Y-94784060D01*
X82355660Y-94592499D01*
X82354698Y-94172515D01*
X82014334Y-93759920D01*
X81499528Y-93539745D01*
X81412632Y-93534737D01*
X80844431Y-93727562D01*
X80628439Y-93914207D01*
X80476117Y-94273823D01*
X78956142Y-94273823D01*
X78191498Y-93329525D01*
X77728569Y-92052082D01*
X77728779Y-92044860D01*
X78567379Y-92044860D01*
X78778322Y-92767713D01*
X78859883Y-92952497D01*
X79168146Y-93554062D01*
X79375661Y-93730178D01*
X79601104Y-93543037D01*
X79710010Y-93398030D01*
X79985726Y-92781424D01*
X80019038Y-92364160D01*
X79748443Y-91838486D01*
X79343812Y-91462842D01*
X78892000Y-91214525D01*
X78668162Y-91311916D01*
X78570618Y-91523346D01*
X78567379Y-92044860D01*
X77728779Y-92044860D01*
X77758637Y-91018420D01*
X79616439Y-91018420D01*
X79915484Y-91366373D01*
X80278856Y-92081834D01*
X80287293Y-92548870D01*
X80256791Y-92961245D01*
X80471548Y-93123339D01*
X81066183Y-93121563D01*
X81168472Y-93114512D01*
X81966902Y-93159257D01*
X82602447Y-93362805D01*
X82660224Y-93400482D01*
X83222106Y-93584244D01*
X83641545Y-93305775D01*
X83818252Y-92635917D01*
X83818948Y-92581989D01*
X83697936Y-91965510D01*
X83386969Y-91815613D01*
X82964150Y-92164789D01*
X82929985Y-92212177D01*
X82590756Y-92508129D01*
X82383927Y-92387401D01*
X82385522Y-91965068D01*
X82525619Y-91600096D01*
X82590777Y-91241860D01*
X82279118Y-90955364D01*
X81887911Y-90774593D01*
X81288662Y-90562600D01*
X81011292Y-90597922D01*
X80920712Y-90793768D01*
X80665239Y-91048067D01*
X80125867Y-90997644D01*
X79641862Y-90895877D01*
X79616439Y-91018420D01*
X77758637Y-91018420D01*
X77769021Y-90661463D01*
X77832687Y-90379065D01*
X78215536Y-89498879D01*
X78774848Y-89058455D01*
X79412068Y-89087965D01*
X79733659Y-89253979D01*
X79631256Y-89458709D01*
X79381567Y-89656749D01*
X79081278Y-89918587D01*
X79184539Y-90025748D01*
X79741579Y-90050444D01*
X80408989Y-89968991D01*
X80579336Y-89695755D01*
X80260699Y-89214392D01*
X80190376Y-89142256D01*
X79913300Y-88822006D01*
X80038425Y-88726777D01*
X80203654Y-88722106D01*
X80902776Y-88891526D01*
X81796754Y-89332126D01*
X82696962Y-89942408D01*
X83080355Y-90269988D01*
X83762886Y-91246103D01*
X84042640Y-92414289D01*
X83920381Y-93615763D01*
X83396872Y-94691741D01*
X83057271Y-95068274D01*
X82355982Y-95718207D01*
X83285828Y-96477110D01*
X84010194Y-96959876D01*
X84469184Y-97017933D01*
X84512907Y-96989332D01*
X84750789Y-96545905D01*
X84962901Y-95725439D01*
X85128388Y-94685607D01*
X85226393Y-93584085D01*
X85236060Y-92578547D01*
X85174219Y-91989700D01*
X84719366Y-90708382D01*
X83872640Y-89763301D01*
X83227825Y-89361368D01*
X82554530Y-88732851D01*
X82214737Y-87920000D01*
X81880825Y-87119255D01*
X81329468Y-86577666D01*
X80473255Y-86252707D01*
X79224774Y-86101853D01*
X78429453Y-86078459D01*
X77217419Y-86104819D01*
X76457299Y-86221828D01*
X76074686Y-86438120D01*
X75628888Y-86692094D01*
X75379548Y-86673209D01*
X75005153Y-86744782D01*
X74784931Y-87128961D01*
X74835491Y-87604936D01*
X74862216Y-87652811D01*
X75177913Y-87791991D01*
X75353803Y-87690360D01*
X75869129Y-87601089D01*
X76466316Y-87789346D01*
X77268421Y-88143938D01*
X76265790Y-88165653D01*
X75608920Y-88215938D01*
X75327871Y-88425528D01*
X75263881Y-88940856D01*
X75263158Y-89090420D01*
X75150813Y-89808897D01*
X74878768Y-90311712D01*
X74862106Y-90326316D01*
X74640184Y-90446162D01*
X74518552Y-90277905D01*
X74468633Y-89730953D01*
X74461053Y-89054950D01*
X74404514Y-88051132D01*
X74250227Y-87376591D01*
X74126842Y-87188255D01*
X73391019Y-86863499D01*
X72396487Y-86729655D01*
X71394078Y-86815421D01*
X71230525Y-86856867D01*
X70449356Y-87214155D01*
X69685478Y-87771948D01*
X69093337Y-88394390D01*
X68827380Y-88945625D01*
X68825208Y-88972654D01*
X68759414Y-89201802D01*
X68669243Y-89056316D01*
X68344624Y-88742748D01*
X67932017Y-88839648D01*
X67636763Y-89276991D01*
X67453240Y-89665340D01*
X67339918Y-89711146D01*
X67366250Y-89417902D01*
X67581337Y-88838319D01*
X67667276Y-88650761D01*
X68284370Y-87821290D01*
X69193235Y-87116079D01*
X70191372Y-86670171D01*
X70767667Y-86583158D01*
X71400808Y-86461050D01*
X71725314Y-86270898D01*
X72087427Y-86098077D01*
X72695254Y-86165678D01*
X73079807Y-86270898D01*
X73966308Y-86510334D01*
X74459711Y-86503698D01*
X74675043Y-86171501D01*
X74727331Y-85434258D01*
X74728421Y-85131669D01*
X74743868Y-84805929D01*
X75291099Y-84805929D01*
X75300320Y-85525766D01*
X75388740Y-85990034D01*
X75606744Y-86287556D01*
X75812501Y-86143970D01*
X75965685Y-85652164D01*
X76025972Y-84905029D01*
X76014594Y-84548354D01*
X75917613Y-83795226D01*
X75762208Y-83322750D01*
X75664211Y-83241053D01*
X75491732Y-83477089D01*
X75361132Y-84060876D01*
X75291099Y-84805929D01*
X74743868Y-84805929D01*
X74772072Y-84211178D01*
X74964733Y-83575088D01*
X75398972Y-82976049D01*
X75628939Y-82725353D01*
X76319496Y-82125992D01*
X76953741Y-81798848D01*
X77135522Y-81770527D01*
X77521527Y-81789904D01*
G36*
X88631579Y-95147339D02*
X88414894Y-95377141D01*
X88230527Y-95406316D01*
X87873801Y-95349112D01*
X87829474Y-95301237D01*
X88038544Y-95128837D01*
X88230527Y-95042260D01*
X88574805Y-95036703D01*
X88631579Y-95147339D01*
X88631579Y-95147339D01*
G37*
X88631579Y-95147339D02*
X88414894Y-95377141D01*
X88230527Y-95406316D01*
X87873801Y-95349112D01*
X87829474Y-95301237D01*
X88038544Y-95128837D01*
X88230527Y-95042260D01*
X88574805Y-95036703D01*
X88631579Y-95147339D01*
G36*
X76321751Y-93194086D02*
X76332632Y-93267369D01*
X76241410Y-93527786D01*
X76214727Y-93534737D01*
X75986456Y-93347382D01*
X75931579Y-93267369D01*
X75952778Y-93020993D01*
X76049484Y-93000000D01*
X76321751Y-93194086D01*
X76321751Y-93194086D01*
G37*
X76321751Y-93194086D02*
X76332632Y-93267369D01*
X76241410Y-93527786D01*
X76214727Y-93534737D01*
X75986456Y-93347382D01*
X75931579Y-93267369D01*
X75952778Y-93020993D01*
X76049484Y-93000000D01*
X76321751Y-93194086D01*
G36*
X73121145Y-92137387D02*
X73124211Y-92197895D01*
X72918671Y-92454989D01*
X72841063Y-92465263D01*
X72681381Y-92301463D01*
X72723158Y-92197895D01*
X72963417Y-91942830D01*
X73006306Y-91930527D01*
X73121145Y-92137387D01*
X73121145Y-92137387D01*
G37*
X73121145Y-92137387D02*
X73124211Y-92197895D01*
X72918671Y-92454989D01*
X72841063Y-92465263D01*
X72681381Y-92301463D01*
X72723158Y-92197895D01*
X72963417Y-91942830D01*
X73006306Y-91930527D01*
X73121145Y-92137387D01*
G36*
X71784303Y-87859493D02*
X71787369Y-87920000D01*
X71581829Y-88177094D01*
X71504221Y-88187369D01*
X71344539Y-88023569D01*
X71386316Y-87920000D01*
X71626575Y-87664935D01*
X71669464Y-87652632D01*
X71784303Y-87859493D01*
X71784303Y-87859493D01*
G37*
X71784303Y-87859493D02*
X71787369Y-87920000D01*
X71581829Y-88177094D01*
X71504221Y-88187369D01*
X71344539Y-88023569D01*
X71386316Y-87920000D01*
X71626575Y-87664935D01*
X71669464Y-87652632D01*
X71784303Y-87859493D01*
G36*
X79189801Y-86755864D02*
X79140000Y-86850527D01*
X78888082Y-87105864D01*
X78841073Y-87117895D01*
X78822831Y-86945189D01*
X78872632Y-86850527D01*
X79124550Y-86595189D01*
X79171559Y-86583158D01*
X79189801Y-86755864D01*
X79189801Y-86755864D01*
G37*
X79189801Y-86755864D02*
X79140000Y-86850527D01*
X78888082Y-87105864D01*
X78841073Y-87117895D01*
X78822831Y-86945189D01*
X78872632Y-86850527D01*
X79124550Y-86595189D01*
X79171559Y-86583158D01*
X79189801Y-86755864D01*
G36*
X78880818Y-81959786D02*
X79535774Y-82411770D01*
X80251045Y-83020277D01*
X80889776Y-83662157D01*
X81315114Y-84214260D01*
X81412632Y-84477684D01*
X81305243Y-84706426D01*
X81080767Y-84525846D01*
X80974583Y-84310527D01*
X80665970Y-83955706D01*
X80498518Y-83909474D01*
X80142756Y-83711639D01*
X79672808Y-83222745D01*
X79571548Y-83091434D01*
X79013898Y-82481098D01*
X78447455Y-82067088D01*
X78384952Y-82038908D01*
X77803158Y-81804422D01*
X78423032Y-81787474D01*
X78880818Y-81959786D01*
X78880818Y-81959786D01*
G37*
X78880818Y-81959786D02*
X79535774Y-82411770D01*
X80251045Y-83020277D01*
X80889776Y-83662157D01*
X81315114Y-84214260D01*
X81412632Y-84477684D01*
X81305243Y-84706426D01*
X81080767Y-84525846D01*
X80974583Y-84310527D01*
X80665970Y-83955706D01*
X80498518Y-83909474D01*
X80142756Y-83711639D01*
X79672808Y-83222745D01*
X79571548Y-83091434D01*
X79013898Y-82481098D01*
X78447455Y-82067088D01*
X78384952Y-82038908D01*
X77803158Y-81804422D01*
X78423032Y-81787474D01*
X78880818Y-81959786D01*
G36*
X78952842Y-83428211D02*
X79251158Y-83931135D01*
X79150395Y-84320705D01*
X78783509Y-84444211D01*
X78275128Y-84356921D01*
X78115088Y-84265965D01*
X77961964Y-83872795D01*
X77936842Y-83597544D01*
X78112221Y-83186178D01*
X78532506Y-83151965D01*
X78952842Y-83428211D01*
X78952842Y-83428211D01*
G37*
X78952842Y-83428211D02*
X79251158Y-83931135D01*
X79150395Y-84320705D01*
X78783509Y-84444211D01*
X78275128Y-84356921D01*
X78115088Y-84265965D01*
X77961964Y-83872795D01*
X77936842Y-83597544D01*
X78112221Y-83186178D01*
X78532506Y-83151965D01*
X78952842Y-83428211D01*
G36*
X80247680Y-98945169D02*
X80697727Y-99101515D01*
X80744211Y-99149474D01*
X80611008Y-99313767D01*
X80013607Y-99404079D01*
X79541053Y-99416842D01*
X78728544Y-99370977D01*
X78345201Y-99243346D01*
X78337895Y-99149474D01*
X78689001Y-98977486D01*
X79352195Y-98886444D01*
X79541053Y-98882106D01*
X80247680Y-98945169D01*
X80247680Y-98945169D01*
G37*
X80247680Y-98945169D02*
X80697727Y-99101515D01*
X80744211Y-99149474D01*
X80611008Y-99313767D01*
X80013607Y-99404079D01*
X79541053Y-99416842D01*
X78728544Y-99370977D01*
X78345201Y-99243346D01*
X78337895Y-99149474D01*
X78689001Y-98977486D01*
X79352195Y-98886444D01*
X79541053Y-98882106D01*
X80247680Y-98945169D01*
D16*
X62778000Y-101774000D02*
X64810000Y-101774000D01*
X64810000Y-101774000D02*
X64810000Y-105330000D01*
X64810000Y-105330000D02*
X57190000Y-105330000D01*
X57190000Y-105330000D02*
X57190000Y-101774000D01*
X57190000Y-101774000D02*
X59222000Y-101774000D01*
X66080000Y-106346000D02*
X67096000Y-106346000D01*
X54904000Y-106346000D02*
X55920000Y-106346000D01*
X63540000Y-108378000D02*
X63540000Y-106854000D01*
X58460000Y-106854000D02*
X58460000Y-108378000D01*
X63540000Y-107616000D02*
X58460000Y-107616000D01*
X66080000Y-106346000D02*
X66080000Y-106600000D01*
X66080000Y-106600000D02*
X66080000Y-106854000D01*
X66080000Y-106854000D02*
X55920000Y-106854000D01*
X55920000Y-106854000D02*
X55920000Y-106346000D01*
X63540000Y-108378000D02*
X58460000Y-108378000D01*
X67096000Y-94154000D02*
X67096000Y-106346000D01*
X54904000Y-106346000D02*
X54904000Y-94154000D01*
X54904000Y-94154000D02*
X67096000Y-94154000D01*
D17*
X89341000Y-77750000D02*
X87690000Y-77750000D01*
X93659000Y-77750000D02*
X95310000Y-77750000D01*
X93659000Y-78639000D02*
X93659000Y-76861000D01*
X93659000Y-76861000D02*
X89341000Y-76861000D01*
X89341000Y-76861000D02*
X89341000Y-78639000D01*
X89341000Y-78639000D02*
X93659000Y-78639000D01*
X86591000Y-102250000D02*
X84940000Y-102250000D01*
X90909000Y-102250000D02*
X92560000Y-102250000D01*
X90909000Y-103139000D02*
X90909000Y-101361000D01*
X90909000Y-101361000D02*
X86591000Y-101361000D01*
X86591000Y-101361000D02*
X86591000Y-103139000D01*
X86591000Y-103139000D02*
X90909000Y-103139000D01*
X59749620Y-83251080D02*
X59749620Y-82499240D01*
X59749620Y-82499240D02*
X60750380Y-82499240D01*
X60750380Y-82499240D02*
X60750380Y-83251080D01*
X60750380Y-83748920D02*
X60750380Y-84500760D01*
X60750380Y-84500760D02*
X59749620Y-84500760D01*
X59749620Y-84500760D02*
X59749620Y-83748920D01*
X59749620Y-83748920D02*
X59249240Y-83748920D01*
X59249240Y-83748920D02*
X59749620Y-83251080D01*
X60750380Y-83251080D02*
X61250760Y-83748920D01*
X61250760Y-83748920D02*
X60750380Y-83748920D01*
X61751140Y-83500000D02*
G75*
G03X61751140Y-83500000I-1501140J0D01*
G01*
X65251260Y-88501260D02*
X65251260Y-78498740D01*
X65251260Y-78498740D02*
X55248740Y-78498740D01*
X55248740Y-78498740D02*
X55248740Y-88501260D01*
X55248740Y-88501260D02*
X65251260Y-88501260D01*
X57138000Y-65730000D02*
X71362000Y-65730000D01*
X71362000Y-68270000D02*
X57138000Y-68270000D01*
D18*
X54090000Y-72080000D02*
X74410000Y-72080000D01*
X74410000Y-61920000D02*
X54090000Y-61920000D01*
X53074000Y-63698000D02*
X75426000Y-63698000D01*
X75426000Y-70302000D02*
X53074000Y-70302000D01*
D17*
X73140000Y-67000000D02*
G75*
G03X74410000Y-68270000I1270000J0D01*
G01*
X74410000Y-65730000D02*
G75*
G03X73140000Y-67000000I0J-1270000D01*
G01*
D18*
X74410000Y-65730000D02*
X75426000Y-65730000D01*
X74410000Y-68270000D02*
X75426000Y-68270000D01*
D17*
X71362000Y-68270000D02*
X71362000Y-65730000D01*
X57138000Y-65730000D02*
X57138000Y-68270000D01*
D18*
X54090000Y-72080000D02*
X54090000Y-61920000D01*
X74410000Y-61920000D02*
X74410000Y-72080000D01*
X53074000Y-70302000D02*
X53074000Y-63698000D01*
X75426000Y-63698000D02*
X75426000Y-70302000D01*
D17*
X93532000Y-88520000D02*
X89468000Y-88520000D01*
X89468000Y-85980000D02*
X93532000Y-85980000D01*
D18*
X96580000Y-92330000D02*
X86420000Y-92330000D01*
X85404000Y-90552000D02*
X97596000Y-90552000D01*
X96580000Y-82170000D02*
X86420000Y-82170000D01*
X85404000Y-83948000D02*
X97596000Y-83948000D01*
D17*
X87690000Y-87250000D02*
G75*
G03X86420000Y-85980000I-1270000J0D01*
G01*
X86420000Y-88520000D02*
G75*
G03X87690000Y-87250000I0J1270000D01*
G01*
D18*
X86420000Y-88520000D02*
X85404000Y-88520000D01*
X86420000Y-85980000D02*
X85404000Y-85980000D01*
D17*
X89468000Y-85980000D02*
X89468000Y-88520000D01*
X93532000Y-88520000D02*
X93532000Y-85980000D01*
D18*
X96580000Y-82170000D02*
X96580000Y-92330000D01*
X86420000Y-92330000D02*
X86420000Y-82170000D01*
X97596000Y-83948000D02*
X97596000Y-90552000D01*
X85404000Y-90552000D02*
X85404000Y-83948000D01*
D17*
X96112000Y-68770000D02*
X81888000Y-68770000D01*
X81888000Y-66230000D02*
X96112000Y-66230000D01*
D18*
X99160000Y-62420000D02*
X78840000Y-62420000D01*
X78840000Y-72580000D02*
X99160000Y-72580000D01*
X100176000Y-70802000D02*
X77824000Y-70802000D01*
X77824000Y-64198000D02*
X100176000Y-64198000D01*
D17*
X80110000Y-67500000D02*
G75*
G03X78840000Y-66230000I-1270000J0D01*
G01*
X78840000Y-68770000D02*
G75*
G03X80110000Y-67500000I0J1270000D01*
G01*
D18*
X78840000Y-68770000D02*
X77824000Y-68770000D01*
X78840000Y-66230000D02*
X77824000Y-66230000D01*
D17*
X81888000Y-66230000D02*
X81888000Y-68770000D01*
X96112000Y-68770000D02*
X96112000Y-66230000D01*
D18*
X99160000Y-62420000D02*
X99160000Y-72580000D01*
X78840000Y-72580000D02*
X78840000Y-62420000D01*
X100176000Y-64198000D02*
X100176000Y-70802000D01*
X77824000Y-70802000D02*
X77824000Y-64198000D01*
D14*
X80090000Y-96750000D02*
G75*
G03X80090000Y-96750000I-4090000J0D01*
G01*
X76000000Y-92700000D02*
X76000000Y-100800000D01*
X76040000Y-92700000D02*
X76040000Y-100800000D01*
X76080000Y-92700000D02*
X76080000Y-100800000D01*
X76120000Y-92701000D02*
X76120000Y-100799000D01*
X76160000Y-92703000D02*
X76160000Y-100797000D01*
X76200000Y-92704000D02*
X76200000Y-100796000D01*
X76240000Y-92707000D02*
X76240000Y-100793000D01*
X76280000Y-92709000D02*
X76280000Y-95770000D01*
X76280000Y-97730000D02*
X76280000Y-100791000D01*
X76320000Y-92712000D02*
X76320000Y-95770000D01*
X76320000Y-97730000D02*
X76320000Y-100788000D01*
X76360000Y-92715000D02*
X76360000Y-95770000D01*
X76360000Y-97730000D02*
X76360000Y-100785000D01*
X76400000Y-92719000D02*
X76400000Y-95770000D01*
X76400000Y-97730000D02*
X76400000Y-100781000D01*
X76440000Y-92723000D02*
X76440000Y-95770000D01*
X76440000Y-97730000D02*
X76440000Y-100777000D01*
X76480000Y-92728000D02*
X76480000Y-95770000D01*
X76480000Y-97730000D02*
X76480000Y-100772000D01*
X76520000Y-92733000D02*
X76520000Y-95770000D01*
X76520000Y-97730000D02*
X76520000Y-100767000D01*
X76560000Y-92738000D02*
X76560000Y-95770000D01*
X76560000Y-97730000D02*
X76560000Y-100762000D01*
X76600000Y-92744000D02*
X76600000Y-95770000D01*
X76600000Y-97730000D02*
X76600000Y-100756000D01*
X76640000Y-92750000D02*
X76640000Y-95770000D01*
X76640000Y-97730000D02*
X76640000Y-100750000D01*
X76680000Y-92756000D02*
X76680000Y-95770000D01*
X76680000Y-97730000D02*
X76680000Y-100744000D01*
X76721000Y-92763000D02*
X76721000Y-95770000D01*
X76721000Y-97730000D02*
X76721000Y-100737000D01*
X76761000Y-92771000D02*
X76761000Y-95770000D01*
X76761000Y-97730000D02*
X76761000Y-100729000D01*
X76801000Y-92779000D02*
X76801000Y-95770000D01*
X76801000Y-97730000D02*
X76801000Y-100721000D01*
X76841000Y-92787000D02*
X76841000Y-95770000D01*
X76841000Y-97730000D02*
X76841000Y-100713000D01*
X76881000Y-92795000D02*
X76881000Y-95770000D01*
X76881000Y-97730000D02*
X76881000Y-100705000D01*
X76921000Y-92804000D02*
X76921000Y-95770000D01*
X76921000Y-97730000D02*
X76921000Y-100696000D01*
X76961000Y-92814000D02*
X76961000Y-95770000D01*
X76961000Y-97730000D02*
X76961000Y-100686000D01*
X77001000Y-92824000D02*
X77001000Y-95770000D01*
X77001000Y-97730000D02*
X77001000Y-100676000D01*
X77041000Y-92834000D02*
X77041000Y-95770000D01*
X77041000Y-97730000D02*
X77041000Y-100666000D01*
X77081000Y-92845000D02*
X77081000Y-95770000D01*
X77081000Y-97730000D02*
X77081000Y-100655000D01*
X77121000Y-92856000D02*
X77121000Y-95770000D01*
X77121000Y-97730000D02*
X77121000Y-100644000D01*
X77161000Y-92867000D02*
X77161000Y-95770000D01*
X77161000Y-97730000D02*
X77161000Y-100633000D01*
X77201000Y-92880000D02*
X77201000Y-95770000D01*
X77201000Y-97730000D02*
X77201000Y-100620000D01*
X77241000Y-92892000D02*
X77241000Y-95770000D01*
X77241000Y-97730000D02*
X77241000Y-100608000D01*
X77281000Y-92905000D02*
X77281000Y-95770000D01*
X77281000Y-97730000D02*
X77281000Y-100595000D01*
X77321000Y-92918000D02*
X77321000Y-95770000D01*
X77321000Y-97730000D02*
X77321000Y-100582000D01*
X77361000Y-92932000D02*
X77361000Y-95770000D01*
X77361000Y-97730000D02*
X77361000Y-100568000D01*
X77401000Y-92947000D02*
X77401000Y-95770000D01*
X77401000Y-97730000D02*
X77401000Y-100553000D01*
X77441000Y-92961000D02*
X77441000Y-95770000D01*
X77441000Y-97730000D02*
X77441000Y-100539000D01*
X77481000Y-92977000D02*
X77481000Y-95770000D01*
X77481000Y-97730000D02*
X77481000Y-100523000D01*
X77521000Y-92992000D02*
X77521000Y-95770000D01*
X77521000Y-97730000D02*
X77521000Y-100508000D01*
X77561000Y-93009000D02*
X77561000Y-95770000D01*
X77561000Y-97730000D02*
X77561000Y-100491000D01*
X77601000Y-93025000D02*
X77601000Y-95770000D01*
X77601000Y-97730000D02*
X77601000Y-100475000D01*
X77641000Y-93043000D02*
X77641000Y-95770000D01*
X77641000Y-97730000D02*
X77641000Y-100457000D01*
X77681000Y-93060000D02*
X77681000Y-95770000D01*
X77681000Y-97730000D02*
X77681000Y-100440000D01*
X77721000Y-93079000D02*
X77721000Y-95770000D01*
X77721000Y-97730000D02*
X77721000Y-100421000D01*
X77761000Y-93098000D02*
X77761000Y-95770000D01*
X77761000Y-97730000D02*
X77761000Y-100402000D01*
X77801000Y-93117000D02*
X77801000Y-95770000D01*
X77801000Y-97730000D02*
X77801000Y-100383000D01*
X77841000Y-93137000D02*
X77841000Y-95770000D01*
X77841000Y-97730000D02*
X77841000Y-100363000D01*
X77881000Y-93157000D02*
X77881000Y-95770000D01*
X77881000Y-97730000D02*
X77881000Y-100343000D01*
X77921000Y-93178000D02*
X77921000Y-95770000D01*
X77921000Y-97730000D02*
X77921000Y-100322000D01*
X77961000Y-93200000D02*
X77961000Y-95770000D01*
X77961000Y-97730000D02*
X77961000Y-100300000D01*
X78001000Y-93222000D02*
X78001000Y-95770000D01*
X78001000Y-97730000D02*
X78001000Y-100278000D01*
X78041000Y-93245000D02*
X78041000Y-95770000D01*
X78041000Y-97730000D02*
X78041000Y-100255000D01*
X78081000Y-93268000D02*
X78081000Y-95770000D01*
X78081000Y-97730000D02*
X78081000Y-100232000D01*
X78121000Y-93292000D02*
X78121000Y-95770000D01*
X78121000Y-97730000D02*
X78121000Y-100208000D01*
X78161000Y-93316000D02*
X78161000Y-95770000D01*
X78161000Y-97730000D02*
X78161000Y-100184000D01*
X78201000Y-93342000D02*
X78201000Y-95770000D01*
X78201000Y-97730000D02*
X78201000Y-100158000D01*
X78241000Y-93367000D02*
X78241000Y-100133000D01*
X78281000Y-93394000D02*
X78281000Y-100106000D01*
X78321000Y-93421000D02*
X78321000Y-100079000D01*
X78361000Y-93449000D02*
X78361000Y-100051000D01*
X78401000Y-93478000D02*
X78401000Y-100022000D01*
X78441000Y-93507000D02*
X78441000Y-99993000D01*
X78481000Y-93537000D02*
X78481000Y-99963000D01*
X78521000Y-93568000D02*
X78521000Y-99932000D01*
X78561000Y-93600000D02*
X78561000Y-99900000D01*
X78601000Y-93632000D02*
X78601000Y-99868000D01*
X78641000Y-93666000D02*
X78641000Y-99834000D01*
X78681000Y-93700000D02*
X78681000Y-99800000D01*
X78721000Y-93735000D02*
X78721000Y-99765000D01*
X78761000Y-93771000D02*
X78761000Y-99729000D01*
X78801000Y-93808000D02*
X78801000Y-99692000D01*
X78841000Y-93846000D02*
X78841000Y-99654000D01*
X78881000Y-93885000D02*
X78881000Y-99615000D01*
X78921000Y-93926000D02*
X78921000Y-99574000D01*
X78961000Y-93967000D02*
X78961000Y-99533000D01*
X79001000Y-94010000D02*
X79001000Y-99490000D01*
X79041000Y-94053000D02*
X79041000Y-99447000D01*
X79081000Y-94098000D02*
X79081000Y-99402000D01*
X79121000Y-94145000D02*
X79121000Y-99355000D01*
X79161000Y-94193000D02*
X79161000Y-99307000D01*
X79201000Y-94242000D02*
X79201000Y-99258000D01*
X79241000Y-94293000D02*
X79241000Y-99207000D01*
X79281000Y-94346000D02*
X79281000Y-99154000D01*
X79321000Y-94401000D02*
X79321000Y-99099000D01*
X79361000Y-94457000D02*
X79361000Y-99043000D01*
X79401000Y-94516000D02*
X79401000Y-98984000D01*
X79441000Y-94577000D02*
X79441000Y-98923000D01*
X79481000Y-94641000D02*
X79481000Y-98859000D01*
X79521000Y-94707000D02*
X79521000Y-98793000D01*
X79561000Y-94776000D02*
X79561000Y-98724000D01*
X79601000Y-94848000D02*
X79601000Y-98652000D01*
X79641000Y-94924000D02*
X79641000Y-98576000D01*
X79681000Y-95005000D02*
X79681000Y-98495000D01*
X79721000Y-95090000D02*
X79721000Y-98410000D01*
X79761000Y-95180000D02*
X79761000Y-98320000D01*
X79801000Y-95277000D02*
X79801000Y-98223000D01*
X79841000Y-95381000D02*
X79841000Y-98119000D01*
X79881000Y-95496000D02*
X79881000Y-98004000D01*
X79921000Y-95623000D02*
X79921000Y-97877000D01*
X79961000Y-95767000D02*
X79961000Y-97733000D01*
X80001000Y-95936000D02*
X80001000Y-97564000D01*
X80041000Y-96152000D02*
X80041000Y-97348000D01*
X80081000Y-96504000D02*
X80081000Y-96996000D01*
X72550000Y-96750000D02*
X73750000Y-96750000D01*
X73150000Y-96100000D02*
X73150000Y-97400000D01*
D17*
X90659000Y-96750000D02*
X92310000Y-96750000D01*
X86341000Y-96750000D02*
X84690000Y-96750000D01*
X86341000Y-95861000D02*
X86341000Y-97639000D01*
X86341000Y-97639000D02*
X90659000Y-97639000D01*
X90659000Y-97639000D02*
X90659000Y-95861000D01*
X90659000Y-95861000D02*
X86341000Y-95861000D01*
D14*
X86420000Y-54310000D02*
X94160000Y-54310000D01*
X94160000Y-54310000D02*
X94160000Y-51650000D01*
X94160000Y-51650000D02*
X86420000Y-51650000D01*
X86420000Y-51650000D02*
X86420000Y-54310000D01*
X87370000Y-51650000D02*
X87370000Y-45650000D01*
X87370000Y-45650000D02*
X88130000Y-45650000D01*
X88130000Y-45650000D02*
X88130000Y-51650000D01*
X87430000Y-51650000D02*
X87430000Y-45650000D01*
X87550000Y-51650000D02*
X87550000Y-45650000D01*
X87670000Y-51650000D02*
X87670000Y-45650000D01*
X87790000Y-51650000D02*
X87790000Y-45650000D01*
X87910000Y-51650000D02*
X87910000Y-45650000D01*
X88030000Y-51650000D02*
X88030000Y-45650000D01*
X87370000Y-54640000D02*
X87370000Y-54310000D01*
X88130000Y-54640000D02*
X88130000Y-54310000D01*
X89020000Y-54310000D02*
X89020000Y-51650000D01*
X89910000Y-51650000D02*
X89910000Y-45650000D01*
X89910000Y-45650000D02*
X90670000Y-45650000D01*
X90670000Y-45650000D02*
X90670000Y-51650000D01*
X89910000Y-54707071D02*
X89910000Y-54310000D01*
X90670000Y-54707071D02*
X90670000Y-54310000D01*
X91560000Y-54310000D02*
X91560000Y-51650000D01*
X92450000Y-51650000D02*
X92450000Y-45650000D01*
X92450000Y-45650000D02*
X93210000Y-45650000D01*
X93210000Y-45650000D02*
X93210000Y-51650000D01*
X92450000Y-54707071D02*
X92450000Y-54310000D01*
X93210000Y-54707071D02*
X93210000Y-54310000D01*
X87750000Y-57020000D02*
X86480000Y-57020000D01*
X86480000Y-57020000D02*
X86480000Y-55750000D01*
D16*
X102666667Y-94702381D02*
X102666667Y-95416667D01*
X102619047Y-95559524D01*
X102523809Y-95654762D01*
X102380952Y-95702381D01*
X102285714Y-95702381D01*
X103047619Y-94702381D02*
X103714286Y-94702381D01*
X103285714Y-95702381D01*
X51416667Y-77424381D02*
X51416667Y-78138667D01*
X51369047Y-78281524D01*
X51273809Y-78376762D01*
X51130952Y-78424381D01*
X51035714Y-78424381D01*
X52321429Y-77424381D02*
X52130952Y-77424381D01*
X52035714Y-77472000D01*
X51988095Y-77519619D01*
X51892857Y-77662476D01*
X51845238Y-77852952D01*
X51845238Y-78233905D01*
X51892857Y-78329143D01*
X51940476Y-78376762D01*
X52035714Y-78424381D01*
X52226191Y-78424381D01*
X52321429Y-78376762D01*
X52369048Y-78329143D01*
X52416667Y-78233905D01*
X52416667Y-77995810D01*
X52369048Y-77900571D01*
X52321429Y-77852952D01*
X52226191Y-77805333D01*
X52035714Y-77805333D01*
X51940476Y-77852952D01*
X51892857Y-77900571D01*
X51845238Y-77995810D01*
X75583334Y-78547143D02*
X75535715Y-78594762D01*
X75392858Y-78642381D01*
X75297620Y-78642381D01*
X75154762Y-78594762D01*
X75059524Y-78499524D01*
X75011905Y-78404286D01*
X74964286Y-78213810D01*
X74964286Y-78070952D01*
X75011905Y-77880476D01*
X75059524Y-77785238D01*
X75154762Y-77690000D01*
X75297620Y-77642381D01*
X75392858Y-77642381D01*
X75535715Y-77690000D01*
X75583334Y-77737619D01*
X76535715Y-78642381D02*
X75964286Y-78642381D01*
X76250000Y-78642381D02*
X76250000Y-77642381D01*
X76154762Y-77785238D01*
X76059524Y-77880476D01*
X75964286Y-77928095D01*
X99992381Y-78718095D02*
X98992381Y-78718095D01*
X98992381Y-78480000D01*
X99040000Y-78337142D01*
X99135238Y-78241904D01*
X99230476Y-78194285D01*
X99420952Y-78146666D01*
X99563810Y-78146666D01*
X99754286Y-78194285D01*
X99849524Y-78241904D01*
X99944762Y-78337142D01*
X99992381Y-78480000D01*
X99992381Y-78718095D01*
X99992381Y-77194285D02*
X99992381Y-77765714D01*
X99992381Y-77480000D02*
X98992381Y-77480000D01*
X99135238Y-77575238D01*
X99230476Y-77670476D01*
X99278095Y-77765714D01*
X70182381Y-51448333D02*
X70896667Y-51448333D01*
X71039524Y-51495953D01*
X71134762Y-51591191D01*
X71182381Y-51734048D01*
X71182381Y-51829286D01*
X71182381Y-50448333D02*
X71182381Y-51019762D01*
X71182381Y-50734048D02*
X70182381Y-50734048D01*
X70325238Y-50829286D01*
X70420476Y-50924524D01*
X70468095Y-51019762D01*
X39682381Y-51698333D02*
X40396667Y-51698333D01*
X40539524Y-51745953D01*
X40634762Y-51841191D01*
X40682381Y-51984048D01*
X40682381Y-52079286D01*
X39682381Y-51317381D02*
X39682381Y-50698333D01*
X40063333Y-51031667D01*
X40063333Y-50888809D01*
X40110952Y-50793571D01*
X40158571Y-50745952D01*
X40253810Y-50698333D01*
X40491905Y-50698333D01*
X40587143Y-50745952D01*
X40634762Y-50793571D01*
X40682381Y-50888809D01*
X40682381Y-51174524D01*
X40634762Y-51269762D01*
X40587143Y-51317381D01*
X53682381Y-51448333D02*
X54396667Y-51448333D01*
X54539524Y-51495953D01*
X54634762Y-51591191D01*
X54682381Y-51734048D01*
X54682381Y-51829286D01*
X54015714Y-50543571D02*
X54682381Y-50543571D01*
X53634762Y-50781667D02*
X54349048Y-51019762D01*
X54349048Y-50400714D01*
X65051334Y-92699905D02*
X65051334Y-93271333D01*
X65013238Y-93385619D01*
X64937048Y-93461810D01*
X64822762Y-93499905D01*
X64746572Y-93499905D01*
X65546572Y-93042762D02*
X65470381Y-93004667D01*
X65432286Y-92966571D01*
X65394191Y-92890381D01*
X65394191Y-92852286D01*
X65432286Y-92776095D01*
X65470381Y-92738000D01*
X65546572Y-92699905D01*
X65698953Y-92699905D01*
X65775143Y-92738000D01*
X65813239Y-92776095D01*
X65851334Y-92852286D01*
X65851334Y-92890381D01*
X65813239Y-92966571D01*
X65775143Y-93004667D01*
X65698953Y-93042762D01*
X65546572Y-93042762D01*
X65470381Y-93080857D01*
X65432286Y-93118952D01*
X65394191Y-93195143D01*
X65394191Y-93347524D01*
X65432286Y-93423714D01*
X65470381Y-93461810D01*
X65546572Y-93499905D01*
X65698953Y-93499905D01*
X65775143Y-93461810D01*
X65813239Y-93423714D01*
X65851334Y-93347524D01*
X65851334Y-93195143D01*
X65813239Y-93118952D01*
X65775143Y-93080857D01*
X65698953Y-93042762D01*
D10*
X59214286Y-99613429D02*
X59214286Y-100099143D01*
X59185715Y-100156286D01*
X59157143Y-100184857D01*
X59100000Y-100213429D01*
X59014286Y-100213429D01*
X58957143Y-100184857D01*
X59214286Y-99984857D02*
X59157143Y-100013429D01*
X59042857Y-100013429D01*
X58985715Y-99984857D01*
X58957143Y-99956286D01*
X58928572Y-99899143D01*
X58928572Y-99727714D01*
X58957143Y-99670571D01*
X58985715Y-99642000D01*
X59042857Y-99613429D01*
X59157143Y-99613429D01*
X59214286Y-99642000D01*
X59728572Y-99984857D02*
X59671429Y-100013429D01*
X59557143Y-100013429D01*
X59500000Y-99984857D01*
X59471429Y-99927714D01*
X59471429Y-99699143D01*
X59500000Y-99642000D01*
X59557143Y-99613429D01*
X59671429Y-99613429D01*
X59728572Y-99642000D01*
X59757143Y-99699143D01*
X59757143Y-99756286D01*
X59471429Y-99813429D01*
X60100000Y-100013429D02*
X60042858Y-99984857D01*
X60014286Y-99927714D01*
X60014286Y-99413429D01*
X60585715Y-99613429D02*
X60585715Y-100013429D01*
X60328572Y-99613429D02*
X60328572Y-99927714D01*
X60357144Y-99984857D01*
X60414286Y-100013429D01*
X60500001Y-100013429D01*
X60557144Y-99984857D01*
X60585715Y-99956286D01*
X60871429Y-100013429D02*
X60871429Y-99613429D01*
X60871429Y-99413429D02*
X60842858Y-99442000D01*
X60871429Y-99470571D01*
X60900001Y-99442000D01*
X60871429Y-99413429D01*
X60871429Y-99470571D01*
X61414286Y-100013429D02*
X61414286Y-99413429D01*
X61414286Y-99984857D02*
X61357143Y-100013429D01*
X61242857Y-100013429D01*
X61185715Y-99984857D01*
X61157143Y-99956286D01*
X61128572Y-99899143D01*
X61128572Y-99727714D01*
X61157143Y-99670571D01*
X61185715Y-99642000D01*
X61242857Y-99613429D01*
X61357143Y-99613429D01*
X61414286Y-99642000D01*
X61557143Y-100070571D02*
X62014286Y-100070571D01*
X62414286Y-99613429D02*
X62414286Y-100013429D01*
X62157143Y-99613429D02*
X62157143Y-99927714D01*
X62185715Y-99984857D01*
X62242857Y-100013429D01*
X62328572Y-100013429D01*
X62385715Y-99984857D01*
X62414286Y-99956286D01*
X62700000Y-100013429D02*
X62700000Y-99613429D01*
X62700000Y-99413429D02*
X62671429Y-99442000D01*
X62700000Y-99470571D01*
X62728572Y-99442000D01*
X62700000Y-99413429D01*
X62700000Y-99470571D01*
X62900000Y-99613429D02*
X63128571Y-99613429D01*
X62985714Y-99413429D02*
X62985714Y-99927714D01*
X63014286Y-99984857D01*
X63071428Y-100013429D01*
X63128571Y-100013429D01*
D19*
X91288333Y-78381976D02*
X90865000Y-77716738D01*
X90562619Y-78381976D02*
X90562619Y-76984976D01*
X91046428Y-76984976D01*
X91167381Y-77051500D01*
X91227857Y-77118024D01*
X91288333Y-77251071D01*
X91288333Y-77450643D01*
X91227857Y-77583690D01*
X91167381Y-77650214D01*
X91046428Y-77716738D01*
X90562619Y-77716738D01*
X91772143Y-77118024D02*
X91832619Y-77051500D01*
X91953571Y-76984976D01*
X92255952Y-76984976D01*
X92376905Y-77051500D01*
X92437381Y-77118024D01*
X92497857Y-77251071D01*
X92497857Y-77384119D01*
X92437381Y-77583690D01*
X91711667Y-78381976D01*
X92497857Y-78381976D01*
X88538333Y-102881976D02*
X88115000Y-102216738D01*
X87812619Y-102881976D02*
X87812619Y-101484976D01*
X88296428Y-101484976D01*
X88417381Y-101551500D01*
X88477857Y-101618024D01*
X88538333Y-101751071D01*
X88538333Y-101950643D01*
X88477857Y-102083690D01*
X88417381Y-102150214D01*
X88296428Y-102216738D01*
X87812619Y-102216738D01*
X88961667Y-101484976D02*
X89747857Y-101484976D01*
X89324524Y-102017167D01*
X89505952Y-102017167D01*
X89626905Y-102083690D01*
X89687381Y-102150214D01*
X89747857Y-102283262D01*
X89747857Y-102615881D01*
X89687381Y-102748929D01*
X89626905Y-102815452D01*
X89505952Y-102881976D01*
X89143095Y-102881976D01*
X89022143Y-102815452D01*
X88961667Y-102748929D01*
D20*
X59342857Y-77440649D02*
X58834857Y-76714934D01*
X58472000Y-77440649D02*
X58472000Y-75916649D01*
X59052572Y-75916649D01*
X59197714Y-75989220D01*
X59270286Y-76061791D01*
X59342857Y-76206934D01*
X59342857Y-76424649D01*
X59270286Y-76569791D01*
X59197714Y-76642363D01*
X59052572Y-76714934D01*
X58472000Y-76714934D01*
X59778286Y-75916649D02*
X60286286Y-77440649D01*
X60794286Y-75916649D01*
X62100572Y-77440649D02*
X61229715Y-77440649D01*
X61665143Y-77440649D02*
X61665143Y-75916649D01*
X61520000Y-76134363D01*
X61374858Y-76279506D01*
X61229715Y-76352077D01*
X55823143Y-90440369D02*
X55823143Y-88916369D01*
X56403715Y-88916369D01*
X56548857Y-88988940D01*
X56621429Y-89061511D01*
X56694000Y-89206654D01*
X56694000Y-89424369D01*
X56621429Y-89569511D01*
X56548857Y-89642083D01*
X56403715Y-89714654D01*
X55823143Y-89714654D01*
X57637429Y-88916369D02*
X57927715Y-88916369D01*
X58072857Y-88988940D01*
X58218000Y-89134083D01*
X58290572Y-89424369D01*
X58290572Y-89932369D01*
X58218000Y-90222654D01*
X58072857Y-90367797D01*
X57927715Y-90440369D01*
X57637429Y-90440369D01*
X57492286Y-90367797D01*
X57347143Y-90222654D01*
X57274572Y-89932369D01*
X57274572Y-89424369D01*
X57347143Y-89134083D01*
X57492286Y-88988940D01*
X57637429Y-88916369D01*
X58726000Y-88916369D02*
X59596857Y-88916369D01*
X59161428Y-90440369D02*
X59161428Y-88916369D01*
X59742000Y-90585511D02*
X60903143Y-90585511D01*
X61991714Y-88916369D02*
X61266000Y-88916369D01*
X61193429Y-89642083D01*
X61266000Y-89569511D01*
X61411143Y-89496940D01*
X61774000Y-89496940D01*
X61919143Y-89569511D01*
X61991714Y-89642083D01*
X62064286Y-89787226D01*
X62064286Y-90150083D01*
X61991714Y-90295226D01*
X61919143Y-90367797D01*
X61774000Y-90440369D01*
X61411143Y-90440369D01*
X61266000Y-90367797D01*
X61193429Y-90295226D01*
X63007715Y-88916369D02*
X63152858Y-88916369D01*
X63298001Y-88988940D01*
X63370572Y-89061511D01*
X63443143Y-89206654D01*
X63515715Y-89496940D01*
X63515715Y-89859797D01*
X63443143Y-90150083D01*
X63370572Y-90295226D01*
X63298001Y-90367797D01*
X63152858Y-90440369D01*
X63007715Y-90440369D01*
X62862572Y-90367797D01*
X62790001Y-90295226D01*
X62717429Y-90150083D01*
X62644858Y-89859797D01*
X62644858Y-89496940D01*
X62717429Y-89206654D01*
X62790001Y-89061511D01*
X62862572Y-88988940D01*
X63007715Y-88916369D01*
X64168858Y-90440369D02*
X64168858Y-88916369D01*
X64314001Y-89859797D02*
X64749430Y-90440369D01*
X64749430Y-89424369D02*
X64168858Y-90004940D01*
D21*
X63379143Y-72515429D02*
X63379143Y-73749143D01*
X63433571Y-73894286D01*
X63488000Y-73966857D01*
X63596857Y-74039429D01*
X63814571Y-74039429D01*
X63923429Y-73966857D01*
X63977857Y-73894286D01*
X64032286Y-73749143D01*
X64032286Y-72515429D01*
X65175286Y-74039429D02*
X64522143Y-74039429D01*
X64848715Y-74039429D02*
X64848715Y-72515429D01*
X64739858Y-72733143D01*
X64631000Y-72878286D01*
X64522143Y-72950857D01*
D22*
D23*
X61640715Y-60949714D02*
X61640715Y-59725714D01*
X61961858Y-59725714D01*
X62042144Y-59784000D01*
X62082287Y-59842286D01*
X62122430Y-59958857D01*
X62122430Y-60133714D01*
X62082287Y-60250286D01*
X62042144Y-60308571D01*
X61961858Y-60366857D01*
X61640715Y-60366857D01*
X62965430Y-60833143D02*
X62925287Y-60891429D01*
X62804858Y-60949714D01*
X62724572Y-60949714D01*
X62604144Y-60891429D01*
X62523858Y-60774857D01*
X62483715Y-60658286D01*
X62443572Y-60425143D01*
X62443572Y-60250286D01*
X62483715Y-60017143D01*
X62523858Y-59900571D01*
X62604144Y-59784000D01*
X62724572Y-59725714D01*
X62804858Y-59725714D01*
X62925287Y-59784000D01*
X62965430Y-59842286D01*
X63607715Y-60308571D02*
X63326715Y-60308571D01*
X63326715Y-60949714D02*
X63326715Y-59725714D01*
X63728144Y-59725714D01*
X64169715Y-60250286D02*
X64089429Y-60192000D01*
X64049286Y-60133714D01*
X64009143Y-60017143D01*
X64009143Y-59958857D01*
X64049286Y-59842286D01*
X64089429Y-59784000D01*
X64169715Y-59725714D01*
X64330286Y-59725714D01*
X64410572Y-59784000D01*
X64450715Y-59842286D01*
X64490858Y-59958857D01*
X64490858Y-60017143D01*
X64450715Y-60133714D01*
X64410572Y-60192000D01*
X64330286Y-60250286D01*
X64169715Y-60250286D01*
X64089429Y-60308571D01*
X64049286Y-60366857D01*
X64009143Y-60483429D01*
X64009143Y-60716571D01*
X64049286Y-60833143D01*
X64089429Y-60891429D01*
X64169715Y-60949714D01*
X64330286Y-60949714D01*
X64410572Y-60891429D01*
X64450715Y-60833143D01*
X64490858Y-60716571D01*
X64490858Y-60483429D01*
X64450715Y-60366857D01*
X64410572Y-60308571D01*
X64330286Y-60250286D01*
X65253572Y-59725714D02*
X64852143Y-59725714D01*
X64812000Y-60308571D01*
X64852143Y-60250286D01*
X64932429Y-60192000D01*
X65133143Y-60192000D01*
X65213429Y-60250286D01*
X65253572Y-60308571D01*
X65293715Y-60425143D01*
X65293715Y-60716571D01*
X65253572Y-60833143D01*
X65213429Y-60891429D01*
X65133143Y-60949714D01*
X64932429Y-60949714D01*
X64852143Y-60891429D01*
X64812000Y-60833143D01*
X65574715Y-59725714D02*
X66136715Y-59725714D01*
X65775429Y-60949714D01*
X66819143Y-60133714D02*
X66819143Y-60949714D01*
X66618429Y-59667429D02*
X66417714Y-60541714D01*
X66939572Y-60541714D01*
D21*
X90629143Y-80065429D02*
X90629143Y-81299143D01*
X90683571Y-81444286D01*
X90738000Y-81516857D01*
X90846857Y-81589429D01*
X91064571Y-81589429D01*
X91173429Y-81516857D01*
X91227857Y-81444286D01*
X91282286Y-81299143D01*
X91282286Y-80065429D01*
X91772143Y-80210571D02*
X91826572Y-80138000D01*
X91935429Y-80065429D01*
X92207572Y-80065429D01*
X92316429Y-80138000D01*
X92370858Y-80210571D01*
X92425286Y-80355714D01*
X92425286Y-80500857D01*
X92370858Y-80718571D01*
X91717715Y-81589429D01*
X92425286Y-81589429D01*
D22*
D24*
X89655881Y-94053714D02*
X89206834Y-94053714D01*
X89206834Y-92829714D01*
X89970215Y-94053714D02*
X89970215Y-92829714D01*
X90284548Y-93704000D01*
X90598881Y-92829714D01*
X90598881Y-94053714D01*
X90958119Y-92829714D02*
X91541881Y-92829714D01*
X91227548Y-93296000D01*
X91362262Y-93296000D01*
X91452072Y-93354286D01*
X91496976Y-93412571D01*
X91541881Y-93529143D01*
X91541881Y-93820571D01*
X91496976Y-93937143D01*
X91452072Y-93995429D01*
X91362262Y-94053714D01*
X91092834Y-94053714D01*
X91003024Y-93995429D01*
X90958119Y-93937143D01*
X92395071Y-92829714D02*
X91946024Y-92829714D01*
X91901119Y-93412571D01*
X91946024Y-93354286D01*
X92035833Y-93296000D01*
X92260357Y-93296000D01*
X92350167Y-93354286D01*
X92395071Y-93412571D01*
X92439976Y-93529143D01*
X92439976Y-93820571D01*
X92395071Y-93937143D01*
X92350167Y-93995429D01*
X92260357Y-94053714D01*
X92035833Y-94053714D01*
X91946024Y-93995429D01*
X91901119Y-93937143D01*
X92978833Y-93354286D02*
X92889024Y-93296000D01*
X92844119Y-93237714D01*
X92799214Y-93121143D01*
X92799214Y-93062857D01*
X92844119Y-92946286D01*
X92889024Y-92888000D01*
X92978833Y-92829714D01*
X93158452Y-92829714D01*
X93248262Y-92888000D01*
X93293166Y-92946286D01*
X93338071Y-93062857D01*
X93338071Y-93121143D01*
X93293166Y-93237714D01*
X93248262Y-93296000D01*
X93158452Y-93354286D01*
X92978833Y-93354286D01*
X92889024Y-93412571D01*
X92844119Y-93470857D01*
X92799214Y-93587429D01*
X92799214Y-93820571D01*
X92844119Y-93937143D01*
X92889024Y-93995429D01*
X92978833Y-94053714D01*
X93158452Y-94053714D01*
X93248262Y-93995429D01*
X93293166Y-93937143D01*
X93338071Y-93820571D01*
X93338071Y-93587429D01*
X93293166Y-93470857D01*
X93248262Y-93412571D01*
X93158452Y-93354286D01*
D21*
X88129143Y-60315429D02*
X88129143Y-61549143D01*
X88183571Y-61694286D01*
X88238000Y-61766857D01*
X88346857Y-61839429D01*
X88564571Y-61839429D01*
X88673429Y-61766857D01*
X88727857Y-61694286D01*
X88782286Y-61549143D01*
X88782286Y-60315429D01*
X89217715Y-60315429D02*
X89925286Y-60315429D01*
X89544286Y-60896000D01*
X89707572Y-60896000D01*
X89816429Y-60968571D01*
X89870858Y-61041143D01*
X89925286Y-61186286D01*
X89925286Y-61549143D01*
X89870858Y-61694286D01*
X89816429Y-61766857D01*
X89707572Y-61839429D01*
X89381000Y-61839429D01*
X89272143Y-61766857D01*
X89217715Y-61694286D01*
D22*
D23*
X86310429Y-74639905D02*
X86430858Y-74702952D01*
X86631572Y-74702952D01*
X86711858Y-74639905D01*
X86752001Y-74576857D01*
X86792144Y-74450762D01*
X86792144Y-74324667D01*
X86752001Y-74198571D01*
X86711858Y-74135524D01*
X86631572Y-74072476D01*
X86471001Y-74009429D01*
X86390715Y-73946381D01*
X86350572Y-73883333D01*
X86310429Y-73757238D01*
X86310429Y-73631143D01*
X86350572Y-73505048D01*
X86390715Y-73442000D01*
X86471001Y-73378952D01*
X86671715Y-73378952D01*
X86792144Y-73442000D01*
X87153429Y-74702952D02*
X87153429Y-73378952D01*
X87635144Y-74702952D01*
X87635144Y-73378952D01*
X87956287Y-73378952D02*
X88518287Y-73378952D01*
X88157001Y-74702952D01*
X89200715Y-73378952D02*
X89040144Y-73378952D01*
X88959858Y-73442000D01*
X88919715Y-73505048D01*
X88839429Y-73694190D01*
X88799286Y-73946381D01*
X88799286Y-74450762D01*
X88839429Y-74576857D01*
X88879572Y-74639905D01*
X88959858Y-74702952D01*
X89120429Y-74702952D01*
X89200715Y-74639905D01*
X89240858Y-74576857D01*
X89281001Y-74450762D01*
X89281001Y-74135524D01*
X89240858Y-74009429D01*
X89200715Y-73946381D01*
X89120429Y-73883333D01*
X88959858Y-73883333D01*
X88879572Y-73946381D01*
X88839429Y-74009429D01*
X88799286Y-74135524D01*
X90003572Y-73820286D02*
X90003572Y-74702952D01*
X89802858Y-73315905D02*
X89602143Y-74261619D01*
X90124001Y-74261619D01*
X90565572Y-73946381D02*
X90485286Y-73883333D01*
X90445143Y-73820286D01*
X90405000Y-73694190D01*
X90405000Y-73631143D01*
X90445143Y-73505048D01*
X90485286Y-73442000D01*
X90565572Y-73378952D01*
X90726143Y-73378952D01*
X90806429Y-73442000D01*
X90846572Y-73505048D01*
X90886715Y-73631143D01*
X90886715Y-73694190D01*
X90846572Y-73820286D01*
X90806429Y-73883333D01*
X90726143Y-73946381D01*
X90565572Y-73946381D01*
X90485286Y-74009429D01*
X90445143Y-74072476D01*
X90405000Y-74198571D01*
X90405000Y-74450762D01*
X90445143Y-74576857D01*
X90485286Y-74639905D01*
X90565572Y-74702952D01*
X90726143Y-74702952D01*
X90806429Y-74639905D01*
X90846572Y-74576857D01*
X90886715Y-74450762D01*
X90886715Y-74198571D01*
X90846572Y-74072476D01*
X90806429Y-74009429D01*
X90726143Y-73946381D01*
X91288143Y-74702952D02*
X91448715Y-74702952D01*
X91529000Y-74639905D01*
X91569143Y-74576857D01*
X91649429Y-74387714D01*
X91689572Y-74135524D01*
X91689572Y-73631143D01*
X91649429Y-73505048D01*
X91609286Y-73442000D01*
X91529000Y-73378952D01*
X91368429Y-73378952D01*
X91288143Y-73442000D01*
X91248000Y-73505048D01*
X91207857Y-73631143D01*
X91207857Y-73946381D01*
X91248000Y-74072476D01*
X91288143Y-74135524D01*
X91368429Y-74198571D01*
X91529000Y-74198571D01*
X91609286Y-74135524D01*
X91649429Y-74072476D01*
X91689572Y-73946381D01*
D16*
X75833334Y-91797143D02*
X75785715Y-91844762D01*
X75642858Y-91892381D01*
X75547620Y-91892381D01*
X75404762Y-91844762D01*
X75309524Y-91749524D01*
X75261905Y-91654286D01*
X75214286Y-91463810D01*
X75214286Y-91320952D01*
X75261905Y-91130476D01*
X75309524Y-91035238D01*
X75404762Y-90940000D01*
X75547620Y-90892381D01*
X75642858Y-90892381D01*
X75785715Y-90940000D01*
X75833334Y-90987619D01*
X76214286Y-90987619D02*
X76261905Y-90940000D01*
X76357143Y-90892381D01*
X76595239Y-90892381D01*
X76690477Y-90940000D01*
X76738096Y-90987619D01*
X76785715Y-91082857D01*
X76785715Y-91178095D01*
X76738096Y-91320952D01*
X76166667Y-91892381D01*
X76785715Y-91892381D01*
D19*
X88288333Y-97381976D02*
X87865000Y-96716738D01*
X87562619Y-97381976D02*
X87562619Y-95984976D01*
X88046428Y-95984976D01*
X88167381Y-96051500D01*
X88227857Y-96118024D01*
X88288333Y-96251071D01*
X88288333Y-96450643D01*
X88227857Y-96583690D01*
X88167381Y-96650214D01*
X88046428Y-96716738D01*
X87562619Y-96716738D01*
X89376905Y-96450643D02*
X89376905Y-97381976D01*
X89074524Y-95918452D02*
X88772143Y-96916310D01*
X89558333Y-96916310D01*
D16*
X84932381Y-51698333D02*
X85646667Y-51698333D01*
X85789524Y-51745953D01*
X85884762Y-51841191D01*
X85932381Y-51984048D01*
X85932381Y-52079286D01*
X85027619Y-51269762D02*
X84980000Y-51222143D01*
X84932381Y-51126905D01*
X84932381Y-50888809D01*
X84980000Y-50793571D01*
X85027619Y-50745952D01*
X85122857Y-50698333D01*
X85218095Y-50698333D01*
X85360952Y-50745952D01*
X85932381Y-51317381D01*
X85932381Y-50698333D01*
M02*
