G04 #@! TF.GenerationSoftware,KiCad,Pcbnew,(5.0.0)*
G04 #@! TF.CreationDate,2018-09-08T22:36:26+02:00*
G04 #@! TF.ProjectId,SN76849 Arduino nano shield,534E37363834392041726475696E6F20,20180905 0.7.06*
G04 #@! TF.SameCoordinates,Original*
G04 #@! TF.FileFunction,Copper,L1,Top,Signal*
G04 #@! TF.FilePolarity,Positive*
%FSLAX46Y46*%
G04 Gerber Fmt 4.6, Leading zero omitted, Abs format (unit mm)*
G04 Created by KiCad (PCBNEW (5.0.0)) date 09/08/18 22:36:26*
%MOMM*%
%LPD*%
G01*
G04 APERTURE LIST*
G04 #@! TA.AperFunction,ComponentPad*
%ADD10C,1.800000*%
G04 #@! TD*
G04 #@! TA.AperFunction,ComponentPad*
%ADD11R,1.800000X1.800000*%
G04 #@! TD*
G04 #@! TA.AperFunction,ComponentPad*
%ADD12O,1.700000X1.700000*%
G04 #@! TD*
G04 #@! TA.AperFunction,ComponentPad*
%ADD13R,1.700000X1.700000*%
G04 #@! TD*
G04 #@! TA.AperFunction,ComponentPad*
%ADD14C,5.000000*%
G04 #@! TD*
G04 #@! TA.AperFunction,ComponentPad*
%ADD15R,3.500000X2.500000*%
G04 #@! TD*
G04 #@! TA.AperFunction,ComponentPad*
%ADD16O,1.750000X3.500000*%
G04 #@! TD*
G04 #@! TA.AperFunction,ComponentPad*
%ADD17C,1.998980*%
G04 #@! TD*
G04 #@! TA.AperFunction,ComponentPad*
%ADD18O,1.501140X2.199640*%
G04 #@! TD*
G04 #@! TA.AperFunction,ComponentPad*
%ADD19C,2.500000*%
G04 #@! TD*
G04 #@! TA.AperFunction,ComponentPad*
%ADD20R,2.500000X2.500000*%
G04 #@! TD*
G04 #@! TA.AperFunction,ComponentPad*
%ADD21R,2.000000X2.000000*%
G04 #@! TD*
G04 #@! TA.AperFunction,ComponentPad*
%ADD22C,2.000000*%
G04 #@! TD*
G04 #@! TA.AperFunction,Conductor*
%ADD23C,0.750000*%
G04 #@! TD*
G04 #@! TA.AperFunction,Conductor*
%ADD24C,0.254000*%
G04 #@! TD*
G04 APERTURE END LIST*
D10*
G04 #@! TO.P,D1,2*
G04 #@! TO.N,GND*
X77200000Y-65360000D03*
D11*
G04 #@! TO.P,D1,1*
G04 #@! TO.N,Net-(D1-Pad1)*
X77200000Y-67900000D03*
G04 #@! TD*
D12*
G04 #@! TO.P,J1,5*
G04 #@! TO.N,GND*
X62960000Y-34800000D03*
G04 #@! TO.P,J1,4*
G04 #@! TO.N,/VCC*
X60420000Y-34800000D03*
G04 #@! TO.P,J1,3*
G04 #@! TO.N,/SCL*
X57880000Y-34800000D03*
G04 #@! TO.P,J1,2*
G04 #@! TO.N,/SDA*
X55340000Y-34800000D03*
D13*
G04 #@! TO.P,J1,1*
G04 #@! TO.N,/~WE*
X52800000Y-34800000D03*
G04 #@! TD*
D12*
G04 #@! TO.P,J2,3*
G04 #@! TO.N,/Audio*
X76880000Y-34900000D03*
G04 #@! TO.P,J2,2*
X74340000Y-34900000D03*
D13*
G04 #@! TO.P,J2,1*
G04 #@! TO.N,GND*
X71800000Y-34900000D03*
G04 #@! TD*
D12*
G04 #@! TO.P,J3,4*
G04 #@! TO.N,/SDA*
X45320000Y-35100000D03*
G04 #@! TO.P,J3,3*
G04 #@! TO.N,/SCL*
X42780000Y-35100000D03*
G04 #@! TO.P,J3,2*
G04 #@! TO.N,/VCC*
X40240000Y-35100000D03*
D13*
G04 #@! TO.P,J3,1*
G04 #@! TO.N,GND*
X37700000Y-35100000D03*
G04 #@! TD*
D14*
G04 #@! TO.P,J6,1*
G04 #@! TO.N,Net-(J6-Pad1)*
X87950000Y-66800000D03*
G04 #@! TD*
G04 #@! TO.P,J7,1*
G04 #@! TO.N,Net-(J7-Pad1)*
X85400000Y-32500000D03*
G04 #@! TD*
D15*
G04 #@! TO.P,J8,1*
G04 #@! TO.N,GND*
X43800000Y-67796000D03*
D16*
G04 #@! TO.P,J8,2*
G04 #@! TO.N,Net-(J8-Pad2)*
X38800000Y-62790000D03*
G04 #@! TO.P,J8,3*
X48800000Y-62790000D03*
G04 #@! TO.P,J8,4*
X41300000Y-62790000D03*
G04 #@! TO.P,J8,5*
X46300000Y-62790000D03*
G04 #@! TD*
D17*
G04 #@! TO.P,R3,1*
G04 #@! TO.N,Net-(D1-Pad1)*
X70800000Y-69900000D03*
G04 #@! TO.P,R3,2*
G04 #@! TO.N,Net-(C1-Pad2)*
X70800000Y-62280000D03*
G04 #@! TD*
D18*
G04 #@! TO.P,U1,1*
G04 #@! TO.N,GND*
X38810000Y-50710000D03*
G04 #@! TO.P,U1,2*
X41350000Y-50710000D03*
G04 #@! TO.P,U1,3*
X43890000Y-50710000D03*
G04 #@! TO.P,U1,4*
G04 #@! TO.N,/P0*
X46430000Y-50710000D03*
G04 #@! TO.P,U1,5*
G04 #@! TO.N,/P1*
X48970000Y-50710000D03*
G04 #@! TO.P,U1,6*
G04 #@! TO.N,/P2*
X51510000Y-50710000D03*
G04 #@! TO.P,U1,7*
G04 #@! TO.N,/P3*
X54050000Y-50710000D03*
G04 #@! TO.P,U1,8*
G04 #@! TO.N,GND*
X56590000Y-50710000D03*
G04 #@! TO.P,U1,9*
G04 #@! TO.N,/P4*
X56590000Y-43090000D03*
G04 #@! TO.P,U1,10*
G04 #@! TO.N,/P5*
X54050000Y-43090000D03*
G04 #@! TO.P,U1,11*
G04 #@! TO.N,/P6*
X51510000Y-43090000D03*
G04 #@! TO.P,U1,12*
G04 #@! TO.N,/P7*
X48970000Y-43090000D03*
G04 #@! TO.P,U1,13*
G04 #@! TO.N,Net-(U1-Pad13)*
X46430000Y-43090000D03*
G04 #@! TO.P,U1,14*
G04 #@! TO.N,/SCL*
X43890000Y-43090000D03*
G04 #@! TO.P,U1,15*
G04 #@! TO.N,/SDA*
X41350000Y-43090000D03*
G04 #@! TO.P,U1,16*
G04 #@! TO.N,/VCC*
X38810000Y-43090000D03*
G04 #@! TD*
G04 #@! TO.P,U3,16*
G04 #@! TO.N,/VCC*
X68610000Y-42990000D03*
G04 #@! TO.P,U3,15*
G04 #@! TO.N,/P4*
X71150000Y-42990000D03*
G04 #@! TO.P,U3,14*
G04 #@! TO.N,/Clock*
X73690000Y-42990000D03*
G04 #@! TO.P,U3,13*
G04 #@! TO.N,/P3*
X76230000Y-42990000D03*
G04 #@! TO.P,U3,12*
G04 #@! TO.N,/P2*
X78770000Y-42990000D03*
G04 #@! TO.P,U3,11*
G04 #@! TO.N,/P1*
X81310000Y-42990000D03*
G04 #@! TO.P,U3,10*
G04 #@! TO.N,/P0*
X83850000Y-42990000D03*
G04 #@! TO.P,U3,9*
G04 #@! TO.N,Net-(U3-Pad9)*
X86390000Y-42990000D03*
G04 #@! TO.P,U3,8*
G04 #@! TO.N,GND*
X86390000Y-50610000D03*
G04 #@! TO.P,U3,7*
G04 #@! TO.N,/Audio*
X83850000Y-50610000D03*
G04 #@! TO.P,U3,6*
G04 #@! TO.N,GND*
X81310000Y-50610000D03*
G04 #@! TO.P,U3,5*
G04 #@! TO.N,/~WE*
X78770000Y-50610000D03*
G04 #@! TO.P,U3,4*
G04 #@! TO.N,Net-(U3-Pad4)*
X76230000Y-50610000D03*
G04 #@! TO.P,U3,3*
G04 #@! TO.N,/P7*
X73690000Y-50610000D03*
G04 #@! TO.P,U3,2*
G04 #@! TO.N,/P6*
X71150000Y-50610000D03*
G04 #@! TO.P,U3,1*
G04 #@! TO.N,/P5*
X68610000Y-50610000D03*
G04 #@! TD*
D19*
G04 #@! TO.P,X1,7*
G04 #@! TO.N,GND*
X102000000Y-29360000D03*
G04 #@! TO.P,X1,8*
G04 #@! TO.N,/Clock*
X94380000Y-29360000D03*
G04 #@! TO.P,X1,14*
G04 #@! TO.N,/VCC*
X94380000Y-44600000D03*
D20*
G04 #@! TO.P,X1,1*
G04 #@! TO.N,Net-(X1-Pad1)*
X102000000Y-44600000D03*
G04 #@! TD*
D21*
G04 #@! TO.P,C1,1*
G04 #@! TO.N,/Audio*
X99000000Y-56800000D03*
D22*
G04 #@! TO.P,C1,2*
G04 #@! TO.N,Net-(C1-Pad2)*
X99000000Y-60300000D03*
G04 #@! TD*
D17*
G04 #@! TO.P,RV1,1*
G04 #@! TO.N,Net-(RV1-Pad1)*
X57800640Y-67999360D03*
G04 #@! TO.P,RV1,2*
G04 #@! TO.N,Net-(C1-Pad2)*
X60300000Y-65500000D03*
G04 #@! TO.P,RV1,3*
G04 #@! TO.N,Net-(J8-Pad2)*
X62799360Y-67999360D03*
G04 #@! TD*
D23*
G04 #@! TO.N,/Audio*
X83850000Y-50610000D02*
X83850000Y-52535200D01*
X99000000Y-56800000D02*
X88114800Y-56800000D01*
X88114800Y-56800000D02*
X83850000Y-52535200D01*
X74340000Y-34900000D02*
X76880000Y-34900000D01*
G04 #@! TO.N,Net-(C1-Pad2)*
X70800000Y-62280000D02*
X97020000Y-62280000D01*
X97020000Y-62280000D02*
X99000000Y-60300000D01*
X60300000Y-65500000D02*
X63520000Y-62280000D01*
X63520000Y-62280000D02*
X70800000Y-62280000D01*
G04 #@! TO.N,Net-(D1-Pad1)*
X77200000Y-67900000D02*
X77200000Y-69550000D01*
X77200000Y-69550000D02*
X76850000Y-69900000D01*
X76850000Y-69900000D02*
X70800000Y-69900000D01*
G04 #@! TO.N,GND*
X56590000Y-50710000D02*
X58165900Y-50710000D01*
X81310000Y-50610000D02*
X81310000Y-50692800D01*
X81310000Y-50692800D02*
X78267200Y-53735600D01*
X78267200Y-53735600D02*
X61191500Y-53735600D01*
X61191500Y-53735600D02*
X58165900Y-50710000D01*
X43890000Y-50710000D02*
X42925900Y-50710000D01*
X41350000Y-50710000D02*
X42925900Y-50710000D01*
X56590000Y-52635200D02*
X45742200Y-52635200D01*
X45742200Y-52635200D02*
X43890000Y-50783000D01*
X43890000Y-50783000D02*
X43890000Y-50710000D01*
X41350000Y-50710000D02*
X38810000Y-50710000D01*
X56590000Y-50710000D02*
X56590000Y-52635200D01*
G04 #@! TO.N,/VCC*
X94380000Y-44600000D02*
X92863100Y-46116900D01*
X92863100Y-46116900D02*
X71657200Y-46116900D01*
X71657200Y-46116900D02*
X68610000Y-43069700D01*
X68610000Y-43069700D02*
X68610000Y-42990000D01*
G04 #@! TO.N,/SCL*
X42780000Y-35100000D02*
X42780000Y-36775300D01*
X43890000Y-43090000D02*
X43890000Y-37885300D01*
X43890000Y-37885300D02*
X42780000Y-36775300D01*
G04 #@! TO.N,/SDA*
X55340000Y-34800000D02*
X55340000Y-33124700D01*
X45320000Y-35100000D02*
X46995300Y-35100000D01*
X46995300Y-35100000D02*
X48970600Y-33124700D01*
X48970600Y-33124700D02*
X55340000Y-33124700D01*
G04 #@! TO.N,Net-(J8-Pad2)*
X62799400Y-67999400D02*
X60973200Y-69825600D01*
X60973200Y-69825600D02*
X53260300Y-69825600D01*
X53260300Y-69825600D02*
X48800000Y-65365300D01*
X46300000Y-63433800D02*
X46300000Y-65365300D01*
X46300000Y-62790000D02*
X46300000Y-63433800D01*
X41300000Y-63433800D02*
X46300000Y-63433800D01*
X41300000Y-63433800D02*
X41300000Y-64077600D01*
X41300000Y-62790000D02*
X41300000Y-63433800D01*
X48800000Y-62790000D02*
X48800000Y-65365300D01*
X46300000Y-65365300D02*
X48800000Y-65365300D01*
X38800000Y-62790000D02*
X38800000Y-65365300D01*
X41300000Y-64077600D02*
X40012300Y-65365300D01*
X40012300Y-65365300D02*
X38800000Y-65365300D01*
G04 #@! TO.N,/P1*
X81310000Y-42990000D02*
X81310000Y-41064800D01*
X81310000Y-41064800D02*
X75059900Y-41064800D01*
X75059900Y-41064800D02*
X65915800Y-31920700D01*
X65915800Y-31920700D02*
X38009900Y-31920700D01*
X38009900Y-31920700D02*
X36013600Y-33917000D01*
X36013600Y-33917000D02*
X36013600Y-42894900D01*
X36013600Y-42894900D02*
X41123400Y-48004700D01*
X41123400Y-48004700D02*
X46349400Y-48004700D01*
X46349400Y-48004700D02*
X48970000Y-50625300D01*
X48970000Y-50625300D02*
X48970000Y-50710000D01*
G04 #@! TO.N,/P5*
X68610000Y-50610000D02*
X61527500Y-50610000D01*
X61527500Y-50610000D02*
X54050000Y-43132500D01*
X54050000Y-43132500D02*
X54050000Y-43090000D01*
G04 #@! TO.N,/P6*
X71150000Y-50610000D02*
X71150000Y-50692800D01*
X71150000Y-50692800D02*
X69307600Y-52535200D01*
X69307600Y-52535200D02*
X61750500Y-52535200D01*
X61750500Y-52535200D02*
X55010600Y-45795300D01*
X55010600Y-45795300D02*
X54130600Y-45795300D01*
X54130600Y-45795300D02*
X51510000Y-43174700D01*
X51510000Y-43174700D02*
X51510000Y-43090000D01*
G04 #@! TO.N,/P7*
X73690000Y-50610000D02*
X73690000Y-50538900D01*
X73690000Y-50538900D02*
X71835900Y-48684800D01*
X71835900Y-48684800D02*
X64987100Y-48684800D01*
X64987100Y-48684800D02*
X57467100Y-41164800D01*
X57467100Y-41164800D02*
X48970000Y-41164800D01*
X48970000Y-43090000D02*
X48970000Y-41164800D01*
G04 #@! TO.N,/~WE*
X78770000Y-50610000D02*
X78770000Y-50527300D01*
X78770000Y-50527300D02*
X75727100Y-47484400D01*
X75727100Y-47484400D02*
X65484400Y-47484400D01*
X65484400Y-47484400D02*
X52800000Y-34800000D01*
G04 #@! TO.N,/Clock*
X94380000Y-29360000D02*
X94380000Y-37628600D01*
X94380000Y-37628600D02*
X87092100Y-44916500D01*
X87092100Y-44916500D02*
X75573100Y-44916500D01*
X75573100Y-44916500D02*
X73690000Y-43033400D01*
X73690000Y-43033400D02*
X73690000Y-42990000D01*
G04 #@! TD*
D24*
G04 #@! TO.N,GND*
G36*
X107365630Y-24697827D02*
X107465000Y-71600330D01*
X107465001Y-74507470D01*
X106317445Y-75115000D01*
X88427612Y-75115000D01*
X88303864Y-75139615D01*
X37800843Y-75040687D01*
X35753833Y-72370674D01*
X35752224Y-72367488D01*
X35711307Y-72315205D01*
X35670915Y-72262520D01*
X35668232Y-72260165D01*
X34960000Y-71355203D01*
X34960000Y-71299551D01*
X34963348Y-68081750D01*
X41415000Y-68081750D01*
X41415000Y-69172310D01*
X41511673Y-69405699D01*
X41690302Y-69584327D01*
X41923691Y-69681000D01*
X43514250Y-69681000D01*
X43673000Y-69522250D01*
X43673000Y-67923000D01*
X43927000Y-67923000D01*
X43927000Y-69522250D01*
X44085750Y-69681000D01*
X45676309Y-69681000D01*
X45909698Y-69584327D01*
X46088327Y-69405699D01*
X46185000Y-69172310D01*
X46185000Y-68081750D01*
X46026250Y-67923000D01*
X43927000Y-67923000D01*
X43673000Y-67923000D01*
X41573750Y-67923000D01*
X41415000Y-68081750D01*
X34963348Y-68081750D01*
X34965077Y-66419690D01*
X41415000Y-66419690D01*
X41415000Y-67510250D01*
X41573750Y-67669000D01*
X43673000Y-67669000D01*
X43673000Y-66069750D01*
X43514250Y-65911000D01*
X41923691Y-65911000D01*
X41690302Y-66007673D01*
X41511673Y-66186301D01*
X41415000Y-66419690D01*
X34965077Y-66419690D01*
X34969920Y-61766282D01*
X37290000Y-61766282D01*
X37290000Y-63813717D01*
X37377612Y-64254172D01*
X37711351Y-64753649D01*
X37790001Y-64806201D01*
X37790001Y-65265820D01*
X37770213Y-65365300D01*
X37848601Y-65759382D01*
X38071831Y-66093469D01*
X38405918Y-66316699D01*
X38700524Y-66375300D01*
X38700525Y-66375300D01*
X38800000Y-66395087D01*
X38899476Y-66375300D01*
X39912829Y-66375300D01*
X40012300Y-66395086D01*
X40111771Y-66375300D01*
X40111776Y-66375300D01*
X40406382Y-66316699D01*
X40740469Y-66093469D01*
X40796818Y-66009137D01*
X41676206Y-65129750D01*
X41889172Y-65087388D01*
X42388649Y-64753649D01*
X42595683Y-64443800D01*
X45004317Y-64443800D01*
X45211351Y-64753649D01*
X45290001Y-64806201D01*
X45290001Y-65265820D01*
X45270213Y-65365300D01*
X45348601Y-65759382D01*
X45449909Y-65911000D01*
X44085750Y-65911000D01*
X43927000Y-66069750D01*
X43927000Y-67669000D01*
X46026250Y-67669000D01*
X46185000Y-67510250D01*
X46185000Y-66419690D01*
X46163568Y-66367949D01*
X46200524Y-66375300D01*
X46200525Y-66375300D01*
X46300000Y-66395087D01*
X46399476Y-66375300D01*
X48381645Y-66375300D01*
X52475784Y-70469440D01*
X52532131Y-70553769D01*
X52616460Y-70610116D01*
X52616462Y-70610118D01*
X52791405Y-70727011D01*
X52866218Y-70776999D01*
X53160824Y-70835600D01*
X53160829Y-70835600D01*
X53260300Y-70855386D01*
X53359771Y-70835600D01*
X60873729Y-70835600D01*
X60973200Y-70855386D01*
X61072671Y-70835600D01*
X61072676Y-70835600D01*
X61367282Y-70776999D01*
X61701369Y-70553769D01*
X61757718Y-70469438D01*
X62593305Y-69633850D01*
X63124480Y-69633850D01*
X63266846Y-69574880D01*
X69165510Y-69574880D01*
X69165510Y-70225120D01*
X69414346Y-70825864D01*
X69874136Y-71285654D01*
X70474880Y-71534490D01*
X71125120Y-71534490D01*
X71725864Y-71285654D01*
X72101518Y-70910000D01*
X76750529Y-70910000D01*
X76850000Y-70929786D01*
X76949471Y-70910000D01*
X76949476Y-70910000D01*
X77244082Y-70851399D01*
X77578169Y-70628169D01*
X77634518Y-70543837D01*
X77843837Y-70334518D01*
X77928169Y-70278169D01*
X78151399Y-69944082D01*
X78210000Y-69649476D01*
X78210000Y-69649471D01*
X78229786Y-69550000D01*
X78210000Y-69450529D01*
X78210000Y-69425560D01*
X78347765Y-69398157D01*
X78557809Y-69257809D01*
X78698157Y-69047765D01*
X78747440Y-68800000D01*
X78747440Y-67000000D01*
X78698157Y-66752235D01*
X78557809Y-66542191D01*
X78359886Y-66409942D01*
X78394718Y-66375110D01*
X78280161Y-66260553D01*
X78529928Y-66176410D01*
X84815000Y-66176410D01*
X84815000Y-67423590D01*
X85292276Y-68575835D01*
X86174165Y-69457724D01*
X87326410Y-69935000D01*
X88573590Y-69935000D01*
X89725835Y-69457724D01*
X90607724Y-68575835D01*
X91085000Y-67423590D01*
X91085000Y-66176410D01*
X90607724Y-65024165D01*
X89725835Y-64142276D01*
X88573590Y-63665000D01*
X87326410Y-63665000D01*
X86174165Y-64142276D01*
X85292276Y-65024165D01*
X84815000Y-66176410D01*
X78529928Y-66176410D01*
X78536643Y-66174148D01*
X78746458Y-65600664D01*
X78720839Y-64990540D01*
X78536643Y-64545852D01*
X78280159Y-64459446D01*
X77379605Y-65360000D01*
X77393748Y-65374143D01*
X77214143Y-65553748D01*
X77200000Y-65539605D01*
X77185858Y-65553748D01*
X77006253Y-65374143D01*
X77020395Y-65360000D01*
X76119841Y-64459446D01*
X75863357Y-64545852D01*
X75653542Y-65119336D01*
X75679161Y-65729460D01*
X75863357Y-66174148D01*
X76119839Y-66260553D01*
X76005282Y-66375110D01*
X76040114Y-66409942D01*
X75842191Y-66542191D01*
X75701843Y-66752235D01*
X75652560Y-67000000D01*
X75652560Y-68800000D01*
X75670462Y-68890000D01*
X72101518Y-68890000D01*
X71725864Y-68514346D01*
X71125120Y-68265510D01*
X70474880Y-68265510D01*
X69874136Y-68514346D01*
X69414346Y-68974136D01*
X69165510Y-69574880D01*
X63266846Y-69574880D01*
X63725224Y-69385014D01*
X64185014Y-68925224D01*
X64433850Y-68324480D01*
X64433850Y-67674240D01*
X64185014Y-67073496D01*
X63725224Y-66613706D01*
X63124480Y-66364870D01*
X62474240Y-66364870D01*
X61873496Y-66613706D01*
X61413706Y-67073496D01*
X61164870Y-67674240D01*
X61164870Y-68205575D01*
X60554845Y-68815600D01*
X59231702Y-68815600D01*
X59435130Y-68324480D01*
X59435130Y-67674240D01*
X59186294Y-67073496D01*
X58726504Y-66613706D01*
X58125760Y-66364870D01*
X57475520Y-66364870D01*
X56874776Y-66613706D01*
X56414986Y-67073496D01*
X56166150Y-67674240D01*
X56166150Y-68324480D01*
X56369578Y-68815600D01*
X53678656Y-68815600D01*
X50037936Y-65174880D01*
X58665510Y-65174880D01*
X58665510Y-65825120D01*
X58914346Y-66425864D01*
X59374136Y-66885654D01*
X59974880Y-67134490D01*
X60625120Y-67134490D01*
X61225864Y-66885654D01*
X61685654Y-66425864D01*
X61934490Y-65825120D01*
X61934490Y-65293865D01*
X62948514Y-64279841D01*
X76299446Y-64279841D01*
X77200000Y-65180395D01*
X78100554Y-64279841D01*
X78014148Y-64023357D01*
X77440664Y-63813542D01*
X76830540Y-63839161D01*
X76385852Y-64023357D01*
X76299446Y-64279841D01*
X62948514Y-64279841D01*
X63938356Y-63290000D01*
X69498482Y-63290000D01*
X69874136Y-63665654D01*
X70474880Y-63914490D01*
X71125120Y-63914490D01*
X71725864Y-63665654D01*
X72101518Y-63290000D01*
X96920529Y-63290000D01*
X97020000Y-63309786D01*
X97119471Y-63290000D01*
X97119476Y-63290000D01*
X97414082Y-63231399D01*
X97748169Y-63008169D01*
X97804518Y-62923838D01*
X98793356Y-61935000D01*
X99325222Y-61935000D01*
X99926153Y-61686086D01*
X100386086Y-61226153D01*
X100635000Y-60625222D01*
X100635000Y-59974778D01*
X100386086Y-59373847D01*
X99926153Y-58913914D01*
X99325222Y-58665000D01*
X98674778Y-58665000D01*
X98073847Y-58913914D01*
X97613914Y-59373847D01*
X97365000Y-59974778D01*
X97365000Y-60506644D01*
X96601645Y-61270000D01*
X72101518Y-61270000D01*
X71725864Y-60894346D01*
X71125120Y-60645510D01*
X70474880Y-60645510D01*
X69874136Y-60894346D01*
X69498482Y-61270000D01*
X63619471Y-61270000D01*
X63520000Y-61250214D01*
X63420529Y-61270000D01*
X63420524Y-61270000D01*
X63125918Y-61328601D01*
X63125916Y-61328602D01*
X63125917Y-61328602D01*
X62876162Y-61495482D01*
X62876160Y-61495484D01*
X62791831Y-61551831D01*
X62735484Y-61636160D01*
X60506135Y-63865510D01*
X59974880Y-63865510D01*
X59374136Y-64114346D01*
X58914346Y-64574136D01*
X58665510Y-65174880D01*
X50037936Y-65174880D01*
X49810000Y-64946945D01*
X49810000Y-64806200D01*
X49888649Y-64753649D01*
X50222388Y-64254173D01*
X50310000Y-63813718D01*
X50310000Y-61766282D01*
X50222388Y-61325827D01*
X49888649Y-60826351D01*
X49389173Y-60492612D01*
X48800000Y-60375418D01*
X48210828Y-60492612D01*
X47711352Y-60826351D01*
X47550000Y-61067831D01*
X47388649Y-60826351D01*
X46889173Y-60492612D01*
X46300000Y-60375418D01*
X45710828Y-60492612D01*
X45211352Y-60826351D01*
X44877613Y-61325827D01*
X44790000Y-61766282D01*
X44790000Y-62423800D01*
X42810000Y-62423800D01*
X42810000Y-61766282D01*
X42722388Y-61325827D01*
X42388649Y-60826351D01*
X41889173Y-60492612D01*
X41300000Y-60375418D01*
X40710828Y-60492612D01*
X40211352Y-60826351D01*
X40050000Y-61067831D01*
X39888649Y-60826351D01*
X39389173Y-60492612D01*
X38800000Y-60375418D01*
X38210828Y-60492612D01*
X37711352Y-60826351D01*
X37377613Y-61325827D01*
X37290000Y-61766282D01*
X34969920Y-61766282D01*
X34981293Y-50837000D01*
X37424430Y-50837000D01*
X37424430Y-51186250D01*
X37578501Y-51706817D01*
X37920056Y-52128798D01*
X38397097Y-52387950D01*
X38468725Y-52402133D01*
X38683000Y-52279479D01*
X38683000Y-50837000D01*
X38937000Y-50837000D01*
X38937000Y-52279479D01*
X39151275Y-52402133D01*
X39222903Y-52387950D01*
X39699944Y-52128798D01*
X40041499Y-51706817D01*
X40080000Y-51576732D01*
X40118501Y-51706817D01*
X40460056Y-52128798D01*
X40937097Y-52387950D01*
X41008725Y-52402133D01*
X41223000Y-52279479D01*
X41223000Y-50837000D01*
X41477000Y-50837000D01*
X41477000Y-52279479D01*
X41691275Y-52402133D01*
X41762903Y-52387950D01*
X42239944Y-52128798D01*
X42581499Y-51706817D01*
X42620000Y-51576732D01*
X42658501Y-51706817D01*
X43000056Y-52128798D01*
X43477097Y-52387950D01*
X43548725Y-52402133D01*
X43763000Y-52279479D01*
X43763000Y-50837000D01*
X41477000Y-50837000D01*
X41223000Y-50837000D01*
X38937000Y-50837000D01*
X38683000Y-50837000D01*
X37424430Y-50837000D01*
X34981293Y-50837000D01*
X34981920Y-50233750D01*
X37424430Y-50233750D01*
X37424430Y-50583000D01*
X38683000Y-50583000D01*
X38683000Y-49140521D01*
X38468725Y-49017867D01*
X38397097Y-49032050D01*
X37920056Y-49291202D01*
X37578501Y-49713183D01*
X37424430Y-50233750D01*
X34981920Y-50233750D01*
X34989528Y-42923625D01*
X35003601Y-42994376D01*
X35038371Y-43169175D01*
X35062202Y-43288982D01*
X35229082Y-43538737D01*
X35229085Y-43538740D01*
X35285432Y-43623069D01*
X35369761Y-43679416D01*
X40338884Y-48648540D01*
X40395231Y-48732869D01*
X40479560Y-48789216D01*
X40479561Y-48789217D01*
X40567590Y-48848036D01*
X40729318Y-48956099D01*
X41023924Y-49014700D01*
X41023928Y-49014700D01*
X41123399Y-49034486D01*
X41222870Y-49014700D01*
X41222998Y-49014700D01*
X41222998Y-49140520D01*
X41008725Y-49017867D01*
X40937097Y-49032050D01*
X40460056Y-49291202D01*
X40118501Y-49713183D01*
X40080000Y-49843268D01*
X40041499Y-49713183D01*
X39699944Y-49291202D01*
X39222903Y-49032050D01*
X39151275Y-49017867D01*
X38937000Y-49140521D01*
X38937000Y-50583000D01*
X41223000Y-50583000D01*
X41223000Y-50563000D01*
X41477000Y-50563000D01*
X41477000Y-50583000D01*
X43763000Y-50583000D01*
X43763000Y-50563000D01*
X44017000Y-50563000D01*
X44017000Y-50583000D01*
X44037000Y-50583000D01*
X44037000Y-50837000D01*
X44017000Y-50837000D01*
X44017000Y-52279479D01*
X44231275Y-52402133D01*
X44302903Y-52387950D01*
X44779944Y-52128798D01*
X45121499Y-51706817D01*
X45144455Y-51629255D01*
X45431061Y-52058190D01*
X45889379Y-52364428D01*
X46430000Y-52471964D01*
X46970622Y-52364428D01*
X47428940Y-52058190D01*
X47700000Y-51652520D01*
X47971061Y-52058190D01*
X48429379Y-52364428D01*
X48970000Y-52471964D01*
X49510622Y-52364428D01*
X49968940Y-52058190D01*
X50240000Y-51652520D01*
X50511061Y-52058190D01*
X50969379Y-52364428D01*
X51510000Y-52471964D01*
X52050622Y-52364428D01*
X52508940Y-52058190D01*
X52780000Y-51652520D01*
X53051061Y-52058190D01*
X53509379Y-52364428D01*
X54050000Y-52471964D01*
X54590622Y-52364428D01*
X55048940Y-52058190D01*
X55335545Y-51629255D01*
X55358501Y-51706817D01*
X55700056Y-52128798D01*
X56177097Y-52387950D01*
X56248725Y-52402133D01*
X56463000Y-52279479D01*
X56463000Y-50837000D01*
X56717000Y-50837000D01*
X56717000Y-52279479D01*
X56931275Y-52402133D01*
X57002903Y-52387950D01*
X57479944Y-52128798D01*
X57821499Y-51706817D01*
X57975570Y-51186250D01*
X57975570Y-50837000D01*
X56717000Y-50837000D01*
X56463000Y-50837000D01*
X56443000Y-50837000D01*
X56443000Y-50583000D01*
X56463000Y-50583000D01*
X56463000Y-49140521D01*
X56248725Y-49017867D01*
X56177097Y-49032050D01*
X55700056Y-49291202D01*
X55358501Y-49713183D01*
X55335545Y-49790745D01*
X55048939Y-49361810D01*
X54590621Y-49055572D01*
X54050000Y-48948036D01*
X53509378Y-49055572D01*
X53051060Y-49361811D01*
X52780000Y-49767481D01*
X52508939Y-49361810D01*
X52050621Y-49055572D01*
X51510000Y-48948036D01*
X50969378Y-49055572D01*
X50511060Y-49361811D01*
X50240000Y-49767481D01*
X49968939Y-49361810D01*
X49510621Y-49055572D01*
X48970000Y-48948036D01*
X48762388Y-48989333D01*
X47133918Y-47360863D01*
X47077569Y-47276531D01*
X46743482Y-47053301D01*
X46448876Y-46994700D01*
X46448871Y-46994700D01*
X46349400Y-46974914D01*
X46249929Y-46994700D01*
X41541756Y-46994700D01*
X39301295Y-44754240D01*
X39350622Y-44744428D01*
X39808940Y-44438190D01*
X40080000Y-44032520D01*
X40351061Y-44438190D01*
X40809379Y-44744428D01*
X41350000Y-44851964D01*
X41890622Y-44744428D01*
X42348940Y-44438190D01*
X42620000Y-44032520D01*
X42891061Y-44438190D01*
X43349379Y-44744428D01*
X43890000Y-44851964D01*
X44430622Y-44744428D01*
X44888940Y-44438190D01*
X45160000Y-44032520D01*
X45431061Y-44438190D01*
X45889379Y-44744428D01*
X46430000Y-44851964D01*
X46970622Y-44744428D01*
X47428940Y-44438190D01*
X47700000Y-44032520D01*
X47971061Y-44438190D01*
X48429379Y-44744428D01*
X48970000Y-44851964D01*
X49510622Y-44744428D01*
X49968940Y-44438190D01*
X50240000Y-44032520D01*
X50511061Y-44438190D01*
X50969379Y-44744428D01*
X51510000Y-44851964D01*
X51717612Y-44810667D01*
X53346082Y-46439137D01*
X53402431Y-46523469D01*
X53736518Y-46746699D01*
X54031124Y-46805300D01*
X54031128Y-46805300D01*
X54130599Y-46825086D01*
X54230070Y-46805300D01*
X54592245Y-46805300D01*
X56850849Y-49063904D01*
X56717000Y-49140521D01*
X56717000Y-50583000D01*
X57975570Y-50583000D01*
X57975570Y-50233750D01*
X57956600Y-50169656D01*
X60965984Y-53179040D01*
X61022331Y-53263369D01*
X61106660Y-53319716D01*
X61106662Y-53319718D01*
X61281605Y-53436611D01*
X61356418Y-53486599D01*
X61651024Y-53545200D01*
X61651029Y-53545200D01*
X61750500Y-53564986D01*
X61849971Y-53545200D01*
X69208129Y-53545200D01*
X69307600Y-53564986D01*
X69407071Y-53545200D01*
X69407076Y-53545200D01*
X69701682Y-53486599D01*
X70035769Y-53263369D01*
X70092118Y-53179037D01*
X70940803Y-52330352D01*
X71150000Y-52371964D01*
X71690622Y-52264428D01*
X72148940Y-51958190D01*
X72420000Y-51552520D01*
X72691061Y-51958190D01*
X73149379Y-52264428D01*
X73690000Y-52371964D01*
X74230622Y-52264428D01*
X74688940Y-51958190D01*
X74960000Y-51552520D01*
X75231061Y-51958190D01*
X75689379Y-52264428D01*
X76230000Y-52371964D01*
X76770622Y-52264428D01*
X77228940Y-51958190D01*
X77500000Y-51552520D01*
X77771061Y-51958190D01*
X78229379Y-52264428D01*
X78770000Y-52371964D01*
X79310622Y-52264428D01*
X79768940Y-51958190D01*
X80055545Y-51529255D01*
X80078501Y-51606817D01*
X80420056Y-52028798D01*
X80897097Y-52287950D01*
X80968725Y-52302133D01*
X81183000Y-52179479D01*
X81183000Y-50737000D01*
X81163000Y-50737000D01*
X81163000Y-50483000D01*
X81183000Y-50483000D01*
X81183000Y-49040521D01*
X81437000Y-49040521D01*
X81437000Y-50483000D01*
X81457000Y-50483000D01*
X81457000Y-50737000D01*
X81437000Y-50737000D01*
X81437000Y-52179479D01*
X81651275Y-52302133D01*
X81722903Y-52287950D01*
X82199944Y-52028798D01*
X82541499Y-51606817D01*
X82564455Y-51529255D01*
X82840001Y-51941637D01*
X82840001Y-52435725D01*
X82820214Y-52535200D01*
X82898602Y-52929282D01*
X83065482Y-53179037D01*
X83065485Y-53179040D01*
X83121832Y-53263369D01*
X83206161Y-53319716D01*
X87330284Y-57443840D01*
X87386631Y-57528169D01*
X87470960Y-57584516D01*
X87470962Y-57584518D01*
X87645905Y-57701411D01*
X87720718Y-57751399D01*
X88015324Y-57810000D01*
X88015328Y-57810000D01*
X88114799Y-57829786D01*
X88214270Y-57810000D01*
X97354549Y-57810000D01*
X97401843Y-58047765D01*
X97542191Y-58257809D01*
X97752235Y-58398157D01*
X98000000Y-58447440D01*
X100000000Y-58447440D01*
X100247765Y-58398157D01*
X100457809Y-58257809D01*
X100598157Y-58047765D01*
X100647440Y-57800000D01*
X100647440Y-55800000D01*
X100598157Y-55552235D01*
X100457809Y-55342191D01*
X100247765Y-55201843D01*
X100000000Y-55152560D01*
X98000000Y-55152560D01*
X97752235Y-55201843D01*
X97542191Y-55342191D01*
X97401843Y-55552235D01*
X97354549Y-55790000D01*
X88533156Y-55790000D01*
X84860000Y-52116845D01*
X84860000Y-51941638D01*
X85135545Y-51529255D01*
X85158501Y-51606817D01*
X85500056Y-52028798D01*
X85977097Y-52287950D01*
X86048725Y-52302133D01*
X86263000Y-52179479D01*
X86263000Y-50737000D01*
X86517000Y-50737000D01*
X86517000Y-52179479D01*
X86731275Y-52302133D01*
X86802903Y-52287950D01*
X87279944Y-52028798D01*
X87621499Y-51606817D01*
X87775570Y-51086250D01*
X87775570Y-50737000D01*
X86517000Y-50737000D01*
X86263000Y-50737000D01*
X86243000Y-50737000D01*
X86243000Y-50483000D01*
X86263000Y-50483000D01*
X86263000Y-49040521D01*
X86517000Y-49040521D01*
X86517000Y-50483000D01*
X87775570Y-50483000D01*
X87775570Y-50133750D01*
X87621499Y-49613183D01*
X87279944Y-49191202D01*
X86802903Y-48932050D01*
X86731275Y-48917867D01*
X86517000Y-49040521D01*
X86263000Y-49040521D01*
X86048725Y-48917867D01*
X85977097Y-48932050D01*
X85500056Y-49191202D01*
X85158501Y-49613183D01*
X85135545Y-49690745D01*
X84848939Y-49261810D01*
X84390621Y-48955572D01*
X83850000Y-48848036D01*
X83309378Y-48955572D01*
X82851060Y-49261811D01*
X82564455Y-49690746D01*
X82541499Y-49613183D01*
X82199944Y-49191202D01*
X81722903Y-48932050D01*
X81651275Y-48917867D01*
X81437000Y-49040521D01*
X81183000Y-49040521D01*
X80968725Y-48917867D01*
X80897097Y-48932050D01*
X80420056Y-49191202D01*
X80078501Y-49613183D01*
X80055545Y-49690745D01*
X79768939Y-49261810D01*
X79310621Y-48955572D01*
X78770000Y-48848036D01*
X78560720Y-48889664D01*
X76797955Y-47126900D01*
X92763629Y-47126900D01*
X92863100Y-47146686D01*
X92962571Y-47126900D01*
X92962576Y-47126900D01*
X93257182Y-47068299D01*
X93591269Y-46845069D01*
X93647618Y-46760738D01*
X93947283Y-46461072D01*
X94005050Y-46485000D01*
X94754950Y-46485000D01*
X95447767Y-46198026D01*
X95978026Y-45667767D01*
X96265000Y-44974950D01*
X96265000Y-44225050D01*
X95978026Y-43532233D01*
X95795793Y-43350000D01*
X100102560Y-43350000D01*
X100102560Y-45850000D01*
X100151843Y-46097765D01*
X100292191Y-46307809D01*
X100502235Y-46448157D01*
X100750000Y-46497440D01*
X103250000Y-46497440D01*
X103497765Y-46448157D01*
X103707809Y-46307809D01*
X103848157Y-46097765D01*
X103897440Y-45850000D01*
X103897440Y-43350000D01*
X103848157Y-43102235D01*
X103707809Y-42892191D01*
X103497765Y-42751843D01*
X103250000Y-42702560D01*
X100750000Y-42702560D01*
X100502235Y-42751843D01*
X100292191Y-42892191D01*
X100151843Y-43102235D01*
X100102560Y-43350000D01*
X95795793Y-43350000D01*
X95447767Y-43001974D01*
X94754950Y-42715000D01*
X94005050Y-42715000D01*
X93312233Y-43001974D01*
X92781974Y-43532233D01*
X92495000Y-44225050D01*
X92495000Y-44974950D01*
X92518928Y-45032717D01*
X92444745Y-45106900D01*
X88330055Y-45106900D01*
X95023837Y-38413118D01*
X95108169Y-38356769D01*
X95331399Y-38022682D01*
X95390000Y-37728076D01*
X95390000Y-37728072D01*
X95409786Y-37628601D01*
X95390000Y-37529130D01*
X95390000Y-30981954D01*
X95447767Y-30958026D01*
X95712473Y-30693320D01*
X100846285Y-30693320D01*
X100975533Y-30986123D01*
X101675806Y-31254388D01*
X102425435Y-31234250D01*
X103024467Y-30986123D01*
X103153715Y-30693320D01*
X102000000Y-29539605D01*
X100846285Y-30693320D01*
X95712473Y-30693320D01*
X95978026Y-30427767D01*
X96265000Y-29734950D01*
X96265000Y-29035806D01*
X100105612Y-29035806D01*
X100125750Y-29785435D01*
X100373877Y-30384467D01*
X100666680Y-30513715D01*
X101820395Y-29360000D01*
X102179605Y-29360000D01*
X103333320Y-30513715D01*
X103626123Y-30384467D01*
X103894388Y-29684194D01*
X103874250Y-28934565D01*
X103626123Y-28335533D01*
X103333320Y-28206285D01*
X102179605Y-29360000D01*
X101820395Y-29360000D01*
X100666680Y-28206285D01*
X100373877Y-28335533D01*
X100105612Y-29035806D01*
X96265000Y-29035806D01*
X96265000Y-28985050D01*
X95978026Y-28292233D01*
X95712473Y-28026680D01*
X100846285Y-28026680D01*
X102000000Y-29180395D01*
X103153715Y-28026680D01*
X103024467Y-27733877D01*
X102324194Y-27465612D01*
X101574565Y-27485750D01*
X100975533Y-27733877D01*
X100846285Y-28026680D01*
X95712473Y-28026680D01*
X95447767Y-27761974D01*
X94754950Y-27475000D01*
X94005050Y-27475000D01*
X93312233Y-27761974D01*
X92781974Y-28292233D01*
X92495000Y-28985050D01*
X92495000Y-29734950D01*
X92781974Y-30427767D01*
X93312233Y-30958026D01*
X93370000Y-30981954D01*
X93370001Y-37210244D01*
X87775570Y-42804675D01*
X87775570Y-42504287D01*
X87695178Y-42100128D01*
X87388939Y-41641810D01*
X86930621Y-41335572D01*
X86390000Y-41228036D01*
X85849378Y-41335572D01*
X85391060Y-41641811D01*
X85120000Y-42047481D01*
X84848939Y-41641810D01*
X84390621Y-41335572D01*
X83850000Y-41228036D01*
X83309378Y-41335572D01*
X82851060Y-41641811D01*
X82580000Y-42047481D01*
X82320000Y-41658364D01*
X82320000Y-41164276D01*
X82339787Y-41064800D01*
X82261399Y-40670718D01*
X82038169Y-40336631D01*
X81704082Y-40113401D01*
X81409476Y-40054800D01*
X81310000Y-40035013D01*
X81210525Y-40054800D01*
X75478255Y-40054800D01*
X71808455Y-36385000D01*
X71927002Y-36385000D01*
X71927002Y-36226252D01*
X72085750Y-36385000D01*
X72776310Y-36385000D01*
X73009699Y-36288327D01*
X73188327Y-36109698D01*
X73254904Y-35948967D01*
X73269375Y-35970625D01*
X73760582Y-36298839D01*
X74193744Y-36385000D01*
X74486256Y-36385000D01*
X74919418Y-36298839D01*
X75410625Y-35970625D01*
X75451133Y-35910000D01*
X75768867Y-35910000D01*
X75809375Y-35970625D01*
X76300582Y-36298839D01*
X76733744Y-36385000D01*
X77026256Y-36385000D01*
X77459418Y-36298839D01*
X77950625Y-35970625D01*
X78278839Y-35479418D01*
X78394092Y-34900000D01*
X78278839Y-34320582D01*
X77950625Y-33829375D01*
X77459418Y-33501161D01*
X77026256Y-33415000D01*
X76733744Y-33415000D01*
X76300582Y-33501161D01*
X75809375Y-33829375D01*
X75768867Y-33890000D01*
X75451133Y-33890000D01*
X75410625Y-33829375D01*
X74919418Y-33501161D01*
X74486256Y-33415000D01*
X74193744Y-33415000D01*
X73760582Y-33501161D01*
X73269375Y-33829375D01*
X73254904Y-33851033D01*
X73188327Y-33690302D01*
X73009699Y-33511673D01*
X72776310Y-33415000D01*
X72085750Y-33415000D01*
X71927000Y-33573750D01*
X71927000Y-34773000D01*
X71947000Y-34773000D01*
X71947000Y-35027000D01*
X71927000Y-35027000D01*
X71927000Y-35047000D01*
X71673000Y-35047000D01*
X71673000Y-35027000D01*
X71653000Y-35027000D01*
X71653000Y-34773000D01*
X71673000Y-34773000D01*
X71673000Y-33573750D01*
X71514250Y-33415000D01*
X70823690Y-33415000D01*
X70590301Y-33511673D01*
X70411673Y-33690302D01*
X70315000Y-33923691D01*
X70315000Y-34614250D01*
X70473748Y-34772998D01*
X70315000Y-34772998D01*
X70315000Y-34891545D01*
X67299865Y-31876410D01*
X82265000Y-31876410D01*
X82265000Y-33123590D01*
X82742276Y-34275835D01*
X83624165Y-35157724D01*
X84776410Y-35635000D01*
X86023590Y-35635000D01*
X87175835Y-35157724D01*
X88057724Y-34275835D01*
X88535000Y-33123590D01*
X88535000Y-31876410D01*
X88057724Y-30724165D01*
X87175835Y-29842276D01*
X86023590Y-29365000D01*
X84776410Y-29365000D01*
X83624165Y-29842276D01*
X82742276Y-30724165D01*
X82265000Y-31876410D01*
X67299865Y-31876410D01*
X66700318Y-31276863D01*
X66643969Y-31192531D01*
X66309882Y-30969301D01*
X66015276Y-30910700D01*
X66015271Y-30910700D01*
X65915800Y-30890914D01*
X65816329Y-30910700D01*
X38109372Y-30910700D01*
X38009900Y-30890914D01*
X37910428Y-30910700D01*
X37910424Y-30910700D01*
X37677015Y-30957128D01*
X37615817Y-30969301D01*
X37366062Y-31136182D01*
X37366060Y-31136184D01*
X37281731Y-31192531D01*
X37225384Y-31276860D01*
X35369762Y-33132482D01*
X35285431Y-33188831D01*
X35062201Y-33522919D01*
X35003600Y-33817525D01*
X35003600Y-33817529D01*
X34998979Y-33840759D01*
X35009494Y-23736447D01*
X35241373Y-23635000D01*
X106338231Y-23635000D01*
X107365630Y-24697827D01*
X107365630Y-24697827D01*
G37*
X107365630Y-24697827D02*
X107465000Y-71600330D01*
X107465001Y-74507470D01*
X106317445Y-75115000D01*
X88427612Y-75115000D01*
X88303864Y-75139615D01*
X37800843Y-75040687D01*
X35753833Y-72370674D01*
X35752224Y-72367488D01*
X35711307Y-72315205D01*
X35670915Y-72262520D01*
X35668232Y-72260165D01*
X34960000Y-71355203D01*
X34960000Y-71299551D01*
X34963348Y-68081750D01*
X41415000Y-68081750D01*
X41415000Y-69172310D01*
X41511673Y-69405699D01*
X41690302Y-69584327D01*
X41923691Y-69681000D01*
X43514250Y-69681000D01*
X43673000Y-69522250D01*
X43673000Y-67923000D01*
X43927000Y-67923000D01*
X43927000Y-69522250D01*
X44085750Y-69681000D01*
X45676309Y-69681000D01*
X45909698Y-69584327D01*
X46088327Y-69405699D01*
X46185000Y-69172310D01*
X46185000Y-68081750D01*
X46026250Y-67923000D01*
X43927000Y-67923000D01*
X43673000Y-67923000D01*
X41573750Y-67923000D01*
X41415000Y-68081750D01*
X34963348Y-68081750D01*
X34965077Y-66419690D01*
X41415000Y-66419690D01*
X41415000Y-67510250D01*
X41573750Y-67669000D01*
X43673000Y-67669000D01*
X43673000Y-66069750D01*
X43514250Y-65911000D01*
X41923691Y-65911000D01*
X41690302Y-66007673D01*
X41511673Y-66186301D01*
X41415000Y-66419690D01*
X34965077Y-66419690D01*
X34969920Y-61766282D01*
X37290000Y-61766282D01*
X37290000Y-63813717D01*
X37377612Y-64254172D01*
X37711351Y-64753649D01*
X37790001Y-64806201D01*
X37790001Y-65265820D01*
X37770213Y-65365300D01*
X37848601Y-65759382D01*
X38071831Y-66093469D01*
X38405918Y-66316699D01*
X38700524Y-66375300D01*
X38700525Y-66375300D01*
X38800000Y-66395087D01*
X38899476Y-66375300D01*
X39912829Y-66375300D01*
X40012300Y-66395086D01*
X40111771Y-66375300D01*
X40111776Y-66375300D01*
X40406382Y-66316699D01*
X40740469Y-66093469D01*
X40796818Y-66009137D01*
X41676206Y-65129750D01*
X41889172Y-65087388D01*
X42388649Y-64753649D01*
X42595683Y-64443800D01*
X45004317Y-64443800D01*
X45211351Y-64753649D01*
X45290001Y-64806201D01*
X45290001Y-65265820D01*
X45270213Y-65365300D01*
X45348601Y-65759382D01*
X45449909Y-65911000D01*
X44085750Y-65911000D01*
X43927000Y-66069750D01*
X43927000Y-67669000D01*
X46026250Y-67669000D01*
X46185000Y-67510250D01*
X46185000Y-66419690D01*
X46163568Y-66367949D01*
X46200524Y-66375300D01*
X46200525Y-66375300D01*
X46300000Y-66395087D01*
X46399476Y-66375300D01*
X48381645Y-66375300D01*
X52475784Y-70469440D01*
X52532131Y-70553769D01*
X52616460Y-70610116D01*
X52616462Y-70610118D01*
X52791405Y-70727011D01*
X52866218Y-70776999D01*
X53160824Y-70835600D01*
X53160829Y-70835600D01*
X53260300Y-70855386D01*
X53359771Y-70835600D01*
X60873729Y-70835600D01*
X60973200Y-70855386D01*
X61072671Y-70835600D01*
X61072676Y-70835600D01*
X61367282Y-70776999D01*
X61701369Y-70553769D01*
X61757718Y-70469438D01*
X62593305Y-69633850D01*
X63124480Y-69633850D01*
X63266846Y-69574880D01*
X69165510Y-69574880D01*
X69165510Y-70225120D01*
X69414346Y-70825864D01*
X69874136Y-71285654D01*
X70474880Y-71534490D01*
X71125120Y-71534490D01*
X71725864Y-71285654D01*
X72101518Y-70910000D01*
X76750529Y-70910000D01*
X76850000Y-70929786D01*
X76949471Y-70910000D01*
X76949476Y-70910000D01*
X77244082Y-70851399D01*
X77578169Y-70628169D01*
X77634518Y-70543837D01*
X77843837Y-70334518D01*
X77928169Y-70278169D01*
X78151399Y-69944082D01*
X78210000Y-69649476D01*
X78210000Y-69649471D01*
X78229786Y-69550000D01*
X78210000Y-69450529D01*
X78210000Y-69425560D01*
X78347765Y-69398157D01*
X78557809Y-69257809D01*
X78698157Y-69047765D01*
X78747440Y-68800000D01*
X78747440Y-67000000D01*
X78698157Y-66752235D01*
X78557809Y-66542191D01*
X78359886Y-66409942D01*
X78394718Y-66375110D01*
X78280161Y-66260553D01*
X78529928Y-66176410D01*
X84815000Y-66176410D01*
X84815000Y-67423590D01*
X85292276Y-68575835D01*
X86174165Y-69457724D01*
X87326410Y-69935000D01*
X88573590Y-69935000D01*
X89725835Y-69457724D01*
X90607724Y-68575835D01*
X91085000Y-67423590D01*
X91085000Y-66176410D01*
X90607724Y-65024165D01*
X89725835Y-64142276D01*
X88573590Y-63665000D01*
X87326410Y-63665000D01*
X86174165Y-64142276D01*
X85292276Y-65024165D01*
X84815000Y-66176410D01*
X78529928Y-66176410D01*
X78536643Y-66174148D01*
X78746458Y-65600664D01*
X78720839Y-64990540D01*
X78536643Y-64545852D01*
X78280159Y-64459446D01*
X77379605Y-65360000D01*
X77393748Y-65374143D01*
X77214143Y-65553748D01*
X77200000Y-65539605D01*
X77185858Y-65553748D01*
X77006253Y-65374143D01*
X77020395Y-65360000D01*
X76119841Y-64459446D01*
X75863357Y-64545852D01*
X75653542Y-65119336D01*
X75679161Y-65729460D01*
X75863357Y-66174148D01*
X76119839Y-66260553D01*
X76005282Y-66375110D01*
X76040114Y-66409942D01*
X75842191Y-66542191D01*
X75701843Y-66752235D01*
X75652560Y-67000000D01*
X75652560Y-68800000D01*
X75670462Y-68890000D01*
X72101518Y-68890000D01*
X71725864Y-68514346D01*
X71125120Y-68265510D01*
X70474880Y-68265510D01*
X69874136Y-68514346D01*
X69414346Y-68974136D01*
X69165510Y-69574880D01*
X63266846Y-69574880D01*
X63725224Y-69385014D01*
X64185014Y-68925224D01*
X64433850Y-68324480D01*
X64433850Y-67674240D01*
X64185014Y-67073496D01*
X63725224Y-66613706D01*
X63124480Y-66364870D01*
X62474240Y-66364870D01*
X61873496Y-66613706D01*
X61413706Y-67073496D01*
X61164870Y-67674240D01*
X61164870Y-68205575D01*
X60554845Y-68815600D01*
X59231702Y-68815600D01*
X59435130Y-68324480D01*
X59435130Y-67674240D01*
X59186294Y-67073496D01*
X58726504Y-66613706D01*
X58125760Y-66364870D01*
X57475520Y-66364870D01*
X56874776Y-66613706D01*
X56414986Y-67073496D01*
X56166150Y-67674240D01*
X56166150Y-68324480D01*
X56369578Y-68815600D01*
X53678656Y-68815600D01*
X50037936Y-65174880D01*
X58665510Y-65174880D01*
X58665510Y-65825120D01*
X58914346Y-66425864D01*
X59374136Y-66885654D01*
X59974880Y-67134490D01*
X60625120Y-67134490D01*
X61225864Y-66885654D01*
X61685654Y-66425864D01*
X61934490Y-65825120D01*
X61934490Y-65293865D01*
X62948514Y-64279841D01*
X76299446Y-64279841D01*
X77200000Y-65180395D01*
X78100554Y-64279841D01*
X78014148Y-64023357D01*
X77440664Y-63813542D01*
X76830540Y-63839161D01*
X76385852Y-64023357D01*
X76299446Y-64279841D01*
X62948514Y-64279841D01*
X63938356Y-63290000D01*
X69498482Y-63290000D01*
X69874136Y-63665654D01*
X70474880Y-63914490D01*
X71125120Y-63914490D01*
X71725864Y-63665654D01*
X72101518Y-63290000D01*
X96920529Y-63290000D01*
X97020000Y-63309786D01*
X97119471Y-63290000D01*
X97119476Y-63290000D01*
X97414082Y-63231399D01*
X97748169Y-63008169D01*
X97804518Y-62923838D01*
X98793356Y-61935000D01*
X99325222Y-61935000D01*
X99926153Y-61686086D01*
X100386086Y-61226153D01*
X100635000Y-60625222D01*
X100635000Y-59974778D01*
X100386086Y-59373847D01*
X99926153Y-58913914D01*
X99325222Y-58665000D01*
X98674778Y-58665000D01*
X98073847Y-58913914D01*
X97613914Y-59373847D01*
X97365000Y-59974778D01*
X97365000Y-60506644D01*
X96601645Y-61270000D01*
X72101518Y-61270000D01*
X71725864Y-60894346D01*
X71125120Y-60645510D01*
X70474880Y-60645510D01*
X69874136Y-60894346D01*
X69498482Y-61270000D01*
X63619471Y-61270000D01*
X63520000Y-61250214D01*
X63420529Y-61270000D01*
X63420524Y-61270000D01*
X63125918Y-61328601D01*
X63125916Y-61328602D01*
X63125917Y-61328602D01*
X62876162Y-61495482D01*
X62876160Y-61495484D01*
X62791831Y-61551831D01*
X62735484Y-61636160D01*
X60506135Y-63865510D01*
X59974880Y-63865510D01*
X59374136Y-64114346D01*
X58914346Y-64574136D01*
X58665510Y-65174880D01*
X50037936Y-65174880D01*
X49810000Y-64946945D01*
X49810000Y-64806200D01*
X49888649Y-64753649D01*
X50222388Y-64254173D01*
X50310000Y-63813718D01*
X50310000Y-61766282D01*
X50222388Y-61325827D01*
X49888649Y-60826351D01*
X49389173Y-60492612D01*
X48800000Y-60375418D01*
X48210828Y-60492612D01*
X47711352Y-60826351D01*
X47550000Y-61067831D01*
X47388649Y-60826351D01*
X46889173Y-60492612D01*
X46300000Y-60375418D01*
X45710828Y-60492612D01*
X45211352Y-60826351D01*
X44877613Y-61325827D01*
X44790000Y-61766282D01*
X44790000Y-62423800D01*
X42810000Y-62423800D01*
X42810000Y-61766282D01*
X42722388Y-61325827D01*
X42388649Y-60826351D01*
X41889173Y-60492612D01*
X41300000Y-60375418D01*
X40710828Y-60492612D01*
X40211352Y-60826351D01*
X40050000Y-61067831D01*
X39888649Y-60826351D01*
X39389173Y-60492612D01*
X38800000Y-60375418D01*
X38210828Y-60492612D01*
X37711352Y-60826351D01*
X37377613Y-61325827D01*
X37290000Y-61766282D01*
X34969920Y-61766282D01*
X34981293Y-50837000D01*
X37424430Y-50837000D01*
X37424430Y-51186250D01*
X37578501Y-51706817D01*
X37920056Y-52128798D01*
X38397097Y-52387950D01*
X38468725Y-52402133D01*
X38683000Y-52279479D01*
X38683000Y-50837000D01*
X38937000Y-50837000D01*
X38937000Y-52279479D01*
X39151275Y-52402133D01*
X39222903Y-52387950D01*
X39699944Y-52128798D01*
X40041499Y-51706817D01*
X40080000Y-51576732D01*
X40118501Y-51706817D01*
X40460056Y-52128798D01*
X40937097Y-52387950D01*
X41008725Y-52402133D01*
X41223000Y-52279479D01*
X41223000Y-50837000D01*
X41477000Y-50837000D01*
X41477000Y-52279479D01*
X41691275Y-52402133D01*
X41762903Y-52387950D01*
X42239944Y-52128798D01*
X42581499Y-51706817D01*
X42620000Y-51576732D01*
X42658501Y-51706817D01*
X43000056Y-52128798D01*
X43477097Y-52387950D01*
X43548725Y-52402133D01*
X43763000Y-52279479D01*
X43763000Y-50837000D01*
X41477000Y-50837000D01*
X41223000Y-50837000D01*
X38937000Y-50837000D01*
X38683000Y-50837000D01*
X37424430Y-50837000D01*
X34981293Y-50837000D01*
X34981920Y-50233750D01*
X37424430Y-50233750D01*
X37424430Y-50583000D01*
X38683000Y-50583000D01*
X38683000Y-49140521D01*
X38468725Y-49017867D01*
X38397097Y-49032050D01*
X37920056Y-49291202D01*
X37578501Y-49713183D01*
X37424430Y-50233750D01*
X34981920Y-50233750D01*
X34989528Y-42923625D01*
X35003601Y-42994376D01*
X35038371Y-43169175D01*
X35062202Y-43288982D01*
X35229082Y-43538737D01*
X35229085Y-43538740D01*
X35285432Y-43623069D01*
X35369761Y-43679416D01*
X40338884Y-48648540D01*
X40395231Y-48732869D01*
X40479560Y-48789216D01*
X40479561Y-48789217D01*
X40567590Y-48848036D01*
X40729318Y-48956099D01*
X41023924Y-49014700D01*
X41023928Y-49014700D01*
X41123399Y-49034486D01*
X41222870Y-49014700D01*
X41222998Y-49014700D01*
X41222998Y-49140520D01*
X41008725Y-49017867D01*
X40937097Y-49032050D01*
X40460056Y-49291202D01*
X40118501Y-49713183D01*
X40080000Y-49843268D01*
X40041499Y-49713183D01*
X39699944Y-49291202D01*
X39222903Y-49032050D01*
X39151275Y-49017867D01*
X38937000Y-49140521D01*
X38937000Y-50583000D01*
X41223000Y-50583000D01*
X41223000Y-50563000D01*
X41477000Y-50563000D01*
X41477000Y-50583000D01*
X43763000Y-50583000D01*
X43763000Y-50563000D01*
X44017000Y-50563000D01*
X44017000Y-50583000D01*
X44037000Y-50583000D01*
X44037000Y-50837000D01*
X44017000Y-50837000D01*
X44017000Y-52279479D01*
X44231275Y-52402133D01*
X44302903Y-52387950D01*
X44779944Y-52128798D01*
X45121499Y-51706817D01*
X45144455Y-51629255D01*
X45431061Y-52058190D01*
X45889379Y-52364428D01*
X46430000Y-52471964D01*
X46970622Y-52364428D01*
X47428940Y-52058190D01*
X47700000Y-51652520D01*
X47971061Y-52058190D01*
X48429379Y-52364428D01*
X48970000Y-52471964D01*
X49510622Y-52364428D01*
X49968940Y-52058190D01*
X50240000Y-51652520D01*
X50511061Y-52058190D01*
X50969379Y-52364428D01*
X51510000Y-52471964D01*
X52050622Y-52364428D01*
X52508940Y-52058190D01*
X52780000Y-51652520D01*
X53051061Y-52058190D01*
X53509379Y-52364428D01*
X54050000Y-52471964D01*
X54590622Y-52364428D01*
X55048940Y-52058190D01*
X55335545Y-51629255D01*
X55358501Y-51706817D01*
X55700056Y-52128798D01*
X56177097Y-52387950D01*
X56248725Y-52402133D01*
X56463000Y-52279479D01*
X56463000Y-50837000D01*
X56717000Y-50837000D01*
X56717000Y-52279479D01*
X56931275Y-52402133D01*
X57002903Y-52387950D01*
X57479944Y-52128798D01*
X57821499Y-51706817D01*
X57975570Y-51186250D01*
X57975570Y-50837000D01*
X56717000Y-50837000D01*
X56463000Y-50837000D01*
X56443000Y-50837000D01*
X56443000Y-50583000D01*
X56463000Y-50583000D01*
X56463000Y-49140521D01*
X56248725Y-49017867D01*
X56177097Y-49032050D01*
X55700056Y-49291202D01*
X55358501Y-49713183D01*
X55335545Y-49790745D01*
X55048939Y-49361810D01*
X54590621Y-49055572D01*
X54050000Y-48948036D01*
X53509378Y-49055572D01*
X53051060Y-49361811D01*
X52780000Y-49767481D01*
X52508939Y-49361810D01*
X52050621Y-49055572D01*
X51510000Y-48948036D01*
X50969378Y-49055572D01*
X50511060Y-49361811D01*
X50240000Y-49767481D01*
X49968939Y-49361810D01*
X49510621Y-49055572D01*
X48970000Y-48948036D01*
X48762388Y-48989333D01*
X47133918Y-47360863D01*
X47077569Y-47276531D01*
X46743482Y-47053301D01*
X46448876Y-46994700D01*
X46448871Y-46994700D01*
X46349400Y-46974914D01*
X46249929Y-46994700D01*
X41541756Y-46994700D01*
X39301295Y-44754240D01*
X39350622Y-44744428D01*
X39808940Y-44438190D01*
X40080000Y-44032520D01*
X40351061Y-44438190D01*
X40809379Y-44744428D01*
X41350000Y-44851964D01*
X41890622Y-44744428D01*
X42348940Y-44438190D01*
X42620000Y-44032520D01*
X42891061Y-44438190D01*
X43349379Y-44744428D01*
X43890000Y-44851964D01*
X44430622Y-44744428D01*
X44888940Y-44438190D01*
X45160000Y-44032520D01*
X45431061Y-44438190D01*
X45889379Y-44744428D01*
X46430000Y-44851964D01*
X46970622Y-44744428D01*
X47428940Y-44438190D01*
X47700000Y-44032520D01*
X47971061Y-44438190D01*
X48429379Y-44744428D01*
X48970000Y-44851964D01*
X49510622Y-44744428D01*
X49968940Y-44438190D01*
X50240000Y-44032520D01*
X50511061Y-44438190D01*
X50969379Y-44744428D01*
X51510000Y-44851964D01*
X51717612Y-44810667D01*
X53346082Y-46439137D01*
X53402431Y-46523469D01*
X53736518Y-46746699D01*
X54031124Y-46805300D01*
X54031128Y-46805300D01*
X54130599Y-46825086D01*
X54230070Y-46805300D01*
X54592245Y-46805300D01*
X56850849Y-49063904D01*
X56717000Y-49140521D01*
X56717000Y-50583000D01*
X57975570Y-50583000D01*
X57975570Y-50233750D01*
X57956600Y-50169656D01*
X60965984Y-53179040D01*
X61022331Y-53263369D01*
X61106660Y-53319716D01*
X61106662Y-53319718D01*
X61281605Y-53436611D01*
X61356418Y-53486599D01*
X61651024Y-53545200D01*
X61651029Y-53545200D01*
X61750500Y-53564986D01*
X61849971Y-53545200D01*
X69208129Y-53545200D01*
X69307600Y-53564986D01*
X69407071Y-53545200D01*
X69407076Y-53545200D01*
X69701682Y-53486599D01*
X70035769Y-53263369D01*
X70092118Y-53179037D01*
X70940803Y-52330352D01*
X71150000Y-52371964D01*
X71690622Y-52264428D01*
X72148940Y-51958190D01*
X72420000Y-51552520D01*
X72691061Y-51958190D01*
X73149379Y-52264428D01*
X73690000Y-52371964D01*
X74230622Y-52264428D01*
X74688940Y-51958190D01*
X74960000Y-51552520D01*
X75231061Y-51958190D01*
X75689379Y-52264428D01*
X76230000Y-52371964D01*
X76770622Y-52264428D01*
X77228940Y-51958190D01*
X77500000Y-51552520D01*
X77771061Y-51958190D01*
X78229379Y-52264428D01*
X78770000Y-52371964D01*
X79310622Y-52264428D01*
X79768940Y-51958190D01*
X80055545Y-51529255D01*
X80078501Y-51606817D01*
X80420056Y-52028798D01*
X80897097Y-52287950D01*
X80968725Y-52302133D01*
X81183000Y-52179479D01*
X81183000Y-50737000D01*
X81163000Y-50737000D01*
X81163000Y-50483000D01*
X81183000Y-50483000D01*
X81183000Y-49040521D01*
X81437000Y-49040521D01*
X81437000Y-50483000D01*
X81457000Y-50483000D01*
X81457000Y-50737000D01*
X81437000Y-50737000D01*
X81437000Y-52179479D01*
X81651275Y-52302133D01*
X81722903Y-52287950D01*
X82199944Y-52028798D01*
X82541499Y-51606817D01*
X82564455Y-51529255D01*
X82840001Y-51941637D01*
X82840001Y-52435725D01*
X82820214Y-52535200D01*
X82898602Y-52929282D01*
X83065482Y-53179037D01*
X83065485Y-53179040D01*
X83121832Y-53263369D01*
X83206161Y-53319716D01*
X87330284Y-57443840D01*
X87386631Y-57528169D01*
X87470960Y-57584516D01*
X87470962Y-57584518D01*
X87645905Y-57701411D01*
X87720718Y-57751399D01*
X88015324Y-57810000D01*
X88015328Y-57810000D01*
X88114799Y-57829786D01*
X88214270Y-57810000D01*
X97354549Y-57810000D01*
X97401843Y-58047765D01*
X97542191Y-58257809D01*
X97752235Y-58398157D01*
X98000000Y-58447440D01*
X100000000Y-58447440D01*
X100247765Y-58398157D01*
X100457809Y-58257809D01*
X100598157Y-58047765D01*
X100647440Y-57800000D01*
X100647440Y-55800000D01*
X100598157Y-55552235D01*
X100457809Y-55342191D01*
X100247765Y-55201843D01*
X100000000Y-55152560D01*
X98000000Y-55152560D01*
X97752235Y-55201843D01*
X97542191Y-55342191D01*
X97401843Y-55552235D01*
X97354549Y-55790000D01*
X88533156Y-55790000D01*
X84860000Y-52116845D01*
X84860000Y-51941638D01*
X85135545Y-51529255D01*
X85158501Y-51606817D01*
X85500056Y-52028798D01*
X85977097Y-52287950D01*
X86048725Y-52302133D01*
X86263000Y-52179479D01*
X86263000Y-50737000D01*
X86517000Y-50737000D01*
X86517000Y-52179479D01*
X86731275Y-52302133D01*
X86802903Y-52287950D01*
X87279944Y-52028798D01*
X87621499Y-51606817D01*
X87775570Y-51086250D01*
X87775570Y-50737000D01*
X86517000Y-50737000D01*
X86263000Y-50737000D01*
X86243000Y-50737000D01*
X86243000Y-50483000D01*
X86263000Y-50483000D01*
X86263000Y-49040521D01*
X86517000Y-49040521D01*
X86517000Y-50483000D01*
X87775570Y-50483000D01*
X87775570Y-50133750D01*
X87621499Y-49613183D01*
X87279944Y-49191202D01*
X86802903Y-48932050D01*
X86731275Y-48917867D01*
X86517000Y-49040521D01*
X86263000Y-49040521D01*
X86048725Y-48917867D01*
X85977097Y-48932050D01*
X85500056Y-49191202D01*
X85158501Y-49613183D01*
X85135545Y-49690745D01*
X84848939Y-49261810D01*
X84390621Y-48955572D01*
X83850000Y-48848036D01*
X83309378Y-48955572D01*
X82851060Y-49261811D01*
X82564455Y-49690746D01*
X82541499Y-49613183D01*
X82199944Y-49191202D01*
X81722903Y-48932050D01*
X81651275Y-48917867D01*
X81437000Y-49040521D01*
X81183000Y-49040521D01*
X80968725Y-48917867D01*
X80897097Y-48932050D01*
X80420056Y-49191202D01*
X80078501Y-49613183D01*
X80055545Y-49690745D01*
X79768939Y-49261810D01*
X79310621Y-48955572D01*
X78770000Y-48848036D01*
X78560720Y-48889664D01*
X76797955Y-47126900D01*
X92763629Y-47126900D01*
X92863100Y-47146686D01*
X92962571Y-47126900D01*
X92962576Y-47126900D01*
X93257182Y-47068299D01*
X93591269Y-46845069D01*
X93647618Y-46760738D01*
X93947283Y-46461072D01*
X94005050Y-46485000D01*
X94754950Y-46485000D01*
X95447767Y-46198026D01*
X95978026Y-45667767D01*
X96265000Y-44974950D01*
X96265000Y-44225050D01*
X95978026Y-43532233D01*
X95795793Y-43350000D01*
X100102560Y-43350000D01*
X100102560Y-45850000D01*
X100151843Y-46097765D01*
X100292191Y-46307809D01*
X100502235Y-46448157D01*
X100750000Y-46497440D01*
X103250000Y-46497440D01*
X103497765Y-46448157D01*
X103707809Y-46307809D01*
X103848157Y-46097765D01*
X103897440Y-45850000D01*
X103897440Y-43350000D01*
X103848157Y-43102235D01*
X103707809Y-42892191D01*
X103497765Y-42751843D01*
X103250000Y-42702560D01*
X100750000Y-42702560D01*
X100502235Y-42751843D01*
X100292191Y-42892191D01*
X100151843Y-43102235D01*
X100102560Y-43350000D01*
X95795793Y-43350000D01*
X95447767Y-43001974D01*
X94754950Y-42715000D01*
X94005050Y-42715000D01*
X93312233Y-43001974D01*
X92781974Y-43532233D01*
X92495000Y-44225050D01*
X92495000Y-44974950D01*
X92518928Y-45032717D01*
X92444745Y-45106900D01*
X88330055Y-45106900D01*
X95023837Y-38413118D01*
X95108169Y-38356769D01*
X95331399Y-38022682D01*
X95390000Y-37728076D01*
X95390000Y-37728072D01*
X95409786Y-37628601D01*
X95390000Y-37529130D01*
X95390000Y-30981954D01*
X95447767Y-30958026D01*
X95712473Y-30693320D01*
X100846285Y-30693320D01*
X100975533Y-30986123D01*
X101675806Y-31254388D01*
X102425435Y-31234250D01*
X103024467Y-30986123D01*
X103153715Y-30693320D01*
X102000000Y-29539605D01*
X100846285Y-30693320D01*
X95712473Y-30693320D01*
X95978026Y-30427767D01*
X96265000Y-29734950D01*
X96265000Y-29035806D01*
X100105612Y-29035806D01*
X100125750Y-29785435D01*
X100373877Y-30384467D01*
X100666680Y-30513715D01*
X101820395Y-29360000D01*
X102179605Y-29360000D01*
X103333320Y-30513715D01*
X103626123Y-30384467D01*
X103894388Y-29684194D01*
X103874250Y-28934565D01*
X103626123Y-28335533D01*
X103333320Y-28206285D01*
X102179605Y-29360000D01*
X101820395Y-29360000D01*
X100666680Y-28206285D01*
X100373877Y-28335533D01*
X100105612Y-29035806D01*
X96265000Y-29035806D01*
X96265000Y-28985050D01*
X95978026Y-28292233D01*
X95712473Y-28026680D01*
X100846285Y-28026680D01*
X102000000Y-29180395D01*
X103153715Y-28026680D01*
X103024467Y-27733877D01*
X102324194Y-27465612D01*
X101574565Y-27485750D01*
X100975533Y-27733877D01*
X100846285Y-28026680D01*
X95712473Y-28026680D01*
X95447767Y-27761974D01*
X94754950Y-27475000D01*
X94005050Y-27475000D01*
X93312233Y-27761974D01*
X92781974Y-28292233D01*
X92495000Y-28985050D01*
X92495000Y-29734950D01*
X92781974Y-30427767D01*
X93312233Y-30958026D01*
X93370000Y-30981954D01*
X93370001Y-37210244D01*
X87775570Y-42804675D01*
X87775570Y-42504287D01*
X87695178Y-42100128D01*
X87388939Y-41641810D01*
X86930621Y-41335572D01*
X86390000Y-41228036D01*
X85849378Y-41335572D01*
X85391060Y-41641811D01*
X85120000Y-42047481D01*
X84848939Y-41641810D01*
X84390621Y-41335572D01*
X83850000Y-41228036D01*
X83309378Y-41335572D01*
X82851060Y-41641811D01*
X82580000Y-42047481D01*
X82320000Y-41658364D01*
X82320000Y-41164276D01*
X82339787Y-41064800D01*
X82261399Y-40670718D01*
X82038169Y-40336631D01*
X81704082Y-40113401D01*
X81409476Y-40054800D01*
X81310000Y-40035013D01*
X81210525Y-40054800D01*
X75478255Y-40054800D01*
X71808455Y-36385000D01*
X71927002Y-36385000D01*
X71927002Y-36226252D01*
X72085750Y-36385000D01*
X72776310Y-36385000D01*
X73009699Y-36288327D01*
X73188327Y-36109698D01*
X73254904Y-35948967D01*
X73269375Y-35970625D01*
X73760582Y-36298839D01*
X74193744Y-36385000D01*
X74486256Y-36385000D01*
X74919418Y-36298839D01*
X75410625Y-35970625D01*
X75451133Y-35910000D01*
X75768867Y-35910000D01*
X75809375Y-35970625D01*
X76300582Y-36298839D01*
X76733744Y-36385000D01*
X77026256Y-36385000D01*
X77459418Y-36298839D01*
X77950625Y-35970625D01*
X78278839Y-35479418D01*
X78394092Y-34900000D01*
X78278839Y-34320582D01*
X77950625Y-33829375D01*
X77459418Y-33501161D01*
X77026256Y-33415000D01*
X76733744Y-33415000D01*
X76300582Y-33501161D01*
X75809375Y-33829375D01*
X75768867Y-33890000D01*
X75451133Y-33890000D01*
X75410625Y-33829375D01*
X74919418Y-33501161D01*
X74486256Y-33415000D01*
X74193744Y-33415000D01*
X73760582Y-33501161D01*
X73269375Y-33829375D01*
X73254904Y-33851033D01*
X73188327Y-33690302D01*
X73009699Y-33511673D01*
X72776310Y-33415000D01*
X72085750Y-33415000D01*
X71927000Y-33573750D01*
X71927000Y-34773000D01*
X71947000Y-34773000D01*
X71947000Y-35027000D01*
X71927000Y-35027000D01*
X71927000Y-35047000D01*
X71673000Y-35047000D01*
X71673000Y-35027000D01*
X71653000Y-35027000D01*
X71653000Y-34773000D01*
X71673000Y-34773000D01*
X71673000Y-33573750D01*
X71514250Y-33415000D01*
X70823690Y-33415000D01*
X70590301Y-33511673D01*
X70411673Y-33690302D01*
X70315000Y-33923691D01*
X70315000Y-34614250D01*
X70473748Y-34772998D01*
X70315000Y-34772998D01*
X70315000Y-34891545D01*
X67299865Y-31876410D01*
X82265000Y-31876410D01*
X82265000Y-33123590D01*
X82742276Y-34275835D01*
X83624165Y-35157724D01*
X84776410Y-35635000D01*
X86023590Y-35635000D01*
X87175835Y-35157724D01*
X88057724Y-34275835D01*
X88535000Y-33123590D01*
X88535000Y-31876410D01*
X88057724Y-30724165D01*
X87175835Y-29842276D01*
X86023590Y-29365000D01*
X84776410Y-29365000D01*
X83624165Y-29842276D01*
X82742276Y-30724165D01*
X82265000Y-31876410D01*
X67299865Y-31876410D01*
X66700318Y-31276863D01*
X66643969Y-31192531D01*
X66309882Y-30969301D01*
X66015276Y-30910700D01*
X66015271Y-30910700D01*
X65915800Y-30890914D01*
X65816329Y-30910700D01*
X38109372Y-30910700D01*
X38009900Y-30890914D01*
X37910428Y-30910700D01*
X37910424Y-30910700D01*
X37677015Y-30957128D01*
X37615817Y-30969301D01*
X37366062Y-31136182D01*
X37366060Y-31136184D01*
X37281731Y-31192531D01*
X37225384Y-31276860D01*
X35369762Y-33132482D01*
X35285431Y-33188831D01*
X35062201Y-33522919D01*
X35003600Y-33817525D01*
X35003600Y-33817529D01*
X34998979Y-33840759D01*
X35009494Y-23736447D01*
X35241373Y-23635000D01*
X106338231Y-23635000D01*
X107365630Y-24697827D01*
G36*
X73820798Y-41254053D02*
X73690000Y-41228036D01*
X73149378Y-41335572D01*
X72691060Y-41641811D01*
X72420000Y-42047481D01*
X72148939Y-41641810D01*
X71690621Y-41335572D01*
X71150000Y-41228036D01*
X70609378Y-41335572D01*
X70151060Y-41641811D01*
X69880000Y-42047481D01*
X69608939Y-41641810D01*
X69150621Y-41335572D01*
X68610000Y-41228036D01*
X68069378Y-41335572D01*
X67611060Y-41641811D01*
X67304822Y-42100129D01*
X67224430Y-42504288D01*
X67224430Y-43475713D01*
X67304822Y-43879872D01*
X67611061Y-44338190D01*
X68069379Y-44644428D01*
X68610000Y-44751964D01*
X68821783Y-44709838D01*
X70586344Y-46474400D01*
X65902756Y-46474400D01*
X55675677Y-36247322D01*
X55919418Y-36198839D01*
X56410625Y-35870625D01*
X56610000Y-35572239D01*
X56809375Y-35870625D01*
X57300582Y-36198839D01*
X57733744Y-36285000D01*
X58026256Y-36285000D01*
X58459418Y-36198839D01*
X58950625Y-35870625D01*
X59150000Y-35572239D01*
X59349375Y-35870625D01*
X59840582Y-36198839D01*
X60273744Y-36285000D01*
X60566256Y-36285000D01*
X60999418Y-36198839D01*
X61490625Y-35870625D01*
X61703843Y-35551522D01*
X61764817Y-35681358D01*
X62193076Y-36071645D01*
X62603110Y-36241476D01*
X62833000Y-36120155D01*
X62833000Y-34927000D01*
X63087000Y-34927000D01*
X63087000Y-36120155D01*
X63316890Y-36241476D01*
X63726924Y-36071645D01*
X64155183Y-35681358D01*
X64401486Y-35156892D01*
X64280819Y-34927000D01*
X63087000Y-34927000D01*
X62833000Y-34927000D01*
X62813000Y-34927000D01*
X62813000Y-34673000D01*
X62833000Y-34673000D01*
X62833000Y-33479845D01*
X63087000Y-33479845D01*
X63087000Y-34673000D01*
X64280819Y-34673000D01*
X64401486Y-34443108D01*
X64155183Y-33918642D01*
X63726924Y-33528355D01*
X63316890Y-33358524D01*
X63087000Y-33479845D01*
X62833000Y-33479845D01*
X62603110Y-33358524D01*
X62193076Y-33528355D01*
X61764817Y-33918642D01*
X61703843Y-34048478D01*
X61490625Y-33729375D01*
X60999418Y-33401161D01*
X60566256Y-33315000D01*
X60273744Y-33315000D01*
X59840582Y-33401161D01*
X59349375Y-33729375D01*
X59150000Y-34027761D01*
X58950625Y-33729375D01*
X58459418Y-33401161D01*
X58026256Y-33315000D01*
X57733744Y-33315000D01*
X57300582Y-33401161D01*
X56809375Y-33729375D01*
X56610000Y-34027761D01*
X56410625Y-33729375D01*
X56350000Y-33688867D01*
X56350000Y-33224176D01*
X56369787Y-33124700D01*
X56331198Y-32930700D01*
X65497445Y-32930700D01*
X73820798Y-41254053D01*
X73820798Y-41254053D01*
G37*
X73820798Y-41254053D02*
X73690000Y-41228036D01*
X73149378Y-41335572D01*
X72691060Y-41641811D01*
X72420000Y-42047481D01*
X72148939Y-41641810D01*
X71690621Y-41335572D01*
X71150000Y-41228036D01*
X70609378Y-41335572D01*
X70151060Y-41641811D01*
X69880000Y-42047481D01*
X69608939Y-41641810D01*
X69150621Y-41335572D01*
X68610000Y-41228036D01*
X68069378Y-41335572D01*
X67611060Y-41641811D01*
X67304822Y-42100129D01*
X67224430Y-42504288D01*
X67224430Y-43475713D01*
X67304822Y-43879872D01*
X67611061Y-44338190D01*
X68069379Y-44644428D01*
X68610000Y-44751964D01*
X68821783Y-44709838D01*
X70586344Y-46474400D01*
X65902756Y-46474400D01*
X55675677Y-36247322D01*
X55919418Y-36198839D01*
X56410625Y-35870625D01*
X56610000Y-35572239D01*
X56809375Y-35870625D01*
X57300582Y-36198839D01*
X57733744Y-36285000D01*
X58026256Y-36285000D01*
X58459418Y-36198839D01*
X58950625Y-35870625D01*
X59150000Y-35572239D01*
X59349375Y-35870625D01*
X59840582Y-36198839D01*
X60273744Y-36285000D01*
X60566256Y-36285000D01*
X60999418Y-36198839D01*
X61490625Y-35870625D01*
X61703843Y-35551522D01*
X61764817Y-35681358D01*
X62193076Y-36071645D01*
X62603110Y-36241476D01*
X62833000Y-36120155D01*
X62833000Y-34927000D01*
X63087000Y-34927000D01*
X63087000Y-36120155D01*
X63316890Y-36241476D01*
X63726924Y-36071645D01*
X64155183Y-35681358D01*
X64401486Y-35156892D01*
X64280819Y-34927000D01*
X63087000Y-34927000D01*
X62833000Y-34927000D01*
X62813000Y-34927000D01*
X62813000Y-34673000D01*
X62833000Y-34673000D01*
X62833000Y-33479845D01*
X63087000Y-33479845D01*
X63087000Y-34673000D01*
X64280819Y-34673000D01*
X64401486Y-34443108D01*
X64155183Y-33918642D01*
X63726924Y-33528355D01*
X63316890Y-33358524D01*
X63087000Y-33479845D01*
X62833000Y-33479845D01*
X62603110Y-33358524D01*
X62193076Y-33528355D01*
X61764817Y-33918642D01*
X61703843Y-34048478D01*
X61490625Y-33729375D01*
X60999418Y-33401161D01*
X60566256Y-33315000D01*
X60273744Y-33315000D01*
X59840582Y-33401161D01*
X59349375Y-33729375D01*
X59150000Y-34027761D01*
X58950625Y-33729375D01*
X58459418Y-33401161D01*
X58026256Y-33315000D01*
X57733744Y-33315000D01*
X57300582Y-33401161D01*
X56809375Y-33729375D01*
X56610000Y-34027761D01*
X56410625Y-33729375D01*
X56350000Y-33688867D01*
X56350000Y-33224176D01*
X56369787Y-33124700D01*
X56331198Y-32930700D01*
X65497445Y-32930700D01*
X73820798Y-41254053D01*
G36*
X37827000Y-34973000D02*
X37847000Y-34973000D01*
X37847000Y-35227000D01*
X37827000Y-35227000D01*
X37827000Y-36426250D01*
X37985750Y-36585000D01*
X38676310Y-36585000D01*
X38909699Y-36488327D01*
X39088327Y-36309698D01*
X39154904Y-36148967D01*
X39169375Y-36170625D01*
X39660582Y-36498839D01*
X40093744Y-36585000D01*
X40386256Y-36585000D01*
X40819418Y-36498839D01*
X41310625Y-36170625D01*
X41510000Y-35872239D01*
X41709375Y-36170625D01*
X41770001Y-36211134D01*
X41770001Y-36675825D01*
X41750214Y-36775300D01*
X41828602Y-37169382D01*
X41995482Y-37419137D01*
X41995485Y-37419140D01*
X42051832Y-37503469D01*
X42136161Y-37559816D01*
X42880001Y-38303656D01*
X42880000Y-41758363D01*
X42620000Y-42147481D01*
X42348939Y-41741810D01*
X41890621Y-41435572D01*
X41350000Y-41328036D01*
X40809378Y-41435572D01*
X40351060Y-41741811D01*
X40080000Y-42147481D01*
X39808939Y-41741810D01*
X39350621Y-41435572D01*
X38810000Y-41328036D01*
X38269378Y-41435572D01*
X37811060Y-41741811D01*
X37504822Y-42200129D01*
X37424430Y-42604288D01*
X37424430Y-42877375D01*
X37023600Y-42476545D01*
X37023600Y-36585000D01*
X37414250Y-36585000D01*
X37573000Y-36426250D01*
X37573000Y-35227000D01*
X37553000Y-35227000D01*
X37553000Y-34973000D01*
X37573000Y-34973000D01*
X37573000Y-34953000D01*
X37827000Y-34953000D01*
X37827000Y-34973000D01*
X37827000Y-34973000D01*
G37*
X37827000Y-34973000D02*
X37847000Y-34973000D01*
X37847000Y-35227000D01*
X37827000Y-35227000D01*
X37827000Y-36426250D01*
X37985750Y-36585000D01*
X38676310Y-36585000D01*
X38909699Y-36488327D01*
X39088327Y-36309698D01*
X39154904Y-36148967D01*
X39169375Y-36170625D01*
X39660582Y-36498839D01*
X40093744Y-36585000D01*
X40386256Y-36585000D01*
X40819418Y-36498839D01*
X41310625Y-36170625D01*
X41510000Y-35872239D01*
X41709375Y-36170625D01*
X41770001Y-36211134D01*
X41770001Y-36675825D01*
X41750214Y-36775300D01*
X41828602Y-37169382D01*
X41995482Y-37419137D01*
X41995485Y-37419140D01*
X42051832Y-37503469D01*
X42136161Y-37559816D01*
X42880001Y-38303656D01*
X42880000Y-41758363D01*
X42620000Y-42147481D01*
X42348939Y-41741810D01*
X41890621Y-41435572D01*
X41350000Y-41328036D01*
X40809378Y-41435572D01*
X40351060Y-41741811D01*
X40080000Y-42147481D01*
X39808939Y-41741810D01*
X39350621Y-41435572D01*
X38810000Y-41328036D01*
X38269378Y-41435572D01*
X37811060Y-41741811D01*
X37504822Y-42200129D01*
X37424430Y-42604288D01*
X37424430Y-42877375D01*
X37023600Y-42476545D01*
X37023600Y-36585000D01*
X37414250Y-36585000D01*
X37573000Y-36426250D01*
X37573000Y-35227000D01*
X37553000Y-35227000D01*
X37553000Y-34973000D01*
X37573000Y-34973000D01*
X37573000Y-34953000D01*
X37827000Y-34953000D01*
X37827000Y-34973000D01*
G04 #@! TD*
M02*
