G04 #@! TF.GenerationSoftware,KiCad,Pcbnew,(5.0.0)*
G04 #@! TF.CreationDate,2018-09-08T22:36:26+02:00*
G04 #@! TF.ProjectId,SN76849 Arduino nano shield,534E37363834392041726475696E6F20,20180905 0.7.06*
G04 #@! TF.SameCoordinates,Original*
G04 #@! TF.FileFunction,Copper,L2,Bot,Signal*
G04 #@! TF.FilePolarity,Positive*
%FSLAX46Y46*%
G04 Gerber Fmt 4.6, Leading zero omitted, Abs format (unit mm)*
G04 Created by KiCad (PCBNEW (5.0.0)) date 09/08/18 22:36:26*
%MOMM*%
%LPD*%
G01*
G04 APERTURE LIST*
G04 #@! TA.AperFunction,ComponentPad*
%ADD10C,1.800000*%
G04 #@! TD*
G04 #@! TA.AperFunction,ComponentPad*
%ADD11R,1.800000X1.800000*%
G04 #@! TD*
G04 #@! TA.AperFunction,ComponentPad*
%ADD12O,1.700000X1.700000*%
G04 #@! TD*
G04 #@! TA.AperFunction,ComponentPad*
%ADD13R,1.700000X1.700000*%
G04 #@! TD*
G04 #@! TA.AperFunction,ComponentPad*
%ADD14C,5.000000*%
G04 #@! TD*
G04 #@! TA.AperFunction,ComponentPad*
%ADD15R,3.500000X2.500000*%
G04 #@! TD*
G04 #@! TA.AperFunction,ComponentPad*
%ADD16O,1.750000X3.500000*%
G04 #@! TD*
G04 #@! TA.AperFunction,ComponentPad*
%ADD17C,1.998980*%
G04 #@! TD*
G04 #@! TA.AperFunction,ComponentPad*
%ADD18O,1.501140X2.199640*%
G04 #@! TD*
G04 #@! TA.AperFunction,ComponentPad*
%ADD19C,2.500000*%
G04 #@! TD*
G04 #@! TA.AperFunction,ComponentPad*
%ADD20R,2.500000X2.500000*%
G04 #@! TD*
G04 #@! TA.AperFunction,ComponentPad*
%ADD21R,2.000000X2.000000*%
G04 #@! TD*
G04 #@! TA.AperFunction,ComponentPad*
%ADD22C,2.000000*%
G04 #@! TD*
G04 #@! TA.AperFunction,Conductor*
%ADD23C,0.750000*%
G04 #@! TD*
G04 #@! TA.AperFunction,Conductor*
%ADD24C,0.254000*%
G04 #@! TD*
G04 APERTURE END LIST*
D10*
G04 #@! TO.P,D1,2*
G04 #@! TO.N,GND*
X77200000Y-65360000D03*
D11*
G04 #@! TO.P,D1,1*
G04 #@! TO.N,Net-(D1-Pad1)*
X77200000Y-67900000D03*
G04 #@! TD*
D12*
G04 #@! TO.P,J1,5*
G04 #@! TO.N,GND*
X62960000Y-34800000D03*
G04 #@! TO.P,J1,4*
G04 #@! TO.N,/VCC*
X60420000Y-34800000D03*
G04 #@! TO.P,J1,3*
G04 #@! TO.N,/SCL*
X57880000Y-34800000D03*
G04 #@! TO.P,J1,2*
G04 #@! TO.N,/SDA*
X55340000Y-34800000D03*
D13*
G04 #@! TO.P,J1,1*
G04 #@! TO.N,/~WE*
X52800000Y-34800000D03*
G04 #@! TD*
D12*
G04 #@! TO.P,J2,3*
G04 #@! TO.N,/Audio*
X76880000Y-34900000D03*
G04 #@! TO.P,J2,2*
X74340000Y-34900000D03*
D13*
G04 #@! TO.P,J2,1*
G04 #@! TO.N,GND*
X71800000Y-34900000D03*
G04 #@! TD*
D12*
G04 #@! TO.P,J3,4*
G04 #@! TO.N,/SDA*
X45320000Y-35100000D03*
G04 #@! TO.P,J3,3*
G04 #@! TO.N,/SCL*
X42780000Y-35100000D03*
G04 #@! TO.P,J3,2*
G04 #@! TO.N,/VCC*
X40240000Y-35100000D03*
D13*
G04 #@! TO.P,J3,1*
G04 #@! TO.N,GND*
X37700000Y-35100000D03*
G04 #@! TD*
D14*
G04 #@! TO.P,J6,1*
G04 #@! TO.N,Net-(J6-Pad1)*
X87950000Y-66800000D03*
G04 #@! TD*
G04 #@! TO.P,J7,1*
G04 #@! TO.N,Net-(J7-Pad1)*
X85400000Y-32500000D03*
G04 #@! TD*
D15*
G04 #@! TO.P,J8,1*
G04 #@! TO.N,GND*
X43800000Y-67796000D03*
D16*
G04 #@! TO.P,J8,2*
G04 #@! TO.N,Net-(J8-Pad2)*
X38800000Y-62790000D03*
G04 #@! TO.P,J8,3*
X48800000Y-62790000D03*
G04 #@! TO.P,J8,4*
X41300000Y-62790000D03*
G04 #@! TO.P,J8,5*
X46300000Y-62790000D03*
G04 #@! TD*
D17*
G04 #@! TO.P,R3,1*
G04 #@! TO.N,Net-(D1-Pad1)*
X70800000Y-69900000D03*
G04 #@! TO.P,R3,2*
G04 #@! TO.N,Net-(C1-Pad2)*
X70800000Y-62280000D03*
G04 #@! TD*
D18*
G04 #@! TO.P,U1,1*
G04 #@! TO.N,GND*
X38810000Y-50710000D03*
G04 #@! TO.P,U1,2*
X41350000Y-50710000D03*
G04 #@! TO.P,U1,3*
X43890000Y-50710000D03*
G04 #@! TO.P,U1,4*
G04 #@! TO.N,/P0*
X46430000Y-50710000D03*
G04 #@! TO.P,U1,5*
G04 #@! TO.N,/P1*
X48970000Y-50710000D03*
G04 #@! TO.P,U1,6*
G04 #@! TO.N,/P2*
X51510000Y-50710000D03*
G04 #@! TO.P,U1,7*
G04 #@! TO.N,/P3*
X54050000Y-50710000D03*
G04 #@! TO.P,U1,8*
G04 #@! TO.N,GND*
X56590000Y-50710000D03*
G04 #@! TO.P,U1,9*
G04 #@! TO.N,/P4*
X56590000Y-43090000D03*
G04 #@! TO.P,U1,10*
G04 #@! TO.N,/P5*
X54050000Y-43090000D03*
G04 #@! TO.P,U1,11*
G04 #@! TO.N,/P6*
X51510000Y-43090000D03*
G04 #@! TO.P,U1,12*
G04 #@! TO.N,/P7*
X48970000Y-43090000D03*
G04 #@! TO.P,U1,13*
G04 #@! TO.N,Net-(U1-Pad13)*
X46430000Y-43090000D03*
G04 #@! TO.P,U1,14*
G04 #@! TO.N,/SCL*
X43890000Y-43090000D03*
G04 #@! TO.P,U1,15*
G04 #@! TO.N,/SDA*
X41350000Y-43090000D03*
G04 #@! TO.P,U1,16*
G04 #@! TO.N,/VCC*
X38810000Y-43090000D03*
G04 #@! TD*
G04 #@! TO.P,U3,16*
G04 #@! TO.N,/VCC*
X68610000Y-42990000D03*
G04 #@! TO.P,U3,15*
G04 #@! TO.N,/P4*
X71150000Y-42990000D03*
G04 #@! TO.P,U3,14*
G04 #@! TO.N,/Clock*
X73690000Y-42990000D03*
G04 #@! TO.P,U3,13*
G04 #@! TO.N,/P3*
X76230000Y-42990000D03*
G04 #@! TO.P,U3,12*
G04 #@! TO.N,/P2*
X78770000Y-42990000D03*
G04 #@! TO.P,U3,11*
G04 #@! TO.N,/P1*
X81310000Y-42990000D03*
G04 #@! TO.P,U3,10*
G04 #@! TO.N,/P0*
X83850000Y-42990000D03*
G04 #@! TO.P,U3,9*
G04 #@! TO.N,Net-(U3-Pad9)*
X86390000Y-42990000D03*
G04 #@! TO.P,U3,8*
G04 #@! TO.N,GND*
X86390000Y-50610000D03*
G04 #@! TO.P,U3,7*
G04 #@! TO.N,/Audio*
X83850000Y-50610000D03*
G04 #@! TO.P,U3,6*
G04 #@! TO.N,GND*
X81310000Y-50610000D03*
G04 #@! TO.P,U3,5*
G04 #@! TO.N,/~WE*
X78770000Y-50610000D03*
G04 #@! TO.P,U3,4*
G04 #@! TO.N,Net-(U3-Pad4)*
X76230000Y-50610000D03*
G04 #@! TO.P,U3,3*
G04 #@! TO.N,/P7*
X73690000Y-50610000D03*
G04 #@! TO.P,U3,2*
G04 #@! TO.N,/P6*
X71150000Y-50610000D03*
G04 #@! TO.P,U3,1*
G04 #@! TO.N,/P5*
X68610000Y-50610000D03*
G04 #@! TD*
D19*
G04 #@! TO.P,X1,7*
G04 #@! TO.N,GND*
X102000000Y-29360000D03*
G04 #@! TO.P,X1,8*
G04 #@! TO.N,/Clock*
X94380000Y-29360000D03*
G04 #@! TO.P,X1,14*
G04 #@! TO.N,/VCC*
X94380000Y-44600000D03*
D20*
G04 #@! TO.P,X1,1*
G04 #@! TO.N,Net-(X1-Pad1)*
X102000000Y-44600000D03*
G04 #@! TD*
D21*
G04 #@! TO.P,C1,1*
G04 #@! TO.N,/Audio*
X99000000Y-56800000D03*
D22*
G04 #@! TO.P,C1,2*
G04 #@! TO.N,Net-(C1-Pad2)*
X99000000Y-60300000D03*
G04 #@! TD*
D17*
G04 #@! TO.P,RV1,1*
G04 #@! TO.N,Net-(RV1-Pad1)*
X57800640Y-67999360D03*
G04 #@! TO.P,RV1,2*
G04 #@! TO.N,Net-(C1-Pad2)*
X60300000Y-65500000D03*
G04 #@! TO.P,RV1,3*
G04 #@! TO.N,Net-(J8-Pad2)*
X62799360Y-67999360D03*
G04 #@! TD*
D23*
G04 #@! TO.N,/Audio*
X83850000Y-50610000D02*
X83850000Y-48684800D01*
X83850000Y-48684800D02*
X87970000Y-44564800D01*
X87970000Y-44564800D02*
X87970000Y-41978900D01*
X87970000Y-41978900D02*
X80891100Y-34900000D01*
X80891100Y-34900000D02*
X76880000Y-34900000D01*
G04 #@! TO.N,GND*
X89531700Y-41828300D02*
X80918200Y-33214900D01*
X80918200Y-33214900D02*
X73485100Y-33214900D01*
X73485100Y-33214900D02*
X71800000Y-34900000D01*
X86390000Y-50610000D02*
X86390000Y-47842500D01*
X86390000Y-47842500D02*
X89531700Y-44700800D01*
X89531700Y-44700800D02*
X89531700Y-41828400D01*
X89531700Y-41828400D02*
X89531700Y-41828300D01*
X102000000Y-29360000D02*
X89531700Y-41828300D01*
X62960000Y-34800000D02*
X64635300Y-34800000D01*
X71800000Y-34900000D02*
X64735300Y-34900000D01*
X64735300Y-34900000D02*
X64635300Y-34800000D01*
X37700000Y-35100000D02*
X37700000Y-36775300D01*
X38810000Y-50710000D02*
X37234100Y-50710000D01*
X37234100Y-50710000D02*
X37234100Y-37241200D01*
X37234100Y-37241200D02*
X37700000Y-36775300D01*
X43800000Y-67796000D02*
X43800000Y-65720700D01*
X43890000Y-50710000D02*
X43890000Y-65630700D01*
X43890000Y-65630700D02*
X43800000Y-65720700D01*
X81310000Y-52535200D02*
X81310000Y-61250000D01*
X81310000Y-61250000D02*
X77200000Y-65360000D01*
X81310000Y-52235100D02*
X81310000Y-52535200D01*
X81310000Y-50610000D02*
X81310000Y-52235100D01*
X86390000Y-50610000D02*
X86390000Y-52535200D01*
X81310000Y-52535200D02*
X86390000Y-52535200D01*
G04 #@! TO.N,/VCC*
X40240000Y-35100000D02*
X43429800Y-31910200D01*
X43429800Y-31910200D02*
X57530200Y-31910200D01*
X57530200Y-31910200D02*
X60420000Y-34800000D01*
X38810000Y-41164800D02*
X40240000Y-39734800D01*
X40240000Y-39734800D02*
X40240000Y-35100000D01*
X60420000Y-34800000D02*
X60420000Y-36475300D01*
X68610000Y-42990000D02*
X67034100Y-42990000D01*
X67034100Y-42990000D02*
X60519400Y-36475300D01*
X60519400Y-36475300D02*
X60420000Y-36475300D01*
X38810000Y-43090000D02*
X38810000Y-41164800D01*
G04 #@! TO.N,/SCL*
X42780000Y-35100000D02*
X44762400Y-33117600D01*
X44762400Y-33117600D02*
X56197600Y-33117600D01*
X56197600Y-33117600D02*
X57880000Y-34800000D01*
G04 #@! TO.N,/SDA*
X41350000Y-43090000D02*
X41350000Y-41164800D01*
X41350000Y-41164800D02*
X45320000Y-37194800D01*
X45320000Y-37194800D02*
X45320000Y-35100000D01*
G04 #@! TO.N,/P0*
X83850000Y-42990000D02*
X83850000Y-44915200D01*
X83850000Y-44915200D02*
X80164700Y-48600500D01*
X80164700Y-48600500D02*
X67610600Y-48600500D01*
X67610600Y-48600500D02*
X62359600Y-53851500D01*
X62359600Y-53851500D02*
X49498900Y-53851500D01*
X49498900Y-53851500D02*
X46430000Y-50782600D01*
X46430000Y-50782600D02*
X46430000Y-50710000D01*
G04 #@! TO.N,/P2*
X78770000Y-44915200D02*
X76369300Y-47315900D01*
X76369300Y-47315900D02*
X63684800Y-47315900D01*
X63684800Y-47315900D02*
X58362500Y-52638200D01*
X58362500Y-52638200D02*
X53374300Y-52638200D01*
X53374300Y-52638200D02*
X51510000Y-50773900D01*
X51510000Y-50773900D02*
X51510000Y-50710000D01*
X78770000Y-42990000D02*
X78770000Y-44915200D01*
G04 #@! TO.N,/P3*
X76230000Y-44915200D02*
X75029700Y-46115500D01*
X75029700Y-46115500D02*
X56719300Y-46115500D01*
X56719300Y-46115500D02*
X54050000Y-48784800D01*
X76230000Y-42990000D02*
X76230000Y-44915200D01*
X54050000Y-50710000D02*
X54050000Y-48784800D01*
G04 #@! TO.N,/P4*
X56590000Y-43090000D02*
X58165900Y-43090000D01*
X71150000Y-42990000D02*
X71150000Y-44915200D01*
X71150000Y-44915200D02*
X59991100Y-44915200D01*
X59991100Y-44915200D02*
X58165900Y-43090000D01*
G04 #@! TD*
D24*
G04 #@! TO.N,GND*
G36*
X107365630Y-24697827D02*
X107409780Y-45536623D01*
X107323204Y-74481896D01*
X106589944Y-74970736D01*
X106317445Y-75115000D01*
X88427612Y-75115000D01*
X88303864Y-75139615D01*
X38039113Y-75041154D01*
X35026731Y-71057036D01*
X35007960Y-68081750D01*
X41415000Y-68081750D01*
X41415000Y-69172310D01*
X41511673Y-69405699D01*
X41690302Y-69584327D01*
X41923691Y-69681000D01*
X43514250Y-69681000D01*
X43673000Y-69522250D01*
X43673000Y-67923000D01*
X43927000Y-67923000D01*
X43927000Y-69522250D01*
X44085750Y-69681000D01*
X45676309Y-69681000D01*
X45909698Y-69584327D01*
X46088327Y-69405699D01*
X46185000Y-69172310D01*
X46185000Y-68081750D01*
X46026250Y-67923000D01*
X43927000Y-67923000D01*
X43673000Y-67923000D01*
X41573750Y-67923000D01*
X41415000Y-68081750D01*
X35007960Y-68081750D01*
X35005390Y-67674240D01*
X56166150Y-67674240D01*
X56166150Y-68324480D01*
X56414986Y-68925224D01*
X56874776Y-69385014D01*
X57475520Y-69633850D01*
X58125760Y-69633850D01*
X58726504Y-69385014D01*
X59186294Y-68925224D01*
X59435130Y-68324480D01*
X59435130Y-67674240D01*
X61164870Y-67674240D01*
X61164870Y-68324480D01*
X61413706Y-68925224D01*
X61873496Y-69385014D01*
X62474240Y-69633850D01*
X63124480Y-69633850D01*
X63266846Y-69574880D01*
X69165510Y-69574880D01*
X69165510Y-70225120D01*
X69414346Y-70825864D01*
X69874136Y-71285654D01*
X70474880Y-71534490D01*
X71125120Y-71534490D01*
X71725864Y-71285654D01*
X72185654Y-70825864D01*
X72434490Y-70225120D01*
X72434490Y-69574880D01*
X72185654Y-68974136D01*
X71725864Y-68514346D01*
X71125120Y-68265510D01*
X70474880Y-68265510D01*
X69874136Y-68514346D01*
X69414346Y-68974136D01*
X69165510Y-69574880D01*
X63266846Y-69574880D01*
X63725224Y-69385014D01*
X64185014Y-68925224D01*
X64433850Y-68324480D01*
X64433850Y-67674240D01*
X64185014Y-67073496D01*
X64111518Y-67000000D01*
X75652560Y-67000000D01*
X75652560Y-68800000D01*
X75701843Y-69047765D01*
X75842191Y-69257809D01*
X76052235Y-69398157D01*
X76300000Y-69447440D01*
X78100000Y-69447440D01*
X78347765Y-69398157D01*
X78557809Y-69257809D01*
X78698157Y-69047765D01*
X78747440Y-68800000D01*
X78747440Y-67000000D01*
X78698157Y-66752235D01*
X78557809Y-66542191D01*
X78359886Y-66409942D01*
X78394718Y-66375110D01*
X78280161Y-66260553D01*
X78529928Y-66176410D01*
X84815000Y-66176410D01*
X84815000Y-67423590D01*
X85292276Y-68575835D01*
X86174165Y-69457724D01*
X87326410Y-69935000D01*
X88573590Y-69935000D01*
X89725835Y-69457724D01*
X90607724Y-68575835D01*
X91085000Y-67423590D01*
X91085000Y-66176410D01*
X90607724Y-65024165D01*
X89725835Y-64142276D01*
X88573590Y-63665000D01*
X87326410Y-63665000D01*
X86174165Y-64142276D01*
X85292276Y-65024165D01*
X84815000Y-66176410D01*
X78529928Y-66176410D01*
X78536643Y-66174148D01*
X78746458Y-65600664D01*
X78720839Y-64990540D01*
X78536643Y-64545852D01*
X78280159Y-64459446D01*
X77379605Y-65360000D01*
X77393748Y-65374143D01*
X77214143Y-65553748D01*
X77200000Y-65539605D01*
X77185858Y-65553748D01*
X77006253Y-65374143D01*
X77020395Y-65360000D01*
X76119841Y-64459446D01*
X75863357Y-64545852D01*
X75653542Y-65119336D01*
X75679161Y-65729460D01*
X75863357Y-66174148D01*
X76119839Y-66260553D01*
X76005282Y-66375110D01*
X76040114Y-66409942D01*
X75842191Y-66542191D01*
X75701843Y-66752235D01*
X75652560Y-67000000D01*
X64111518Y-67000000D01*
X63725224Y-66613706D01*
X63124480Y-66364870D01*
X62474240Y-66364870D01*
X61873496Y-66613706D01*
X61413706Y-67073496D01*
X61164870Y-67674240D01*
X59435130Y-67674240D01*
X59186294Y-67073496D01*
X58726504Y-66613706D01*
X58125760Y-66364870D01*
X57475520Y-66364870D01*
X56874776Y-66613706D01*
X56414986Y-67073496D01*
X56166150Y-67674240D01*
X35005390Y-67674240D01*
X34997474Y-66419690D01*
X41415000Y-66419690D01*
X41415000Y-67510250D01*
X41573750Y-67669000D01*
X43673000Y-67669000D01*
X43673000Y-66069750D01*
X43927000Y-66069750D01*
X43927000Y-67669000D01*
X46026250Y-67669000D01*
X46185000Y-67510250D01*
X46185000Y-66419690D01*
X46088327Y-66186301D01*
X45909698Y-66007673D01*
X45676309Y-65911000D01*
X44085750Y-65911000D01*
X43927000Y-66069750D01*
X43673000Y-66069750D01*
X43514250Y-65911000D01*
X41923691Y-65911000D01*
X41690302Y-66007673D01*
X41511673Y-66186301D01*
X41415000Y-66419690D01*
X34997474Y-66419690D01*
X34969665Y-62011997D01*
X34969920Y-61766282D01*
X37290000Y-61766282D01*
X37290000Y-63813717D01*
X37377612Y-64254172D01*
X37711351Y-64753649D01*
X38210827Y-65087388D01*
X38800000Y-65204582D01*
X39389172Y-65087388D01*
X39888649Y-64753649D01*
X40050000Y-64512170D01*
X40211351Y-64753649D01*
X40710827Y-65087388D01*
X41300000Y-65204582D01*
X41889172Y-65087388D01*
X42388649Y-64753649D01*
X42722388Y-64254173D01*
X42810000Y-63813718D01*
X42810000Y-61766282D01*
X44790000Y-61766282D01*
X44790000Y-63813717D01*
X44877612Y-64254172D01*
X45211351Y-64753649D01*
X45710827Y-65087388D01*
X46300000Y-65204582D01*
X46889172Y-65087388D01*
X47388649Y-64753649D01*
X47550000Y-64512170D01*
X47711351Y-64753649D01*
X48210827Y-65087388D01*
X48800000Y-65204582D01*
X48949321Y-65174880D01*
X58665510Y-65174880D01*
X58665510Y-65825120D01*
X58914346Y-66425864D01*
X59374136Y-66885654D01*
X59974880Y-67134490D01*
X60625120Y-67134490D01*
X61225864Y-66885654D01*
X61685654Y-66425864D01*
X61934490Y-65825120D01*
X61934490Y-65174880D01*
X61685654Y-64574136D01*
X61391359Y-64279841D01*
X76299446Y-64279841D01*
X77200000Y-65180395D01*
X78100554Y-64279841D01*
X78014148Y-64023357D01*
X77440664Y-63813542D01*
X76830540Y-63839161D01*
X76385852Y-64023357D01*
X76299446Y-64279841D01*
X61391359Y-64279841D01*
X61225864Y-64114346D01*
X60625120Y-63865510D01*
X59974880Y-63865510D01*
X59374136Y-64114346D01*
X58914346Y-64574136D01*
X58665510Y-65174880D01*
X48949321Y-65174880D01*
X49389172Y-65087388D01*
X49888649Y-64753649D01*
X50222388Y-64254173D01*
X50310000Y-63813718D01*
X50310000Y-61954880D01*
X69165510Y-61954880D01*
X69165510Y-62605120D01*
X69414346Y-63205864D01*
X69874136Y-63665654D01*
X70474880Y-63914490D01*
X71125120Y-63914490D01*
X71725864Y-63665654D01*
X72185654Y-63205864D01*
X72434490Y-62605120D01*
X72434490Y-61954880D01*
X72185654Y-61354136D01*
X71725864Y-60894346D01*
X71125120Y-60645510D01*
X70474880Y-60645510D01*
X69874136Y-60894346D01*
X69414346Y-61354136D01*
X69165510Y-61954880D01*
X50310000Y-61954880D01*
X50310000Y-61766282D01*
X50222388Y-61325827D01*
X49888649Y-60826351D01*
X49389173Y-60492612D01*
X48800000Y-60375418D01*
X48210828Y-60492612D01*
X47711352Y-60826351D01*
X47550000Y-61067831D01*
X47388649Y-60826351D01*
X46889173Y-60492612D01*
X46300000Y-60375418D01*
X45710828Y-60492612D01*
X45211352Y-60826351D01*
X44877613Y-61325827D01*
X44790000Y-61766282D01*
X42810000Y-61766282D01*
X42722388Y-61325827D01*
X42388649Y-60826351D01*
X41889173Y-60492612D01*
X41300000Y-60375418D01*
X40710828Y-60492612D01*
X40211352Y-60826351D01*
X40050000Y-61067831D01*
X39888649Y-60826351D01*
X39389173Y-60492612D01*
X38800000Y-60375418D01*
X38210828Y-60492612D01*
X37711352Y-60826351D01*
X37377613Y-61325827D01*
X37290000Y-61766282D01*
X34969920Y-61766282D01*
X34971783Y-59974778D01*
X97365000Y-59974778D01*
X97365000Y-60625222D01*
X97613914Y-61226153D01*
X98073847Y-61686086D01*
X98674778Y-61935000D01*
X99325222Y-61935000D01*
X99926153Y-61686086D01*
X100386086Y-61226153D01*
X100635000Y-60625222D01*
X100635000Y-59974778D01*
X100386086Y-59373847D01*
X99926153Y-58913914D01*
X99325222Y-58665000D01*
X98674778Y-58665000D01*
X98073847Y-58913914D01*
X97613914Y-59373847D01*
X97365000Y-59974778D01*
X34971783Y-59974778D01*
X34976127Y-55800000D01*
X97352560Y-55800000D01*
X97352560Y-57800000D01*
X97401843Y-58047765D01*
X97542191Y-58257809D01*
X97752235Y-58398157D01*
X98000000Y-58447440D01*
X100000000Y-58447440D01*
X100247765Y-58398157D01*
X100457809Y-58257809D01*
X100598157Y-58047765D01*
X100647440Y-57800000D01*
X100647440Y-55800000D01*
X100598157Y-55552235D01*
X100457809Y-55342191D01*
X100247765Y-55201843D01*
X100000000Y-55152560D01*
X98000000Y-55152560D01*
X97752235Y-55201843D01*
X97542191Y-55342191D01*
X97401843Y-55552235D01*
X97352560Y-55800000D01*
X34976127Y-55800000D01*
X34981292Y-50837000D01*
X37424430Y-50837000D01*
X37424430Y-51186250D01*
X37578501Y-51706817D01*
X37920056Y-52128798D01*
X38397097Y-52387950D01*
X38468725Y-52402133D01*
X38683000Y-52279479D01*
X38683000Y-50837000D01*
X38937000Y-50837000D01*
X38937000Y-52279479D01*
X39151275Y-52402133D01*
X39222903Y-52387950D01*
X39699944Y-52128798D01*
X40041499Y-51706817D01*
X40080000Y-51576732D01*
X40118501Y-51706817D01*
X40460056Y-52128798D01*
X40937097Y-52387950D01*
X41008725Y-52402133D01*
X41223000Y-52279479D01*
X41223000Y-50837000D01*
X41477000Y-50837000D01*
X41477000Y-52279479D01*
X41691275Y-52402133D01*
X41762903Y-52387950D01*
X42239944Y-52128798D01*
X42581499Y-51706817D01*
X42620000Y-51576732D01*
X42658501Y-51706817D01*
X43000056Y-52128798D01*
X43477097Y-52387950D01*
X43548725Y-52402133D01*
X43763000Y-52279479D01*
X43763000Y-50837000D01*
X41477000Y-50837000D01*
X41223000Y-50837000D01*
X38937000Y-50837000D01*
X38683000Y-50837000D01*
X37424430Y-50837000D01*
X34981292Y-50837000D01*
X34981919Y-50233750D01*
X37424430Y-50233750D01*
X37424430Y-50583000D01*
X38683000Y-50583000D01*
X38683000Y-49140521D01*
X38937000Y-49140521D01*
X38937000Y-50583000D01*
X41223000Y-50583000D01*
X41223000Y-49140521D01*
X41477000Y-49140521D01*
X41477000Y-50583000D01*
X43763000Y-50583000D01*
X43763000Y-49140521D01*
X43548725Y-49017867D01*
X43477097Y-49032050D01*
X43000056Y-49291202D01*
X42658501Y-49713183D01*
X42620000Y-49843268D01*
X42581499Y-49713183D01*
X42239944Y-49291202D01*
X41762903Y-49032050D01*
X41691275Y-49017867D01*
X41477000Y-49140521D01*
X41223000Y-49140521D01*
X41008725Y-49017867D01*
X40937097Y-49032050D01*
X40460056Y-49291202D01*
X40118501Y-49713183D01*
X40080000Y-49843268D01*
X40041499Y-49713183D01*
X39699944Y-49291202D01*
X39222903Y-49032050D01*
X39151275Y-49017867D01*
X38937000Y-49140521D01*
X38683000Y-49140521D01*
X38468725Y-49017867D01*
X38397097Y-49032050D01*
X37920056Y-49291202D01*
X37578501Y-49713183D01*
X37424430Y-50233750D01*
X34981919Y-50233750D01*
X34989859Y-42604288D01*
X37424430Y-42604288D01*
X37424430Y-43575713D01*
X37504822Y-43979872D01*
X37811061Y-44438190D01*
X38269379Y-44744428D01*
X38810000Y-44851964D01*
X39350622Y-44744428D01*
X39808940Y-44438190D01*
X40080000Y-44032520D01*
X40351061Y-44438190D01*
X40809379Y-44744428D01*
X41350000Y-44851964D01*
X41890622Y-44744428D01*
X42348940Y-44438190D01*
X42620000Y-44032520D01*
X42891061Y-44438190D01*
X43349379Y-44744428D01*
X43890000Y-44851964D01*
X44430622Y-44744428D01*
X44888940Y-44438190D01*
X45160000Y-44032520D01*
X45431061Y-44438190D01*
X45889379Y-44744428D01*
X46430000Y-44851964D01*
X46970622Y-44744428D01*
X47428940Y-44438190D01*
X47700000Y-44032520D01*
X47971061Y-44438190D01*
X48429379Y-44744428D01*
X48970000Y-44851964D01*
X49510622Y-44744428D01*
X49968940Y-44438190D01*
X50240000Y-44032520D01*
X50511061Y-44438190D01*
X50969379Y-44744428D01*
X51510000Y-44851964D01*
X52050622Y-44744428D01*
X52508940Y-44438190D01*
X52780000Y-44032520D01*
X53051061Y-44438190D01*
X53509379Y-44744428D01*
X54050000Y-44851964D01*
X54590622Y-44744428D01*
X55048940Y-44438190D01*
X55320000Y-44032520D01*
X55591061Y-44438190D01*
X56049379Y-44744428D01*
X56590000Y-44851964D01*
X57130622Y-44744428D01*
X57588940Y-44438190D01*
X57787928Y-44140383D01*
X58753044Y-45105500D01*
X56818770Y-45105500D01*
X56719299Y-45085714D01*
X56619828Y-45105500D01*
X56619824Y-45105500D01*
X56325218Y-45164101D01*
X55991131Y-45387331D01*
X55934782Y-45471663D01*
X53406161Y-48000284D01*
X53321832Y-48056631D01*
X53265485Y-48140960D01*
X53265482Y-48140963D01*
X53098602Y-48390718D01*
X53020214Y-48784800D01*
X53040001Y-48884275D01*
X53040001Y-49378362D01*
X52780000Y-49767481D01*
X52508939Y-49361810D01*
X52050621Y-49055572D01*
X51510000Y-48948036D01*
X50969378Y-49055572D01*
X50511060Y-49361811D01*
X50240000Y-49767481D01*
X49968939Y-49361810D01*
X49510621Y-49055572D01*
X48970000Y-48948036D01*
X48429378Y-49055572D01*
X47971060Y-49361811D01*
X47700000Y-49767481D01*
X47428939Y-49361810D01*
X46970621Y-49055572D01*
X46430000Y-48948036D01*
X45889378Y-49055572D01*
X45431060Y-49361811D01*
X45144455Y-49790746D01*
X45121499Y-49713183D01*
X44779944Y-49291202D01*
X44302903Y-49032050D01*
X44231275Y-49017867D01*
X44017000Y-49140521D01*
X44017000Y-50583000D01*
X44037000Y-50583000D01*
X44037000Y-50837000D01*
X44017000Y-50837000D01*
X44017000Y-52279479D01*
X44231275Y-52402133D01*
X44302903Y-52387950D01*
X44779944Y-52128798D01*
X45121499Y-51706817D01*
X45144455Y-51629255D01*
X45431061Y-52058190D01*
X45889379Y-52364428D01*
X46430000Y-52471964D01*
X46647705Y-52428660D01*
X48714384Y-54495340D01*
X48770731Y-54579669D01*
X48855060Y-54636016D01*
X48855062Y-54636018D01*
X49030005Y-54752911D01*
X49104818Y-54802899D01*
X49399424Y-54861500D01*
X49399428Y-54861500D01*
X49498899Y-54881286D01*
X49598370Y-54861500D01*
X62260129Y-54861500D01*
X62359600Y-54881286D01*
X62459071Y-54861500D01*
X62459076Y-54861500D01*
X62753682Y-54802899D01*
X63087769Y-54579669D01*
X63144118Y-54495337D01*
X67224430Y-50415025D01*
X67224430Y-51095713D01*
X67304822Y-51499872D01*
X67611061Y-51958190D01*
X68069379Y-52264428D01*
X68610000Y-52371964D01*
X69150622Y-52264428D01*
X69608940Y-51958190D01*
X69880000Y-51552520D01*
X70151061Y-51958190D01*
X70609379Y-52264428D01*
X71150000Y-52371964D01*
X71690622Y-52264428D01*
X72148940Y-51958190D01*
X72420000Y-51552520D01*
X72691061Y-51958190D01*
X73149379Y-52264428D01*
X73690000Y-52371964D01*
X74230622Y-52264428D01*
X74688940Y-51958190D01*
X74960000Y-51552520D01*
X75231061Y-51958190D01*
X75689379Y-52264428D01*
X76230000Y-52371964D01*
X76770622Y-52264428D01*
X77228940Y-51958190D01*
X77500000Y-51552520D01*
X77771061Y-51958190D01*
X78229379Y-52264428D01*
X78770000Y-52371964D01*
X79310622Y-52264428D01*
X79768940Y-51958190D01*
X80055545Y-51529255D01*
X80078501Y-51606817D01*
X80420056Y-52028798D01*
X80897097Y-52287950D01*
X80968725Y-52302133D01*
X81183000Y-52179479D01*
X81183000Y-50737000D01*
X81163000Y-50737000D01*
X81163000Y-50483000D01*
X81183000Y-50483000D01*
X81183000Y-50463000D01*
X81437000Y-50463000D01*
X81437000Y-50483000D01*
X81457000Y-50483000D01*
X81457000Y-50737000D01*
X81437000Y-50737000D01*
X81437000Y-52179479D01*
X81651275Y-52302133D01*
X81722903Y-52287950D01*
X82199944Y-52028798D01*
X82541499Y-51606817D01*
X82564455Y-51529255D01*
X82851061Y-51958190D01*
X83309379Y-52264428D01*
X83850000Y-52371964D01*
X84390622Y-52264428D01*
X84848940Y-51958190D01*
X85135545Y-51529255D01*
X85158501Y-51606817D01*
X85500056Y-52028798D01*
X85977097Y-52287950D01*
X86048725Y-52302133D01*
X86263000Y-52179479D01*
X86263000Y-50737000D01*
X86517000Y-50737000D01*
X86517000Y-52179479D01*
X86731275Y-52302133D01*
X86802903Y-52287950D01*
X87279944Y-52028798D01*
X87621499Y-51606817D01*
X87775570Y-51086250D01*
X87775570Y-50737000D01*
X86517000Y-50737000D01*
X86263000Y-50737000D01*
X86243000Y-50737000D01*
X86243000Y-50483000D01*
X86263000Y-50483000D01*
X86263000Y-49040521D01*
X86517000Y-49040521D01*
X86517000Y-50483000D01*
X87775570Y-50483000D01*
X87775570Y-50133750D01*
X87621499Y-49613183D01*
X87279944Y-49191202D01*
X86802903Y-48932050D01*
X86731275Y-48917867D01*
X86517000Y-49040521D01*
X86263000Y-49040521D01*
X86048725Y-48917867D01*
X85977097Y-48932050D01*
X85500056Y-49191202D01*
X85158501Y-49613183D01*
X85135545Y-49690745D01*
X84860000Y-49278364D01*
X84860000Y-49103155D01*
X88613841Y-45349315D01*
X88698169Y-45292969D01*
X88754516Y-45208640D01*
X88754518Y-45208638D01*
X88884119Y-45014676D01*
X88921399Y-44958882D01*
X88980000Y-44664276D01*
X88980000Y-44664271D01*
X88999786Y-44564800D01*
X88980000Y-44465329D01*
X88980000Y-44225050D01*
X92495000Y-44225050D01*
X92495000Y-44974950D01*
X92781974Y-45667767D01*
X93312233Y-46198026D01*
X94005050Y-46485000D01*
X94754950Y-46485000D01*
X95447767Y-46198026D01*
X95978026Y-45667767D01*
X96265000Y-44974950D01*
X96265000Y-44225050D01*
X95978026Y-43532233D01*
X95795793Y-43350000D01*
X100102560Y-43350000D01*
X100102560Y-45850000D01*
X100151843Y-46097765D01*
X100292191Y-46307809D01*
X100502235Y-46448157D01*
X100750000Y-46497440D01*
X103250000Y-46497440D01*
X103497765Y-46448157D01*
X103707809Y-46307809D01*
X103848157Y-46097765D01*
X103897440Y-45850000D01*
X103897440Y-43350000D01*
X103848157Y-43102235D01*
X103707809Y-42892191D01*
X103497765Y-42751843D01*
X103250000Y-42702560D01*
X100750000Y-42702560D01*
X100502235Y-42751843D01*
X100292191Y-42892191D01*
X100151843Y-43102235D01*
X100102560Y-43350000D01*
X95795793Y-43350000D01*
X95447767Y-43001974D01*
X94754950Y-42715000D01*
X94005050Y-42715000D01*
X93312233Y-43001974D01*
X92781974Y-43532233D01*
X92495000Y-44225050D01*
X88980000Y-44225050D01*
X88980000Y-42078370D01*
X88999786Y-41978899D01*
X88980000Y-41879428D01*
X88980000Y-41879424D01*
X88921399Y-41584818D01*
X88698169Y-41250731D01*
X88613837Y-41194382D01*
X81675618Y-34256163D01*
X81619269Y-34171831D01*
X81285182Y-33948601D01*
X80990576Y-33890000D01*
X80990571Y-33890000D01*
X80891100Y-33870214D01*
X80791629Y-33890000D01*
X77991133Y-33890000D01*
X77950625Y-33829375D01*
X77459418Y-33501161D01*
X77026256Y-33415000D01*
X76733744Y-33415000D01*
X76300582Y-33501161D01*
X75809375Y-33829375D01*
X75610000Y-34127761D01*
X75410625Y-33829375D01*
X74919418Y-33501161D01*
X74486256Y-33415000D01*
X74193744Y-33415000D01*
X73760582Y-33501161D01*
X73269375Y-33829375D01*
X73254904Y-33851033D01*
X73188327Y-33690302D01*
X73009699Y-33511673D01*
X72776310Y-33415000D01*
X72085750Y-33415000D01*
X71927000Y-33573750D01*
X71927000Y-34773000D01*
X71947000Y-34773000D01*
X71947000Y-35027000D01*
X71927000Y-35027000D01*
X71927000Y-36226250D01*
X72085750Y-36385000D01*
X72776310Y-36385000D01*
X73009699Y-36288327D01*
X73188327Y-36109698D01*
X73254904Y-35948967D01*
X73269375Y-35970625D01*
X73760582Y-36298839D01*
X74193744Y-36385000D01*
X74486256Y-36385000D01*
X74919418Y-36298839D01*
X75410625Y-35970625D01*
X75610000Y-35672239D01*
X75809375Y-35970625D01*
X76300582Y-36298839D01*
X76733744Y-36385000D01*
X77026256Y-36385000D01*
X77459418Y-36298839D01*
X77950625Y-35970625D01*
X77991133Y-35910000D01*
X80472745Y-35910000D01*
X85890198Y-41327453D01*
X85849378Y-41335572D01*
X85391060Y-41641811D01*
X85120000Y-42047481D01*
X84848939Y-41641810D01*
X84390621Y-41335572D01*
X83850000Y-41228036D01*
X83309378Y-41335572D01*
X82851060Y-41641811D01*
X82580000Y-42047481D01*
X82308939Y-41641810D01*
X81850621Y-41335572D01*
X81310000Y-41228036D01*
X80769378Y-41335572D01*
X80311060Y-41641811D01*
X80040000Y-42047481D01*
X79768939Y-41641810D01*
X79310621Y-41335572D01*
X78770000Y-41228036D01*
X78229378Y-41335572D01*
X77771060Y-41641811D01*
X77500000Y-42047481D01*
X77228939Y-41641810D01*
X76770621Y-41335572D01*
X76230000Y-41228036D01*
X75689378Y-41335572D01*
X75231060Y-41641811D01*
X74960000Y-42047481D01*
X74688939Y-41641810D01*
X74230621Y-41335572D01*
X73690000Y-41228036D01*
X73149378Y-41335572D01*
X72691060Y-41641811D01*
X72420000Y-42047481D01*
X72148939Y-41641810D01*
X71690621Y-41335572D01*
X71150000Y-41228036D01*
X70609378Y-41335572D01*
X70151060Y-41641811D01*
X69880000Y-42047481D01*
X69608939Y-41641810D01*
X69150621Y-41335572D01*
X68610000Y-41228036D01*
X68069378Y-41335572D01*
X67611060Y-41641811D01*
X67412072Y-41939617D01*
X61430000Y-35957545D01*
X61430000Y-35911133D01*
X61490625Y-35870625D01*
X61703843Y-35551522D01*
X61764817Y-35681358D01*
X62193076Y-36071645D01*
X62603110Y-36241476D01*
X62833000Y-36120155D01*
X62833000Y-34927000D01*
X63087000Y-34927000D01*
X63087000Y-36120155D01*
X63316890Y-36241476D01*
X63726924Y-36071645D01*
X64155183Y-35681358D01*
X64387933Y-35185750D01*
X70315000Y-35185750D01*
X70315000Y-35876309D01*
X70411673Y-36109698D01*
X70590301Y-36288327D01*
X70823690Y-36385000D01*
X71514250Y-36385000D01*
X71673000Y-36226250D01*
X71673000Y-35027000D01*
X70473750Y-35027000D01*
X70315000Y-35185750D01*
X64387933Y-35185750D01*
X64401486Y-35156892D01*
X64280819Y-34927000D01*
X63087000Y-34927000D01*
X62833000Y-34927000D01*
X62813000Y-34927000D01*
X62813000Y-34673000D01*
X62833000Y-34673000D01*
X62833000Y-33479845D01*
X63087000Y-33479845D01*
X63087000Y-34673000D01*
X64280819Y-34673000D01*
X64401486Y-34443108D01*
X64157555Y-33923691D01*
X70315000Y-33923691D01*
X70315000Y-34614250D01*
X70473750Y-34773000D01*
X71673000Y-34773000D01*
X71673000Y-33573750D01*
X71514250Y-33415000D01*
X70823690Y-33415000D01*
X70590301Y-33511673D01*
X70411673Y-33690302D01*
X70315000Y-33923691D01*
X64157555Y-33923691D01*
X64155183Y-33918642D01*
X63726924Y-33528355D01*
X63316890Y-33358524D01*
X63087000Y-33479845D01*
X62833000Y-33479845D01*
X62603110Y-33358524D01*
X62193076Y-33528355D01*
X61764817Y-33918642D01*
X61703843Y-34048478D01*
X61490625Y-33729375D01*
X60999418Y-33401161D01*
X60566256Y-33315000D01*
X60363355Y-33315000D01*
X58924765Y-31876410D01*
X82265000Y-31876410D01*
X82265000Y-33123590D01*
X82742276Y-34275835D01*
X83624165Y-35157724D01*
X84776410Y-35635000D01*
X86023590Y-35635000D01*
X87175835Y-35157724D01*
X88057724Y-34275835D01*
X88535000Y-33123590D01*
X88535000Y-31876410D01*
X88057724Y-30724165D01*
X87175835Y-29842276D01*
X86023590Y-29365000D01*
X84776410Y-29365000D01*
X83624165Y-29842276D01*
X82742276Y-30724165D01*
X82265000Y-31876410D01*
X58924765Y-31876410D01*
X58314718Y-31266363D01*
X58258369Y-31182031D01*
X57924282Y-30958801D01*
X57629676Y-30900200D01*
X57629671Y-30900200D01*
X57530200Y-30880414D01*
X57430729Y-30900200D01*
X43529270Y-30900200D01*
X43429799Y-30880414D01*
X43330328Y-30900200D01*
X43330324Y-30900200D01*
X43035718Y-30958801D01*
X42701631Y-31182031D01*
X42645282Y-31266363D01*
X40296645Y-33615000D01*
X40093744Y-33615000D01*
X39660582Y-33701161D01*
X39169375Y-34029375D01*
X39154904Y-34051033D01*
X39088327Y-33890302D01*
X38909699Y-33711673D01*
X38676310Y-33615000D01*
X37985750Y-33615000D01*
X37827000Y-33773750D01*
X37827000Y-34973000D01*
X37847000Y-34973000D01*
X37847000Y-35227000D01*
X37827000Y-35227000D01*
X37827000Y-36426250D01*
X37985750Y-36585000D01*
X38676310Y-36585000D01*
X38909699Y-36488327D01*
X39088327Y-36309698D01*
X39154904Y-36148967D01*
X39169375Y-36170625D01*
X39230001Y-36211134D01*
X39230000Y-39316445D01*
X38166161Y-40380284D01*
X38081832Y-40436631D01*
X38025485Y-40520960D01*
X38025482Y-40520963D01*
X37862699Y-40764587D01*
X37858602Y-40770718D01*
X37807525Y-41027501D01*
X37780214Y-41164800D01*
X37800001Y-41264275D01*
X37800001Y-41758362D01*
X37504822Y-42200129D01*
X37424430Y-42604288D01*
X34989859Y-42604288D01*
X34997371Y-35385750D01*
X36215000Y-35385750D01*
X36215000Y-36076309D01*
X36311673Y-36309698D01*
X36490301Y-36488327D01*
X36723690Y-36585000D01*
X37414250Y-36585000D01*
X37573000Y-36426250D01*
X37573000Y-35227000D01*
X36373750Y-35227000D01*
X36215000Y-35385750D01*
X34997371Y-35385750D01*
X34998684Y-34123691D01*
X36215000Y-34123691D01*
X36215000Y-34814250D01*
X36373750Y-34973000D01*
X37573000Y-34973000D01*
X37573000Y-33773750D01*
X37414250Y-33615000D01*
X36723690Y-33615000D01*
X36490301Y-33711673D01*
X36311673Y-33890302D01*
X36215000Y-34123691D01*
X34998684Y-34123691D01*
X35004031Y-28985050D01*
X92495000Y-28985050D01*
X92495000Y-29734950D01*
X92781974Y-30427767D01*
X93312233Y-30958026D01*
X94005050Y-31245000D01*
X94754950Y-31245000D01*
X95447767Y-30958026D01*
X95712473Y-30693320D01*
X100846285Y-30693320D01*
X100975533Y-30986123D01*
X101675806Y-31254388D01*
X102425435Y-31234250D01*
X103024467Y-30986123D01*
X103153715Y-30693320D01*
X102000000Y-29539605D01*
X100846285Y-30693320D01*
X95712473Y-30693320D01*
X95978026Y-30427767D01*
X96265000Y-29734950D01*
X96265000Y-29035806D01*
X100105612Y-29035806D01*
X100125750Y-29785435D01*
X100373877Y-30384467D01*
X100666680Y-30513715D01*
X101820395Y-29360000D01*
X102179605Y-29360000D01*
X103333320Y-30513715D01*
X103626123Y-30384467D01*
X103894388Y-29684194D01*
X103874250Y-28934565D01*
X103626123Y-28335533D01*
X103333320Y-28206285D01*
X102179605Y-29360000D01*
X101820395Y-29360000D01*
X100666680Y-28206285D01*
X100373877Y-28335533D01*
X100105612Y-29035806D01*
X96265000Y-29035806D01*
X96265000Y-28985050D01*
X95978026Y-28292233D01*
X95712473Y-28026680D01*
X100846285Y-28026680D01*
X102000000Y-29180395D01*
X103153715Y-28026680D01*
X103024467Y-27733877D01*
X102324194Y-27465612D01*
X101574565Y-27485750D01*
X100975533Y-27733877D01*
X100846285Y-28026680D01*
X95712473Y-28026680D01*
X95447767Y-27761974D01*
X94754950Y-27475000D01*
X94005050Y-27475000D01*
X93312233Y-27761974D01*
X92781974Y-28292233D01*
X92495000Y-28985050D01*
X35004031Y-28985050D01*
X35009494Y-23736447D01*
X35241373Y-23635000D01*
X106338231Y-23635000D01*
X107365630Y-24697827D01*
X107365630Y-24697827D01*
G37*
X107365630Y-24697827D02*
X107409780Y-45536623D01*
X107323204Y-74481896D01*
X106589944Y-74970736D01*
X106317445Y-75115000D01*
X88427612Y-75115000D01*
X88303864Y-75139615D01*
X38039113Y-75041154D01*
X35026731Y-71057036D01*
X35007960Y-68081750D01*
X41415000Y-68081750D01*
X41415000Y-69172310D01*
X41511673Y-69405699D01*
X41690302Y-69584327D01*
X41923691Y-69681000D01*
X43514250Y-69681000D01*
X43673000Y-69522250D01*
X43673000Y-67923000D01*
X43927000Y-67923000D01*
X43927000Y-69522250D01*
X44085750Y-69681000D01*
X45676309Y-69681000D01*
X45909698Y-69584327D01*
X46088327Y-69405699D01*
X46185000Y-69172310D01*
X46185000Y-68081750D01*
X46026250Y-67923000D01*
X43927000Y-67923000D01*
X43673000Y-67923000D01*
X41573750Y-67923000D01*
X41415000Y-68081750D01*
X35007960Y-68081750D01*
X35005390Y-67674240D01*
X56166150Y-67674240D01*
X56166150Y-68324480D01*
X56414986Y-68925224D01*
X56874776Y-69385014D01*
X57475520Y-69633850D01*
X58125760Y-69633850D01*
X58726504Y-69385014D01*
X59186294Y-68925224D01*
X59435130Y-68324480D01*
X59435130Y-67674240D01*
X61164870Y-67674240D01*
X61164870Y-68324480D01*
X61413706Y-68925224D01*
X61873496Y-69385014D01*
X62474240Y-69633850D01*
X63124480Y-69633850D01*
X63266846Y-69574880D01*
X69165510Y-69574880D01*
X69165510Y-70225120D01*
X69414346Y-70825864D01*
X69874136Y-71285654D01*
X70474880Y-71534490D01*
X71125120Y-71534490D01*
X71725864Y-71285654D01*
X72185654Y-70825864D01*
X72434490Y-70225120D01*
X72434490Y-69574880D01*
X72185654Y-68974136D01*
X71725864Y-68514346D01*
X71125120Y-68265510D01*
X70474880Y-68265510D01*
X69874136Y-68514346D01*
X69414346Y-68974136D01*
X69165510Y-69574880D01*
X63266846Y-69574880D01*
X63725224Y-69385014D01*
X64185014Y-68925224D01*
X64433850Y-68324480D01*
X64433850Y-67674240D01*
X64185014Y-67073496D01*
X64111518Y-67000000D01*
X75652560Y-67000000D01*
X75652560Y-68800000D01*
X75701843Y-69047765D01*
X75842191Y-69257809D01*
X76052235Y-69398157D01*
X76300000Y-69447440D01*
X78100000Y-69447440D01*
X78347765Y-69398157D01*
X78557809Y-69257809D01*
X78698157Y-69047765D01*
X78747440Y-68800000D01*
X78747440Y-67000000D01*
X78698157Y-66752235D01*
X78557809Y-66542191D01*
X78359886Y-66409942D01*
X78394718Y-66375110D01*
X78280161Y-66260553D01*
X78529928Y-66176410D01*
X84815000Y-66176410D01*
X84815000Y-67423590D01*
X85292276Y-68575835D01*
X86174165Y-69457724D01*
X87326410Y-69935000D01*
X88573590Y-69935000D01*
X89725835Y-69457724D01*
X90607724Y-68575835D01*
X91085000Y-67423590D01*
X91085000Y-66176410D01*
X90607724Y-65024165D01*
X89725835Y-64142276D01*
X88573590Y-63665000D01*
X87326410Y-63665000D01*
X86174165Y-64142276D01*
X85292276Y-65024165D01*
X84815000Y-66176410D01*
X78529928Y-66176410D01*
X78536643Y-66174148D01*
X78746458Y-65600664D01*
X78720839Y-64990540D01*
X78536643Y-64545852D01*
X78280159Y-64459446D01*
X77379605Y-65360000D01*
X77393748Y-65374143D01*
X77214143Y-65553748D01*
X77200000Y-65539605D01*
X77185858Y-65553748D01*
X77006253Y-65374143D01*
X77020395Y-65360000D01*
X76119841Y-64459446D01*
X75863357Y-64545852D01*
X75653542Y-65119336D01*
X75679161Y-65729460D01*
X75863357Y-66174148D01*
X76119839Y-66260553D01*
X76005282Y-66375110D01*
X76040114Y-66409942D01*
X75842191Y-66542191D01*
X75701843Y-66752235D01*
X75652560Y-67000000D01*
X64111518Y-67000000D01*
X63725224Y-66613706D01*
X63124480Y-66364870D01*
X62474240Y-66364870D01*
X61873496Y-66613706D01*
X61413706Y-67073496D01*
X61164870Y-67674240D01*
X59435130Y-67674240D01*
X59186294Y-67073496D01*
X58726504Y-66613706D01*
X58125760Y-66364870D01*
X57475520Y-66364870D01*
X56874776Y-66613706D01*
X56414986Y-67073496D01*
X56166150Y-67674240D01*
X35005390Y-67674240D01*
X34997474Y-66419690D01*
X41415000Y-66419690D01*
X41415000Y-67510250D01*
X41573750Y-67669000D01*
X43673000Y-67669000D01*
X43673000Y-66069750D01*
X43927000Y-66069750D01*
X43927000Y-67669000D01*
X46026250Y-67669000D01*
X46185000Y-67510250D01*
X46185000Y-66419690D01*
X46088327Y-66186301D01*
X45909698Y-66007673D01*
X45676309Y-65911000D01*
X44085750Y-65911000D01*
X43927000Y-66069750D01*
X43673000Y-66069750D01*
X43514250Y-65911000D01*
X41923691Y-65911000D01*
X41690302Y-66007673D01*
X41511673Y-66186301D01*
X41415000Y-66419690D01*
X34997474Y-66419690D01*
X34969665Y-62011997D01*
X34969920Y-61766282D01*
X37290000Y-61766282D01*
X37290000Y-63813717D01*
X37377612Y-64254172D01*
X37711351Y-64753649D01*
X38210827Y-65087388D01*
X38800000Y-65204582D01*
X39389172Y-65087388D01*
X39888649Y-64753649D01*
X40050000Y-64512170D01*
X40211351Y-64753649D01*
X40710827Y-65087388D01*
X41300000Y-65204582D01*
X41889172Y-65087388D01*
X42388649Y-64753649D01*
X42722388Y-64254173D01*
X42810000Y-63813718D01*
X42810000Y-61766282D01*
X44790000Y-61766282D01*
X44790000Y-63813717D01*
X44877612Y-64254172D01*
X45211351Y-64753649D01*
X45710827Y-65087388D01*
X46300000Y-65204582D01*
X46889172Y-65087388D01*
X47388649Y-64753649D01*
X47550000Y-64512170D01*
X47711351Y-64753649D01*
X48210827Y-65087388D01*
X48800000Y-65204582D01*
X48949321Y-65174880D01*
X58665510Y-65174880D01*
X58665510Y-65825120D01*
X58914346Y-66425864D01*
X59374136Y-66885654D01*
X59974880Y-67134490D01*
X60625120Y-67134490D01*
X61225864Y-66885654D01*
X61685654Y-66425864D01*
X61934490Y-65825120D01*
X61934490Y-65174880D01*
X61685654Y-64574136D01*
X61391359Y-64279841D01*
X76299446Y-64279841D01*
X77200000Y-65180395D01*
X78100554Y-64279841D01*
X78014148Y-64023357D01*
X77440664Y-63813542D01*
X76830540Y-63839161D01*
X76385852Y-64023357D01*
X76299446Y-64279841D01*
X61391359Y-64279841D01*
X61225864Y-64114346D01*
X60625120Y-63865510D01*
X59974880Y-63865510D01*
X59374136Y-64114346D01*
X58914346Y-64574136D01*
X58665510Y-65174880D01*
X48949321Y-65174880D01*
X49389172Y-65087388D01*
X49888649Y-64753649D01*
X50222388Y-64254173D01*
X50310000Y-63813718D01*
X50310000Y-61954880D01*
X69165510Y-61954880D01*
X69165510Y-62605120D01*
X69414346Y-63205864D01*
X69874136Y-63665654D01*
X70474880Y-63914490D01*
X71125120Y-63914490D01*
X71725864Y-63665654D01*
X72185654Y-63205864D01*
X72434490Y-62605120D01*
X72434490Y-61954880D01*
X72185654Y-61354136D01*
X71725864Y-60894346D01*
X71125120Y-60645510D01*
X70474880Y-60645510D01*
X69874136Y-60894346D01*
X69414346Y-61354136D01*
X69165510Y-61954880D01*
X50310000Y-61954880D01*
X50310000Y-61766282D01*
X50222388Y-61325827D01*
X49888649Y-60826351D01*
X49389173Y-60492612D01*
X48800000Y-60375418D01*
X48210828Y-60492612D01*
X47711352Y-60826351D01*
X47550000Y-61067831D01*
X47388649Y-60826351D01*
X46889173Y-60492612D01*
X46300000Y-60375418D01*
X45710828Y-60492612D01*
X45211352Y-60826351D01*
X44877613Y-61325827D01*
X44790000Y-61766282D01*
X42810000Y-61766282D01*
X42722388Y-61325827D01*
X42388649Y-60826351D01*
X41889173Y-60492612D01*
X41300000Y-60375418D01*
X40710828Y-60492612D01*
X40211352Y-60826351D01*
X40050000Y-61067831D01*
X39888649Y-60826351D01*
X39389173Y-60492612D01*
X38800000Y-60375418D01*
X38210828Y-60492612D01*
X37711352Y-60826351D01*
X37377613Y-61325827D01*
X37290000Y-61766282D01*
X34969920Y-61766282D01*
X34971783Y-59974778D01*
X97365000Y-59974778D01*
X97365000Y-60625222D01*
X97613914Y-61226153D01*
X98073847Y-61686086D01*
X98674778Y-61935000D01*
X99325222Y-61935000D01*
X99926153Y-61686086D01*
X100386086Y-61226153D01*
X100635000Y-60625222D01*
X100635000Y-59974778D01*
X100386086Y-59373847D01*
X99926153Y-58913914D01*
X99325222Y-58665000D01*
X98674778Y-58665000D01*
X98073847Y-58913914D01*
X97613914Y-59373847D01*
X97365000Y-59974778D01*
X34971783Y-59974778D01*
X34976127Y-55800000D01*
X97352560Y-55800000D01*
X97352560Y-57800000D01*
X97401843Y-58047765D01*
X97542191Y-58257809D01*
X97752235Y-58398157D01*
X98000000Y-58447440D01*
X100000000Y-58447440D01*
X100247765Y-58398157D01*
X100457809Y-58257809D01*
X100598157Y-58047765D01*
X100647440Y-57800000D01*
X100647440Y-55800000D01*
X100598157Y-55552235D01*
X100457809Y-55342191D01*
X100247765Y-55201843D01*
X100000000Y-55152560D01*
X98000000Y-55152560D01*
X97752235Y-55201843D01*
X97542191Y-55342191D01*
X97401843Y-55552235D01*
X97352560Y-55800000D01*
X34976127Y-55800000D01*
X34981292Y-50837000D01*
X37424430Y-50837000D01*
X37424430Y-51186250D01*
X37578501Y-51706817D01*
X37920056Y-52128798D01*
X38397097Y-52387950D01*
X38468725Y-52402133D01*
X38683000Y-52279479D01*
X38683000Y-50837000D01*
X38937000Y-50837000D01*
X38937000Y-52279479D01*
X39151275Y-52402133D01*
X39222903Y-52387950D01*
X39699944Y-52128798D01*
X40041499Y-51706817D01*
X40080000Y-51576732D01*
X40118501Y-51706817D01*
X40460056Y-52128798D01*
X40937097Y-52387950D01*
X41008725Y-52402133D01*
X41223000Y-52279479D01*
X41223000Y-50837000D01*
X41477000Y-50837000D01*
X41477000Y-52279479D01*
X41691275Y-52402133D01*
X41762903Y-52387950D01*
X42239944Y-52128798D01*
X42581499Y-51706817D01*
X42620000Y-51576732D01*
X42658501Y-51706817D01*
X43000056Y-52128798D01*
X43477097Y-52387950D01*
X43548725Y-52402133D01*
X43763000Y-52279479D01*
X43763000Y-50837000D01*
X41477000Y-50837000D01*
X41223000Y-50837000D01*
X38937000Y-50837000D01*
X38683000Y-50837000D01*
X37424430Y-50837000D01*
X34981292Y-50837000D01*
X34981919Y-50233750D01*
X37424430Y-50233750D01*
X37424430Y-50583000D01*
X38683000Y-50583000D01*
X38683000Y-49140521D01*
X38937000Y-49140521D01*
X38937000Y-50583000D01*
X41223000Y-50583000D01*
X41223000Y-49140521D01*
X41477000Y-49140521D01*
X41477000Y-50583000D01*
X43763000Y-50583000D01*
X43763000Y-49140521D01*
X43548725Y-49017867D01*
X43477097Y-49032050D01*
X43000056Y-49291202D01*
X42658501Y-49713183D01*
X42620000Y-49843268D01*
X42581499Y-49713183D01*
X42239944Y-49291202D01*
X41762903Y-49032050D01*
X41691275Y-49017867D01*
X41477000Y-49140521D01*
X41223000Y-49140521D01*
X41008725Y-49017867D01*
X40937097Y-49032050D01*
X40460056Y-49291202D01*
X40118501Y-49713183D01*
X40080000Y-49843268D01*
X40041499Y-49713183D01*
X39699944Y-49291202D01*
X39222903Y-49032050D01*
X39151275Y-49017867D01*
X38937000Y-49140521D01*
X38683000Y-49140521D01*
X38468725Y-49017867D01*
X38397097Y-49032050D01*
X37920056Y-49291202D01*
X37578501Y-49713183D01*
X37424430Y-50233750D01*
X34981919Y-50233750D01*
X34989859Y-42604288D01*
X37424430Y-42604288D01*
X37424430Y-43575713D01*
X37504822Y-43979872D01*
X37811061Y-44438190D01*
X38269379Y-44744428D01*
X38810000Y-44851964D01*
X39350622Y-44744428D01*
X39808940Y-44438190D01*
X40080000Y-44032520D01*
X40351061Y-44438190D01*
X40809379Y-44744428D01*
X41350000Y-44851964D01*
X41890622Y-44744428D01*
X42348940Y-44438190D01*
X42620000Y-44032520D01*
X42891061Y-44438190D01*
X43349379Y-44744428D01*
X43890000Y-44851964D01*
X44430622Y-44744428D01*
X44888940Y-44438190D01*
X45160000Y-44032520D01*
X45431061Y-44438190D01*
X45889379Y-44744428D01*
X46430000Y-44851964D01*
X46970622Y-44744428D01*
X47428940Y-44438190D01*
X47700000Y-44032520D01*
X47971061Y-44438190D01*
X48429379Y-44744428D01*
X48970000Y-44851964D01*
X49510622Y-44744428D01*
X49968940Y-44438190D01*
X50240000Y-44032520D01*
X50511061Y-44438190D01*
X50969379Y-44744428D01*
X51510000Y-44851964D01*
X52050622Y-44744428D01*
X52508940Y-44438190D01*
X52780000Y-44032520D01*
X53051061Y-44438190D01*
X53509379Y-44744428D01*
X54050000Y-44851964D01*
X54590622Y-44744428D01*
X55048940Y-44438190D01*
X55320000Y-44032520D01*
X55591061Y-44438190D01*
X56049379Y-44744428D01*
X56590000Y-44851964D01*
X57130622Y-44744428D01*
X57588940Y-44438190D01*
X57787928Y-44140383D01*
X58753044Y-45105500D01*
X56818770Y-45105500D01*
X56719299Y-45085714D01*
X56619828Y-45105500D01*
X56619824Y-45105500D01*
X56325218Y-45164101D01*
X55991131Y-45387331D01*
X55934782Y-45471663D01*
X53406161Y-48000284D01*
X53321832Y-48056631D01*
X53265485Y-48140960D01*
X53265482Y-48140963D01*
X53098602Y-48390718D01*
X53020214Y-48784800D01*
X53040001Y-48884275D01*
X53040001Y-49378362D01*
X52780000Y-49767481D01*
X52508939Y-49361810D01*
X52050621Y-49055572D01*
X51510000Y-48948036D01*
X50969378Y-49055572D01*
X50511060Y-49361811D01*
X50240000Y-49767481D01*
X49968939Y-49361810D01*
X49510621Y-49055572D01*
X48970000Y-48948036D01*
X48429378Y-49055572D01*
X47971060Y-49361811D01*
X47700000Y-49767481D01*
X47428939Y-49361810D01*
X46970621Y-49055572D01*
X46430000Y-48948036D01*
X45889378Y-49055572D01*
X45431060Y-49361811D01*
X45144455Y-49790746D01*
X45121499Y-49713183D01*
X44779944Y-49291202D01*
X44302903Y-49032050D01*
X44231275Y-49017867D01*
X44017000Y-49140521D01*
X44017000Y-50583000D01*
X44037000Y-50583000D01*
X44037000Y-50837000D01*
X44017000Y-50837000D01*
X44017000Y-52279479D01*
X44231275Y-52402133D01*
X44302903Y-52387950D01*
X44779944Y-52128798D01*
X45121499Y-51706817D01*
X45144455Y-51629255D01*
X45431061Y-52058190D01*
X45889379Y-52364428D01*
X46430000Y-52471964D01*
X46647705Y-52428660D01*
X48714384Y-54495340D01*
X48770731Y-54579669D01*
X48855060Y-54636016D01*
X48855062Y-54636018D01*
X49030005Y-54752911D01*
X49104818Y-54802899D01*
X49399424Y-54861500D01*
X49399428Y-54861500D01*
X49498899Y-54881286D01*
X49598370Y-54861500D01*
X62260129Y-54861500D01*
X62359600Y-54881286D01*
X62459071Y-54861500D01*
X62459076Y-54861500D01*
X62753682Y-54802899D01*
X63087769Y-54579669D01*
X63144118Y-54495337D01*
X67224430Y-50415025D01*
X67224430Y-51095713D01*
X67304822Y-51499872D01*
X67611061Y-51958190D01*
X68069379Y-52264428D01*
X68610000Y-52371964D01*
X69150622Y-52264428D01*
X69608940Y-51958190D01*
X69880000Y-51552520D01*
X70151061Y-51958190D01*
X70609379Y-52264428D01*
X71150000Y-52371964D01*
X71690622Y-52264428D01*
X72148940Y-51958190D01*
X72420000Y-51552520D01*
X72691061Y-51958190D01*
X73149379Y-52264428D01*
X73690000Y-52371964D01*
X74230622Y-52264428D01*
X74688940Y-51958190D01*
X74960000Y-51552520D01*
X75231061Y-51958190D01*
X75689379Y-52264428D01*
X76230000Y-52371964D01*
X76770622Y-52264428D01*
X77228940Y-51958190D01*
X77500000Y-51552520D01*
X77771061Y-51958190D01*
X78229379Y-52264428D01*
X78770000Y-52371964D01*
X79310622Y-52264428D01*
X79768940Y-51958190D01*
X80055545Y-51529255D01*
X80078501Y-51606817D01*
X80420056Y-52028798D01*
X80897097Y-52287950D01*
X80968725Y-52302133D01*
X81183000Y-52179479D01*
X81183000Y-50737000D01*
X81163000Y-50737000D01*
X81163000Y-50483000D01*
X81183000Y-50483000D01*
X81183000Y-50463000D01*
X81437000Y-50463000D01*
X81437000Y-50483000D01*
X81457000Y-50483000D01*
X81457000Y-50737000D01*
X81437000Y-50737000D01*
X81437000Y-52179479D01*
X81651275Y-52302133D01*
X81722903Y-52287950D01*
X82199944Y-52028798D01*
X82541499Y-51606817D01*
X82564455Y-51529255D01*
X82851061Y-51958190D01*
X83309379Y-52264428D01*
X83850000Y-52371964D01*
X84390622Y-52264428D01*
X84848940Y-51958190D01*
X85135545Y-51529255D01*
X85158501Y-51606817D01*
X85500056Y-52028798D01*
X85977097Y-52287950D01*
X86048725Y-52302133D01*
X86263000Y-52179479D01*
X86263000Y-50737000D01*
X86517000Y-50737000D01*
X86517000Y-52179479D01*
X86731275Y-52302133D01*
X86802903Y-52287950D01*
X87279944Y-52028798D01*
X87621499Y-51606817D01*
X87775570Y-51086250D01*
X87775570Y-50737000D01*
X86517000Y-50737000D01*
X86263000Y-50737000D01*
X86243000Y-50737000D01*
X86243000Y-50483000D01*
X86263000Y-50483000D01*
X86263000Y-49040521D01*
X86517000Y-49040521D01*
X86517000Y-50483000D01*
X87775570Y-50483000D01*
X87775570Y-50133750D01*
X87621499Y-49613183D01*
X87279944Y-49191202D01*
X86802903Y-48932050D01*
X86731275Y-48917867D01*
X86517000Y-49040521D01*
X86263000Y-49040521D01*
X86048725Y-48917867D01*
X85977097Y-48932050D01*
X85500056Y-49191202D01*
X85158501Y-49613183D01*
X85135545Y-49690745D01*
X84860000Y-49278364D01*
X84860000Y-49103155D01*
X88613841Y-45349315D01*
X88698169Y-45292969D01*
X88754516Y-45208640D01*
X88754518Y-45208638D01*
X88884119Y-45014676D01*
X88921399Y-44958882D01*
X88980000Y-44664276D01*
X88980000Y-44664271D01*
X88999786Y-44564800D01*
X88980000Y-44465329D01*
X88980000Y-44225050D01*
X92495000Y-44225050D01*
X92495000Y-44974950D01*
X92781974Y-45667767D01*
X93312233Y-46198026D01*
X94005050Y-46485000D01*
X94754950Y-46485000D01*
X95447767Y-46198026D01*
X95978026Y-45667767D01*
X96265000Y-44974950D01*
X96265000Y-44225050D01*
X95978026Y-43532233D01*
X95795793Y-43350000D01*
X100102560Y-43350000D01*
X100102560Y-45850000D01*
X100151843Y-46097765D01*
X100292191Y-46307809D01*
X100502235Y-46448157D01*
X100750000Y-46497440D01*
X103250000Y-46497440D01*
X103497765Y-46448157D01*
X103707809Y-46307809D01*
X103848157Y-46097765D01*
X103897440Y-45850000D01*
X103897440Y-43350000D01*
X103848157Y-43102235D01*
X103707809Y-42892191D01*
X103497765Y-42751843D01*
X103250000Y-42702560D01*
X100750000Y-42702560D01*
X100502235Y-42751843D01*
X100292191Y-42892191D01*
X100151843Y-43102235D01*
X100102560Y-43350000D01*
X95795793Y-43350000D01*
X95447767Y-43001974D01*
X94754950Y-42715000D01*
X94005050Y-42715000D01*
X93312233Y-43001974D01*
X92781974Y-43532233D01*
X92495000Y-44225050D01*
X88980000Y-44225050D01*
X88980000Y-42078370D01*
X88999786Y-41978899D01*
X88980000Y-41879428D01*
X88980000Y-41879424D01*
X88921399Y-41584818D01*
X88698169Y-41250731D01*
X88613837Y-41194382D01*
X81675618Y-34256163D01*
X81619269Y-34171831D01*
X81285182Y-33948601D01*
X80990576Y-33890000D01*
X80990571Y-33890000D01*
X80891100Y-33870214D01*
X80791629Y-33890000D01*
X77991133Y-33890000D01*
X77950625Y-33829375D01*
X77459418Y-33501161D01*
X77026256Y-33415000D01*
X76733744Y-33415000D01*
X76300582Y-33501161D01*
X75809375Y-33829375D01*
X75610000Y-34127761D01*
X75410625Y-33829375D01*
X74919418Y-33501161D01*
X74486256Y-33415000D01*
X74193744Y-33415000D01*
X73760582Y-33501161D01*
X73269375Y-33829375D01*
X73254904Y-33851033D01*
X73188327Y-33690302D01*
X73009699Y-33511673D01*
X72776310Y-33415000D01*
X72085750Y-33415000D01*
X71927000Y-33573750D01*
X71927000Y-34773000D01*
X71947000Y-34773000D01*
X71947000Y-35027000D01*
X71927000Y-35027000D01*
X71927000Y-36226250D01*
X72085750Y-36385000D01*
X72776310Y-36385000D01*
X73009699Y-36288327D01*
X73188327Y-36109698D01*
X73254904Y-35948967D01*
X73269375Y-35970625D01*
X73760582Y-36298839D01*
X74193744Y-36385000D01*
X74486256Y-36385000D01*
X74919418Y-36298839D01*
X75410625Y-35970625D01*
X75610000Y-35672239D01*
X75809375Y-35970625D01*
X76300582Y-36298839D01*
X76733744Y-36385000D01*
X77026256Y-36385000D01*
X77459418Y-36298839D01*
X77950625Y-35970625D01*
X77991133Y-35910000D01*
X80472745Y-35910000D01*
X85890198Y-41327453D01*
X85849378Y-41335572D01*
X85391060Y-41641811D01*
X85120000Y-42047481D01*
X84848939Y-41641810D01*
X84390621Y-41335572D01*
X83850000Y-41228036D01*
X83309378Y-41335572D01*
X82851060Y-41641811D01*
X82580000Y-42047481D01*
X82308939Y-41641810D01*
X81850621Y-41335572D01*
X81310000Y-41228036D01*
X80769378Y-41335572D01*
X80311060Y-41641811D01*
X80040000Y-42047481D01*
X79768939Y-41641810D01*
X79310621Y-41335572D01*
X78770000Y-41228036D01*
X78229378Y-41335572D01*
X77771060Y-41641811D01*
X77500000Y-42047481D01*
X77228939Y-41641810D01*
X76770621Y-41335572D01*
X76230000Y-41228036D01*
X75689378Y-41335572D01*
X75231060Y-41641811D01*
X74960000Y-42047481D01*
X74688939Y-41641810D01*
X74230621Y-41335572D01*
X73690000Y-41228036D01*
X73149378Y-41335572D01*
X72691060Y-41641811D01*
X72420000Y-42047481D01*
X72148939Y-41641810D01*
X71690621Y-41335572D01*
X71150000Y-41228036D01*
X70609378Y-41335572D01*
X70151060Y-41641811D01*
X69880000Y-42047481D01*
X69608939Y-41641810D01*
X69150621Y-41335572D01*
X68610000Y-41228036D01*
X68069378Y-41335572D01*
X67611060Y-41641811D01*
X67412072Y-41939617D01*
X61430000Y-35957545D01*
X61430000Y-35911133D01*
X61490625Y-35870625D01*
X61703843Y-35551522D01*
X61764817Y-35681358D01*
X62193076Y-36071645D01*
X62603110Y-36241476D01*
X62833000Y-36120155D01*
X62833000Y-34927000D01*
X63087000Y-34927000D01*
X63087000Y-36120155D01*
X63316890Y-36241476D01*
X63726924Y-36071645D01*
X64155183Y-35681358D01*
X64387933Y-35185750D01*
X70315000Y-35185750D01*
X70315000Y-35876309D01*
X70411673Y-36109698D01*
X70590301Y-36288327D01*
X70823690Y-36385000D01*
X71514250Y-36385000D01*
X71673000Y-36226250D01*
X71673000Y-35027000D01*
X70473750Y-35027000D01*
X70315000Y-35185750D01*
X64387933Y-35185750D01*
X64401486Y-35156892D01*
X64280819Y-34927000D01*
X63087000Y-34927000D01*
X62833000Y-34927000D01*
X62813000Y-34927000D01*
X62813000Y-34673000D01*
X62833000Y-34673000D01*
X62833000Y-33479845D01*
X63087000Y-33479845D01*
X63087000Y-34673000D01*
X64280819Y-34673000D01*
X64401486Y-34443108D01*
X64157555Y-33923691D01*
X70315000Y-33923691D01*
X70315000Y-34614250D01*
X70473750Y-34773000D01*
X71673000Y-34773000D01*
X71673000Y-33573750D01*
X71514250Y-33415000D01*
X70823690Y-33415000D01*
X70590301Y-33511673D01*
X70411673Y-33690302D01*
X70315000Y-33923691D01*
X64157555Y-33923691D01*
X64155183Y-33918642D01*
X63726924Y-33528355D01*
X63316890Y-33358524D01*
X63087000Y-33479845D01*
X62833000Y-33479845D01*
X62603110Y-33358524D01*
X62193076Y-33528355D01*
X61764817Y-33918642D01*
X61703843Y-34048478D01*
X61490625Y-33729375D01*
X60999418Y-33401161D01*
X60566256Y-33315000D01*
X60363355Y-33315000D01*
X58924765Y-31876410D01*
X82265000Y-31876410D01*
X82265000Y-33123590D01*
X82742276Y-34275835D01*
X83624165Y-35157724D01*
X84776410Y-35635000D01*
X86023590Y-35635000D01*
X87175835Y-35157724D01*
X88057724Y-34275835D01*
X88535000Y-33123590D01*
X88535000Y-31876410D01*
X88057724Y-30724165D01*
X87175835Y-29842276D01*
X86023590Y-29365000D01*
X84776410Y-29365000D01*
X83624165Y-29842276D01*
X82742276Y-30724165D01*
X82265000Y-31876410D01*
X58924765Y-31876410D01*
X58314718Y-31266363D01*
X58258369Y-31182031D01*
X57924282Y-30958801D01*
X57629676Y-30900200D01*
X57629671Y-30900200D01*
X57530200Y-30880414D01*
X57430729Y-30900200D01*
X43529270Y-30900200D01*
X43429799Y-30880414D01*
X43330328Y-30900200D01*
X43330324Y-30900200D01*
X43035718Y-30958801D01*
X42701631Y-31182031D01*
X42645282Y-31266363D01*
X40296645Y-33615000D01*
X40093744Y-33615000D01*
X39660582Y-33701161D01*
X39169375Y-34029375D01*
X39154904Y-34051033D01*
X39088327Y-33890302D01*
X38909699Y-33711673D01*
X38676310Y-33615000D01*
X37985750Y-33615000D01*
X37827000Y-33773750D01*
X37827000Y-34973000D01*
X37847000Y-34973000D01*
X37847000Y-35227000D01*
X37827000Y-35227000D01*
X37827000Y-36426250D01*
X37985750Y-36585000D01*
X38676310Y-36585000D01*
X38909699Y-36488327D01*
X39088327Y-36309698D01*
X39154904Y-36148967D01*
X39169375Y-36170625D01*
X39230001Y-36211134D01*
X39230000Y-39316445D01*
X38166161Y-40380284D01*
X38081832Y-40436631D01*
X38025485Y-40520960D01*
X38025482Y-40520963D01*
X37862699Y-40764587D01*
X37858602Y-40770718D01*
X37807525Y-41027501D01*
X37780214Y-41164800D01*
X37800001Y-41264275D01*
X37800001Y-41758362D01*
X37504822Y-42200129D01*
X37424430Y-42604288D01*
X34989859Y-42604288D01*
X34997371Y-35385750D01*
X36215000Y-35385750D01*
X36215000Y-36076309D01*
X36311673Y-36309698D01*
X36490301Y-36488327D01*
X36723690Y-36585000D01*
X37414250Y-36585000D01*
X37573000Y-36426250D01*
X37573000Y-35227000D01*
X36373750Y-35227000D01*
X36215000Y-35385750D01*
X34997371Y-35385750D01*
X34998684Y-34123691D01*
X36215000Y-34123691D01*
X36215000Y-34814250D01*
X36373750Y-34973000D01*
X37573000Y-34973000D01*
X37573000Y-33773750D01*
X37414250Y-33615000D01*
X36723690Y-33615000D01*
X36490301Y-33711673D01*
X36311673Y-33890302D01*
X36215000Y-34123691D01*
X34998684Y-34123691D01*
X35004031Y-28985050D01*
X92495000Y-28985050D01*
X92495000Y-29734950D01*
X92781974Y-30427767D01*
X93312233Y-30958026D01*
X94005050Y-31245000D01*
X94754950Y-31245000D01*
X95447767Y-30958026D01*
X95712473Y-30693320D01*
X100846285Y-30693320D01*
X100975533Y-30986123D01*
X101675806Y-31254388D01*
X102425435Y-31234250D01*
X103024467Y-30986123D01*
X103153715Y-30693320D01*
X102000000Y-29539605D01*
X100846285Y-30693320D01*
X95712473Y-30693320D01*
X95978026Y-30427767D01*
X96265000Y-29734950D01*
X96265000Y-29035806D01*
X100105612Y-29035806D01*
X100125750Y-29785435D01*
X100373877Y-30384467D01*
X100666680Y-30513715D01*
X101820395Y-29360000D01*
X102179605Y-29360000D01*
X103333320Y-30513715D01*
X103626123Y-30384467D01*
X103894388Y-29684194D01*
X103874250Y-28934565D01*
X103626123Y-28335533D01*
X103333320Y-28206285D01*
X102179605Y-29360000D01*
X101820395Y-29360000D01*
X100666680Y-28206285D01*
X100373877Y-28335533D01*
X100105612Y-29035806D01*
X96265000Y-29035806D01*
X96265000Y-28985050D01*
X95978026Y-28292233D01*
X95712473Y-28026680D01*
X100846285Y-28026680D01*
X102000000Y-29180395D01*
X103153715Y-28026680D01*
X103024467Y-27733877D01*
X102324194Y-27465612D01*
X101574565Y-27485750D01*
X100975533Y-27733877D01*
X100846285Y-28026680D01*
X95712473Y-28026680D01*
X95447767Y-27761974D01*
X94754950Y-27475000D01*
X94005050Y-27475000D01*
X93312233Y-27761974D01*
X92781974Y-28292233D01*
X92495000Y-28985050D01*
X35004031Y-28985050D01*
X35009494Y-23736447D01*
X35241373Y-23635000D01*
X106338231Y-23635000D01*
X107365630Y-24697827D01*
G36*
X57944145Y-51628200D02*
X57844767Y-51628200D01*
X57975570Y-51186250D01*
X57975570Y-50837000D01*
X56717000Y-50837000D01*
X56717000Y-50857000D01*
X56463000Y-50857000D01*
X56463000Y-50837000D01*
X56443000Y-50837000D01*
X56443000Y-50583000D01*
X56463000Y-50583000D01*
X56463000Y-49140521D01*
X56717000Y-49140521D01*
X56717000Y-50583000D01*
X57975570Y-50583000D01*
X57975570Y-50233750D01*
X57821499Y-49713183D01*
X57479944Y-49291202D01*
X57002903Y-49032050D01*
X56931275Y-49017867D01*
X56717000Y-49140521D01*
X56463000Y-49140521D01*
X56248725Y-49017867D01*
X56177097Y-49032050D01*
X55700056Y-49291202D01*
X55358501Y-49713183D01*
X55335545Y-49790745D01*
X55060000Y-49378364D01*
X55060000Y-49203155D01*
X57137655Y-47125500D01*
X62446844Y-47125500D01*
X57944145Y-51628200D01*
X57944145Y-51628200D01*
G37*
X57944145Y-51628200D02*
X57844767Y-51628200D01*
X57975570Y-51186250D01*
X57975570Y-50837000D01*
X56717000Y-50837000D01*
X56717000Y-50857000D01*
X56463000Y-50857000D01*
X56463000Y-50837000D01*
X56443000Y-50837000D01*
X56443000Y-50583000D01*
X56463000Y-50583000D01*
X56463000Y-49140521D01*
X56717000Y-49140521D01*
X56717000Y-50583000D01*
X57975570Y-50583000D01*
X57975570Y-50233750D01*
X57821499Y-49713183D01*
X57479944Y-49291202D01*
X57002903Y-49032050D01*
X56931275Y-49017867D01*
X56717000Y-49140521D01*
X56463000Y-49140521D01*
X56248725Y-49017867D01*
X56177097Y-49032050D01*
X55700056Y-49291202D01*
X55358501Y-49713183D01*
X55335545Y-49790745D01*
X55060000Y-49378364D01*
X55060000Y-49203155D01*
X57137655Y-47125500D01*
X62446844Y-47125500D01*
X57944145Y-51628200D01*
G04 #@! TD*
M02*
