G04 #@! TF.FileFunction,Soldermask,Top*
%FSLAX46Y46*%
G04 Gerber Fmt 4.6, Leading zero omitted, Abs format (unit mm)*
G04 Created by KiCad (PCBNEW 4.0.7) date 06/02/18 15:44:57*
%MOMM*%
%LPD*%
G01*
G04 APERTURE LIST*
%ADD10C,0.100000*%
%ADD11R,2.000000X2.000000*%
%ADD12C,2.000000*%
%ADD13R,2.100000X2.100000*%
%ADD14O,2.100000X2.100000*%
%ADD15C,2.398980*%
%ADD16C,4.400500*%
%ADD17O,2.599640X1.901140*%
G04 APERTURE END LIST*
D10*
D11*
X68000000Y-25000000D03*
D12*
X70500000Y-25000000D03*
D11*
X79500000Y-51500000D03*
D12*
X82000000Y-51500000D03*
D13*
X36068000Y-28448000D03*
D14*
X33528000Y-28448000D03*
X30988000Y-28448000D03*
D13*
X79000000Y-24000000D03*
D14*
X79000000Y-26540000D03*
D13*
X48260000Y-28956000D03*
D14*
X45720000Y-28956000D03*
X43180000Y-28956000D03*
D13*
X65000000Y-49000000D03*
D14*
X67540000Y-49000000D03*
X70080000Y-49000000D03*
D15*
X57404000Y-28194000D03*
X57404000Y-20574000D03*
X82498740Y-35000640D03*
X92501260Y-37500000D03*
X82498740Y-39999360D03*
D16*
X87500000Y-37500000D03*
D17*
X47190000Y-37110000D03*
X47190000Y-39650000D03*
X47190000Y-42190000D03*
X47190000Y-44730000D03*
X47190000Y-47270000D03*
X47190000Y-49810000D03*
X47190000Y-52350000D03*
X47190000Y-54890000D03*
X54810000Y-54890000D03*
X54810000Y-52350000D03*
X54810000Y-49810000D03*
X54810000Y-47270000D03*
X54810000Y-44730000D03*
X54810000Y-42190000D03*
X54810000Y-39650000D03*
X54810000Y-37110000D03*
X65190000Y-35190000D03*
X65190000Y-37730000D03*
X65190000Y-40270000D03*
X65190000Y-42810000D03*
X72810000Y-42810000D03*
X72810000Y-40270000D03*
X72810000Y-37730000D03*
X72810000Y-35190000D03*
X29190000Y-37110000D03*
X29190000Y-39650000D03*
X29190000Y-42190000D03*
X29190000Y-44730000D03*
X29190000Y-47270000D03*
X29190000Y-49810000D03*
X29190000Y-52350000D03*
X29190000Y-54890000D03*
X36810000Y-54890000D03*
X36810000Y-52350000D03*
X36810000Y-49810000D03*
X36810000Y-47270000D03*
X36810000Y-44730000D03*
X36810000Y-42190000D03*
X36810000Y-39650000D03*
X36810000Y-37110000D03*
M02*
