G04 #@! TF.GenerationSoftware,KiCad,Pcbnew,(5.0.0)*
G04 #@! TF.CreationDate,2018-09-08T22:36:26+02:00*
G04 #@! TF.ProjectId,SN76849 Arduino nano shield,534E37363834392041726475696E6F20,20180905 0.7.06*
G04 #@! TF.SameCoordinates,Original*
G04 #@! TF.FileFunction,Soldermask,Top*
G04 #@! TF.FilePolarity,Negative*
%FSLAX46Y46*%
G04 Gerber Fmt 4.6, Leading zero omitted, Abs format (unit mm)*
G04 Created by KiCad (PCBNEW (5.0.0)) date 09/08/18 22:36:26*
%MOMM*%
%LPD*%
G01*
G04 APERTURE LIST*
%ADD10C,2.200000*%
%ADD11R,2.200000X2.200000*%
%ADD12O,2.100000X2.100000*%
%ADD13R,2.100000X2.100000*%
%ADD14C,5.400000*%
%ADD15R,3.900000X2.900000*%
%ADD16O,2.150000X3.900000*%
%ADD17C,2.398980*%
%ADD18O,1.901140X2.599640*%
%ADD19C,2.900000*%
%ADD20R,2.900000X2.900000*%
%ADD21R,2.400000X2.400000*%
%ADD22C,2.400000*%
G04 APERTURE END LIST*
D10*
G04 #@! TO.C,D1*
X77200000Y-65360000D03*
D11*
X77200000Y-67900000D03*
G04 #@! TD*
D12*
G04 #@! TO.C,J1*
X62960000Y-34800000D03*
X60420000Y-34800000D03*
X57880000Y-34800000D03*
X55340000Y-34800000D03*
D13*
X52800000Y-34800000D03*
G04 #@! TD*
D12*
G04 #@! TO.C,J2*
X76880000Y-34900000D03*
X74340000Y-34900000D03*
D13*
X71800000Y-34900000D03*
G04 #@! TD*
D12*
G04 #@! TO.C,J3*
X45320000Y-35100000D03*
X42780000Y-35100000D03*
X40240000Y-35100000D03*
D13*
X37700000Y-35100000D03*
G04 #@! TD*
D14*
G04 #@! TO.C,J6*
X87950000Y-66800000D03*
G04 #@! TD*
G04 #@! TO.C,J7*
X85400000Y-32500000D03*
G04 #@! TD*
D15*
G04 #@! TO.C,J8*
X43800000Y-67796000D03*
D16*
X38800000Y-62790000D03*
X48800000Y-62790000D03*
X41300000Y-62790000D03*
X46300000Y-62790000D03*
G04 #@! TD*
D17*
G04 #@! TO.C,R3*
X70800000Y-69900000D03*
X70800000Y-62280000D03*
G04 #@! TD*
D18*
G04 #@! TO.C,U1*
X38810000Y-50710000D03*
X41350000Y-50710000D03*
X43890000Y-50710000D03*
X46430000Y-50710000D03*
X48970000Y-50710000D03*
X51510000Y-50710000D03*
X54050000Y-50710000D03*
X56590000Y-50710000D03*
X56590000Y-43090000D03*
X54050000Y-43090000D03*
X51510000Y-43090000D03*
X48970000Y-43090000D03*
X46430000Y-43090000D03*
X43890000Y-43090000D03*
X41350000Y-43090000D03*
X38810000Y-43090000D03*
G04 #@! TD*
G04 #@! TO.C,U3*
X68610000Y-42990000D03*
X71150000Y-42990000D03*
X73690000Y-42990000D03*
X76230000Y-42990000D03*
X78770000Y-42990000D03*
X81310000Y-42990000D03*
X83850000Y-42990000D03*
X86390000Y-42990000D03*
X86390000Y-50610000D03*
X83850000Y-50610000D03*
X81310000Y-50610000D03*
X78770000Y-50610000D03*
X76230000Y-50610000D03*
X73690000Y-50610000D03*
X71150000Y-50610000D03*
X68610000Y-50610000D03*
G04 #@! TD*
D19*
G04 #@! TO.C,X1*
X102000000Y-29360000D03*
X94380000Y-29360000D03*
X94380000Y-44600000D03*
D20*
X102000000Y-44600000D03*
G04 #@! TD*
D21*
G04 #@! TO.C,C1*
X99000000Y-56800000D03*
D22*
X99000000Y-60300000D03*
G04 #@! TD*
D17*
G04 #@! TO.C,RV1*
X57800640Y-67999360D03*
X60300000Y-65500000D03*
X62799360Y-67999360D03*
G04 #@! TD*
M02*
