G04 #@! TF.FileFunction,Copper,L2,Bot,Signal*
%FSLAX46Y46*%
G04 Gerber Fmt 4.6, Leading zero omitted, Abs format (unit mm)*
G04 Created by KiCad (PCBNEW 4.0.4-stable) date 03/06/18 13:41:20*
%MOMM*%
%LPD*%
G01*
G04 APERTURE LIST*
%ADD10C,0.100000*%
%ADD11O,1.501140X2.199640*%
%ADD12O,1.500000X2.000000*%
%ADD13C,3.500000*%
%ADD14R,1.700000X1.700000*%
%ADD15O,1.700000X1.700000*%
%ADD16C,0.600000*%
%ADD17C,0.750000*%
%ADD18C,0.850000*%
%ADD19C,0.254000*%
G04 APERTURE END LIST*
D10*
D11*
X19558000Y-58166000D03*
X22098000Y-58166000D03*
X24638000Y-58166000D03*
X27178000Y-58166000D03*
X29718000Y-58166000D03*
X32258000Y-58166000D03*
X34798000Y-58166000D03*
X37338000Y-58166000D03*
X37338000Y-50546000D03*
X34798000Y-50546000D03*
X32258000Y-50546000D03*
X29718000Y-50546000D03*
X27178000Y-50546000D03*
X24638000Y-50546000D03*
X22098000Y-50546000D03*
X19558000Y-50546000D03*
D12*
X35774000Y-29068000D03*
X33274000Y-29068000D03*
X30774000Y-29068000D03*
D13*
X38074000Y-36068000D03*
X28474000Y-36068000D03*
D14*
X74041000Y-54102000D03*
D15*
X74041000Y-51562000D03*
X74041000Y-49022000D03*
D14*
X74168000Y-29972000D03*
D15*
X74168000Y-27432000D03*
X74168000Y-24892000D03*
D11*
X48514000Y-36322000D03*
X51054000Y-36322000D03*
X53594000Y-36322000D03*
X56134000Y-36322000D03*
X56134000Y-28702000D03*
X53594000Y-28702000D03*
X51054000Y-28702000D03*
X48514000Y-28702000D03*
X47498000Y-59563000D03*
X50038000Y-59563000D03*
X52578000Y-59563000D03*
X55118000Y-59563000D03*
X57658000Y-59563000D03*
X60198000Y-59563000D03*
X62738000Y-59563000D03*
X65278000Y-59563000D03*
X65278000Y-51943000D03*
X62738000Y-51943000D03*
X60198000Y-51943000D03*
X57658000Y-51943000D03*
X55118000Y-51943000D03*
X52578000Y-51943000D03*
X50038000Y-51943000D03*
X47498000Y-51943000D03*
D14*
X74168000Y-43180000D03*
D15*
X74168000Y-40640000D03*
X74168000Y-38100000D03*
D16*
X60325000Y-56007000D03*
X69215000Y-56896000D03*
X62738000Y-29718000D03*
X31750000Y-31115000D03*
X62484000Y-56007000D03*
X68707000Y-55499000D03*
X65278000Y-45212000D03*
X42164000Y-57277000D03*
X39751000Y-58928000D03*
X36068000Y-60579000D03*
X25908000Y-60579000D03*
X61468000Y-61976000D03*
X64008000Y-61976000D03*
X55626000Y-49022000D03*
X50292000Y-55499000D03*
X39751000Y-49149000D03*
X42545000Y-51943000D03*
X55626000Y-41402000D03*
X59055000Y-41402000D03*
X45085000Y-32893000D03*
X39370000Y-26797000D03*
X24384000Y-47117000D03*
X60960000Y-38862000D03*
X58039000Y-40005000D03*
X31115000Y-42926000D03*
X51308000Y-61976000D03*
X29845000Y-61976000D03*
X32385000Y-61976000D03*
X48768000Y-61976000D03*
X44069000Y-55880000D03*
X40767000Y-55880000D03*
X36576000Y-53467000D03*
X34544000Y-47117000D03*
X57023000Y-47625000D03*
X59563000Y-47625000D03*
X32004000Y-47117000D03*
X34290000Y-31115000D03*
D17*
X60325000Y-56007000D02*
X61595000Y-57277000D01*
X61595000Y-57277000D02*
X63119000Y-57277000D01*
X63119000Y-57277000D02*
X63500000Y-56896000D01*
X63500000Y-56896000D02*
X69215000Y-56896000D01*
X62738000Y-29718000D02*
X67564000Y-24892000D01*
X67564000Y-24892000D02*
X74168000Y-24892000D01*
X53594000Y-36322000D02*
X53594000Y-37338000D01*
X53594000Y-37338000D02*
X52705000Y-38227000D01*
X52705000Y-38227000D02*
X52705000Y-38354000D01*
X52705000Y-38354000D02*
X46863000Y-38354000D01*
X46863000Y-38354000D02*
X40894000Y-32385000D01*
X40894000Y-32385000D02*
X33147000Y-32385000D01*
X33147000Y-32385000D02*
X31877000Y-31115000D01*
X31877000Y-31115000D02*
X31750000Y-31115000D01*
X62484000Y-56007000D02*
X62992000Y-55499000D01*
X62992000Y-55499000D02*
X68707000Y-55499000D01*
X65278000Y-45212000D02*
X56388000Y-36322000D01*
X56388000Y-36322000D02*
X56134000Y-36322000D01*
X60198000Y-59563000D02*
X60198000Y-58420000D01*
X60198000Y-58420000D02*
X59055000Y-57277000D01*
X59055000Y-57277000D02*
X42164000Y-57277000D01*
X39751000Y-58928000D02*
X38989000Y-58166000D01*
X38989000Y-58166000D02*
X37338000Y-58166000D01*
X36068000Y-60579000D02*
X25908000Y-60579000D01*
X61468000Y-61976000D02*
X64008000Y-61976000D01*
X22098000Y-58166000D02*
X19558000Y-58166000D01*
X24638000Y-58166000D02*
X22098000Y-58166000D01*
X56134000Y-36322000D02*
X53594000Y-36322000D01*
X55626000Y-49022000D02*
X74041000Y-49022000D01*
X50292000Y-55499000D02*
X50546000Y-55245000D01*
X50546000Y-55245000D02*
X57912000Y-55245000D01*
X57912000Y-55245000D02*
X59055000Y-54102000D01*
X59055000Y-54102000D02*
X74041000Y-54102000D01*
X19558000Y-50546000D02*
X19558000Y-49530000D01*
X19558000Y-49530000D02*
X20447000Y-48641000D01*
X20447000Y-48641000D02*
X20447000Y-48514000D01*
X20447000Y-48514000D02*
X38989000Y-48514000D01*
X38989000Y-48514000D02*
X39624000Y-49149000D01*
X39624000Y-49149000D02*
X39751000Y-49149000D01*
X42545000Y-51943000D02*
X47498000Y-51943000D01*
D18*
X48514000Y-28702000D02*
X48260000Y-28448000D01*
D17*
X55626000Y-41402000D02*
X59055000Y-41402000D01*
X48514000Y-36322000D02*
X45085000Y-32893000D01*
X39370000Y-26797000D02*
X37084000Y-29083000D01*
X37084000Y-29083000D02*
X35814000Y-29083000D01*
X35814000Y-29083000D02*
X35774000Y-29068000D01*
X24384000Y-47117000D02*
X27178000Y-44323000D01*
X27178000Y-44323000D02*
X58039000Y-44323000D01*
X58039000Y-44323000D02*
X58166000Y-44450000D01*
X58166000Y-44450000D02*
X58801000Y-44450000D01*
X58801000Y-44450000D02*
X60833000Y-46482000D01*
X60833000Y-46482000D02*
X65913000Y-46482000D01*
X65913000Y-46482000D02*
X69215000Y-43180000D01*
X69215000Y-43180000D02*
X74168000Y-43180000D01*
X74168000Y-40640000D02*
X73406000Y-39878000D01*
X73406000Y-39878000D02*
X72390000Y-39878000D01*
X72390000Y-39878000D02*
X71374000Y-38862000D01*
X71374000Y-38862000D02*
X60960000Y-38862000D01*
X58039000Y-40005000D02*
X57912000Y-40132000D01*
X57912000Y-40132000D02*
X54483000Y-40132000D01*
X54483000Y-40132000D02*
X51689000Y-42926000D01*
X51689000Y-42926000D02*
X31115000Y-42926000D01*
X51308000Y-61976000D02*
X50038000Y-63246000D01*
X50038000Y-63246000D02*
X31242000Y-63246000D01*
X31242000Y-63246000D02*
X29972000Y-61976000D01*
X29972000Y-61976000D02*
X29845000Y-61976000D01*
X32385000Y-61976000D02*
X48768000Y-61976000D01*
X32258000Y-58166000D02*
X32258000Y-57150000D01*
X32258000Y-57150000D02*
X33147000Y-56261000D01*
X33147000Y-56261000D02*
X33147000Y-56134000D01*
X33147000Y-56134000D02*
X38989000Y-56134000D01*
X38989000Y-56134000D02*
X42418000Y-59563000D01*
X42418000Y-59563000D02*
X47498000Y-59563000D01*
X44069000Y-55880000D02*
X40767000Y-55880000D01*
X55118000Y-51943000D02*
X55118000Y-50927000D01*
X55118000Y-50927000D02*
X54229000Y-50038000D01*
X54229000Y-50038000D02*
X54229000Y-49911000D01*
X54229000Y-49911000D02*
X45847000Y-49911000D01*
X45847000Y-49911000D02*
X45212000Y-50546000D01*
X45212000Y-50546000D02*
X37338000Y-50546000D01*
X57658000Y-51943000D02*
X57658000Y-52959000D01*
X57658000Y-52959000D02*
X56769000Y-53848000D01*
X56769000Y-53848000D02*
X56769000Y-53975000D01*
X56769000Y-53975000D02*
X45847000Y-53975000D01*
X45847000Y-53975000D02*
X45339000Y-53467000D01*
X45339000Y-53467000D02*
X36576000Y-53467000D01*
X34544000Y-47117000D02*
X39370000Y-47117000D01*
X39370000Y-47117000D02*
X39497000Y-47244000D01*
X39497000Y-47244000D02*
X40132000Y-47244000D01*
X40132000Y-47244000D02*
X40513000Y-47625000D01*
X40513000Y-47625000D02*
X57023000Y-47625000D01*
X59563000Y-47625000D02*
X57658000Y-45720000D01*
X57658000Y-45720000D02*
X38989000Y-45720000D01*
X38989000Y-45720000D02*
X38862000Y-45847000D01*
X38862000Y-45847000D02*
X33401000Y-45847000D01*
X33401000Y-45847000D02*
X32131000Y-47117000D01*
X32131000Y-47117000D02*
X32004000Y-47117000D01*
X74168000Y-29972000D02*
X73025000Y-31115000D01*
X73025000Y-31115000D02*
X34290000Y-31115000D01*
D19*
G36*
X85650000Y-23408092D02*
X85650000Y-56601908D01*
X83017908Y-59234000D01*
X74168005Y-59234000D01*
X74168000Y-59233999D01*
X73896295Y-59288046D01*
X73665954Y-59441954D01*
X73665952Y-59441957D01*
X68158908Y-64949000D01*
X18328092Y-64949000D01*
X15569000Y-62189908D01*
X15569000Y-50162763D01*
X18172430Y-50162763D01*
X18172430Y-50929237D01*
X18277900Y-51459472D01*
X18578254Y-51908983D01*
X19027765Y-52209337D01*
X19558000Y-52314807D01*
X20088235Y-52209337D01*
X20537746Y-51908983D01*
X20828000Y-51474588D01*
X21118254Y-51908983D01*
X21567765Y-52209337D01*
X22098000Y-52314807D01*
X22628235Y-52209337D01*
X23077746Y-51908983D01*
X23368000Y-51474588D01*
X23658254Y-51908983D01*
X24107765Y-52209337D01*
X24638000Y-52314807D01*
X25168235Y-52209337D01*
X25617746Y-51908983D01*
X25908000Y-51474588D01*
X25940865Y-51523773D01*
X25946501Y-51542817D01*
X25987126Y-51593008D01*
X26198254Y-51908983D01*
X26647765Y-52209337D01*
X27178000Y-52314807D01*
X27708235Y-52209337D01*
X28157746Y-51908983D01*
X28368874Y-51593008D01*
X28409499Y-51542817D01*
X28415135Y-51523773D01*
X28448000Y-51474588D01*
X28738254Y-51908983D01*
X29187765Y-52209337D01*
X29718000Y-52314807D01*
X30248235Y-52209337D01*
X30697746Y-51908983D01*
X30988000Y-51474588D01*
X31278254Y-51908983D01*
X31727765Y-52209337D01*
X32258000Y-52314807D01*
X32788235Y-52209337D01*
X33237746Y-51908983D01*
X33528000Y-51474588D01*
X33818254Y-51908983D01*
X34267765Y-52209337D01*
X34798000Y-52314807D01*
X35328235Y-52209337D01*
X35777746Y-51908983D01*
X36068000Y-51474588D01*
X36358254Y-51908983D01*
X36807765Y-52209337D01*
X37338000Y-52314807D01*
X37868235Y-52209337D01*
X38317746Y-51908983D01*
X38553602Y-51556000D01*
X41612209Y-51556000D01*
X41611882Y-51556490D01*
X41535000Y-51943000D01*
X41611882Y-52329510D01*
X41697068Y-52457000D01*
X36576000Y-52457000D01*
X36189490Y-52533882D01*
X35861822Y-52752822D01*
X35642882Y-53080490D01*
X35566000Y-53467000D01*
X35642882Y-53853510D01*
X35861822Y-54181178D01*
X36189490Y-54400118D01*
X36576000Y-54477000D01*
X44920644Y-54477000D01*
X45132822Y-54689178D01*
X45460489Y-54908118D01*
X45847000Y-54985000D01*
X49444068Y-54985000D01*
X49358882Y-55112490D01*
X49282000Y-55499000D01*
X49358882Y-55885510D01*
X49577822Y-56213178D01*
X49658373Y-56267000D01*
X45001791Y-56267000D01*
X45002118Y-56266510D01*
X45079000Y-55880000D01*
X45002118Y-55493490D01*
X44783178Y-55165822D01*
X44455510Y-54946882D01*
X44069000Y-54870000D01*
X40767000Y-54870000D01*
X40380490Y-54946882D01*
X40052822Y-55165822D01*
X39833882Y-55493490D01*
X39824419Y-55541063D01*
X39703178Y-55419822D01*
X39375510Y-55200882D01*
X38989000Y-55124000D01*
X33147000Y-55124000D01*
X32760490Y-55200882D01*
X32432822Y-55419822D01*
X32213882Y-55747490D01*
X32209345Y-55770299D01*
X31543822Y-56435822D01*
X31324882Y-56763490D01*
X31322962Y-56773144D01*
X31278254Y-56803017D01*
X30988000Y-57237412D01*
X30697746Y-56803017D01*
X30248235Y-56502663D01*
X29718000Y-56397193D01*
X29187765Y-56502663D01*
X28738254Y-56803017D01*
X28448000Y-57237412D01*
X28157746Y-56803017D01*
X27708235Y-56502663D01*
X27178000Y-56397193D01*
X26647765Y-56502663D01*
X26198254Y-56803017D01*
X25908000Y-57237412D01*
X25617746Y-56803017D01*
X25168235Y-56502663D01*
X24638000Y-56397193D01*
X24107765Y-56502663D01*
X23658254Y-56803017D01*
X23422398Y-57156000D01*
X23313602Y-57156000D01*
X23077746Y-56803017D01*
X22628235Y-56502663D01*
X22098000Y-56397193D01*
X21567765Y-56502663D01*
X21118254Y-56803017D01*
X20882398Y-57156000D01*
X20773602Y-57156000D01*
X20537746Y-56803017D01*
X20088235Y-56502663D01*
X19558000Y-56397193D01*
X19027765Y-56502663D01*
X18578254Y-56803017D01*
X18277900Y-57252528D01*
X18172430Y-57782763D01*
X18172430Y-58549237D01*
X18277900Y-59079472D01*
X18578254Y-59528983D01*
X19027765Y-59829337D01*
X19558000Y-59934807D01*
X20088235Y-59829337D01*
X20537746Y-59528983D01*
X20773602Y-59176000D01*
X20882398Y-59176000D01*
X21118254Y-59528983D01*
X21567765Y-59829337D01*
X22098000Y-59934807D01*
X22628235Y-59829337D01*
X23077746Y-59528983D01*
X23313602Y-59176000D01*
X23422398Y-59176000D01*
X23658254Y-59528983D01*
X24107765Y-59829337D01*
X24638000Y-59934807D01*
X25168235Y-59829337D01*
X25617746Y-59528983D01*
X25908000Y-59094588D01*
X26198254Y-59528983D01*
X26258144Y-59569000D01*
X25908000Y-59569000D01*
X25521490Y-59645882D01*
X25193822Y-59864822D01*
X24974882Y-60192490D01*
X24898000Y-60579000D01*
X24974882Y-60965510D01*
X25193822Y-61293178D01*
X25521490Y-61512118D01*
X25908000Y-61589000D01*
X28912209Y-61589000D01*
X28911882Y-61589490D01*
X28835000Y-61976000D01*
X28911882Y-62362510D01*
X29130822Y-62690178D01*
X29458490Y-62909118D01*
X29481299Y-62913655D01*
X30527822Y-63960178D01*
X30855490Y-64179118D01*
X31242000Y-64256000D01*
X50038000Y-64256000D01*
X50424510Y-64179118D01*
X50752178Y-63960178D01*
X52022178Y-62690178D01*
X52241118Y-62362510D01*
X52318000Y-61976000D01*
X52241118Y-61589490D01*
X52022178Y-61261822D01*
X51694510Y-61042882D01*
X51308000Y-60966000D01*
X50921490Y-61042882D01*
X50593822Y-61261822D01*
X49752761Y-62102883D01*
X49778000Y-61976000D01*
X49701118Y-61589490D01*
X49482178Y-61261822D01*
X49154510Y-61042882D01*
X48768000Y-60966000D01*
X48417856Y-60966000D01*
X48477746Y-60925983D01*
X48768000Y-60491588D01*
X49058254Y-60925983D01*
X49507765Y-61226337D01*
X50038000Y-61331807D01*
X50568235Y-61226337D01*
X51017746Y-60925983D01*
X51308000Y-60491588D01*
X51598254Y-60925983D01*
X52047765Y-61226337D01*
X52578000Y-61331807D01*
X53108235Y-61226337D01*
X53557746Y-60925983D01*
X53848000Y-60491588D01*
X53880865Y-60540773D01*
X53886501Y-60559817D01*
X53927126Y-60610008D01*
X54138254Y-60925983D01*
X54587765Y-61226337D01*
X55118000Y-61331807D01*
X55648235Y-61226337D01*
X56097746Y-60925983D01*
X56308874Y-60610008D01*
X56349499Y-60559817D01*
X56355135Y-60540773D01*
X56388000Y-60491588D01*
X56678254Y-60925983D01*
X57127765Y-61226337D01*
X57658000Y-61331807D01*
X58188235Y-61226337D01*
X58637746Y-60925983D01*
X58928000Y-60491588D01*
X59218254Y-60925983D01*
X59667765Y-61226337D01*
X60198000Y-61331807D01*
X60728235Y-61226337D01*
X61177746Y-60925983D01*
X61468000Y-60491588D01*
X61758254Y-60925983D01*
X61818144Y-60966000D01*
X61468000Y-60966000D01*
X61081490Y-61042882D01*
X60753822Y-61261822D01*
X60534882Y-61589490D01*
X60458000Y-61976000D01*
X60534882Y-62362510D01*
X60753822Y-62690178D01*
X61081490Y-62909118D01*
X61468000Y-62986000D01*
X64008000Y-62986000D01*
X64394510Y-62909118D01*
X64722178Y-62690178D01*
X64941118Y-62362510D01*
X65018000Y-61976000D01*
X64941118Y-61589490D01*
X64722178Y-61261822D01*
X64394510Y-61042882D01*
X64008000Y-60966000D01*
X63657856Y-60966000D01*
X63717746Y-60925983D01*
X64008000Y-60491588D01*
X64298254Y-60925983D01*
X64747765Y-61226337D01*
X65278000Y-61331807D01*
X65808235Y-61226337D01*
X66257746Y-60925983D01*
X66558100Y-60476472D01*
X66663570Y-59946237D01*
X66663570Y-59179763D01*
X66558100Y-58649528D01*
X66257746Y-58200017D01*
X65817719Y-57906000D01*
X69215000Y-57906000D01*
X69601510Y-57829118D01*
X69929178Y-57610178D01*
X70148118Y-57282510D01*
X70225000Y-56896000D01*
X70148118Y-56509490D01*
X69929178Y-56181822D01*
X69601510Y-55962882D01*
X69589956Y-55960584D01*
X69640118Y-55885510D01*
X69717000Y-55499000D01*
X69640118Y-55112490D01*
X69639791Y-55112000D01*
X72573666Y-55112000D01*
X72587838Y-55187317D01*
X72726910Y-55403441D01*
X72939110Y-55548431D01*
X73191000Y-55599440D01*
X74891000Y-55599440D01*
X75126317Y-55555162D01*
X75342441Y-55416090D01*
X75487431Y-55203890D01*
X75538440Y-54952000D01*
X75538440Y-53252000D01*
X75494162Y-53016683D01*
X75355090Y-52800559D01*
X75142890Y-52655569D01*
X75075459Y-52641914D01*
X75120147Y-52612054D01*
X75442054Y-52130285D01*
X75555093Y-51562000D01*
X75442054Y-50993715D01*
X75120147Y-50511946D01*
X74790974Y-50292000D01*
X75120147Y-50072054D01*
X75442054Y-49590285D01*
X75555093Y-49022000D01*
X75442054Y-48453715D01*
X75120147Y-47971946D01*
X74638378Y-47650039D01*
X74070093Y-47537000D01*
X74011907Y-47537000D01*
X73443622Y-47650039D01*
X72961853Y-47971946D01*
X72935090Y-48012000D01*
X60495791Y-48012000D01*
X60496118Y-48011510D01*
X60573000Y-47625000D01*
X60534744Y-47432673D01*
X60833000Y-47492000D01*
X65913000Y-47492000D01*
X66299510Y-47415118D01*
X66627178Y-47196178D01*
X69633356Y-44190000D01*
X72700666Y-44190000D01*
X72714838Y-44265317D01*
X72853910Y-44481441D01*
X73066110Y-44626431D01*
X73318000Y-44677440D01*
X75018000Y-44677440D01*
X75253317Y-44633162D01*
X75469441Y-44494090D01*
X75614431Y-44281890D01*
X75665440Y-44030000D01*
X75665440Y-42330000D01*
X75621162Y-42094683D01*
X75482090Y-41878559D01*
X75269890Y-41733569D01*
X75202459Y-41719914D01*
X75247147Y-41690054D01*
X75569054Y-41208285D01*
X75682093Y-40640000D01*
X75569054Y-40071715D01*
X75247147Y-39589946D01*
X74917974Y-39370000D01*
X75247147Y-39150054D01*
X75569054Y-38668285D01*
X75682093Y-38100000D01*
X75569054Y-37531715D01*
X75247147Y-37049946D01*
X74765378Y-36728039D01*
X74197093Y-36615000D01*
X74138907Y-36615000D01*
X73570622Y-36728039D01*
X73088853Y-37049946D01*
X72766946Y-37531715D01*
X72653907Y-38100000D01*
X72766946Y-38668285D01*
X72900391Y-38868000D01*
X72808356Y-38868000D01*
X72088178Y-38147822D01*
X71760510Y-37928882D01*
X71374000Y-37852000D01*
X60960000Y-37852000D01*
X60573490Y-37928882D01*
X60245822Y-38147822D01*
X60026882Y-38475490D01*
X60017419Y-38523063D01*
X57519570Y-36025214D01*
X57519570Y-35938763D01*
X57414100Y-35408528D01*
X57113746Y-34959017D01*
X56664235Y-34658663D01*
X56134000Y-34553193D01*
X55603765Y-34658663D01*
X55154254Y-34959017D01*
X54918398Y-35312000D01*
X54809602Y-35312000D01*
X54573746Y-34959017D01*
X54124235Y-34658663D01*
X53594000Y-34553193D01*
X53063765Y-34658663D01*
X52614254Y-34959017D01*
X52324000Y-35393412D01*
X52033746Y-34959017D01*
X51584235Y-34658663D01*
X51054000Y-34553193D01*
X50523765Y-34658663D01*
X50074254Y-34959017D01*
X49784000Y-35393412D01*
X49493746Y-34959017D01*
X49044235Y-34658663D01*
X48514000Y-34553193D01*
X48230033Y-34609677D01*
X45799178Y-32178822D01*
X45718627Y-32125000D01*
X73025000Y-32125000D01*
X73411510Y-32048118D01*
X73739178Y-31829178D01*
X74098916Y-31469440D01*
X75018000Y-31469440D01*
X75253317Y-31425162D01*
X75469441Y-31286090D01*
X75614431Y-31073890D01*
X75665440Y-30822000D01*
X75665440Y-29122000D01*
X75621162Y-28886683D01*
X75482090Y-28670559D01*
X75269890Y-28525569D01*
X75202459Y-28511914D01*
X75247147Y-28482054D01*
X75569054Y-28000285D01*
X75682093Y-27432000D01*
X75569054Y-26863715D01*
X75247147Y-26381946D01*
X74917974Y-26162000D01*
X75247147Y-25942054D01*
X75569054Y-25460285D01*
X75682093Y-24892000D01*
X75569054Y-24323715D01*
X75247147Y-23841946D01*
X74765378Y-23520039D01*
X74197093Y-23407000D01*
X74138907Y-23407000D01*
X73570622Y-23520039D01*
X73088853Y-23841946D01*
X73062090Y-23882000D01*
X67564000Y-23882000D01*
X67177490Y-23958882D01*
X66849822Y-24177822D01*
X62023822Y-29003822D01*
X61804882Y-29331490D01*
X61728000Y-29718000D01*
X61804882Y-30104510D01*
X61805209Y-30105000D01*
X57053856Y-30105000D01*
X57113746Y-30064983D01*
X57324874Y-29749008D01*
X57365499Y-29698817D01*
X57371135Y-29679773D01*
X57414100Y-29615472D01*
X57463151Y-29368876D01*
X57519570Y-29178250D01*
X57519570Y-28225750D01*
X57463151Y-28035124D01*
X57414100Y-27788528D01*
X57371135Y-27724227D01*
X57365499Y-27705183D01*
X57324874Y-27654992D01*
X57113746Y-27339017D01*
X56664235Y-27038663D01*
X56134000Y-26933193D01*
X55603765Y-27038663D01*
X55154254Y-27339017D01*
X54943126Y-27654992D01*
X54902501Y-27705183D01*
X54896865Y-27724227D01*
X54864000Y-27773412D01*
X54831135Y-27724227D01*
X54825499Y-27705183D01*
X54784874Y-27654992D01*
X54573746Y-27339017D01*
X54124235Y-27038663D01*
X53594000Y-26933193D01*
X53063765Y-27038663D01*
X52614254Y-27339017D01*
X52403126Y-27654992D01*
X52362501Y-27705183D01*
X52356865Y-27724227D01*
X52324000Y-27773412D01*
X52291135Y-27724227D01*
X52285499Y-27705183D01*
X52244874Y-27654992D01*
X52033746Y-27339017D01*
X51584235Y-27038663D01*
X51054000Y-26933193D01*
X50523765Y-27038663D01*
X50074254Y-27339017D01*
X49863126Y-27654992D01*
X49822501Y-27705183D01*
X49816865Y-27724227D01*
X49784000Y-27773412D01*
X49493746Y-27339017D01*
X49044235Y-27038663D01*
X48514000Y-26933193D01*
X47983765Y-27038663D01*
X47534254Y-27339017D01*
X47233900Y-27788528D01*
X47128430Y-28318763D01*
X47128430Y-29085237D01*
X47233900Y-29615472D01*
X47534254Y-30064983D01*
X47594144Y-30105000D01*
X36903266Y-30105000D01*
X36911284Y-30093000D01*
X37084000Y-30093000D01*
X37470510Y-30016118D01*
X37798178Y-29797178D01*
X40084178Y-27511178D01*
X40303118Y-27183510D01*
X40380000Y-26797000D01*
X40303118Y-26410490D01*
X40084178Y-26082822D01*
X39756510Y-25863882D01*
X39370000Y-25787000D01*
X38983490Y-25863882D01*
X38655822Y-26082822D01*
X36824911Y-27913733D01*
X36753343Y-27806625D01*
X36304017Y-27506395D01*
X35774000Y-27400968D01*
X35243983Y-27506395D01*
X34794657Y-27806625D01*
X34524000Y-28211692D01*
X34253343Y-27806625D01*
X33804017Y-27506395D01*
X33274000Y-27400968D01*
X32743983Y-27506395D01*
X32294657Y-27806625D01*
X32024000Y-28211692D01*
X31753343Y-27806625D01*
X31304017Y-27506395D01*
X30774000Y-27400968D01*
X30243983Y-27506395D01*
X29794657Y-27806625D01*
X29494427Y-28255951D01*
X29389000Y-28785968D01*
X29389000Y-29350032D01*
X29494427Y-29880049D01*
X29794657Y-30329375D01*
X30243983Y-30629605D01*
X30774000Y-30735032D01*
X30818414Y-30726198D01*
X30816882Y-30728490D01*
X30740000Y-31115000D01*
X30816882Y-31501510D01*
X31035822Y-31829178D01*
X31363490Y-32048118D01*
X31386299Y-32052655D01*
X32432822Y-33099178D01*
X32760490Y-33318118D01*
X33147000Y-33395000D01*
X40475644Y-33395000D01*
X46148822Y-39068178D01*
X46476490Y-39287118D01*
X46863000Y-39364000D01*
X52705000Y-39364000D01*
X53091510Y-39287118D01*
X53419178Y-39068178D01*
X53638118Y-38740510D01*
X53642655Y-38717701D01*
X54308178Y-38052178D01*
X54527118Y-37724510D01*
X54529038Y-37714856D01*
X54573746Y-37684983D01*
X54809602Y-37332000D01*
X54918398Y-37332000D01*
X55154254Y-37684983D01*
X55603765Y-37985337D01*
X56134000Y-38090807D01*
X56629825Y-37992181D01*
X57700063Y-39062419D01*
X57652490Y-39071882D01*
X57577483Y-39122000D01*
X54483000Y-39122000D01*
X54096490Y-39198882D01*
X53768822Y-39417822D01*
X51270644Y-41916000D01*
X31115000Y-41916000D01*
X30728490Y-41992882D01*
X30400822Y-42211822D01*
X30181882Y-42539490D01*
X30105000Y-42926000D01*
X30181882Y-43312510D01*
X30182209Y-43313000D01*
X27178000Y-43313000D01*
X26791490Y-43389882D01*
X26463822Y-43608822D01*
X23669822Y-46402822D01*
X23450882Y-46730490D01*
X23374000Y-47117000D01*
X23450882Y-47503510D01*
X23451209Y-47504000D01*
X20447000Y-47504000D01*
X20060490Y-47580882D01*
X19732822Y-47799822D01*
X19513882Y-48127490D01*
X19509345Y-48150299D01*
X18843822Y-48815822D01*
X18624882Y-49143490D01*
X18622962Y-49153144D01*
X18578254Y-49183017D01*
X18277900Y-49632528D01*
X18172430Y-50162763D01*
X15569000Y-50162763D01*
X15569000Y-46141092D01*
X19806046Y-41904046D01*
X19959954Y-41673705D01*
X20014000Y-41402000D01*
X20014000Y-35624591D01*
X26083044Y-35624591D01*
X26088987Y-36082403D01*
X26088587Y-36540325D01*
X26095136Y-36556176D01*
X26095359Y-36573323D01*
X26434729Y-37392636D01*
X26442535Y-37396944D01*
X26450916Y-37417229D01*
X27121242Y-38088726D01*
X27144446Y-38098361D01*
X27149364Y-38107271D01*
X27574608Y-38276980D01*
X27997513Y-38452585D01*
X28014665Y-38452600D01*
X28030591Y-38458956D01*
X28488403Y-38453013D01*
X28946325Y-38453413D01*
X28962176Y-38446864D01*
X28979323Y-38446641D01*
X29798636Y-38107271D01*
X29802944Y-38099465D01*
X29823229Y-38091084D01*
X30494726Y-37420758D01*
X30504361Y-37397554D01*
X30513271Y-37392636D01*
X30682980Y-36967392D01*
X30858585Y-36544487D01*
X30858600Y-36527335D01*
X30864956Y-36511409D01*
X30859013Y-36053597D01*
X30859387Y-35624591D01*
X35683044Y-35624591D01*
X35688987Y-36082403D01*
X35688587Y-36540325D01*
X35695136Y-36556176D01*
X35695359Y-36573323D01*
X36034729Y-37392636D01*
X36042535Y-37396944D01*
X36050916Y-37417229D01*
X36721242Y-38088726D01*
X36744446Y-38098361D01*
X36749364Y-38107271D01*
X37174608Y-38276980D01*
X37597513Y-38452585D01*
X37614665Y-38452600D01*
X37630591Y-38458956D01*
X38088403Y-38453013D01*
X38546325Y-38453413D01*
X38562176Y-38446864D01*
X38579323Y-38446641D01*
X39398636Y-38107271D01*
X39402944Y-38099465D01*
X39423229Y-38091084D01*
X40094726Y-37420758D01*
X40104361Y-37397554D01*
X40113271Y-37392636D01*
X40282980Y-36967392D01*
X40458585Y-36544487D01*
X40458600Y-36527335D01*
X40464956Y-36511409D01*
X40459013Y-36053597D01*
X40459413Y-35595675D01*
X40452864Y-35579824D01*
X40452641Y-35562677D01*
X40113271Y-34743364D01*
X40105465Y-34739056D01*
X40097084Y-34718771D01*
X39426758Y-34047274D01*
X39403554Y-34037639D01*
X39398636Y-34028729D01*
X38973392Y-33859020D01*
X38550487Y-33683415D01*
X38533335Y-33683400D01*
X38517409Y-33677044D01*
X38059597Y-33682987D01*
X37601675Y-33682587D01*
X37585824Y-33689136D01*
X37568677Y-33689359D01*
X36749364Y-34028729D01*
X36745056Y-34036535D01*
X36724771Y-34044916D01*
X36053274Y-34715242D01*
X36043639Y-34738446D01*
X36034729Y-34743364D01*
X35865020Y-35168608D01*
X35689415Y-35591513D01*
X35689400Y-35608665D01*
X35683044Y-35624591D01*
X30859387Y-35624591D01*
X30859413Y-35595675D01*
X30852864Y-35579824D01*
X30852641Y-35562677D01*
X30513271Y-34743364D01*
X30505465Y-34739056D01*
X30497084Y-34718771D01*
X29826758Y-34047274D01*
X29803554Y-34037639D01*
X29798636Y-34028729D01*
X29373392Y-33859020D01*
X28950487Y-33683415D01*
X28933335Y-33683400D01*
X28917409Y-33677044D01*
X28459597Y-33682987D01*
X28001675Y-33682587D01*
X27985824Y-33689136D01*
X27968677Y-33689359D01*
X27149364Y-34028729D01*
X27145056Y-34036535D01*
X27124771Y-34044916D01*
X26453274Y-34715242D01*
X26443639Y-34738446D01*
X26434729Y-34743364D01*
X26265020Y-35168608D01*
X26089415Y-35591513D01*
X26089400Y-35608665D01*
X26083044Y-35624591D01*
X20014000Y-35624591D01*
X20014000Y-26456092D01*
X22900092Y-23570000D01*
X34163000Y-23570000D01*
X34434705Y-23515954D01*
X34665046Y-23362046D01*
X37251092Y-20776000D01*
X83017908Y-20776000D01*
X85650000Y-23408092D01*
X85650000Y-23408092D01*
G37*
X85650000Y-23408092D02*
X85650000Y-56601908D01*
X83017908Y-59234000D01*
X74168005Y-59234000D01*
X74168000Y-59233999D01*
X73896295Y-59288046D01*
X73665954Y-59441954D01*
X73665952Y-59441957D01*
X68158908Y-64949000D01*
X18328092Y-64949000D01*
X15569000Y-62189908D01*
X15569000Y-50162763D01*
X18172430Y-50162763D01*
X18172430Y-50929237D01*
X18277900Y-51459472D01*
X18578254Y-51908983D01*
X19027765Y-52209337D01*
X19558000Y-52314807D01*
X20088235Y-52209337D01*
X20537746Y-51908983D01*
X20828000Y-51474588D01*
X21118254Y-51908983D01*
X21567765Y-52209337D01*
X22098000Y-52314807D01*
X22628235Y-52209337D01*
X23077746Y-51908983D01*
X23368000Y-51474588D01*
X23658254Y-51908983D01*
X24107765Y-52209337D01*
X24638000Y-52314807D01*
X25168235Y-52209337D01*
X25617746Y-51908983D01*
X25908000Y-51474588D01*
X25940865Y-51523773D01*
X25946501Y-51542817D01*
X25987126Y-51593008D01*
X26198254Y-51908983D01*
X26647765Y-52209337D01*
X27178000Y-52314807D01*
X27708235Y-52209337D01*
X28157746Y-51908983D01*
X28368874Y-51593008D01*
X28409499Y-51542817D01*
X28415135Y-51523773D01*
X28448000Y-51474588D01*
X28738254Y-51908983D01*
X29187765Y-52209337D01*
X29718000Y-52314807D01*
X30248235Y-52209337D01*
X30697746Y-51908983D01*
X30988000Y-51474588D01*
X31278254Y-51908983D01*
X31727765Y-52209337D01*
X32258000Y-52314807D01*
X32788235Y-52209337D01*
X33237746Y-51908983D01*
X33528000Y-51474588D01*
X33818254Y-51908983D01*
X34267765Y-52209337D01*
X34798000Y-52314807D01*
X35328235Y-52209337D01*
X35777746Y-51908983D01*
X36068000Y-51474588D01*
X36358254Y-51908983D01*
X36807765Y-52209337D01*
X37338000Y-52314807D01*
X37868235Y-52209337D01*
X38317746Y-51908983D01*
X38553602Y-51556000D01*
X41612209Y-51556000D01*
X41611882Y-51556490D01*
X41535000Y-51943000D01*
X41611882Y-52329510D01*
X41697068Y-52457000D01*
X36576000Y-52457000D01*
X36189490Y-52533882D01*
X35861822Y-52752822D01*
X35642882Y-53080490D01*
X35566000Y-53467000D01*
X35642882Y-53853510D01*
X35861822Y-54181178D01*
X36189490Y-54400118D01*
X36576000Y-54477000D01*
X44920644Y-54477000D01*
X45132822Y-54689178D01*
X45460489Y-54908118D01*
X45847000Y-54985000D01*
X49444068Y-54985000D01*
X49358882Y-55112490D01*
X49282000Y-55499000D01*
X49358882Y-55885510D01*
X49577822Y-56213178D01*
X49658373Y-56267000D01*
X45001791Y-56267000D01*
X45002118Y-56266510D01*
X45079000Y-55880000D01*
X45002118Y-55493490D01*
X44783178Y-55165822D01*
X44455510Y-54946882D01*
X44069000Y-54870000D01*
X40767000Y-54870000D01*
X40380490Y-54946882D01*
X40052822Y-55165822D01*
X39833882Y-55493490D01*
X39824419Y-55541063D01*
X39703178Y-55419822D01*
X39375510Y-55200882D01*
X38989000Y-55124000D01*
X33147000Y-55124000D01*
X32760490Y-55200882D01*
X32432822Y-55419822D01*
X32213882Y-55747490D01*
X32209345Y-55770299D01*
X31543822Y-56435822D01*
X31324882Y-56763490D01*
X31322962Y-56773144D01*
X31278254Y-56803017D01*
X30988000Y-57237412D01*
X30697746Y-56803017D01*
X30248235Y-56502663D01*
X29718000Y-56397193D01*
X29187765Y-56502663D01*
X28738254Y-56803017D01*
X28448000Y-57237412D01*
X28157746Y-56803017D01*
X27708235Y-56502663D01*
X27178000Y-56397193D01*
X26647765Y-56502663D01*
X26198254Y-56803017D01*
X25908000Y-57237412D01*
X25617746Y-56803017D01*
X25168235Y-56502663D01*
X24638000Y-56397193D01*
X24107765Y-56502663D01*
X23658254Y-56803017D01*
X23422398Y-57156000D01*
X23313602Y-57156000D01*
X23077746Y-56803017D01*
X22628235Y-56502663D01*
X22098000Y-56397193D01*
X21567765Y-56502663D01*
X21118254Y-56803017D01*
X20882398Y-57156000D01*
X20773602Y-57156000D01*
X20537746Y-56803017D01*
X20088235Y-56502663D01*
X19558000Y-56397193D01*
X19027765Y-56502663D01*
X18578254Y-56803017D01*
X18277900Y-57252528D01*
X18172430Y-57782763D01*
X18172430Y-58549237D01*
X18277900Y-59079472D01*
X18578254Y-59528983D01*
X19027765Y-59829337D01*
X19558000Y-59934807D01*
X20088235Y-59829337D01*
X20537746Y-59528983D01*
X20773602Y-59176000D01*
X20882398Y-59176000D01*
X21118254Y-59528983D01*
X21567765Y-59829337D01*
X22098000Y-59934807D01*
X22628235Y-59829337D01*
X23077746Y-59528983D01*
X23313602Y-59176000D01*
X23422398Y-59176000D01*
X23658254Y-59528983D01*
X24107765Y-59829337D01*
X24638000Y-59934807D01*
X25168235Y-59829337D01*
X25617746Y-59528983D01*
X25908000Y-59094588D01*
X26198254Y-59528983D01*
X26258144Y-59569000D01*
X25908000Y-59569000D01*
X25521490Y-59645882D01*
X25193822Y-59864822D01*
X24974882Y-60192490D01*
X24898000Y-60579000D01*
X24974882Y-60965510D01*
X25193822Y-61293178D01*
X25521490Y-61512118D01*
X25908000Y-61589000D01*
X28912209Y-61589000D01*
X28911882Y-61589490D01*
X28835000Y-61976000D01*
X28911882Y-62362510D01*
X29130822Y-62690178D01*
X29458490Y-62909118D01*
X29481299Y-62913655D01*
X30527822Y-63960178D01*
X30855490Y-64179118D01*
X31242000Y-64256000D01*
X50038000Y-64256000D01*
X50424510Y-64179118D01*
X50752178Y-63960178D01*
X52022178Y-62690178D01*
X52241118Y-62362510D01*
X52318000Y-61976000D01*
X52241118Y-61589490D01*
X52022178Y-61261822D01*
X51694510Y-61042882D01*
X51308000Y-60966000D01*
X50921490Y-61042882D01*
X50593822Y-61261822D01*
X49752761Y-62102883D01*
X49778000Y-61976000D01*
X49701118Y-61589490D01*
X49482178Y-61261822D01*
X49154510Y-61042882D01*
X48768000Y-60966000D01*
X48417856Y-60966000D01*
X48477746Y-60925983D01*
X48768000Y-60491588D01*
X49058254Y-60925983D01*
X49507765Y-61226337D01*
X50038000Y-61331807D01*
X50568235Y-61226337D01*
X51017746Y-60925983D01*
X51308000Y-60491588D01*
X51598254Y-60925983D01*
X52047765Y-61226337D01*
X52578000Y-61331807D01*
X53108235Y-61226337D01*
X53557746Y-60925983D01*
X53848000Y-60491588D01*
X53880865Y-60540773D01*
X53886501Y-60559817D01*
X53927126Y-60610008D01*
X54138254Y-60925983D01*
X54587765Y-61226337D01*
X55118000Y-61331807D01*
X55648235Y-61226337D01*
X56097746Y-60925983D01*
X56308874Y-60610008D01*
X56349499Y-60559817D01*
X56355135Y-60540773D01*
X56388000Y-60491588D01*
X56678254Y-60925983D01*
X57127765Y-61226337D01*
X57658000Y-61331807D01*
X58188235Y-61226337D01*
X58637746Y-60925983D01*
X58928000Y-60491588D01*
X59218254Y-60925983D01*
X59667765Y-61226337D01*
X60198000Y-61331807D01*
X60728235Y-61226337D01*
X61177746Y-60925983D01*
X61468000Y-60491588D01*
X61758254Y-60925983D01*
X61818144Y-60966000D01*
X61468000Y-60966000D01*
X61081490Y-61042882D01*
X60753822Y-61261822D01*
X60534882Y-61589490D01*
X60458000Y-61976000D01*
X60534882Y-62362510D01*
X60753822Y-62690178D01*
X61081490Y-62909118D01*
X61468000Y-62986000D01*
X64008000Y-62986000D01*
X64394510Y-62909118D01*
X64722178Y-62690178D01*
X64941118Y-62362510D01*
X65018000Y-61976000D01*
X64941118Y-61589490D01*
X64722178Y-61261822D01*
X64394510Y-61042882D01*
X64008000Y-60966000D01*
X63657856Y-60966000D01*
X63717746Y-60925983D01*
X64008000Y-60491588D01*
X64298254Y-60925983D01*
X64747765Y-61226337D01*
X65278000Y-61331807D01*
X65808235Y-61226337D01*
X66257746Y-60925983D01*
X66558100Y-60476472D01*
X66663570Y-59946237D01*
X66663570Y-59179763D01*
X66558100Y-58649528D01*
X66257746Y-58200017D01*
X65817719Y-57906000D01*
X69215000Y-57906000D01*
X69601510Y-57829118D01*
X69929178Y-57610178D01*
X70148118Y-57282510D01*
X70225000Y-56896000D01*
X70148118Y-56509490D01*
X69929178Y-56181822D01*
X69601510Y-55962882D01*
X69589956Y-55960584D01*
X69640118Y-55885510D01*
X69717000Y-55499000D01*
X69640118Y-55112490D01*
X69639791Y-55112000D01*
X72573666Y-55112000D01*
X72587838Y-55187317D01*
X72726910Y-55403441D01*
X72939110Y-55548431D01*
X73191000Y-55599440D01*
X74891000Y-55599440D01*
X75126317Y-55555162D01*
X75342441Y-55416090D01*
X75487431Y-55203890D01*
X75538440Y-54952000D01*
X75538440Y-53252000D01*
X75494162Y-53016683D01*
X75355090Y-52800559D01*
X75142890Y-52655569D01*
X75075459Y-52641914D01*
X75120147Y-52612054D01*
X75442054Y-52130285D01*
X75555093Y-51562000D01*
X75442054Y-50993715D01*
X75120147Y-50511946D01*
X74790974Y-50292000D01*
X75120147Y-50072054D01*
X75442054Y-49590285D01*
X75555093Y-49022000D01*
X75442054Y-48453715D01*
X75120147Y-47971946D01*
X74638378Y-47650039D01*
X74070093Y-47537000D01*
X74011907Y-47537000D01*
X73443622Y-47650039D01*
X72961853Y-47971946D01*
X72935090Y-48012000D01*
X60495791Y-48012000D01*
X60496118Y-48011510D01*
X60573000Y-47625000D01*
X60534744Y-47432673D01*
X60833000Y-47492000D01*
X65913000Y-47492000D01*
X66299510Y-47415118D01*
X66627178Y-47196178D01*
X69633356Y-44190000D01*
X72700666Y-44190000D01*
X72714838Y-44265317D01*
X72853910Y-44481441D01*
X73066110Y-44626431D01*
X73318000Y-44677440D01*
X75018000Y-44677440D01*
X75253317Y-44633162D01*
X75469441Y-44494090D01*
X75614431Y-44281890D01*
X75665440Y-44030000D01*
X75665440Y-42330000D01*
X75621162Y-42094683D01*
X75482090Y-41878559D01*
X75269890Y-41733569D01*
X75202459Y-41719914D01*
X75247147Y-41690054D01*
X75569054Y-41208285D01*
X75682093Y-40640000D01*
X75569054Y-40071715D01*
X75247147Y-39589946D01*
X74917974Y-39370000D01*
X75247147Y-39150054D01*
X75569054Y-38668285D01*
X75682093Y-38100000D01*
X75569054Y-37531715D01*
X75247147Y-37049946D01*
X74765378Y-36728039D01*
X74197093Y-36615000D01*
X74138907Y-36615000D01*
X73570622Y-36728039D01*
X73088853Y-37049946D01*
X72766946Y-37531715D01*
X72653907Y-38100000D01*
X72766946Y-38668285D01*
X72900391Y-38868000D01*
X72808356Y-38868000D01*
X72088178Y-38147822D01*
X71760510Y-37928882D01*
X71374000Y-37852000D01*
X60960000Y-37852000D01*
X60573490Y-37928882D01*
X60245822Y-38147822D01*
X60026882Y-38475490D01*
X60017419Y-38523063D01*
X57519570Y-36025214D01*
X57519570Y-35938763D01*
X57414100Y-35408528D01*
X57113746Y-34959017D01*
X56664235Y-34658663D01*
X56134000Y-34553193D01*
X55603765Y-34658663D01*
X55154254Y-34959017D01*
X54918398Y-35312000D01*
X54809602Y-35312000D01*
X54573746Y-34959017D01*
X54124235Y-34658663D01*
X53594000Y-34553193D01*
X53063765Y-34658663D01*
X52614254Y-34959017D01*
X52324000Y-35393412D01*
X52033746Y-34959017D01*
X51584235Y-34658663D01*
X51054000Y-34553193D01*
X50523765Y-34658663D01*
X50074254Y-34959017D01*
X49784000Y-35393412D01*
X49493746Y-34959017D01*
X49044235Y-34658663D01*
X48514000Y-34553193D01*
X48230033Y-34609677D01*
X45799178Y-32178822D01*
X45718627Y-32125000D01*
X73025000Y-32125000D01*
X73411510Y-32048118D01*
X73739178Y-31829178D01*
X74098916Y-31469440D01*
X75018000Y-31469440D01*
X75253317Y-31425162D01*
X75469441Y-31286090D01*
X75614431Y-31073890D01*
X75665440Y-30822000D01*
X75665440Y-29122000D01*
X75621162Y-28886683D01*
X75482090Y-28670559D01*
X75269890Y-28525569D01*
X75202459Y-28511914D01*
X75247147Y-28482054D01*
X75569054Y-28000285D01*
X75682093Y-27432000D01*
X75569054Y-26863715D01*
X75247147Y-26381946D01*
X74917974Y-26162000D01*
X75247147Y-25942054D01*
X75569054Y-25460285D01*
X75682093Y-24892000D01*
X75569054Y-24323715D01*
X75247147Y-23841946D01*
X74765378Y-23520039D01*
X74197093Y-23407000D01*
X74138907Y-23407000D01*
X73570622Y-23520039D01*
X73088853Y-23841946D01*
X73062090Y-23882000D01*
X67564000Y-23882000D01*
X67177490Y-23958882D01*
X66849822Y-24177822D01*
X62023822Y-29003822D01*
X61804882Y-29331490D01*
X61728000Y-29718000D01*
X61804882Y-30104510D01*
X61805209Y-30105000D01*
X57053856Y-30105000D01*
X57113746Y-30064983D01*
X57324874Y-29749008D01*
X57365499Y-29698817D01*
X57371135Y-29679773D01*
X57414100Y-29615472D01*
X57463151Y-29368876D01*
X57519570Y-29178250D01*
X57519570Y-28225750D01*
X57463151Y-28035124D01*
X57414100Y-27788528D01*
X57371135Y-27724227D01*
X57365499Y-27705183D01*
X57324874Y-27654992D01*
X57113746Y-27339017D01*
X56664235Y-27038663D01*
X56134000Y-26933193D01*
X55603765Y-27038663D01*
X55154254Y-27339017D01*
X54943126Y-27654992D01*
X54902501Y-27705183D01*
X54896865Y-27724227D01*
X54864000Y-27773412D01*
X54831135Y-27724227D01*
X54825499Y-27705183D01*
X54784874Y-27654992D01*
X54573746Y-27339017D01*
X54124235Y-27038663D01*
X53594000Y-26933193D01*
X53063765Y-27038663D01*
X52614254Y-27339017D01*
X52403126Y-27654992D01*
X52362501Y-27705183D01*
X52356865Y-27724227D01*
X52324000Y-27773412D01*
X52291135Y-27724227D01*
X52285499Y-27705183D01*
X52244874Y-27654992D01*
X52033746Y-27339017D01*
X51584235Y-27038663D01*
X51054000Y-26933193D01*
X50523765Y-27038663D01*
X50074254Y-27339017D01*
X49863126Y-27654992D01*
X49822501Y-27705183D01*
X49816865Y-27724227D01*
X49784000Y-27773412D01*
X49493746Y-27339017D01*
X49044235Y-27038663D01*
X48514000Y-26933193D01*
X47983765Y-27038663D01*
X47534254Y-27339017D01*
X47233900Y-27788528D01*
X47128430Y-28318763D01*
X47128430Y-29085237D01*
X47233900Y-29615472D01*
X47534254Y-30064983D01*
X47594144Y-30105000D01*
X36903266Y-30105000D01*
X36911284Y-30093000D01*
X37084000Y-30093000D01*
X37470510Y-30016118D01*
X37798178Y-29797178D01*
X40084178Y-27511178D01*
X40303118Y-27183510D01*
X40380000Y-26797000D01*
X40303118Y-26410490D01*
X40084178Y-26082822D01*
X39756510Y-25863882D01*
X39370000Y-25787000D01*
X38983490Y-25863882D01*
X38655822Y-26082822D01*
X36824911Y-27913733D01*
X36753343Y-27806625D01*
X36304017Y-27506395D01*
X35774000Y-27400968D01*
X35243983Y-27506395D01*
X34794657Y-27806625D01*
X34524000Y-28211692D01*
X34253343Y-27806625D01*
X33804017Y-27506395D01*
X33274000Y-27400968D01*
X32743983Y-27506395D01*
X32294657Y-27806625D01*
X32024000Y-28211692D01*
X31753343Y-27806625D01*
X31304017Y-27506395D01*
X30774000Y-27400968D01*
X30243983Y-27506395D01*
X29794657Y-27806625D01*
X29494427Y-28255951D01*
X29389000Y-28785968D01*
X29389000Y-29350032D01*
X29494427Y-29880049D01*
X29794657Y-30329375D01*
X30243983Y-30629605D01*
X30774000Y-30735032D01*
X30818414Y-30726198D01*
X30816882Y-30728490D01*
X30740000Y-31115000D01*
X30816882Y-31501510D01*
X31035822Y-31829178D01*
X31363490Y-32048118D01*
X31386299Y-32052655D01*
X32432822Y-33099178D01*
X32760490Y-33318118D01*
X33147000Y-33395000D01*
X40475644Y-33395000D01*
X46148822Y-39068178D01*
X46476490Y-39287118D01*
X46863000Y-39364000D01*
X52705000Y-39364000D01*
X53091510Y-39287118D01*
X53419178Y-39068178D01*
X53638118Y-38740510D01*
X53642655Y-38717701D01*
X54308178Y-38052178D01*
X54527118Y-37724510D01*
X54529038Y-37714856D01*
X54573746Y-37684983D01*
X54809602Y-37332000D01*
X54918398Y-37332000D01*
X55154254Y-37684983D01*
X55603765Y-37985337D01*
X56134000Y-38090807D01*
X56629825Y-37992181D01*
X57700063Y-39062419D01*
X57652490Y-39071882D01*
X57577483Y-39122000D01*
X54483000Y-39122000D01*
X54096490Y-39198882D01*
X53768822Y-39417822D01*
X51270644Y-41916000D01*
X31115000Y-41916000D01*
X30728490Y-41992882D01*
X30400822Y-42211822D01*
X30181882Y-42539490D01*
X30105000Y-42926000D01*
X30181882Y-43312510D01*
X30182209Y-43313000D01*
X27178000Y-43313000D01*
X26791490Y-43389882D01*
X26463822Y-43608822D01*
X23669822Y-46402822D01*
X23450882Y-46730490D01*
X23374000Y-47117000D01*
X23450882Y-47503510D01*
X23451209Y-47504000D01*
X20447000Y-47504000D01*
X20060490Y-47580882D01*
X19732822Y-47799822D01*
X19513882Y-48127490D01*
X19509345Y-48150299D01*
X18843822Y-48815822D01*
X18624882Y-49143490D01*
X18622962Y-49153144D01*
X18578254Y-49183017D01*
X18277900Y-49632528D01*
X18172430Y-50162763D01*
X15569000Y-50162763D01*
X15569000Y-46141092D01*
X19806046Y-41904046D01*
X19959954Y-41673705D01*
X20014000Y-41402000D01*
X20014000Y-35624591D01*
X26083044Y-35624591D01*
X26088987Y-36082403D01*
X26088587Y-36540325D01*
X26095136Y-36556176D01*
X26095359Y-36573323D01*
X26434729Y-37392636D01*
X26442535Y-37396944D01*
X26450916Y-37417229D01*
X27121242Y-38088726D01*
X27144446Y-38098361D01*
X27149364Y-38107271D01*
X27574608Y-38276980D01*
X27997513Y-38452585D01*
X28014665Y-38452600D01*
X28030591Y-38458956D01*
X28488403Y-38453013D01*
X28946325Y-38453413D01*
X28962176Y-38446864D01*
X28979323Y-38446641D01*
X29798636Y-38107271D01*
X29802944Y-38099465D01*
X29823229Y-38091084D01*
X30494726Y-37420758D01*
X30504361Y-37397554D01*
X30513271Y-37392636D01*
X30682980Y-36967392D01*
X30858585Y-36544487D01*
X30858600Y-36527335D01*
X30864956Y-36511409D01*
X30859013Y-36053597D01*
X30859387Y-35624591D01*
X35683044Y-35624591D01*
X35688987Y-36082403D01*
X35688587Y-36540325D01*
X35695136Y-36556176D01*
X35695359Y-36573323D01*
X36034729Y-37392636D01*
X36042535Y-37396944D01*
X36050916Y-37417229D01*
X36721242Y-38088726D01*
X36744446Y-38098361D01*
X36749364Y-38107271D01*
X37174608Y-38276980D01*
X37597513Y-38452585D01*
X37614665Y-38452600D01*
X37630591Y-38458956D01*
X38088403Y-38453013D01*
X38546325Y-38453413D01*
X38562176Y-38446864D01*
X38579323Y-38446641D01*
X39398636Y-38107271D01*
X39402944Y-38099465D01*
X39423229Y-38091084D01*
X40094726Y-37420758D01*
X40104361Y-37397554D01*
X40113271Y-37392636D01*
X40282980Y-36967392D01*
X40458585Y-36544487D01*
X40458600Y-36527335D01*
X40464956Y-36511409D01*
X40459013Y-36053597D01*
X40459413Y-35595675D01*
X40452864Y-35579824D01*
X40452641Y-35562677D01*
X40113271Y-34743364D01*
X40105465Y-34739056D01*
X40097084Y-34718771D01*
X39426758Y-34047274D01*
X39403554Y-34037639D01*
X39398636Y-34028729D01*
X38973392Y-33859020D01*
X38550487Y-33683415D01*
X38533335Y-33683400D01*
X38517409Y-33677044D01*
X38059597Y-33682987D01*
X37601675Y-33682587D01*
X37585824Y-33689136D01*
X37568677Y-33689359D01*
X36749364Y-34028729D01*
X36745056Y-34036535D01*
X36724771Y-34044916D01*
X36053274Y-34715242D01*
X36043639Y-34738446D01*
X36034729Y-34743364D01*
X35865020Y-35168608D01*
X35689415Y-35591513D01*
X35689400Y-35608665D01*
X35683044Y-35624591D01*
X30859387Y-35624591D01*
X30859413Y-35595675D01*
X30852864Y-35579824D01*
X30852641Y-35562677D01*
X30513271Y-34743364D01*
X30505465Y-34739056D01*
X30497084Y-34718771D01*
X29826758Y-34047274D01*
X29803554Y-34037639D01*
X29798636Y-34028729D01*
X29373392Y-33859020D01*
X28950487Y-33683415D01*
X28933335Y-33683400D01*
X28917409Y-33677044D01*
X28459597Y-33682987D01*
X28001675Y-33682587D01*
X27985824Y-33689136D01*
X27968677Y-33689359D01*
X27149364Y-34028729D01*
X27145056Y-34036535D01*
X27124771Y-34044916D01*
X26453274Y-34715242D01*
X26443639Y-34738446D01*
X26434729Y-34743364D01*
X26265020Y-35168608D01*
X26089415Y-35591513D01*
X26089400Y-35608665D01*
X26083044Y-35624591D01*
X20014000Y-35624591D01*
X20014000Y-26456092D01*
X22900092Y-23570000D01*
X34163000Y-23570000D01*
X34434705Y-23515954D01*
X34665046Y-23362046D01*
X37251092Y-20776000D01*
X83017908Y-20776000D01*
X85650000Y-23408092D01*
G36*
X31451882Y-61589490D02*
X31379207Y-61954851D01*
X31013356Y-61589000D01*
X31452209Y-61589000D01*
X31451882Y-61589490D01*
X31451882Y-61589490D01*
G37*
X31451882Y-61589490D02*
X31379207Y-61954851D01*
X31013356Y-61589000D01*
X31452209Y-61589000D01*
X31451882Y-61589490D01*
G36*
X36358254Y-59528983D02*
X36807765Y-59829337D01*
X37338000Y-59934807D01*
X37868235Y-59829337D01*
X38317746Y-59528983D01*
X38553602Y-59176000D01*
X38570644Y-59176000D01*
X39036822Y-59642178D01*
X39364490Y-59861118D01*
X39751000Y-59938000D01*
X40137510Y-59861118D01*
X40465178Y-59642178D01*
X40684118Y-59314510D01*
X40693581Y-59266937D01*
X41703822Y-60277178D01*
X42031490Y-60496118D01*
X42418000Y-60573000D01*
X46282398Y-60573000D01*
X46518254Y-60925983D01*
X46578144Y-60966000D01*
X37000791Y-60966000D01*
X37001118Y-60965510D01*
X37078000Y-60579000D01*
X37001118Y-60192490D01*
X36782178Y-59864822D01*
X36454510Y-59645882D01*
X36068000Y-59569000D01*
X35717856Y-59569000D01*
X35777746Y-59528983D01*
X36068000Y-59094588D01*
X36358254Y-59528983D01*
X36358254Y-59528983D01*
G37*
X36358254Y-59528983D02*
X36807765Y-59829337D01*
X37338000Y-59934807D01*
X37868235Y-59829337D01*
X38317746Y-59528983D01*
X38553602Y-59176000D01*
X38570644Y-59176000D01*
X39036822Y-59642178D01*
X39364490Y-59861118D01*
X39751000Y-59938000D01*
X40137510Y-59861118D01*
X40465178Y-59642178D01*
X40684118Y-59314510D01*
X40693581Y-59266937D01*
X41703822Y-60277178D01*
X42031490Y-60496118D01*
X42418000Y-60573000D01*
X46282398Y-60573000D01*
X46518254Y-60925983D01*
X46578144Y-60966000D01*
X37000791Y-60966000D01*
X37001118Y-60965510D01*
X37078000Y-60579000D01*
X37001118Y-60192490D01*
X36782178Y-59864822D01*
X36454510Y-59645882D01*
X36068000Y-59569000D01*
X35717856Y-59569000D01*
X35777746Y-59528983D01*
X36068000Y-59094588D01*
X36358254Y-59528983D01*
G36*
X28738254Y-59528983D02*
X28798144Y-59569000D01*
X28097856Y-59569000D01*
X28157746Y-59528983D01*
X28448000Y-59094588D01*
X28738254Y-59528983D01*
X28738254Y-59528983D01*
G37*
X28738254Y-59528983D02*
X28798144Y-59569000D01*
X28097856Y-59569000D01*
X28157746Y-59528983D01*
X28448000Y-59094588D01*
X28738254Y-59528983D01*
G36*
X31278254Y-59528983D02*
X31338144Y-59569000D01*
X30637856Y-59569000D01*
X30697746Y-59528983D01*
X30988000Y-59094588D01*
X31278254Y-59528983D01*
X31278254Y-59528983D01*
G37*
X31278254Y-59528983D02*
X31338144Y-59569000D01*
X30637856Y-59569000D01*
X30697746Y-59528983D01*
X30988000Y-59094588D01*
X31278254Y-59528983D01*
G36*
X33818254Y-59528983D02*
X33878144Y-59569000D01*
X33177856Y-59569000D01*
X33237746Y-59528983D01*
X33528000Y-59094588D01*
X33818254Y-59528983D01*
X33818254Y-59528983D01*
G37*
X33818254Y-59528983D02*
X33878144Y-59569000D01*
X33177856Y-59569000D01*
X33237746Y-59528983D01*
X33528000Y-59094588D01*
X33818254Y-59528983D01*
G36*
X64298254Y-58200017D02*
X64008000Y-58634412D01*
X63717746Y-58200017D01*
X63619187Y-58134162D01*
X63833178Y-57991178D01*
X63918356Y-57906000D01*
X64738281Y-57906000D01*
X64298254Y-58200017D01*
X64298254Y-58200017D01*
G37*
X64298254Y-58200017D02*
X64008000Y-58634412D01*
X63717746Y-58200017D01*
X63619187Y-58134162D01*
X63833178Y-57991178D01*
X63918356Y-57906000D01*
X64738281Y-57906000D01*
X64298254Y-58200017D01*
G36*
X48768000Y-58634412D02*
X48535866Y-58287000D01*
X49000134Y-58287000D01*
X48768000Y-58634412D01*
X48768000Y-58634412D01*
G37*
X48768000Y-58634412D02*
X48535866Y-58287000D01*
X49000134Y-58287000D01*
X48768000Y-58634412D01*
G36*
X51308000Y-58634412D02*
X51075866Y-58287000D01*
X51540134Y-58287000D01*
X51308000Y-58634412D01*
X51308000Y-58634412D01*
G37*
X51308000Y-58634412D02*
X51075866Y-58287000D01*
X51540134Y-58287000D01*
X51308000Y-58634412D01*
G36*
X53927126Y-58515992D02*
X53886501Y-58566183D01*
X53880865Y-58585227D01*
X53848000Y-58634412D01*
X53615866Y-58287000D01*
X54080134Y-58287000D01*
X53927126Y-58515992D01*
X53927126Y-58515992D01*
G37*
X53927126Y-58515992D02*
X53886501Y-58566183D01*
X53880865Y-58585227D01*
X53848000Y-58634412D01*
X53615866Y-58287000D01*
X54080134Y-58287000D01*
X53927126Y-58515992D01*
G36*
X56388000Y-58634412D02*
X56355135Y-58585227D01*
X56349499Y-58566183D01*
X56308874Y-58515992D01*
X56155866Y-58287000D01*
X56620134Y-58287000D01*
X56388000Y-58634412D01*
X56388000Y-58634412D01*
G37*
X56388000Y-58634412D02*
X56355135Y-58585227D01*
X56349499Y-58566183D01*
X56308874Y-58515992D01*
X56155866Y-58287000D01*
X56620134Y-58287000D01*
X56388000Y-58634412D01*
G36*
X58950453Y-58600809D02*
X58928000Y-58634412D01*
X58815121Y-58465477D01*
X58950453Y-58600809D01*
X58950453Y-58600809D01*
G37*
X58950453Y-58600809D02*
X58928000Y-58634412D01*
X58815121Y-58465477D01*
X58950453Y-58600809D01*
G36*
X61208490Y-58210118D02*
X61595000Y-58287000D01*
X61700134Y-58287000D01*
X61468000Y-58634412D01*
X61177746Y-58200017D01*
X61162173Y-58189611D01*
X61159777Y-58177569D01*
X61208490Y-58210118D01*
X61208490Y-58210118D01*
G37*
X61208490Y-58210118D02*
X61595000Y-58287000D01*
X61700134Y-58287000D01*
X61468000Y-58634412D01*
X61177746Y-58200017D01*
X61162173Y-58189611D01*
X61159777Y-58177569D01*
X61208490Y-58210118D01*
G36*
X46282398Y-58553000D02*
X42836356Y-58553000D01*
X42570356Y-58287000D01*
X46460134Y-58287000D01*
X46282398Y-58553000D01*
X46282398Y-58553000D01*
G37*
X46282398Y-58553000D02*
X42836356Y-58553000D01*
X42570356Y-58287000D01*
X46460134Y-58287000D01*
X46282398Y-58553000D01*
G36*
X36068000Y-57237412D02*
X36005584Y-57144000D01*
X36130416Y-57144000D01*
X36068000Y-57237412D01*
X36068000Y-57237412D01*
G37*
X36068000Y-57237412D02*
X36005584Y-57144000D01*
X36130416Y-57144000D01*
X36068000Y-57237412D01*
G36*
X38582644Y-57156000D02*
X38553602Y-57156000D01*
X38545584Y-57144000D01*
X38570644Y-57144000D01*
X38582644Y-57156000D01*
X38582644Y-57156000D01*
G37*
X38582644Y-57156000D02*
X38553602Y-57156000D01*
X38545584Y-57144000D01*
X38570644Y-57144000D01*
X38582644Y-57156000D01*
G36*
X41230882Y-56890490D02*
X41221419Y-56938063D01*
X41173356Y-56890000D01*
X41231209Y-56890000D01*
X41230882Y-56890490D01*
X41230882Y-56890490D01*
G37*
X41230882Y-56890490D02*
X41221419Y-56938063D01*
X41173356Y-56890000D01*
X41231209Y-56890000D01*
X41230882Y-56890490D01*
G36*
X59610822Y-55292822D02*
X59391882Y-55620490D01*
X59315000Y-56007000D01*
X59379559Y-56331559D01*
X59055000Y-56267000D01*
X50925627Y-56267000D01*
X50943587Y-56255000D01*
X57912000Y-56255000D01*
X58298510Y-56178118D01*
X58626178Y-55959178D01*
X59473356Y-55112000D01*
X59881442Y-55112000D01*
X59610822Y-55292822D01*
X59610822Y-55292822D01*
G37*
X59610822Y-55292822D02*
X59391882Y-55620490D01*
X59315000Y-56007000D01*
X59379559Y-56331559D01*
X59055000Y-56267000D01*
X50925627Y-56267000D01*
X50943587Y-56255000D01*
X57912000Y-56255000D01*
X58298510Y-56178118D01*
X58626178Y-55959178D01*
X59473356Y-55112000D01*
X59881442Y-55112000D01*
X59610822Y-55292822D01*
G36*
X61769822Y-55292822D02*
X61550882Y-55620490D01*
X61520348Y-55773992D01*
X61039178Y-55292822D01*
X60768558Y-55112000D01*
X61950644Y-55112000D01*
X61769822Y-55292822D01*
X61769822Y-55292822D01*
G37*
X61769822Y-55292822D02*
X61550882Y-55620490D01*
X61520348Y-55773992D01*
X61039178Y-55292822D01*
X60768558Y-55112000D01*
X61950644Y-55112000D01*
X61769822Y-55292822D01*
G36*
X59075275Y-53092000D02*
X59055000Y-53092000D01*
X58738683Y-53154920D01*
X58928000Y-52871588D01*
X59075275Y-53092000D01*
X59075275Y-53092000D01*
G37*
X59075275Y-53092000D02*
X59055000Y-53092000D01*
X58738683Y-53154920D01*
X58928000Y-52871588D01*
X59075275Y-53092000D01*
G36*
X64040865Y-52920773D02*
X64046501Y-52939817D01*
X64087126Y-52990008D01*
X64155275Y-53092000D01*
X63860725Y-53092000D01*
X64008000Y-52871588D01*
X64040865Y-52920773D01*
X64040865Y-52920773D01*
G37*
X64040865Y-52920773D02*
X64046501Y-52939817D01*
X64087126Y-52990008D01*
X64155275Y-53092000D01*
X63860725Y-53092000D01*
X64008000Y-52871588D01*
X64040865Y-52920773D01*
G36*
X61615275Y-53092000D02*
X61320725Y-53092000D01*
X61468000Y-52871588D01*
X61615275Y-53092000D01*
X61615275Y-53092000D01*
G37*
X61615275Y-53092000D02*
X61320725Y-53092000D01*
X61468000Y-52871588D01*
X61615275Y-53092000D01*
G36*
X72961853Y-50072054D02*
X73291026Y-50292000D01*
X72961853Y-50511946D01*
X72639946Y-50993715D01*
X72526907Y-51562000D01*
X72639946Y-52130285D01*
X72961853Y-52612054D01*
X73003452Y-52639850D01*
X72955683Y-52648838D01*
X72739559Y-52787910D01*
X72594569Y-53000110D01*
X72575961Y-53092000D01*
X66400725Y-53092000D01*
X66468874Y-52990008D01*
X66509499Y-52939817D01*
X66515135Y-52920773D01*
X66558100Y-52856472D01*
X66607151Y-52609876D01*
X66663570Y-52419250D01*
X66663570Y-51466750D01*
X66607151Y-51276124D01*
X66558100Y-51029528D01*
X66515135Y-50965227D01*
X66509499Y-50946183D01*
X66468874Y-50895992D01*
X66257746Y-50580017D01*
X65808235Y-50279663D01*
X65278000Y-50174193D01*
X64747765Y-50279663D01*
X64298254Y-50580017D01*
X64087126Y-50895992D01*
X64046501Y-50946183D01*
X64040865Y-50965227D01*
X64008000Y-51014412D01*
X63717746Y-50580017D01*
X63268235Y-50279663D01*
X62738000Y-50174193D01*
X62207765Y-50279663D01*
X61758254Y-50580017D01*
X61468000Y-51014412D01*
X61177746Y-50580017D01*
X60728235Y-50279663D01*
X60198000Y-50174193D01*
X59667765Y-50279663D01*
X59218254Y-50580017D01*
X58928000Y-51014412D01*
X58637746Y-50580017D01*
X58188235Y-50279663D01*
X57658000Y-50174193D01*
X57127765Y-50279663D01*
X56678254Y-50580017D01*
X56388000Y-51014412D01*
X56097746Y-50580017D01*
X56053038Y-50550144D01*
X56051118Y-50540490D01*
X55832178Y-50212822D01*
X55651356Y-50032000D01*
X72935090Y-50032000D01*
X72961853Y-50072054D01*
X72961853Y-50072054D01*
G37*
X72961853Y-50072054D02*
X73291026Y-50292000D01*
X72961853Y-50511946D01*
X72639946Y-50993715D01*
X72526907Y-51562000D01*
X72639946Y-52130285D01*
X72961853Y-52612054D01*
X73003452Y-52639850D01*
X72955683Y-52648838D01*
X72739559Y-52787910D01*
X72594569Y-53000110D01*
X72575961Y-53092000D01*
X66400725Y-53092000D01*
X66468874Y-52990008D01*
X66509499Y-52939817D01*
X66515135Y-52920773D01*
X66558100Y-52856472D01*
X66607151Y-52609876D01*
X66663570Y-52419250D01*
X66663570Y-51466750D01*
X66607151Y-51276124D01*
X66558100Y-51029528D01*
X66515135Y-50965227D01*
X66509499Y-50946183D01*
X66468874Y-50895992D01*
X66257746Y-50580017D01*
X65808235Y-50279663D01*
X65278000Y-50174193D01*
X64747765Y-50279663D01*
X64298254Y-50580017D01*
X64087126Y-50895992D01*
X64046501Y-50946183D01*
X64040865Y-50965227D01*
X64008000Y-51014412D01*
X63717746Y-50580017D01*
X63268235Y-50279663D01*
X62738000Y-50174193D01*
X62207765Y-50279663D01*
X61758254Y-50580017D01*
X61468000Y-51014412D01*
X61177746Y-50580017D01*
X60728235Y-50279663D01*
X60198000Y-50174193D01*
X59667765Y-50279663D01*
X59218254Y-50580017D01*
X58928000Y-51014412D01*
X58637746Y-50580017D01*
X58188235Y-50279663D01*
X57658000Y-50174193D01*
X57127765Y-50279663D01*
X56678254Y-50580017D01*
X56388000Y-51014412D01*
X56097746Y-50580017D01*
X56053038Y-50550144D01*
X56051118Y-50540490D01*
X55832178Y-50212822D01*
X55651356Y-50032000D01*
X72935090Y-50032000D01*
X72961853Y-50072054D01*
G36*
X51370416Y-52965000D02*
X51245584Y-52965000D01*
X51308000Y-52871588D01*
X51370416Y-52965000D01*
X51370416Y-52965000D01*
G37*
X51370416Y-52965000D02*
X51245584Y-52965000D01*
X51308000Y-52871588D01*
X51370416Y-52965000D01*
G36*
X48830416Y-52965000D02*
X48705584Y-52965000D01*
X48768000Y-52871588D01*
X48830416Y-52965000D01*
X48830416Y-52965000D01*
G37*
X48830416Y-52965000D02*
X48705584Y-52965000D01*
X48768000Y-52871588D01*
X48830416Y-52965000D01*
G36*
X46290416Y-52965000D02*
X46265356Y-52965000D01*
X46253356Y-52953000D01*
X46282398Y-52953000D01*
X46290416Y-52965000D01*
X46290416Y-52965000D01*
G37*
X46290416Y-52965000D02*
X46265356Y-52965000D01*
X46253356Y-52953000D01*
X46282398Y-52953000D01*
X46290416Y-52965000D01*
G36*
X53910416Y-52965000D02*
X53785584Y-52965000D01*
X53848000Y-52871588D01*
X53910416Y-52965000D01*
X53910416Y-52965000D01*
G37*
X53910416Y-52965000D02*
X53785584Y-52965000D01*
X53848000Y-52871588D01*
X53910416Y-52965000D01*
G36*
X48768000Y-51014412D02*
X48705584Y-50921000D01*
X48830416Y-50921000D01*
X48768000Y-51014412D01*
X48768000Y-51014412D01*
G37*
X48768000Y-51014412D02*
X48705584Y-50921000D01*
X48830416Y-50921000D01*
X48768000Y-51014412D01*
G36*
X51308000Y-51014412D02*
X51245584Y-50921000D01*
X51370416Y-50921000D01*
X51308000Y-51014412D01*
X51308000Y-51014412D01*
G37*
X51308000Y-51014412D02*
X51245584Y-50921000D01*
X51370416Y-50921000D01*
X51308000Y-51014412D01*
G36*
X46282398Y-50933000D02*
X46253356Y-50933000D01*
X46265356Y-50921000D01*
X46290416Y-50921000D01*
X46282398Y-50933000D01*
X46282398Y-50933000D01*
G37*
X46282398Y-50933000D02*
X46253356Y-50933000D01*
X46265356Y-50921000D01*
X46290416Y-50921000D01*
X46282398Y-50933000D01*
G36*
X36068000Y-49617412D02*
X36005584Y-49524000D01*
X36130416Y-49524000D01*
X36068000Y-49617412D01*
X36068000Y-49617412D01*
G37*
X36068000Y-49617412D02*
X36005584Y-49524000D01*
X36130416Y-49524000D01*
X36068000Y-49617412D01*
G36*
X23368000Y-49617412D02*
X23305584Y-49524000D01*
X23430416Y-49524000D01*
X23368000Y-49617412D01*
X23368000Y-49617412D01*
G37*
X23368000Y-49617412D02*
X23305584Y-49524000D01*
X23430416Y-49524000D01*
X23368000Y-49617412D01*
G36*
X25946501Y-49549183D02*
X25940865Y-49568227D01*
X25908000Y-49617412D01*
X25845584Y-49524000D01*
X25966884Y-49524000D01*
X25946501Y-49549183D01*
X25946501Y-49549183D01*
G37*
X25946501Y-49549183D02*
X25940865Y-49568227D01*
X25908000Y-49617412D01*
X25845584Y-49524000D01*
X25966884Y-49524000D01*
X25946501Y-49549183D01*
G36*
X28448000Y-49617412D02*
X28415135Y-49568227D01*
X28409499Y-49549183D01*
X28389116Y-49524000D01*
X28510416Y-49524000D01*
X28448000Y-49617412D01*
X28448000Y-49617412D01*
G37*
X28448000Y-49617412D02*
X28415135Y-49568227D01*
X28409499Y-49549183D01*
X28389116Y-49524000D01*
X28510416Y-49524000D01*
X28448000Y-49617412D01*
G36*
X30988000Y-49617412D02*
X30925584Y-49524000D01*
X31050416Y-49524000D01*
X30988000Y-49617412D01*
X30988000Y-49617412D01*
G37*
X30988000Y-49617412D02*
X30925584Y-49524000D01*
X31050416Y-49524000D01*
X30988000Y-49617412D01*
G36*
X33528000Y-49617412D02*
X33465584Y-49524000D01*
X33590416Y-49524000D01*
X33528000Y-49617412D01*
X33528000Y-49617412D01*
G37*
X33528000Y-49617412D02*
X33465584Y-49524000D01*
X33590416Y-49524000D01*
X33528000Y-49617412D01*
G36*
X38582644Y-49536000D02*
X38553602Y-49536000D01*
X38545584Y-49524000D01*
X38570644Y-49524000D01*
X38582644Y-49536000D01*
X38582644Y-49536000D01*
G37*
X38582644Y-49536000D02*
X38553602Y-49536000D01*
X38545584Y-49524000D01*
X38570644Y-49524000D01*
X38582644Y-49536000D01*
G36*
X54692882Y-48635490D02*
X54623689Y-48983347D01*
X54615510Y-48977882D01*
X54229000Y-48901000D01*
X45847000Y-48901000D01*
X45460490Y-48977882D01*
X45132822Y-49196822D01*
X44793644Y-49536000D01*
X40683791Y-49536000D01*
X40684118Y-49535510D01*
X40761000Y-49149000D01*
X40684118Y-48762490D01*
X40598932Y-48635000D01*
X54693209Y-48635000D01*
X54692882Y-48635490D01*
X54692882Y-48635490D01*
G37*
X54692882Y-48635490D02*
X54623689Y-48983347D01*
X54615510Y-48977882D01*
X54229000Y-48901000D01*
X45847000Y-48901000D01*
X45460490Y-48977882D01*
X45132822Y-49196822D01*
X44793644Y-49536000D01*
X40683791Y-49536000D01*
X40684118Y-49535510D01*
X40761000Y-49149000D01*
X40684118Y-48762490D01*
X40598932Y-48635000D01*
X54693209Y-48635000D01*
X54692882Y-48635490D01*
G36*
X58521644Y-48012000D02*
X57955791Y-48012000D01*
X57956118Y-48011510D01*
X58033000Y-47625000D01*
X58007761Y-47498117D01*
X58521644Y-48012000D01*
X58521644Y-48012000D01*
G37*
X58521644Y-48012000D02*
X57955791Y-48012000D01*
X57956118Y-48011510D01*
X58033000Y-47625000D01*
X58007761Y-47498117D01*
X58521644Y-48012000D01*
G36*
X33610882Y-47503510D02*
X33611209Y-47504000D01*
X33172356Y-47504000D01*
X33538207Y-47138149D01*
X33610882Y-47503510D01*
X33610882Y-47503510D01*
G37*
X33610882Y-47503510D02*
X33611209Y-47504000D01*
X33172356Y-47504000D01*
X33538207Y-47138149D01*
X33610882Y-47503510D01*
G36*
X31640299Y-46179345D02*
X31617490Y-46183882D01*
X31289822Y-46402822D01*
X31070882Y-46730490D01*
X30994000Y-47117000D01*
X31070882Y-47503510D01*
X31071209Y-47504000D01*
X25425356Y-47504000D01*
X27596356Y-45333000D01*
X32486644Y-45333000D01*
X31640299Y-46179345D01*
X31640299Y-46179345D01*
G37*
X31640299Y-46179345D02*
X31617490Y-46183882D01*
X31289822Y-46402822D01*
X31070882Y-46730490D01*
X30994000Y-47117000D01*
X31070882Y-47503510D01*
X31071209Y-47504000D01*
X25425356Y-47504000D01*
X27596356Y-45333000D01*
X32486644Y-45333000D01*
X31640299Y-46179345D01*
G36*
X64109644Y-45472000D02*
X61251356Y-45472000D01*
X59515178Y-43735822D01*
X59187510Y-43516882D01*
X58801000Y-43440000D01*
X58500517Y-43440000D01*
X58425510Y-43389882D01*
X58039000Y-43313000D01*
X52730356Y-43313000D01*
X54620207Y-41423149D01*
X54692882Y-41788510D01*
X54911822Y-42116178D01*
X55239490Y-42335118D01*
X55626000Y-42412000D01*
X59055000Y-42412000D01*
X59441510Y-42335118D01*
X59769178Y-42116178D01*
X59988118Y-41788510D01*
X60060793Y-41423149D01*
X64109644Y-45472000D01*
X64109644Y-45472000D01*
G37*
X64109644Y-45472000D02*
X61251356Y-45472000D01*
X59515178Y-43735822D01*
X59187510Y-43516882D01*
X58801000Y-43440000D01*
X58500517Y-43440000D01*
X58425510Y-43389882D01*
X58039000Y-43313000D01*
X52730356Y-43313000D01*
X54620207Y-41423149D01*
X54692882Y-41788510D01*
X54911822Y-42116178D01*
X55239490Y-42335118D01*
X55626000Y-42412000D01*
X59055000Y-42412000D01*
X59441510Y-42335118D01*
X59769178Y-42116178D01*
X59988118Y-41788510D01*
X60060793Y-41423149D01*
X64109644Y-45472000D01*
G36*
X71675822Y-40592178D02*
X72003490Y-40811118D01*
X72390000Y-40888000D01*
X72703237Y-40888000D01*
X72766946Y-41208285D01*
X73088853Y-41690054D01*
X73130452Y-41717850D01*
X73082683Y-41726838D01*
X72866559Y-41865910D01*
X72721569Y-42078110D01*
X72702961Y-42170000D01*
X69215000Y-42170000D01*
X68828490Y-42246882D01*
X68500822Y-42465822D01*
X66183094Y-44783550D01*
X65992178Y-44497822D01*
X61366356Y-39872000D01*
X70955644Y-39872000D01*
X71675822Y-40592178D01*
X71675822Y-40592178D01*
G37*
X71675822Y-40592178D02*
X72003490Y-40811118D01*
X72390000Y-40888000D01*
X72703237Y-40888000D01*
X72766946Y-41208285D01*
X73088853Y-41690054D01*
X73130452Y-41717850D01*
X73082683Y-41726838D01*
X72866559Y-41865910D01*
X72721569Y-42078110D01*
X72702961Y-42170000D01*
X69215000Y-42170000D01*
X68828490Y-42246882D01*
X68500822Y-42465822D01*
X66183094Y-44783550D01*
X65992178Y-44497822D01*
X61366356Y-39872000D01*
X70955644Y-39872000D01*
X71675822Y-40592178D01*
G36*
X59029644Y-40392000D02*
X58971791Y-40392000D01*
X58972118Y-40391510D01*
X58981581Y-40343937D01*
X59029644Y-40392000D01*
X59029644Y-40392000D01*
G37*
X59029644Y-40392000D02*
X58971791Y-40392000D01*
X58972118Y-40391510D01*
X58981581Y-40343937D01*
X59029644Y-40392000D01*
G36*
X44370822Y-32178822D02*
X44151882Y-32506490D01*
X44075000Y-32893000D01*
X44151882Y-33279510D01*
X44370822Y-33607178D01*
X47128430Y-36364786D01*
X47128430Y-36705237D01*
X47233900Y-37235472D01*
X47306416Y-37344000D01*
X47281356Y-37344000D01*
X42062356Y-32125000D01*
X44451373Y-32125000D01*
X44370822Y-32178822D01*
X44370822Y-32178822D01*
G37*
X44370822Y-32178822D02*
X44151882Y-32506490D01*
X44075000Y-32893000D01*
X44151882Y-33279510D01*
X44370822Y-33607178D01*
X47128430Y-36364786D01*
X47128430Y-36705237D01*
X47233900Y-37235472D01*
X47306416Y-37344000D01*
X47281356Y-37344000D01*
X42062356Y-32125000D01*
X44451373Y-32125000D01*
X44370822Y-32178822D01*
G36*
X49846416Y-37344000D02*
X49721584Y-37344000D01*
X49784000Y-37250588D01*
X49846416Y-37344000D01*
X49846416Y-37344000D01*
G37*
X49846416Y-37344000D02*
X49721584Y-37344000D01*
X49784000Y-37250588D01*
X49846416Y-37344000D01*
G36*
X33274000Y-30735032D02*
X33364545Y-30717021D01*
X33356882Y-30728490D01*
X33284207Y-31093851D01*
X32838827Y-30648471D01*
X33274000Y-30735032D01*
X33274000Y-30735032D01*
G37*
X33274000Y-30735032D02*
X33364545Y-30717021D01*
X33356882Y-30728490D01*
X33284207Y-31093851D01*
X32838827Y-30648471D01*
X33274000Y-30735032D01*
G36*
X32185773Y-30166419D02*
X31900184Y-30109612D01*
X32024000Y-29924308D01*
X32185773Y-30166419D01*
X32185773Y-30166419D01*
G37*
X32185773Y-30166419D02*
X31900184Y-30109612D01*
X32024000Y-29924308D01*
X32185773Y-30166419D01*
G36*
X73088853Y-25942054D02*
X73418026Y-26162000D01*
X73088853Y-26381946D01*
X72766946Y-26863715D01*
X72653907Y-27432000D01*
X72766946Y-28000285D01*
X73088853Y-28482054D01*
X73130452Y-28509850D01*
X73082683Y-28518838D01*
X72866559Y-28657910D01*
X72721569Y-28870110D01*
X72670560Y-29122000D01*
X72670560Y-30041084D01*
X72606644Y-30105000D01*
X63779356Y-30105000D01*
X67982356Y-25902000D01*
X73062090Y-25902000D01*
X73088853Y-25942054D01*
X73088853Y-25942054D01*
G37*
X73088853Y-25942054D02*
X73418026Y-26162000D01*
X73088853Y-26381946D01*
X72766946Y-26863715D01*
X72653907Y-27432000D01*
X72766946Y-28000285D01*
X73088853Y-28482054D01*
X73130452Y-28509850D01*
X73082683Y-28518838D01*
X72866559Y-28657910D01*
X72721569Y-28870110D01*
X72670560Y-29122000D01*
X72670560Y-30041084D01*
X72606644Y-30105000D01*
X63779356Y-30105000D01*
X67982356Y-25902000D01*
X73062090Y-25902000D01*
X73088853Y-25942054D01*
G36*
X54896865Y-29679773D02*
X54902501Y-29698817D01*
X54943126Y-29749008D01*
X55154254Y-30064983D01*
X55214144Y-30105000D01*
X54513856Y-30105000D01*
X54573746Y-30064983D01*
X54784874Y-29749008D01*
X54825499Y-29698817D01*
X54831135Y-29679773D01*
X54864000Y-29630588D01*
X54896865Y-29679773D01*
X54896865Y-29679773D01*
G37*
X54896865Y-29679773D02*
X54902501Y-29698817D01*
X54943126Y-29749008D01*
X55154254Y-30064983D01*
X55214144Y-30105000D01*
X54513856Y-30105000D01*
X54573746Y-30064983D01*
X54784874Y-29749008D01*
X54825499Y-29698817D01*
X54831135Y-29679773D01*
X54864000Y-29630588D01*
X54896865Y-29679773D01*
G36*
X52356865Y-29679773D02*
X52362501Y-29698817D01*
X52403126Y-29749008D01*
X52614254Y-30064983D01*
X52674144Y-30105000D01*
X51973856Y-30105000D01*
X52033746Y-30064983D01*
X52244874Y-29749008D01*
X52285499Y-29698817D01*
X52291135Y-29679773D01*
X52324000Y-29630588D01*
X52356865Y-29679773D01*
X52356865Y-29679773D01*
G37*
X52356865Y-29679773D02*
X52362501Y-29698817D01*
X52403126Y-29749008D01*
X52614254Y-30064983D01*
X52674144Y-30105000D01*
X51973856Y-30105000D01*
X52033746Y-30064983D01*
X52244874Y-29749008D01*
X52285499Y-29698817D01*
X52291135Y-29679773D01*
X52324000Y-29630588D01*
X52356865Y-29679773D01*
G36*
X49816865Y-29679773D02*
X49822501Y-29698817D01*
X49863126Y-29749008D01*
X50074254Y-30064983D01*
X50134144Y-30105000D01*
X49433856Y-30105000D01*
X49493746Y-30064983D01*
X49784000Y-29630588D01*
X49816865Y-29679773D01*
X49816865Y-29679773D01*
G37*
X49816865Y-29679773D02*
X49822501Y-29698817D01*
X49863126Y-29749008D01*
X50074254Y-30064983D01*
X50134144Y-30105000D01*
X49433856Y-30105000D01*
X49493746Y-30064983D01*
X49784000Y-29630588D01*
X49816865Y-29679773D01*
G36*
X34644734Y-30105000D02*
X34403266Y-30105000D01*
X34524000Y-29924308D01*
X34644734Y-30105000D01*
X34644734Y-30105000D01*
G37*
X34644734Y-30105000D02*
X34403266Y-30105000D01*
X34524000Y-29924308D01*
X34644734Y-30105000D01*
M02*
