G04 #@! TF.FileFunction,Legend,Bot*
%FSLAX46Y46*%
G04 Gerber Fmt 4.6, Leading zero omitted, Abs format (unit mm)*
G04 Created by KiCad (PCBNEW 4.0.7) date 06/02/18 16:37:52*
%MOMM*%
%LPD*%
G01*
G04 APERTURE LIST*
%ADD10C,0.100000*%
%ADD11C,0.175000*%
G04 APERTURE END LIST*
D10*
D11*
X55649994Y-19337500D02*
X55416661Y-19337500D01*
X55316661Y-19704167D02*
X55649994Y-19704167D01*
X55649994Y-19004167D01*
X55316661Y-19004167D01*
X54916661Y-19704167D02*
X54983328Y-19670833D01*
X55016661Y-19604167D01*
X55016661Y-19004167D01*
X54649994Y-19704167D02*
X54649994Y-19004167D01*
X54583328Y-19437500D02*
X54383328Y-19704167D01*
X54383328Y-19237500D02*
X54649994Y-19504167D01*
X53816661Y-19670833D02*
X53883327Y-19704167D01*
X54016661Y-19704167D01*
X54083327Y-19670833D01*
X54116661Y-19604167D01*
X54116661Y-19337500D01*
X54083327Y-19270833D01*
X54016661Y-19237500D01*
X53883327Y-19237500D01*
X53816661Y-19270833D01*
X53783327Y-19337500D01*
X53783327Y-19404167D01*
X54116661Y-19470833D01*
X53216661Y-19670833D02*
X53283327Y-19704167D01*
X53416661Y-19704167D01*
X53483327Y-19670833D01*
X53516661Y-19604167D01*
X53516661Y-19337500D01*
X53483327Y-19270833D01*
X53416661Y-19237500D01*
X53283327Y-19237500D01*
X53216661Y-19270833D01*
X53183327Y-19337500D01*
X53183327Y-19404167D01*
X53516661Y-19470833D01*
X52883327Y-19237500D02*
X52883327Y-19704167D01*
X52883327Y-19304167D02*
X52849994Y-19270833D01*
X52783327Y-19237500D01*
X52683327Y-19237500D01*
X52616661Y-19270833D01*
X52583327Y-19337500D01*
X52583327Y-19704167D01*
X51716661Y-19704167D02*
X51716661Y-19004167D01*
X51416661Y-19704167D02*
X51416661Y-19337500D01*
X51449995Y-19270833D01*
X51516661Y-19237500D01*
X51616661Y-19237500D01*
X51683328Y-19270833D01*
X51716661Y-19304167D01*
X50816662Y-19670833D02*
X50883328Y-19704167D01*
X51016662Y-19704167D01*
X51083328Y-19670833D01*
X51116662Y-19604167D01*
X51116662Y-19337500D01*
X51083328Y-19270833D01*
X51016662Y-19237500D01*
X50883328Y-19237500D01*
X50816662Y-19270833D01*
X50783328Y-19337500D01*
X50783328Y-19404167D01*
X51116662Y-19470833D01*
X50583328Y-19237500D02*
X50316662Y-19237500D01*
X50483328Y-19004167D02*
X50483328Y-19604167D01*
X50449995Y-19670833D01*
X50383328Y-19704167D01*
X50316662Y-19704167D01*
X49549995Y-19704167D02*
X49549995Y-19237500D01*
X49549995Y-19004167D02*
X49583329Y-19037500D01*
X49549995Y-19070833D01*
X49516662Y-19037500D01*
X49549995Y-19004167D01*
X49549995Y-19070833D01*
X49216662Y-19237500D02*
X49216662Y-19704167D01*
X49216662Y-19304167D02*
X49183329Y-19270833D01*
X49116662Y-19237500D01*
X49016662Y-19237500D01*
X48949996Y-19270833D01*
X48916662Y-19337500D01*
X48916662Y-19704167D01*
X48283329Y-19237500D02*
X48283329Y-19804167D01*
X48316663Y-19870833D01*
X48349996Y-19904167D01*
X48416663Y-19937500D01*
X48516663Y-19937500D01*
X48583329Y-19904167D01*
X48283329Y-19670833D02*
X48349996Y-19704167D01*
X48483329Y-19704167D01*
X48549996Y-19670833D01*
X48583329Y-19637500D01*
X48616663Y-19570833D01*
X48616663Y-19370833D01*
X48583329Y-19304167D01*
X48549996Y-19270833D01*
X48483329Y-19237500D01*
X48349996Y-19237500D01*
X48283329Y-19270833D01*
X47683330Y-19670833D02*
X47749996Y-19704167D01*
X47883330Y-19704167D01*
X47949996Y-19670833D01*
X47983330Y-19604167D01*
X47983330Y-19337500D01*
X47949996Y-19270833D01*
X47883330Y-19237500D01*
X47749996Y-19237500D01*
X47683330Y-19270833D01*
X47649996Y-19337500D01*
X47649996Y-19404167D01*
X47983330Y-19470833D01*
X47349996Y-19704167D02*
X47349996Y-19004167D01*
X47349996Y-19270833D02*
X47283330Y-19237500D01*
X47149996Y-19237500D01*
X47083330Y-19270833D01*
X47049996Y-19304167D01*
X47016663Y-19370833D01*
X47016663Y-19570833D01*
X47049996Y-19637500D01*
X47083330Y-19670833D01*
X47149996Y-19704167D01*
X47283330Y-19704167D01*
X47349996Y-19670833D01*
X46616663Y-19704167D02*
X46683330Y-19670833D01*
X46716663Y-19637500D01*
X46749997Y-19570833D01*
X46749997Y-19370833D01*
X46716663Y-19304167D01*
X46683330Y-19270833D01*
X46616663Y-19237500D01*
X46516663Y-19237500D01*
X46449997Y-19270833D01*
X46416663Y-19304167D01*
X46383330Y-19370833D01*
X46383330Y-19570833D01*
X46416663Y-19637500D01*
X46449997Y-19670833D01*
X46516663Y-19704167D01*
X46616663Y-19704167D01*
X46083330Y-19704167D02*
X46083330Y-19237500D01*
X46083330Y-19370833D02*
X46049997Y-19304167D01*
X46016664Y-19270833D01*
X45949997Y-19237500D01*
X45883330Y-19237500D01*
X45383331Y-19670833D02*
X45449997Y-19704167D01*
X45583331Y-19704167D01*
X45649997Y-19670833D01*
X45683331Y-19604167D01*
X45683331Y-19337500D01*
X45649997Y-19270833D01*
X45583331Y-19237500D01*
X45449997Y-19237500D01*
X45383331Y-19270833D01*
X45349997Y-19337500D01*
X45349997Y-19404167D01*
X45683331Y-19470833D01*
X44583331Y-19237500D02*
X44449998Y-19704167D01*
X44316664Y-19370833D01*
X44183331Y-19704167D01*
X44049998Y-19237500D01*
X43483331Y-19704167D02*
X43483331Y-19337500D01*
X43516665Y-19270833D01*
X43583331Y-19237500D01*
X43716665Y-19237500D01*
X43783331Y-19270833D01*
X43483331Y-19670833D02*
X43549998Y-19704167D01*
X43716665Y-19704167D01*
X43783331Y-19670833D01*
X43816665Y-19604167D01*
X43816665Y-19537500D01*
X43783331Y-19470833D01*
X43716665Y-19437500D01*
X43549998Y-19437500D01*
X43483331Y-19404167D01*
X42849998Y-19704167D02*
X42849998Y-19337500D01*
X42883332Y-19270833D01*
X42949998Y-19237500D01*
X43083332Y-19237500D01*
X43149998Y-19270833D01*
X42849998Y-19670833D02*
X42916665Y-19704167D01*
X43083332Y-19704167D01*
X43149998Y-19670833D01*
X43183332Y-19604167D01*
X43183332Y-19537500D01*
X43149998Y-19470833D01*
X43083332Y-19437500D01*
X42916665Y-19437500D01*
X42849998Y-19404167D01*
X42516665Y-19704167D02*
X42516665Y-19237500D01*
X42516665Y-19370833D02*
X42483332Y-19304167D01*
X42449999Y-19270833D01*
X42383332Y-19237500D01*
X42316665Y-19237500D01*
X41783332Y-19704167D02*
X41783332Y-19004167D01*
X41783332Y-19670833D02*
X41849999Y-19704167D01*
X41983332Y-19704167D01*
X42049999Y-19670833D01*
X42083332Y-19637500D01*
X42116666Y-19570833D01*
X42116666Y-19370833D01*
X42083332Y-19304167D01*
X42049999Y-19270833D01*
X41983332Y-19237500D01*
X41849999Y-19237500D01*
X41783332Y-19270833D01*
X41449999Y-19704167D02*
X41449999Y-19237500D01*
X41449999Y-19004167D02*
X41483333Y-19037500D01*
X41449999Y-19070833D01*
X41416666Y-19037500D01*
X41449999Y-19004167D01*
X41449999Y-19070833D01*
X40816666Y-19237500D02*
X40816666Y-19804167D01*
X40850000Y-19870833D01*
X40883333Y-19904167D01*
X40950000Y-19937500D01*
X41050000Y-19937500D01*
X41116666Y-19904167D01*
X40816666Y-19670833D02*
X40883333Y-19704167D01*
X41016666Y-19704167D01*
X41083333Y-19670833D01*
X41116666Y-19637500D01*
X41150000Y-19570833D01*
X41150000Y-19370833D01*
X41116666Y-19304167D01*
X41083333Y-19270833D01*
X41016666Y-19237500D01*
X40883333Y-19237500D01*
X40816666Y-19270833D01*
X40483333Y-19704167D02*
X40483333Y-19004167D01*
X40183333Y-19704167D02*
X40183333Y-19337500D01*
X40216667Y-19270833D01*
X40283333Y-19237500D01*
X40383333Y-19237500D01*
X40450000Y-19270833D01*
X40483333Y-19304167D01*
X39583334Y-19670833D02*
X39650000Y-19704167D01*
X39783334Y-19704167D01*
X39850000Y-19670833D01*
X39883334Y-19604167D01*
X39883334Y-19337500D01*
X39850000Y-19270833D01*
X39783334Y-19237500D01*
X39650000Y-19237500D01*
X39583334Y-19270833D01*
X39550000Y-19337500D01*
X39550000Y-19404167D01*
X39883334Y-19470833D01*
X39250000Y-19704167D02*
X39250000Y-19237500D01*
X39250000Y-19004167D02*
X39283334Y-19037500D01*
X39250000Y-19070833D01*
X39216667Y-19037500D01*
X39250000Y-19004167D01*
X39250000Y-19070833D01*
X38616667Y-19704167D02*
X38616667Y-19004167D01*
X38616667Y-19670833D02*
X38683334Y-19704167D01*
X38816667Y-19704167D01*
X38883334Y-19670833D01*
X38916667Y-19637500D01*
X38950001Y-19570833D01*
X38950001Y-19370833D01*
X38916667Y-19304167D01*
X38883334Y-19270833D01*
X38816667Y-19237500D01*
X38683334Y-19237500D01*
X38616667Y-19270833D01*
X37483335Y-19670833D02*
X37550001Y-19704167D01*
X37683335Y-19704167D01*
X37750001Y-19670833D01*
X37783335Y-19604167D01*
X37783335Y-19337500D01*
X37750001Y-19270833D01*
X37683335Y-19237500D01*
X37550001Y-19237500D01*
X37483335Y-19270833D01*
X37450001Y-19337500D01*
X37450001Y-19404167D01*
X37783335Y-19470833D01*
X37150001Y-19237500D02*
X37150001Y-19704167D01*
X37150001Y-19304167D02*
X37116668Y-19270833D01*
X37050001Y-19237500D01*
X36950001Y-19237500D01*
X36883335Y-19270833D01*
X36850001Y-19337500D01*
X36850001Y-19704167D01*
X35683335Y-19704167D02*
X35683335Y-19004167D01*
X35683335Y-19670833D02*
X35750002Y-19704167D01*
X35883335Y-19704167D01*
X35950002Y-19670833D01*
X35983335Y-19637500D01*
X36016669Y-19570833D01*
X36016669Y-19370833D01*
X35983335Y-19304167D01*
X35950002Y-19270833D01*
X35883335Y-19237500D01*
X35750002Y-19237500D01*
X35683335Y-19270833D01*
X35350002Y-19704167D02*
X35350002Y-19237500D01*
X35350002Y-19004167D02*
X35383336Y-19037500D01*
X35350002Y-19070833D01*
X35316669Y-19037500D01*
X35350002Y-19004167D01*
X35350002Y-19070833D01*
X34750003Y-19670833D02*
X34816669Y-19704167D01*
X34950003Y-19704167D01*
X35016669Y-19670833D01*
X35050003Y-19604167D01*
X35050003Y-19337500D01*
X35016669Y-19270833D01*
X34950003Y-19237500D01*
X34816669Y-19237500D01*
X34750003Y-19270833D01*
X34716669Y-19337500D01*
X34716669Y-19404167D01*
X35050003Y-19470833D01*
X33883336Y-19704167D02*
X33883336Y-19237500D01*
X33883336Y-19370833D02*
X33850003Y-19304167D01*
X33816670Y-19270833D01*
X33750003Y-19237500D01*
X33683336Y-19237500D01*
X33183337Y-19670833D02*
X33250003Y-19704167D01*
X33383337Y-19704167D01*
X33450003Y-19670833D01*
X33483337Y-19604167D01*
X33483337Y-19337500D01*
X33450003Y-19270833D01*
X33383337Y-19237500D01*
X33250003Y-19237500D01*
X33183337Y-19270833D01*
X33150003Y-19337500D01*
X33150003Y-19404167D01*
X33483337Y-19470833D01*
X32550003Y-19237500D02*
X32550003Y-19804167D01*
X32583337Y-19870833D01*
X32616670Y-19904167D01*
X32683337Y-19937500D01*
X32783337Y-19937500D01*
X32850003Y-19904167D01*
X32550003Y-19670833D02*
X32616670Y-19704167D01*
X32750003Y-19704167D01*
X32816670Y-19670833D01*
X32850003Y-19637500D01*
X32883337Y-19570833D01*
X32883337Y-19370833D01*
X32850003Y-19304167D01*
X32816670Y-19270833D01*
X32750003Y-19237500D01*
X32616670Y-19237500D01*
X32550003Y-19270833D01*
X31383337Y-19704167D02*
X31383337Y-19004167D01*
X31383337Y-19670833D02*
X31450004Y-19704167D01*
X31583337Y-19704167D01*
X31650004Y-19670833D01*
X31683337Y-19637500D01*
X31716671Y-19570833D01*
X31716671Y-19370833D01*
X31683337Y-19304167D01*
X31650004Y-19270833D01*
X31583337Y-19237500D01*
X31450004Y-19237500D01*
X31383337Y-19270833D01*
X30750004Y-19704167D02*
X30750004Y-19337500D01*
X30783338Y-19270833D01*
X30850004Y-19237500D01*
X30983338Y-19237500D01*
X31050004Y-19270833D01*
X30750004Y-19670833D02*
X30816671Y-19704167D01*
X30983338Y-19704167D01*
X31050004Y-19670833D01*
X31083338Y-19604167D01*
X31083338Y-19537500D01*
X31050004Y-19470833D01*
X30983338Y-19437500D01*
X30816671Y-19437500D01*
X30750004Y-19404167D01*
X30516671Y-19237500D02*
X30250005Y-19237500D01*
X30416671Y-19004167D02*
X30416671Y-19604167D01*
X30383338Y-19670833D01*
X30316671Y-19704167D01*
X30250005Y-19704167D01*
X56433328Y-20929167D02*
X56433328Y-20229167D01*
X56433328Y-20895833D02*
X56499995Y-20929167D01*
X56633328Y-20929167D01*
X56699995Y-20895833D01*
X56733328Y-20862500D01*
X56766662Y-20795833D01*
X56766662Y-20595833D01*
X56733328Y-20529167D01*
X56699995Y-20495833D01*
X56633328Y-20462500D01*
X56499995Y-20462500D01*
X56433328Y-20495833D01*
X55799995Y-20929167D02*
X55799995Y-20562500D01*
X55833329Y-20495833D01*
X55899995Y-20462500D01*
X56033329Y-20462500D01*
X56099995Y-20495833D01*
X55799995Y-20895833D02*
X55866662Y-20929167D01*
X56033329Y-20929167D01*
X56099995Y-20895833D01*
X56133329Y-20829167D01*
X56133329Y-20762500D01*
X56099995Y-20695833D01*
X56033329Y-20662500D01*
X55866662Y-20662500D01*
X55799995Y-20629167D01*
X55166662Y-20929167D02*
X55166662Y-20562500D01*
X55199996Y-20495833D01*
X55266662Y-20462500D01*
X55399996Y-20462500D01*
X55466662Y-20495833D01*
X55166662Y-20895833D02*
X55233329Y-20929167D01*
X55399996Y-20929167D01*
X55466662Y-20895833D01*
X55499996Y-20829167D01*
X55499996Y-20762500D01*
X55466662Y-20695833D01*
X55399996Y-20662500D01*
X55233329Y-20662500D01*
X55166662Y-20629167D01*
X54833329Y-20929167D02*
X54833329Y-20462500D01*
X54833329Y-20595833D02*
X54799996Y-20529167D01*
X54766663Y-20495833D01*
X54699996Y-20462500D01*
X54633329Y-20462500D01*
X54099996Y-20929167D02*
X54099996Y-20229167D01*
X54099996Y-20895833D02*
X54166663Y-20929167D01*
X54299996Y-20929167D01*
X54366663Y-20895833D01*
X54399996Y-20862500D01*
X54433330Y-20795833D01*
X54433330Y-20595833D01*
X54399996Y-20529167D01*
X54366663Y-20495833D01*
X54299996Y-20462500D01*
X54166663Y-20462500D01*
X54099996Y-20495833D01*
X53766663Y-20929167D02*
X53766663Y-20462500D01*
X53766663Y-20229167D02*
X53799997Y-20262500D01*
X53766663Y-20295833D01*
X53733330Y-20262500D01*
X53766663Y-20229167D01*
X53766663Y-20295833D01*
X53166664Y-20895833D02*
X53233330Y-20929167D01*
X53366664Y-20929167D01*
X53433330Y-20895833D01*
X53466664Y-20829167D01*
X53466664Y-20562500D01*
X53433330Y-20495833D01*
X53366664Y-20462500D01*
X53233330Y-20462500D01*
X53166664Y-20495833D01*
X53133330Y-20562500D01*
X53133330Y-20629167D01*
X53466664Y-20695833D01*
X52366664Y-20462500D02*
X52233331Y-20929167D01*
X52099997Y-20595833D01*
X51966664Y-20929167D01*
X51833331Y-20462500D01*
X51266664Y-20929167D02*
X51266664Y-20562500D01*
X51299998Y-20495833D01*
X51366664Y-20462500D01*
X51499998Y-20462500D01*
X51566664Y-20495833D01*
X51266664Y-20895833D02*
X51333331Y-20929167D01*
X51499998Y-20929167D01*
X51566664Y-20895833D01*
X51599998Y-20829167D01*
X51599998Y-20762500D01*
X51566664Y-20695833D01*
X51499998Y-20662500D01*
X51333331Y-20662500D01*
X51266664Y-20629167D01*
X50633331Y-20929167D02*
X50633331Y-20562500D01*
X50666665Y-20495833D01*
X50733331Y-20462500D01*
X50866665Y-20462500D01*
X50933331Y-20495833D01*
X50633331Y-20895833D02*
X50699998Y-20929167D01*
X50866665Y-20929167D01*
X50933331Y-20895833D01*
X50966665Y-20829167D01*
X50966665Y-20762500D01*
X50933331Y-20695833D01*
X50866665Y-20662500D01*
X50699998Y-20662500D01*
X50633331Y-20629167D01*
X50299998Y-20929167D02*
X50299998Y-20462500D01*
X50299998Y-20595833D02*
X50266665Y-20529167D01*
X50233332Y-20495833D01*
X50166665Y-20462500D01*
X50099998Y-20462500D01*
X49566665Y-20929167D02*
X49566665Y-20229167D01*
X49566665Y-20895833D02*
X49633332Y-20929167D01*
X49766665Y-20929167D01*
X49833332Y-20895833D01*
X49866665Y-20862500D01*
X49899999Y-20795833D01*
X49899999Y-20595833D01*
X49866665Y-20529167D01*
X49833332Y-20495833D01*
X49766665Y-20462500D01*
X49633332Y-20462500D01*
X49566665Y-20495833D01*
X49233332Y-20929167D02*
X49233332Y-20462500D01*
X49233332Y-20229167D02*
X49266666Y-20262500D01*
X49233332Y-20295833D01*
X49199999Y-20262500D01*
X49233332Y-20229167D01*
X49233332Y-20295833D01*
X48599999Y-20462500D02*
X48599999Y-21029167D01*
X48633333Y-21095833D01*
X48666666Y-21129167D01*
X48733333Y-21162500D01*
X48833333Y-21162500D01*
X48899999Y-21129167D01*
X48599999Y-20895833D02*
X48666666Y-20929167D01*
X48799999Y-20929167D01*
X48866666Y-20895833D01*
X48899999Y-20862500D01*
X48933333Y-20795833D01*
X48933333Y-20595833D01*
X48899999Y-20529167D01*
X48866666Y-20495833D01*
X48799999Y-20462500D01*
X48666666Y-20462500D01*
X48599999Y-20495833D01*
X48266666Y-20929167D02*
X48266666Y-20229167D01*
X47966666Y-20929167D02*
X47966666Y-20562500D01*
X48000000Y-20495833D01*
X48066666Y-20462500D01*
X48166666Y-20462500D01*
X48233333Y-20495833D01*
X48266666Y-20529167D01*
X47366667Y-20895833D02*
X47433333Y-20929167D01*
X47566667Y-20929167D01*
X47633333Y-20895833D01*
X47666667Y-20829167D01*
X47666667Y-20562500D01*
X47633333Y-20495833D01*
X47566667Y-20462500D01*
X47433333Y-20462500D01*
X47366667Y-20495833D01*
X47333333Y-20562500D01*
X47333333Y-20629167D01*
X47666667Y-20695833D01*
X47033333Y-20929167D02*
X47033333Y-20462500D01*
X47033333Y-20229167D02*
X47066667Y-20262500D01*
X47033333Y-20295833D01*
X47000000Y-20262500D01*
X47033333Y-20229167D01*
X47033333Y-20295833D01*
X46400000Y-20929167D02*
X46400000Y-20229167D01*
X46400000Y-20895833D02*
X46466667Y-20929167D01*
X46600000Y-20929167D01*
X46666667Y-20895833D01*
X46700000Y-20862500D01*
X46733334Y-20795833D01*
X46733334Y-20595833D01*
X46700000Y-20529167D01*
X46666667Y-20495833D01*
X46600000Y-20462500D01*
X46466667Y-20462500D01*
X46400000Y-20495833D01*
X45233334Y-20462500D02*
X45233334Y-21029167D01*
X45266668Y-21095833D01*
X45300001Y-21129167D01*
X45366668Y-21162500D01*
X45466668Y-21162500D01*
X45533334Y-21129167D01*
X45233334Y-20895833D02*
X45300001Y-20929167D01*
X45433334Y-20929167D01*
X45500001Y-20895833D01*
X45533334Y-20862500D01*
X45566668Y-20795833D01*
X45566668Y-20595833D01*
X45533334Y-20529167D01*
X45500001Y-20495833D01*
X45433334Y-20462500D01*
X45300001Y-20462500D01*
X45233334Y-20495833D01*
X44633335Y-20895833D02*
X44700001Y-20929167D01*
X44833335Y-20929167D01*
X44900001Y-20895833D01*
X44933335Y-20829167D01*
X44933335Y-20562500D01*
X44900001Y-20495833D01*
X44833335Y-20462500D01*
X44700001Y-20462500D01*
X44633335Y-20495833D01*
X44600001Y-20562500D01*
X44600001Y-20629167D01*
X44933335Y-20695833D01*
X44300001Y-20929167D02*
X44300001Y-20462500D01*
X44300001Y-20595833D02*
X44266668Y-20529167D01*
X44233335Y-20495833D01*
X44166668Y-20462500D01*
X44100001Y-20462500D01*
X43600002Y-20895833D02*
X43666668Y-20929167D01*
X43800002Y-20929167D01*
X43866668Y-20895833D01*
X43900002Y-20829167D01*
X43900002Y-20562500D01*
X43866668Y-20495833D01*
X43800002Y-20462500D01*
X43666668Y-20462500D01*
X43600002Y-20495833D01*
X43566668Y-20562500D01*
X43566668Y-20629167D01*
X43900002Y-20695833D01*
X43300002Y-20895833D02*
X43233335Y-20929167D01*
X43100002Y-20929167D01*
X43033335Y-20895833D01*
X43000002Y-20829167D01*
X43000002Y-20795833D01*
X43033335Y-20729167D01*
X43100002Y-20695833D01*
X43200002Y-20695833D01*
X43266668Y-20662500D01*
X43300002Y-20595833D01*
X43300002Y-20562500D01*
X43266668Y-20495833D01*
X43200002Y-20462500D01*
X43100002Y-20462500D01*
X43033335Y-20495833D01*
X42700001Y-20462500D02*
X42700001Y-21162500D01*
X42700001Y-20495833D02*
X42633335Y-20462500D01*
X42500001Y-20462500D01*
X42433335Y-20495833D01*
X42400001Y-20529167D01*
X42366668Y-20595833D01*
X42366668Y-20795833D01*
X42400001Y-20862500D01*
X42433335Y-20895833D01*
X42500001Y-20929167D01*
X42633335Y-20929167D01*
X42700001Y-20895833D01*
X41800002Y-20895833D02*
X41866668Y-20929167D01*
X42000002Y-20929167D01*
X42066668Y-20895833D01*
X42100002Y-20829167D01*
X42100002Y-20562500D01*
X42066668Y-20495833D01*
X42000002Y-20462500D01*
X41866668Y-20462500D01*
X41800002Y-20495833D01*
X41766668Y-20562500D01*
X41766668Y-20629167D01*
X42100002Y-20695833D01*
X41466668Y-20929167D02*
X41466668Y-20229167D01*
X41400002Y-20662500D02*
X41200002Y-20929167D01*
X41200002Y-20462500D02*
X41466668Y-20729167D01*
X41000001Y-20462500D02*
X40733335Y-20462500D01*
X40900001Y-20229167D02*
X40900001Y-20829167D01*
X40866668Y-20895833D01*
X40800001Y-20929167D01*
X40733335Y-20929167D01*
X40233335Y-20895833D02*
X40300001Y-20929167D01*
X40433335Y-20929167D01*
X40500001Y-20895833D01*
X40533335Y-20829167D01*
X40533335Y-20562500D01*
X40500001Y-20495833D01*
X40433335Y-20462500D01*
X40300001Y-20462500D01*
X40233335Y-20495833D01*
X40200001Y-20562500D01*
X40200001Y-20629167D01*
X40533335Y-20695833D01*
X39633335Y-20895833D02*
X39700001Y-20929167D01*
X39833335Y-20929167D01*
X39900001Y-20895833D01*
X39933335Y-20829167D01*
X39933335Y-20562500D01*
X39900001Y-20495833D01*
X39833335Y-20462500D01*
X39700001Y-20462500D01*
X39633335Y-20495833D01*
X39600001Y-20562500D01*
X39600001Y-20629167D01*
X39933335Y-20695833D01*
X39300001Y-20929167D02*
X39300001Y-20462500D01*
X39300001Y-20595833D02*
X39266668Y-20529167D01*
X39233335Y-20495833D01*
X39166668Y-20462500D01*
X39100001Y-20462500D01*
X38066669Y-20895833D02*
X38133335Y-20929167D01*
X38266669Y-20929167D01*
X38333335Y-20895833D01*
X38366669Y-20829167D01*
X38366669Y-20562500D01*
X38333335Y-20495833D01*
X38266669Y-20462500D01*
X38133335Y-20462500D01*
X38066669Y-20495833D01*
X38033335Y-20562500D01*
X38033335Y-20629167D01*
X38366669Y-20695833D01*
X37733335Y-20462500D02*
X37733335Y-20929167D01*
X37733335Y-20529167D02*
X37700002Y-20495833D01*
X37633335Y-20462500D01*
X37533335Y-20462500D01*
X37466669Y-20495833D01*
X37433335Y-20562500D01*
X37433335Y-20929167D01*
X36566669Y-20929167D02*
X36566669Y-20229167D01*
X36566669Y-20495833D02*
X36500003Y-20462500D01*
X36366669Y-20462500D01*
X36300003Y-20495833D01*
X36266669Y-20529167D01*
X36233336Y-20595833D01*
X36233336Y-20795833D01*
X36266669Y-20862500D01*
X36300003Y-20895833D01*
X36366669Y-20929167D01*
X36500003Y-20929167D01*
X36566669Y-20895833D01*
X35666670Y-20895833D02*
X35733336Y-20929167D01*
X35866670Y-20929167D01*
X35933336Y-20895833D01*
X35966670Y-20829167D01*
X35966670Y-20562500D01*
X35933336Y-20495833D01*
X35866670Y-20462500D01*
X35733336Y-20462500D01*
X35666670Y-20495833D01*
X35633336Y-20562500D01*
X35633336Y-20629167D01*
X35966670Y-20695833D01*
X35366670Y-20895833D02*
X35300003Y-20929167D01*
X35166670Y-20929167D01*
X35100003Y-20895833D01*
X35066670Y-20829167D01*
X35066670Y-20795833D01*
X35100003Y-20729167D01*
X35166670Y-20695833D01*
X35266670Y-20695833D01*
X35333336Y-20662500D01*
X35366670Y-20595833D01*
X35366670Y-20562500D01*
X35333336Y-20495833D01*
X35266670Y-20462500D01*
X35166670Y-20462500D01*
X35100003Y-20495833D01*
X34766669Y-20929167D02*
X34766669Y-20229167D01*
X34700003Y-20662500D02*
X34500003Y-20929167D01*
X34500003Y-20462500D02*
X34766669Y-20729167D01*
X33933336Y-20895833D02*
X34000002Y-20929167D01*
X34133336Y-20929167D01*
X34200002Y-20895833D01*
X34233336Y-20829167D01*
X34233336Y-20562500D01*
X34200002Y-20495833D01*
X34133336Y-20462500D01*
X34000002Y-20462500D01*
X33933336Y-20495833D01*
X33900002Y-20562500D01*
X33900002Y-20629167D01*
X34233336Y-20695833D01*
X33600002Y-20929167D02*
X33600002Y-20462500D01*
X33600002Y-20595833D02*
X33566669Y-20529167D01*
X33533336Y-20495833D01*
X33466669Y-20462500D01*
X33400002Y-20462500D01*
X33166669Y-20929167D02*
X33166669Y-20462500D01*
X33166669Y-20529167D02*
X33133336Y-20495833D01*
X33066669Y-20462500D01*
X32966669Y-20462500D01*
X32900003Y-20495833D01*
X32866669Y-20562500D01*
X32866669Y-20929167D01*
X32866669Y-20562500D02*
X32833336Y-20495833D01*
X32766669Y-20462500D01*
X32666669Y-20462500D01*
X32600003Y-20495833D01*
X32566669Y-20562500D01*
X32566669Y-20929167D01*
X31766670Y-20462500D02*
X31633337Y-20929167D01*
X31500003Y-20595833D01*
X31366670Y-20929167D01*
X31233337Y-20462500D01*
X30866670Y-20929167D02*
X30933337Y-20895833D01*
X30966670Y-20862500D01*
X31000004Y-20795833D01*
X31000004Y-20595833D01*
X30966670Y-20529167D01*
X30933337Y-20495833D01*
X30866670Y-20462500D01*
X30766670Y-20462500D01*
X30700004Y-20495833D01*
X30666670Y-20529167D01*
X30633337Y-20595833D01*
X30633337Y-20795833D01*
X30666670Y-20862500D01*
X30700004Y-20895833D01*
X30766670Y-20929167D01*
X30866670Y-20929167D01*
X30333337Y-20929167D02*
X30333337Y-20462500D01*
X30333337Y-20595833D02*
X30300004Y-20529167D01*
X30266671Y-20495833D01*
X30200004Y-20462500D01*
X30133337Y-20462500D01*
X29600004Y-20929167D02*
X29600004Y-20229167D01*
X29600004Y-20895833D02*
X29666671Y-20929167D01*
X29800004Y-20929167D01*
X29866671Y-20895833D01*
X29900004Y-20862500D01*
X29933338Y-20795833D01*
X29933338Y-20595833D01*
X29900004Y-20529167D01*
X29866671Y-20495833D01*
X29800004Y-20462500D01*
X29666671Y-20462500D01*
X29600004Y-20495833D01*
X29266671Y-20862500D02*
X29233338Y-20895833D01*
X29266671Y-20929167D01*
X29300005Y-20895833D01*
X29266671Y-20862500D01*
X29266671Y-20929167D01*
M02*
