M48
;DRILL file {KiCad 4.0.4-stable} date 03/04/18 16:21:03
;FORMAT={-:-/ absolute / metric / decimal}
FMAT,2
METRIC,TZ
T1C0.400
T2C0.800
T3C1.000
T4C2.200
%
G90
G05
M71
T1
X24.384Y-47.117
X25.908Y-60.579
X29.845Y-61.976
X31.115Y-42.926
X31.75Y-31.115
X32.004Y-47.117
X32.385Y-61.976
X34.29Y-31.115
X34.544Y-47.117
X36.068Y-60.579
X36.576Y-53.467
X39.37Y-26.797
X39.751Y-49.149
X39.751Y-58.928
X40.767Y-55.88
X42.164Y-57.277
X42.545Y-51.943
X44.069Y-55.88
X45.085Y-32.893
X48.768Y-61.976
X50.292Y-55.499
X51.308Y-61.976
X55.626Y-41.402
X55.626Y-49.022
X57.023Y-47.625
X58.039Y-40.005
X59.055Y-41.402
X59.563Y-47.625
X60.325Y-56.007
X60.96Y-38.862
X61.468Y-61.976
X62.484Y-56.007
X62.738Y-29.718
X64.008Y-61.976
X65.278Y-45.212
X68.707Y-55.499
X69.215Y-56.896
T2
X19.558Y-50.546
X19.558Y-58.166
X22.098Y-50.546
X22.098Y-58.166
X24.638Y-50.546
X24.638Y-58.166
X27.178Y-50.546
X27.178Y-58.166
X29.718Y-50.546
X29.718Y-58.166
X32.258Y-50.546
X32.258Y-58.166
X34.798Y-50.546
X34.798Y-58.166
X37.338Y-50.546
X37.338Y-58.166
X47.498Y-51.943
X47.498Y-59.563
X48.514Y-28.702
X48.514Y-36.322
X50.038Y-51.943
X50.038Y-59.563
X51.054Y-28.702
X51.054Y-36.322
X52.578Y-51.943
X52.578Y-59.563
X53.594Y-28.702
X53.594Y-36.322
X55.118Y-51.943
X55.118Y-59.563
X56.134Y-28.702
X56.134Y-36.322
X57.658Y-51.943
X57.658Y-59.563
X60.198Y-51.943
X60.198Y-59.563
X62.738Y-51.943
X62.738Y-59.563
X65.278Y-51.943
X65.278Y-59.563
T3
X30.774Y-29.068
X33.274Y-29.068
X35.774Y-29.068
X74.041Y-49.022
X74.041Y-51.562
X74.041Y-54.102
X74.168Y-24.892
X74.168Y-27.432
X74.168Y-29.972
X74.168Y-38.1
X74.168Y-40.64
X74.168Y-43.18
T4
X28.474Y-36.068
X38.074Y-36.068
T0
M30
