G04 #@! TF.FileFunction,Copper,L1,Top,Signal*
%FSLAX46Y46*%
G04 Gerber Fmt 4.6, Leading zero omitted, Abs format (unit mm)*
G04 Created by KiCad (PCBNEW 4.0.4-stable) date 01/26/18 16:24:35*
%MOMM*%
%LPD*%
G01*
G04 APERTURE LIST*
%ADD10C,0.100000*%
%ADD11C,0.300000*%
G04 APERTURE END LIST*
D10*
D11*
X16731000Y-18728571D02*
X18231000Y-18728571D01*
X18873857Y-21085714D02*
X16731000Y-21085714D01*
X16731000Y-16585714D01*
X18873857Y-16585714D01*
X22731000Y-21085714D02*
X22731000Y-18728571D01*
X22516714Y-18300000D01*
X22088143Y-18085714D01*
X21231000Y-18085714D01*
X20802429Y-18300000D01*
X22731000Y-20871429D02*
X22302429Y-21085714D01*
X21231000Y-21085714D01*
X20802429Y-20871429D01*
X20588143Y-20442857D01*
X20588143Y-20014286D01*
X20802429Y-19585714D01*
X21231000Y-19371429D01*
X22302429Y-19371429D01*
X22731000Y-19157143D01*
X24659572Y-20871429D02*
X25088143Y-21085714D01*
X25945286Y-21085714D01*
X26373858Y-20871429D01*
X26588143Y-20442857D01*
X26588143Y-20228571D01*
X26373858Y-19800000D01*
X25945286Y-19585714D01*
X25302429Y-19585714D01*
X24873858Y-19371429D01*
X24659572Y-18942857D01*
X24659572Y-18728571D01*
X24873858Y-18300000D01*
X25302429Y-18085714D01*
X25945286Y-18085714D01*
X26373858Y-18300000D01*
X28088143Y-18085714D02*
X29159572Y-21085714D01*
X30231000Y-18085714D02*
X29159572Y-21085714D01*
X28731000Y-22157143D01*
X28516715Y-22371429D01*
X28088143Y-22585714D01*
X34088143Y-21085714D02*
X31945286Y-21085714D01*
X31945286Y-16585714D01*
X37516714Y-21085714D02*
X37516714Y-18728571D01*
X37302428Y-18300000D01*
X36873857Y-18085714D01*
X36016714Y-18085714D01*
X35588143Y-18300000D01*
X37516714Y-20871429D02*
X37088143Y-21085714D01*
X36016714Y-21085714D01*
X35588143Y-20871429D01*
X35373857Y-20442857D01*
X35373857Y-20014286D01*
X35588143Y-19585714D01*
X36016714Y-19371429D01*
X37088143Y-19371429D01*
X37516714Y-19157143D01*
X39659572Y-21085714D02*
X39659572Y-16585714D01*
X39659572Y-18300000D02*
X40088143Y-18085714D01*
X40945286Y-18085714D01*
X41373857Y-18300000D01*
X41588143Y-18514286D01*
X41802429Y-18942857D01*
X41802429Y-20228571D01*
X41588143Y-20657143D01*
X41373857Y-20871429D01*
X40945286Y-21085714D01*
X40088143Y-21085714D01*
X39659572Y-20871429D01*
X45659572Y-18085714D02*
X45659572Y-21085714D01*
X44588143Y-16371429D02*
X43516715Y-19585714D01*
X46302429Y-19585714D01*
X48016715Y-21085714D02*
X48016715Y-16585714D01*
X50588143Y-21085714D02*
X48659572Y-18514286D01*
X50588143Y-16585714D02*
X48016715Y-19157143D01*
X52516715Y-21085714D02*
X52516715Y-18085714D01*
X52516715Y-16585714D02*
X52302429Y-16800000D01*
X52516715Y-17014286D01*
X52731000Y-16800000D01*
X52516715Y-16585714D01*
X52516715Y-17014286D01*
X56588143Y-21085714D02*
X56588143Y-16585714D01*
X56588143Y-20871429D02*
X56159572Y-21085714D01*
X55302429Y-21085714D01*
X54873857Y-20871429D01*
X54659572Y-20657143D01*
X54445286Y-20228571D01*
X54445286Y-18942857D01*
X54659572Y-18514286D01*
X54873857Y-18300000D01*
X55302429Y-18085714D01*
X56159572Y-18085714D01*
X56588143Y-18300000D01*
X58516715Y-20871429D02*
X58945286Y-21085714D01*
X59802429Y-21085714D01*
X60231001Y-20871429D01*
X60445286Y-20442857D01*
X60445286Y-20228571D01*
X60231001Y-19800000D01*
X59802429Y-19585714D01*
X59159572Y-19585714D01*
X58731001Y-19371429D01*
X58516715Y-18942857D01*
X58516715Y-18728571D01*
X58731001Y-18300000D01*
X59159572Y-18085714D01*
X59802429Y-18085714D01*
X60231001Y-18300000D01*
M02*
